<?xml version="1.0" encoding="utf-8"?>
<!-- Generator: Adobe Illustrator 16.0.0, SVG Export Plug-In . SVG Version: 6.00 Build 0)  -->
<!DOCTYPE svg PUBLIC "-//W3C//DTD SVG 1.1//EN" "http://www.w3.org/Graphics/SVG/1.1/DTD/svg11.dtd">
<svg version="1.1" id="Capa_1" xmlns="http://www.w3.org/2000/svg" xmlns:xlink="http://www.w3.org/1999/xlink" x="0px" y="0px"
	 width="40.379px" height="31.348px" viewBox="0 0 40.379 31.348" enable-background="new 0 0 40.379 31.348" xml:space="preserve">
<polygon fill="#F2961C" points="40.379,31.348 9,31.348 0,0 31.379,0 "/>
<path fill="#FFFFFF" d="M24.898,8.282v1.514c0,0.409-0.086,0.909-0.259,1.498c-0.173,0.59-0.425,1.224-0.756,1.9L17.92,25.352h6.848
	v1.754H15.48v-2.334l5.443-11.142l0.065-0.146c0.778-1.513,1.166-2.795,1.166-3.848V8.171c0-0.99-0.14-1.692-0.421-2.11
	c-0.28-0.42-0.745-0.628-1.393-0.628c-0.677,0-1.156,0.223-1.437,0.668c-0.28,0.445-0.421,1.239-0.421,2.374v1.548h-2.786V8.798
	c0-1.932,0.345-3.254,1.036-3.969c0.692-0.715,1.894-1.069,3.608-1.069c1.641,0,2.811,0.342,3.51,1.029
	C24.548,5.475,24.898,6.639,24.898,8.282"/>
</svg>
