<?xml version="1.0" encoding="utf-8"?>
<!-- Generator: Adobe Illustrator 16.0.0, SVG Export Plug-In . SVG Version: 6.00 Build 0)  -->
<!DOCTYPE svg PUBLIC "-//W3C//DTD SVG 1.1//EN" "http://www.w3.org/Graphics/SVG/1.1/DTD/svg11.dtd">
<svg version="1.1" id="Capa_1" xmlns="http://www.w3.org/2000/svg" xmlns:xlink="http://www.w3.org/1999/xlink" x="0px" y="0px"
	 width="141.02px" height="43.833px" viewBox="0 0 141.02 43.833" enable-background="new 0 0 141.02 43.833" xml:space="preserve">
<g>
	<g>
		<g>
			<path fill="#331842" d="M3.013,5.591H7.31c2.62,0,4.402,0.277,5.345,0.83c0.943,0.554,1.415,1.533,1.415,2.939v8.281
				c0,1.406-0.471,2.383-1.415,2.93s-2.725,0.82-5.345,0.82H6.341v13.008H3.013V5.591z M6.341,7.72v11.562h0.891
				c1.327,0,2.214-0.198,2.66-0.596c0.445-0.397,0.668-1.292,0.668-2.686v-5c0-1.393-0.223-2.288-0.668-2.686
				C9.445,7.918,8.559,7.72,7.231,7.72H6.341z"/>
			<path fill="#331842" d="M28.14,19.009v15.391h-3.013l-0.209-1.23c-0.437,0.56-0.992,0.986-1.664,1.279
				c-0.673,0.293-1.446,0.439-2.319,0.439c-1.362,0-2.328-0.342-2.896-1.025c-0.567-0.684-0.852-1.878-0.852-3.584v-4.004
				c0-1.575,0.572-2.695,1.716-3.359s3.148-1.035,6.013-1.113V18.95c0-1.211-0.153-2.024-0.458-2.441
				c-0.306-0.417-0.852-0.625-1.638-0.625c-0.751,0-1.288,0.192-1.611,0.576c-0.323,0.384-0.484,1.045-0.484,1.982v1.113h-3.223
				v-0.547c0-2.005,0.393-3.369,1.179-4.092s2.183-1.084,4.192-1.084c1.956,0,3.323,0.365,4.1,1.094
				C27.751,15.656,28.14,17.017,28.14,19.009z M24.891,23.755c-1.677,0.052-2.817,0.273-3.419,0.664s-0.904,1.094-0.904,2.109v3.223
				c0,1.198,0.157,2.012,0.472,2.441c0.314,0.43,0.873,0.645,1.677,0.645c0.786,0,1.349-0.231,1.69-0.693
				c0.34-0.462,0.511-1.26,0.511-2.393L24.891,23.755z"/>
			<path fill="#331842" d="M40.638,13.872v2.441h-0.55c-1.38,0-2.358,0.257-2.935,0.771c-0.577,0.515-0.865,1.403-0.865,2.666
				v14.648h-3.223V14.321h3.013l0.209,1.23c0.454-0.547,1.009-0.97,1.664-1.27c0.655-0.299,1.366-0.449,2.135-0.449
				c0.052,0,0.14,0.007,0.262,0.02C40.472,13.866,40.568,13.872,40.638,13.872z"/>
			<path fill="#331842" d="M46.324,8.911v5.41h2.463v2.031h-2.463v14.922c0,0.56,0.144,0.947,0.433,1.162
				c0.288,0.215,0.808,0.322,1.559,0.322h0.472v2.09c-0.192,0.013-0.389,0.022-0.589,0.029c-0.201,0.006-0.485,0.01-0.852,0.01
				c-1.642,0-2.76-0.296-3.354-0.889s-0.891-1.911-0.891-3.955V16.353h-1.755v-2.031h1.755V9.888L46.324,8.911z"/>
			<path fill="#331842" d="M62.856,19.556v5.957h-7.625v4.238c0,1.198,0.157,2.012,0.472,2.441s0.873,0.645,1.677,0.645
				c0.769,0,1.31-0.221,1.625-0.664c0.314-0.442,0.472-1.25,0.472-2.422v-2.227h3.38v1.641c0,2.214-0.402,3.721-1.205,4.521
				c-0.804,0.801-2.227,1.201-4.271,1.201c-2.026,0-3.445-0.407-4.257-1.221c-0.812-0.813-1.219-2.327-1.219-4.541v-9.57
				c0-2.227,0.397-3.737,1.192-4.531c0.794-0.794,2.223-1.191,4.284-1.191c2.026,0,3.446,0.407,4.258,1.221
				C62.451,15.868,62.856,17.368,62.856,19.556z M59.477,18.95c0-1.185-0.157-1.992-0.472-2.422s-0.856-0.645-1.625-0.645
				c-0.786,0-1.341,0.228-1.664,0.684c-0.323,0.456-0.485,1.25-0.485,2.383v4.531h4.245V18.95z"/>
		</g>
	</g>
	<g>
		<polygon fill="#0093AF" points="107.251,37.31 75.873,37.31 66.873,5.962 98.251,5.962 		"/>
		<polygon fill="#0093AF" points="141.02,37.31 109.641,37.31 100.641,5.962 132.02,5.962 		"/>
		<path fill="#FFFFFF" d="M85.835,10.089h2.701v22.979h-2.701V12.618c-0.519,0.345-1.037,0.634-1.556,0.87
			c-0.518,0.237-1.051,0.431-1.598,0.581V11.83c0.619-0.227,1.192-0.484,1.717-0.774C84.924,10.768,85.403,10.444,85.835,10.089"/>
		<path fill="#FFFFFF" d="M125.539,14.244v1.514c0,0.409-0.086,0.909-0.259,1.498c-0.173,0.59-0.425,1.224-0.756,1.9l-5.963,12.158
			h6.848v1.754h-9.288v-2.334l5.443-11.142l0.065-0.146c0.778-1.513,1.166-2.795,1.166-3.848v-1.464c0-0.99-0.14-1.692-0.421-2.11
			c-0.28-0.42-0.745-0.628-1.393-0.628c-0.677,0-1.156,0.223-1.437,0.668c-0.28,0.445-0.421,1.239-0.421,2.374v1.548h-2.786V14.76
			c0-1.932,0.345-3.254,1.036-3.969c0.692-0.715,1.894-1.069,3.608-1.069c1.641,0,2.811,0.342,3.51,1.029
			C125.189,11.437,125.539,12.601,125.539,14.244"/>
	</g>
</g>
</svg>
