<?xml version="1.0" encoding="utf-8"?>
<!-- Generator: Adobe Illustrator 16.0.0, SVG Export Plug-In . SVG Version: 6.00 Build 0)  -->
<!DOCTYPE svg PUBLIC "-//W3C//DTD SVG 1.1//EN" "http://www.w3.org/Graphics/SVG/1.1/DTD/svg11.dtd">
<svg version="1.1" id="Capa_1" xmlns="http://www.w3.org/2000/svg" xmlns:xlink="http://www.w3.org/1999/xlink" x="0px" y="0px"
	 width="32.997px" height="32.999px" viewBox="0 0 32.997 32.999" enable-background="new 0 0 32.997 32.999" xml:space="preserve">
<g>
	<g>
		<path fill="#E6332A" d="M16.499,30.999C8.504,30.999,2,24.494,2,16.499C2,8.504,8.504,2,16.499,2
			c7.994,0,14.498,6.504,14.498,14.499C30.997,24.494,24.493,30.999,16.499,30.999z"/>
		<path fill="#FFFFFF" d="M16.499,4c6.902,0,12.498,5.597,12.498,12.499c0,6.904-5.596,12.5-12.498,12.5
			C9.596,28.999,4,23.403,4,16.499C4,9.597,9.596,4,16.499,4 M16.499,0C7.401,0,0,7.401,0,16.499c0,9.098,7.401,16.5,16.499,16.5
			s16.498-7.402,16.498-16.5C32.997,7.401,25.597,0,16.499,0L16.499,0z"/>
	</g>
	<g>
		<g>
			<path fill="#FFFFFF" d="M19.149,12.251v0.883c0,0.238-0.05,0.53-0.15,0.873c-0.102,0.345-0.248,0.715-0.441,1.109l-3.477,7.092
				h3.994v1.023h-5.418v-1.362l3.174-6.499l0.039-0.085c0.453-0.883,0.68-1.631,0.68-2.244v-0.854c0-0.577-0.082-0.987-0.246-1.23
				c-0.163-0.245-0.434-0.367-0.812-0.367c-0.395,0-0.674,0.131-0.838,0.39c-0.164,0.26-0.245,0.722-0.245,1.385v0.902h-1.626
				v-0.714c0-1.127,0.202-1.899,0.605-2.315c0.402-0.416,1.104-0.625,2.104-0.625c0.958,0,1.641,0.201,2.048,0.602
				S19.149,11.293,19.149,12.251z"/>
		</g>
	</g>
</g>
</svg>
