<?xml version="1.0" encoding="utf-8"?>
<!-- Generator: Adobe Illustrator 16.0.0, SVG Export Plug-In . SVG Version: 6.00 Build 0)  -->
<!DOCTYPE svg PUBLIC "-//W3C//DTD SVG 1.1//EN" "http://www.w3.org/Graphics/SVG/1.1/DTD/svg11.dtd">
<svg version="1.1" id="Capa_1" xmlns="http://www.w3.org/2000/svg" xmlns:xlink="http://www.w3.org/1999/xlink" x="0px" y="0px"
	 width="32.997px" height="32.999px" viewBox="0 0 32.997 32.999" enable-background="new 0 0 32.997 32.999" xml:space="preserve">
<g>
	<g>
		<path fill="#A0C219" d="M16.499,30.999C8.504,30.999,2,24.494,2,16.499C2,8.504,8.504,2,16.499,2
			c7.994,0,14.498,6.504,14.498,14.499C30.997,24.494,24.493,30.999,16.499,30.999z"/>
		<path fill="#FFFFFF" d="M16.499,4c6.902,0,12.498,5.597,12.498,12.499c0,6.903-5.596,12.5-12.498,12.5
			C9.595,28.999,4,23.402,4,16.499C4,9.597,9.595,4,16.499,4 M16.499,0C7.401,0,0,7.401,0,16.499c0,9.098,7.401,16.5,16.499,16.5
			s16.498-7.402,16.498-16.5C32.997,7.401,25.597,0,16.499,0L16.499,0z"/>
	</g>
	<g>
		<g>
			<path fill="#FFFFFF" d="M19.074,12.552v2.272c0,0.444-0.101,0.773-0.303,0.986s-0.538,0.354-1.008,0.423
				c0.47,0.062,0.806,0.2,1.008,0.413s0.303,0.542,0.303,0.986v2.864c0,1.159-0.195,1.943-0.586,2.353
				c-0.391,0.41-1.09,0.615-2.099,0.615c-0.99,0-1.686-0.211-2.084-0.634c-0.4-0.423-0.6-1.207-0.6-2.353v-0.921h1.601v1.137
				c0,0.664,0.082,1.124,0.245,1.381c0.164,0.257,0.443,0.385,0.838,0.385c0.396,0,0.67-0.126,0.826-0.38
				c0.155-0.254,0.232-0.716,0.232-1.386v-2.931c0-0.406-0.103-0.681-0.309-0.821c-0.205-0.141-0.619-0.211-1.24-0.211h-0.441
				v-1.024h0.441c0.612,0,1.024-0.073,1.234-0.221c0.21-0.146,0.314-0.424,0.314-0.831v-2.292c0-0.732-0.07-1.211-0.214-1.437
				s-0.399-0.338-0.769-0.338c-0.378,0-0.645,0.128-0.8,0.385s-0.233,0.72-0.233,1.39v0.864h-1.625v-0.676
				c0-1.121,0.197-1.892,0.592-2.311c0.395-0.42,1.084-0.63,2.066-0.63c0.966,0,1.643,0.209,2.029,0.625
				C18.881,10.652,19.074,11.425,19.074,12.552z"/>
		</g>
	</g>
</g>
</svg>
