<?xml version="1.0" encoding="utf-8"?>
<!-- Generator: Adobe Illustrator 16.0.0, SVG Export Plug-In . SVG Version: 6.00 Build 0)  -->
<!DOCTYPE svg PUBLIC "-//W3C//DTD SVG 1.1//EN" "http://www.w3.org/Graphics/SVG/1.1/DTD/svg11.dtd">
<svg version="1.1" id="Capa_1" xmlns="http://www.w3.org/2000/svg" xmlns:xlink="http://www.w3.org/1999/xlink" x="0px" y="0px"
	 width="32.996px" height="32.999px" viewBox="0 0 32.996 32.999" enable-background="new 0 0 32.996 32.999" xml:space="preserve">
<g>
	<g>
		<path fill="#E6332A" d="M16.498,30.999C8.504,30.999,2,24.494,2,16.499C2,8.504,8.504,2,16.498,2s14.498,6.504,14.498,14.499
			C30.996,24.494,24.492,30.999,16.498,30.999z"/>
		<path fill="#FFFFFF" d="M16.498,4C23.4,4,28.996,9.597,28.996,16.499c0,6.904-5.596,12.5-12.498,12.5S4,23.403,4,16.499
			C4,9.597,9.596,4,16.498,4 M16.498,0C7.4,0,0,7.401,0,16.499c0,9.098,7.4,16.5,16.498,16.5s16.498-7.402,16.498-16.5
			C32.996,7.401,25.596,0,16.498,0L16.498,0z"/>
	</g>
	<g>
		<g>
			<path fill="#FFFFFF" d="M19.124,12.552v0.93h-1.626v-1.118c0-0.657-0.077-1.117-0.232-1.38c-0.156-0.264-0.422-0.395-0.801-0.395
				c-0.369,0-0.625,0.108-0.768,0.324c-0.144,0.217-0.215,0.701-0.215,1.451v3.082c0.219-0.164,0.458-0.283,0.719-0.358
				c0.26-0.074,0.574-0.112,0.945-0.112c0.746,0,1.28,0.194,1.6,0.582c0.318,0.389,0.479,1.049,0.479,1.982v2.958
				c0,1.159-0.195,1.943-0.586,2.353c-0.391,0.41-1.09,0.615-2.098,0.615c-0.991,0-1.687-0.21-2.086-0.634
				c-0.398-0.423-0.598-1.207-0.598-2.353v-7.927c0-1.14,0.193-1.915,0.58-2.325c0.386-0.41,1.062-0.615,2.027-0.615
				c0.992,0,1.683,0.21,2.073,0.63C18.929,10.66,19.124,11.431,19.124,12.552z M17.625,17.689c0-0.664-0.082-1.127-0.246-1.391
				c-0.164-0.263-0.443-0.394-0.838-0.394s-0.674,0.131-0.838,0.394c-0.164,0.263-0.246,0.727-0.246,1.391v3.005
				c0,0.664,0.082,1.124,0.246,1.38c0.164,0.257,0.443,0.385,0.838,0.385c0.403,0,0.685-0.128,0.844-0.385
				c0.16-0.256,0.24-0.717,0.24-1.38V17.689z"/>
		</g>
	</g>
</g>
</svg>
