<?xml version="1.0" encoding="utf-8"?>
<!-- Generator: Adobe Illustrator 16.0.0, SVG Export Plug-In . SVG Version: 6.00 Build 0)  -->
<!DOCTYPE svg PUBLIC "-//W3C//DTD SVG 1.1//EN" "http://www.w3.org/Graphics/SVG/1.1/DTD/svg11.dtd">
<svg version="1.1" id="Capa_1" xmlns="http://www.w3.org/2000/svg" xmlns:xlink="http://www.w3.org/1999/xlink" x="0px" y="0px"
	 width="451.102px" height="518.477px" viewBox="0 0 451.102 518.477" enable-background="new 0 0 451.102 518.477"
	 xml:space="preserve">
<g>
	<g opacity="0.9069">
		<path fill="#A7A7A7" d="M451.102,499.571c0,10.441-36.861,18.905-82.338,18.905s-82.34-8.464-82.34-18.905
			c0-10.445,36.863-18.915,82.34-18.915S451.102,489.126,451.102,499.571z"/>
	</g>
	<g>
		<path fill-rule="evenodd" clip-rule="evenodd" fill="#95C11F" d="M284.963,381.602c-11.885,5.398-23.453,11.156-35.42,15.931
			c-9.828,3.921-11.772,2.53-17.762-6.108c-13.076-18.84-31.088-29.093-54.187-29.629c-60.93-1.415-110.342-26.021-145.145-75.994
			C-24.727,203.705-2.233,99.803,67.776,45.367c81.759-63.572,195.329-47.256,255.112,37.196
			c44.756,63.224,40.923,138.837,5.572,195.017c-14.516,23.055-18.698,45.99-7.056,71.058c2.923,6.289-1.028,10.109-5.235,12.989
			C305.961,368.613,295.354,375.008,284.963,381.602z M247.799,312.695c69.792-37.938,95.582-125.25,57.676-195.248
			c-37.67-69.549-125.761-95.683-195.392-57.969c-69.848,37.85-95.818,126.097-57.688,196.051
			C90.339,325.166,177.795,350.738,247.799,312.695z"/>
		<path fill-rule="evenodd" clip-rule="evenodd" fill="#95C11F" d="M307.955,424.369c-10.209,5.535-20.405,11.07-30.614,16.598
			c-5.191,2.805-10.683,4.357-14.048-2.013c-3.123-5.915,0.896-9.717,5.809-12.378c20.605-11.244,41.247-22.438,61.902-33.581
			c4.924-2.667,10.283-3.952,13.549,1.895c3.503,6.295-0.804,10.054-5.982,12.864C328.367,413.301,318.164,418.836,307.955,424.369z
			"/>
		<path fill-rule="evenodd" clip-rule="evenodd" fill="#95C11F" d="M289.645,389.879c10.42-5.646,20.842-11.281,31.25-16.965
			c4.711-2.574,9.61-3.939,12.714,1.744c3.179,5.834-0.286,9.648-5.385,12.403c-20.842,11.287-41.684,22.587-62.5,33.911
			c-5.073,2.749-10.216,3.709-13.376-2.15c-3.328-6.17,1.16-9.373,6.033-12.01C268.82,401.197,279.223,395.525,289.645,389.879z"/>
		<path fill-rule="evenodd" clip-rule="evenodd" fill="#95C11F" d="M318.625,444.632c-3.402,1.851-6.668,4.817-10.233,5.217
			c-3.453,0.38-8.962-0.86-10.333-3.247c-1.322-2.318,0.299-8.564,2.667-10.328c6.37-4.699,13.574-8.613,20.991-11.405
			c2.805-1.06,8.888,0.817,10.196,3.179c1.31,2.381-0.474,7.848-2.68,10.434c-2.506,2.923-6.993,4.163-10.62,6.12
			C318.613,444.601,318.625,444.619,318.625,444.632z"/>
		<circle fill-rule="evenodd" clip-rule="evenodd" fill="#95C11F" cx="177.859" cy="183.288" r="161.487"/>
	</g>
	<g>
		<path fill="#F4AB7D" d="M315.141,273.802c-1.559,5.682-3.453,8.913-1.004,10.917c2.451,2.004,1.939,10.58,1.719,14.811
			c-0.225,4.234-13.191,0.895-13.191,0.895s0-11.92,2.117-27.179C307.567,273.245,315.141,273.802,315.141,273.802z"/>
		<path fill="#F4AB7D" d="M303.157,288.764c0.075,6.832-1.559,16.263-0.074,18.787c1.486,2.524,8.464,13.737,9.653,13.441
			c1.189-0.297,0.446-2.971,0.446-2.971c2.378,2.525,5.345,4.01,4.603-2.822c-1.93-4.752-3.268-6.682-3.268-7.869
			c3.715,5.494,4.01,8.316,5.496,8.168c1.486-0.15-1.338-7.131-3.27-10.1c-1.93-2.971,0.002-13.219-1.038-16.486
			C314.666,285.646,303.157,288.764,303.157,288.764z"/>
		<g>
			<g>
				<path fill="#D28657" d="M307.232,294.854c0.14-0.093,1.127,1.205,1.879,3.698c0.42,1.214,0.725,2.749,1.35,4.233
					c0.32,0.748,0.709,1.525,1.215,2.23c0.242,0.357,0.533,0.688,0.821,0.944c0.073,0.068,0.144,0.118,0.212,0.159
					c0.049,0.035,0.032,0.021,0.041,0.024c0.008,0,0.013-0.004,0.014-0.011c-0.035,0.178,0.117-0.456,0.1-0.98
					c0.002-0.539-0.028-1.108-0.089-1.688c-0.119-1.178-0.326-2.336-0.556-3.445c-0.117-0.553-0.244-1.096-0.379-1.623
					c-0.131-0.533-0.284-1.012-0.412-1.611c-0.459-2.315,0.018-4.279,0.135-5.822c0.175-1.559,0.014-2.753-0.318-3.537
					c-0.322-0.783-0.65-1.181-0.543-1.275c0.053-0.058,0.544,0.18,1.102,0.978c0.57,0.783,0.953,2.233,0.908,3.89
					c0.01,1.648-0.289,3.557,0.178,5.434c0.601,1.955,1.251,4.35,1.502,6.85c0.066,0.623,0.1,1.248,0.09,1.885
					c-0.006,0.318-0.035,0.648-0.086,0.988c-0.035,0.283-0.243,0.926-0.614,1.309c-0.38,0.283-0.866,0.383-1.327,0.24
					c-0.218-0.092-0.471-0.174-0.617-0.299c-0.142-0.094-0.268-0.193-0.371-0.295c-0.438-0.406-0.766-0.828-1.043-1.262
					c-0.566-0.855-0.95-1.731-1.26-2.578c-0.608-1.732-0.771-3.242-1.053-4.473C307.652,296.341,307.031,294.965,307.232,294.854z"
					/>
			</g>
		</g>
		<path fill="#F4AB7D" d="M402.366,350.998c0.774,24.777,0.021,121.959,1.956,130.863c1.938,8.906,15.1,25.939,12.39,29.812
			c-2.712,3.873-20.134-13.938-23.618-24.393c-3.483-10.454-14.711-127.379-14.711-127.379L402.366,350.998z"/>
		<path fill="#1F152A" d="M391.934,482.249c14.713,23.812,24.488,28.167,20.229,15.778c0,0,9.583,15.002,4.936,15.389
			c-3.236,0.27-12.68-6.088-19.588-16.518l0.23,4.031l-2.71-2.324c0,0-1.228-5.736-1.966-10.098
			C392.16,485.975,391.627,483.24,391.934,482.249z"/>
		<path fill="#F4AB7D" d="M355.709,354.482c0,15.1-1.161,121.087-2.033,123.701c-0.871,2.613-15.973,18.973-33.396,17.811
			c-4.646-1.162,16.263-15.488,20.618-21.877c1.453-21.778-9.002-108.602-10.164-123.41
			C329.574,335.898,355.709,354.482,355.709,354.482z"/>
		<path fill="#1F152A" d="M354.354,472.182c0.967,4.064,0.822,8.035-2.855,21.972c-1.309,0.679-2.905,0.581-2.905,0.581
			c-0.075-3.424,0.728-5.662,0.872-10.162c-10.453,7.84-12.051,13.211-25.505,13.356c-5.644,0.062-12.775,0.968,0-8.13
			C322.99,496.572,337.703,491.54,354.354,472.182z"/>
		<path fill="#3D2113" d="M326.258,109.08c6.969-6.39,16.844-8.518,30.394-4.066c13.55,4.452,22.457,0.967,30.2,0.581
			c7.741-0.387,19.164,1.354,23.809,2.129c13.552-8.711,1.549-62.335,0.775-66.787c-0.775-4.452-48.009-32.522-56.14-30.198
			c-8.132,2.322-16.067,0-18.972,3.483c-2.903,3.486,0.773,40.073-7.357,51.106C320.838,76.365,313.867,96.109,326.258,109.08z"/>
		<path fill="#682D12" d="M399.191,73.144c-0.775,11.615-18.537,39.226-1.5,50.454c1.162-6.969,4.646-13.744,12.777-10.453
			c8.131,3.29,17.42-0.389,20.132-4.842c12.003-20.906,4.065-35.619-3.29-45.299c-7.355-9.678-9.873-25.359-9.873-25.359
			L401.95,55.648"/>
		<path fill="#682D12" d="M357.231,18.673c-8.71-15.099-35.812-6.58-34.069,6.776c1.742,13.359,12,25.361,0.771,38.137
			c-11.227,12.779-19.164,31.361-9.873,42.781c9.294,11.425,6.971,12.005,5.229,14.133c12.584-4.646,12.776-10.646,5.422-26.52
			c-7.357-15.875,13.928-32.479,13.742-50.141C338.26,25.256,344.65,19.643,357.231,18.673z"/>
		<path fill="#3E2512" d="M335.357,31.644c1.848,8.442,2.43,16.345,0.842,23.157c1.383-3.609,2.293-7.262,2.254-10.961
			c-0.162-15.592,4.312-22.053,13.188-24.299C342.172,17.435,332.818,20.035,335.357,31.644z"/>
		<path fill="#C6C3BB" d="M409.033,442.371c-6.193,3.291-19.938,2.13-24.198,0.388c-3.29-18.392-22.454-155.259-22.454-155.259
			s-5.035,148.479-5.229,151.577c-8.131,4.648-19.164,0.582-21.1-1.741c-2.131-15.874-6.195-100.469-7.356-117.699
			s2.903-56.916,3.872-70.467c0.967-13.55,6.969-36.007,6.969-36.007s21.391,3.679,45.298-0.193
			C397.418,231.36,409.227,430.755,409.033,442.371z"/>
		<path fill="#EDABB1" d="M393.834,126.389c-5.082-3.63-25.117-6.679-39.637,0c-12.341,9.291-7.84,10.6-7.113,10.744
			c0.725,0.145,48.929,5.228,48.929,5.228"/>
		<path fill="#F4AB7D" d="M387.881,86.898c-1.354,15.484-5.035,38.377,10.455,47.477c-5.809,22.648-42.253,27.489-42.253,27.489
			s-7.548-26.134-4.258-31.362c12.39-2.71,11.81-15.197,12.392-32.425C367.12,91.688,387.881,86.898,387.881,86.898z"/>
		<path fill="#D28657" fill-opacity="0.5" d="M361.547,122.452c2.384-5.824,2.327-14.284,2.67-24.375
			c2.903-6.39,23.664-11.179,23.664-11.179c-0.615,7.042-1.709,15.619-1.264,23.732C377.92,118.064,367.225,121.604,361.547,122.452
			z"/>
		<path fill="#1F152A" d="M395.025,135.471c-6.388,9.873-21.221,71.446-17.541,79.963c-24.585,0.969-37.428,0-37.428,0
			c-6.582-24.005-11.073-69.977,14.285-86.432c-1.935,10.453,0.58,21.246,3.486,22.989
			C366.346,149.861,392.315,133.148,395.025,135.471z"/>
		<path fill="#F4AB7D" d="M338.082,35.936c1.451,18.293,1.162,29.328-2.033,43.557c-1.453,6.389-0.58,15.68,21.779,28.748
			c3.338,1.598,37.312-6.389,41.812-34.266c4.641-28.729-4.645-51.687-22.066-55.172C360.15,15.318,339.533,17.352,338.082,35.936z"
			/>
		<path fill="#F4AB7D" d="M400.802,62.553c4.938-7.598,14.519-1.936,11.423,6.195c-3.207,8.418-11.13,9.438-15.341,5.082
			C397.658,67.635,400.802,62.553,400.802,62.553z"/>
		<g>
			<g>
				<g>
					<path fill="#010202" d="M372.78,68.604c-0.316-0.057-0.526-1.492,0.157-3.79c0.372-1.125,1.04-2.512,2.337-3.66
						c1.265-1.186,3.129-1.886,4.949-2.103c1.834-0.222,3.493-0.094,4.934,0.006c1.441,0.111,2.673,0.194,3.65,0.128
						c1.944-0.08,2.791-1.099,3.139-0.89c0.133,0.081,0.135,0.509-0.28,1.1c-0.394,0.595-1.302,1.281-2.503,1.619
						c-2.403,0.734-5.582,0.299-8.607,0.652c-1.505,0.192-2.78,0.625-3.732,1.359c-0.978,0.703-1.661,1.665-2.18,2.539
						C373.646,67.354,373.17,68.686,372.78,68.604z"/>
				</g>
			</g>
		</g>
		<path fill="#010202" d="M384.97,60.119c1.062,1.092,1.751,2.721,1.751,4.564c0,3.287-2.146,5.952-4.792,5.952
			s-4.79-2.665-4.79-5.952c0-1.773,0.636-3.348,1.627-4.438C380.832,60.156,382.9,60.123,384.97,60.119z"/>
		<g>
			<g>
				<path fill="#D28657" d="M361.409,80.754c-0.067,0.18-1.458,0.021-3.587-0.922c-0.524-0.268-1.104-0.57-1.668-1.113
					c-0.278-0.268-0.565-0.617-0.729-1.096c-0.196-0.479-0.129-1.068,0.038-1.546c0.396-0.925,1.052-1.503,1.675-2.058
					c0.709-0.585,1.115-0.9,1.422-1.566c0.598-1.267,0.57-2.883,0.502-4.283c-0.079-1.424-0.252-2.726-0.381-3.823
					c-0.273-2.193-0.403-3.579-0.178-3.63c0.213-0.047,0.738,1.243,1.309,3.418c0.275,1.091,0.572,2.398,0.743,3.91
					c0.134,1.494,0.306,3.26-0.532,5.12c-0.219,0.454-0.518,0.874-0.866,1.237c-0.388,0.37-0.705,0.6-0.993,0.836
					c-0.586,0.475-1.106,0.977-1.312,1.406c-0.424,0.688,0.672,1.645,1.535,2.184C360.207,79.945,361.5,80.518,361.409,80.754z"/>
			</g>
		</g>
		<path fill="#010202" d="M352.795,68.49c-0.684,1.473-1.777,2.438-3.02,2.438c-2.073,0-3.757-2.667-3.757-5.953
			c0-1.991,0.622-3.742,1.572-4.824C350.73,61.951,352.094,65.072,352.795,68.49z"/>
		<g>
			<path fill="#3D2113" d="M350.713,49.582c0.167-0.106-0.12-0.917-1.164-1.713c-1.017-0.797-2.762-1.455-4.74-1.392
				c-1.985,0.034-3.73,0.942-4.598,1.925c-0.879,0.996-0.992,1.829-0.822,1.906c0.225,0.123,0.695-0.447,1.579-1.039
				c0.884-0.586,2.255-1.13,3.896-1.166c1.63-0.053,3.115,0.321,4.098,0.755C349.961,49.276,350.518,49.732,350.713,49.582z"/>
		</g>
		<path fill="#E73F2C" d="M374.475,86.752c-5.516,9.295-21.299,25.075-21.006,3.968C354.729,90.142,374.475,86.752,374.475,86.752z"
			/>
		<path fill="#FFFFFF" d="M374.765,86.075c-7.452,2.129-18.292,0.192-24.681,0.192c4.838,3.776,6.193,12.584,7.646,12.777
			C362.375,99.045,369.828,92.463,374.765,86.075z"/>
		<path fill="#E73F2C" d="M374.281,85.979c-5.13,1.355-20.23-3.195-26.714-0.291C352.115,86.85,368.861,89.268,374.281,85.979z"/>
		<g>
			<g>
				<path fill="#D28657" d="M372.346,85.301c0.127-0.415,1.488-0.353,2.85,0.434c0.705,0.341,1.226,0.867,1.566,1.264
					c0.338,0.406,0.465,0.74,0.326,0.916c-0.307,0.371-1.428-0.07-2.675-0.752C373.172,86.439,372.2,85.743,372.346,85.301z"/>
			</g>
		</g>
		<g>
			<g>
				<g>
					<path fill="#010202" d="M352.816,68.385c-0.378,0.052-0.795-0.997-1.419-2.555c-0.623-1.518-1.557-3.719-3.348-4.311
						c-1.869-0.655-4.484,0.101-6.576-0.646c-1.064-0.366-1.711-1.18-1.881-1.719c-0.201-0.554-0.123-0.888,0.027-0.956
						c0.362-0.188,1.005,0.833,2.297,0.863c0.672,0.046,1.589-0.097,2.755-0.256c1.148-0.13,2.61-0.326,4.249,0.225
						c1.652,0.565,2.817,1.926,3.36,3.106c0.576,1.204,0.827,2.313,0.924,3.234C353.405,67.219,353.157,68.341,352.816,68.385z"/>
				</g>
			</g>
		</g>
		<path fill="#F39200" d="M384.688,348.094c11.904-0.291,40.219-1.307,46.461-16.116c-7.695-30.635-16.552-78.984-36.588-114.701
			c-2.47-7.403,11.761-25.843,16.986-41.523c5.082-17.277,8.617-34.989,8.229-35.571c-2.131-2.031-21.587-6.244-21.587-6.244
			s-22.795,14.52-25.408,35.427c-2.613,20.908,0.292,59.964,3.339,87.406C379.17,284.209,378.3,338.221,384.688,348.094z"/>
		<path fill="#D37D00" d="M393.641,126.244c5.615,4.453,11.496,6.576,11.445,7.188c-0.822,10.115-10.283,19.914-11.445,20.883
			c-6.969,1.548-14.131,4.065-14.131,4.065c8.516,5.129,6.775,5.611,6.775,5.611c-8.132,6.971-14.906,28.266-13.938,47.43
			c-5.033-32.133-9.776-42.299,19.744-78.595C394.621,129.717,393.641,126.244,393.641,126.244z"/>
		<path fill="#DF7E00" d="M333.242,142.311c-10.551,8.18-8.133,44.525-17.037,65.819c-8.903,21.295-16.454,61.368-16.454,65.626
			c7.745,6.582,17.425,4.647,20.134,1.55c8.131-22.457,16.067-63.691,18.391-77.242
			C334.885,178.221,333.242,142.311,333.242,142.311z"/>
		<path fill="#F39200" d="M340.549,200.146c6.357,21.224-4.791,115.426,4.211,145.044c-7.26,1.162-17.858-7.55-19.311-10.454
			c-1.451-2.903,5.809-110.344,8.712-128.057s-11.179-29.184-3.05-59.964c6.389-5.227,5.953-1.598,5.953-1.598
			S332.42,172.995,340.549,200.146z"/>
		<path fill="#D37D00" d="M357.682,125.082c-10.841,10.648-26.955,25.939-16.889,76.079c-10.649-18.391-13.357-44.524-13.357-44.524
			s5.224-5.615,6-5.615c-3.872-2.904-6.193-4.063-5.613-5.42C328.401,144.248,348.172,124.066,357.682,125.082z"/>
		<path fill="#DF7E00" d="M396.158,264.465c-3.631-3.341-8.422-9.147-8.422-9.147c-4.356,9.147-7.549,26.423-6.969,30.634
			c2.902,9.584,15.824,14.955,20.18,11.615c3.922-7.113,4.065-24.826,4.065-24.826S399.061,267.369,396.158,264.465z"/>
		<path fill="#DF7E00" d="M416.871,262.916c-4.164,1.064-15.193-7.261-13.356-12.003C407.191,248.688,419.1,251.976,416.871,262.916
			z"/>
		<path fill="#F4AB7D" d="M411.256,248.688c-4.936,5.951-5.664,10.551-11.035,8.904c-4.86-1.489-7.693,7.454-14.227,8.469
			c-2.179,1.016-0.096,4.017,1.258,3.728c1.355-0.291,8.614-3.582,8.614-3.582c3.632,5.227,9.146,6.533,9.146,6.533
			c7.261-5.953,13.504-16.552,13.504-16.552L411.256,248.688z"/>
		<path fill="#D37D00" d="M419.776,140.182c0.772,1.743,28.843,68.914,28.069,79.759c-0.774,10.84-22.648,36.586-30.975,42.976
			c-1.938-9.776-13.356-12.003-13.356-12.003c6.969-10.648,20.715-29.814,21.683-35.814c0.968-6.001-15.738-36.165-16.844-38.523
			C398.093,154.7,419.002,138.439,419.776,140.182z"/>
		<path fill="#DF7E00" d="M337.694,257.495c-0.196,5.808,0.386,25.167-0.776,27.683c-1.162,2.517-7.354,8.13-8.322,7.743
			c-0.969-0.388-0.58-26.328-0.58-26.328L337.694,257.495z"/>
		<g>
			<path fill="#DF7E00" d="M389.768,227.295c-0.111-0.019-0.127-0.435-0.059-1.181c0.034-0.375,0.089-0.829,0.164-1.359
				c0.09-0.521,0.232-1.104,0.381-1.753c0.581-2.602,1.729-6.082,3.191-9.845c2.925-7.533,6.245-13.222,6.632-13.012
				c0.405,0.213-2.22,6.145-5.117,13.604c-1.448,3.728-2.753,7.106-3.604,9.573c-0.223,0.615-0.425,1.171-0.604,1.66
				c-0.152,0.492-0.297,0.916-0.424,1.261C390.073,226.936,389.879,227.313,389.768,227.295z"/>
		</g>
		<path fill="#682D12" d="M352.973,20.031c2.518,13.163,4.453,26.325,18.392,30.584c13.938,4.261,27.683-0.193,27.101,2.904
			c-0.58,3.098-3.025,14.059,0.074,14.834c4.064-4.84,4.118-6.088,6.121-8.251c3.315-3.582,14.711-3.098,14.52-12.972
			c-0.193-9.872-4.066-29.812-12.003-31.36c-7.937-1.549-17.036-2.516-24.585-10.647c-7.551-8.129-29.039-7.744-35.428,9.679
			C349.875,13.252,352.779,18.093,352.973,20.031z"/>
		<g>
			<path fill="#3D2113" d="M370.506,49.004c0.163,0.199,1.026-0.346,2.508-0.809c1.482-0.468,3.628-0.755,6.035-0.554
				c4.832,0.382,8.588,1.983,8.785,1.556c0.23-0.355-3.405-2.75-8.665-3.178c-2.606-0.223-5.048,0.292-6.593,1.113
				C371.018,47.953,370.376,48.87,370.506,49.004z"/>
		</g>
	</g>
	<g>
		<g>
			<g>
				<path fill="#331842" d="M106.964,101.806h5.022l0.884,39.279h-6.79L106.964,101.806z M106.174,89.95h6.604v5.615h-6.604V89.95z"
					/>
				<path fill="#331842" d="M124.59,89.95h9.022c4.651,0,7.798,0.484,9.44,1.455c1.644,0.971,2.465,2.717,2.465,5.235v11.579
					c0,2.127-0.542,3.629-1.627,4.507c-1.086,0.879-3.008,1.41-5.768,1.595c2.945,0.139,4.992,0.647,6.14,1.525
					c1.146,0.879,1.721,2.404,1.721,4.576v13.971c0,2.52-0.821,4.265-2.465,5.235s-4.79,1.456-9.44,1.456h-9.488V89.95z
					 M130.496,93.729v18.687h2.094c2.697,0,4.494-0.353,5.395-1.058c0.898-0.705,1.348-2.271,1.348-4.698v-7.106
					c0-2.449-0.449-4.033-1.348-4.749c-0.9-0.717-2.697-1.075-5.395-1.075H130.496z M130.496,116.228v21.078h2.186
					c2.854,0,4.736-0.352,5.651-1.057c0.914-0.705,1.372-2.259,1.372-4.663v-9.603c0-2.404-0.458-3.964-1.372-4.681
					c-0.915-0.716-2.798-1.075-5.651-1.075H130.496z"/>
				<path fill="#331842" d="M155.331,105.446h5.72v27.318c0,2.104,0.303,3.554,0.908,4.351c0.604,0.798,1.635,1.196,3.092,1.196
					c1.426,0,2.434-0.41,3.023-1.23c0.588-0.82,0.883-2.259,0.883-4.316v-27.318h5.814v35.639h-5.349l-0.466-2.184
					c-0.775,0.993-1.736,1.739-2.883,2.235c-1.147,0.497-2.496,0.745-4.046,0.745c-2.45,0-4.179-0.601-5.186-1.803
					c-1.008-1.201-1.512-3.305-1.512-6.309V105.446z"/>
				<path fill="#331842" d="M202.768,114.737v10.574h-13.533v7.522c0,2.127,0.279,3.571,0.838,4.333
					c0.558,0.764,1.549,1.145,2.977,1.145c1.363,0,2.324-0.393,2.883-1.179c0.559-0.785,0.837-2.219,0.837-4.299v-3.952h5.999v2.912
					c0,3.93-0.713,6.604-2.139,8.025c-1.427,1.422-3.953,2.133-7.58,2.133c-3.598,0-6.116-0.723-7.559-2.167
					c-1.441-1.444-2.162-4.131-2.162-8.061v-16.987c0-3.952,0.705-6.633,2.116-8.043c1.411-1.409,3.944-2.115,7.604-2.115
					c3.596,0,6.115,0.723,7.557,2.167C202.047,108.191,202.768,110.854,202.768,114.737z M196.769,113.663
					c0-2.104-0.278-3.537-0.837-4.299c-0.559-0.764-1.52-1.145-2.883-1.145c-1.396,0-2.381,0.404-2.953,1.213
					c-0.574,0.81-0.861,2.219-0.861,4.23v8.043h7.534V113.663z"/>
				<path fill="#331842" d="M230.765,112.761v28.324h-5.721v-27.422c0-2.034-0.301-3.45-0.906-4.247
					c-0.604-0.798-1.635-1.196-3.092-1.196c-1.428,0-2.45,0.41-3.07,1.23c-0.62,0.821-0.931,2.225-0.931,4.213v27.422h-5.72v-35.639
					h5.349l0.371,2.184c0.775-0.993,1.76-1.75,2.954-2.271c1.193-0.52,2.564-0.78,4.115-0.78c2.418,0,4.131,0.607,5.139,1.82
					C230.261,107.613,230.765,109.733,230.765,112.761z"/>
				<path fill="#331842" d="M88.687,170.843v9.604h4.372v3.605h-4.372v26.486c0,0.994,0.256,1.682,0.768,2.062
					c0.511,0.382,1.434,0.572,2.767,0.572h0.838v3.709c-0.342,0.023-0.691,0.041-1.047,0.053c-0.357,0.011-0.86,0.018-1.512,0.018
					c-2.914,0-4.898-0.526-5.953-1.578c-1.054-1.051-1.58-3.392-1.58-7.02v-24.303H79.85v-3.605h3.117v-7.869L88.687,170.843z"/>
				<path fill="#331842" d="M112.219,179.649v4.333h-0.977c-2.449,0-4.186,0.457-5.209,1.369c-1.023,0.913-1.535,2.491-1.535,4.732
					v26.001h-5.72v-35.639h5.349l0.371,2.184c0.807-0.971,1.791-1.721,2.954-2.253c1.163-0.531,2.425-0.798,3.79-0.798
					c0.094,0,0.248,0.013,0.465,0.035C111.924,179.638,112.095,179.649,112.219,179.649z"/>
				<path fill="#331842" d="M135.008,188.767v27.318h-5.349l-0.372-2.184c-0.775,0.993-1.76,1.75-2.953,2.271
					c-1.193,0.52-2.566,0.78-4.116,0.78c-2.418,0-4.132-0.607-5.139-1.82c-1.008-1.214-1.512-3.334-1.512-6.361v-7.107
					c0-2.796,1.015-4.784,3.046-5.963s5.588-1.838,10.674-1.977v-5.061c0-2.15-0.271-3.594-0.814-4.334
					c-0.543-0.739-1.511-1.109-2.906-1.109c-1.334,0-2.287,0.341-2.859,1.022c-0.574,0.683-0.861,1.854-0.861,3.519v1.977h-5.721
					v-0.971c0-3.559,0.698-5.98,2.094-7.263c1.395-1.283,3.875-1.925,7.441-1.925c3.471,0,5.898,0.647,7.277,1.941
					C134.316,182.815,135.008,185.23,135.008,188.767z M129.24,197.19c-2.977,0.093-4.999,0.486-6.068,1.18
					c-1.07,0.693-1.605,1.941-1.605,3.744v5.72c0,2.127,0.279,3.571,0.838,4.333c0.558,0.764,1.55,1.145,2.977,1.145
					c1.395,0,2.395-0.41,3-1.23c0.604-0.82,0.906-2.236,0.906-4.247L129.24,197.19z"/>
				<path fill="#331842" d="M143.75,164.95h5.721v17.68c0.775-0.993,1.76-1.75,2.953-2.271c1.193-0.52,2.565-0.78,4.116-0.78
					c2.419,0,4.132,0.607,5.14,1.82c1.006,1.214,1.511,3.334,1.511,6.361v21.01c0,3.027-0.505,5.147-1.511,6.361
					c-1.008,1.213-2.721,1.82-5.14,1.82c-1.551,0-2.923-0.261-4.116-0.78c-1.193-0.521-2.178-1.277-2.953-2.271l-0.371,2.184h-5.35
					V164.95z M157.191,188.663c0-2.104-0.279-3.537-0.838-4.299c-0.558-0.764-1.551-1.145-2.977-1.145
					c-1.395,0-2.395,0.41-2.999,1.23c-0.604,0.821-0.907,2.225-0.907,4.213v19.171c0,2.034,0.295,3.455,0.884,4.265
					c0.589,0.809,1.597,1.213,3.022,1.213s2.419-0.381,2.977-1.145c0.559-0.762,0.838-2.206,0.838-4.333V188.663z"/>
				<path fill="#331842" d="M190.443,188.767v27.318h-5.348l-0.373-2.184c-0.775,0.993-1.76,1.75-2.953,2.271
					c-1.193,0.52-2.565,0.78-4.115,0.78c-2.418,0-4.133-0.607-5.139-1.82c-1.008-1.214-1.512-3.334-1.512-6.361v-7.107
					c0-2.796,1.015-4.784,3.046-5.963c2.03-1.179,5.588-1.838,10.673-1.977v-5.061c0-2.15-0.271-3.594-0.813-4.334
					c-0.543-0.739-1.511-1.109-2.907-1.109c-1.333,0-2.286,0.341-2.859,1.022c-0.574,0.683-0.86,1.854-0.86,3.519v1.977h-5.721
					v-0.971c0-3.559,0.698-5.98,2.093-7.263c1.396-1.283,3.875-1.925,7.441-1.925c3.472,0,5.898,0.647,7.278,1.941
					C189.753,182.815,190.443,185.23,190.443,188.767z M184.677,197.19c-2.977,0.093-4.999,0.486-6.069,1.18
					s-1.604,1.941-1.604,3.744v5.72c0,2.127,0.279,3.571,0.837,4.333c0.559,0.764,1.551,1.145,2.977,1.145
					c1.396,0,2.395-0.41,3-1.23c0.604-0.82,0.906-2.236,0.906-4.247L184.677,197.19z"/>
				<path fill="#331842" d="M199.187,180.446h5.72v41.047c0,3.605-0.534,5.951-1.604,7.037c-1.07,1.087-3.078,1.63-6.023,1.63
					c-0.65,0-1.154-0.012-1.511-0.034c-0.356-0.023-0.675-0.047-0.954-0.07v-3.674h0.838c1.332,0,2.256-0.197,2.768-0.59
					c0.511-0.394,0.767-1.098,0.767-2.115V180.446z M198.908,164.95h6.371v5.408h-6.371V164.95z"/>
				<path fill="#331842" d="M232.997,189.737v17.057c0,3.93-0.713,6.604-2.139,8.025c-1.428,1.422-3.953,2.133-7.582,2.133
					c-3.596,0-6.114-0.723-7.557-2.167c-1.441-1.444-2.163-4.131-2.163-8.061v-16.987c0-3.952,0.705-6.633,2.117-8.043
					c1.41-1.409,3.944-2.115,7.603-2.115c3.598,0,6.117,0.723,7.559,2.167C232.276,183.191,232.997,185.854,232.997,189.737z
					 M226.997,188.663c0-2.104-0.279-3.537-0.836-4.299c-0.559-0.764-1.52-1.145-2.885-1.145c-1.395,0-2.379,0.404-2.952,1.213
					c-0.574,0.81-0.861,2.219-0.861,4.23v19.171c0,2.127,0.28,3.571,0.838,4.333c0.558,0.764,1.55,1.145,2.976,1.145
					c1.365,0,2.326-0.393,2.885-1.179c0.557-0.785,0.836-2.219,0.836-4.299V188.663z"/>
				<path fill="#331842" d="M243.461,164.95h6.79l-0.884,39.278h-5.022L243.461,164.95z M243.554,210.469h6.604v5.616h-6.604
					V210.469z"/>
			</g>
		</g>
	</g>
	<polygon fill="#37A736" points="87.887,234.268 98.587,271.271 238.478,263.682 247.053,234.268 	"/>
	<g>
		<g>
			<path fill="#331842" d="M135.748,244.018v1.703h-2.154v-1.654c0-0.701-0.098-1.182-0.292-1.444
				c-0.194-0.261-0.54-0.393-1.037-0.393c-0.476,0-0.811,0.147-1.005,0.441s-0.291,0.815-0.291,1.564v0.869
				c0,0.363,0.066,0.735,0.201,1.118c0.136,0.382,0.333,0.742,0.592,1.081l2.69,3.539c0.454,0.596,0.783,1.158,0.988,1.686
				s0.308,1.073,0.308,1.637v1.208c0,1.546-0.262,2.589-0.785,3.128c-0.524,0.54-1.456,0.81-2.796,0.81
				c-1.308,0-2.218-0.217-2.73-0.652c-0.513-0.435-0.77-1.256-0.77-2.464v-1.981h2.171v1.921c0,0.725,0.098,1.216,0.292,1.474
				s0.552,0.387,1.069,0.387c0.529,0,0.895-0.146,1.094-0.441c0.2-0.293,0.301-0.939,0.301-1.938v-1.232
				c0-0.459-0.057-0.875-0.17-1.25c-0.114-0.374-0.279-0.715-0.495-1.021l-2.853-3.793c-0.399-0.508-0.704-0.991-0.915-1.45
				c-0.21-0.459-0.315-0.857-0.315-1.195v-1.039c0-1.385,0.256-2.35,0.77-2.894c0.513-0.543,1.396-0.815,2.649-0.815
				c1.317,0,2.228,0.214,2.73,0.641S135.748,242.81,135.748,244.018z"/>
			<path fill="#331842" d="M138.633,241.191h2.188v17.817h-2.188V241.191z"/>
			<path fill="#331842" d="M152.034,244.827v0.918h-2.155v-1.159c0-0.902-0.127-1.521-0.381-1.854s-0.693-0.502-1.32-0.502
				c-0.605,0-1.031,0.174-1.28,0.52c-0.249,0.347-0.373,0.959-0.373,1.837v11.004c0,0.942,0.136,1.579,0.407,1.909
				s0.754,0.495,1.449,0.495c0.206,0,0.434-0.014,0.684-0.042s0.521-0.07,0.814-0.127l0.017-6.258h-1.848v-1.316h3.986v8.456
				c-0.659,0.201-1.302,0.352-1.929,0.453c-0.626,0.101-1.258,0.15-1.896,0.15c-1.426,0-2.423-0.279-2.989-0.839
				c-0.568-0.561-0.852-1.593-0.852-3.099v-10.546c0-1.498,0.281-2.522,0.843-3.074s1.562-0.828,2.998-0.828
				c1.427,0,2.42,0.272,2.981,0.815C151.754,242.284,152.034,243.313,152.034,244.827z"/>
			<path fill="#331842" d="M155.519,241.191h2.155v14.423c0,0.927,0.119,1.551,0.357,1.872c0.236,0.322,0.658,0.483,1.264,0.483
				c0.594,0,1.007-0.161,1.239-0.483c0.232-0.321,0.349-0.945,0.349-1.872v-14.423h2.155v14.182c0,1.53-0.275,2.568-0.827,3.116
				c-0.551,0.548-1.533,0.821-2.949,0.821c-1.393,0-2.365-0.277-2.916-0.833s-0.827-1.591-0.827-3.104V241.191z"/>
			<path fill="#331842" d="M166.668,241.191h2.188v17.817h-2.188V241.191z"/>
			<path fill="#331842" d="M172.502,241.191h5.704v1.413h-3.646v6.414h3.484v1.401h-3.484v7.176h3.743v1.413h-5.801V241.191z"/>
			<path fill="#331842" d="M181.269,241.191h2.819l3.42,16.754h0.031l-0.307-16.754h1.863v17.817h-2.853l-3.387-16.525h-0.065
				l0.293,16.525h-1.815V241.191z"/>
			<path fill="#331842" d="M191.219,241.191h7.017v1.413h-2.464v16.404h-2.09v-16.404h-2.463V241.191z"/>
			<path fill="#331842" d="M200.391,241.191h5.704v1.413h-3.646v6.414h3.484v1.401h-3.484v7.176h3.743v1.413h-5.801V241.191z"/>
		</g>
	</g>
</g>
</svg>
