<?xml version="1.0" encoding="utf-8"?>
<!-- Generator: Adobe Illustrator 16.0.0, SVG Export Plug-In . SVG Version: 6.00 Build 0)  -->
<!DOCTYPE svg PUBLIC "-//W3C//DTD SVG 1.1//EN" "http://www.w3.org/Graphics/SVG/1.1/DTD/svg11.dtd">
<svg version="1.1" id="Capa_1" xmlns="http://www.w3.org/2000/svg" xmlns:xlink="http://www.w3.org/1999/xlink" x="0px" y="0px"
	 width="112.469px" height="144.194px" viewBox="0 0 112.469 144.194" enable-background="new 0 0 112.469 144.194"
	 xml:space="preserve">
<g>
	<path fill-rule="evenodd" clip-rule="evenodd" fill="#331842" d="M104.496,8.837c-4.23-0.721-8.461-1.4-12.57-2.08
		c-0.221-0.529-41.051-4.02-52.961-5.141c-7.109-0.68-14.229-1.369-21.359-1.609c-4.16-0.15-6.83,2.131-7.199,6.621
		c-1.281,15.758-2.621,31.518-3.93,47.268c-2.121,25.381-4.191,50.75-6.371,76.121c-0.58,6.689,1.141,8.59,7.82,9.049
		c16.6,1.131,33.17,2.68,49.77,3.711c12.26,0.76,24.551,0.959,36.82,1.41c3.59,0.139,5.66-1.701,6.311-5.09
		c7.84-40.91,10.779-115.25,11.379-119.42C113.225,12.597,111.416,10.017,104.496,8.837z M109.455,17.155
		c-1.189,14.59-2.26,29.191-3.299,43.791c-1.25,17.58-2.25,35.189-3.711,52.76c-0.6,7.27-2.219,14.449-3.119,21.711
		c-0.551,4.359-2.791,6.59-7.1,6.68c-4.811,0.09-9.621,0.02-14.441,0.02c0,0.141-36.119-2.859-54.18-4.49
		c-5.299-0.471-10.6-1.029-15.92-1.26c-4.379-0.18-5.65-2.221-5.289-6.42c1.6-18.23,2.969-36.48,4.49-54.721
		c1.818-21.719,3.729-43.43,5.559-65.139c0.58-6.891,2.4-8.6,9.641-7.959c10.439,0.92,20.859,2.01,31.27,3.158
		c16.85,1.861,33.68,3.971,50.541,5.66C108.156,11.376,109.805,12.896,109.455,17.155z"/>
	<path opacity="0.9" fill-rule="evenodd" clip-rule="evenodd" fill="#D1D1D1" d="M109.455,17.155
		c-1.189,14.59-2.26,29.191-3.299,43.791c-1.25,17.58-2.25,35.189-3.711,52.76c-0.6,7.27-2.219,14.449-3.119,21.711
		c-0.551,4.359-2.791,6.59-7.1,6.68c-4.811,0.09-9.621,0.02-14.441,0.02c0,0.141-36.119-2.859-54.18-4.49
		c-5.299-0.471-10.6-1.029-15.92-1.26c-4.379-0.18-5.65-2.221-5.289-6.42c1.6-18.23,2.969-36.48,4.49-54.721
		c1.818-21.719,3.729-43.43,5.559-65.139c0.58-6.891,2.4-8.6,9.641-7.959c10.439,0.92,20.859,2.01,31.27,3.158
		c16.85,1.861,33.68,3.971,50.541,5.66C108.156,11.376,109.805,12.896,109.455,17.155z"/>
	<g>
		<path fill-rule="evenodd" clip-rule="evenodd" fill="#F09645" d="M27.047,40.968C44.715,20.794,79.18,23.36,93.664,45.929
			C75.998,66.101,41.533,63.534,27.047,40.968"/>
		<path fill-rule="evenodd" clip-rule="evenodd" fill="#B36C30" d="M88.922,46.255c-16.016,15.123-43.635,13.066-57.232-4.262
			l-0.568-0.723l0.668-0.631c16.016-15.123,43.635-13.066,57.234,4.262l0.566,0.725L88.922,46.255z"/>
		<path fill-rule="evenodd" clip-rule="evenodd" fill="#CAE8F3" d="M32.479,41.372c13.236,16.861,40.168,18.867,55.752,4.152
			C74.998,28.661,48.066,26.655,32.479,41.372"/>
		<path fill-rule="evenodd" clip-rule="evenodd" fill="#3A887B" d="M59.473,55.308c6.531,0.486,12.258-4.443,12.744-10.977
			s-4.445-12.258-10.979-12.744s-12.256,4.445-12.742,10.979S52.939,54.821,59.473,55.308"/>
		<path fill-rule="evenodd" clip-rule="evenodd" fill="#FFFFFF" d="M63.377,46.813c3.332,0.248,6.252-2.268,6.5-5.6
			s-2.266-6.252-5.6-6.5c-3.33-0.248-6.25,2.266-6.498,5.6C57.531,43.646,60.047,46.565,63.377,46.813"/>
		<g opacity="0.5">
			<g>
				<defs>
					
						<rect id="SVGID_1465_" x="41.556" y="32.758" transform="matrix(-0.9972 -0.0742 0.0742 -0.9972 121.8882 94.2279)" width="42.279" height="24.182"/>
				</defs>
				<clipPath id="SVGID_2_">
					<use xlink:href="#SVGID_1465_"  overflow="visible"/>
				</clipPath>
				<path clip-path="url(#SVGID_2_)" fill-rule="evenodd" clip-rule="evenodd" fill="#4C4D4D" d="M44.004,55.581l40.545-19.549
					c-0.865-0.668-1.758-1.291-2.672-1.881L40.82,53.946C41.857,54.538,42.922,55.083,44.004,55.581"/>
			</g>
		</g>
		<path fill-rule="evenodd" clip-rule="evenodd" fill="#78471B" d="M34.324,54.544c-0.705,0.34-1.006,1.203-0.666,1.906
			c0.338,0.703,1.201,1.004,1.904,0.666l50.984-24.582c0.703-0.338,1.004-1.203,0.666-1.906c-0.34-0.703-1.203-1.006-1.906-0.664
			L34.324,54.544z"/>
	</g>
	<g>
		<path fill-rule="evenodd" clip-rule="evenodd" fill="#F5B176" d="M49.139,89.091c-0.904,0.891-1.033,2.016,0.295,3.414
			c1.529,1.141,1.725,2.719,0.869,4.645c-0.926,3.463-0.24,5.098,3.156,3.889c1.775-0.74,3.461-1.984,4.848-3.604
			c1.418-2.312,0.742-3.783-0.908-4.51C51.254,92.772,50.5,87.911,49.139,89.091"/>
		<path fill-rule="evenodd" clip-rule="evenodd" fill="#F09645" d="M49.139,89.091c-0.904,0.891-1.033,2.016,0.295,3.414
			c1.529,1.141,1.725,2.719,0.869,4.645c-0.719,2.68-0.467,4.268,1.258,4.283c-1.156-0.852,1.207-2.793,2.23-4.326
			c0.947-2.193-1.785-4.342-3.758-5.865c-0.746-0.797-0.303-1.822,0.707-1.484C50.127,88.786,49.531,88.751,49.139,89.091"/>
		<g>
			<path fill-rule="evenodd" clip-rule="evenodd" fill="#FBD08C" d="M41.037,74.312c2.424-9.436,12.801-14.066,21.809-11.75
				c7.492,1.783,12.699,8.908,12.439,16.291c0.385,15.074-10.973,29.012-24.893,34.006c-1.076,0.135-2.17,0.068-3.176-0.234
				c-1.463-0.443-2.732-1.363-3.514-2.865c-1.031-10.279,4.498-12.867,0.951-18.521C40.785,85.075,39.943,80.104,41.037,74.312"/>
			<path fill-rule="evenodd" clip-rule="evenodd" fill="#F5B176" d="M57.127,89.856c-5.898-1.324-10.109-4.121-11.547-10.451
				c-1.439-6.332,4.92-12.893,10.322-13.328s11.213,2.855,13.43,9.799c2.215,6.943,0.6,18.189-5.748,22.309
				c3.799-7.594-0.367-21.189-9.012-21.762C61.92,80.954,60.621,90.276,57.127,89.856"/>
			<path fill-rule="evenodd" clip-rule="evenodd" fill="#F09645" d="M46.375,81.938c-1.834-4.057-1.098-9.693,2.902-13.182
				c4.002-3.486,10.553-3.744,14.338-0.68c-5.025-2.668-11.18-0.695-14.555,3.355C45.754,75.403,45.904,80.245,46.375,81.938"/>
			<path fill-rule="evenodd" clip-rule="evenodd" fill="#78471B" d="M35.547,92.821c-0.59,0.283-0.842,1.004-0.559,1.594
				c0.285,0.588,1.006,0.838,1.594,0.555l42.6-20.539c0.588-0.283,0.84-1.004,0.559-1.594c-0.285-0.588-1.006-0.838-1.594-0.555
				L35.547,92.821z"/>
		</g>
	</g>
	<g>
		<g>
			<path fill="#331842" d="M14.04,117.56l-0.097,1.432l-1.812-0.123l0.096-1.392c0.039-0.588-0.014-0.998-0.164-1.229
				c-0.147-0.23-0.432-0.36-0.849-0.389c-0.399-0.027-0.688,0.077-0.869,0.313c-0.181,0.235-0.292,0.668-0.334,1.298l-0.05,0.73
				c-0.021,0.305,0.014,0.621,0.106,0.95c0.091,0.329,0.236,0.644,0.435,0.943l2.059,3.127c0.348,0.526,0.592,1.018,0.734,1.473
				s0.197,0.919,0.166,1.393l-0.069,1.016c-0.089,1.299-0.368,2.16-0.839,2.584c-0.472,0.423-1.27,0.597-2.396,0.521
				c-1.099-0.075-1.851-0.31-2.257-0.704s-0.576-1.1-0.506-2.115l0.113-1.664l1.824,0.124l-0.109,1.613
				c-0.042,0.609,0.012,1.028,0.16,1.256s0.441,0.355,0.877,0.386c0.444,0.03,0.76-0.073,0.943-0.309
				c0.186-0.235,0.307-0.772,0.363-1.611l0.07-1.036c0.025-0.386,0.002-0.739-0.071-1.061c-0.074-0.32-0.192-0.616-0.356-0.886
				l-2.181-3.35c-0.308-0.449-0.536-0.873-0.687-1.271c-0.15-0.396-0.217-0.738-0.197-1.022l0.059-0.873
				c0.08-1.163,0.351-1.96,0.812-2.387c0.463-0.427,1.22-0.605,2.273-0.534c1.107,0.076,1.86,0.307,2.258,0.694
				C13.945,115.844,14.109,116.544,14.04,117.56z"/>
			<path fill="#331842" d="M21.484,122.971l-0.34,4.994c-0.078,1.15-0.341,1.919-0.787,2.307c-0.445,0.389-1.199,0.546-2.262,0.474
				c-1.053-0.071-1.775-0.333-2.17-0.784c-0.393-0.452-0.551-1.253-0.473-2.403l0.338-4.974c0.08-1.157,0.339-1.928,0.779-2.313
				c0.441-0.384,1.197-0.54,2.27-0.468c1.053,0.072,1.775,0.334,2.17,0.785C21.402,121.04,21.561,121.834,21.484,122.971z
				 M19.748,122.536c0.042-0.615-0.012-1.041-0.16-1.274c-0.147-0.235-0.422-0.365-0.82-0.393c-0.409-0.028-0.705,0.07-0.889,0.296
				c-0.185,0.226-0.297,0.633-0.336,1.222L17.161,128c-0.042,0.623,0.01,1.051,0.158,1.285s0.431,0.366,0.849,0.395
				c0.399,0.027,0.689-0.069,0.868-0.287c0.179-0.22,0.289-0.634,0.331-1.243L19.748,122.536z"/>
			<path fill="#331842" d="M28.125,120.454l-0.086,1.27l-0.286-0.02c-0.718-0.049-1.235,0.05-1.553,0.298
				c-0.317,0.246-0.499,0.698-0.544,1.354l-0.517,7.612l-1.675-0.113l0.709-10.436l1.566,0.106l0.064,0.647
				c0.256-0.269,0.559-0.469,0.91-0.602c0.352-0.132,0.727-0.185,1.125-0.157c0.027,0.002,0.073,0.008,0.136,0.02
				C28.039,120.445,28.089,120.452,28.125,120.454z"/>
			<path fill="#331842" d="M33.551,116.499l1.703,0.116l-1.018,14.972l-1.566-0.106l-0.093-0.648
				c-0.247,0.283-0.546,0.486-0.897,0.612c-0.35,0.126-0.752,0.173-1.206,0.143c-0.699-0.048-1.187-0.26-1.462-0.636
				c-0.275-0.375-0.383-1.006-0.322-1.893l0.418-6.151c0.061-0.887,0.252-1.497,0.576-1.832s0.834-0.479,1.533-0.431
				c0.455,0.03,0.849,0.134,1.184,0.31c0.334,0.176,0.601,0.417,0.799,0.722L33.551,116.499z M33.079,123.442
				c0.04-0.589-0.016-1.007-0.168-1.256c-0.151-0.248-0.432-0.386-0.84-0.413c-0.418-0.028-0.722,0.066-0.909,0.285
				c-0.188,0.218-0.303,0.628-0.344,1.23l-0.381,5.613c-0.041,0.609,0.016,1.035,0.174,1.276c0.156,0.241,0.443,0.377,0.861,0.405
				c0.408,0.027,0.703-0.071,0.888-0.297c0.185-0.225,0.297-0.636,0.337-1.231L33.079,123.442z"/>
			<path fill="#331842" d="M42.957,124.43l-0.339,4.994c-0.078,1.15-0.341,1.92-0.786,2.308c-0.447,0.388-1.2,0.546-2.262,0.474
				c-1.054-0.072-1.777-0.333-2.17-0.785c-0.395-0.451-0.551-1.252-0.473-2.403l0.338-4.974c0.078-1.157,0.338-1.928,0.779-2.312
				s1.197-0.541,2.27-0.468c1.053,0.071,1.775,0.333,2.169,0.785C42.877,122.499,43.035,123.293,42.957,124.43z M41.223,123.996
				c0.041-0.615-0.012-1.041-0.16-1.275s-0.422-0.365-0.821-0.393c-0.409-0.027-0.705,0.071-0.889,0.297
				c-0.185,0.226-0.296,0.633-0.337,1.221l-0.381,5.613c-0.043,0.623,0.01,1.052,0.158,1.286c0.148,0.233,0.432,0.365,0.85,0.394
				c0.398,0.027,0.688-0.068,0.867-0.287c0.18-0.219,0.289-0.633,0.331-1.242L41.223,123.996z"/>
			<path fill="#331842" d="M50.623,124.951l-0.045,0.67l-1.757-0.119l0.067-0.985c0.046-0.683,0.015-1.124-0.096-1.321
				c-0.109-0.198-0.328-0.308-0.654-0.33s-0.561,0.068-0.702,0.273c-0.142,0.204-0.233,0.625-0.277,1.261l-0.382,5.613
				c-0.043,0.649-0.008,1.084,0.109,1.303s0.345,0.339,0.681,0.362c0.317,0.021,0.542-0.061,0.673-0.245s0.221-0.619,0.267-1.303
				l0.075-1.116l1.757,0.119l-0.056,0.812c-0.078,1.15-0.324,1.92-0.738,2.311c-0.414,0.39-1.106,0.552-2.077,0.486
				c-0.963-0.066-1.622-0.325-1.979-0.777c-0.356-0.453-0.496-1.25-0.418-2.395l0.338-4.974c0.078-1.157,0.322-1.929,0.732-2.316
				c0.408-0.387,1.1-0.547,2.07-0.481c0.963,0.065,1.625,0.324,1.986,0.773S50.701,123.814,50.623,124.951z"/>
			<path fill="#331842" d="M58.467,125.484l-0.211,3.096l-3.961-0.27l-0.15,2.203c-0.043,0.623,0.01,1.051,0.158,1.285
				s0.432,0.366,0.85,0.395c0.398,0.027,0.688-0.069,0.867-0.287c0.18-0.22,0.289-0.634,0.331-1.243l0.079-1.156l1.756,0.119
				l-0.059,0.853c-0.078,1.15-0.34,1.919-0.785,2.307c-0.447,0.389-1.2,0.546-2.262,0.474c-1.054-0.071-1.777-0.333-2.17-0.784
				c-0.395-0.452-0.551-1.253-0.473-2.403l0.338-4.974c0.078-1.157,0.338-1.928,0.779-2.313c0.441-0.384,1.197-0.54,2.27-0.468
				c1.053,0.072,1.775,0.334,2.168,0.785C58.386,123.554,58.545,124.348,58.467,125.484z M56.732,125.05
				c0.041-0.615-0.012-1.041-0.16-1.274c-0.148-0.235-0.422-0.365-0.821-0.393c-0.409-0.028-0.705,0.07-0.889,0.296
				c-0.185,0.226-0.296,0.633-0.337,1.222l-0.16,2.354l2.207,0.15L56.732,125.05z"/>
			<path fill="#331842" d="M65.05,123.841l0.179-0.63l1.566,0.106l-0.785,11.562c-0.078,1.15-0.34,1.918-0.786,2.303
				c-0.446,0.384-1.2,0.54-2.262,0.468c-1.017-0.069-1.731-0.319-2.145-0.753c-0.413-0.432-0.586-1.133-0.521-2.101l0.038-0.558
				l1.756,0.119l-0.038,0.559c-0.043,0.636,0.008,1.067,0.152,1.295c0.144,0.228,0.42,0.355,0.828,0.383
				c0.418,0.028,0.721-0.068,0.91-0.29c0.188-0.222,0.303-0.634,0.344-1.236l0.172-2.537c-0.247,0.282-0.543,0.482-0.889,0.602
				c-0.346,0.12-0.75,0.164-1.213,0.132c-0.709-0.048-1.199-0.256-1.469-0.624c-0.272-0.369-0.377-0.993-0.318-1.873l0.388-5.694
				c0.06-0.887,0.252-1.498,0.575-1.832c0.324-0.335,0.836-0.479,1.535-0.432c0.443,0.03,0.834,0.134,1.169,0.309
				C64.571,123.294,64.843,123.535,65.05,123.841z M64.93,125.607c0.041-0.596-0.018-1.02-0.174-1.271s-0.434-0.392-0.833-0.419
				c-0.418-0.028-0.721,0.068-0.909,0.29c-0.188,0.223-0.303,0.638-0.344,1.246l-0.35,5.137c-0.041,0.616,0.016,1.046,0.172,1.292
				c0.156,0.245,0.443,0.381,0.861,0.409c0.398,0.027,0.693-0.074,0.883-0.307c0.188-0.231,0.304-0.646,0.344-1.24L64.93,125.607z"
				/>
			<path fill="#331842" d="M69.355,123.491l1.675,0.113l-0.544,7.999c-0.041,0.616,0.018,1.047,0.18,1.292
				c0.16,0.245,0.454,0.383,0.881,0.412c0.418,0.028,0.721-0.072,0.91-0.301c0.188-0.229,0.303-0.644,0.344-1.246l0.544-7.999
				l1.702,0.116l-0.709,10.435l-1.566-0.106l-0.092-0.648c-0.248,0.276-0.543,0.476-0.889,0.598s-0.746,0.168-1.199,0.138
				c-0.719-0.049-1.213-0.259-1.482-0.631c-0.271-0.372-0.378-0.998-0.318-1.878L69.355,123.491z"/>
			<path fill="#331842" d="M83.061,127.155l-0.211,3.096l-3.963-0.269l-0.149,2.202c-0.042,0.623,0.011,1.052,0.159,1.286
				c0.147,0.234,0.431,0.365,0.849,0.394c0.399,0.027,0.688-0.068,0.868-0.287c0.178-0.219,0.289-0.633,0.33-1.242l0.078-1.157
				l1.757,0.119l-0.058,0.853c-0.078,1.15-0.341,1.92-0.787,2.308c-0.445,0.388-1.199,0.546-2.262,0.474
				c-1.053-0.071-1.775-0.333-2.17-0.785c-0.393-0.451-0.551-1.252-0.473-2.403l0.338-4.974c0.08-1.157,0.339-1.928,0.779-2.312
				c0.441-0.385,1.199-0.541,2.27-0.468c1.053,0.071,1.775,0.333,2.17,0.785C82.979,125.225,83.137,126.019,83.061,127.155z
				 M81.324,126.722c0.043-0.615-0.012-1.041-0.158-1.275c-0.149-0.234-0.424-0.365-0.822-0.393
				c-0.408-0.027-0.705,0.071-0.889,0.297s-0.297,0.633-0.336,1.221l-0.16,2.355l2.205,0.149L81.324,126.722z"/>
			<path fill="#331842" d="M89.701,124.64l-0.086,1.269l-0.286-0.02c-0.718-0.049-1.235,0.051-1.553,0.298
				c-0.317,0.246-0.499,0.698-0.544,1.354l-0.517,7.613l-1.675-0.114l0.709-10.435l1.566,0.106l0.064,0.646
				c0.256-0.268,0.559-0.468,0.91-0.601s0.727-0.186,1.125-0.158c0.027,0.002,0.073,0.009,0.137,0.02
				C89.615,124.63,89.665,124.637,89.701,124.64z"/>
			<path fill="#331842" d="M96.191,127.763l-0.543,7.999l-1.565-0.106l-0.065-0.647c-0.248,0.276-0.551,0.479-0.91,0.606
				s-0.768,0.177-1.221,0.146c-0.709-0.048-1.197-0.26-1.469-0.636c-0.271-0.375-0.377-1.006-0.316-1.893l0.142-2.081
				c0.056-0.818,0.393-1.38,1.011-1.685c0.617-0.305,1.673-0.427,3.164-0.366l0.102-1.482c0.043-0.629-0.008-1.058-0.152-1.285
				s-0.421-0.354-0.829-0.382c-0.391-0.027-0.677,0.054-0.858,0.242c-0.181,0.188-0.287,0.526-0.32,1.013l-0.039,0.579l-1.676-0.114
				l0.02-0.284c0.07-1.042,0.322-1.736,0.758-2.085c0.434-0.348,1.172-0.486,2.217-0.415c1.016,0.069,1.713,0.307,2.092,0.713
				C96.108,126.006,96.262,126.728,96.191,127.763z M94.336,130.114c-0.873-0.032-1.474,0.043-1.801,0.225
				c-0.326,0.182-0.508,0.536-0.544,1.064l-0.114,1.675c-0.042,0.623,0.012,1.051,0.159,1.285c0.148,0.234,0.432,0.366,0.849,0.395
				c0.409,0.027,0.709-0.072,0.902-0.301s0.311-0.637,0.351-1.226L94.336,130.114z"/>
		</g>
	</g>
</g>
</svg>
