<?xml version="1.0" encoding="utf-8"?>
<!-- Generator: Adobe Illustrator 16.0.0, SVG Export Plug-In . SVG Version: 6.00 Build 0)  -->
<!DOCTYPE svg PUBLIC "-//W3C//DTD SVG 1.1//EN" "http://www.w3.org/Graphics/SVG/1.1/DTD/svg11.dtd">
<svg version="1.1" id="Capa_1" xmlns="http://www.w3.org/2000/svg" xmlns:xlink="http://www.w3.org/1999/xlink" x="0px" y="0px"
	 width="112.471px" height="144.194px" viewBox="0 0 112.471 144.194" enable-background="new 0 0 112.471 144.194"
	 xml:space="preserve">
<g>
	<path fill-rule="evenodd" clip-rule="evenodd" fill="#331842" d="M104.496,8.837c-4.23-0.721-8.459-1.4-12.57-2.08
		c-0.219-0.529-41.049-4.02-52.959-5.141c-7.111-0.68-14.23-1.369-21.361-1.609c-4.16-0.15-6.83,2.131-7.199,6.621
		c-1.279,15.758-2.619,31.518-3.93,47.268c-2.121,25.381-4.189,50.75-6.371,76.121c-0.58,6.689,1.141,8.59,7.82,9.049
		c16.6,1.131,33.17,2.68,49.77,3.711c12.262,0.76,24.551,0.959,36.82,1.41c3.59,0.139,5.66-1.701,6.311-5.09
		c7.84-40.91,10.781-115.25,11.381-119.42C113.227,12.597,111.416,10.017,104.496,8.837z M109.457,17.155
		c-1.191,14.59-2.26,29.191-3.301,43.791c-1.25,17.58-2.25,35.189-3.711,52.76c-0.6,7.27-2.219,14.449-3.119,21.711
		c-0.551,4.359-2.789,6.59-7.1,6.68c-4.811,0.09-9.621,0.02-14.439,0.02c0,0.141-36.121-2.859-54.182-4.49
		c-5.299-0.471-10.6-1.029-15.92-1.26c-4.379-0.18-5.648-2.221-5.289-6.42c1.6-18.23,2.971-36.48,4.49-54.721
		c1.82-21.719,3.73-43.43,5.559-65.139c0.58-6.891,2.4-8.6,9.641-7.959c10.439,0.92,20.859,2.01,31.27,3.158
		c16.852,1.861,33.682,3.971,50.541,5.66C108.156,11.376,109.807,12.896,109.457,17.155z"/>
	<path opacity="0.9" fill-rule="evenodd" clip-rule="evenodd" fill="#D1D1D1" d="M109.457,17.155
		c-1.191,14.59-2.26,29.191-3.301,43.791c-1.25,17.58-2.25,35.189-3.711,52.76c-0.6,7.27-2.219,14.449-3.119,21.711
		c-0.551,4.359-2.789,6.59-7.1,6.68c-4.811,0.09-9.621,0.02-14.439,0.02c0,0.141-36.121-2.859-54.182-4.49
		c-5.299-0.471-10.6-1.029-15.92-1.26c-4.379-0.18-5.648-2.221-5.289-6.42c1.6-18.23,2.971-36.48,4.49-54.721
		c1.82-21.719,3.73-43.43,5.559-65.139c0.58-6.891,2.4-8.6,9.641-7.959c10.439,0.92,20.859,2.01,31.27,3.158
		c16.852,1.861,33.682,3.971,50.541,5.66C108.156,11.376,109.807,12.896,109.457,17.155z"/>
	<g>
		<path fill="#331842" d="M42.281,12.487l1.068,0.095c0.904,0.08,1.486,0.237,1.746,0.474c0.258,0.237,0.354,0.735,0.287,1.496
			l-0.384,4.338c-0.066,0.756-0.251,1.229-0.552,1.418c-0.302,0.189-0.899,0.244-1.794,0.165l-1.069-0.095L42.281,12.487z
			 M43.141,13.15l-0.594,6.725l0.295,0.026c0.439,0.038,0.734,0.012,0.886-0.086c0.151-0.096,0.242-0.33,0.274-0.701l0.438-4.943
			c0.033-0.375-0.018-0.624-0.15-0.749c-0.135-0.125-0.418-0.207-0.854-0.245L43.141,13.15z"/>
		<path fill="#331842" d="M46.785,15.295l0.883,0.078l-0.486,5.5l-0.883-0.078L46.785,15.295z M46.953,12.9l0.983,0.087
			l-0.073,0.834l-0.984-0.087L46.953,12.9z"/>
		<path fill="#331842" d="M51.417,16.982l-0.027,0.31l-0.883-0.078l0.027-0.31c0.03-0.34,0.019-0.567-0.037-0.684
			c-0.055-0.116-0.168-0.182-0.34-0.197c-0.153-0.014-0.267,0.028-0.341,0.125c-0.073,0.095-0.121,0.265-0.143,0.508l-0.02,0.219
			c-0.01,0.117,0.01,0.236,0.06,0.354c0.05,0.12,0.136,0.25,0.259,0.39l0.976,1.155c0.109,0.131,0.19,0.264,0.243,0.397
			c0.054,0.135,0.075,0.259,0.064,0.373L51.21,20.07c-0.042,0.474-0.175,0.797-0.4,0.97c-0.226,0.172-0.586,0.237-1.083,0.193
			c-0.518-0.046-0.867-0.178-1.051-0.396s-0.252-0.596-0.204-1.135l0.042-0.471l0.876,0.077l-0.042,0.471
			c-0.031,0.35-0.017,0.582,0.044,0.694c0.06,0.113,0.178,0.178,0.355,0.193c0.181,0.017,0.315-0.026,0.401-0.127
			c0.086-0.1,0.141-0.283,0.164-0.55l0.02-0.209c0.025-0.3-0.096-0.603-0.362-0.906c-0.009-0.012-0.015-0.019-0.02-0.023
			l-0.948-1.141c-0.1-0.12-0.17-0.236-0.207-0.349c-0.039-0.114-0.053-0.236-0.041-0.369l0.035-0.395
			c0.04-0.454,0.17-0.767,0.391-0.939s0.567-0.238,1.041-0.196c0.492,0.043,0.827,0.173,1.004,0.39
			C51.4,16.071,51.465,16.447,51.417,16.982z"/>
		<path fill="#331842" d="M55.329,17.494l-0.031,0.354l-0.927-0.082l0.046-0.519c0.032-0.361,0.021-0.594-0.036-0.699
			c-0.055-0.105-0.169-0.166-0.341-0.182c-0.173-0.015-0.298,0.031-0.374,0.138c-0.077,0.106-0.131,0.327-0.16,0.663l-0.262,2.958
			c-0.029,0.343-0.016,0.572,0.045,0.689c0.06,0.116,0.178,0.183,0.354,0.198c0.167,0.015,0.287-0.026,0.358-0.123
			c0.071-0.096,0.122-0.324,0.154-0.685l0.052-0.588l0.927,0.082l-0.038,0.428c-0.054,0.605-0.192,1.011-0.415,1.211
			c-0.223,0.202-0.59,0.281-1.102,0.235c-0.508-0.045-0.854-0.189-1.037-0.432c-0.183-0.242-0.248-0.666-0.195-1.269l0.232-2.622
			c0.054-0.609,0.191-1.015,0.41-1.214c0.221-0.2,0.587-0.277,1.1-0.232c0.506,0.045,0.854,0.188,1.039,0.429
			S55.382,16.896,55.329,17.494z"/>
		<path fill="#331842" d="M59.391,17.702l-0.373,4.216l-0.826-0.073l-0.027-0.342c-0.133,0.143-0.295,0.246-0.486,0.311
			c-0.191,0.063-0.406,0.086-0.646,0.064c-0.373-0.032-0.629-0.15-0.768-0.351c-0.139-0.202-0.188-0.535-0.146-1.002l0.098-1.098
			c0.037-0.432,0.221-0.725,0.551-0.879c0.329-0.154,0.888-0.208,1.674-0.16l0.069-0.78c0.029-0.333,0.007-0.56-0.066-0.68
			c-0.074-0.122-0.219-0.192-0.434-0.212c-0.206-0.018-0.358,0.021-0.456,0.119c-0.098,0.097-0.158,0.274-0.18,0.531l-0.027,0.305
			l-0.883-0.077l0.014-0.15c0.048-0.549,0.188-0.913,0.421-1.092c0.233-0.18,0.624-0.244,1.175-0.195
			c0.536,0.047,0.902,0.18,1.098,0.397C59.364,16.774,59.438,17.156,59.391,17.702z M58.385,18.923
			c-0.461-0.025-0.777,0.008-0.952,0.101s-0.274,0.277-0.299,0.556l-0.078,0.882c-0.028,0.328-0.005,0.556,0.07,0.681
			c0.075,0.126,0.224,0.198,0.443,0.218c0.216,0.019,0.376-0.031,0.479-0.149c0.105-0.118,0.171-0.333,0.198-0.644L58.385,18.923z"
			/>
		<path fill="#331842" d="M63.754,17.931l-0.287,3.243c-0.041,0.467-0.147,0.786-0.319,0.961c-0.173,0.173-0.445,0.244-0.818,0.212
			c-0.239-0.021-0.447-0.081-0.624-0.178c-0.178-0.098-0.319-0.227-0.426-0.391l-0.213,2.419l-0.883-0.078l0.67-7.582l0.824,0.073
			l0.028,0.342c0.134-0.143,0.296-0.246,0.486-0.311c0.192-0.063,0.407-0.085,0.646-0.063c0.373,0.032,0.63,0.149,0.77,0.35
			C63.746,17.13,63.795,17.463,63.754,17.931z M62.815,17.989c0.028-0.325,0.005-0.551-0.071-0.675
			c-0.075-0.127-0.224-0.199-0.443-0.219c-0.215-0.019-0.375,0.031-0.479,0.15c-0.104,0.117-0.171,0.33-0.197,0.638l-0.262,2.958
			c-0.027,0.314-0.001,0.537,0.079,0.671c0.079,0.132,0.229,0.209,0.449,0.228c0.22,0.02,0.379-0.025,0.475-0.136
			c0.098-0.109,0.16-0.329,0.188-0.657L62.815,17.989z"/>
		<path fill="#331842" d="M67.945,18.458l-0.373,4.216l-0.824-0.073l-0.028-0.342c-0.134,0.143-0.295,0.245-0.486,0.311
			c-0.191,0.063-0.407,0.086-0.646,0.064c-0.373-0.033-0.63-0.15-0.769-0.352c-0.139-0.202-0.188-0.535-0.147-1.002l0.098-1.098
			c0.038-0.432,0.222-0.724,0.552-0.878c0.329-0.155,0.888-0.208,1.673-0.16l0.069-0.78c0.03-0.333,0.008-0.56-0.066-0.68
			c-0.073-0.122-0.218-0.193-0.433-0.212c-0.206-0.019-0.357,0.021-0.456,0.119c-0.098,0.097-0.157,0.274-0.181,0.531l-0.026,0.305
			l-0.883-0.078l0.013-0.149c0.049-0.55,0.189-0.913,0.422-1.093c0.232-0.179,0.625-0.243,1.175-0.195
			c0.536,0.048,0.901,0.181,1.097,0.398C67.92,17.53,67.993,17.912,67.945,18.458z M66.94,19.679
			c-0.46-0.025-0.778,0.007-0.952,0.101c-0.176,0.093-0.274,0.277-0.299,0.556l-0.078,0.882c-0.029,0.328-0.006,0.556,0.07,0.681
			c0.075,0.126,0.224,0.197,0.443,0.217c0.215,0.02,0.375-0.03,0.48-0.148c0.104-0.118,0.17-0.333,0.197-0.644L66.94,19.679z"/>
		<path fill="#331842" d="M72.002,18.967l-0.031,0.354l-0.926-0.082l0.045-0.519c0.032-0.361,0.021-0.594-0.035-0.699
			c-0.056-0.106-0.17-0.166-0.342-0.182c-0.173-0.016-0.298,0.031-0.374,0.138c-0.077,0.106-0.13,0.327-0.16,0.663l-0.261,2.958
			c-0.03,0.343-0.017,0.572,0.044,0.689c0.06,0.115,0.178,0.182,0.354,0.197c0.167,0.015,0.287-0.025,0.357-0.122
			c0.072-0.096,0.123-0.324,0.154-0.685l0.053-0.588l0.926,0.082L71.77,21.6c-0.054,0.605-0.191,1.011-0.415,1.211
			c-0.223,0.202-0.59,0.28-1.102,0.235c-0.507-0.045-0.853-0.189-1.036-0.432c-0.184-0.243-0.249-0.666-0.195-1.269l0.231-2.622
			c0.054-0.609,0.19-1.015,0.411-1.215c0.22-0.199,0.586-0.276,1.098-0.231c0.508,0.045,0.854,0.188,1.04,0.429
			C71.988,17.946,72.055,18.368,72.002,18.967z"/>
		<path fill="#331842" d="M73.291,17.636l0.883,0.078l-0.485,5.5l-0.883-0.078L73.291,17.636z M73.459,15.241l0.983,0.087
			l-0.073,0.834l-0.983-0.087L73.459,15.241z"/>
		<path fill="#331842" d="M77.822,15.627l0.897,0.079l-0.696,7.891l-0.826-0.073l-0.041-0.343c-0.134,0.146-0.295,0.25-0.48,0.312
			c-0.186,0.063-0.398,0.085-0.639,0.063c-0.367-0.032-0.623-0.15-0.764-0.351c-0.143-0.202-0.191-0.536-0.15-1.003l0.286-3.243
			c0.041-0.468,0.148-0.786,0.323-0.961c0.175-0.173,0.446-0.243,0.814-0.211c0.239,0.021,0.446,0.08,0.621,0.176
			c0.175,0.098,0.312,0.227,0.414,0.391L77.822,15.627z M77.5,19.286c0.027-0.312,0.002-0.532-0.075-0.665s-0.225-0.209-0.439-0.229
			c-0.22-0.02-0.381,0.027-0.481,0.142c-0.103,0.113-0.168,0.328-0.195,0.646l-0.262,2.958c-0.028,0.321-0.002,0.546,0.078,0.676
			c0.08,0.129,0.23,0.203,0.45,0.223c0.215,0.02,0.373-0.029,0.472-0.146c0.1-0.118,0.164-0.333,0.191-0.647L77.5,19.286z"/>
		<path fill="#331842" d="M82.631,19.755l-0.373,4.216l-0.825-0.073l-0.028-0.342c-0.133,0.143-0.295,0.245-0.486,0.311
			c-0.191,0.063-0.406,0.086-0.646,0.064c-0.373-0.033-0.63-0.15-0.769-0.352c-0.139-0.202-0.188-0.535-0.146-1.002l0.098-1.098
			c0.037-0.432,0.221-0.724,0.551-0.878c0.33-0.155,0.888-0.208,1.674-0.16l0.069-0.78c0.029-0.333,0.007-0.56-0.066-0.68
			c-0.073-0.122-0.219-0.193-0.434-0.212c-0.206-0.019-0.357,0.021-0.456,0.119c-0.098,0.097-0.158,0.274-0.18,0.531l-0.027,0.305
			l-0.883-0.078l0.014-0.149c0.048-0.55,0.189-0.913,0.422-1.093c0.232-0.179,0.624-0.243,1.174-0.195
			c0.536,0.048,0.902,0.181,1.098,0.398C82.605,18.827,82.678,19.209,82.631,19.755z M81.625,20.976
			c-0.46-0.025-0.777,0.007-0.952,0.101c-0.175,0.093-0.274,0.277-0.298,0.556l-0.078,0.882c-0.029,0.328-0.006,0.556,0.069,0.681
			c0.075,0.126,0.224,0.197,0.444,0.217c0.215,0.02,0.375-0.03,0.479-0.148c0.105-0.118,0.171-0.333,0.198-0.644L81.625,20.976z"/>
		<path fill="#331842" d="M86.379,16.382l0.896,0.079l-0.697,7.891l-0.825-0.072l-0.042-0.344c-0.133,0.147-0.293,0.251-0.48,0.313
			c-0.186,0.062-0.398,0.085-0.638,0.063c-0.368-0.032-0.622-0.15-0.765-0.351c-0.141-0.203-0.191-0.536-0.15-1.003l0.287-3.243
			c0.041-0.468,0.148-0.787,0.323-0.961c0.175-0.173,0.446-0.243,0.813-0.211c0.24,0.021,0.447,0.08,0.621,0.176
			c0.176,0.098,0.314,0.227,0.415,0.39L86.379,16.382z M86.056,20.041c0.027-0.312,0.002-0.532-0.075-0.665
			c-0.078-0.133-0.225-0.209-0.439-0.228c-0.221-0.02-0.381,0.027-0.482,0.142c-0.102,0.113-0.167,0.328-0.195,0.646l-0.262,2.958
			c-0.027,0.321-0.002,0.546,0.078,0.676c0.081,0.129,0.23,0.203,0.451,0.223c0.215,0.019,0.373-0.03,0.473-0.146
			c0.1-0.118,0.163-0.333,0.19-0.647L86.056,20.041z"/>
	</g>
	<g>
		<g>
			<path fill="#331842" d="M25.254,115.91l3.01,0.213l0.972,13.92l0.136,0.01l2.881-13.647l2.928,0.207l-1.059,14.97l-1.512-0.107
				l0.979-13.843l-0.272-0.02l-2.938,13.705l-2.422-0.172l-1.052-13.986l-0.231-0.017l-0.979,13.844l-1.498-0.106L25.254,115.91z"/>
			<path fill="#331842" d="M37.691,121.349l1.674,0.118l-0.566,7.997c-0.043,0.616,0.016,1.047,0.176,1.293
				c0.16,0.245,0.454,0.384,0.881,0.414c0.417,0.029,0.722-0.069,0.91-0.298c0.189-0.228,0.306-0.643,0.348-1.245l0.566-7.997
				l1.701,0.12l-0.736,10.434l-1.566-0.111l-0.092-0.649c-0.246,0.275-0.543,0.474-0.89,0.596c-0.347,0.121-0.747,0.166-1.2,0.134
				c-0.717-0.051-1.21-0.262-1.48-0.635c-0.271-0.372-0.373-0.999-0.311-1.878L37.691,121.349z"/>
			<path fill="#331842" d="M46.262,117.396l1.674,0.118l-1.059,14.97l-1.674-0.118L46.262,117.396z"/>
			<path fill="#331842" d="M52.157,119.546l-0.198,2.812l1.279,0.09l-0.075,1.056l-1.279-0.09l-0.548,7.753
				c-0.021,0.291,0.04,0.498,0.182,0.62s0.407,0.197,0.798,0.225l0.245,0.018l-0.076,1.085c-0.101,0-0.203-0.002-0.307-0.006
				c-0.105-0.004-0.254-0.013-0.443-0.026c-0.854-0.061-1.425-0.255-1.711-0.584c-0.287-0.33-0.393-1.026-0.317-2.089l0.503-7.113
				l-0.912-0.064l0.074-1.056l0.912,0.064l0.163-2.304L52.157,119.546z"/>
			<path fill="#331842" d="M54.914,122.566l1.674,0.118l-0.738,10.433l-1.674-0.118L54.914,122.566z M55.152,118.023l1.865,0.132
				l-0.112,1.584l-1.865-0.132L55.152,118.023z"/>
			<path fill="#331842" d="M64.713,125.411l-0.434,6.15c-0.063,0.886-0.255,1.496-0.576,1.83c-0.318,0.334-0.833,0.477-1.541,0.427
				c-0.454-0.032-0.85-0.136-1.189-0.313c-0.338-0.177-0.609-0.419-0.816-0.726l-0.324,4.587l-1.674-0.119l1.016-14.38l1.566,0.11
				l0.062,0.647c0.248-0.274,0.551-0.477,0.911-0.604c0.36-0.128,0.768-0.176,1.222-0.144c0.708,0.05,1.197,0.264,1.466,0.64
				C64.672,123.894,64.775,124.524,64.713,125.411z M62.939,125.551c0.043-0.615-0.01-1.041-0.158-1.276
				c-0.146-0.234-0.43-0.366-0.848-0.396c-0.408-0.028-0.709,0.071-0.902,0.299c-0.194,0.228-0.312,0.633-0.354,1.214l-0.396,5.612
				c-0.042,0.596,0.015,1.018,0.171,1.267c0.155,0.249,0.442,0.389,0.859,0.418s0.717-0.062,0.896-0.273
				c0.18-0.212,0.291-0.629,0.335-1.251L62.939,125.551z"/>
			<path fill="#331842" d="M67.691,118.91l1.674,0.118l-1.059,14.97l-1.674-0.118L67.691,118.91z"/>
			<path fill="#331842" d="M77.074,126.865l-0.219,3.096l-3.961-0.28l-0.155,2.203c-0.044,0.622,0.007,1.051,0.155,1.285
				c0.147,0.235,0.43,0.367,0.848,0.396c0.399,0.028,0.689-0.066,0.868-0.284c0.179-0.219,0.291-0.633,0.334-1.242l0.082-1.156
				l1.756,0.124l-0.061,0.853c-0.081,1.15-0.346,1.918-0.792,2.305c-0.447,0.387-1.201,0.542-2.263,0.468
				c-1.054-0.075-1.776-0.339-2.168-0.791c-0.394-0.452-0.548-1.254-0.466-2.404l0.352-4.973c0.081-1.157,0.343-1.927,0.785-2.312
				c0.442-0.383,1.198-0.537,2.271-0.462c1.053,0.075,1.774,0.339,2.167,0.792C76.999,124.935,77.155,125.729,77.074,126.865z
				 M75.342,126.427c0.043-0.615-0.01-1.041-0.156-1.275c-0.148-0.235-0.422-0.366-0.82-0.395c-0.408-0.029-0.706,0.069-0.891,0.294
				c-0.185,0.226-0.297,0.632-0.338,1.221l-0.167,2.354l2.205,0.155L75.342,126.427z"/>
		</g>
	</g>
	<g>
		<path fill-rule="evenodd" clip-rule="evenodd" fill="#62A59B" d="M35.174,52.521c-0.057,0.475-0.486,0.816-0.965,0.762
			c-0.475-0.059-0.814-0.486-0.76-0.961l2.51-21.119h-0.004c0.133-1.6,0.613-2.814,1.268-3.648c0.504-0.641,1.121-1.07,1.771-1.283
			c0.678-0.223,1.385-0.207,2.043,0.033c0.66,0.24,1.262,0.703,1.727,1.383c0.27,0.395,0.17,0.936-0.225,1.207
			s-0.936,0.172-1.207-0.225c-0.254-0.369-0.562-0.619-0.891-0.738c-0.289-0.105-0.604-0.109-0.906-0.012
			c-0.328,0.107-0.654,0.342-0.941,0.711c-0.461,0.586-0.803,1.484-0.906,2.715h-0.002l-0.004,0.031L35.174,52.521z"/>
		<path fill-rule="evenodd" clip-rule="evenodd" fill="#62A59B" d="M53.113,52.347c-0.492,0.209-1.059-0.02-1.266-0.512
			c-0.209-0.488,0.02-1.057,0.51-1.264c2.742-1.176,5.459-1.666,8.148-1.387c2.682,0.277,5.312,1.324,7.881,3.221
			c0.432,0.316,0.521,0.918,0.205,1.348c-0.316,0.428-0.918,0.52-1.348,0.203c-2.283-1.684-4.596-2.609-6.943-2.854
			C57.957,50.856,55.559,51.298,53.113,52.347"/>
		<path fill-rule="evenodd" clip-rule="evenodd" fill="#62A59B" d="M84.584,58.165c-0.053,0.475,0.289,0.904,0.766,0.957
			c0.475,0.051,0.904-0.289,0.957-0.766l2.318-21.139h0.004c0.232-1.588,0.035-2.881-0.414-3.842
			c-0.346-0.738-0.85-1.293-1.436-1.646c-0.611-0.371-1.305-0.516-2-0.432c-0.695,0.086-1.383,0.404-1.99,0.961
			c-0.355,0.322-0.379,0.871-0.057,1.225c0.324,0.355,0.873,0.379,1.227,0.055c0.332-0.305,0.691-0.477,1.035-0.52
			c0.307-0.037,0.613,0.029,0.887,0.193c0.295,0.178,0.561,0.48,0.758,0.904c0.316,0.676,0.447,1.627,0.27,2.85l0,0l-0.004,0.031
			L84.584,58.165z"/>
		<path fill-rule="evenodd" clip-rule="evenodd" fill="#3A887B" d="M45.307,39.212c6.514,0.744,11.188,6.629,10.445,13.139
			c-0.744,6.512-6.627,11.189-13.139,10.445S31.428,56.169,32.17,49.657C32.914,43.147,38.795,38.47,45.307,39.212"/>
		<path fill-rule="evenodd" clip-rule="evenodd" fill="#3A887B" d="M77.814,42.925c6.51,0.744,11.188,6.627,10.443,13.139
			s-6.627,11.189-13.137,10.445c-6.512-0.744-11.188-6.627-10.445-13.139C65.42,46.86,71.303,42.181,77.814,42.925"/>
		<path fill-rule="evenodd" clip-rule="evenodd" fill="#4C4D4D" d="M44.967,42.187c-4.869-0.555-9.266,2.941-9.822,7.811
			c-0.557,4.871,2.939,9.268,7.809,9.824c4.871,0.555,9.268-2.939,9.824-7.811C53.332,47.142,49.838,42.743,44.967,42.187"/>
		<path fill-rule="evenodd" clip-rule="evenodd" fill="#4C4D4D" d="M77.475,45.899c-4.871-0.557-9.268,2.941-9.822,7.811
			c-0.557,4.871,2.938,9.266,7.807,9.822c4.871,0.557,9.268-2.938,9.824-7.809C85.84,50.854,82.344,46.456,77.475,45.899"/>
		<path fill-rule="evenodd" clip-rule="evenodd" fill="#363233" d="M49.482,57.95c3.838-3.049,4.475-8.631,1.424-12.469
			c-3.051-3.836-8.631-4.473-12.467-1.424L49.482,57.95z"/>
		<path fill-rule="evenodd" clip-rule="evenodd" fill="#363233" d="M81.988,61.663c3.838-3.049,4.475-8.631,1.424-12.469
			c-3.051-3.836-8.631-4.475-12.467-1.424L81.988,61.663z"/>
		<path fill-rule="evenodd" clip-rule="evenodd" fill="#363233" d="M48.539,58.604L37.588,44.831
			c-0.33,0.336-0.633,0.703-0.902,1.092l10.586,13.316C47.711,59.062,48.135,58.849,48.539,58.604"/>
		<path fill-rule="evenodd" clip-rule="evenodd" fill="#363233" d="M81.02,62.315L70.066,48.54
			c-0.326,0.338-0.631,0.703-0.902,1.092l10.588,13.316C80.193,62.772,80.615,62.558,81.02,62.315"/>
		<path fill-rule="evenodd" clip-rule="evenodd" fill="#E45351" d="M39.992,67.409c0.635,0.279,1.238,0.59,1.723,1.121
			c1.504,1.648,1.184,4.266-0.682,5.496c-0.756,0.496-1.555,0.746-2.459,0.598c-0.076-0.014-0.154-0.006-0.254-0.006
			c0.031,2.215,0.061,4.412,0.092,6.635l9.6,1.096l-0.334,2.908l-9.232-1.055c0.008,1.002,0.016,1.951,0.025,2.949l0.467,0.053
			c3.182,0.365,6.365,0.74,9.549,1.084c0.873,0.094,1.385,0.488,1.686,1.332c1.213,3.404,2.473,6.797,3.719,10.191
			c0.047,0.131,0.102,0.264,0.162,0.426c1.59-0.58,3.152-1.148,4.736-1.727c0.355,0.889,0.707,1.77,1.059,2.648l-0.018,0.156
			c-0.125,0.029-0.252,0.045-0.373,0.088c-1.855,0.678-3.713,1.354-5.572,2.031c-1.1,0.4-1.783,0.08-2.188-1.021
			c-1.32-3.602-2.643-7.205-3.953-10.811c-0.109-0.311-0.256-0.445-0.596-0.482c-3.34-0.367-6.678-0.752-10.016-1.135
			c-1.096-0.125-1.582-0.611-1.607-1.703c-0.039-1.834-0.041-3.67-0.059-5.502c-0.018-2.031-0.031-4.064-0.051-6.096
			c-0.02-2.018-0.064-4.035-0.057-6.055c0.01-1.559,1.357-2.998,2.967-3.254c0.162-0.029,0.328-0.068,0.492-0.1L39.992,67.409z"/>
		<path fill-rule="evenodd" clip-rule="evenodd" fill="#E45351" d="M33.264,81.478c0.016,0.959,0.02,1.863,0.049,2.764
			c0.008,0.27-0.152,0.316-0.348,0.385c-2.74,0.984-4.793,2.777-5.949,5.443c-1.66,3.824-1.213,7.449,1.408,10.738
			c1.447,1.816,3.318,2.994,5.588,3.498c4.393,0.979,8.592-0.875,10.91-4.369c0.992-1.496,1.533-3.145,1.67-5.051
			c0.088,0.195,0.139,0.289,0.174,0.383c0.504,1.377,1.014,2.754,1.498,4.141c0.062,0.18,0.047,0.445-0.041,0.617
			c-2.133,4.236-5.574,6.744-10.244,7.373c-5.645,0.758-10.912-2.164-13.453-7.199c-1.314-2.604-1.709-5.357-1.191-8.217
			c0.67-3.682,2.627-6.549,5.689-8.668C30.297,82.437,31.703,81.849,33.264,81.478"/>
		<path fill-rule="evenodd" clip-rule="evenodd" fill="#F09645" d="M78.59,69.251c1.133,0.609,2.051,1.412,2.373,2.725
			c0.486,1.969-0.689,3.963-2.645,4.51c-1.977,0.551-4.035-0.602-4.607-2.57c-0.564-1.936,0.529-3.988,2.457-4.611
			c0.256-0.084,0.52-0.16,0.777-0.238L78.59,69.251z"/>
		<path fill-rule="evenodd" clip-rule="evenodd" fill="#F09645" d="M74.395,95.251l-0.096,0.838
			c-0.59,5.152-1.174,10.309-1.77,15.463c-0.18,1.57-1.297,2.406-2.756,2.096c-0.99-0.211-1.648-1.039-1.621-2.057
			c0.008-0.324,0.053-0.65,0.09-0.973c1.023-8.988,2.049-17.979,3.076-26.967l0.105-0.928l-0.746-0.086l-0.146,1.283
			c-0.33,2.889-0.66,5.777-0.99,8.666c-0.029,0.25-0.051,0.5-0.125,0.738c-0.273,0.891-0.998,1.312-1.918,1.15
			c-0.84-0.154-1.373-0.842-1.273-1.75c0.441-3.959,0.869-7.924,1.371-11.877c0.299-2.367,2.643-4.154,5.092-3.916
			c2.691,0.264,5.4,0.473,8.059,0.949c2.787,0.504,4.674,2.277,5.682,4.928c0.145,0.379,0.188,0.84,0.143,1.25
			c-0.238,2.266-0.506,4.531-0.789,6.795c-0.139,1.102-0.799,1.688-1.707,1.594c-0.746-0.078-1.203-0.508-1.314-1.229
			c-0.062-0.438-0.006-0.898,0.043-1.342c0.209-1.938,0.438-3.871,0.662-5.846l-2.602-0.297c-0.031,0.271-0.061,0.508-0.086,0.742
			c-0.629,5.855-1.258,11.709-1.889,17.566c-0.041,0.373-0.066,0.754-0.154,1.115c-0.324,1.297-1.344,1.922-2.672,1.674
			c-1.162-0.219-1.838-1.172-1.707-2.436c0.229-2.168,0.457-4.334,0.707-6.504C75.115,95.431,75.057,95.147,74.395,95.251"/>
		<path fill-rule="evenodd" clip-rule="evenodd" fill="#F09645" d="M81.441,84.595l1.355,0.154c-0.027,0.449-0.033,0.871-0.08,1.287
			c-1.025,9.014-2.057,18.025-3.086,27.035l-0.016,0.15c-0.162,1.287-0.189,1.307-1.553,0.957L81.441,84.595z"/>
	</g>
</g>
</svg>
