<?xml version="1.0" encoding="utf-8"?>
<!-- Generator: Adobe Illustrator 16.0.0, SVG Export Plug-In . SVG Version: 6.00 Build 0)  -->
<!DOCTYPE svg PUBLIC "-//W3C//DTD SVG 1.1//EN" "http://www.w3.org/Graphics/SVG/1.1/DTD/svg11.dtd">
<svg version="1.1" id="Capa_1" xmlns="http://www.w3.org/2000/svg" xmlns:xlink="http://www.w3.org/1999/xlink" x="0px" y="0px"
	 width="112.468px" height="144.193px" viewBox="0 0 112.468 144.193" enable-background="new 0 0 112.468 144.193"
	 xml:space="preserve">
<g>
	<path fill-rule="evenodd" clip-rule="evenodd" fill="#331842" d="M104.493,8.837c-4.229-0.721-8.459-1.4-12.57-2.08
		c-0.219-0.53-41.049-4.021-52.959-5.141c-7.109-0.68-14.23-1.37-21.359-1.609c-4.16-0.15-6.83,2.13-7.201,6.62
		c-1.279,15.76-2.619,31.52-3.93,47.27c-2.119,25.38-4.189,50.75-6.369,76.119c-0.58,6.689,1.139,8.59,7.818,9.051
		c16.602,1.129,33.172,2.68,49.771,3.709c12.26,0.76,24.549,0.961,36.82,1.41c3.59,0.141,5.658-1.699,6.309-5.09
		c7.84-40.909,10.781-115.249,11.381-119.419C113.224,12.597,111.413,10.017,104.493,8.837z M109.454,17.156
		c-1.191,14.59-2.26,29.19-3.301,43.79c-1.25,17.58-2.25,35.19-3.709,52.76c-0.6,7.271-2.221,14.45-3.121,21.71
		c-0.549,4.359-2.789,6.59-7.1,6.68c-4.811,0.09-9.619,0.02-14.439,0.02c0,0.141-36.121-2.859-54.18-4.488
		c-5.301-0.471-10.602-1.031-15.92-1.262c-4.381-0.18-5.65-2.219-5.291-6.42c1.6-18.229,2.971-36.479,4.49-54.719
		c1.82-21.72,3.73-43.43,5.561-65.14c0.58-6.891,2.4-8.601,9.639-7.96c10.441,0.92,20.861,2.01,31.271,3.159
		c16.85,1.86,33.68,3.971,50.539,5.66C108.153,11.377,109.804,12.896,109.454,17.156z"/>
	<path opacity="0.9" fill-rule="evenodd" clip-rule="evenodd" fill="#D1D1D1" d="M109.454,17.156
		c-1.191,14.59-2.26,29.19-3.301,43.79c-1.25,17.58-2.25,35.19-3.709,52.76c-0.6,7.271-2.221,14.45-3.121,21.71
		c-0.549,4.359-2.789,6.59-7.1,6.68c-4.811,0.09-9.619,0.02-14.439,0.02c0,0.141-36.121-2.859-54.18-4.488
		c-5.301-0.471-10.602-1.031-15.92-1.262c-4.381-0.18-5.65-2.219-5.291-6.42c1.6-18.229,2.971-36.479,4.49-54.719
		c1.82-21.72,3.73-43.43,5.561-65.14c0.58-6.891,2.4-8.601,9.639-7.96c10.441,0.92,20.861,2.01,31.271,3.159
		c16.85,1.86,33.68,3.971,50.539,5.66C108.153,11.377,109.804,12.896,109.454,17.156z"/>
	<g>
		<path fill="#331842" d="M33.259,117.994l4.65,0.411l-0.105,1.186l-2.924-0.259l-0.479,5.422l2.814,0.249l-0.104,1.176
			l-2.814-0.249l-0.633,7.165l-1.727-0.152L33.259,117.994z"/>
		<path fill="#331842" d="M39.343,123.097l1.674,0.147l-0.92,10.418l-1.674-0.147L39.343,123.097z M40.956,119.582l1.916,0.17
			l-1.98,2.104l-1.332-0.118L40.956,119.582z"/>
		<path fill="#331842" d="M48.118,126.292l-0.052,0.588l-1.672-0.147l0.052-0.588c0.057-0.642,0.033-1.072-0.071-1.293
			c-0.104-0.221-0.318-0.345-0.645-0.373c-0.29-0.026-0.506,0.053-0.645,0.233c-0.14,0.183-0.229,0.503-0.27,0.962l-0.036,0.416
			c-0.021,0.223,0.016,0.447,0.111,0.674c0.094,0.227,0.257,0.472,0.489,0.737l1.849,2.185c0.205,0.251,0.359,0.504,0.461,0.758
			s0.141,0.488,0.122,0.704l-0.088,0.993c-0.079,0.898-0.331,1.513-0.759,1.838c-0.426,0.327-1.109,0.448-2.053,0.365
			c-0.979-0.087-1.643-0.335-1.988-0.748c-0.348-0.411-0.477-1.127-0.387-2.148l0.08-0.891l1.658,0.146l-0.078,0.891
			c-0.059,0.662-0.032,1.101,0.082,1.315c0.113,0.214,0.338,0.336,0.674,0.366c0.344,0.03,0.598-0.05,0.76-0.239
			c0.163-0.19,0.268-0.538,0.312-1.045l0.035-0.396c0.05-0.567-0.179-1.139-0.685-1.715c-0.016-0.022-0.028-0.037-0.037-0.045
			l-1.796-2.16c-0.19-0.228-0.321-0.448-0.394-0.662c-0.072-0.215-0.098-0.447-0.076-0.697l0.066-0.749
			c0.076-0.857,0.322-1.451,0.74-1.778c0.416-0.327,1.074-0.451,1.971-0.372c0.934,0.083,1.568,0.328,1.902,0.739
			C48.085,124.567,48.208,125.278,48.118,126.292z"/>
		<path fill="#331842" d="M50.614,124.092l1.672,0.147l-0.92,10.418l-1.672-0.147L50.614,124.092z M50.933,119.554l1.863,0.165
			l-0.141,1.58l-1.861-0.165L50.933,119.554z"/>
		<path fill="#331842" d="M59.782,127.639l-0.059,0.669l-1.754-0.155l0.086-0.983c0.061-0.682,0.039-1.122-0.066-1.324
			c-0.105-0.199-0.322-0.313-0.648-0.342c-0.326-0.029-0.562,0.058-0.709,0.259c-0.145,0.202-0.246,0.62-0.302,1.255l-0.495,5.604
			c-0.057,0.648-0.029,1.083,0.084,1.306c0.112,0.221,0.336,0.346,0.672,0.375c0.316,0.028,0.543-0.049,0.678-0.23
			c0.135-0.183,0.232-0.615,0.293-1.298l0.098-1.115l1.754,0.155l-0.071,0.812c-0.101,1.148-0.362,1.913-0.784,2.295
			s-1.119,0.528-2.088,0.443c-0.961-0.085-1.615-0.356-1.963-0.816s-0.471-1.261-0.369-2.402l0.438-4.966
			c0.103-1.155,0.361-1.922,0.779-2.302c0.416-0.377,1.109-0.523,2.08-0.438c0.96,0.084,1.617,0.355,1.97,0.812
			S59.882,126.503,59.782,127.639z"/>
		<path fill="#331842" d="M67.476,128.032l-0.705,7.986l-1.564-0.138l-0.053-0.647c-0.252,0.27-0.559,0.466-0.922,0.587
			c-0.361,0.12-0.77,0.161-1.223,0.121c-0.707-0.062-1.192-0.283-1.455-0.664c-0.264-0.381-0.355-1.014-0.277-1.898l0.184-2.078
			c0.071-0.817,0.42-1.372,1.044-1.664c0.624-0.293,1.681-0.394,3.171-0.303l0.131-1.479c0.056-0.628,0.014-1.058-0.126-1.288
			c-0.14-0.229-0.413-0.363-0.821-0.398c-0.39-0.035-0.678,0.04-0.861,0.225c-0.186,0.185-0.3,0.52-0.343,1.006l-0.052,0.578
			l-1.672-0.147l0.025-0.284c0.092-1.04,0.357-1.73,0.799-2.069s1.183-0.461,2.225-0.369c1.016,0.09,1.708,0.341,2.078,0.754
			C67.427,126.275,67.566,126.999,67.476,128.032z M65.571,130.346c-0.872-0.05-1.474,0.013-1.804,0.188
			c-0.331,0.176-0.52,0.527-0.565,1.053l-0.148,1.673c-0.055,0.622-0.01,1.052,0.133,1.289c0.145,0.237,0.424,0.374,0.841,0.411
			c0.408,0.036,0.712-0.059,0.909-0.282c0.197-0.225,0.322-0.631,0.375-1.219L65.571,130.346z"/>
	</g>
	<g>
		<path fill="#331842" d="M42.278,12.486l1.069,0.095c0.904,0.08,1.485,0.237,1.745,0.474c0.258,0.237,0.354,0.735,0.287,1.496
			l-0.383,4.338c-0.066,0.756-0.251,1.229-0.553,1.418c-0.301,0.189-0.898,0.244-1.793,0.165l-1.07-0.095L42.278,12.486z
			 M43.138,13.149l-0.594,6.725l0.295,0.026c0.44,0.038,0.735,0.012,0.887-0.086c0.15-0.096,0.242-0.33,0.274-0.701l0.437-4.943
			c0.033-0.375-0.017-0.624-0.15-0.749s-0.418-0.207-0.854-0.245L43.138,13.149z"/>
		<path fill="#331842" d="M46.782,15.293l0.883,0.078l-0.485,5.5l-0.883-0.078L46.782,15.293z M46.95,12.899l0.984,0.087
			L47.86,13.82l-0.983-0.087L46.95,12.899z"/>
		<path fill="#331842" d="M51.415,16.981l-0.027,0.31l-0.883-0.078l0.027-0.31c0.029-0.34,0.018-0.567-0.037-0.684
			s-0.168-0.182-0.34-0.197c-0.154-0.014-0.268,0.028-0.342,0.125c-0.072,0.095-0.121,0.265-0.143,0.508l-0.019,0.219
			c-0.011,0.117,0.009,0.236,0.06,0.354c0.049,0.12,0.135,0.25,0.258,0.39l0.977,1.155c0.109,0.131,0.189,0.264,0.242,0.397
			c0.055,0.135,0.076,0.259,0.065,0.373l-0.046,0.525c-0.043,0.474-0.176,0.797-0.4,0.97c-0.226,0.172-0.586,0.237-1.084,0.193
			c-0.518-0.046-0.867-0.178-1.051-0.396s-0.251-0.596-0.203-1.135l0.041-0.471l0.877,0.077l-0.043,0.471
			c-0.03,0.35-0.016,0.582,0.045,0.694c0.059,0.113,0.178,0.178,0.355,0.193c0.18,0.017,0.314-0.026,0.4-0.127
			c0.086-0.1,0.142-0.283,0.165-0.55l0.019-0.209c0.026-0.3-0.095-0.603-0.361-0.906c-0.009-0.012-0.016-0.019-0.02-0.023L49,17.71
			c-0.101-0.12-0.17-0.236-0.208-0.349c-0.039-0.114-0.052-0.236-0.04-0.369l0.034-0.395c0.041-0.454,0.171-0.767,0.391-0.939
			c0.221-0.173,0.568-0.238,1.041-0.196c0.493,0.043,0.828,0.173,1.004,0.39C51.397,16.07,51.462,16.446,51.415,16.981z"/>
		<path fill="#331842" d="M55.327,17.493l-0.031,0.354l-0.927-0.082l0.046-0.519c0.031-0.361,0.02-0.594-0.036-0.699
			s-0.169-0.166-0.341-0.182c-0.174-0.015-0.299,0.031-0.375,0.138s-0.13,0.327-0.16,0.663l-0.261,2.958
			c-0.03,0.343-0.017,0.572,0.044,0.689c0.061,0.116,0.178,0.183,0.355,0.198c0.166,0.015,0.287-0.026,0.357-0.123
			c0.072-0.096,0.123-0.324,0.154-0.685l0.053-0.588l0.926,0.082l-0.037,0.428c-0.055,0.605-0.192,1.011-0.416,1.211
			c-0.223,0.202-0.59,0.281-1.102,0.235c-0.507-0.045-0.853-0.189-1.036-0.432c-0.183-0.242-0.249-0.666-0.195-1.269l0.231-2.622
			c0.055-0.609,0.191-1.015,0.411-1.214c0.22-0.2,0.587-0.277,1.099-0.232c0.507,0.045,0.854,0.188,1.039,0.429
			C55.312,16.473,55.38,16.894,55.327,17.493z"/>
		<path fill="#331842" d="M59.388,17.701l-0.373,4.216l-0.825-0.073l-0.027-0.342c-0.134,0.143-0.296,0.246-0.487,0.311
			c-0.191,0.063-0.406,0.086-0.646,0.064c-0.373-0.032-0.63-0.15-0.768-0.351c-0.14-0.202-0.188-0.535-0.147-1.002l0.098-1.098
			c0.038-0.432,0.221-0.725,0.551-0.879s0.889-0.208,1.674-0.16l0.07-0.78c0.029-0.333,0.006-0.56-0.066-0.68
			c-0.074-0.122-0.219-0.192-0.434-0.212c-0.207-0.018-0.358,0.021-0.456,0.119c-0.099,0.097-0.158,0.274-0.181,0.531l-0.027,0.305
			l-0.883-0.077l0.014-0.15c0.049-0.549,0.189-0.913,0.422-1.092c0.232-0.18,0.624-0.244,1.174-0.195
			c0.537,0.047,0.902,0.18,1.098,0.397C59.362,16.773,59.436,17.155,59.388,17.701z M58.383,18.921
			c-0.461-0.025-0.778,0.008-0.952,0.101c-0.176,0.093-0.275,0.277-0.299,0.556l-0.078,0.882c-0.029,0.328-0.006,0.556,0.07,0.681
			c0.074,0.126,0.223,0.198,0.443,0.218c0.215,0.019,0.375-0.031,0.479-0.149s0.171-0.333,0.198-0.644L58.383,18.921z"/>
		<path fill="#331842" d="M63.751,17.929l-0.287,3.243c-0.041,0.467-0.146,0.786-0.318,0.961c-0.173,0.173-0.445,0.244-0.818,0.212
			c-0.24-0.021-0.447-0.081-0.625-0.178c-0.178-0.098-0.318-0.227-0.425-0.391l-0.214,2.419l-0.883-0.078l0.67-7.582l0.825,0.073
			l0.028,0.342c0.133-0.143,0.295-0.246,0.486-0.311c0.191-0.063,0.406-0.085,0.646-0.063c0.373,0.032,0.63,0.149,0.769,0.35
			C63.743,17.128,63.792,17.461,63.751,17.929z M62.813,17.988c0.027-0.325,0.004-0.551-0.072-0.675
			c-0.074-0.127-0.223-0.199-0.443-0.219c-0.215-0.019-0.375,0.031-0.479,0.15c-0.105,0.117-0.171,0.33-0.197,0.638L61.36,20.84
			c-0.027,0.314-0.002,0.537,0.078,0.671c0.08,0.132,0.23,0.209,0.449,0.228c0.221,0.02,0.379-0.025,0.475-0.136
			c0.098-0.109,0.16-0.329,0.189-0.657L62.813,17.988z"/>
		<path fill="#331842" d="M67.942,18.457l-0.372,4.216l-0.825-0.073l-0.027-0.342c-0.134,0.143-0.295,0.245-0.486,0.311
			c-0.191,0.063-0.407,0.086-0.646,0.064c-0.373-0.033-0.629-0.15-0.768-0.352c-0.139-0.202-0.188-0.535-0.147-1.002l0.097-1.098
			c0.039-0.432,0.223-0.724,0.553-0.878c0.328-0.155,0.887-0.208,1.673-0.16l0.069-0.78c0.029-0.333,0.008-0.56-0.066-0.68
			c-0.074-0.122-0.219-0.193-0.434-0.212c-0.205-0.019-0.357,0.021-0.455,0.119c-0.098,0.097-0.158,0.274-0.181,0.531l-0.026,0.305
			l-0.883-0.078l0.013-0.149c0.048-0.55,0.188-0.913,0.421-1.093c0.233-0.179,0.625-0.243,1.176-0.195
			c0.535,0.048,0.901,0.181,1.097,0.398C67.917,17.529,67.991,17.911,67.942,18.457z M66.938,19.677
			c-0.461-0.025-0.778,0.007-0.953,0.101c-0.175,0.093-0.273,0.277-0.299,0.556l-0.078,0.882c-0.028,0.328-0.005,0.556,0.07,0.681
			c0.076,0.126,0.225,0.197,0.443,0.217c0.215,0.02,0.376-0.03,0.48-0.148s0.17-0.333,0.197-0.644L66.938,19.677z"/>
		<path fill="#331842" d="M71.999,18.965l-0.031,0.354l-0.926-0.082l0.045-0.519c0.033-0.361,0.021-0.594-0.035-0.699
			c-0.055-0.106-0.17-0.166-0.342-0.182s-0.297,0.031-0.373,0.138c-0.078,0.106-0.131,0.327-0.16,0.663l-0.262,2.958
			c-0.029,0.343-0.016,0.572,0.045,0.689c0.059,0.115,0.178,0.182,0.354,0.197c0.168,0.015,0.287-0.025,0.358-0.122
			c0.071-0.096,0.122-0.324,0.154-0.685l0.052-0.588l0.927,0.082l-0.038,0.428c-0.053,0.605-0.191,1.011-0.414,1.211
			c-0.223,0.202-0.59,0.28-1.102,0.235c-0.508-0.045-0.854-0.189-1.037-0.432c-0.184-0.243-0.248-0.666-0.195-1.269l0.232-2.622
			c0.053-0.609,0.19-1.015,0.41-1.215c0.221-0.199,0.586-0.276,1.099-0.231c0.507,0.045,0.854,0.188,1.04,0.429
			C71.985,17.945,72.052,18.367,71.999,18.965z"/>
		<path fill="#331842" d="M73.289,17.634l0.883,0.078l-0.485,5.5l-0.883-0.078L73.289,17.634z M73.457,15.24l0.983,0.087
			l-0.074,0.834l-0.982-0.087L73.457,15.24z"/>
		<path fill="#331842" d="M77.82,15.625l0.897,0.079l-0.697,7.891l-0.825-0.073l-0.042-0.343c-0.133,0.146-0.294,0.25-0.48,0.312
			c-0.186,0.063-0.398,0.085-0.638,0.063c-0.368-0.032-0.623-0.15-0.765-0.351c-0.142-0.202-0.191-0.536-0.15-1.003l0.287-3.243
			c0.041-0.468,0.148-0.786,0.322-0.961c0.176-0.173,0.447-0.243,0.814-0.211c0.24,0.021,0.447,0.08,0.621,0.176
			c0.176,0.098,0.313,0.227,0.414,0.391L77.82,15.625z M77.497,19.285c0.027-0.312,0.002-0.532-0.074-0.665
			c-0.078-0.133-0.225-0.209-0.439-0.229c-0.221-0.02-0.381,0.027-0.482,0.142c-0.102,0.113-0.167,0.328-0.195,0.646l-0.262,2.958
			c-0.027,0.321-0.002,0.546,0.078,0.676c0.08,0.129,0.23,0.203,0.451,0.223c0.215,0.02,0.373-0.029,0.472-0.146
			c0.1-0.118,0.163-0.333,0.19-0.647L77.497,19.285z"/>
		<path fill="#331842" d="M82.628,19.753l-0.373,4.216l-0.824-0.073l-0.028-0.342c-0.134,0.143-0.296,0.245-0.486,0.311
			c-0.192,0.063-0.407,0.086-0.646,0.064c-0.373-0.033-0.63-0.15-0.769-0.352c-0.139-0.202-0.188-0.535-0.147-1.002l0.098-1.098
			c0.038-0.432,0.222-0.724,0.551-0.878c0.33-0.155,0.889-0.208,1.674-0.16l0.07-0.78c0.029-0.333,0.007-0.56-0.066-0.68
			c-0.074-0.122-0.219-0.193-0.434-0.212c-0.207-0.019-0.357,0.021-0.456,0.119c-0.098,0.097-0.158,0.274-0.181,0.531l-0.027,0.305
			L79.7,19.645l0.014-0.149c0.049-0.55,0.189-0.913,0.422-1.093c0.232-0.179,0.625-0.243,1.175-0.195
			c0.536,0.048,0.901,0.181,1.097,0.398C82.603,18.826,82.676,19.208,82.628,19.753z M81.623,20.974
			c-0.46-0.025-0.778,0.007-0.952,0.101c-0.176,0.093-0.274,0.277-0.299,0.556l-0.078,0.882c-0.029,0.328-0.006,0.556,0.07,0.681
			c0.075,0.126,0.223,0.197,0.443,0.217c0.215,0.02,0.375-0.03,0.479-0.148s0.171-0.333,0.198-0.644L81.623,20.974z"/>
		<path fill="#331842" d="M86.376,16.38l0.896,0.079l-0.696,7.891l-0.825-0.072l-0.042-0.344c-0.134,0.147-0.294,0.251-0.48,0.313
			c-0.186,0.062-0.398,0.085-0.638,0.063c-0.369-0.032-0.623-0.15-0.765-0.351c-0.142-0.203-0.191-0.536-0.15-1.003l0.286-3.243
			c0.041-0.468,0.148-0.787,0.324-0.961c0.174-0.173,0.445-0.243,0.813-0.211c0.239,0.021,0.446,0.08,0.621,0.176
			c0.175,0.098,0.313,0.227,0.415,0.39L86.376,16.38z M86.054,20.04c0.027-0.312,0.002-0.532-0.076-0.665
			c-0.077-0.133-0.225-0.209-0.439-0.228c-0.221-0.02-0.381,0.027-0.482,0.142c-0.102,0.113-0.166,0.328-0.195,0.646L84.6,22.893
			c-0.028,0.321-0.002,0.546,0.078,0.676c0.081,0.129,0.229,0.203,0.45,0.223c0.215,0.019,0.373-0.03,0.473-0.146
			c0.1-0.118,0.164-0.333,0.191-0.647L86.054,20.04z"/>
	</g>
	<g>
		<path fill="none" stroke="#2B5965" stroke-width="2" stroke-miterlimit="10" stroke-dasharray="4,4" d="M38.183,104.92
			c-5.934-0.514-10.346-5.762-9.83-11.696c0.514-5.936,5.76-10.345,11.695-9.83c5.936,0.514,10.346,5.76,9.832,11.694
			S44.118,105.435,38.183,104.92z"/>
		<path fill-rule="evenodd" clip-rule="evenodd" fill="#F5B176" d="M47.269,46.072c1.059-0.471,2.408-2.716,2.033-4.959
			c-1.209-2.573-1.852-5.092-0.496-7.423c2.184-4.174,8.176-5.021,11.27-0.863c1.084,2.141,0.467,2.902,0.717,4.354
			c0.693,1.137,2.201,1.593,2.342,2.592c-0.008,0.904-1.098,0.726-1.859,1.361c0.02,0.394,0.113,0.787,0.352,1.174
			c-0.01,0.207-0.18,0.337-0.518,0.43c0.326,0.055,0.576,0.263,0.58,0.457c0.016,0.235-0.543,0.387-0.545,0.771
			c-0.014,0.443,0.072,0.505,0.232,0.979c0.178,0.505-0.111,0.896-0.668,0.965c-1.5,0.193-2.766,0.172-3.934,0.015
			c-1.191,0.486-2.299,2.333-2.48,3.432L47.269,46.072z"/>
		<path fill-rule="evenodd" clip-rule="evenodd" fill="#F5B176" d="M82.981,101.958c0.506,0.433,1.164,1.026,2.035,1.114
			c1.883-0.336,4.143,0,5.984,0.134c1.287-0.61,2.025,0.307,1.244,0.848l-8.678,3.435c-1.688,0.646-2.66,0.308-3.029-0.856
			c-0.369-1.687-0.807-2.679-1.412-3.755L82.981,101.958z"/>
		<path fill-rule="evenodd" clip-rule="evenodd" fill="#E45351" d="M42.384,70.029c-0.508-6.717-1.211-19.168,4.703-23.828
			c1.912-1.504,5.553,2.095,7.186,3.322c6.27,10.704,9.045,21.006,9.451,32.218L42.384,70.029z"/>
		<path fill-rule="evenodd" clip-rule="evenodd" fill="#E33D3B" d="M46.677,46.547c0.758-0.688,0.863-1.384,1.312-2.347
			c2.719,0.625,6.459,2.883,7.322,3.828c-0.609,1.351-0.133,1.668-0.248,2.906C52.11,48.517,49.942,47.769,46.677,46.547"/>
		<path fill-rule="evenodd" clip-rule="evenodd" fill="#E33D3B" d="M46.817,52.911c-0.344,4.896,0.113,9.813,2.096,14.768
			l14.266,1.235c1.051-1.109,1.557-2.295,1.236-3.591c-3.191-0.912-7.422-1.802-10.682-2.407c0.092-3.172,0.1-5.739-0.229-9.289
			C53.032,48.499,47.142,48.272,46.817,52.911"/>
		<path fill-rule="evenodd" clip-rule="evenodd" fill="#F5B176" d="M64.192,65.847c1.924,0.145,2.672,0.286,4.045,1.129
			c1.029,0.756,1.547,1.556,1.883,3.129c0.188,1.067-0.07,2.351-0.396,3.513c-0.262,0.688-1.186,0.63-1.299,0.032l-1.723-3.727
			l-3.49-1.549C63.165,67.396,63.548,66.575,64.192,65.847"/>
		<path fill-rule="evenodd" clip-rule="evenodd" fill="#3A887B" d="M63.597,78.954c4.58,0.895,13.055,0.762,15.045,5.893
			l5.23,17.567l-4.197,1.925l-6.113-16.265c-0.209-0.402-0.275-0.796-0.59-1.011c-0.359-0.246-0.744-0.274-1.277-0.389l-8.535-0.739
			L63.597,78.954z"/>
		<path fill-rule="evenodd" clip-rule="evenodd" fill="#B36C30" d="M39.267,84.461l-0.008-23.663
			c-0.002-1.081-0.256-2.012-0.738-2.654c-0.387-0.515-0.957-0.851-1.691-0.915l-3.514-0.304l0.27-3.111l3.514,0.304
			c1.682,0.146,3,0.935,3.912,2.148c0.9,1.193,1.369,2.783,1.371,4.533l0.006,23.664L39.267,84.461z"/>
		<path fill-rule="evenodd" clip-rule="evenodd" fill="#78471B" d="M34.39,53.149l-8.969-0.776
			c-0.268-0.023-0.506,0.177-0.527,0.444l-0.318,3.674c-0.023,0.267,0.176,0.503,0.443,0.526l8.969,0.776
			c0.268,0.023,0.504-0.176,0.527-0.442l0.318-3.674C34.856,53.41,34.657,53.173,34.39,53.149"/>
		<path fill-rule="evenodd" clip-rule="evenodd" fill="#78471B" d="M68.077,86.73l-27.883-2.415l-0.125-17.402l24.045,2.082
			c3.613,0.396,5.205,3.387,4.854,7.452L68.077,86.73z M67.341,76.7c0.234-2.709,0.105-5.733-3.363-6.112l-5.271-0.456
			C58.196,74.646,60.521,77.214,67.341,76.7"/>
		<path fill-rule="evenodd" clip-rule="evenodd" fill="#B36C30" d="M39.317,87.002l-0.051-3.19l32.84,2.896
			c0.67,0.059,1.205,0.531,1.373,1.144l8.133,21.64c0.301,0.803-0.104,1.701-0.908,2.004c-0.805,0.301-1.701-0.106-2.004-0.909
			l-7.838-20.852L39.317,87.002z"/>
		
			<rect x="56.393" y="94.034" transform="matrix(-0.9963 -0.0863 0.0863 -0.9963 116.9435 197.4599)" fill-rule="evenodd" clip-rule="evenodd" fill="#78471B" width="12.69" height="4.338"/>
		
			<rect x="66.316" y="94.463" transform="matrix(-0.9963 -0.0864 0.0864 -0.9963 126.3642 203.5121)" fill-rule="evenodd" clip-rule="evenodd" fill="#78471B" width="2.543" height="9.116"/>
		<polygon fill-rule="evenodd" clip-rule="evenodd" fill="#78471B" points="69.323,94.525 67.655,83.33 65.374,84.425 
			66.942,95.666 		"/>
		
			<rect x="66.874" y="102.407" transform="matrix(-0.9963 -0.0864 0.0864 -0.9963 124.8574 215.2625)" fill-rule="evenodd" clip-rule="evenodd" fill="#3A887B" width="0.429" height="5.043"/>
		
			<rect x="64.905" y="102.864" transform="matrix(-0.8571 0.5152 -0.5152 -0.8571 175.223 162.1628)" fill-rule="evenodd" clip-rule="evenodd" fill="#3A887B" width="0.428" height="5.043"/>
		
			<rect x="63.579" y="104.391" transform="matrix(-0.3917 0.9201 -0.9201 -0.3917 187.1497 90.096)" fill-rule="evenodd" clip-rule="evenodd" fill="#3A887B" width="0.429" height="5.042"/>
		
			<rect x="63.405" y="106.405" transform="matrix(0.2275 0.9738 -0.9738 0.2275 155.2138 22.1926)" fill-rule="evenodd" clip-rule="evenodd" fill="#3A887B" width="0.429" height="5.042"/>
		
			<rect x="64.448" y="108.139" transform="matrix(0.7565 0.654 -0.654 0.7565 88.1126 -15.3437)" fill-rule="evenodd" clip-rule="evenodd" fill="#3A887B" width="0.429" height="5.04"/>
		
			<rect x="66.31" y="108.925" transform="matrix(0.9963 0.0864 -0.0864 0.9963 9.8817 -5.3329)" fill-rule="evenodd" clip-rule="evenodd" fill="#3A887B" width="0.429" height="5.043"/>
		
			<rect x="68.279" y="108.471" transform="matrix(0.8581 -0.5135 0.5135 0.8581 -47.2735 50.9206)" fill-rule="evenodd" clip-rule="evenodd" fill="#3A887B" width="0.428" height="5.041"/>
		
			<rect x="69.606" y="106.944" transform="matrix(0.3917 -0.9201 0.9201 0.3917 -58.2461 130.8257)" fill-rule="evenodd" clip-rule="evenodd" fill="#3A887B" width="0.429" height="5.041"/>
		
			<rect x="69.78" y="104.928" transform="matrix(-0.2275 -0.9738 0.9738 -0.2275 -18.7122 200.0543)" fill-rule="evenodd" clip-rule="evenodd" fill="#3A887B" width="0.429" height="5.042"/>
		
			<rect x="68.736" y="103.195" transform="matrix(-0.7554 -0.6553 0.6553 -0.7554 51.7609 230.7547)" fill-rule="evenodd" clip-rule="evenodd" fill="#3A887B" width="0.429" height="5.042"/>
		<path fill-rule="evenodd" clip-rule="evenodd" fill="#78471B" d="M66.784,108.455c0.146,0.013,0.277-0.097,0.289-0.244
			c0.014-0.147-0.096-0.277-0.244-0.29c-0.146-0.013-0.277,0.097-0.289,0.243C66.526,108.312,66.636,108.442,66.784,108.455"/>
		<path fill-rule="evenodd" clip-rule="evenodd" fill="#B36C30" d="M66.89,107.227c0.531,0.046,0.926,0.513,0.879,1.044
			s-0.514,0.926-1.045,0.88s-0.924-0.515-0.879-1.046C65.892,107.573,66.358,107.181,66.89,107.227 M66.853,107.652
			c-0.295-0.025-0.557,0.192-0.582,0.488s0.193,0.557,0.49,0.582s0.557-0.193,0.582-0.488
			C67.368,107.938,67.149,107.678,66.853,107.652"/>
		<path fill-rule="evenodd" clip-rule="evenodd" fill="#B36C30" d="M67.36,101.788c3.533,0.306,6.152,3.42,5.846,6.954
			c-0.307,3.535-3.42,6.151-6.953,5.845c-3.535-0.306-6.152-3.418-5.846-6.954C60.714,104.1,63.827,101.481,67.36,101.788
			 M67.187,103.79c-2.428-0.211-4.566,1.588-4.777,4.017c-0.209,2.429,1.588,4.568,4.016,4.778c2.43,0.211,4.568-1.588,4.779-4.017
			S69.616,104,67.187,103.79"/>
		
			<rect x="38.892" y="76.794" transform="matrix(-0.9962 -0.0866 0.0866 -0.9962 71.6203 171.8049)" fill-rule="evenodd" clip-rule="evenodd" fill="#3A887B" width="1.286" height="15.111"/>
		
			<rect x="32.988" y="78.163" transform="matrix(-0.8561 0.5168 -0.5168 -0.8561 106.7264 141.7199)" fill-rule="evenodd" clip-rule="evenodd" fill="#3A887B" width="1.287" height="15.112"/>
		
			<rect x="29.017" y="82.739" transform="matrix(-0.3907 0.9205 -0.9205 -0.3907 124.3655 98.2726)" fill-rule="evenodd" clip-rule="evenodd" fill="#3A887B" width="1.285" height="15.112"/>
		
			<rect x="28.494" y="88.777" transform="matrix(0.2264 0.974 -0.974 0.2264 116.3712 46.1419)" fill-rule="evenodd" clip-rule="evenodd" fill="#3A887B" width="1.285" height="15.113"/>
		
			<rect x="31.619" y="93.971" transform="matrix(0.7551 0.6556 -0.6556 0.7551 74.4604 3.7118)" fill-rule="evenodd" clip-rule="evenodd" fill="#3A887B" width="1.286" height="15.109"/>
		
			<rect x="37.2" y="96.335" transform="matrix(0.9963 0.0858 -0.0858 0.9963 9.0544 -2.8641)" fill-rule="evenodd" clip-rule="evenodd" fill="#3A887B" width="1.286" height="15.111"/>
		
			<rect x="43.104" y="94.965" transform="matrix(0.8572 -0.5151 0.5151 0.8572 -46.5542 37.1767)" fill-rule="evenodd" clip-rule="evenodd" fill="#3A887B" width="1.287" height="15.11"/>
		
			<rect x="47.076" y="90.388" transform="matrix(0.3891 -0.9212 0.9212 0.3891 -61.0739 103.7867)" fill-rule="evenodd" clip-rule="evenodd" fill="#3A887B" width="1.285" height="15.111"/>
		
			<rect x="47.6" y="84.35" transform="matrix(-0.2251 -0.9743 0.9743 -0.2251 -30.4425 159.6002)" fill-rule="evenodd" clip-rule="evenodd" fill="#3A887B" width="1.284" height="15.111"/>
		
			<rect x="44.472" y="79.157" transform="matrix(-0.755 -0.6557 0.6557 -0.755 22.3208 181.7663)" fill-rule="evenodd" clip-rule="evenodd" fill="#3A887B" width="1.288" height="15.112"/>
		<path fill-rule="evenodd" clip-rule="evenodd" fill="#B36C30" d="M40.243,76.183c9.906,0.858,17.242,9.584,16.385,19.49
			c-0.859,9.908-9.586,17.243-19.492,16.385s-17.242-9.584-16.383-19.492C21.61,82.659,30.337,75.325,40.243,76.183 M40.007,78.902
			c-8.402-0.728-15.805,5.494-16.533,13.898s5.494,15.808,13.898,16.535c8.402,0.729,15.805-5.495,16.533-13.899
			S48.411,79.63,40.007,78.902"/>
		<path fill-rule="evenodd" clip-rule="evenodd" fill="#78471B" d="M38.62,94.921c0.441,0.038,0.832-0.29,0.871-0.732
			c0.037-0.44-0.291-0.831-0.732-0.869c-0.439-0.038-0.832,0.29-0.871,0.73C37.851,94.492,38.181,94.882,38.62,94.921"/>
		<path fill-rule="evenodd" clip-rule="evenodd" fill="#B36C30" d="M38.938,91.238c1.592,0.138,2.771,1.538,2.635,3.13
			c-0.139,1.594-1.541,2.772-3.133,2.635c-1.594-0.139-2.771-1.54-2.635-3.134C35.944,92.277,37.347,91.1,38.938,91.238
			 M38.829,92.514c-0.889-0.077-1.67,0.58-1.746,1.466c-0.078,0.888,0.58,1.67,1.467,1.746c0.889,0.077,1.67-0.58,1.746-1.468
			C40.372,93.372,39.716,92.591,38.829,92.514"/>
		<path fill-rule="evenodd" clip-rule="evenodd" fill="#78471B" d="M92.245,104.054l-13.977,5.532
			c-0.314,0.124-0.473,0.479-0.352,0.796l1.082,2.822c0.121,0.315,0.48,0.477,0.795,0.352l13.975-5.532
			c0.316-0.124,0.475-0.479,0.354-0.795l-1.08-2.822C92.919,104.091,92.56,103.929,92.245,104.054"/>
		<path fill-rule="evenodd" clip-rule="evenodd" fill="#78471B" d="M60.64,33.257c-0.225,2.631-4.219-0.006-5.545,5.671
			l-0.432,0.039c-0.305-1.249-2.566-1.229-2.473,0.28c0,0.712-0.389,1.948-0.875,2.535c-0.557,0.607-1.516,0.597-1.951,0.1
			c-1.525-3.473-2.873-6.79-0.748-9.646C52.228,28.223,58.37,28.922,60.64,33.257"/>
		<g opacity="0.4">
			<g>
				<defs>
					
						<rect id="SVGID_1467_" x="27.399" y="82.948" transform="matrix(-0.9963 -0.0863 0.0863 -0.9963 68.1681 190.4519)" width="21.606" height="21.608"/>
				</defs>
				<clipPath id="SVGID_2_">
					<use xlink:href="#SVGID_1467_"  overflow="visible"/>
				</clipPath>
				<path clip-path="url(#SVGID_2_)" fill-rule="evenodd" clip-rule="evenodd" fill="#A2C219" d="M37.269,104.516
					c-5.934-0.515-10.344-5.762-9.83-11.697c0.514-5.935,5.76-10.344,11.695-9.83c5.936,0.515,10.346,5.761,9.832,11.695
					S43.204,105.029,37.269,104.516"/>
			</g>
		</g>
	</g>
</g>
</svg>
