<?xml version="1.0" encoding="utf-8"?>
<!-- Generator: Adobe Illustrator 16.0.0, SVG Export Plug-In . SVG Version: 6.00 Build 0)  -->
<!DOCTYPE svg PUBLIC "-//W3C//DTD SVG 1.1//EN" "http://www.w3.org/Graphics/SVG/1.1/DTD/svg11.dtd">
<svg version="1.1" id="Capa_1" xmlns="http://www.w3.org/2000/svg" xmlns:xlink="http://www.w3.org/1999/xlink" x="0px" y="0px"
	 width="590.49px" height="393.652px" viewBox="0 0 590.49 393.652" enable-background="new 0 0 590.49 393.652"
	 xml:space="preserve">
<g>
	<path fill-rule="evenodd" clip-rule="evenodd" fill="#331842" d="M67.858,28.767c-2.035,14.561-3.912,29.114-5.811,43.264
		c-1.998,0.849-8.328,140.739-10.566,181.565c-1.379,24.376-2.797,48.786-2.48,73.142c0.143,14.214,9.359,22.872,26.665,23.259
		c60.732,1.288,121.477,2.783,182.179,4.18c97.818,2.278,195.589,4.386,293.381,6.874c25.786,0.674,32.784-5.561,33.399-28.425
		c1.459-56.82,4.545-113.619,5.621-170.416c0.795-41.95-0.561-83.889-0.961-125.812c-0.082-12.267-7.504-18.964-20.635-20.521
		C410.208-2.875,124.257,1.593,108.142,0.362C80.783-1.733,71.19,4.943,67.858,28.767z M98.94,10.23
		c56.228,1.217,112.475,2.012,168.712,2.714c67.718,0.833,135.509,0.809,203.224,2.36c28.02,0.626,55.869,4.75,83.902,6.404
		c16.834,1.024,25.786,8.224,26.877,22.904c1.178,16.383,1.742,32.795,2.578,49.228c0.539-0.027-4.727,123.711-7.852,185.603
		c-0.891,18.161-2.125,36.344-2.09,54.524c0.07,14.968-7.539,19.694-23.733,19.288c-70.273-1.898-140.586-3.014-210.885-4.638
		c-83.713-1.97-167.402-4.249-251.077-6.252c-26.558-0.634-33.438-6.506-32.232-31.313c1.725-35.776,4.104-71.515,6.716-107.232
		c4.225-57.815,9.413-115.609,12.98-173.42C76.977,15.792,82.526,9.868,98.94,10.23z"/>
	<path opacity="0.9" fill-rule="evenodd" clip-rule="evenodd" fill="#0093AF" d="M98.94,10.23
		c56.228,1.217,112.475,2.012,168.712,2.714c67.718,0.833,135.509,0.809,203.224,2.36c28.02,0.626,55.869,4.75,83.902,6.404
		c16.834,1.024,25.786,8.224,26.877,22.904c1.178,16.383,1.742,32.795,2.578,49.228c0.539-0.027-4.727,123.711-7.852,185.603
		c-0.891,18.161-2.125,36.344-2.09,54.524c0.07,14.968-7.539,19.694-23.733,19.288c-70.273-1.898-140.586-3.014-210.885-4.638
		c-83.713-1.97-167.402-4.249-251.077-6.252c-26.558-0.634-33.438-6.506-32.232-31.313c1.725-35.776,4.104-71.515,6.716-107.232
		c4.225-57.815,9.413-115.609,12.98-173.42C76.977,15.792,82.526,9.868,98.94,10.23z"/>
	<g>
		<path fill-rule="evenodd" clip-rule="evenodd" fill="#331842" d="M104.495,240.694c-4.229-0.721-8.459-1.4-12.57-2.08
			c-0.219-0.531-41.049-4.021-52.959-5.141c-7.11-0.68-14.23-1.371-21.36-1.609c-4.16-0.15-6.83,2.129-7.2,6.619
			c-1.279,15.76-2.619,31.52-3.93,47.27c-2.12,25.381-4.189,50.75-6.37,76.12c-0.58,6.689,1.14,8.59,7.819,9.051
			c16.601,1.129,33.171,2.68,49.771,3.709c12.261,0.76,24.55,0.961,36.82,1.41c3.59,0.141,5.659-1.699,6.31-5.09
			c7.84-40.909,10.781-115.249,11.381-119.419C113.225,244.454,111.415,241.874,104.495,240.694z M109.456,249.013
			c-1.191,14.59-2.26,29.191-3.301,43.791c-1.25,17.58-2.25,35.189-3.71,52.76c-0.6,7.27-2.22,14.449-3.12,21.71
			c-0.55,4.359-2.789,6.59-7.1,6.68c-4.811,0.09-9.62,0.02-14.439,0.02c0,0.141-36.121-2.859-54.181-4.488
			c-5.3-0.471-10.601-1.031-15.92-1.262c-4.38-0.18-5.649-2.219-5.29-6.42c1.6-18.229,2.971-36.479,4.49-54.72
			c1.82-21.719,3.73-43.43,5.56-65.139c0.58-6.891,2.4-8.602,9.64-7.961c10.44,0.92,20.86,2.01,31.271,3.16
			c16.851,1.859,33.681,3.971,50.54,5.66C108.155,243.233,109.805,244.753,109.456,249.013z"/>
		<path opacity="0.9" fill-rule="evenodd" clip-rule="evenodd" fill="#A0C219" d="M109.456,249.013
			c-1.191,14.59-2.26,29.191-3.301,43.791c-1.25,17.58-2.25,35.189-3.71,52.76c-0.6,7.27-2.22,14.449-3.12,21.71
			c-0.55,4.359-2.789,6.59-7.1,6.68c-4.811,0.09-9.62,0.02-14.439,0.02c0,0.141-36.121-2.859-54.181-4.488
			c-5.3-0.471-10.601-1.031-15.92-1.262c-4.38-0.18-5.649-2.219-5.29-6.42c1.6-18.229,2.971-36.479,4.49-54.72
			c1.82-21.719,3.73-43.43,5.56-65.139c0.58-6.891,2.4-8.602,9.64-7.961c10.44,0.92,20.86,2.01,31.271,3.16
			c16.851,1.859,33.681,3.971,50.54,5.66C108.155,243.233,109.805,244.753,109.456,249.013z"/>
	</g>
	<g>
		<g>
			<path fill="#0093AF" d="M189.803,391.652c-7.995,0-14.499-6.505-14.499-14.5c0-7.995,6.504-14.499,14.499-14.499
				c7.994,0,14.498,6.504,14.498,14.499C204.301,385.147,197.797,391.652,189.803,391.652z"/>
			<g>
				<path fill="#FFFFFF" d="M189.803,364.653c6.902,0,12.498,5.597,12.498,12.499c0,6.903-5.596,12.5-12.498,12.5
					s-12.499-5.597-12.499-12.5C177.304,370.25,182.901,364.653,189.803,364.653 M189.803,360.653
					c-9.098,0-16.499,7.401-16.499,16.499c0,9.098,7.401,16.5,16.499,16.5c9.097,0,16.498-7.402,16.498-16.5
					C206.301,368.055,198.9,360.653,189.803,360.653L189.803,360.653z"/>
			</g>
		</g>
		<g>
			<g>
				<path fill="#FFFFFF" d="M189.027,370.481h1.575v13.402h-1.575v-11.928c-0.303,0.2-0.605,0.369-0.907,0.507
					c-0.303,0.138-0.613,0.25-0.933,0.338v-1.306c0.361-0.131,0.695-0.281,1.002-0.45
					C188.495,370.875,188.775,370.688,189.027,370.481z"/>
			</g>
		</g>
	</g>
	<g>
		<g>
			<path fill="#0093AF" d="M224.219,391.652c-7.995,0-14.499-6.505-14.499-14.5c0-7.995,6.504-14.499,14.499-14.499
				c7.994,0,14.498,6.504,14.498,14.499C238.717,385.147,232.213,391.652,224.219,391.652z"/>
			<path fill="#FFFFFF" d="M224.219,364.653c6.902,0,12.498,5.597,12.498,12.499c0,6.903-5.596,12.5-12.498,12.5
				c-6.903,0-12.499-5.597-12.499-12.5C211.72,370.25,217.316,364.653,224.219,364.653 M224.219,360.653
				c-9.098,0-16.499,7.401-16.499,16.499c0,9.098,7.401,16.5,16.499,16.5c9.097,0,16.498-7.402,16.498-16.5
				C240.717,368.055,233.316,360.653,224.219,360.653L224.219,360.653z"/>
		</g>
		<g>
			<g>
				<path fill="#FFFFFF" d="M226.87,372.904v0.883c0,0.238-0.05,0.529-0.151,0.873c-0.101,0.345-0.248,0.714-0.441,1.108
					l-3.478,7.092h3.994v1.023h-5.418v-1.362l3.175-6.499l0.038-0.085c0.454-0.883,0.68-1.631,0.68-2.244v-0.854
					c0-0.576-0.082-0.986-0.246-1.23c-0.164-0.244-0.435-0.366-0.812-0.366c-0.395,0-0.674,0.13-0.838,0.39
					c-0.164,0.26-0.246,0.722-0.246,1.385v0.902h-1.625v-0.714c0-1.127,0.202-1.899,0.604-2.315
					c0.403-0.416,1.104-0.625,2.104-0.625c0.958,0,1.64,0.201,2.047,0.602C226.667,371.267,226.87,371.946,226.87,372.904z"/>
			</g>
		</g>
	</g>
	<g>
		<g>
			<path fill="#0093AF" d="M258.635,391.652c-7.995,0-14.499-6.505-14.499-14.5c0-7.995,6.504-14.499,14.499-14.499
				c7.994,0,14.498,6.504,14.498,14.499C273.133,385.147,266.629,391.652,258.635,391.652z"/>
			<path fill="#FFFFFF" d="M258.635,364.653c6.902,0,12.498,5.597,12.498,12.499c0,6.903-5.596,12.5-12.498,12.5
				c-6.904,0-12.499-5.597-12.499-12.5C246.136,370.25,251.731,364.653,258.635,364.653 M258.635,360.653
				c-9.098,0-16.499,7.401-16.499,16.499c0,9.098,7.401,16.5,16.499,16.5c9.097,0,16.498-7.402,16.498-16.5
				C275.133,368.055,267.732,360.653,258.635,360.653L258.635,360.653z"/>
		</g>
		<g>
			<g>
				<path fill="#FFFFFF" d="M261.21,373.205v2.272c0,0.444-0.101,0.773-0.303,0.986s-0.538,0.354-1.008,0.423
					c0.47,0.062,0.806,0.2,1.008,0.413s0.303,0.542,0.303,0.986v2.864c0,1.159-0.195,1.943-0.586,2.353
					c-0.391,0.41-1.09,0.615-2.098,0.615c-0.991,0-1.686-0.211-2.085-0.634c-0.399-0.423-0.599-1.207-0.599-2.353v-0.921h1.6v1.137
					c0,0.664,0.082,1.124,0.246,1.381c0.164,0.257,0.443,0.385,0.838,0.385c0.395,0,0.67-0.126,0.825-0.38
					c0.156-0.254,0.233-0.716,0.233-1.386v-2.931c0-0.406-0.103-0.681-0.309-0.821c-0.206-0.141-0.62-0.211-1.241-0.211h-0.441
					v-1.024h0.441c0.613,0,1.025-0.073,1.235-0.221c0.21-0.146,0.315-0.424,0.315-0.831v-2.292c0-0.732-0.071-1.211-0.214-1.437
					s-0.399-0.338-0.769-0.338c-0.378,0-0.645,0.128-0.8,0.385c-0.156,0.257-0.233,0.72-0.233,1.39v0.864h-1.625v-0.676
					c0-1.121,0.197-1.892,0.592-2.311c0.395-0.42,1.083-0.63,2.066-0.63c0.966,0,1.642,0.209,2.029,0.625
					C261.017,371.306,261.21,372.078,261.21,373.205z"/>
			</g>
		</g>
	</g>
	<g>
		<g>
			<path fill="#0093AF" d="M293.051,391.652c-7.995,0-14.5-6.505-14.5-14.5c0-7.995,6.505-14.499,14.5-14.499
				c7.994,0,14.498,6.504,14.498,14.499C307.549,385.147,301.045,391.652,293.051,391.652z"/>
			<path fill="#FFFFFF" d="M293.051,364.653c6.902,0,12.498,5.597,12.498,12.499c0,6.903-5.596,12.5-12.498,12.5
				c-6.904,0-12.5-5.597-12.5-12.5C280.551,370.25,286.147,364.653,293.051,364.653 M293.051,360.653
				c-9.098,0-16.5,7.401-16.5,16.499c0,9.098,7.402,16.5,16.5,16.5c9.097,0,16.498-7.402,16.498-16.5
				C309.549,368.055,302.148,360.653,293.051,360.653L293.051,360.653z"/>
		</g>
		<g>
			<g>
				<path fill="#FFFFFF" d="M292.527,370.481h2.255v8.903h1.361v0.939h-1.361v3.56h-1.5v-3.56h-3.352v-1.193L292.527,370.481z
					 M293.333,371.401l-2.091,7.983h2.041l0.202-7.983H293.333z"/>
			</g>
		</g>
	</g>
	<g>
		<g>
			<path fill="#0093AF" d="M327.467,391.652c-7.995,0-14.499-6.505-14.499-14.5c0-7.995,6.504-14.499,14.499-14.499
				c7.994,0,14.498,6.504,14.498,14.499C341.965,385.147,335.461,391.652,327.467,391.652z"/>
			<path fill="#FFFFFF" d="M327.467,364.653c6.902,0,12.498,5.597,12.498,12.499c0,6.903-5.596,12.5-12.498,12.5
				c-6.903,0-12.499-5.597-12.499-12.5C314.968,370.25,320.564,364.653,327.467,364.653 M327.467,360.653
				c-9.098,0-16.499,7.401-16.499,16.499c0,9.098,7.401,16.5,16.499,16.5c9.097,0,16.498-7.402,16.498-16.5
				C343.965,368.055,336.564,360.653,327.467,360.653L327.467,360.653z"/>
		</g>
		<g>
			<g>
				<g>
					<path fill="#FFFFFF" d="M324.851,370.481h5.141v1.014h-3.591v4.499c0.26-0.188,0.523-0.324,0.788-0.408
						c0.265-0.085,0.573-0.127,0.926-0.127c0.722,0,1.236,0.151,1.543,0.455c0.306,0.304,0.459,0.825,0.459,1.564v3.672
						c0,1.159-0.195,1.943-0.585,2.353c-0.391,0.41-1.09,0.615-2.098,0.615c-1,0-1.701-0.213-2.104-0.639s-0.605-1.208-0.605-2.348
						v-0.921h1.625v1.137c0,0.67,0.08,1.132,0.239,1.386s0.433,0.38,0.819,0.38c0.395,0,0.674-0.128,0.838-0.385
						c0.164-0.257,0.246-0.717,0.246-1.381v-3.597c0-0.52-0.078-0.885-0.233-1.095s-0.422-0.314-0.8-0.314
						c-0.387,0-0.66,0.104-0.819,0.31c-0.16,0.207-0.239,0.573-0.239,1.1v0.244h-1.55V370.481z"/>
				</g>
			</g>
		</g>
	</g>
	<g>
		<g>
			<path fill="#0093AF" d="M361.883,391.652c-7.995,0-14.499-6.505-14.499-14.5c0-7.995,6.504-14.499,14.499-14.499
				c7.994,0,14.498,6.504,14.498,14.499C376.381,385.147,369.877,391.652,361.883,391.652z"/>
			<path fill="#FFFFFF" d="M361.883,364.653c6.902,0,12.498,5.597,12.498,12.499c0,6.903-5.596,12.5-12.498,12.5
				c-6.903,0-12.499-5.597-12.499-12.5C349.384,370.25,354.98,364.653,361.883,364.653 M361.883,360.653
				c-9.098,0-16.499,7.401-16.499,16.499c0,9.098,7.401,16.5,16.499,16.5c9.097,0,16.498-7.402,16.498-16.5
				C378.381,368.055,370.98,360.653,361.883,360.653L361.883,360.653z"/>
		</g>
		<g>
			<g>
				<path fill="#FFFFFF" d="M364.509,373.205v0.93h-1.625v-1.118c0-0.657-0.078-1.117-0.233-1.38
					c-0.156-0.264-0.422-0.395-0.8-0.395c-0.37,0-0.626,0.107-0.769,0.323c-0.143,0.217-0.214,0.7-0.214,1.451v3.081
					c0.219-0.163,0.458-0.282,0.718-0.357c0.26-0.074,0.575-0.112,0.945-0.112c0.747,0,1.281,0.194,1.6,0.582
					c0.319,0.389,0.479,1.049,0.479,1.982v2.958c0,1.159-0.195,1.943-0.586,2.353c-0.391,0.41-1.09,0.615-2.098,0.615
					c-0.991,0-1.687-0.211-2.085-0.634s-0.598-1.207-0.598-2.353v-7.927c0-1.14,0.193-1.915,0.58-2.325
					c0.386-0.41,1.062-0.615,2.028-0.615c0.991,0,1.682,0.21,2.073,0.63C364.313,371.313,364.509,372.084,364.509,373.205z
					 M363.009,378.343c0-0.664-0.082-1.128-0.246-1.391c-0.164-0.263-0.443-0.395-0.838-0.395c-0.395,0-0.674,0.132-0.838,0.395
					s-0.246,0.727-0.246,1.391v3.005c0,0.664,0.082,1.124,0.246,1.381s0.443,0.385,0.838,0.385c0.403,0,0.685-0.128,0.844-0.385
					c0.159-0.257,0.239-0.717,0.239-1.381V378.343z"/>
			</g>
		</g>
	</g>
	<g>
		<g>
			<path fill="#0093AF" d="M396.298,391.652c-7.995,0-14.499-6.505-14.499-14.5c0-7.995,6.504-14.499,14.499-14.499
				s14.499,6.504,14.499,14.499C410.797,385.147,404.293,391.652,396.298,391.652z"/>
			<path fill="#FFFFFF" d="M396.298,364.653c6.903,0,12.499,5.597,12.499,12.499c0,6.903-5.596,12.5-12.499,12.5
				c-6.902,0-12.499-5.597-12.499-12.5C383.799,370.25,389.396,364.653,396.298,364.653 M396.298,360.653
				c-9.098,0-16.499,7.401-16.499,16.499c0,9.098,7.401,16.5,16.499,16.5s16.499-7.402,16.499-16.5
				C412.797,368.055,405.396,360.653,396.298,360.653L396.298,360.653z"/>
		</g>
		<g>
			<g>
				<path fill="#FFFFFF" d="M393.091,370.481h5.557v1.437l-2.608,11.966h-1.651l2.81-12.389h-4.108V370.481z"/>
			</g>
		</g>
	</g>
</g>
</svg>
