<?xml version="1.0" encoding="utf-8"?>
<!-- Generator: Adobe Illustrator 16.0.0, SVG Export Plug-In . SVG Version: 6.00 Build 0)  -->
<!DOCTYPE svg PUBLIC "-//W3C//DTD SVG 1.1//EN" "http://www.w3.org/Graphics/SVG/1.1/DTD/svg11.dtd">
<svg version="1.1" id="Capa_1" xmlns="http://www.w3.org/2000/svg" xmlns:xlink="http://www.w3.org/1999/xlink" x="0px" y="0px"
	 width="387.271px" height="164.852px" viewBox="0 0 387.271 164.852" enable-background="new 0 0 387.271 164.852"
	 xml:space="preserve">
<g>
	<polygon fill="#2C5A67" points="0.001,0 6.769,140.615 387.272,164.852 383.784,11.492 378.954,10.363 	"/>
	<g>
		<path fill="#FFFFFF" d="M28.977,81.421v-8.59h3.24c0.57,0,1.006,0.027,1.307,0.082c0.422,0.07,0.775,0.204,1.061,0.401
			s0.514,0.474,0.688,0.829s0.262,0.746,0.262,1.172c0,0.73-0.232,1.349-0.697,1.854s-1.305,0.759-2.52,0.759h-2.203v3.492H28.977z
			 M30.113,76.915h2.221c0.734,0,1.256-0.137,1.564-0.41s0.463-0.658,0.463-1.154c0-0.359-0.092-0.667-0.273-0.923
			s-0.42-0.425-0.717-0.507c-0.191-0.051-0.545-0.076-1.061-0.076h-2.197V76.915z"/>
		<path fill="#FFFFFF" d="M36.453,78.31c0-1.152,0.32-2.006,0.961-2.561c0.535-0.461,1.188-0.691,1.957-0.691
			c0.855,0,1.555,0.28,2.098,0.841s0.814,1.335,0.814,2.323c0,0.801-0.121,1.431-0.361,1.89s-0.59,0.815-1.049,1.069
			s-0.959,0.381-1.502,0.381c-0.871,0-1.576-0.279-2.113-0.838S36.453,79.36,36.453,78.31z M37.537,78.31
			c0,0.797,0.174,1.394,0.521,1.79s0.785,0.595,1.312,0.595c0.523,0,0.959-0.199,1.307-0.598s0.521-1.006,0.521-1.822
			c0-0.77-0.176-1.353-0.525-1.749s-0.783-0.595-1.303-0.595c-0.527,0-0.965,0.197-1.312,0.592S37.537,77.513,37.537,78.31z"/>
		<path fill="#FFFFFF" d="M43.508,81.421v-6.223h0.949v0.943c0.242-0.441,0.465-0.732,0.67-0.873s0.432-0.211,0.678-0.211
			c0.355,0,0.717,0.113,1.084,0.34l-0.363,0.979c-0.258-0.152-0.516-0.229-0.773-0.229c-0.23,0-0.438,0.069-0.621,0.208
			s-0.314,0.331-0.393,0.577c-0.117,0.375-0.176,0.785-0.176,1.23v3.258H43.508z"/>
		<path fill="#FFFFFF" d="M53.447,81.421v-5.402h-0.932v-0.82h0.932v-0.662c0-0.418,0.037-0.729,0.111-0.932
			c0.102-0.273,0.281-0.495,0.537-0.665s0.613-0.255,1.074-0.255c0.297,0,0.625,0.035,0.984,0.105l-0.158,0.92
			c-0.219-0.039-0.426-0.059-0.621-0.059c-0.32,0-0.547,0.068-0.68,0.205s-0.199,0.393-0.199,0.768v0.574h1.213v0.82h-1.213v5.402
			H53.447z"/>
		<path fill="#FFFFFF" d="M60.59,80.653c-0.391,0.332-0.766,0.566-1.127,0.703s-0.75,0.205-1.164,0.205
			c-0.684,0-1.209-0.167-1.576-0.501s-0.551-0.761-0.551-1.28c0-0.305,0.07-0.583,0.209-0.835s0.32-0.454,0.545-0.606
			s0.477-0.268,0.758-0.346c0.207-0.055,0.52-0.107,0.938-0.158c0.852-0.102,1.479-0.223,1.881-0.363
			c0.004-0.145,0.006-0.236,0.006-0.275c0-0.43-0.1-0.732-0.299-0.908c-0.27-0.238-0.67-0.357-1.201-0.357
			c-0.496,0-0.861,0.087-1.098,0.261s-0.412,0.481-0.525,0.923l-1.031-0.141c0.094-0.441,0.248-0.798,0.463-1.069
			s0.525-0.48,0.932-0.627s0.877-0.22,1.412-0.22c0.531,0,0.963,0.062,1.295,0.188s0.576,0.282,0.732,0.472s0.266,0.429,0.328,0.718
			c0.035,0.18,0.053,0.504,0.053,0.973v1.406c0,0.98,0.023,1.601,0.068,1.86s0.133,0.509,0.266,0.747h-1.102
			C60.691,81.202,60.621,80.946,60.59,80.653z M60.502,78.298c-0.383,0.156-0.957,0.289-1.723,0.398
			c-0.434,0.062-0.74,0.133-0.92,0.211s-0.318,0.192-0.416,0.343s-0.146,0.317-0.146,0.501c0,0.281,0.107,0.516,0.32,0.703
			s0.523,0.281,0.934,0.281c0.406,0,0.768-0.089,1.084-0.267s0.549-0.421,0.697-0.729c0.113-0.238,0.17-0.59,0.17-1.055V78.298z"/>
		<path fill="#FFFFFF" d="M64.932,81.421l-2.367-6.223h1.113l1.336,3.727c0.145,0.402,0.277,0.82,0.398,1.254
			c0.094-0.328,0.225-0.723,0.393-1.184l1.383-3.797h1.084l-2.355,6.223H64.932z"/>
		<path fill="#FFFFFF" d="M68.811,78.31c0-1.152,0.32-2.006,0.961-2.561c0.535-0.461,1.188-0.691,1.957-0.691
			c0.855,0,1.555,0.28,2.098,0.841s0.814,1.335,0.814,2.323c0,0.801-0.119,1.431-0.359,1.89s-0.59,0.815-1.049,1.069
			s-0.961,0.381-1.504,0.381c-0.871,0-1.574-0.279-2.111-0.838S68.811,79.36,68.811,78.31z M69.895,78.31
			c0,0.797,0.174,1.394,0.521,1.79s0.785,0.595,1.312,0.595c0.523,0,0.959-0.199,1.307-0.598s0.521-1.006,0.521-1.822
			c0-0.77-0.174-1.353-0.523-1.749s-0.785-0.595-1.305-0.595c-0.527,0-0.965,0.197-1.312,0.592S69.895,77.513,69.895,78.31z"/>
		<path fill="#FFFFFF" d="M75.865,81.421v-6.223h0.949v0.943c0.242-0.441,0.467-0.732,0.672-0.873s0.43-0.211,0.676-0.211
			c0.355,0,0.717,0.113,1.084,0.34l-0.363,0.979c-0.258-0.152-0.516-0.229-0.773-0.229c-0.23,0-0.438,0.069-0.621,0.208
			s-0.314,0.331-0.393,0.577c-0.117,0.375-0.176,0.785-0.176,1.23v3.258H75.865z"/>
		<path fill="#FFFFFF" d="M85.531,81.421v-8.59h1.055v8.59H85.531z"/>
		<path fill="#FFFFFF" d="M92.48,79.417l1.09,0.135c-0.172,0.637-0.49,1.131-0.955,1.482s-1.059,0.527-1.781,0.527
			c-0.91,0-1.631-0.28-2.164-0.841s-0.801-1.347-0.801-2.358c0-1.047,0.27-1.859,0.809-2.438s1.238-0.867,2.098-0.867
			c0.832,0,1.512,0.283,2.039,0.85s0.791,1.363,0.791,2.391c0,0.062-0.002,0.156-0.006,0.281h-4.641
			c0.039,0.684,0.232,1.207,0.58,1.57s0.781,0.545,1.301,0.545c0.387,0,0.717-0.102,0.99-0.305S92.32,79.862,92.48,79.417z
			 M89.018,77.712h3.475c-0.047-0.523-0.18-0.916-0.398-1.178c-0.336-0.406-0.771-0.609-1.307-0.609
			c-0.484,0-0.891,0.162-1.221,0.486S89.053,77.169,89.018,77.712z"/>
		<path fill="#FFFFFF" d="M98.955,80.653c-0.391,0.332-0.766,0.566-1.127,0.703s-0.75,0.205-1.164,0.205
			c-0.684,0-1.209-0.167-1.576-0.501s-0.551-0.761-0.551-1.28c0-0.305,0.07-0.583,0.209-0.835s0.32-0.454,0.545-0.606
			s0.477-0.268,0.758-0.346c0.207-0.055,0.52-0.107,0.938-0.158c0.852-0.102,1.479-0.223,1.881-0.363
			c0.004-0.145,0.006-0.236,0.006-0.275c0-0.43-0.1-0.732-0.299-0.908c-0.27-0.238-0.67-0.357-1.201-0.357
			c-0.496,0-0.861,0.087-1.098,0.261s-0.412,0.481-0.525,0.923l-1.031-0.141c0.094-0.441,0.248-0.798,0.463-1.069
			s0.525-0.48,0.932-0.627s0.877-0.22,1.412-0.22c0.531,0,0.963,0.062,1.295,0.188s0.576,0.282,0.732,0.472s0.266,0.429,0.328,0.718
			c0.035,0.18,0.053,0.504,0.053,0.973v1.406c0,0.98,0.023,1.601,0.068,1.86s0.133,0.509,0.266,0.747h-1.102
			C99.057,81.202,98.986,80.946,98.955,80.653z M98.867,78.298c-0.383,0.156-0.957,0.289-1.723,0.398
			c-0.434,0.062-0.74,0.133-0.92,0.211s-0.318,0.192-0.416,0.343s-0.146,0.317-0.146,0.501c0,0.281,0.107,0.516,0.32,0.703
			s0.523,0.281,0.934,0.281c0.406,0,0.768-0.089,1.084-0.267s0.549-0.421,0.697-0.729c0.113-0.238,0.17-0.59,0.17-1.055V78.298z"/>
		<path fill="#FFFFFF" d="M111.51,79.417l1.09,0.135c-0.172,0.637-0.49,1.131-0.955,1.482s-1.059,0.527-1.781,0.527
			c-0.91,0-1.633-0.28-2.166-0.841s-0.799-1.347-0.799-2.358c0-1.047,0.27-1.859,0.809-2.438s1.238-0.867,2.098-0.867
			c0.832,0,1.512,0.283,2.039,0.85s0.791,1.363,0.791,2.391c0,0.062-0.002,0.156-0.006,0.281h-4.641
			c0.039,0.684,0.232,1.207,0.58,1.57s0.781,0.545,1.301,0.545c0.387,0,0.717-0.102,0.99-0.305S111.35,79.862,111.51,79.417z
			 M108.047,77.712h3.475c-0.047-0.523-0.18-0.916-0.398-1.178c-0.336-0.406-0.771-0.609-1.307-0.609
			c-0.484,0-0.893,0.162-1.223,0.486S108.082,77.169,108.047,77.712z"/>
		<path fill="#FFFFFF" d="M113.9,81.421v-8.59h1.055v8.59H113.9z"/>
		<path fill="#FFFFFF" d="M126.33,79.142l1.037,0.135c-0.113,0.715-0.402,1.274-0.869,1.679s-1.041,0.606-1.721,0.606
			c-0.852,0-1.535-0.278-2.053-0.835s-0.777-1.354-0.777-2.394c0-0.672,0.111-1.26,0.334-1.764s0.562-0.882,1.018-1.134
			s0.949-0.378,1.484-0.378c0.676,0,1.229,0.171,1.658,0.513s0.705,0.827,0.826,1.456l-1.025,0.158
			c-0.098-0.418-0.27-0.732-0.518-0.943s-0.549-0.316-0.9-0.316c-0.531,0-0.963,0.19-1.295,0.571s-0.498,0.983-0.498,1.808
			c0,0.836,0.16,1.443,0.48,1.822s0.738,0.568,1.254,0.568c0.414,0,0.76-0.127,1.037-0.381S126.256,79.669,126.33,79.142z"/>
		<path fill="#FFFFFF" d="M132.33,80.653c-0.391,0.332-0.766,0.566-1.127,0.703s-0.75,0.205-1.164,0.205
			c-0.684,0-1.209-0.167-1.576-0.501s-0.551-0.761-0.551-1.28c0-0.305,0.07-0.583,0.209-0.835s0.32-0.454,0.545-0.606
			s0.477-0.268,0.758-0.346c0.207-0.055,0.52-0.107,0.938-0.158c0.852-0.102,1.479-0.223,1.881-0.363
			c0.004-0.145,0.006-0.236,0.006-0.275c0-0.43-0.1-0.732-0.299-0.908c-0.27-0.238-0.67-0.357-1.201-0.357
			c-0.496,0-0.861,0.087-1.098,0.261s-0.412,0.481-0.525,0.923l-1.031-0.141c0.094-0.441,0.248-0.798,0.463-1.069
			s0.525-0.48,0.932-0.627s0.877-0.22,1.412-0.22c0.531,0,0.963,0.062,1.295,0.188s0.576,0.282,0.732,0.472s0.266,0.429,0.328,0.718
			c0.035,0.18,0.053,0.504,0.053,0.973v1.406c0,0.98,0.023,1.601,0.068,1.86s0.133,0.509,0.266,0.747h-1.102
			C132.432,81.202,132.361,80.946,132.33,80.653z M132.242,78.298c-0.383,0.156-0.957,0.289-1.723,0.398
			c-0.434,0.062-0.74,0.133-0.92,0.211s-0.318,0.192-0.416,0.343s-0.146,0.317-0.146,0.501c0,0.281,0.107,0.516,0.32,0.703
			s0.523,0.281,0.934,0.281c0.406,0,0.768-0.089,1.084-0.267s0.549-0.421,0.697-0.729c0.113-0.238,0.17-0.59,0.17-1.055V78.298z"/>
		<path fill="#FFFFFF" d="M134.521,79.563l1.043-0.164c0.059,0.418,0.223,0.738,0.49,0.961s0.641,0.334,1.121,0.334
			c0.484,0,0.844-0.099,1.078-0.296s0.352-0.429,0.352-0.694c0-0.238-0.104-0.426-0.311-0.562c-0.145-0.094-0.504-0.213-1.078-0.357
			c-0.773-0.195-1.309-0.364-1.607-0.507s-0.525-0.34-0.68-0.592s-0.232-0.53-0.232-0.835c0-0.277,0.064-0.534,0.191-0.771
			s0.299-0.433,0.518-0.589c0.164-0.121,0.389-0.224,0.672-0.308s0.586-0.126,0.91-0.126c0.488,0,0.918,0.07,1.287,0.211
			s0.641,0.331,0.816,0.571s0.297,0.562,0.363,0.964l-1.031,0.141c-0.047-0.32-0.182-0.57-0.406-0.75s-0.543-0.27-0.953-0.27
			c-0.484,0-0.83,0.08-1.037,0.24s-0.311,0.348-0.311,0.562c0,0.137,0.043,0.26,0.129,0.369c0.086,0.113,0.221,0.207,0.404,0.281
			c0.105,0.039,0.416,0.129,0.932,0.27c0.746,0.199,1.268,0.362,1.562,0.489s0.525,0.312,0.693,0.554s0.252,0.543,0.252,0.902
			c0,0.352-0.102,0.683-0.307,0.993s-0.502,0.551-0.889,0.721s-0.824,0.255-1.312,0.255c-0.809,0-1.424-0.168-1.848-0.504
			S134.639,80.224,134.521,79.563z"/>
		<path fill="#FFFFFF" d="M140.551,78.31c0-1.152,0.32-2.006,0.961-2.561c0.535-0.461,1.188-0.691,1.957-0.691
			c0.855,0,1.555,0.28,2.098,0.841s0.814,1.335,0.814,2.323c0,0.801-0.119,1.431-0.359,1.89s-0.59,0.815-1.049,1.069
			s-0.961,0.381-1.504,0.381c-0.871,0-1.574-0.279-2.111-0.838S140.551,79.36,140.551,78.31z M141.635,78.31
			c0,0.797,0.174,1.394,0.521,1.79s0.785,0.595,1.312,0.595c0.523,0,0.959-0.199,1.307-0.598s0.521-1.006,0.521-1.822
			c0-0.77-0.174-1.353-0.523-1.749s-0.785-0.595-1.305-0.595c-0.527,0-0.965,0.197-1.312,0.592S141.635,77.513,141.635,78.31z"/>
		<path fill="#FFFFFF" d="M157.266,83.806v-3.047c-0.164,0.23-0.393,0.422-0.688,0.574s-0.609,0.229-0.941,0.229
			c-0.738,0-1.373-0.295-1.906-0.885s-0.801-1.398-0.801-2.426c0-0.625,0.109-1.186,0.326-1.682s0.531-0.872,0.943-1.128
			s0.863-0.384,1.355-0.384c0.77,0,1.375,0.324,1.816,0.973v-0.832h0.949v8.607H157.266z M154.014,78.292
			c0,0.801,0.168,1.401,0.504,1.802s0.738,0.601,1.207,0.601c0.449,0,0.836-0.19,1.16-0.571s0.486-0.96,0.486-1.737
			c0-0.828-0.17-1.451-0.512-1.869s-0.744-0.627-1.205-0.627c-0.457,0-0.844,0.194-1.162,0.583S154.014,77.468,154.014,78.292z"/>
		<path fill="#FFFFFF" d="M164.051,81.421v-0.914c-0.484,0.703-1.143,1.055-1.975,1.055c-0.367,0-0.709-0.07-1.027-0.211
			s-0.555-0.317-0.709-0.53s-0.264-0.474-0.326-0.782c-0.043-0.207-0.064-0.535-0.064-0.984v-3.855h1.055v3.451
			c0,0.551,0.021,0.922,0.064,1.113c0.066,0.277,0.207,0.495,0.422,0.653s0.48,0.237,0.797,0.237s0.613-0.081,0.891-0.243
			s0.475-0.383,0.59-0.662s0.172-0.685,0.172-1.216v-3.334h1.055v6.223H164.051z"/>
		<path fill="#FFFFFF" d="M170.906,79.417l1.09,0.135c-0.172,0.637-0.49,1.131-0.955,1.482s-1.059,0.527-1.781,0.527
			c-0.91,0-1.631-0.28-2.164-0.841s-0.801-1.347-0.801-2.358c0-1.047,0.27-1.859,0.809-2.438s1.238-0.867,2.098-0.867
			c0.832,0,1.512,0.283,2.039,0.85s0.791,1.363,0.791,2.391c0,0.062-0.002,0.156-0.006,0.281h-4.641
			c0.039,0.684,0.232,1.207,0.58,1.57s0.781,0.545,1.301,0.545c0.387,0,0.717-0.102,0.99-0.305S170.746,79.862,170.906,79.417z
			 M167.443,77.712h3.475c-0.047-0.523-0.18-0.916-0.398-1.178c-0.336-0.406-0.771-0.609-1.307-0.609
			c-0.484,0-0.891,0.162-1.221,0.486S167.479,77.169,167.443,77.712z"/>
		<path fill="#FFFFFF" d="M183.062,80.653c-0.391,0.332-0.768,0.566-1.129,0.703s-0.748,0.205-1.162,0.205
			c-0.684,0-1.209-0.167-1.576-0.501s-0.551-0.761-0.551-1.28c0-0.305,0.068-0.583,0.207-0.835s0.32-0.454,0.545-0.606
			s0.479-0.268,0.76-0.346c0.207-0.055,0.52-0.107,0.938-0.158c0.852-0.102,1.479-0.223,1.881-0.363
			c0.004-0.145,0.006-0.236,0.006-0.275c0-0.43-0.1-0.732-0.299-0.908c-0.27-0.238-0.67-0.357-1.201-0.357
			c-0.496,0-0.863,0.087-1.1,0.261s-0.41,0.481-0.523,0.923l-1.031-0.141c0.094-0.441,0.248-0.798,0.463-1.069
			s0.525-0.48,0.932-0.627s0.877-0.22,1.412-0.22c0.531,0,0.963,0.062,1.295,0.188s0.576,0.282,0.732,0.472s0.266,0.429,0.328,0.718
			c0.035,0.18,0.053,0.504,0.053,0.973v1.406c0,0.98,0.021,1.601,0.066,1.86s0.135,0.509,0.268,0.747h-1.102
			C183.164,81.202,183.094,80.946,183.062,80.653z M182.975,78.298c-0.383,0.156-0.957,0.289-1.723,0.398
			c-0.434,0.062-0.74,0.133-0.92,0.211s-0.318,0.192-0.416,0.343s-0.146,0.317-0.146,0.501c0,0.281,0.105,0.516,0.318,0.703
			s0.525,0.281,0.936,0.281c0.406,0,0.768-0.089,1.084-0.267s0.549-0.421,0.697-0.729c0.113-0.238,0.17-0.59,0.17-1.055V78.298z"/>
		<path fill="#FFFFFF" d="M185.676,83.806v-8.607h0.961v0.809c0.227-0.316,0.482-0.554,0.768-0.712s0.631-0.237,1.037-0.237
			c0.531,0,1,0.137,1.406,0.41s0.713,0.659,0.92,1.157s0.311,1.044,0.311,1.638c0,0.637-0.115,1.21-0.344,1.72
			s-0.561,0.9-0.996,1.172s-0.893,0.407-1.373,0.407c-0.352,0-0.668-0.074-0.947-0.223s-0.508-0.336-0.688-0.562v3.029H185.676z
			 M186.631,78.345c0,0.801,0.162,1.393,0.486,1.775s0.717,0.574,1.178,0.574c0.469,0,0.869-0.198,1.203-0.595
			S190,79.089,190,78.257c0-0.793-0.164-1.387-0.49-1.781s-0.715-0.592-1.168-0.592c-0.449,0-0.848,0.21-1.193,0.63
			S186.631,77.544,186.631,78.345z"/>
		<path fill="#FFFFFF" d="M196.41,80.653c-0.391,0.332-0.768,0.566-1.129,0.703s-0.748,0.205-1.162,0.205
			c-0.684,0-1.209-0.167-1.576-0.501s-0.551-0.761-0.551-1.28c0-0.305,0.068-0.583,0.207-0.835s0.32-0.454,0.545-0.606
			s0.479-0.268,0.76-0.346c0.207-0.055,0.52-0.107,0.938-0.158c0.852-0.102,1.479-0.223,1.881-0.363
			c0.004-0.145,0.006-0.236,0.006-0.275c0-0.43-0.1-0.732-0.299-0.908c-0.27-0.238-0.67-0.357-1.201-0.357
			c-0.496,0-0.863,0.087-1.1,0.261s-0.41,0.481-0.523,0.923l-1.031-0.141c0.094-0.441,0.248-0.798,0.463-1.069
			s0.525-0.48,0.932-0.627s0.877-0.22,1.412-0.22c0.531,0,0.963,0.062,1.295,0.188s0.576,0.282,0.732,0.472s0.266,0.429,0.328,0.718
			c0.035,0.18,0.053,0.504,0.053,0.973v1.406c0,0.98,0.021,1.601,0.066,1.86s0.135,0.509,0.268,0.747h-1.102
			C196.512,81.202,196.441,80.946,196.41,80.653z M196.322,78.298c-0.383,0.156-0.957,0.289-1.723,0.398
			c-0.434,0.062-0.74,0.133-0.92,0.211s-0.318,0.192-0.416,0.343s-0.146,0.317-0.146,0.501c0,0.281,0.105,0.516,0.318,0.703
			s0.525,0.281,0.936,0.281c0.406,0,0.768-0.089,1.084-0.267s0.549-0.421,0.697-0.729c0.113-0.238,0.17-0.59,0.17-1.055V78.298z"/>
		<path fill="#FFFFFF" d="M199.012,81.421v-6.223h0.949v0.943c0.242-0.441,0.465-0.732,0.67-0.873s0.432-0.211,0.678-0.211
			c0.355,0,0.717,0.113,1.084,0.34l-0.363,0.979c-0.258-0.152-0.516-0.229-0.773-0.229c-0.23,0-0.438,0.069-0.621,0.208
			s-0.314,0.331-0.393,0.577c-0.117,0.375-0.176,0.785-0.176,1.23v3.258H199.012z"/>
		<path fill="#FFFFFF" d="M207.279,79.417l1.09,0.135c-0.172,0.637-0.49,1.131-0.955,1.482s-1.059,0.527-1.781,0.527
			c-0.91,0-1.633-0.28-2.166-0.841s-0.799-1.347-0.799-2.358c0-1.047,0.27-1.859,0.809-2.438s1.238-0.867,2.098-0.867
			c0.832,0,1.512,0.283,2.039,0.85s0.791,1.363,0.791,2.391c0,0.062-0.002,0.156-0.006,0.281h-4.641
			c0.039,0.684,0.232,1.207,0.58,1.57s0.781,0.545,1.301,0.545c0.387,0,0.717-0.102,0.99-0.305S207.119,79.862,207.279,79.417z
			 M203.816,77.712h3.475c-0.047-0.523-0.18-0.916-0.398-1.178c-0.336-0.406-0.771-0.609-1.307-0.609
			c-0.484,0-0.893,0.162-1.223,0.486S203.852,77.169,203.816,77.712z"/>
		<path fill="#FFFFFF" d="M213.754,79.142l1.037,0.135c-0.113,0.715-0.404,1.274-0.871,1.679s-1.039,0.606-1.719,0.606
			c-0.852,0-1.537-0.278-2.055-0.835s-0.775-1.354-0.775-2.394c0-0.672,0.111-1.26,0.334-1.764s0.561-0.882,1.016-1.134
			s0.951-0.378,1.486-0.378c0.676,0,1.229,0.171,1.658,0.513s0.705,0.827,0.826,1.456l-1.025,0.158
			c-0.098-0.418-0.271-0.732-0.52-0.943s-0.547-0.316-0.898-0.316c-0.531,0-0.963,0.19-1.295,0.571s-0.498,0.983-0.498,1.808
			c0,0.836,0.16,1.443,0.48,1.822s0.738,0.568,1.254,0.568c0.414,0,0.76-0.127,1.037-0.381S213.68,79.669,213.754,79.142z"/>
		<path fill="#FFFFFF" d="M219.953,79.417l1.09,0.135c-0.172,0.637-0.49,1.131-0.955,1.482s-1.059,0.527-1.781,0.527
			c-0.91,0-1.633-0.28-2.166-0.841s-0.799-1.347-0.799-2.358c0-1.047,0.27-1.859,0.809-2.438s1.238-0.867,2.098-0.867
			c0.832,0,1.512,0.283,2.039,0.85s0.791,1.363,0.791,2.391c0,0.062-0.002,0.156-0.006,0.281h-4.641
			c0.039,0.684,0.232,1.207,0.58,1.57s0.781,0.545,1.301,0.545c0.387,0,0.717-0.102,0.99-0.305S219.793,79.862,219.953,79.417z
			 M216.49,77.712h3.475c-0.047-0.523-0.18-0.916-0.398-1.178c-0.336-0.406-0.771-0.609-1.307-0.609
			c-0.484,0-0.893,0.162-1.223,0.486S216.525,77.169,216.49,77.712z"/>
		<path fill="#FFFFFF" d="M232.309,79.417l1.09,0.135c-0.172,0.637-0.49,1.131-0.955,1.482s-1.059,0.527-1.781,0.527
			c-0.91,0-1.633-0.28-2.166-0.841s-0.799-1.347-0.799-2.358c0-1.047,0.27-1.859,0.809-2.438s1.238-0.867,2.098-0.867
			c0.832,0,1.512,0.283,2.039,0.85s0.791,1.363,0.791,2.391c0,0.062-0.002,0.156-0.006,0.281h-4.641
			c0.039,0.684,0.232,1.207,0.58,1.57s0.781,0.545,1.301,0.545c0.387,0,0.717-0.102,0.99-0.305S232.148,79.862,232.309,79.417z
			 M228.846,77.712h3.475c-0.047-0.523-0.18-0.916-0.398-1.178c-0.336-0.406-0.771-0.609-1.307-0.609
			c-0.484,0-0.893,0.162-1.223,0.486S228.881,77.169,228.846,77.712z"/>
		<path fill="#FFFFFF" d="M234.723,81.421v-6.223h0.949v0.885c0.457-0.684,1.117-1.025,1.98-1.025c0.375,0,0.719,0.067,1.033,0.202
			s0.551,0.312,0.707,0.53s0.266,0.479,0.328,0.779c0.039,0.195,0.059,0.537,0.059,1.025v3.826h-1.055v-3.785
			c0-0.43-0.041-0.751-0.123-0.964s-0.229-0.383-0.438-0.51s-0.453-0.19-0.734-0.19c-0.449,0-0.838,0.143-1.164,0.428
			s-0.488,0.826-0.488,1.623v3.398H234.723z"/>
		<path fill="#FFFFFF" d="M251.336,79.417l1.09,0.135c-0.172,0.637-0.49,1.131-0.955,1.482s-1.059,0.527-1.781,0.527
			c-0.91,0-1.631-0.28-2.164-0.841s-0.801-1.347-0.801-2.358c0-1.047,0.27-1.859,0.809-2.438s1.238-0.867,2.098-0.867
			c0.832,0,1.512,0.283,2.039,0.85s0.791,1.363,0.791,2.391c0,0.062-0.002,0.156-0.006,0.281h-4.641
			c0.039,0.684,0.232,1.207,0.58,1.57s0.781,0.545,1.301,0.545c0.387,0,0.717-0.102,0.99-0.305S251.176,79.862,251.336,79.417z
			 M247.873,77.712h3.475c-0.047-0.523-0.18-0.916-0.398-1.178c-0.336-0.406-0.771-0.609-1.307-0.609
			c-0.484,0-0.891,0.162-1.221,0.486S247.908,77.169,247.873,77.712z"/>
		<path fill="#FFFFFF" d="M253.727,81.421v-8.59h1.055v8.59H253.727z"/>
		<path fill="#FFFFFF" d="M262.086,81.421v-6.223h0.949v0.943c0.242-0.441,0.465-0.732,0.67-0.873s0.432-0.211,0.678-0.211
			c0.355,0,0.717,0.113,1.084,0.34l-0.363,0.979c-0.258-0.152-0.516-0.229-0.773-0.229c-0.23,0-0.438,0.069-0.621,0.208
			s-0.314,0.331-0.393,0.577c-0.117,0.375-0.176,0.785-0.176,1.23v3.258H262.086z"/>
		<path fill="#FFFFFF" d="M270.354,79.417l1.09,0.135c-0.172,0.637-0.49,1.131-0.955,1.482s-1.059,0.527-1.781,0.527
			c-0.91,0-1.633-0.28-2.166-0.841s-0.799-1.347-0.799-2.358c0-1.047,0.27-1.859,0.809-2.438s1.238-0.867,2.098-0.867
			c0.832,0,1.512,0.283,2.039,0.85s0.791,1.363,0.791,2.391c0,0.062-0.002,0.156-0.006,0.281h-4.641
			c0.039,0.684,0.232,1.207,0.58,1.57s0.781,0.545,1.301,0.545c0.387,0,0.717-0.102,0.99-0.305S270.193,79.862,270.354,79.417z
			 M266.891,77.712h3.475c-0.047-0.523-0.18-0.916-0.398-1.178c-0.336-0.406-0.771-0.609-1.307-0.609
			c-0.484,0-0.893,0.162-1.223,0.486S266.926,77.169,266.891,77.712z"/>
		<path fill="#FFFFFF" d="M276.828,79.142l1.037,0.135c-0.113,0.715-0.404,1.274-0.871,1.679s-1.039,0.606-1.719,0.606
			c-0.852,0-1.537-0.278-2.055-0.835s-0.775-1.354-0.775-2.394c0-0.672,0.111-1.26,0.334-1.764s0.561-0.882,1.016-1.134
			s0.951-0.378,1.486-0.378c0.676,0,1.229,0.171,1.658,0.513s0.705,0.827,0.826,1.456l-1.025,0.158
			c-0.098-0.418-0.271-0.732-0.52-0.943s-0.547-0.316-0.898-0.316c-0.531,0-0.963,0.19-1.295,0.571s-0.498,0.983-0.498,1.808
			c0,0.836,0.16,1.443,0.48,1.822s0.738,0.568,1.254,0.568c0.414,0,0.76-0.127,1.037-0.381S276.754,79.669,276.828,79.142z"/>
		<path fill="#FFFFFF" d="M282.846,81.421v-0.914c-0.484,0.703-1.143,1.055-1.975,1.055c-0.367,0-0.711-0.07-1.029-0.211
			s-0.555-0.317-0.709-0.53s-0.262-0.474-0.324-0.782c-0.043-0.207-0.064-0.535-0.064-0.984v-3.855h1.055v3.451
			c0,0.551,0.021,0.922,0.064,1.113c0.066,0.277,0.207,0.495,0.422,0.653s0.48,0.237,0.797,0.237s0.613-0.081,0.891-0.243
			s0.473-0.383,0.588-0.662s0.174-0.685,0.174-1.216v-3.334h1.055v6.223H282.846z"/>
		<path fill="#FFFFFF" d="M289.502,80.653c-0.391,0.332-0.768,0.566-1.129,0.703s-0.748,0.205-1.162,0.205
			c-0.684,0-1.209-0.167-1.576-0.501s-0.551-0.761-0.551-1.28c0-0.305,0.068-0.583,0.207-0.835s0.32-0.454,0.545-0.606
			s0.479-0.268,0.76-0.346c0.207-0.055,0.52-0.107,0.938-0.158c0.852-0.102,1.479-0.223,1.881-0.363
			c0.004-0.145,0.006-0.236,0.006-0.275c0-0.43-0.1-0.732-0.299-0.908c-0.27-0.238-0.67-0.357-1.201-0.357
			c-0.496,0-0.863,0.087-1.1,0.261s-0.41,0.481-0.523,0.923l-1.031-0.141c0.094-0.441,0.248-0.798,0.463-1.069
			s0.525-0.48,0.932-0.627s0.877-0.22,1.412-0.22c0.531,0,0.963,0.062,1.295,0.188s0.576,0.282,0.732,0.472s0.266,0.429,0.328,0.718
			c0.035,0.18,0.053,0.504,0.053,0.973v1.406c0,0.98,0.021,1.601,0.066,1.86s0.135,0.509,0.268,0.747h-1.102
			C289.604,81.202,289.533,80.946,289.502,80.653z M289.414,78.298c-0.383,0.156-0.957,0.289-1.723,0.398
			c-0.434,0.062-0.74,0.133-0.92,0.211s-0.318,0.192-0.416,0.343s-0.146,0.317-0.146,0.501c0,0.281,0.105,0.516,0.318,0.703
			s0.525,0.281,0.936,0.281c0.406,0,0.768-0.089,1.084-0.267s0.549-0.421,0.697-0.729c0.113-0.238,0.17-0.59,0.17-1.055V78.298z"/>
		<path fill="#FFFFFF" d="M296.152,81.421v-0.785c-0.395,0.617-0.975,0.926-1.74,0.926c-0.496,0-0.953-0.137-1.369-0.41
			s-0.738-0.655-0.967-1.146s-0.342-1.054-0.342-1.69c0-0.621,0.104-1.185,0.311-1.69s0.518-0.894,0.932-1.163
			s0.877-0.404,1.389-0.404c0.375,0,0.709,0.079,1.002,0.237s0.531,0.364,0.715,0.618v-3.082h1.049v8.59H296.152z M292.818,78.315
			c0,0.797,0.168,1.393,0.504,1.787s0.732,0.592,1.189,0.592c0.461,0,0.852-0.188,1.174-0.565s0.484-0.952,0.484-1.726
			c0-0.852-0.164-1.477-0.492-1.875s-0.732-0.598-1.213-0.598c-0.469,0-0.861,0.191-1.176,0.574S292.818,77.491,292.818,78.315z"/>
		<path fill="#FFFFFF" d="M298.777,81.421v-6.223h0.949v0.943c0.242-0.441,0.465-0.732,0.67-0.873s0.432-0.211,0.678-0.211
			c0.355,0,0.717,0.113,1.084,0.34l-0.363,0.979c-0.258-0.152-0.516-0.229-0.773-0.229c-0.23,0-0.438,0.069-0.621,0.208
			s-0.314,0.331-0.393,0.577c-0.117,0.375-0.176,0.785-0.176,1.23v3.258H298.777z"/>
		<path fill="#FFFFFF" d="M302.393,78.31c0-1.152,0.32-2.006,0.961-2.561c0.535-0.461,1.188-0.691,1.957-0.691
			c0.855,0,1.555,0.28,2.098,0.841s0.814,1.335,0.814,2.323c0,0.801-0.121,1.431-0.361,1.89s-0.59,0.815-1.049,1.069
			s-0.959,0.381-1.502,0.381c-0.871,0-1.576-0.279-2.113-0.838S302.393,79.36,302.393,78.31z M303.477,78.31
			c0,0.797,0.174,1.394,0.521,1.79s0.785,0.595,1.312,0.595c0.523,0,0.959-0.199,1.307-0.598s0.521-1.006,0.521-1.822
			c0-0.77-0.176-1.353-0.525-1.749s-0.783-0.595-1.303-0.595c-0.527,0-0.965,0.197-1.312,0.592S303.477,77.513,303.477,78.31z"/>
		<path fill="#FFFFFF" d="M319.178,81.421v-0.785c-0.395,0.617-0.975,0.926-1.74,0.926c-0.496,0-0.953-0.137-1.369-0.41
			s-0.738-0.655-0.967-1.146s-0.342-1.054-0.342-1.69c0-0.621,0.104-1.185,0.311-1.69s0.518-0.894,0.932-1.163
			s0.877-0.404,1.389-0.404c0.375,0,0.709,0.079,1.002,0.237s0.531,0.364,0.715,0.618v-3.082h1.049v8.59H319.178z M315.844,78.315
			c0,0.797,0.168,1.393,0.504,1.787s0.732,0.592,1.189,0.592c0.461,0,0.852-0.188,1.174-0.565s0.484-0.952,0.484-1.726
			c0-0.852-0.164-1.477-0.492-1.875s-0.732-0.598-1.213-0.598c-0.469,0-0.861,0.191-1.176,0.574S315.844,77.491,315.844,78.315z"/>
		<path fill="#FFFFFF" d="M326.074,79.417l1.09,0.135c-0.172,0.637-0.49,1.131-0.955,1.482s-1.059,0.527-1.781,0.527
			c-0.91,0-1.633-0.28-2.166-0.841s-0.799-1.347-0.799-2.358c0-1.047,0.27-1.859,0.809-2.438s1.238-0.867,2.098-0.867
			c0.832,0,1.512,0.283,2.039,0.85s0.791,1.363,0.791,2.391c0,0.062-0.002,0.156-0.006,0.281h-4.641
			c0.039,0.684,0.232,1.207,0.58,1.57s0.781,0.545,1.301,0.545c0.387,0,0.717-0.102,0.99-0.305S325.914,79.862,326.074,79.417z
			 M322.611,77.712h3.475c-0.047-0.523-0.18-0.916-0.398-1.178c-0.336-0.406-0.771-0.609-1.307-0.609
			c-0.484,0-0.893,0.162-1.223,0.486S322.646,77.169,322.611,77.712z"/>
		<path fill="#FFFFFF" d="M334.145,81.421v-8.59h1.055v8.59H334.145z"/>
		<path fill="#FFFFFF" d="M340.895,80.653c-0.391,0.332-0.766,0.566-1.127,0.703s-0.75,0.205-1.164,0.205
			c-0.684,0-1.209-0.167-1.576-0.501s-0.551-0.761-0.551-1.28c0-0.305,0.07-0.583,0.209-0.835s0.32-0.454,0.545-0.606
			s0.477-0.268,0.758-0.346c0.207-0.055,0.52-0.107,0.938-0.158c0.852-0.102,1.479-0.223,1.881-0.363
			c0.004-0.145,0.006-0.236,0.006-0.275c0-0.43-0.1-0.732-0.299-0.908c-0.27-0.238-0.67-0.357-1.201-0.357
			c-0.496,0-0.861,0.087-1.098,0.261s-0.412,0.481-0.525,0.923l-1.031-0.141c0.094-0.441,0.248-0.798,0.463-1.069
			s0.525-0.48,0.932-0.627s0.877-0.22,1.412-0.22c0.531,0,0.963,0.062,1.295,0.188s0.576,0.282,0.732,0.472s0.266,0.429,0.328,0.718
			c0.035,0.18,0.053,0.504,0.053,0.973v1.406c0,0.98,0.023,1.601,0.068,1.86s0.133,0.509,0.266,0.747h-1.102
			C340.996,81.202,340.926,80.946,340.895,80.653z M340.807,78.298c-0.383,0.156-0.957,0.289-1.723,0.398
			c-0.434,0.062-0.74,0.133-0.92,0.211s-0.318,0.192-0.416,0.343s-0.146,0.317-0.146,0.501c0,0.281,0.107,0.516,0.32,0.703
			s0.523,0.281,0.934,0.281c0.406,0,0.768-0.089,1.084-0.267s0.549-0.421,0.697-0.729c0.113-0.238,0.17-0.59,0.17-1.055V78.298z"/>
		<path fill="#FFFFFF" d="M28.848,88.444v-1.213h1.055v1.213H28.848z M28.848,95.821v-6.223h1.055v6.223H28.848z"/>
		<path fill="#FFFFFF" d="M30.951,95.821v-0.855l3.961-4.547c-0.449,0.023-0.846,0.035-1.189,0.035h-2.537v-0.855h5.086v0.697
			l-3.369,3.949l-0.65,0.721c0.473-0.035,0.916-0.053,1.33-0.053h2.877v0.908H30.951z"/>
		<path fill="#FFFFFF" d="M41.475,98.206v-3.047c-0.164,0.23-0.395,0.422-0.689,0.574s-0.607,0.229-0.939,0.229
			c-0.738,0-1.375-0.295-1.908-0.885s-0.799-1.398-0.799-2.426c0-0.625,0.107-1.186,0.324-1.682s0.531-0.872,0.943-1.128
			s0.865-0.384,1.357-0.384c0.77,0,1.375,0.324,1.816,0.973v-0.832h0.949v8.607H41.475z M38.223,92.692
			c0,0.801,0.168,1.401,0.504,1.802s0.738,0.601,1.207,0.601c0.449,0,0.836-0.19,1.16-0.571s0.486-0.96,0.486-1.737
			c0-0.828-0.172-1.451-0.514-1.869s-0.742-0.627-1.203-0.627c-0.457,0-0.846,0.194-1.164,0.583S38.223,91.868,38.223,92.692z"/>
		<path fill="#FFFFFF" d="M48.26,95.821v-0.914c-0.484,0.703-1.143,1.055-1.975,1.055c-0.367,0-0.711-0.07-1.029-0.211
			s-0.555-0.317-0.709-0.53s-0.262-0.474-0.324-0.782c-0.043-0.207-0.064-0.535-0.064-0.984v-3.855h1.055v3.451
			c0,0.551,0.021,0.922,0.064,1.113c0.066,0.277,0.207,0.495,0.422,0.653s0.48,0.237,0.797,0.237s0.613-0.081,0.891-0.243
			s0.473-0.383,0.588-0.662s0.174-0.685,0.174-1.216v-3.334h1.055v6.223H48.26z"/>
		<path fill="#FFFFFF" d="M50.861,88.444v-1.213h1.055v1.213H50.861z M50.861,95.821v-6.223h1.055v6.223H50.861z"/>
		<path fill="#FFFFFF" d="M57.781,93.817l1.09,0.135c-0.172,0.637-0.49,1.131-0.955,1.482s-1.059,0.527-1.781,0.527
			c-0.91,0-1.633-0.28-2.166-0.841s-0.799-1.347-0.799-2.358c0-1.047,0.27-1.859,0.809-2.438s1.238-0.867,2.098-0.867
			c0.832,0,1.512,0.283,2.039,0.85s0.791,1.363,0.791,2.391c0,0.062-0.002,0.156-0.006,0.281H54.26
			c0.039,0.684,0.232,1.207,0.58,1.57s0.781,0.545,1.301,0.545c0.387,0,0.717-0.102,0.99-0.305S57.621,94.263,57.781,93.817z
			 M54.318,92.112h3.475c-0.047-0.523-0.18-0.916-0.398-1.178c-0.336-0.406-0.771-0.609-1.307-0.609
			c-0.484,0-0.893,0.162-1.223,0.486S54.354,91.569,54.318,92.112z"/>
		<path fill="#FFFFFF" d="M60.184,95.821v-6.223h0.949v0.943c0.242-0.441,0.465-0.732,0.67-0.873s0.432-0.211,0.678-0.211
			c0.355,0,0.717,0.113,1.084,0.34l-0.363,0.979c-0.258-0.152-0.516-0.229-0.773-0.229c-0.23,0-0.438,0.069-0.621,0.208
			s-0.314,0.331-0.393,0.577c-0.117,0.375-0.176,0.785-0.176,1.23v3.258H60.184z"/>
		<path fill="#FFFFFF" d="M68.229,95.821v-0.785c-0.395,0.617-0.975,0.926-1.74,0.926c-0.496,0-0.953-0.137-1.369-0.41
			s-0.738-0.655-0.967-1.146s-0.342-1.054-0.342-1.69c0-0.621,0.104-1.185,0.311-1.69s0.518-0.894,0.932-1.163
			s0.877-0.404,1.389-0.404c0.375,0,0.709,0.079,1.002,0.237s0.531,0.364,0.715,0.618v-3.082h1.049v8.59H68.229z M64.895,92.716
			c0,0.797,0.168,1.393,0.504,1.787s0.732,0.592,1.189,0.592c0.461,0,0.852-0.188,1.174-0.565s0.484-0.952,0.484-1.726
			c0-0.852-0.164-1.477-0.492-1.875s-0.732-0.598-1.213-0.598c-0.469,0-0.861,0.191-1.176,0.574S64.895,91.892,64.895,92.716z"/>
		<path fill="#FFFFFF" d="M74.926,95.054c-0.391,0.332-0.768,0.566-1.129,0.703s-0.748,0.205-1.162,0.205
			c-0.684,0-1.209-0.167-1.576-0.501s-0.551-0.761-0.551-1.28c0-0.305,0.068-0.583,0.207-0.835s0.32-0.454,0.545-0.606
			s0.479-0.268,0.76-0.346c0.207-0.055,0.52-0.107,0.938-0.158c0.852-0.102,1.479-0.223,1.881-0.363
			c0.004-0.145,0.006-0.236,0.006-0.275c0-0.43-0.1-0.732-0.299-0.908c-0.27-0.238-0.67-0.357-1.201-0.357
			c-0.496,0-0.863,0.087-1.1,0.261s-0.41,0.481-0.523,0.923l-1.031-0.141c0.094-0.441,0.248-0.798,0.463-1.069
			s0.525-0.48,0.932-0.627s0.877-0.22,1.412-0.22c0.531,0,0.963,0.062,1.295,0.188s0.576,0.282,0.732,0.472s0.266,0.429,0.328,0.718
			c0.035,0.18,0.053,0.504,0.053,0.973v1.406c0,0.98,0.021,1.601,0.066,1.86s0.135,0.509,0.268,0.747h-1.102
			C75.027,95.603,74.957,95.347,74.926,95.054z M74.838,92.698c-0.383,0.156-0.957,0.289-1.723,0.398
			c-0.434,0.062-0.74,0.133-0.92,0.211s-0.318,0.192-0.416,0.343s-0.146,0.317-0.146,0.501c0,0.281,0.105,0.516,0.318,0.703
			s0.525,0.281,0.936,0.281c0.406,0,0.768-0.089,1.084-0.267s0.549-0.421,0.697-0.729c0.113-0.238,0.17-0.59,0.17-1.055V92.698z"/>
		<path fill="#FFFFFF" d="M80.586,98.218l-0.117-0.99c0.23,0.062,0.432,0.094,0.604,0.094c0.234,0,0.422-0.039,0.562-0.117
			s0.256-0.188,0.346-0.328c0.066-0.105,0.174-0.367,0.322-0.785c0.02-0.059,0.051-0.145,0.094-0.258l-2.361-6.234h1.137
			l1.295,3.604c0.168,0.457,0.318,0.938,0.451,1.441c0.121-0.484,0.266-0.957,0.434-1.418l1.33-3.627h1.055l-2.367,6.328
			c-0.254,0.684-0.451,1.154-0.592,1.412c-0.188,0.348-0.402,0.603-0.645,0.765s-0.531,0.243-0.867,0.243
			C81.062,98.347,80.836,98.304,80.586,98.218z"/>
		<path fill="#FFFFFF" d="M93.789,95.054c-0.391,0.332-0.768,0.566-1.129,0.703s-0.748,0.205-1.162,0.205
			c-0.684,0-1.209-0.167-1.576-0.501s-0.551-0.761-0.551-1.28c0-0.305,0.068-0.583,0.207-0.835s0.32-0.454,0.545-0.606
			s0.479-0.268,0.76-0.346c0.207-0.055,0.52-0.107,0.938-0.158c0.852-0.102,1.479-0.223,1.881-0.363
			c0.004-0.145,0.006-0.236,0.006-0.275c0-0.43-0.1-0.732-0.299-0.908c-0.27-0.238-0.67-0.357-1.201-0.357
			c-0.496,0-0.863,0.087-1.1,0.261s-0.41,0.481-0.523,0.923l-1.031-0.141c0.094-0.441,0.248-0.798,0.463-1.069
			s0.525-0.48,0.932-0.627s0.877-0.22,1.412-0.22c0.531,0,0.963,0.062,1.295,0.188s0.576,0.282,0.732,0.472s0.266,0.429,0.328,0.718
			c0.035,0.18,0.053,0.504,0.053,0.973v1.406c0,0.98,0.021,1.601,0.066,1.86s0.135,0.509,0.268,0.747H94
			C93.891,95.603,93.82,95.347,93.789,95.054z M93.701,92.698c-0.383,0.156-0.957,0.289-1.723,0.398
			c-0.434,0.062-0.74,0.133-0.92,0.211S90.74,93.5,90.643,93.65s-0.146,0.317-0.146,0.501c0,0.281,0.105,0.516,0.318,0.703
			s0.525,0.281,0.936,0.281c0.406,0,0.768-0.089,1.084-0.267s0.549-0.421,0.697-0.729c0.113-0.238,0.17-0.59,0.17-1.055V92.698z"/>
		<path fill="#FFFFFF" d="M96.391,95.821v-6.223h0.949v0.943c0.242-0.441,0.465-0.732,0.67-0.873s0.432-0.211,0.678-0.211
			c0.355,0,0.717,0.113,1.084,0.34l-0.363,0.979c-0.258-0.152-0.516-0.229-0.773-0.229c-0.23,0-0.438,0.069-0.621,0.208
			s-0.314,0.331-0.393,0.577c-0.117,0.375-0.176,0.785-0.176,1.23v3.258H96.391z"/>
		<path fill="#FFFFFF" d="M100.387,95.821v-6.223h0.949v0.943c0.242-0.441,0.465-0.732,0.67-0.873s0.432-0.211,0.678-0.211
			c0.355,0,0.717,0.113,1.084,0.34l-0.363,0.979c-0.258-0.152-0.516-0.229-0.773-0.229c-0.23,0-0.438,0.069-0.621,0.208
			s-0.314,0.331-0.393,0.577c-0.117,0.375-0.176,0.785-0.176,1.23v3.258H100.387z"/>
		<path fill="#FFFFFF" d="M108.455,95.054c-0.391,0.332-0.768,0.566-1.129,0.703s-0.748,0.205-1.162,0.205
			c-0.684,0-1.209-0.167-1.576-0.501s-0.551-0.761-0.551-1.28c0-0.305,0.068-0.583,0.207-0.835s0.32-0.454,0.545-0.606
			s0.479-0.268,0.76-0.346c0.207-0.055,0.52-0.107,0.938-0.158c0.852-0.102,1.479-0.223,1.881-0.363
			c0.004-0.145,0.006-0.236,0.006-0.275c0-0.43-0.1-0.732-0.299-0.908c-0.27-0.238-0.67-0.357-1.201-0.357
			c-0.496,0-0.863,0.087-1.1,0.261s-0.41,0.481-0.523,0.923l-1.031-0.141c0.094-0.441,0.248-0.798,0.463-1.069
			s0.525-0.48,0.932-0.627s0.877-0.22,1.412-0.22c0.531,0,0.963,0.062,1.295,0.188s0.576,0.282,0.732,0.472s0.266,0.429,0.328,0.718
			c0.035,0.18,0.053,0.504,0.053,0.973v1.406c0,0.98,0.021,1.601,0.066,1.86s0.135,0.509,0.268,0.747h-1.102
			C108.557,95.603,108.486,95.347,108.455,95.054z M108.367,92.698c-0.383,0.156-0.957,0.289-1.723,0.398
			c-0.434,0.062-0.74,0.133-0.92,0.211s-0.318,0.192-0.416,0.343s-0.146,0.317-0.146,0.501c0,0.281,0.105,0.516,0.318,0.703
			s0.525,0.281,0.936,0.281c0.406,0,0.768-0.089,1.084-0.267s0.549-0.421,0.697-0.729c0.113-0.238,0.17-0.59,0.17-1.055V92.698z"/>
		<path fill="#FFFFFF" d="M110.646,93.964l1.043-0.164c0.059,0.418,0.221,0.738,0.488,0.961s0.643,0.334,1.123,0.334
			c0.484,0,0.844-0.099,1.078-0.296s0.352-0.429,0.352-0.694c0-0.238-0.104-0.426-0.311-0.562c-0.145-0.094-0.504-0.213-1.078-0.357
			c-0.773-0.195-1.311-0.364-1.609-0.507s-0.525-0.34-0.68-0.592s-0.23-0.53-0.23-0.835c0-0.277,0.062-0.534,0.189-0.771
			s0.301-0.433,0.52-0.589c0.164-0.121,0.387-0.224,0.67-0.308s0.588-0.126,0.912-0.126c0.488,0,0.916,0.07,1.285,0.211
			s0.643,0.331,0.818,0.571s0.297,0.562,0.363,0.964l-1.031,0.141c-0.047-0.32-0.184-0.57-0.408-0.75s-0.541-0.27-0.951-0.27
			c-0.484,0-0.83,0.08-1.037,0.24s-0.311,0.348-0.311,0.562c0,0.137,0.043,0.26,0.129,0.369c0.086,0.113,0.221,0.207,0.404,0.281
			c0.105,0.039,0.416,0.129,0.932,0.27c0.746,0.199,1.266,0.362,1.561,0.489s0.527,0.312,0.695,0.554s0.252,0.543,0.252,0.902
			c0,0.352-0.104,0.683-0.309,0.993s-0.5,0.551-0.887,0.721s-0.824,0.255-1.312,0.255c-0.809,0-1.426-0.168-1.85-0.504
			S110.764,94.624,110.646,93.964z"/>
		<path fill="#FFFFFF" d="M119.371,94.878l0.152,0.932c-0.297,0.062-0.562,0.094-0.797,0.094c-0.383,0-0.68-0.061-0.891-0.182
			s-0.359-0.28-0.445-0.478s-0.129-0.612-0.129-1.245v-3.58h-0.773v-0.82h0.773v-1.541l1.049-0.633v2.174h1.061v0.82h-1.061v3.639
			c0,0.301,0.018,0.494,0.055,0.58s0.098,0.154,0.182,0.205s0.205,0.076,0.361,0.076C119.025,94.919,119.18,94.905,119.371,94.878z"
			/>
		<path fill="#FFFFFF" d="M120.391,95.821v-6.223h0.949v0.943c0.242-0.441,0.465-0.732,0.67-0.873s0.432-0.211,0.678-0.211
			c0.355,0,0.717,0.113,1.084,0.34l-0.363,0.979c-0.258-0.152-0.516-0.229-0.773-0.229c-0.23,0-0.438,0.069-0.621,0.208
			s-0.314,0.331-0.393,0.577c-0.117,0.375-0.176,0.785-0.176,1.23v3.258H120.391z"/>
		<path fill="#FFFFFF" d="M128.658,93.817l1.09,0.135c-0.172,0.637-0.49,1.131-0.955,1.482s-1.059,0.527-1.781,0.527
			c-0.91,0-1.633-0.28-2.166-0.841s-0.799-1.347-0.799-2.358c0-1.047,0.27-1.859,0.809-2.438s1.238-0.867,2.098-0.867
			c0.832,0,1.512,0.283,2.039,0.85s0.791,1.363,0.791,2.391c0,0.062-0.002,0.156-0.006,0.281h-4.641
			c0.039,0.684,0.232,1.207,0.58,1.57s0.781,0.545,1.301,0.545c0.387,0,0.717-0.102,0.99-0.305S128.498,94.263,128.658,93.817z
			 M125.195,92.112h3.475c-0.047-0.523-0.18-0.916-0.398-1.178c-0.336-0.406-0.771-0.609-1.307-0.609
			c-0.484,0-0.893,0.162-1.223,0.486S125.23,91.569,125.195,92.112z"/>
		<path fill="#FFFFFF" d="M134.143,95.821v-8.59h1.055v8.59H134.143z"/>
		<path fill="#FFFFFF" d="M140.893,95.054c-0.391,0.332-0.768,0.566-1.129,0.703s-0.748,0.205-1.162,0.205
			c-0.684,0-1.209-0.167-1.576-0.501s-0.551-0.761-0.551-1.28c0-0.305,0.068-0.583,0.207-0.835s0.32-0.454,0.545-0.606
			s0.479-0.268,0.76-0.346c0.207-0.055,0.52-0.107,0.938-0.158c0.852-0.102,1.479-0.223,1.881-0.363
			c0.004-0.145,0.006-0.236,0.006-0.275c0-0.43-0.1-0.732-0.299-0.908c-0.27-0.238-0.67-0.357-1.201-0.357
			c-0.496,0-0.863,0.087-1.1,0.261s-0.41,0.481-0.523,0.923l-1.031-0.141c0.094-0.441,0.248-0.798,0.463-1.069
			s0.525-0.48,0.932-0.627s0.877-0.22,1.412-0.22c0.531,0,0.963,0.062,1.295,0.188s0.576,0.282,0.732,0.472s0.266,0.429,0.328,0.718
			c0.035,0.18,0.053,0.504,0.053,0.973v1.406c0,0.98,0.021,1.601,0.066,1.86s0.135,0.509,0.268,0.747h-1.102
			C140.994,95.603,140.924,95.347,140.893,95.054z M140.805,92.698c-0.383,0.156-0.957,0.289-1.723,0.398
			c-0.434,0.062-0.74,0.133-0.92,0.211s-0.318,0.192-0.416,0.343s-0.146,0.317-0.146,0.501c0,0.281,0.105,0.516,0.318,0.703
			s0.525,0.281,0.936,0.281c0.406,0,0.768-0.089,1.084-0.267s0.549-0.421,0.697-0.729c0.113-0.238,0.17-0.59,0.17-1.055V92.698z"/>
		<path fill="#FFFFFF" d="M150.66,93.542l1.037,0.135c-0.113,0.715-0.402,1.274-0.869,1.679s-1.041,0.606-1.721,0.606
			c-0.852,0-1.535-0.278-2.053-0.835s-0.777-1.354-0.777-2.394c0-0.672,0.111-1.26,0.334-1.764s0.562-0.882,1.018-1.134
			s0.949-0.378,1.484-0.378c0.676,0,1.229,0.171,1.658,0.513s0.705,0.827,0.826,1.456l-1.025,0.158
			c-0.098-0.418-0.27-0.732-0.518-0.943s-0.549-0.316-0.9-0.316c-0.531,0-0.963,0.19-1.295,0.571s-0.498,0.983-0.498,1.808
			c0,0.836,0.16,1.443,0.48,1.822s0.738,0.568,1.254,0.568c0.414,0,0.76-0.127,1.037-0.381S150.586,94.069,150.66,93.542z"/>
		<path fill="#FFFFFF" d="M156.66,95.054c-0.391,0.332-0.766,0.566-1.127,0.703s-0.75,0.205-1.164,0.205
			c-0.684,0-1.209-0.167-1.576-0.501s-0.551-0.761-0.551-1.28c0-0.305,0.07-0.583,0.209-0.835s0.32-0.454,0.545-0.606
			s0.477-0.268,0.758-0.346c0.207-0.055,0.52-0.107,0.938-0.158c0.852-0.102,1.479-0.223,1.881-0.363
			c0.004-0.145,0.006-0.236,0.006-0.275c0-0.43-0.1-0.732-0.299-0.908c-0.27-0.238-0.67-0.357-1.201-0.357
			c-0.496,0-0.861,0.087-1.098,0.261s-0.412,0.481-0.525,0.923l-1.031-0.141c0.094-0.441,0.248-0.798,0.463-1.069
			s0.525-0.48,0.932-0.627s0.877-0.22,1.412-0.22c0.531,0,0.963,0.062,1.295,0.188s0.576,0.282,0.732,0.472s0.266,0.429,0.328,0.718
			c0.035,0.18,0.053,0.504,0.053,0.973v1.406c0,0.98,0.023,1.601,0.068,1.86s0.133,0.509,0.266,0.747h-1.102
			C156.762,95.603,156.691,95.347,156.66,95.054z M156.572,92.698c-0.383,0.156-0.957,0.289-1.723,0.398
			c-0.434,0.062-0.74,0.133-0.92,0.211s-0.318,0.192-0.416,0.343s-0.146,0.317-0.146,0.501c0,0.281,0.107,0.516,0.32,0.703
			s0.523,0.281,0.934,0.281c0.406,0,0.768-0.089,1.084-0.267s0.549-0.421,0.697-0.729c0.113-0.238,0.17-0.59,0.17-1.055V92.698z"/>
		<path fill="#FFFFFF" d="M159.262,95.821v-6.223h0.949v0.943c0.242-0.441,0.467-0.732,0.672-0.873s0.43-0.211,0.676-0.211
			c0.355,0,0.717,0.113,1.084,0.34l-0.363,0.979c-0.258-0.152-0.516-0.229-0.773-0.229c-0.23,0-0.438,0.069-0.621,0.208
			s-0.314,0.331-0.393,0.577c-0.117,0.375-0.176,0.785-0.176,1.23v3.258H159.262z"/>
		<path fill="#FFFFFF" d="M165.572,94.878l0.152,0.932c-0.297,0.062-0.562,0.094-0.797,0.094c-0.383,0-0.68-0.061-0.891-0.182
			s-0.359-0.28-0.445-0.478s-0.129-0.612-0.129-1.245v-3.58h-0.773v-0.82h0.773v-1.541l1.049-0.633v2.174h1.061v0.82h-1.061v3.639
			c0,0.301,0.02,0.494,0.057,0.58s0.098,0.154,0.182,0.205s0.203,0.076,0.359,0.076C165.227,94.919,165.381,94.905,165.572,94.878z"
			/>
		<path fill="#FFFFFF" d="M170.664,95.054c-0.391,0.332-0.766,0.566-1.127,0.703s-0.75,0.205-1.164,0.205
			c-0.684,0-1.209-0.167-1.576-0.501s-0.551-0.761-0.551-1.28c0-0.305,0.07-0.583,0.209-0.835s0.32-0.454,0.545-0.606
			s0.477-0.268,0.758-0.346c0.207-0.055,0.52-0.107,0.938-0.158c0.852-0.102,1.479-0.223,1.881-0.363
			c0.004-0.145,0.006-0.236,0.006-0.275c0-0.43-0.1-0.732-0.299-0.908c-0.27-0.238-0.67-0.357-1.201-0.357
			c-0.496,0-0.861,0.087-1.098,0.261s-0.412,0.481-0.525,0.923l-1.031-0.141c0.094-0.441,0.248-0.798,0.463-1.069
			s0.525-0.48,0.932-0.627s0.877-0.22,1.412-0.22c0.531,0,0.963,0.062,1.295,0.188s0.576,0.282,0.732,0.472s0.266,0.429,0.328,0.718
			c0.035,0.18,0.053,0.504,0.053,0.973v1.406c0,0.98,0.023,1.601,0.068,1.86s0.133,0.509,0.266,0.747h-1.102
			C170.766,95.603,170.695,95.347,170.664,95.054z M170.576,92.698c-0.383,0.156-0.957,0.289-1.723,0.398
			c-0.434,0.062-0.74,0.133-0.92,0.211s-0.318,0.192-0.416,0.343s-0.146,0.317-0.146,0.501c0,0.281,0.107,0.516,0.32,0.703
			s0.523,0.281,0.934,0.281c0.406,0,0.768-0.089,1.084-0.267s0.549-0.421,0.697-0.729c0.113-0.238,0.17-0.59,0.17-1.055V92.698z"/>
		<path fill="#FFFFFF" d="M180.34,98.206v-3.047c-0.164,0.23-0.395,0.422-0.689,0.574s-0.607,0.229-0.939,0.229
			c-0.738,0-1.375-0.295-1.908-0.885s-0.799-1.398-0.799-2.426c0-0.625,0.107-1.186,0.324-1.682s0.531-0.872,0.943-1.128
			s0.865-0.384,1.357-0.384c0.77,0,1.375,0.324,1.816,0.973v-0.832h0.949v8.607H180.34z M177.088,92.692
			c0,0.801,0.168,1.401,0.504,1.802s0.738,0.601,1.207,0.601c0.449,0,0.836-0.19,1.16-0.571s0.486-0.96,0.486-1.737
			c0-0.828-0.172-1.451-0.514-1.869s-0.742-0.627-1.203-0.627c-0.457,0-0.846,0.194-1.164,0.583S177.088,91.868,177.088,92.692z"/>
		<path fill="#FFFFFF" d="M187.125,95.821v-0.914c-0.484,0.703-1.143,1.055-1.975,1.055c-0.367,0-0.711-0.07-1.029-0.211
			s-0.555-0.317-0.709-0.53s-0.262-0.474-0.324-0.782c-0.043-0.207-0.064-0.535-0.064-0.984v-3.855h1.055v3.451
			c0,0.551,0.021,0.922,0.064,1.113c0.066,0.277,0.207,0.495,0.422,0.653s0.48,0.237,0.797,0.237s0.613-0.081,0.891-0.243
			s0.473-0.383,0.588-0.662s0.174-0.685,0.174-1.216v-3.334h1.055v6.223H187.125z"/>
		<path fill="#FFFFFF" d="M193.98,93.817l1.09,0.135c-0.172,0.637-0.49,1.131-0.955,1.482s-1.059,0.527-1.781,0.527
			c-0.91,0-1.633-0.28-2.166-0.841s-0.799-1.347-0.799-2.358c0-1.047,0.27-1.859,0.809-2.438s1.238-0.867,2.098-0.867
			c0.832,0,1.512,0.283,2.039,0.85s0.791,1.363,0.791,2.391c0,0.062-0.002,0.156-0.006,0.281h-4.641
			c0.039,0.684,0.232,1.207,0.58,1.57s0.781,0.545,1.301,0.545c0.387,0,0.717-0.102,0.99-0.305S193.82,94.263,193.98,93.817z
			 M190.518,92.112h3.475c-0.047-0.523-0.18-0.916-0.398-1.178c-0.336-0.406-0.771-0.609-1.307-0.609
			c-0.484,0-0.893,0.162-1.223,0.486S190.553,91.569,190.518,92.112z"/>
		<path fill="#FFFFFF" d="M199.488,95.821v-6.223h0.943v0.873c0.195-0.305,0.455-0.55,0.779-0.735s0.693-0.278,1.107-0.278
			c0.461,0,0.84,0.096,1.135,0.287s0.502,0.459,0.623,0.803c0.492-0.727,1.133-1.09,1.922-1.09c0.617,0,1.092,0.171,1.424,0.513
			s0.498,0.868,0.498,1.579v4.271h-1.049v-3.92c0-0.422-0.033-0.726-0.102-0.911s-0.193-0.335-0.373-0.448s-0.391-0.17-0.633-0.17
			c-0.438,0-0.801,0.146-1.09,0.437s-0.434,0.757-0.434,1.397v3.615h-1.055v-4.043c0-0.469-0.086-0.82-0.258-1.055
			s-0.453-0.352-0.844-0.352c-0.297,0-0.57,0.078-0.822,0.234s-0.436,0.385-0.549,0.686s-0.17,0.734-0.17,1.301v3.229H199.488z"/>
		<path fill="#FFFFFF" d="M213.744,93.817l1.09,0.135c-0.172,0.637-0.49,1.131-0.955,1.482s-1.059,0.527-1.781,0.527
			c-0.91,0-1.631-0.28-2.164-0.841s-0.801-1.347-0.801-2.358c0-1.047,0.27-1.859,0.809-2.438s1.238-0.867,2.098-0.867
			c0.832,0,1.512,0.283,2.039,0.85s0.791,1.363,0.791,2.391c0,0.062-0.002,0.156-0.006,0.281h-4.641
			c0.039,0.684,0.232,1.207,0.58,1.57s0.781,0.545,1.301,0.545c0.387,0,0.717-0.102,0.99-0.305S213.584,94.263,213.744,93.817z
			 M210.281,92.112h3.475c-0.047-0.523-0.18-0.916-0.398-1.178c-0.336-0.406-0.771-0.609-1.307-0.609
			c-0.484,0-0.891,0.162-1.221,0.486S210.316,91.569,210.281,92.112z"/>
		<path fill="#FFFFFF" d="M214.816,98.235l0.199-0.896c0.211,0.055,0.377,0.082,0.498,0.082c0.215,0,0.375-0.071,0.48-0.214
			s0.158-0.499,0.158-1.069v-6.539h1.055v6.562c0,0.766-0.1,1.299-0.299,1.6c-0.254,0.391-0.676,0.586-1.266,0.586
			C215.357,98.347,215.082,98.31,214.816,98.235z M216.152,88.456v-1.225h1.055v1.225H216.152z"/>
		<path fill="#FFFFFF" d="M218.432,92.71c0-1.152,0.32-2.006,0.961-2.561c0.535-0.461,1.188-0.691,1.957-0.691
			c0.855,0,1.555,0.28,2.098,0.841s0.814,1.335,0.814,2.323c0,0.801-0.119,1.431-0.359,1.89s-0.59,0.815-1.049,1.069
			s-0.961,0.381-1.504,0.381c-0.871,0-1.574-0.279-2.111-0.838S218.432,93.761,218.432,92.71z M219.516,92.71
			c0,0.797,0.174,1.394,0.521,1.79s0.785,0.595,1.312,0.595c0.523,0,0.959-0.199,1.307-0.598s0.521-1.006,0.521-1.822
			c0-0.77-0.174-1.353-0.523-1.749s-0.785-0.595-1.305-0.595c-0.527,0-0.965,0.197-1.312,0.592S219.516,91.913,219.516,92.71z"/>
		<path fill="#FFFFFF" d="M225.486,95.821v-6.223h0.949v0.943c0.242-0.441,0.467-0.732,0.672-0.873s0.43-0.211,0.676-0.211
			c0.355,0,0.717,0.113,1.084,0.34l-0.363,0.979c-0.258-0.152-0.516-0.229-0.773-0.229c-0.23,0-0.438,0.069-0.621,0.208
			s-0.314,0.331-0.393,0.577c-0.117,0.375-0.176,0.785-0.176,1.23v3.258H225.486z"/>
		<path fill="#FFFFFF" d="M236.625,95.821v-0.785c-0.395,0.617-0.975,0.926-1.74,0.926c-0.496,0-0.951-0.137-1.367-0.41
			s-0.738-0.655-0.967-1.146s-0.344-1.054-0.344-1.69c0-0.621,0.104-1.185,0.311-1.69s0.518-0.894,0.932-1.163
			s0.877-0.404,1.389-0.404c0.375,0,0.709,0.079,1.002,0.237s0.531,0.364,0.715,0.618v-3.082h1.049v8.59H236.625z M233.291,92.716
			c0,0.797,0.168,1.393,0.504,1.787s0.732,0.592,1.189,0.592c0.461,0,0.854-0.188,1.176-0.565s0.482-0.952,0.482-1.726
			c0-0.852-0.164-1.477-0.492-1.875s-0.732-0.598-1.213-0.598c-0.469,0-0.859,0.191-1.174,0.574S233.291,91.892,233.291,92.716z"/>
		<path fill="#FFFFFF" d="M243.521,93.817l1.09,0.135c-0.172,0.637-0.49,1.131-0.955,1.482s-1.059,0.527-1.781,0.527
			c-0.91,0-1.631-0.28-2.164-0.841s-0.801-1.347-0.801-2.358c0-1.047,0.27-1.859,0.809-2.438s1.238-0.867,2.098-0.867
			c0.832,0,1.512,0.283,2.039,0.85s0.791,1.363,0.791,2.391c0,0.062-0.002,0.156-0.006,0.281H240c0.039,0.684,0.232,1.207,0.58,1.57
			s0.781,0.545,1.301,0.545c0.387,0,0.717-0.102,0.99-0.305S243.361,94.263,243.521,93.817z M240.059,92.112h3.475
			c-0.047-0.523-0.18-0.916-0.398-1.178c-0.336-0.406-0.771-0.609-1.307-0.609c-0.484,0-0.891,0.162-1.221,0.486
			S240.094,91.569,240.059,92.112z"/>
		<path fill="#FFFFFF" d="M245.514,93.964l1.043-0.164c0.059,0.418,0.223,0.738,0.49,0.961s0.641,0.334,1.121,0.334
			c0.484,0,0.844-0.099,1.078-0.296s0.352-0.429,0.352-0.694c0-0.238-0.104-0.426-0.311-0.562c-0.145-0.094-0.504-0.213-1.078-0.357
			c-0.773-0.195-1.309-0.364-1.607-0.507s-0.525-0.34-0.68-0.592s-0.232-0.53-0.232-0.835c0-0.277,0.064-0.534,0.191-0.771
			s0.299-0.433,0.518-0.589c0.164-0.121,0.389-0.224,0.672-0.308s0.586-0.126,0.91-0.126c0.488,0,0.918,0.07,1.287,0.211
			s0.641,0.331,0.816,0.571s0.297,0.562,0.363,0.964l-1.031,0.141c-0.047-0.32-0.182-0.57-0.406-0.75s-0.543-0.27-0.953-0.27
			c-0.484,0-0.83,0.08-1.037,0.24s-0.311,0.348-0.311,0.562c0,0.137,0.043,0.26,0.129,0.369c0.086,0.113,0.221,0.207,0.404,0.281
			c0.105,0.039,0.416,0.129,0.932,0.27c0.746,0.199,1.268,0.362,1.562,0.489s0.525,0.312,0.693,0.554s0.252,0.543,0.252,0.902
			c0,0.352-0.102,0.683-0.307,0.993s-0.502,0.551-0.889,0.721s-0.824,0.255-1.312,0.255c-0.809,0-1.424-0.168-1.848-0.504
			S245.631,94.624,245.514,93.964z"/>
		<path fill="#FFFFFF" d="M255.996,93.542l1.037,0.135c-0.113,0.715-0.402,1.274-0.869,1.679s-1.041,0.606-1.721,0.606
			c-0.852,0-1.535-0.278-2.053-0.835s-0.777-1.354-0.777-2.394c0-0.672,0.111-1.26,0.334-1.764s0.562-0.882,1.018-1.134
			s0.949-0.378,1.484-0.378c0.676,0,1.229,0.171,1.658,0.513s0.705,0.827,0.826,1.456l-1.025,0.158
			c-0.098-0.418-0.27-0.732-0.518-0.943s-0.549-0.316-0.9-0.316c-0.531,0-0.963,0.19-1.295,0.571s-0.498,0.983-0.498,1.808
			c0,0.836,0.16,1.443,0.48,1.822s0.738,0.568,1.254,0.568c0.414,0,0.76-0.127,1.037-0.381S255.922,94.069,255.996,93.542z"/>
		<path fill="#FFFFFF" d="M257.924,95.821v-6.223h0.949v0.943c0.242-0.441,0.467-0.732,0.672-0.873s0.43-0.211,0.676-0.211
			c0.355,0,0.717,0.113,1.084,0.34l-0.363,0.979c-0.258-0.152-0.516-0.229-0.773-0.229c-0.23,0-0.438,0.069-0.621,0.208
			s-0.314,0.331-0.393,0.577c-0.117,0.375-0.176,0.785-0.176,1.23v3.258H257.924z"/>
		<path fill="#FFFFFF" d="M261.938,88.444v-1.213h1.055v1.213H261.938z M261.938,95.821v-6.223h1.055v6.223H261.938z"/>
		<path fill="#FFFFFF" d="M265.57,95.821h-0.979v-8.59h1.055v3.064c0.445-0.559,1.014-0.838,1.705-0.838
			c0.383,0,0.746,0.077,1.088,0.231s0.623,0.371,0.844,0.65s0.393,0.616,0.518,1.011s0.188,0.816,0.188,1.266
			c0,1.066-0.264,1.891-0.791,2.473s-1.16,0.873-1.898,0.873c-0.734,0-1.311-0.307-1.729-0.92V95.821z M265.559,92.663
			c0,0.746,0.102,1.285,0.305,1.617c0.332,0.543,0.781,0.814,1.348,0.814c0.461,0,0.859-0.2,1.195-0.601s0.504-0.997,0.504-1.79
			c0-0.812-0.16-1.412-0.482-1.799s-0.713-0.58-1.17-0.58c-0.461,0-0.859,0.2-1.195,0.601S265.559,91.905,265.559,92.663z"/>
		<path fill="#FFFFFF" d="M275.332,95.054c-0.391,0.332-0.766,0.566-1.127,0.703s-0.75,0.205-1.164,0.205
			c-0.684,0-1.209-0.167-1.576-0.501s-0.551-0.761-0.551-1.28c0-0.305,0.07-0.583,0.209-0.835s0.32-0.454,0.545-0.606
			s0.477-0.268,0.758-0.346c0.207-0.055,0.52-0.107,0.938-0.158c0.852-0.102,1.479-0.223,1.881-0.363
			c0.004-0.145,0.006-0.236,0.006-0.275c0-0.43-0.1-0.732-0.299-0.908c-0.27-0.238-0.67-0.357-1.201-0.357
			c-0.496,0-0.861,0.087-1.098,0.261s-0.412,0.481-0.525,0.923l-1.031-0.141c0.094-0.441,0.248-0.798,0.463-1.069
			s0.525-0.48,0.932-0.627s0.877-0.22,1.412-0.22c0.531,0,0.963,0.062,1.295,0.188s0.576,0.282,0.732,0.472s0.266,0.429,0.328,0.718
			c0.035,0.18,0.053,0.504,0.053,0.973v1.406c0,0.98,0.023,1.601,0.068,1.86s0.133,0.509,0.266,0.747h-1.102
			C275.434,95.603,275.363,95.347,275.332,95.054z M275.244,92.698c-0.383,0.156-0.957,0.289-1.723,0.398
			c-0.434,0.062-0.74,0.133-0.92,0.211s-0.318,0.192-0.416,0.343s-0.146,0.317-0.146,0.501c0,0.281,0.107,0.516,0.32,0.703
			s0.523,0.281,0.934,0.281c0.406,0,0.768-0.089,1.084-0.267s0.549-0.421,0.697-0.729c0.113-0.238,0.17-0.59,0.17-1.055V92.698z"/>
		<path fill="#FFFFFF" d="M281.018,95.821v-8.59h1.055v8.59H281.018z"/>
		<path fill="#FFFFFF" d="M287.768,95.054c-0.391,0.332-0.768,0.566-1.129,0.703s-0.748,0.205-1.162,0.205
			c-0.684,0-1.209-0.167-1.576-0.501s-0.551-0.761-0.551-1.28c0-0.305,0.068-0.583,0.207-0.835s0.32-0.454,0.545-0.606
			s0.479-0.268,0.76-0.346c0.207-0.055,0.52-0.107,0.938-0.158c0.852-0.102,1.479-0.223,1.881-0.363
			c0.004-0.145,0.006-0.236,0.006-0.275c0-0.43-0.1-0.732-0.299-0.908c-0.27-0.238-0.67-0.357-1.201-0.357
			c-0.496,0-0.863,0.087-1.1,0.261s-0.41,0.481-0.523,0.923l-1.031-0.141c0.094-0.441,0.248-0.798,0.463-1.069
			s0.525-0.48,0.932-0.627s0.877-0.22,1.412-0.22c0.531,0,0.963,0.062,1.295,0.188s0.576,0.282,0.732,0.472s0.266,0.429,0.328,0.718
			c0.035,0.18,0.053,0.504,0.053,0.973v1.406c0,0.98,0.021,1.601,0.066,1.86s0.135,0.509,0.268,0.747h-1.102
			C287.869,95.603,287.799,95.347,287.768,95.054z M287.68,92.698c-0.383,0.156-0.957,0.289-1.723,0.398
			c-0.434,0.062-0.74,0.133-0.92,0.211s-0.318,0.192-0.416,0.343s-0.146,0.317-0.146,0.501c0,0.281,0.105,0.516,0.318,0.703
			s0.525,0.281,0.936,0.281c0.406,0,0.768-0.089,1.084-0.267s0.549-0.421,0.697-0.729c0.113-0.238,0.17-0.59,0.17-1.055V92.698z"/>
		<path fill="#FFFFFF" d="M297.535,93.542l1.037,0.135c-0.113,0.715-0.402,1.274-0.869,1.679s-1.041,0.606-1.721,0.606
			c-0.852,0-1.535-0.278-2.053-0.835s-0.777-1.354-0.777-2.394c0-0.672,0.111-1.26,0.334-1.764s0.562-0.882,1.018-1.134
			s0.949-0.378,1.484-0.378c0.676,0,1.229,0.171,1.658,0.513s0.705,0.827,0.826,1.456l-1.025,0.158
			c-0.098-0.418-0.27-0.732-0.518-0.943s-0.549-0.316-0.9-0.316c-0.531,0-0.963,0.19-1.295,0.571s-0.498,0.983-0.498,1.808
			c0,0.836,0.16,1.443,0.48,1.822s0.738,0.568,1.254,0.568c0.414,0,0.76-0.127,1.037-0.381S297.461,94.069,297.535,93.542z"/>
		<path fill="#FFFFFF" d="M303.535,95.054c-0.391,0.332-0.766,0.566-1.127,0.703s-0.75,0.205-1.164,0.205
			c-0.684,0-1.209-0.167-1.576-0.501s-0.551-0.761-0.551-1.28c0-0.305,0.07-0.583,0.209-0.835s0.32-0.454,0.545-0.606
			s0.477-0.268,0.758-0.346c0.207-0.055,0.52-0.107,0.938-0.158c0.852-0.102,1.479-0.223,1.881-0.363
			c0.004-0.145,0.006-0.236,0.006-0.275c0-0.43-0.1-0.732-0.299-0.908c-0.27-0.238-0.67-0.357-1.201-0.357
			c-0.496,0-0.861,0.087-1.098,0.261s-0.412,0.481-0.525,0.923l-1.031-0.141c0.094-0.441,0.248-0.798,0.463-1.069
			s0.525-0.48,0.932-0.627s0.877-0.22,1.412-0.22c0.531,0,0.963,0.062,1.295,0.188s0.576,0.282,0.732,0.472s0.266,0.429,0.328,0.718
			c0.035,0.18,0.053,0.504,0.053,0.973v1.406c0,0.98,0.023,1.601,0.068,1.86s0.133,0.509,0.266,0.747h-1.102
			C303.637,95.603,303.566,95.347,303.535,95.054z M303.447,92.698c-0.383,0.156-0.957,0.289-1.723,0.398
			c-0.434,0.062-0.74,0.133-0.92,0.211s-0.318,0.192-0.416,0.343s-0.146,0.317-0.146,0.501c0,0.281,0.107,0.516,0.32,0.703
			s0.523,0.281,0.934,0.281c0.406,0,0.768-0.089,1.084-0.267s0.549-0.421,0.697-0.729c0.113-0.238,0.17-0.59,0.17-1.055V92.698z"/>
		<path fill="#FFFFFF" d="M308.451,94.878l0.152,0.932c-0.297,0.062-0.562,0.094-0.797,0.094c-0.383,0-0.68-0.061-0.891-0.182
			s-0.359-0.28-0.445-0.478s-0.129-0.612-0.129-1.245v-3.58h-0.773v-0.82h0.773v-1.541l1.049-0.633v2.174h1.061v0.82h-1.061v3.639
			c0,0.301,0.02,0.494,0.057,0.58s0.098,0.154,0.182,0.205s0.203,0.076,0.359,0.076C308.105,94.919,308.26,94.905,308.451,94.878z"
			/>
		<path fill="#FFFFFF" d="M313.742,93.817l1.09,0.135c-0.172,0.637-0.49,1.131-0.955,1.482s-1.059,0.527-1.781,0.527
			c-0.91,0-1.631-0.28-2.164-0.841s-0.801-1.347-0.801-2.358c0-1.047,0.27-1.859,0.809-2.438s1.238-0.867,2.098-0.867
			c0.832,0,1.512,0.283,2.039,0.85s0.791,1.363,0.791,2.391c0,0.062-0.002,0.156-0.006,0.281h-4.641
			c0.039,0.684,0.232,1.207,0.58,1.57s0.781,0.545,1.301,0.545c0.387,0,0.717-0.102,0.99-0.305S313.582,94.263,313.742,93.817z
			 M310.279,92.112h3.475c-0.047-0.523-0.18-0.916-0.398-1.178c-0.336-0.406-0.771-0.609-1.307-0.609
			c-0.484,0-0.891,0.162-1.221,0.486S310.314,91.569,310.279,92.112z"/>
		<path fill="#FFFFFF" d="M315.963,96.337l1.025,0.152c0.043,0.316,0.162,0.547,0.357,0.691c0.262,0.195,0.619,0.293,1.072,0.293
			c0.488,0,0.865-0.098,1.131-0.293s0.445-0.469,0.539-0.82c0.055-0.215,0.08-0.666,0.076-1.354
			c-0.461,0.543-1.035,0.814-1.723,0.814c-0.855,0-1.518-0.309-1.986-0.926s-0.703-1.357-0.703-2.221
			c0-0.594,0.107-1.142,0.322-1.644s0.527-0.89,0.936-1.163s0.887-0.41,1.438-0.41c0.734,0,1.34,0.297,1.816,0.891v-0.75h0.973
			v5.379c0,0.969-0.098,1.655-0.295,2.06s-0.51,0.724-0.938,0.958s-0.955,0.352-1.58,0.352c-0.742,0-1.342-0.167-1.799-0.501
			S315.947,97.009,315.963,96.337z M316.836,92.599c0,0.816,0.162,1.412,0.486,1.787s0.73,0.562,1.219,0.562
			c0.484,0,0.891-0.187,1.219-0.56s0.492-0.958,0.492-1.755c0-0.762-0.168-1.336-0.506-1.723s-0.746-0.58-1.223-0.58
			c-0.469,0-0.867,0.19-1.195,0.571S316.836,91.849,316.836,92.599z"/>
		<path fill="#FFFFFF" d="M322.438,92.71c0-1.152,0.32-2.006,0.961-2.561c0.535-0.461,1.188-0.691,1.957-0.691
			c0.855,0,1.555,0.28,2.098,0.841s0.814,1.335,0.814,2.323c0,0.801-0.119,1.431-0.359,1.89s-0.59,0.815-1.049,1.069
			s-0.961,0.381-1.504,0.381c-0.871,0-1.574-0.279-2.111-0.838S322.438,93.761,322.438,92.71z M323.521,92.71
			c0,0.797,0.174,1.394,0.521,1.79s0.785,0.595,1.312,0.595c0.523,0,0.959-0.199,1.307-0.598s0.521-1.006,0.521-1.822
			c0-0.77-0.174-1.353-0.523-1.749s-0.785-0.595-1.305-0.595c-0.527,0-0.965,0.197-1.312,0.592S323.521,91.913,323.521,92.71z"/>
		<path fill="#FFFFFF" d="M329.492,95.821v-6.223h0.949v0.943c0.242-0.441,0.467-0.732,0.672-0.873s0.43-0.211,0.676-0.211
			c0.355,0,0.717,0.113,1.084,0.34l-0.363,0.979c-0.258-0.152-0.516-0.229-0.773-0.229c-0.23,0-0.438,0.069-0.621,0.208
			s-0.314,0.331-0.393,0.577c-0.117,0.375-0.176,0.785-0.176,1.23v3.258H329.492z"/>
		<path fill="#FFFFFF" d="M333.816,88.825l0.779-1.641h1.383l-1.289,1.641H333.816z M333.869,95.821v-6.223h1.055v6.223H333.869z"/>
		<path fill="#FFFFFF" d="M340.895,95.054c-0.391,0.332-0.766,0.566-1.127,0.703s-0.75,0.205-1.164,0.205
			c-0.684,0-1.209-0.167-1.576-0.501s-0.551-0.761-0.551-1.28c0-0.305,0.07-0.583,0.209-0.835s0.32-0.454,0.545-0.606
			s0.477-0.268,0.758-0.346c0.207-0.055,0.52-0.107,0.938-0.158c0.852-0.102,1.479-0.223,1.881-0.363
			c0.004-0.145,0.006-0.236,0.006-0.275c0-0.43-0.1-0.732-0.299-0.908c-0.27-0.238-0.67-0.357-1.201-0.357
			c-0.496,0-0.861,0.087-1.098,0.261s-0.412,0.481-0.525,0.923l-1.031-0.141c0.094-0.441,0.248-0.798,0.463-1.069
			s0.525-0.48,0.932-0.627s0.877-0.22,1.412-0.22c0.531,0,0.963,0.062,1.295,0.188s0.576,0.282,0.732,0.472s0.266,0.429,0.328,0.718
			c0.035,0.18,0.053,0.504,0.053,0.973v1.406c0,0.98,0.023,1.601,0.068,1.86s0.133,0.509,0.266,0.747h-1.102
			C340.996,95.603,340.926,95.347,340.895,95.054z M340.807,92.698c-0.383,0.156-0.957,0.289-1.723,0.398
			c-0.434,0.062-0.74,0.133-0.92,0.211s-0.318,0.192-0.416,0.343s-0.146,0.317-0.146,0.501c0,0.281,0.107,0.516,0.32,0.703
			s0.523,0.281,0.934,0.281c0.406,0,0.768-0.089,1.084-0.267s0.549-0.421,0.697-0.729c0.113-0.238,0.17-0.59,0.17-1.055V92.698z"/>
		<path fill="#FFFFFF" d="M32.879,110.221v-0.785c-0.395,0.617-0.975,0.926-1.74,0.926c-0.496,0-0.953-0.137-1.369-0.41
			s-0.738-0.655-0.967-1.146s-0.342-1.054-0.342-1.69c0-0.621,0.104-1.185,0.311-1.69s0.518-0.894,0.932-1.163
			s0.877-0.404,1.389-0.404c0.375,0,0.709,0.079,1.002,0.237s0.531,0.364,0.715,0.618v-3.082h1.049v8.59H32.879z M29.545,107.115
			c0,0.797,0.168,1.393,0.504,1.787s0.732,0.592,1.189,0.592c0.461,0,0.852-0.188,1.174-0.565s0.484-0.952,0.484-1.726
			c0-0.852-0.164-1.477-0.492-1.875s-0.732-0.598-1.213-0.598c-0.469,0-0.861,0.191-1.176,0.574S29.545,106.291,29.545,107.115z"/>
		<path fill="#FFFFFF" d="M39.775,108.217l1.09,0.135c-0.172,0.637-0.49,1.131-0.955,1.482s-1.059,0.527-1.781,0.527
			c-0.91,0-1.633-0.28-2.166-0.841s-0.799-1.347-0.799-2.358c0-1.047,0.27-1.859,0.809-2.438s1.238-0.867,2.098-0.867
			c0.832,0,1.512,0.283,2.039,0.85s0.791,1.363,0.791,2.391c0,0.062-0.002,0.156-0.006,0.281h-4.641
			c0.039,0.684,0.232,1.207,0.58,1.57s0.781,0.545,1.301,0.545c0.387,0,0.717-0.102,0.99-0.305S39.615,108.662,39.775,108.217z
			 M36.312,106.512h3.475c-0.047-0.523-0.18-0.916-0.398-1.178c-0.336-0.406-0.771-0.609-1.307-0.609
			c-0.484,0-0.893,0.162-1.223,0.486S36.348,105.969,36.312,106.512z"/>
		<path fill="#FFFFFF" d="M49.561,110.221v-0.785c-0.395,0.617-0.975,0.926-1.74,0.926c-0.496,0-0.953-0.137-1.369-0.41
			s-0.738-0.655-0.967-1.146s-0.342-1.054-0.342-1.69c0-0.621,0.104-1.185,0.311-1.69s0.518-0.894,0.932-1.163
			s0.877-0.404,1.389-0.404c0.375,0,0.709,0.079,1.002,0.237s0.531,0.364,0.715,0.618v-3.082h1.049v8.59H49.561z M46.227,107.115
			c0,0.797,0.168,1.393,0.504,1.787s0.732,0.592,1.189,0.592c0.461,0,0.852-0.188,1.174-0.565s0.484-0.952,0.484-1.726
			c0-0.852-0.164-1.477-0.492-1.875s-0.732-0.598-1.213-0.598c-0.469,0-0.861,0.191-1.176,0.574S46.227,106.291,46.227,107.115z"/>
		<path fill="#FFFFFF" d="M52.203,102.844v-1.213h1.055v1.213H52.203z M52.203,110.221v-6.223h1.055v6.223H52.203z"/>
		<path fill="#FFFFFF" d="M54.441,108.363l1.043-0.164c0.059,0.418,0.221,0.738,0.488,0.961s0.643,0.334,1.123,0.334
			c0.484,0,0.844-0.099,1.078-0.296s0.352-0.429,0.352-0.694c0-0.238-0.104-0.426-0.311-0.562c-0.145-0.094-0.504-0.213-1.078-0.357
			c-0.773-0.195-1.311-0.364-1.609-0.507s-0.525-0.34-0.68-0.592s-0.23-0.53-0.23-0.835c0-0.277,0.062-0.534,0.189-0.771
			s0.301-0.433,0.52-0.589c0.164-0.121,0.387-0.224,0.67-0.308s0.588-0.126,0.912-0.126c0.488,0,0.916,0.07,1.285,0.211
			s0.643,0.331,0.818,0.571s0.297,0.562,0.363,0.964l-1.031,0.141c-0.047-0.32-0.184-0.57-0.408-0.75s-0.541-0.27-0.951-0.27
			c-0.484,0-0.83,0.08-1.037,0.24s-0.311,0.348-0.311,0.562c0,0.137,0.043,0.26,0.129,0.369c0.086,0.113,0.221,0.207,0.404,0.281
			c0.105,0.039,0.416,0.129,0.932,0.27c0.746,0.199,1.266,0.362,1.561,0.489s0.527,0.312,0.695,0.554s0.252,0.543,0.252,0.902
			c0,0.352-0.104,0.683-0.309,0.993s-0.5,0.551-0.887,0.721s-0.824,0.255-1.312,0.255c-0.809,0-1.426-0.168-1.85-0.504
			S54.559,109.023,54.441,108.363z"/>
		<path fill="#FFFFFF" d="M64.924,107.941l1.037,0.135c-0.113,0.715-0.404,1.274-0.871,1.679s-1.039,0.606-1.719,0.606
			c-0.852,0-1.537-0.278-2.055-0.835s-0.775-1.354-0.775-2.394c0-0.672,0.111-1.26,0.334-1.764s0.561-0.882,1.016-1.134
			s0.951-0.378,1.486-0.378c0.676,0,1.229,0.171,1.658,0.513s0.705,0.827,0.826,1.456l-1.025,0.158
			c-0.098-0.418-0.271-0.732-0.52-0.943s-0.547-0.316-0.898-0.316c-0.531,0-0.963,0.19-1.295,0.571s-0.498,0.983-0.498,1.808
			c0,0.836,0.16,1.443,0.48,1.822s0.738,0.568,1.254,0.568c0.414,0,0.76-0.127,1.037-0.381S64.85,108.469,64.924,107.941z"/>
		<path fill="#FFFFFF" d="M70.924,109.453c-0.391,0.332-0.768,0.566-1.129,0.703s-0.748,0.205-1.162,0.205
			c-0.684,0-1.209-0.167-1.576-0.501s-0.551-0.761-0.551-1.28c0-0.305,0.068-0.583,0.207-0.835s0.32-0.454,0.545-0.606
			s0.479-0.268,0.76-0.346c0.207-0.055,0.52-0.107,0.938-0.158c0.852-0.102,1.479-0.223,1.881-0.363
			c0.004-0.145,0.006-0.236,0.006-0.275c0-0.43-0.1-0.732-0.299-0.908c-0.27-0.238-0.67-0.357-1.201-0.357
			c-0.496,0-0.863,0.087-1.1,0.261s-0.41,0.481-0.523,0.923l-1.031-0.141c0.094-0.441,0.248-0.798,0.463-1.069
			s0.525-0.48,0.932-0.627s0.877-0.22,1.412-0.22c0.531,0,0.963,0.062,1.295,0.188s0.576,0.282,0.732,0.472s0.266,0.429,0.328,0.718
			c0.035,0.18,0.053,0.504,0.053,0.973v1.406c0,0.98,0.021,1.601,0.066,1.86s0.135,0.509,0.268,0.747h-1.102
			C71.025,110.002,70.955,109.746,70.924,109.453z M70.836,107.098c-0.383,0.156-0.957,0.289-1.723,0.398
			c-0.434,0.062-0.74,0.133-0.92,0.211s-0.318,0.192-0.416,0.343s-0.146,0.317-0.146,0.501c0,0.281,0.105,0.516,0.318,0.703
			s0.525,0.281,0.936,0.281c0.406,0,0.768-0.089,1.084-0.267s0.549-0.421,0.697-0.729c0.113-0.238,0.17-0.59,0.17-1.055V107.098z"/>
		<path fill="#FFFFFF" d="M73.537,112.605v-8.607h0.961v0.809c0.227-0.316,0.482-0.554,0.768-0.712s0.631-0.237,1.037-0.237
			c0.531,0,1,0.137,1.406,0.41s0.713,0.659,0.92,1.157s0.311,1.044,0.311,1.638c0,0.637-0.115,1.21-0.344,1.72
			s-0.561,0.9-0.996,1.172s-0.893,0.407-1.373,0.407c-0.352,0-0.668-0.074-0.947-0.223s-0.508-0.336-0.688-0.562v3.029H73.537z
			 M74.492,107.145c0,0.801,0.162,1.393,0.486,1.775s0.717,0.574,1.178,0.574c0.469,0,0.869-0.198,1.203-0.595
			s0.502-1.011,0.502-1.843c0-0.793-0.164-1.387-0.49-1.781s-0.715-0.592-1.168-0.592c-0.449,0-0.848,0.21-1.193,0.63
			S74.492,106.344,74.492,107.145z"/>
		<path fill="#FFFFFF" d="M84.271,109.453c-0.391,0.332-0.768,0.566-1.129,0.703s-0.748,0.205-1.162,0.205
			c-0.684,0-1.209-0.167-1.576-0.501s-0.551-0.761-0.551-1.28c0-0.305,0.068-0.583,0.207-0.835s0.32-0.454,0.545-0.606
			s0.479-0.268,0.76-0.346c0.207-0.055,0.52-0.107,0.938-0.158c0.852-0.102,1.479-0.223,1.881-0.363
			c0.004-0.145,0.006-0.236,0.006-0.275c0-0.43-0.1-0.732-0.299-0.908c-0.27-0.238-0.67-0.357-1.201-0.357
			c-0.496,0-0.863,0.087-1.1,0.261s-0.41,0.481-0.523,0.923l-1.031-0.141c0.094-0.441,0.248-0.798,0.463-1.069
			s0.525-0.48,0.932-0.627s0.877-0.22,1.412-0.22c0.531,0,0.963,0.062,1.295,0.188s0.576,0.282,0.732,0.472s0.266,0.429,0.328,0.718
			c0.035,0.18,0.053,0.504,0.053,0.973v1.406c0,0.98,0.021,1.601,0.066,1.86s0.135,0.509,0.268,0.747h-1.102
			C84.373,110.002,84.303,109.746,84.271,109.453z M84.184,107.098c-0.383,0.156-0.957,0.289-1.723,0.398
			c-0.434,0.062-0.74,0.133-0.92,0.211s-0.318,0.192-0.416,0.343s-0.146,0.317-0.146,0.501c0,0.281,0.105,0.516,0.318,0.703
			s0.525,0.281,0.936,0.281c0.406,0,0.768-0.089,1.084-0.267s0.549-0.421,0.697-0.729c0.113-0.238,0.17-0.59,0.17-1.055V107.098z"/>
		<path fill="#FFFFFF" d="M90.945,107.941l1.037,0.135c-0.113,0.715-0.404,1.274-0.871,1.679s-1.039,0.606-1.719,0.606
			c-0.852,0-1.537-0.278-2.055-0.835s-0.775-1.354-0.775-2.394c0-0.672,0.111-1.26,0.334-1.764s0.561-0.882,1.016-1.134
			s0.951-0.378,1.486-0.378c0.676,0,1.229,0.171,1.658,0.513s0.705,0.827,0.826,1.456l-1.025,0.158
			c-0.098-0.418-0.271-0.732-0.52-0.943s-0.547-0.316-0.898-0.316c-0.531,0-0.963,0.19-1.295,0.571s-0.498,0.983-0.498,1.808
			c0,0.836,0.16,1.443,0.48,1.822s0.738,0.568,1.254,0.568c0.414,0,0.76-0.127,1.037-0.381S90.871,108.469,90.945,107.941z"/>
		<path fill="#FFFFFF" d="M92.891,102.844v-1.213h1.055v1.213H92.891z M92.891,110.221v-6.223h1.055v6.223H92.891z"/>
		<path fill="#FFFFFF" d="M99.588,110.221v-0.785c-0.395,0.617-0.975,0.926-1.74,0.926c-0.496,0-0.953-0.137-1.369-0.41
			s-0.738-0.655-0.967-1.146s-0.342-1.054-0.342-1.69c0-0.621,0.104-1.185,0.311-1.69s0.518-0.894,0.932-1.163
			s0.877-0.404,1.389-0.404c0.375,0,0.709,0.079,1.002,0.237s0.531,0.364,0.715,0.618v-3.082h1.049v8.59H99.588z M96.254,107.115
			c0,0.797,0.168,1.393,0.504,1.787s0.732,0.592,1.189,0.592c0.461,0,0.852-0.188,1.174-0.565s0.484-0.952,0.484-1.726
			c0-0.852-0.164-1.477-0.492-1.875s-0.732-0.598-1.213-0.598c-0.469,0-0.861,0.191-1.176,0.574S96.254,106.291,96.254,107.115z"/>
		<path fill="#FFFFFF" d="M106.285,109.453c-0.391,0.332-0.768,0.566-1.129,0.703s-0.748,0.205-1.162,0.205
			c-0.684,0-1.209-0.167-1.576-0.501s-0.551-0.761-0.551-1.28c0-0.305,0.068-0.583,0.207-0.835s0.32-0.454,0.545-0.606
			s0.479-0.268,0.76-0.346c0.207-0.055,0.52-0.107,0.938-0.158c0.852-0.102,1.479-0.223,1.881-0.363
			c0.004-0.145,0.006-0.236,0.006-0.275c0-0.43-0.1-0.732-0.299-0.908c-0.27-0.238-0.67-0.357-1.201-0.357
			c-0.496,0-0.863,0.087-1.1,0.261s-0.41,0.481-0.523,0.923l-1.031-0.141c0.094-0.441,0.248-0.798,0.463-1.069
			s0.525-0.48,0.932-0.627s0.877-0.22,1.412-0.22c0.531,0,0.963,0.062,1.295,0.188s0.576,0.282,0.732,0.472s0.266,0.429,0.328,0.718
			c0.035,0.18,0.053,0.504,0.053,0.973v1.406c0,0.98,0.021,1.601,0.066,1.86s0.135,0.509,0.268,0.747h-1.102
			C106.387,110.002,106.316,109.746,106.285,109.453z M106.197,107.098c-0.383,0.156-0.957,0.289-1.723,0.398
			c-0.434,0.062-0.74,0.133-0.92,0.211s-0.318,0.192-0.416,0.343s-0.146,0.317-0.146,0.501c0,0.281,0.105,0.516,0.318,0.703
			s0.525,0.281,0.936,0.281c0.406,0,0.768-0.089,1.084-0.267s0.549-0.421,0.697-0.729c0.113-0.238,0.17-0.59,0.17-1.055V107.098z"/>
		<path fill="#FFFFFF" d="M112.936,110.221v-0.785c-0.395,0.617-0.975,0.926-1.74,0.926c-0.496,0-0.953-0.137-1.369-0.41
			s-0.738-0.655-0.967-1.146s-0.342-1.054-0.342-1.69c0-0.621,0.104-1.185,0.311-1.69s0.518-0.894,0.932-1.163
			s0.877-0.404,1.389-0.404c0.375,0,0.709,0.079,1.002,0.237s0.531,0.364,0.715,0.618v-3.082h1.049v8.59H112.936z M109.602,107.115
			c0,0.797,0.168,1.393,0.504,1.787s0.732,0.592,1.189,0.592c0.461,0,0.852-0.188,1.174-0.565s0.484-0.952,0.484-1.726
			c0-0.852-0.164-1.477-0.492-1.875s-0.732-0.598-1.213-0.598c-0.469,0-0.861,0.191-1.176,0.574S109.602,106.291,109.602,107.115z"
			/>
		<path fill="#FFFFFF" d="M122.967,109.453c-0.391,0.332-0.768,0.566-1.129,0.703s-0.748,0.205-1.162,0.205
			c-0.684,0-1.209-0.167-1.576-0.501s-0.551-0.761-0.551-1.28c0-0.305,0.068-0.583,0.207-0.835s0.32-0.454,0.545-0.606
			s0.479-0.268,0.76-0.346c0.207-0.055,0.52-0.107,0.938-0.158c0.852-0.102,1.479-0.223,1.881-0.363
			c0.004-0.145,0.006-0.236,0.006-0.275c0-0.43-0.1-0.732-0.299-0.908c-0.27-0.238-0.67-0.357-1.201-0.357
			c-0.496,0-0.863,0.087-1.1,0.261s-0.41,0.481-0.523,0.923l-1.031-0.141c0.094-0.441,0.248-0.798,0.463-1.069
			s0.525-0.48,0.932-0.627s0.877-0.22,1.412-0.22c0.531,0,0.963,0.062,1.295,0.188s0.576,0.282,0.732,0.472s0.266,0.429,0.328,0.718
			c0.035,0.18,0.053,0.504,0.053,0.973v1.406c0,0.98,0.021,1.601,0.066,1.86s0.135,0.509,0.268,0.747h-1.102
			C123.068,110.002,122.998,109.746,122.967,109.453z M122.879,107.098c-0.383,0.156-0.957,0.289-1.723,0.398
			c-0.434,0.062-0.74,0.133-0.92,0.211s-0.318,0.192-0.416,0.343s-0.146,0.317-0.146,0.501c0,0.281,0.105,0.516,0.318,0.703
			s0.525,0.281,0.936,0.281c0.406,0,0.768-0.089,1.084-0.267s0.549-0.421,0.697-0.729c0.113-0.238,0.17-0.59,0.17-1.055V107.098z"/>
		<path fill="#FFFFFF" d="M125.557,110.221v-8.59h1.055v8.59H125.557z"/>
		<path fill="#FFFFFF" d="M131.568,110.221v-6.223h0.949v0.943c0.242-0.441,0.465-0.732,0.67-0.873s0.432-0.211,0.678-0.211
			c0.355,0,0.717,0.113,1.084,0.34l-0.363,0.979c-0.258-0.152-0.516-0.229-0.773-0.229c-0.23,0-0.438,0.069-0.621,0.208
			s-0.314,0.331-0.393,0.577c-0.117,0.375-0.176,0.785-0.176,1.23v3.258H131.568z"/>
		<path fill="#FFFFFF" d="M139.836,108.217l1.09,0.135c-0.172,0.637-0.49,1.131-0.955,1.482s-1.059,0.527-1.781,0.527
			c-0.91,0-1.633-0.28-2.166-0.841s-0.799-1.347-0.799-2.358c0-1.047,0.27-1.859,0.809-2.438s1.238-0.867,2.098-0.867
			c0.832,0,1.512,0.283,2.039,0.85s0.791,1.363,0.791,2.391c0,0.062-0.002,0.156-0.006,0.281h-4.641
			c0.039,0.684,0.232,1.207,0.58,1.57s0.781,0.545,1.301,0.545c0.387,0,0.717-0.102,0.99-0.305S139.676,108.662,139.836,108.217z
			 M136.373,106.512h3.475c-0.047-0.523-0.18-0.916-0.398-1.178c-0.336-0.406-0.771-0.609-1.307-0.609
			c-0.484,0-0.893,0.162-1.223,0.486S136.408,105.969,136.373,106.512z"/>
		<path fill="#FFFFFF" d="M146.311,107.941l1.037,0.135c-0.113,0.715-0.404,1.274-0.871,1.679s-1.039,0.606-1.719,0.606
			c-0.852,0-1.537-0.278-2.055-0.835s-0.775-1.354-0.775-2.394c0-0.672,0.111-1.26,0.334-1.764s0.561-0.882,1.016-1.134
			s0.951-0.378,1.486-0.378c0.676,0,1.229,0.171,1.658,0.513s0.705,0.827,0.826,1.456l-1.025,0.158
			c-0.098-0.418-0.271-0.732-0.52-0.943s-0.547-0.316-0.898-0.316c-0.531,0-0.963,0.19-1.295,0.571s-0.498,0.983-0.498,1.808
			c0,0.836,0.16,1.443,0.48,1.822s0.738,0.568,1.254,0.568c0.414,0,0.76-0.127,1.037-0.381S146.236,108.469,146.311,107.941z"/>
		<path fill="#FFFFFF" d="M152.328,110.221v-0.914c-0.484,0.703-1.143,1.055-1.975,1.055c-0.367,0-0.711-0.07-1.029-0.211
			s-0.555-0.317-0.709-0.53s-0.262-0.474-0.324-0.782c-0.043-0.207-0.064-0.535-0.064-0.984v-3.855h1.055v3.451
			c0,0.551,0.021,0.922,0.064,1.113c0.066,0.277,0.207,0.495,0.422,0.653s0.48,0.237,0.797,0.237s0.613-0.081,0.891-0.243
			s0.473-0.383,0.588-0.662s0.174-0.685,0.174-1.216v-3.334h1.055v6.223H152.328z"/>
		<path fill="#FFFFFF" d="M158.984,109.453c-0.391,0.332-0.768,0.566-1.129,0.703s-0.748,0.205-1.162,0.205
			c-0.684,0-1.209-0.167-1.576-0.501s-0.551-0.761-0.551-1.28c0-0.305,0.068-0.583,0.207-0.835s0.32-0.454,0.545-0.606
			s0.479-0.268,0.76-0.346c0.207-0.055,0.52-0.107,0.938-0.158c0.852-0.102,1.479-0.223,1.881-0.363
			c0.004-0.145,0.006-0.236,0.006-0.275c0-0.43-0.1-0.732-0.299-0.908c-0.27-0.238-0.67-0.357-1.201-0.357
			c-0.496,0-0.863,0.087-1.1,0.261s-0.41,0.481-0.523,0.923l-1.031-0.141c0.094-0.441,0.248-0.798,0.463-1.069
			s0.525-0.48,0.932-0.627s0.877-0.22,1.412-0.22c0.531,0,0.963,0.062,1.295,0.188s0.576,0.282,0.732,0.472s0.266,0.429,0.328,0.718
			c0.035,0.18,0.053,0.504,0.053,0.973v1.406c0,0.98,0.021,1.601,0.066,1.86s0.135,0.509,0.268,0.747h-1.102
			C159.086,110.002,159.016,109.746,158.984,109.453z M158.896,107.098c-0.383,0.156-0.957,0.289-1.723,0.398
			c-0.434,0.062-0.74,0.133-0.92,0.211s-0.318,0.192-0.416,0.343s-0.146,0.317-0.146,0.501c0,0.281,0.105,0.516,0.318,0.703
			s0.525,0.281,0.936,0.281c0.406,0,0.768-0.089,1.084-0.267s0.549-0.421,0.697-0.729c0.113-0.238,0.17-0.59,0.17-1.055V107.098z"/>
		<path fill="#FFFFFF" d="M165.635,110.221v-0.785c-0.395,0.617-0.975,0.926-1.74,0.926c-0.496,0-0.953-0.137-1.369-0.41
			s-0.738-0.655-0.967-1.146s-0.342-1.054-0.342-1.69c0-0.621,0.104-1.185,0.311-1.69s0.518-0.894,0.932-1.163
			s0.877-0.404,1.389-0.404c0.375,0,0.709,0.079,1.002,0.237s0.531,0.364,0.715,0.618v-3.082h1.049v8.59H165.635z M162.301,107.115
			c0,0.797,0.168,1.393,0.504,1.787s0.732,0.592,1.189,0.592c0.461,0,0.852-0.188,1.174-0.565s0.484-0.952,0.484-1.726
			c0-0.852-0.164-1.477-0.492-1.875s-0.732-0.598-1.213-0.598c-0.469,0-0.861,0.191-1.176,0.574S162.301,106.291,162.301,107.115z"
			/>
		<path fill="#FFFFFF" d="M168.26,110.221v-6.223h0.949v0.943c0.242-0.441,0.465-0.732,0.67-0.873s0.432-0.211,0.678-0.211
			c0.355,0,0.717,0.113,1.084,0.34l-0.363,0.979c-0.258-0.152-0.516-0.229-0.773-0.229c-0.23,0-0.438,0.069-0.621,0.208
			s-0.314,0.331-0.393,0.577c-0.117,0.375-0.176,0.785-0.176,1.23v3.258H168.26z"/>
		<path fill="#FFFFFF" d="M171.875,107.109c0-1.152,0.32-2.006,0.961-2.561c0.535-0.461,1.188-0.691,1.957-0.691
			c0.855,0,1.555,0.28,2.098,0.841s0.814,1.335,0.814,2.323c0,0.801-0.121,1.431-0.361,1.89s-0.59,0.815-1.049,1.069
			s-0.959,0.381-1.502,0.381c-0.871,0-1.576-0.279-2.113-0.838S171.875,108.16,171.875,107.109z M172.959,107.109
			c0,0.797,0.174,1.394,0.521,1.79s0.785,0.595,1.312,0.595c0.523,0,0.959-0.199,1.307-0.598s0.521-1.006,0.521-1.822
			c0-0.77-0.176-1.353-0.525-1.749s-0.783-0.595-1.303-0.595c-0.527,0-0.965,0.197-1.312,0.592S172.959,106.312,172.959,107.109z"/>
		<path fill="#FFFFFF" d="M184.004,110.221l-2.367-6.223h1.113l1.336,3.727c0.145,0.402,0.277,0.82,0.398,1.254
			c0.094-0.328,0.225-0.723,0.393-1.184l1.383-3.797h1.084l-2.355,6.223H184.004z"/>
		<path fill="#FFFFFF" d="M192.535,108.217l1.09,0.135c-0.172,0.637-0.49,1.131-0.955,1.482s-1.059,0.527-1.781,0.527
			c-0.91,0-1.633-0.28-2.166-0.841s-0.799-1.347-0.799-2.358c0-1.047,0.27-1.859,0.809-2.438s1.238-0.867,2.098-0.867
			c0.832,0,1.512,0.283,2.039,0.85s0.791,1.363,0.791,2.391c0,0.062-0.002,0.156-0.006,0.281h-4.641
			c0.039,0.684,0.232,1.207,0.58,1.57s0.781,0.545,1.301,0.545c0.387,0,0.717-0.102,0.99-0.305S192.375,108.662,192.535,108.217z
			 M189.072,106.512h3.475c-0.047-0.523-0.18-0.916-0.398-1.178c-0.336-0.406-0.771-0.609-1.307-0.609
			c-0.484,0-0.893,0.162-1.223,0.486S189.107,105.969,189.072,106.512z"/>
		<path fill="#FFFFFF" d="M194.938,110.221v-6.223h0.949v0.943c0.242-0.441,0.465-0.732,0.67-0.873s0.432-0.211,0.678-0.211
			c0.355,0,0.717,0.113,1.084,0.34l-0.363,0.979c-0.258-0.152-0.516-0.229-0.773-0.229c-0.23,0-0.438,0.069-0.621,0.208
			s-0.314,0.331-0.393,0.577c-0.117,0.375-0.176,0.785-0.176,1.23v3.258H194.938z"/>
		<path fill="#FFFFFF" d="M202.982,110.221v-0.785c-0.395,0.617-0.975,0.926-1.74,0.926c-0.496,0-0.953-0.137-1.369-0.41
			s-0.738-0.655-0.967-1.146s-0.342-1.054-0.342-1.69c0-0.621,0.104-1.185,0.311-1.69s0.518-0.894,0.932-1.163
			s0.877-0.404,1.389-0.404c0.375,0,0.709,0.079,1.002,0.237s0.531,0.364,0.715,0.618v-3.082h1.049v8.59H202.982z M199.648,107.115
			c0,0.797,0.168,1.393,0.504,1.787s0.732,0.592,1.189,0.592c0.461,0,0.852-0.188,1.174-0.565s0.484-0.952,0.484-1.726
			c0-0.852-0.164-1.477-0.492-1.875s-0.732-0.598-1.213-0.598c-0.469,0-0.861,0.191-1.176,0.574S199.648,106.291,199.648,107.115z"
			/>
		<path fill="#FFFFFF" d="M209.879,108.217l1.09,0.135c-0.172,0.637-0.49,1.131-0.955,1.482s-1.059,0.527-1.781,0.527
			c-0.91,0-1.633-0.28-2.166-0.841s-0.799-1.347-0.799-2.358c0-1.047,0.27-1.859,0.809-2.438s1.238-0.867,2.098-0.867
			c0.832,0,1.512,0.283,2.039,0.85s0.791,1.363,0.791,2.391c0,0.062-0.002,0.156-0.006,0.281h-4.641
			c0.039,0.684,0.232,1.207,0.58,1.57s0.781,0.545,1.301,0.545c0.387,0,0.717-0.102,0.99-0.305S209.719,108.662,209.879,108.217z
			 M206.416,106.512h3.475c-0.047-0.523-0.18-0.916-0.398-1.178c-0.336-0.406-0.771-0.609-1.307-0.609
			c-0.484,0-0.893,0.162-1.223,0.486S206.451,105.969,206.416,106.512z"/>
		<path fill="#FFFFFF" d="M212.592,110.221v-1.201h1.201v1.201H212.592z"/>
	</g>
	<g>
		<g>
			<path fill="#FFFFFF" d="M30.248,36.053h2.575v20.974h-2.575V36.053z"/>
			<path fill="#FFFFFF" d="M44.688,45.409v11.617h-2.347V45.778c0-0.834-0.124-1.414-0.371-1.741
				c-0.248-0.327-0.671-0.491-1.269-0.491c-0.586,0-1.005,0.169-1.26,0.505c-0.254,0.337-0.381,0.913-0.381,1.728v11.248h-2.347
				V42.409h2.193l0.153,0.896c0.317-0.407,0.722-0.718,1.211-0.932c0.489-0.213,1.052-0.319,1.688-0.319
				c0.992,0,1.694,0.248,2.107,0.746S44.688,44.167,44.688,45.409z"/>
			<path fill="#FFFFFF" d="M54.913,45.778v0.825h-2.347v-0.825c0-0.9-0.086-1.497-0.258-1.791c-0.171-0.294-0.486-0.441-0.943-0.441
				c-0.407,0-0.696,0.136-0.868,0.405c-0.172,0.271-0.258,0.728-0.258,1.372v0.583c0,0.313,0.079,0.621,0.238,0.925
				s0.417,0.626,0.772,0.967l2.843,2.815c0.317,0.322,0.562,0.654,0.734,0.995c0.172,0.342,0.258,0.664,0.258,0.967v1.394
				c0,1.262-0.277,2.146-0.83,2.652c-0.554,0.507-1.491,0.761-2.813,0.761c-1.374,0-2.327-0.266-2.861-0.796
				c-0.534-0.531-0.802-1.513-0.802-2.943v-1.252h2.327v1.252c0,0.929,0.093,1.535,0.277,1.819c0.184,0.285,0.512,0.427,0.982,0.427
				c0.482,0,0.826-0.142,1.029-0.427c0.203-0.284,0.306-0.782,0.306-1.493v-0.554c0-0.797-0.389-1.564-1.164-2.304
				c-0.025-0.028-0.044-0.048-0.057-0.058l-2.767-2.786c-0.292-0.294-0.502-0.586-0.629-0.875c-0.128-0.289-0.191-0.609-0.191-0.96
				v-1.052c0-1.204,0.271-2.06,0.812-2.566c0.54-0.508,1.439-0.761,2.699-0.761c1.31,0,2.222,0.265,2.737,0.796
				C54.655,43.381,54.913,44.356,54.913,45.778z"/>
			<path fill="#FFFFFF" d="M60.578,38.47v3.939h1.793v1.479h-1.793v10.863c0,0.408,0.104,0.689,0.314,0.847
				c0.21,0.156,0.588,0.234,1.135,0.234h0.344v1.521c-0.14,0.009-0.283,0.017-0.429,0.021c-0.146,0.005-0.354,0.007-0.62,0.007
				c-1.195,0-2.01-0.216-2.442-0.646c-0.432-0.432-0.648-1.392-0.648-2.88v-9.968h-1.277v-1.479h1.277v-3.229L60.578,38.47z"/>
			<path fill="#FFFFFF" d="M70.23,42.082v1.777h-0.4c-1.005,0-1.717,0.188-2.137,0.562c-0.419,0.374-0.629,1.021-0.629,1.94v10.665
				h-2.347V42.409h2.193l0.153,0.896c0.33-0.398,0.734-0.706,1.211-0.925c0.477-0.218,0.995-0.326,1.555-0.326
				c0.038,0,0.102,0.005,0.19,0.014C70.109,42.077,70.18,42.082,70.23,42.082z"/>
			<path fill="#FFFFFF" d="M71.909,42.409h2.347v11.204c0,0.863,0.124,1.458,0.372,1.785s0.67,0.49,1.269,0.49
				c0.584,0,0.998-0.168,1.239-0.505c0.241-0.336,0.362-0.926,0.362-1.771V42.409h2.385v14.617h-2.193l-0.191-0.896
				c-0.317,0.407-0.712,0.713-1.183,0.917c-0.471,0.203-1.023,0.306-1.659,0.306c-1.005,0-1.714-0.247-2.127-0.739
				c-0.413-0.493-0.62-1.355-0.62-2.588V42.409z"/>
			<path fill="#FFFFFF" d="M90.698,46.22v0.938h-2.461v-1.38c0-0.957-0.085-1.568-0.257-1.834s-0.486-0.398-0.944-0.398
				s-0.776,0.149-0.954,0.448s-0.267,0.894-0.267,1.784v7.864c0,0.909,0.092,1.512,0.276,1.806s0.512,0.44,0.982,0.44
				c0.445,0,0.75-0.135,0.916-0.405c0.165-0.27,0.247-0.884,0.247-1.841v-1.564h2.461v1.138c0,1.611-0.271,2.709-0.811,3.292
				c-0.541,0.583-1.491,0.874-2.852,0.874c-1.349,0-2.293-0.299-2.833-0.896c-0.54-0.598-0.811-1.697-0.811-3.299V46.22
				c0-1.621,0.267-2.721,0.801-3.299s1.481-0.867,2.843-0.867c1.348,0,2.295,0.296,2.842,0.889
				C90.425,43.534,90.698,44.627,90.698,46.22z"/>
			<path fill="#FFFFFF" d="M101.018,46.22v0.938h-2.461v-1.38c0-0.957-0.085-1.568-0.257-1.834s-0.486-0.398-0.944-0.398
				s-0.776,0.149-0.954,0.448s-0.267,0.894-0.267,1.784v7.864c0,0.909,0.092,1.512,0.276,1.806s0.512,0.44,0.982,0.44
				c0.445,0,0.75-0.135,0.916-0.405c0.165-0.27,0.247-0.884,0.247-1.841v-1.564h2.461v1.138c0,1.611-0.271,2.709-0.811,3.292
				c-0.541,0.583-1.491,0.874-2.852,0.874c-1.349,0-2.293-0.299-2.833-0.896c-0.54-0.598-0.811-1.697-0.811-3.299V46.22
				c0-1.621,0.267-2.721,0.801-3.299s1.481-0.867,2.843-0.867c1.348,0,2.295,0.296,2.842,0.889
				C100.744,43.534,101.018,44.627,101.018,46.22z"/>
			<path fill="#FFFFFF" d="M103.994,36.053h2.613v2.218h-2.613V36.053z M104.108,42.409h2.347v14.617h-2.347V42.409z"/>
			<path fill="#FFFFFF" d="M117.977,46.22v6.996c0,1.611-0.293,2.709-0.878,3.292s-1.621,0.874-3.109,0.874
				c-1.475,0-2.508-0.296-3.1-0.889c-0.591-0.593-0.887-1.694-0.887-3.306V46.22c0-1.621,0.289-2.721,0.868-3.299
				c0.578-0.578,1.618-0.867,3.118-0.867c1.476,0,2.509,0.296,3.101,0.889C117.681,43.534,117.977,44.627,117.977,46.22z
				 M115.516,45.778c0-0.862-0.114-1.45-0.343-1.763c-0.229-0.312-0.624-0.47-1.184-0.47c-0.572,0-0.976,0.166-1.211,0.498
				s-0.353,0.91-0.353,1.734v7.864c0,0.872,0.114,1.464,0.343,1.777c0.229,0.312,0.636,0.469,1.221,0.469
				c0.56,0,0.954-0.161,1.184-0.483c0.229-0.322,0.343-0.91,0.343-1.763V45.778z"/>
			<path fill="#FFFFFF" d="M129.46,45.409v11.617h-2.347V45.778c0-0.834-0.124-1.414-0.371-1.741
				c-0.248-0.327-0.671-0.491-1.269-0.491c-0.586,0-1.005,0.169-1.26,0.505c-0.254,0.337-0.381,0.913-0.381,1.728v11.248h-2.347
				V42.409h2.193l0.153,0.896c0.317-0.407,0.722-0.718,1.211-0.932c0.489-0.213,1.052-0.319,1.688-0.319
				c0.992,0,1.694,0.248,2.107,0.746S129.46,44.167,129.46,45.409z"/>
			<path fill="#FFFFFF" d="M140.943,46.22v4.337h-5.551v3.086c0,0.872,0.114,1.464,0.343,1.777c0.229,0.312,0.636,0.469,1.221,0.469
				c0.56,0,0.954-0.161,1.184-0.483c0.229-0.322,0.343-0.91,0.343-1.763v-1.621h2.461v1.194c0,1.611-0.293,2.709-0.878,3.292
				s-1.621,0.874-3.109,0.874c-1.475,0-2.508-0.296-3.1-0.889c-0.591-0.593-0.887-1.694-0.887-3.306V46.22
				c0-1.621,0.289-2.721,0.868-3.299c0.578-0.578,1.618-0.867,3.118-0.867c1.476,0,2.509,0.296,3.101,0.889
				C140.647,43.534,140.943,44.627,140.943,46.22z M138.482,45.778c0-0.862-0.114-1.45-0.343-1.763
				c-0.229-0.312-0.624-0.47-1.184-0.47c-0.572,0-0.976,0.166-1.211,0.498s-0.353,0.91-0.353,1.734v3.3h3.09V45.778z"/>
			<path fill="#FFFFFF" d="M151.092,45.778v0.825h-2.347v-0.825c0-0.9-0.086-1.497-0.258-1.791
				c-0.171-0.294-0.486-0.441-0.943-0.441c-0.407,0-0.696,0.136-0.868,0.405c-0.172,0.271-0.258,0.728-0.258,1.372v0.583
				c0,0.313,0.079,0.621,0.238,0.925s0.417,0.626,0.772,0.967l2.843,2.815c0.317,0.322,0.562,0.654,0.734,0.995
				c0.172,0.342,0.258,0.664,0.258,0.967v1.394c0,1.262-0.277,2.146-0.83,2.652c-0.554,0.507-1.491,0.761-2.813,0.761
				c-1.374,0-2.327-0.266-2.861-0.796c-0.534-0.531-0.802-1.513-0.802-2.943v-1.252h2.327v1.252c0,0.929,0.093,1.535,0.277,1.819
				c0.184,0.285,0.512,0.427,0.982,0.427c0.482,0,0.826-0.142,1.029-0.427c0.203-0.284,0.306-0.782,0.306-1.493v-0.554
				c0-0.797-0.389-1.564-1.164-2.304c-0.025-0.028-0.044-0.048-0.057-0.058l-2.767-2.786c-0.292-0.294-0.502-0.586-0.629-0.875
				c-0.128-0.289-0.191-0.609-0.191-0.96v-1.052c0-1.204,0.271-2.06,0.812-2.566c0.54-0.508,1.439-0.761,2.699-0.761
				c1.31,0,2.222,0.265,2.737,0.796C150.834,43.381,151.092,44.356,151.092,45.778z"/>
		</g>
	</g>
	<g>
		<path fill="#FFFFFF" enable-background="new    " d="M366.534,20.866c-4.158,0-7.529,3.369-7.529,7.526s3.369,7.526,7.529,7.526
			c4.154,0,7.523-3.369,7.523-7.526S370.69,20.866,366.534,20.866z M370.183,31.21c0.23,0.23,0.23,0.603,0,0.833
			s-0.602,0.23-0.832,0l-2.816-2.816l-2.818,2.816c-0.23,0.23-0.604,0.23-0.834,0c-0.227-0.23-0.227-0.603,0-0.833l2.816-2.817
			l-2.816-2.816c-0.23-0.231-0.227-0.603,0.006-0.835c0.225-0.224,0.598-0.229,0.828,0l2.818,2.817l2.816-2.817
			c0.23-0.224,0.602-0.224,0.832,0c0.23,0.232,0.23,0.604,0,0.835l-2.816,2.816L370.183,31.21z"/>
	</g>
</g>
</svg>
