<?xml version="1.0" encoding="utf-8"?>
<!-- Generator: Adobe Illustrator 16.0.0, SVG Export Plug-In . SVG Version: 6.00 Build 0)  -->
<!DOCTYPE svg PUBLIC "-//W3C//DTD SVG 1.1//EN" "http://www.w3.org/Graphics/SVG/1.1/DTD/svg11.dtd">
<svg version="1.1" id="Capa_1" xmlns="http://www.w3.org/2000/svg" xmlns:xlink="http://www.w3.org/1999/xlink" x="0px" y="0px"
	 width="954.482px" height="246.552px" viewBox="0 0 954.482 246.552" enable-background="new 0 0 954.482 246.552"
	 xml:space="preserve">
<g>
	<g>
		
			<rect x="71.106" y="0.375" fill="#0093AF" stroke="#331842" stroke-width="0.75" stroke-miterlimit="10" width="824.752" height="39"/>
		
			<rect x="71.106" y="39.375" fill="none" stroke="#331842" stroke-width="0.75" stroke-miterlimit="10" width="824.752" height="51.205"/>
		
			<rect x="71.106" y="143.767" fill="none" stroke="#331842" stroke-width="0.75" stroke-miterlimit="10" width="824.752" height="51.205"/>
		
			<rect x="71.106" y="194.972" fill="none" stroke="#331842" stroke-width="0.75" stroke-miterlimit="10" width="824.752" height="51.205"/>
		
			<rect x="71.106" y="90.58" fill="none" stroke="#331842" stroke-width="0.75" stroke-miterlimit="10" width="824.752" height="53.187"/>
		
			<line fill="none" stroke="#331842" stroke-width="0.75" stroke-miterlimit="10" x1="483.482" y1="143.767" x2="483.482" y2="246.177"/>
		
			<line fill="none" stroke="#331842" stroke-width="0.75" stroke-miterlimit="10" x1="689.671" y1="39.375" x2="689.671" y2="143.767"/>
		
			<line fill="none" stroke="#331842" stroke-width="0.75" stroke-miterlimit="10" x1="715.444" y1="117.174" x2="715.444" y2="143.767"/>
		
			<line fill="none" stroke="#331842" stroke-width="0.75" stroke-miterlimit="10" x1="741.218" y1="117.174" x2="741.218" y2="143.767"/>
		
			<line fill="none" stroke="#331842" stroke-width="0.75" stroke-miterlimit="10" x1="766.991" y1="117.174" x2="766.991" y2="143.767"/>
		
			<line fill="none" stroke="#331842" stroke-width="0.75" stroke-miterlimit="10" x1="792.765" y1="90.58" x2="792.765" y2="143.767"/>
		
			<line fill="none" stroke="#331842" stroke-width="0.75" stroke-miterlimit="10" x1="818.538" y1="117.174" x2="818.538" y2="143.767"/>
		
			<line fill="none" stroke="#331842" stroke-width="0.75" stroke-miterlimit="10" x1="844.312" y1="90.58" x2="844.312" y2="143.767"/>
		
			<line fill="none" stroke="#331842" stroke-width="0.75" stroke-miterlimit="10" x1="870.085" y1="117.174" x2="870.085" y2="143.767"/>
		<g>
			<g>
				<path fill="#331842" d="M99.851,69.75v1.656h-6.252c0.067-0.626,0.271-1.22,0.609-1.78c0.338-0.561,1.007-1.305,2.006-2.231
					c0.804-0.749,1.297-1.257,1.479-1.523c0.245-0.368,0.368-0.732,0.368-1.092c0-0.397-0.106-0.703-0.32-0.917
					s-0.509-0.321-0.886-0.321c-0.372,0-0.669,0.112-0.889,0.337s-0.347,0.597-0.381,1.117l-1.777-0.178
					c0.105-0.981,0.438-1.687,0.996-2.114c0.559-0.427,1.258-0.641,2.096-0.641c0.918,0,1.64,0.248,2.164,0.742
					c0.524,0.496,0.787,1.111,0.787,1.848c0,0.419-0.075,0.817-0.226,1.196s-0.388,0.775-0.714,1.19
					c-0.216,0.275-0.605,0.671-1.168,1.188c-0.562,0.516-0.919,0.858-1.069,1.027c-0.15,0.17-0.272,0.335-0.365,0.496H99.851z"/>
				<path fill="#331842" d="M101.438,71.406v-1.783h1.783v1.783H101.438z"/>
				<path fill="#331842" d="M109.232,71.406h-1.784v-6.723c-0.651,0.609-1.419,1.061-2.304,1.353v-1.618
					c0.466-0.152,0.972-0.441,1.517-0.867c0.547-0.425,0.921-0.921,1.124-1.488h1.447V71.406z"/>
				<path fill="#331842" d="M112.279,71.406v-1.783h1.783v1.783H112.279z"/>
				<path fill="#331842" d="M119.459,71.406v-9.306h1.879v9.306H119.459z"/>
				<path fill="#331842" d="M123.127,71.406v-9.306h3.016c1.143,0,1.888,0.047,2.234,0.14c0.533,0.14,0.979,0.443,1.34,0.911
					c0.359,0.468,0.539,1.071,0.539,1.812c0,0.572-0.104,1.052-0.311,1.441c-0.208,0.39-0.472,0.695-0.791,0.917
					c-0.319,0.223-0.645,0.369-0.975,0.441c-0.448,0.089-1.098,0.134-1.948,0.134h-1.226v3.51H123.127z M125.006,63.675v2.641h1.029
					c0.74,0,1.235-0.049,1.484-0.146c0.25-0.098,0.446-0.25,0.588-0.457c0.142-0.208,0.213-0.449,0.213-0.725
					c0-0.338-0.1-0.617-0.299-0.838c-0.199-0.22-0.451-0.357-0.756-0.412c-0.224-0.042-0.675-0.063-1.352-0.063H125.006z"/>
				<path fill="#331842" d="M131.322,68.379l1.828-0.178c0.11,0.613,0.333,1.063,0.67,1.352c0.336,0.288,0.79,0.432,1.361,0.432
					c0.605,0,1.062-0.128,1.368-0.384s0.46-0.556,0.46-0.898c0-0.22-0.064-0.407-0.193-0.562s-0.354-0.289-0.677-0.403
					c-0.22-0.076-0.721-0.212-1.504-0.406c-1.007-0.25-1.714-0.557-2.12-0.921c-0.571-0.512-0.856-1.136-0.856-1.872
					c0-0.474,0.134-0.917,0.402-1.33c0.269-0.412,0.656-0.727,1.162-0.942s1.116-0.324,1.831-0.324c1.168,0,2.047,0.257,2.638,0.769
					c0.59,0.512,0.9,1.195,0.93,2.05l-1.879,0.083c-0.08-0.479-0.253-0.822-0.518-1.031c-0.265-0.21-0.661-0.314-1.189-0.314
					c-0.547,0-0.974,0.112-1.283,0.337c-0.198,0.144-0.298,0.336-0.298,0.577c0,0.22,0.093,0.408,0.279,0.565
					c0.237,0.198,0.812,0.406,1.727,0.621c0.914,0.217,1.59,0.439,2.028,0.67c0.438,0.23,0.78,0.546,1.028,0.946
					c0.247,0.399,0.371,0.894,0.371,1.481c0,0.533-0.148,1.033-0.444,1.498c-0.296,0.466-0.715,0.812-1.257,1.038
					s-1.217,0.34-2.024,0.34c-1.177,0-2.08-0.271-2.711-0.815S131.445,69.42,131.322,68.379z"/>
				<path fill="#331842" d="M150.25,71.406h-1.656v-0.99c-0.275,0.385-0.6,0.672-0.975,0.86c-0.374,0.188-0.752,0.282-1.133,0.282
					c-0.774,0-1.438-0.312-1.99-0.937c-0.552-0.624-0.828-1.495-0.828-2.612c0-1.143,0.269-2.011,0.807-2.605
					c0.537-0.595,1.216-0.892,2.037-0.892c0.753,0,1.405,0.313,1.955,0.939v-3.352h1.783V71.406z M145.49,67.89
					c0,0.72,0.099,1.24,0.298,1.562c0.288,0.466,0.689,0.698,1.206,0.698c0.41,0,0.76-0.175,1.047-0.523
					c0.288-0.35,0.432-0.871,0.432-1.565c0-0.773-0.139-1.331-0.418-1.672s-0.638-0.512-1.073-0.512
					c-0.423,0-0.777,0.169-1.063,0.505C145.633,66.719,145.49,67.221,145.49,67.89z"/>
				<path fill="#331842" d="M151.597,67.94c0-0.593,0.146-1.166,0.438-1.72c0.291-0.555,0.705-0.979,1.24-1.27
					c0.535-0.293,1.133-0.438,1.793-0.438c1.021,0,1.856,0.331,2.508,0.993s0.978,1.499,0.978,2.511c0,1.02-0.329,1.865-0.987,2.536
					s-1.486,1.006-2.484,1.006c-0.618,0-1.208-0.14-1.769-0.419s-0.987-0.688-1.278-1.229
					C151.742,69.372,151.597,68.715,151.597,67.94z M153.425,68.035c0,0.669,0.159,1.182,0.476,1.537
					c0.318,0.355,0.709,0.533,1.175,0.533s0.855-0.178,1.171-0.533s0.473-0.872,0.473-1.549c0-0.66-0.157-1.168-0.473-1.523
					s-0.705-0.533-1.171-0.533s-0.856,0.178-1.175,0.533C153.584,66.855,153.425,67.367,153.425,68.035z"/>
				<path fill="#331842" d="M166.082,71.406h-1.783v-3.44c0-0.728-0.038-1.198-0.114-1.412s-0.2-0.38-0.371-0.499
					c-0.172-0.118-0.378-0.178-0.619-0.178c-0.309,0-0.586,0.085-0.831,0.254c-0.246,0.17-0.414,0.395-0.505,0.674
					s-0.137,0.795-0.137,1.549v3.053h-1.784v-6.741h1.657v0.99c0.588-0.762,1.329-1.143,2.222-1.143
					c0.394,0,0.753,0.071,1.079,0.213s0.572,0.322,0.739,0.542c0.167,0.221,0.284,0.471,0.35,0.75s0.098,0.679,0.098,1.199V71.406z"
					/>
				<path fill="#331842" d="M174.073,71.406h-1.656v-0.99c-0.275,0.385-0.6,0.672-0.975,0.86c-0.374,0.188-0.752,0.282-1.133,0.282
					c-0.774,0-1.438-0.312-1.99-0.937c-0.552-0.624-0.828-1.495-0.828-2.612c0-1.143,0.269-2.011,0.807-2.605
					c0.537-0.595,1.216-0.892,2.037-0.892c0.753,0,1.405,0.313,1.955,0.939v-3.352h1.783V71.406z M169.313,67.89
					c0,0.72,0.099,1.24,0.298,1.562c0.288,0.466,0.689,0.698,1.206,0.698c0.41,0,0.76-0.175,1.047-0.523
					c0.288-0.35,0.432-0.871,0.432-1.565c0-0.773-0.139-1.331-0.418-1.672s-0.638-0.512-1.073-0.512
					c-0.423,0-0.777,0.169-1.063,0.505C169.456,66.719,169.313,67.221,169.313,67.89z"/>
				<path fill="#331842" d="M179.735,69.261l1.777,0.298c-0.229,0.652-0.589,1.148-1.082,1.489s-1.11,0.511-1.851,0.511
					c-1.172,0-2.04-0.383-2.603-1.148c-0.444-0.614-0.667-1.389-0.667-2.324c0-1.117,0.293-1.991,0.877-2.624
					s1.322-0.949,2.215-0.949c1.003,0,1.794,0.331,2.374,0.993s0.856,1.677,0.831,3.044h-4.469c0.014,0.529,0.157,0.94,0.432,1.234
					c0.275,0.294,0.618,0.441,1.029,0.441c0.279,0,0.514-0.076,0.704-0.229S179.638,69.6,179.735,69.261z M179.837,67.458
					c-0.013-0.517-0.146-0.909-0.399-1.178s-0.563-0.403-0.928-0.403c-0.389,0-0.711,0.143-0.965,0.426s-0.378,0.669-0.374,1.155
					H179.837z"/>
				<path fill="#331842" d="M186.045,69.482l1.79-0.272c0.076,0.347,0.23,0.61,0.464,0.79c0.232,0.18,0.559,0.27,0.977,0.27
					c0.462,0,0.809-0.084,1.041-0.254c0.157-0.118,0.235-0.276,0.235-0.476c0-0.136-0.042-0.247-0.127-0.337
					c-0.089-0.084-0.288-0.162-0.597-0.234c-1.438-0.317-2.351-0.607-2.736-0.869c-0.533-0.364-0.799-0.87-0.799-1.518
					c0-0.584,0.23-1.075,0.691-1.473s1.177-0.597,2.146-0.597c0.923,0,1.608,0.15,2.057,0.45c0.448,0.301,0.758,0.745,0.927,1.334
					l-1.682,0.311c-0.072-0.263-0.209-0.463-0.41-0.604c-0.201-0.139-0.487-0.209-0.859-0.209c-0.471,0-0.807,0.065-1.01,0.197
					c-0.136,0.093-0.203,0.213-0.203,0.361c0,0.127,0.06,0.234,0.178,0.324c0.161,0.118,0.716,0.285,1.666,0.501
					s1.613,0.48,1.99,0.794c0.372,0.316,0.559,0.759,0.559,1.326c0,0.618-0.258,1.148-0.774,1.594
					c-0.517,0.443-1.28,0.666-2.292,0.666c-0.918,0-1.645-0.187-2.18-0.559S186.21,70.122,186.045,69.482z"/>
				<path fill="#331842" d="M197.808,69.261l1.777,0.298c-0.229,0.652-0.589,1.148-1.082,1.489s-1.11,0.511-1.851,0.511
					c-1.172,0-2.04-0.383-2.603-1.148c-0.444-0.614-0.667-1.389-0.667-2.324c0-1.117,0.293-1.991,0.877-2.624
					s1.322-0.949,2.215-0.949c1.003,0,1.794,0.331,2.374,0.993s0.856,1.677,0.831,3.044h-4.469c0.014,0.529,0.157,0.94,0.432,1.234
					c0.275,0.294,0.618,0.441,1.029,0.441c0.279,0,0.514-0.076,0.704-0.229S197.71,69.6,197.808,69.261z M197.909,67.458
					c-0.013-0.517-0.146-0.909-0.399-1.178s-0.563-0.403-0.928-0.403c-0.389,0-0.711,0.143-0.965,0.426s-0.378,0.669-0.374,1.155
					H197.909z"/>
				<path fill="#331842" d="M206.453,71.406h-1.783v-6.741h1.656v0.958c0.283-0.452,0.538-0.751,0.765-0.895
					s0.483-0.216,0.771-0.216c0.406,0,0.798,0.112,1.175,0.337l-0.553,1.555c-0.301-0.194-0.58-0.292-0.838-0.292
					c-0.25,0-0.461,0.068-0.635,0.206s-0.31,0.387-0.409,0.746s-0.149,1.113-0.149,2.26V71.406z"/>
				<path fill="#331842" d="M213.708,69.261l1.777,0.298c-0.229,0.652-0.589,1.148-1.082,1.489s-1.11,0.511-1.851,0.511
					c-1.172,0-2.04-0.383-2.603-1.148c-0.444-0.614-0.667-1.389-0.667-2.324c0-1.117,0.293-1.991,0.877-2.624
					s1.322-0.949,2.215-0.949c1.003,0,1.794,0.331,2.374,0.993s0.856,1.677,0.831,3.044h-4.469c0.014,0.529,0.157,0.94,0.432,1.234
					c0.275,0.294,0.618,0.441,1.029,0.441c0.279,0,0.514-0.076,0.704-0.229S213.61,69.6,213.708,69.261z M213.81,67.458
					c-0.013-0.517-0.146-0.909-0.399-1.178s-0.563-0.403-0.928-0.403c-0.389,0-0.711,0.143-0.965,0.426s-0.378,0.669-0.374,1.155
					H213.81z"/>
				<path fill="#331842" d="M218.367,66.722l-1.618-0.292c0.182-0.651,0.495-1.134,0.939-1.447s1.104-0.47,1.98-0.47
					c0.796,0,1.388,0.094,1.777,0.282s0.663,0.428,0.822,0.718c0.158,0.29,0.237,0.821,0.237,1.597l-0.019,2.082
					c0,0.592,0.028,1.029,0.086,1.311c0.057,0.281,0.164,0.583,0.32,0.904h-1.765c-0.047-0.118-0.104-0.294-0.172-0.527
					c-0.029-0.105-0.051-0.175-0.062-0.209c-0.305,0.296-0.631,0.519-0.979,0.666c-0.347,0.148-0.717,0.223-1.11,0.223
					c-0.694,0-1.241-0.188-1.641-0.564c-0.4-0.377-0.601-0.854-0.601-1.429c0-0.381,0.092-0.721,0.273-1.019
					c0.182-0.299,0.437-0.527,0.765-0.686c0.328-0.159,0.801-0.298,1.419-0.416c0.834-0.156,1.411-0.303,1.732-0.438V66.83
					c0-0.344-0.084-0.588-0.254-0.733c-0.169-0.146-0.488-0.22-0.958-0.22c-0.317,0-0.565,0.062-0.743,0.188
					S218.478,66.408,218.367,66.722z M220.754,68.169c-0.229,0.076-0.59,0.167-1.085,0.272c-0.495,0.106-0.819,0.21-0.972,0.312
					c-0.232,0.165-0.349,0.374-0.349,0.628c0,0.25,0.093,0.466,0.279,0.648c0.187,0.182,0.423,0.272,0.711,0.272
					c0.321,0,0.628-0.105,0.921-0.317c0.215-0.161,0.357-0.357,0.425-0.59c0.047-0.152,0.069-0.442,0.069-0.87V68.169z"/>
				<path fill="#331842" d="M224.266,71.406v-9.306h1.783v9.306H224.266z"/>
				<path fill="#331842" d="M227.877,63.751v-1.65h1.783v1.65H227.877z M227.877,71.406v-6.741h1.783v6.741H227.877z"/>
				<path fill="#331842" d="M230.771,71.406v-1.391l2.526-2.9c0.415-0.474,0.722-0.811,0.92-1.01
					c-0.207,0.014-0.479,0.021-0.818,0.025l-2.381,0.014v-1.479h5.574v1.263l-2.578,2.971l-0.907,0.984
					c0.495-0.029,0.802-0.045,0.921-0.045h2.761v1.568H230.771z"/>
				<path fill="#331842" d="M239.32,66.722l-1.618-0.292c0.182-0.651,0.495-1.134,0.939-1.447s1.104-0.47,1.98-0.47
					c0.796,0,1.388,0.094,1.777,0.282s0.663,0.428,0.822,0.718c0.158,0.29,0.237,0.821,0.237,1.597l-0.019,2.082
					c0,0.592,0.028,1.029,0.086,1.311c0.057,0.281,0.164,0.583,0.32,0.904h-1.765c-0.047-0.118-0.104-0.294-0.172-0.527
					c-0.029-0.105-0.051-0.175-0.062-0.209c-0.305,0.296-0.631,0.519-0.979,0.666c-0.347,0.148-0.717,0.223-1.11,0.223
					c-0.694,0-1.241-0.188-1.641-0.564c-0.4-0.377-0.601-0.854-0.601-1.429c0-0.381,0.092-0.721,0.273-1.019
					c0.182-0.299,0.437-0.527,0.765-0.686c0.328-0.159,0.801-0.298,1.419-0.416c0.834-0.156,1.411-0.303,1.732-0.438V66.83
					c0-0.344-0.084-0.588-0.254-0.733c-0.169-0.146-0.488-0.22-0.958-0.22c-0.317,0-0.565,0.062-0.743,0.188
					S239.431,66.408,239.32,66.722z M241.707,68.169c-0.229,0.076-0.59,0.167-1.085,0.272c-0.495,0.106-0.819,0.21-0.972,0.312
					c-0.232,0.165-0.349,0.374-0.349,0.628c0,0.25,0.093,0.466,0.279,0.648c0.187,0.182,0.423,0.272,0.711,0.272
					c0.321,0,0.628-0.105,0.921-0.317c0.215-0.161,0.357-0.357,0.425-0.59c0.047-0.152,0.069-0.442,0.069-0.87V68.169z"/>
				<path fill="#331842" d="M248.83,71.406v-9.306h1.783v9.306H248.83z"/>
				<path fill="#331842" d="M253.774,66.722l-1.618-0.292c0.182-0.651,0.495-1.134,0.939-1.447s1.104-0.47,1.98-0.47
					c0.796,0,1.388,0.094,1.777,0.282s0.663,0.428,0.822,0.718c0.158,0.29,0.237,0.821,0.237,1.597l-0.019,2.082
					c0,0.592,0.028,1.029,0.086,1.311c0.057,0.281,0.164,0.583,0.32,0.904h-1.765c-0.047-0.118-0.104-0.294-0.172-0.527
					c-0.029-0.105-0.051-0.175-0.062-0.209c-0.305,0.296-0.631,0.519-0.979,0.666c-0.347,0.148-0.717,0.223-1.11,0.223
					c-0.694,0-1.241-0.188-1.641-0.564c-0.4-0.377-0.601-0.854-0.601-1.429c0-0.381,0.092-0.721,0.273-1.019
					c0.182-0.299,0.437-0.527,0.765-0.686c0.328-0.159,0.801-0.298,1.419-0.416c0.834-0.156,1.411-0.303,1.732-0.438V66.83
					c0-0.344-0.084-0.588-0.254-0.733c-0.169-0.146-0.488-0.22-0.958-0.22c-0.317,0-0.565,0.062-0.743,0.188
					S253.885,66.408,253.774,66.722z M256.161,68.169c-0.229,0.076-0.59,0.167-1.085,0.272c-0.495,0.106-0.819,0.21-0.972,0.312
					c-0.232,0.165-0.349,0.374-0.349,0.628c0,0.25,0.093,0.466,0.279,0.648c0.187,0.182,0.423,0.272,0.711,0.272
					c0.321,0,0.628-0.105,0.921-0.317c0.215-0.161,0.357-0.357,0.425-0.59c0.047-0.152,0.069-0.442,0.069-0.87V68.169z"/>
				<path fill="#331842" d="M269.161,66.658l-1.758,0.317c-0.06-0.352-0.193-0.616-0.403-0.794
					c-0.209-0.178-0.481-0.266-0.815-0.266c-0.444,0-0.799,0.153-1.063,0.46s-0.396,0.819-0.396,1.539
					c0,0.8,0.135,1.364,0.403,1.694s0.629,0.496,1.082,0.496c0.339,0,0.615-0.097,0.832-0.289c0.215-0.192,0.367-0.523,0.457-0.994
					l1.752,0.299c-0.183,0.804-0.531,1.411-1.048,1.822c-0.517,0.41-1.208,0.615-2.075,0.615c-0.986,0-1.772-0.311-2.358-0.934
					c-0.586-0.621-0.88-1.482-0.88-2.583c0-1.113,0.295-1.979,0.883-2.6s1.384-0.93,2.387-0.93c0.821,0,1.474,0.177,1.958,0.53
					S268.95,65.935,269.161,66.658z"/>
				<path fill="#331842" d="M274.417,69.261l1.777,0.298c-0.229,0.652-0.589,1.148-1.082,1.489s-1.11,0.511-1.851,0.511
					c-1.172,0-2.04-0.383-2.603-1.148c-0.444-0.614-0.667-1.389-0.667-2.324c0-1.117,0.293-1.991,0.877-2.624
					s1.322-0.949,2.215-0.949c1.003,0,1.794,0.331,2.374,0.993s0.856,1.677,0.831,3.044h-4.469c0.014,0.529,0.157,0.94,0.432,1.234
					c0.275,0.294,0.618,0.441,1.029,0.441c0.279,0,0.514-0.076,0.704-0.229S274.319,69.6,274.417,69.261z M274.519,67.458
					c-0.013-0.517-0.146-0.909-0.399-1.178s-0.563-0.403-0.928-0.403c-0.389,0-0.711,0.143-0.965,0.426s-0.378,0.669-0.374,1.155
					H274.519z"/>
				<path fill="#331842" d="M279.451,71.406h-1.783v-6.741h1.656v0.958c0.283-0.452,0.538-0.751,0.765-0.895
					s0.483-0.216,0.771-0.216c0.406,0,0.798,0.112,1.175,0.337l-0.553,1.555c-0.301-0.194-0.58-0.292-0.838-0.292
					c-0.25,0-0.461,0.068-0.635,0.206s-0.31,0.387-0.409,0.746s-0.149,1.113-0.149,2.26V71.406z"/>
				<path fill="#331842" d="M285.894,64.665v1.422h-1.219v2.717c0,0.55,0.012,0.871,0.035,0.962s0.076,0.166,0.158,0.225
					c0.083,0.06,0.184,0.09,0.302,0.09c0.165,0,0.404-0.058,0.717-0.172l0.152,1.384c-0.414,0.178-0.884,0.267-1.408,0.267
					c-0.322,0-0.612-0.054-0.87-0.162c-0.258-0.107-0.447-0.247-0.568-0.419c-0.12-0.171-0.204-0.403-0.251-0.694
					c-0.037-0.208-0.057-0.627-0.057-1.258v-2.938h-0.818v-1.422h0.818v-1.339l1.79-1.041v2.38H285.894z"/>
				<path fill="#331842" d="M287.133,63.751v-1.65h1.783v1.65H287.133z M287.133,71.406v-6.741h1.783v6.741H287.133z"/>
				<path fill="#331842" d="M289.963,64.665h0.99v-0.508c0-0.567,0.061-0.99,0.181-1.27c0.121-0.279,0.343-0.507,0.667-0.683
					c0.323-0.176,0.732-0.264,1.229-0.264c0.508,0,1.005,0.076,1.491,0.229l-0.241,1.244c-0.283-0.067-0.557-0.102-0.818-0.102
					c-0.259,0-0.443,0.061-0.556,0.182c-0.112,0.12-0.169,0.352-0.169,0.695v0.476h1.334v1.403h-1.334v5.338h-1.783v-5.338h-0.99
					V64.665z"/>
				<path fill="#331842" d="M295.073,63.751v-1.65h1.783v1.65H295.073z M295.073,71.406v-6.741h1.783v6.741H295.073z"/>
				<path fill="#331842" d="M304.562,66.658l-1.758,0.317c-0.06-0.352-0.193-0.616-0.403-0.794
					c-0.209-0.178-0.481-0.266-0.815-0.266c-0.444,0-0.799,0.153-1.063,0.46s-0.396,0.819-0.396,1.539
					c0,0.8,0.135,1.364,0.403,1.694s0.629,0.496,1.082,0.496c0.339,0,0.615-0.097,0.832-0.289c0.215-0.192,0.367-0.523,0.457-0.994
					l1.752,0.299c-0.183,0.804-0.531,1.411-1.048,1.822c-0.517,0.41-1.208,0.615-2.075,0.615c-0.986,0-1.772-0.311-2.358-0.934
					c-0.586-0.621-0.88-1.482-0.88-2.583c0-1.113,0.295-1.979,0.883-2.6s1.384-0.93,2.387-0.93c0.821,0,1.474,0.177,1.958,0.53
					S304.352,65.935,304.562,66.658z"/>
				<path fill="#331842" d="M307.247,66.722l-1.618-0.292c0.182-0.651,0.495-1.134,0.939-1.447s1.104-0.47,1.98-0.47
					c0.796,0,1.388,0.094,1.777,0.282s0.663,0.428,0.822,0.718c0.158,0.29,0.237,0.821,0.237,1.597l-0.019,2.082
					c0,0.592,0.028,1.029,0.086,1.311c0.057,0.281,0.164,0.583,0.32,0.904h-1.765c-0.047-0.118-0.104-0.294-0.172-0.527
					c-0.029-0.105-0.051-0.175-0.062-0.209c-0.305,0.296-0.631,0.519-0.979,0.666c-0.347,0.148-0.717,0.223-1.11,0.223
					c-0.694,0-1.241-0.188-1.641-0.564c-0.4-0.377-0.601-0.854-0.601-1.429c0-0.381,0.092-0.721,0.273-1.019
					c0.182-0.299,0.437-0.527,0.765-0.686c0.328-0.159,0.801-0.298,1.419-0.416c0.834-0.156,1.411-0.303,1.732-0.438V66.83
					c0-0.344-0.084-0.588-0.254-0.733c-0.169-0.146-0.488-0.22-0.958-0.22c-0.317,0-0.565,0.062-0.743,0.188
					S307.357,66.408,307.247,66.722z M309.634,68.169c-0.229,0.076-0.59,0.167-1.085,0.272c-0.495,0.106-0.819,0.21-0.972,0.312
					c-0.232,0.165-0.349,0.374-0.349,0.628c0,0.25,0.093,0.466,0.279,0.648c0.187,0.182,0.423,0.272,0.711,0.272
					c0.321,0,0.628-0.105,0.921-0.317c0.215-0.161,0.357-0.357,0.425-0.59c0.047-0.152,0.069-0.442,0.069-0.87V68.169z"/>
				<path fill="#331842" d="M319.021,66.658l-1.758,0.317c-0.06-0.352-0.193-0.616-0.403-0.794
					c-0.209-0.178-0.481-0.266-0.815-0.266c-0.444,0-0.799,0.153-1.063,0.46s-0.396,0.819-0.396,1.539
					c0,0.8,0.135,1.364,0.403,1.694s0.629,0.496,1.082,0.496c0.339,0,0.615-0.097,0.832-0.289c0.215-0.192,0.367-0.523,0.457-0.994
					l1.752,0.299c-0.183,0.804-0.531,1.411-1.048,1.822c-0.517,0.41-1.208,0.615-2.075,0.615c-0.986,0-1.772-0.311-2.358-0.934
					c-0.586-0.621-0.88-1.482-0.88-2.583c0-1.113,0.295-1.979,0.883-2.6s1.384-0.93,2.387-0.93c0.821,0,1.474,0.177,1.958,0.53
					S318.811,65.935,319.021,66.658z"/>
				<path fill="#331842" d="M320.375,63.751v-1.65h1.783v1.65H320.375z M320.375,71.406v-6.741h1.783v6.741H320.375z"/>
				<path fill="#331842" d="M323.573,67.94c0-0.593,0.146-1.166,0.438-1.72c0.291-0.555,0.705-0.979,1.24-1.27
					c0.535-0.293,1.133-0.438,1.793-0.438c1.021,0,1.856,0.331,2.508,0.993s0.978,1.499,0.978,2.511c0,1.02-0.329,1.865-0.987,2.536
					s-1.486,1.006-2.484,1.006c-0.618,0-1.208-0.14-1.769-0.419s-0.987-0.688-1.278-1.229
					C323.719,69.372,323.573,68.715,323.573,67.94z M325.401,68.035c0,0.669,0.159,1.182,0.476,1.537
					c0.318,0.355,0.709,0.533,1.175,0.533s0.855-0.178,1.171-0.533s0.473-0.872,0.473-1.549c0-0.66-0.157-1.168-0.473-1.523
					s-0.705-0.533-1.171-0.533s-0.856,0.178-1.175,0.533C325.561,66.855,325.401,67.367,325.401,68.035z M326.15,63.84l0.876-1.898
					h1.999l-1.745,1.898H326.15z"/>
				<path fill="#331842" d="M338.059,71.406h-1.783v-3.44c0-0.728-0.038-1.198-0.114-1.412s-0.2-0.38-0.371-0.499
					c-0.172-0.118-0.378-0.178-0.619-0.178c-0.309,0-0.586,0.085-0.831,0.254c-0.246,0.17-0.414,0.395-0.505,0.674
					s-0.137,0.795-0.137,1.549v3.053h-1.784v-6.741h1.657v0.99c0.588-0.762,1.329-1.143,2.222-1.143
					c0.394,0,0.753,0.071,1.079,0.213s0.572,0.322,0.739,0.542c0.167,0.221,0.284,0.471,0.35,0.75s0.098,0.679,0.098,1.199V71.406z"
					/>
			</g>
		</g>
		<g>
			<g>
				<path fill="#331842" d="M767.907,71.431v1.656h-6.252c0.067-0.626,0.271-1.22,0.609-1.78c0.338-0.561,1.007-1.305,2.006-2.231
					c0.804-0.749,1.297-1.257,1.479-1.523c0.245-0.368,0.368-0.732,0.368-1.092c0-0.397-0.106-0.703-0.32-0.917
					s-0.509-0.321-0.886-0.321c-0.372,0-0.669,0.112-0.889,0.337s-0.347,0.597-0.381,1.117l-1.777-0.178
					c0.105-0.981,0.438-1.687,0.996-2.114c0.559-0.427,1.258-0.641,2.096-0.641c0.918,0,1.64,0.248,2.164,0.742
					c0.524,0.496,0.787,1.111,0.787,1.848c0,0.419-0.075,0.817-0.226,1.196s-0.388,0.775-0.714,1.19
					c-0.216,0.275-0.605,0.671-1.168,1.188c-0.562,0.516-0.919,0.858-1.069,1.027c-0.15,0.17-0.272,0.335-0.365,0.496H767.907z"/>
				<path fill="#331842" d="M769.494,73.087v-1.783h1.783v1.783H769.494z"/>
				<path fill="#331842" d="M778.749,71.431v1.656h-6.252c0.067-0.626,0.271-1.22,0.609-1.78c0.338-0.561,1.007-1.305,2.006-2.231
					c0.804-0.749,1.297-1.257,1.479-1.523c0.245-0.368,0.368-0.732,0.368-1.092c0-0.397-0.106-0.703-0.32-0.917
					s-0.509-0.321-0.886-0.321c-0.372,0-0.669,0.112-0.889,0.337s-0.347,0.597-0.381,1.117l-1.777-0.178
					c0.105-0.981,0.438-1.687,0.996-2.114c0.559-0.427,1.258-0.641,2.096-0.641c0.918,0,1.64,0.248,2.164,0.742
					c0.524,0.496,0.787,1.111,0.787,1.848c0,0.419-0.075,0.817-0.226,1.196s-0.388,0.775-0.714,1.19
					c-0.216,0.275-0.605,0.671-1.168,1.188c-0.562,0.516-0.919,0.858-1.069,1.027c-0.15,0.17-0.272,0.335-0.365,0.496H778.749z"/>
				<path fill="#331842" d="M780.336,73.087v-1.783h1.783v1.783H780.336z"/>
				<path fill="#331842" d="M787.586,73.087v-9.306h6.379v1.574h-4.5v2.202h3.885v1.574h-3.885v3.955H787.586z"/>
				<path fill="#331842" d="M799.404,70.941l1.777,0.298c-0.229,0.652-0.589,1.148-1.082,1.489s-1.11,0.511-1.851,0.511
					c-1.172,0-2.04-0.383-2.603-1.148c-0.444-0.614-0.667-1.389-0.667-2.324c0-1.117,0.293-1.991,0.877-2.624
					s1.322-0.949,2.215-0.949c1.003,0,1.794,0.331,2.374,0.993s0.856,1.677,0.831,3.044h-4.469c0.014,0.529,0.157,0.94,0.432,1.234
					c0.275,0.294,0.618,0.441,1.029,0.441c0.279,0,0.514-0.076,0.704-0.229S799.307,71.28,799.404,70.941z M799.506,69.139
					c-0.013-0.517-0.146-0.909-0.399-1.178s-0.563-0.403-0.928-0.403c-0.389,0-0.711,0.143-0.965,0.426s-0.378,0.669-0.374,1.155
					H799.506z"/>
				<path fill="#331842" d="M808.607,68.339l-1.758,0.317c-0.06-0.352-0.193-0.616-0.403-0.794
					c-0.209-0.178-0.481-0.266-0.815-0.266c-0.444,0-0.799,0.153-1.063,0.46s-0.396,0.819-0.396,1.539
					c0,0.8,0.135,1.364,0.403,1.694s0.629,0.496,1.082,0.496c0.339,0,0.615-0.097,0.832-0.289c0.215-0.192,0.367-0.523,0.457-0.994
					l1.752,0.299c-0.183,0.804-0.531,1.411-1.048,1.822c-0.517,0.41-1.208,0.615-2.075,0.615c-0.986,0-1.772-0.311-2.358-0.934
					c-0.586-0.621-0.88-1.482-0.88-2.583c0-1.113,0.295-1.979,0.883-2.6s1.384-0.93,2.387-0.93c0.821,0,1.474,0.177,1.958,0.53
					S808.396,67.615,808.607,68.339z"/>
				<path fill="#331842" d="M811.738,63.781v3.421c0.575-0.672,1.263-1.009,2.062-1.009c0.41,0,0.781,0.076,1.111,0.229
					s0.578,0.347,0.745,0.584s0.281,0.499,0.343,0.787s0.092,0.734,0.092,1.339v3.955h-1.783v-3.561
					c0-0.707-0.034-1.156-0.102-1.346c-0.067-0.191-0.188-0.342-0.358-0.454c-0.172-0.112-0.387-0.169-0.645-0.169
					c-0.296,0-0.561,0.072-0.794,0.217c-0.232,0.144-0.402,0.36-0.511,0.65c-0.107,0.29-0.161,0.718-0.161,1.285v3.377h-1.784
					v-9.306H811.738z"/>
				<path fill="#331842" d="M819.234,68.402l-1.618-0.292c0.182-0.651,0.495-1.134,0.939-1.447s1.104-0.47,1.98-0.47
					c0.796,0,1.388,0.094,1.777,0.282s0.663,0.428,0.822,0.718c0.158,0.29,0.237,0.821,0.237,1.597l-0.019,2.082
					c0,0.592,0.028,1.029,0.086,1.311c0.057,0.281,0.164,0.583,0.32,0.904h-1.765c-0.047-0.118-0.104-0.294-0.172-0.527
					c-0.029-0.105-0.051-0.175-0.062-0.209c-0.305,0.296-0.631,0.519-0.979,0.666c-0.347,0.148-0.717,0.223-1.11,0.223
					c-0.694,0-1.241-0.188-1.641-0.564c-0.4-0.377-0.601-0.854-0.601-1.429c0-0.381,0.092-0.721,0.273-1.019
					c0.182-0.299,0.437-0.527,0.765-0.686c0.328-0.159,0.801-0.298,1.419-0.416c0.834-0.156,1.411-0.303,1.732-0.438v-0.178
					c0-0.344-0.084-0.588-0.254-0.733c-0.169-0.146-0.488-0.22-0.958-0.22c-0.317,0-0.565,0.062-0.743,0.188
					S819.345,68.089,819.234,68.402z M821.621,69.85c-0.229,0.076-0.59,0.167-1.085,0.272c-0.495,0.106-0.819,0.21-0.972,0.312
					c-0.232,0.165-0.349,0.374-0.349,0.628c0,0.25,0.093,0.466,0.279,0.648c0.187,0.182,0.423,0.272,0.711,0.272
					c0.321,0,0.628-0.105,0.921-0.317c0.215-0.161,0.357-0.357,0.425-0.59c0.047-0.152,0.069-0.442,0.069-0.87V69.85z"/>
			</g>
		</g>
		<g>
			<g>
				<path fill="#331842" d="M99.851,171.009v1.656h-6.252c0.067-0.626,0.271-1.22,0.609-1.78c0.338-0.561,1.007-1.305,2.006-2.231
					c0.804-0.749,1.297-1.257,1.479-1.523c0.245-0.368,0.368-0.732,0.368-1.092c0-0.397-0.106-0.703-0.32-0.917
					s-0.509-0.321-0.886-0.321c-0.372,0-0.669,0.112-0.889,0.337s-0.347,0.597-0.381,1.117l-1.777-0.178
					c0.105-0.981,0.438-1.687,0.996-2.114c0.559-0.427,1.258-0.641,2.096-0.641c0.918,0,1.64,0.248,2.164,0.742
					c0.524,0.496,0.787,1.111,0.787,1.848c0,0.419-0.075,0.817-0.226,1.196s-0.388,0.775-0.714,1.19
					c-0.216,0.275-0.605,0.671-1.168,1.188c-0.562,0.516-0.919,0.858-1.069,1.027c-0.15,0.17-0.272,0.335-0.365,0.496H99.851z"/>
				<path fill="#331842" d="M101.438,172.665v-1.783h1.783v1.783H101.438z"/>
				<path fill="#331842" d="M104.604,170.196l1.727-0.21c0.056,0.44,0.203,0.776,0.445,1.009c0.24,0.233,0.533,0.35,0.875,0.35
					c0.369,0,0.679-0.14,0.931-0.419s0.378-0.656,0.378-1.13c0-0.448-0.121-0.804-0.362-1.066s-0.535-0.394-0.882-0.394
					c-0.229,0-0.502,0.044-0.819,0.134l0.196-1.454c0.482,0.013,0.852-0.092,1.105-0.314c0.254-0.222,0.381-0.517,0.381-0.886
					c0-0.312-0.094-0.562-0.279-0.748c-0.187-0.187-0.435-0.279-0.743-0.279c-0.305,0-0.565,0.105-0.78,0.316
					c-0.217,0.212-0.348,0.521-0.395,0.928l-1.644-0.279c0.114-0.563,0.287-1.013,0.518-1.35c0.23-0.336,0.552-0.601,0.965-0.793
					c0.412-0.192,0.875-0.289,1.387-0.289c0.876,0,1.578,0.279,2.107,0.838c0.436,0.457,0.653,0.974,0.653,1.549
					c0,0.816-0.446,1.469-1.339,1.955c0.533,0.114,0.96,0.37,1.279,0.768c0.319,0.398,0.479,0.879,0.479,1.441
					c0,0.816-0.299,1.513-0.896,2.088c-0.597,0.576-1.339,0.863-2.228,0.863c-0.843,0-1.541-0.242-2.096-0.727
					C105.016,171.612,104.694,170.979,104.604,170.196z"/>
				<path fill="#331842" d="M112.279,172.665v-1.783h1.783v1.783H112.279z"/>
				<path fill="#331842" d="M119.51,163.359h3.434c0.775,0,1.365,0.06,1.771,0.178c0.546,0.161,1.014,0.446,1.402,0.856
					c0.39,0.411,0.686,0.913,0.889,1.508s0.305,1.328,0.305,2.199c0,0.767-0.095,1.427-0.285,1.98
					c-0.232,0.678-0.564,1.226-0.996,1.645c-0.326,0.317-0.767,0.564-1.32,0.742c-0.415,0.132-0.97,0.197-1.664,0.197h-3.535
					V163.359z M121.389,164.934v6.163h1.402c0.525,0,0.904-0.029,1.137-0.088c0.305-0.076,0.558-0.206,0.759-0.388
					s0.364-0.481,0.491-0.898s0.191-0.984,0.191-1.704s-0.064-1.271-0.191-1.656c-0.127-0.386-0.305-0.686-0.533-0.902
					c-0.229-0.215-0.518-0.361-0.869-0.438c-0.263-0.06-0.776-0.089-1.543-0.089H121.389z"/>
				<path fill="#331842" d="M132.795,170.52l1.777,0.298c-0.229,0.652-0.589,1.148-1.082,1.489s-1.11,0.511-1.851,0.511
					c-1.172,0-2.04-0.383-2.603-1.148c-0.444-0.614-0.667-1.389-0.667-2.324c0-1.117,0.293-1.991,0.877-2.624
					s1.322-0.949,2.215-0.949c1.003,0,1.794,0.331,2.374,0.993s0.856,1.677,0.831,3.044h-4.469c0.014,0.529,0.157,0.94,0.432,1.234
					c0.275,0.294,0.618,0.441,1.029,0.441c0.279,0,0.514-0.076,0.704-0.229S132.697,170.858,132.795,170.52z M132.896,168.717
					c-0.013-0.517-0.146-0.909-0.399-1.178s-0.563-0.403-0.928-0.403c-0.389,0-0.711,0.143-0.965,0.426s-0.378,0.669-0.374,1.155
					H132.896z"/>
				<path fill="#331842" d="M136.07,165.924h1.662v0.99c0.217-0.339,0.508-0.613,0.877-0.825c0.367-0.212,0.776-0.317,1.225-0.317
					c0.783,0,1.447,0.307,1.993,0.921c0.546,0.613,0.819,1.468,0.819,2.564c0,1.125-0.275,2-0.826,2.624
					c-0.55,0.624-1.216,0.937-1.999,0.937c-0.372,0-0.71-0.074-1.013-0.223c-0.303-0.147-0.621-0.401-0.955-0.762v3.396h-1.783
					V165.924z M137.834,169.181c0,0.757,0.15,1.316,0.451,1.679c0.301,0.361,0.666,0.542,1.098,0.542
					c0.415,0,0.76-0.166,1.035-0.498s0.412-0.877,0.412-1.635c0-0.706-0.142-1.23-0.425-1.574c-0.283-0.342-0.635-0.514-1.054-0.514
					c-0.436,0-0.798,0.168-1.086,0.505C137.979,168.021,137.834,168.521,137.834,169.181z"/>
				<path fill="#331842" d="M145.395,167.98l-1.618-0.292c0.182-0.651,0.495-1.134,0.939-1.447s1.104-0.47,1.98-0.47
					c0.796,0,1.388,0.094,1.777,0.282s0.663,0.428,0.822,0.718c0.158,0.29,0.237,0.821,0.237,1.597l-0.019,2.082
					c0,0.592,0.028,1.029,0.086,1.311c0.057,0.281,0.164,0.583,0.32,0.904h-1.765c-0.047-0.118-0.104-0.294-0.172-0.527
					c-0.029-0.105-0.051-0.175-0.062-0.209c-0.305,0.296-0.631,0.519-0.979,0.666c-0.347,0.148-0.717,0.223-1.11,0.223
					c-0.694,0-1.241-0.188-1.641-0.564c-0.4-0.377-0.601-0.854-0.601-1.429c0-0.381,0.092-0.721,0.273-1.019
					c0.182-0.299,0.437-0.527,0.765-0.686c0.328-0.159,0.801-0.298,1.419-0.416c0.834-0.156,1.411-0.303,1.732-0.438v-0.178
					c0-0.344-0.084-0.588-0.254-0.733c-0.169-0.146-0.488-0.22-0.958-0.22c-0.317,0-0.565,0.062-0.743,0.188
					S145.505,167.667,145.395,167.98z M147.781,169.428c-0.229,0.076-0.59,0.167-1.085,0.272c-0.495,0.106-0.819,0.21-0.972,0.312
					c-0.232,0.165-0.349,0.374-0.349,0.628c0,0.25,0.093,0.466,0.279,0.648c0.187,0.182,0.423,0.272,0.711,0.272
					c0.321,0,0.628-0.105,0.921-0.317c0.215-0.161,0.357-0.357,0.425-0.59c0.047-0.152,0.069-0.442,0.069-0.87V169.428z"/>
				<path fill="#331842" d="M153,172.665h-1.783v-6.741h1.656v0.958c0.283-0.452,0.538-0.751,0.765-0.895s0.483-0.216,0.771-0.216
					c0.406,0,0.798,0.112,1.175,0.337l-0.553,1.555c-0.301-0.194-0.58-0.292-0.838-0.292c-0.25,0-0.461,0.068-0.635,0.206
					s-0.31,0.387-0.409,0.746s-0.149,1.113-0.149,2.26V172.665z"/>
				<path fill="#331842" d="M159.442,165.924v1.422h-1.219v2.717c0,0.55,0.012,0.871,0.035,0.962s0.076,0.166,0.158,0.225
					c0.083,0.06,0.184,0.09,0.302,0.09c0.165,0,0.404-0.058,0.717-0.172l0.152,1.384c-0.414,0.178-0.884,0.267-1.408,0.267
					c-0.322,0-0.612-0.054-0.87-0.162c-0.258-0.107-0.447-0.247-0.568-0.419c-0.12-0.171-0.204-0.403-0.251-0.694
					c-0.037-0.208-0.057-0.627-0.057-1.258v-2.938h-0.818v-1.422h0.818v-1.339l1.79-1.041v2.38H159.442z"/>
				<path fill="#331842" d="M162.013,167.98l-1.618-0.292c0.182-0.651,0.495-1.134,0.939-1.447s1.104-0.47,1.98-0.47
					c0.796,0,1.388,0.094,1.777,0.282s0.663,0.428,0.822,0.718c0.158,0.29,0.237,0.821,0.237,1.597l-0.019,2.082
					c0,0.592,0.028,1.029,0.086,1.311c0.057,0.281,0.164,0.583,0.32,0.904h-1.765c-0.047-0.118-0.104-0.294-0.172-0.527
					c-0.029-0.105-0.051-0.175-0.062-0.209c-0.305,0.296-0.631,0.519-0.979,0.666c-0.347,0.148-0.717,0.223-1.11,0.223
					c-0.694,0-1.241-0.188-1.641-0.564c-0.4-0.377-0.601-0.854-0.601-1.429c0-0.381,0.092-0.721,0.273-1.019
					c0.182-0.299,0.437-0.527,0.765-0.686c0.328-0.159,0.801-0.298,1.419-0.416c0.834-0.156,1.411-0.303,1.732-0.438v-0.178
					c0-0.344-0.084-0.588-0.254-0.733c-0.169-0.146-0.488-0.22-0.958-0.22c-0.317,0-0.565,0.062-0.743,0.188
					S162.123,167.667,162.013,167.98z M164.399,169.428c-0.229,0.076-0.59,0.167-1.085,0.272c-0.495,0.106-0.819,0.21-0.972,0.312
					c-0.232,0.165-0.349,0.374-0.349,0.628c0,0.25,0.093,0.466,0.279,0.648c0.187,0.182,0.423,0.272,0.711,0.272
					c0.321,0,0.628-0.105,0.921-0.317c0.215-0.161,0.357-0.357,0.425-0.59c0.047-0.152,0.069-0.442,0.069-0.87V169.428z"/>
				<path fill="#331842" d="M167.776,165.924h1.644v0.921c0.589-0.716,1.289-1.073,2.102-1.073c0.432,0,0.807,0.089,1.123,0.267
					c0.318,0.178,0.578,0.446,0.781,0.807c0.296-0.36,0.615-0.629,0.959-0.807c0.342-0.178,0.708-0.267,1.098-0.267
					c0.495,0,0.914,0.101,1.257,0.302s0.599,0.496,0.769,0.885c0.122,0.288,0.184,0.754,0.184,1.396v4.311h-1.783v-3.854
					c0-0.668-0.062-1.1-0.185-1.295c-0.165-0.254-0.419-0.381-0.762-0.381c-0.25,0-0.484,0.076-0.704,0.229
					c-0.221,0.152-0.379,0.376-0.477,0.67s-0.146,0.759-0.146,1.394v3.237h-1.783v-3.694c0-0.656-0.031-1.079-0.096-1.27
					c-0.062-0.19-0.161-0.332-0.295-0.425c-0.133-0.094-0.314-0.141-0.543-0.141c-0.274,0-0.522,0.074-0.742,0.223
					s-0.378,0.361-0.473,0.641c-0.096,0.279-0.143,0.743-0.143,1.391v3.275h-1.784V165.924z"/>
				<path fill="#331842" d="M183.373,170.52l1.777,0.298c-0.229,0.652-0.589,1.148-1.082,1.489s-1.11,0.511-1.851,0.511
					c-1.172,0-2.04-0.383-2.603-1.148c-0.444-0.614-0.667-1.389-0.667-2.324c0-1.117,0.293-1.991,0.877-2.624
					s1.322-0.949,2.215-0.949c1.003,0,1.794,0.331,2.374,0.993s0.856,1.677,0.831,3.044h-4.469c0.014,0.529,0.157,0.94,0.432,1.234
					c0.275,0.294,0.618,0.441,1.029,0.441c0.279,0,0.514-0.076,0.704-0.229S183.275,170.858,183.373,170.52z M183.475,168.717
					c-0.013-0.517-0.146-0.909-0.399-1.178s-0.563-0.403-0.928-0.403c-0.389,0-0.711,0.143-0.965,0.426s-0.378,0.669-0.374,1.155
					H183.475z"/>
				<path fill="#331842" d="M192.83,172.665h-1.783v-3.44c0-0.728-0.038-1.198-0.114-1.412s-0.2-0.38-0.371-0.499
					c-0.172-0.118-0.378-0.178-0.619-0.178c-0.309,0-0.586,0.085-0.831,0.254c-0.246,0.17-0.414,0.395-0.505,0.674
					s-0.137,0.795-0.137,1.549v3.053h-1.784v-6.741h1.657v0.99c0.588-0.762,1.329-1.143,2.222-1.143
					c0.394,0,0.753,0.071,1.079,0.213s0.572,0.322,0.739,0.542c0.167,0.221,0.284,0.471,0.35,0.75s0.098,0.679,0.098,1.199V172.665z
					"/>
				<path fill="#331842" d="M197.731,165.924v1.422h-1.219v2.717c0,0.55,0.012,0.871,0.035,0.962s0.076,0.166,0.158,0.225
					c0.083,0.06,0.184,0.09,0.302,0.09c0.165,0,0.404-0.058,0.717-0.172l0.152,1.384c-0.414,0.178-0.884,0.267-1.408,0.267
					c-0.322,0-0.612-0.054-0.87-0.162c-0.258-0.107-0.447-0.247-0.568-0.419c-0.12-0.171-0.204-0.403-0.251-0.694
					c-0.037-0.208-0.057-0.627-0.057-1.258v-2.938h-0.818v-1.422h0.818v-1.339l1.79-1.041v2.38H197.731z"/>
				<path fill="#331842" d="M198.557,169.199c0-0.593,0.146-1.166,0.438-1.72c0.291-0.555,0.705-0.979,1.24-1.27
					c0.535-0.293,1.133-0.438,1.793-0.438c1.021,0,1.856,0.331,2.508,0.993s0.978,1.499,0.978,2.511c0,1.02-0.329,1.865-0.987,2.536
					s-1.486,1.006-2.484,1.006c-0.618,0-1.208-0.14-1.769-0.419s-0.987-0.688-1.278-1.229
					C198.702,170.631,198.557,169.974,198.557,169.199z M200.385,169.294c0,0.669,0.159,1.182,0.476,1.537
					c0.318,0.355,0.709,0.533,1.175,0.533s0.855-0.178,1.171-0.533s0.473-0.872,0.473-1.549c0-0.66-0.157-1.168-0.473-1.523
					s-0.705-0.533-1.171-0.533s-0.856,0.178-1.175,0.533C200.544,168.114,200.385,168.626,200.385,169.294z"/>
			</g>
		</g>
		<g>
			<g>
				<path fill="#331842" d="M504.683,175.517v1.656h-6.252c0.067-0.626,0.271-1.22,0.609-1.78c0.338-0.561,1.007-1.305,2.006-2.231
					c0.804-0.749,1.297-1.257,1.479-1.523c0.245-0.368,0.368-0.732,0.368-1.092c0-0.397-0.106-0.703-0.32-0.917
					s-0.509-0.321-0.886-0.321c-0.372,0-0.669,0.112-0.889,0.337s-0.347,0.597-0.381,1.117l-1.777-0.178
					c0.105-0.981,0.438-1.687,0.996-2.114c0.559-0.427,1.258-0.641,2.096-0.641c0.918,0,1.64,0.248,2.164,0.742
					c0.524,0.496,0.787,1.111,0.787,1.848c0,0.419-0.075,0.817-0.226,1.196s-0.388,0.775-0.714,1.19
					c-0.216,0.275-0.605,0.671-1.168,1.188c-0.562,0.516-0.919,0.858-1.069,1.027c-0.15,0.17-0.272,0.335-0.365,0.496H504.683z"/>
				<path fill="#331842" d="M506.27,177.173v-1.783h1.783v1.783H506.27z"/>
				<path fill="#331842" d="M512.998,177.173V175.3h-3.809v-1.561l4.037-5.91h1.498v5.903h1.155v1.567h-1.155v1.873H512.998z
					 M512.998,173.732v-3.181l-2.14,3.181H512.998z"/>
				<path fill="#331842" d="M517.111,177.173v-1.783h1.783v1.783H517.111z"/>
				<path fill="#331842" d="M524.322,177.173v-9.306h2.812l1.688,6.348l1.669-6.348h2.818v9.306h-1.745v-7.325l-1.847,7.325h-1.81
					l-1.841-7.325v7.325H524.322z"/>
				<path fill="#331842" d="M539.601,177.173v-1.01c-0.245,0.36-0.568,0.644-0.968,0.852c-0.4,0.207-0.822,0.311-1.267,0.311
					c-0.453,0-0.859-0.1-1.219-0.299c-0.359-0.198-0.62-0.478-0.78-0.838c-0.161-0.359-0.242-0.856-0.242-1.491v-4.266h1.784v3.098
					c0,0.948,0.033,1.528,0.099,1.742s0.185,0.383,0.358,0.508s0.394,0.188,0.66,0.188c0.305,0,0.577-0.084,0.819-0.251
					c0.24-0.167,0.406-0.374,0.494-0.622c0.09-0.247,0.134-0.854,0.134-1.818v-2.844h1.784v6.741H539.601z"/>
				<path fill="#331842" d="M549.236,177.173h-1.783v-3.44c0-0.728-0.038-1.198-0.114-1.412s-0.2-0.38-0.371-0.499
					c-0.172-0.118-0.378-0.178-0.619-0.178c-0.309,0-0.586,0.085-0.831,0.254c-0.246,0.17-0.414,0.395-0.505,0.674
					s-0.137,0.795-0.137,1.549v3.053h-1.784v-6.741h1.657v0.99c0.588-0.762,1.329-1.143,2.222-1.143
					c0.394,0,0.753,0.071,1.079,0.213s0.572,0.322,0.739,0.542c0.167,0.221,0.284,0.471,0.35,0.75s0.098,0.679,0.098,1.199V177.173z
					"/>
				<path fill="#331842" d="M551.047,169.518v-1.65h1.783v1.65H551.047z M551.047,177.173v-6.741h1.783v6.741H551.047z"/>
				<path fill="#331842" d="M560.535,172.425l-1.758,0.317c-0.06-0.352-0.193-0.616-0.403-0.794
					c-0.209-0.178-0.481-0.266-0.815-0.266c-0.444,0-0.799,0.153-1.063,0.46s-0.396,0.819-0.396,1.539
					c0,0.8,0.135,1.364,0.403,1.694s0.629,0.496,1.082,0.496c0.339,0,0.615-0.097,0.832-0.289c0.215-0.192,0.367-0.523,0.457-0.994
					l1.752,0.299c-0.183,0.804-0.531,1.411-1.048,1.822c-0.517,0.41-1.208,0.615-2.075,0.615c-0.986,0-1.772-0.311-2.358-0.934
					c-0.586-0.621-0.88-1.482-0.88-2.583c0-1.113,0.295-1.979,0.883-2.6s1.384-0.93,2.387-0.93c0.821,0,1.474,0.177,1.958,0.53
					S560.324,171.701,560.535,172.425z"/>
				<path fill="#331842" d="M561.889,169.518v-1.65h1.783v1.65H561.889z M561.889,177.173v-6.741h1.783v6.741H561.889z"/>
				<path fill="#331842" d="M565.449,170.432h1.662v0.99c0.217-0.339,0.508-0.613,0.877-0.825c0.367-0.212,0.776-0.317,1.225-0.317
					c0.783,0,1.447,0.307,1.993,0.921c0.546,0.613,0.819,1.468,0.819,2.564c0,1.125-0.275,2-0.826,2.624
					c-0.55,0.624-1.216,0.937-1.999,0.937c-0.372,0-0.71-0.074-1.013-0.223c-0.303-0.147-0.621-0.401-0.955-0.762v3.396h-1.783
					V170.432z M567.213,173.688c0,0.757,0.15,1.316,0.451,1.679c0.301,0.361,0.666,0.542,1.098,0.542
					c0.415,0,0.76-0.166,1.035-0.498s0.412-0.877,0.412-1.635c0-0.706-0.142-1.23-0.425-1.574c-0.283-0.342-0.635-0.514-1.054-0.514
					c-0.436,0-0.798,0.168-1.086,0.505C567.357,172.529,567.213,173.028,567.213,173.688z"/>
				<path fill="#331842" d="M573.441,169.518v-1.65h1.783v1.65H573.441z M573.441,177.173v-6.741h1.783v6.741H573.441z"/>
				<path fill="#331842" d="M576.64,173.707c0-0.593,0.146-1.166,0.438-1.72c0.291-0.555,0.705-0.979,1.24-1.27
					c0.535-0.293,1.133-0.438,1.793-0.438c1.021,0,1.856,0.331,2.508,0.993s0.978,1.499,0.978,2.511c0,1.02-0.329,1.865-0.987,2.536
					s-1.486,1.006-2.484,1.006c-0.618,0-1.208-0.14-1.769-0.419s-0.987-0.688-1.278-1.229
					C576.785,175.139,576.64,174.481,576.64,173.707z M578.468,173.802c0,0.669,0.159,1.182,0.476,1.537
					c0.318,0.355,0.709,0.533,1.175,0.533s0.855-0.178,1.171-0.533s0.473-0.872,0.473-1.549c0-0.66-0.157-1.168-0.473-1.523
					s-0.705-0.533-1.171-0.533s-0.856,0.178-1.175,0.533C578.627,172.622,578.468,173.134,578.468,173.802z"/>
			</g>
		</g>
		<g>
			<g>
				<path fill="#331842" d="M861.126,98.991h3.434c0.775,0,1.365,0.06,1.771,0.178c0.547,0.161,1.014,0.446,1.402,0.856
					c0.391,0.411,0.686,0.913,0.889,1.508s0.305,1.328,0.305,2.199c0,0.767-0.094,1.427-0.285,1.98
					c-0.232,0.678-0.564,1.226-0.996,1.645c-0.326,0.317-0.766,0.564-1.32,0.742c-0.414,0.132-0.969,0.197-1.664,0.197h-3.535
					V98.991z M863.005,100.565v6.163h1.402c0.525,0,0.904-0.029,1.137-0.088c0.305-0.076,0.559-0.206,0.76-0.388
					s0.363-0.481,0.49-0.898s0.191-0.984,0.191-1.704s-0.064-1.271-0.191-1.656c-0.127-0.386-0.305-0.686-0.533-0.902
					c-0.229-0.215-0.518-0.361-0.869-0.438c-0.262-0.06-0.775-0.089-1.543-0.089H863.005z"/>
				<path fill="#331842" d="M870.515,98.991h3.434c0.775,0,1.365,0.06,1.771,0.178c0.545,0.161,1.014,0.446,1.402,0.856
					c0.389,0.411,0.686,0.913,0.889,1.508s0.305,1.328,0.305,2.199c0,0.767-0.096,1.427-0.285,1.98
					c-0.232,0.678-0.564,1.226-0.996,1.645c-0.326,0.317-0.768,0.564-1.32,0.742c-0.416,0.132-0.971,0.197-1.664,0.197h-3.535
					V98.991z M872.394,100.565v6.163h1.402c0.525,0,0.904-0.029,1.137-0.088c0.305-0.076,0.557-0.206,0.758-0.388
					s0.365-0.481,0.492-0.898s0.191-0.984,0.191-1.704s-0.064-1.271-0.191-1.656c-0.127-0.386-0.305-0.686-0.533-0.902
					c-0.229-0.215-0.518-0.361-0.869-0.438c-0.264-0.06-0.777-0.089-1.543-0.089H872.394z"/>
			</g>
		</g>
		<g>
			<g>
				<path fill="#331842" d="M808.606,108.297v-9.306h2.812l1.689,6.348l1.668-6.348h2.818v9.306h-1.744v-7.325l-1.848,7.325h-1.809
					l-1.842-7.325v7.325H808.606z"/>
				<path fill="#331842" d="M819.437,108.297v-9.306h2.812l1.688,6.348l1.67-6.348h2.818v9.306h-1.746v-7.325l-1.846,7.325h-1.811
					l-1.84-7.325v7.325H819.437z"/>
			</g>
		</g>
		<g>
			<g>
				<path fill="#331842" d="M736.632,108.297h-2.045l-0.812-2.113h-3.719l-0.768,2.113h-1.994l3.625-9.306h1.986L736.632,108.297z
					 M733.173,104.615l-1.283-3.453l-1.256,3.453H733.173z"/>
				<path fill="#331842" d="M746.021,108.297h-2.045l-0.812-2.113h-3.719l-0.77,2.113h-1.992l3.625-9.306h1.986L746.021,108.297z
					 M742.56,104.615l-1.281-3.453l-1.258,3.453H742.56z"/>
				<path fill="#331842" d="M755.409,108.297h-2.045l-0.812-2.113h-3.719l-0.77,2.113h-1.992l3.625-9.306h1.986L755.409,108.297z
					 M751.948,104.615l-1.281-3.453l-1.258,3.453H751.948z"/>
			</g>
		</g>
		<g>
			<g>
				<path fill="#F6F6F6" d="M255.896,11.695h6.867c1.359,0,2.373,0.057,3.041,0.17s1.266,0.35,1.793,0.709s0.967,0.838,1.318,1.436
					s0.527,1.268,0.527,2.01c0,0.805-0.217,1.543-0.65,2.215s-1.021,1.176-1.764,1.512c1.047,0.305,1.852,0.824,2.414,1.559
					s0.844,1.598,0.844,2.59c0,0.781-0.182,1.541-0.545,2.279s-0.859,1.328-1.488,1.77s-1.404,0.713-2.326,0.814
					c-0.578,0.062-1.973,0.102-4.184,0.117h-5.848V11.695z M259.365,14.555v3.973h2.273c1.352,0,2.191-0.02,2.52-0.059
					c0.594-0.07,1.061-0.275,1.4-0.615s0.51-0.787,0.51-1.342c0-0.531-0.146-0.963-0.439-1.295s-0.729-0.533-1.307-0.604
					c-0.344-0.039-1.332-0.059-2.965-0.059H259.365z M259.365,21.387v4.594h3.211c1.25,0,2.043-0.035,2.379-0.105
					c0.516-0.094,0.936-0.322,1.26-0.686s0.486-0.85,0.486-1.459c0-0.516-0.125-0.953-0.375-1.312s-0.611-0.621-1.084-0.785
					s-1.498-0.246-3.076-0.246H259.365z"/>
				<path fill="#F6F6F6" d="M273.193,28.875v-3.293h3.293v3.293H273.193z"/>
				<path fill="#F6F6F6" d="M286.646,28.875V11.836h3.469V25.98h8.625v2.895H286.646z"/>
				<path fill="#F6F6F6" d="M301.189,11.695h3.469V21c0,1.477,0.043,2.434,0.129,2.871c0.148,0.703,0.502,1.268,1.061,1.693
					s1.322,0.639,2.291,0.639c0.984,0,1.727-0.201,2.227-0.604s0.801-0.896,0.902-1.482s0.152-1.559,0.152-2.918v-9.504h3.469v9.023
					c0,2.062-0.094,3.52-0.281,4.371s-0.533,1.57-1.037,2.156s-1.178,1.053-2.021,1.4s-1.945,0.521-3.305,0.521
					c-1.641,0-2.885-0.189-3.732-0.568s-1.518-0.871-2.01-1.477s-0.816-1.24-0.973-1.904c-0.227-0.984-0.34-2.438-0.34-4.359V11.695
					z"/>
				<path fill="#F6F6F6" d="M326.537,22.559v-2.895h7.477v6.844c-0.727,0.703-1.779,1.322-3.158,1.857s-2.775,0.803-4.189,0.803
					c-1.797,0-3.363-0.377-4.699-1.131s-2.34-1.832-3.012-3.234s-1.008-2.928-1.008-4.576c0-1.789,0.375-3.379,1.125-4.77
					s1.848-2.457,3.293-3.199c1.102-0.57,2.473-0.855,4.113-0.855c2.133,0,3.799,0.447,4.998,1.342s1.971,2.131,2.314,3.709
					l-3.445,0.645c-0.242-0.844-0.697-1.51-1.365-1.998s-1.502-0.732-2.502-0.732c-1.516,0-2.721,0.48-3.615,1.441
					s-1.342,2.387-1.342,4.277c0,2.039,0.453,3.568,1.359,4.588s2.094,1.529,3.562,1.529c0.727,0,1.455-0.143,2.186-0.428
					s1.357-0.631,1.881-1.037v-2.18H326.537z"/>
				<path fill="#F6F6F6" d="M352.705,28.875h-3.773l-1.5-3.902h-6.867l-1.418,3.902h-3.68l6.691-17.18h3.668L352.705,28.875z
					 M346.318,22.078l-2.367-6.375l-2.32,6.375H346.318z"/>
				<path fill="#F6F6F6" d="M354.557,28.875v-17.18h7.301c1.836,0,3.17,0.154,4.002,0.463s1.498,0.857,1.998,1.646
					s0.75,1.691,0.75,2.707c0,1.289-0.379,2.354-1.137,3.193s-1.891,1.369-3.398,1.588c0.75,0.438,1.369,0.918,1.857,1.441
					s1.146,1.453,1.975,2.789l2.098,3.352h-4.148l-2.508-3.738c-0.891-1.336-1.5-2.178-1.828-2.525s-0.676-0.586-1.043-0.715
					s-0.949-0.193-1.746-0.193h-0.703v7.172H354.557z M358.025,18.961h2.566c1.664,0,2.703-0.07,3.117-0.211
					s0.738-0.383,0.973-0.727s0.352-0.773,0.352-1.289c0-0.578-0.154-1.045-0.463-1.4s-0.744-0.58-1.307-0.674
					c-0.281-0.039-1.125-0.059-2.531-0.059h-2.707V18.961z"/>
				<path fill="#F6F6F6" d="M382.623,28.875v-7.23l-6.293-9.949h4.066l4.043,6.797l3.961-6.797h3.996l-6.316,9.973v7.207H382.623z"
					/>
				<path fill="#F6F6F6" d="M400.377,28.875v-17.18h11.777v2.906h-8.309v4.066h7.172v2.906h-7.172v7.301H400.377z"/>
				<path fill="#F6F6F6" d="M415.014,28.875v-17.18h12.738v2.906h-9.27v3.809h8.625v2.895h-8.625v4.676h9.598v2.895H415.014z"/>
				<path fill="#F6F6F6" d="M442.014,22.559l3.363,1.066c-0.516,1.875-1.373,3.268-2.572,4.178s-2.721,1.365-4.564,1.365
					c-2.281,0-4.156-0.779-5.625-2.338s-2.203-3.689-2.203-6.393c0-2.859,0.738-5.08,2.215-6.662s3.418-2.373,5.824-2.373
					c2.102,0,3.809,0.621,5.121,1.863c0.781,0.734,1.367,1.789,1.758,3.164l-3.434,0.82c-0.203-0.891-0.627-1.594-1.271-2.109
					s-1.428-0.773-2.35-0.773c-1.273,0-2.307,0.457-3.1,1.371s-1.189,2.395-1.189,4.441c0,2.172,0.391,3.719,1.172,4.641
					s1.797,1.383,3.047,1.383c0.922,0,1.715-0.293,2.379-0.879S441.725,23.816,442.014,22.559z"/>
				<path fill="#F6F6F6" d="M448.365,28.875v-17.18h3.469v6.762h6.797v-6.762h3.469v17.18h-3.469v-7.512h-6.797v7.512H448.365z"/>
				<path fill="#F6F6F6" d="M481.178,28.875h-3.773l-1.5-3.902h-6.867l-1.418,3.902h-3.68l6.691-17.18h3.668L481.178,28.875z
					 M474.791,22.078l-2.367-6.375l-2.32,6.375H474.791z"/>
				<path fill="#F6F6F6" d="M488.783,11.695h6.34c1.43,0,2.52,0.109,3.27,0.328c1.008,0.297,1.871,0.824,2.59,1.582
					s1.266,1.686,1.641,2.783s0.562,2.451,0.562,4.061c0,1.414-0.176,2.633-0.527,3.656c-0.43,1.25-1.043,2.262-1.84,3.035
					c-0.602,0.586-1.414,1.043-2.438,1.371c-0.766,0.242-1.789,0.363-3.07,0.363h-6.527V11.695z M492.252,14.602V25.98h2.59
					c0.969,0,1.668-0.055,2.098-0.164c0.562-0.141,1.029-0.379,1.4-0.715s0.674-0.889,0.908-1.658s0.352-1.818,0.352-3.146
					s-0.117-2.348-0.352-3.059s-0.562-1.266-0.984-1.664s-0.957-0.668-1.605-0.809c-0.484-0.109-1.434-0.164-2.848-0.164H492.252z"
					/>
				<path fill="#F6F6F6" d="M506.127,28.875v-17.18h12.738v2.906h-9.27v3.809h8.625v2.895h-8.625v4.676h9.598v2.895H506.127z"/>
				<path fill="#F6F6F6" d="M528.896,28.875V11.836h3.469V25.98h8.625v2.895H528.896z"/>
				<path fill="#F6F6F6" d="M558.955,28.875h-3.773l-1.5-3.902h-6.867l-1.418,3.902h-3.68l6.691-17.18h3.668L558.955,28.875z
					 M552.568,22.078l-2.367-6.375l-2.32,6.375H552.568z"/>
				<path fill="#F6F6F6" d="M566.572,28.875v-17.18h12.738v2.906h-9.27v3.809h8.625v2.895h-8.625v4.676h9.598v2.895H566.572z"/>
				<path fill="#F6F6F6" d="M580.834,28.875l5.871-8.965l-5.32-8.215h4.055l3.445,5.52l3.375-5.52h4.02l-5.344,8.344l5.871,8.836
					h-4.184l-3.809-5.941l-3.82,5.941H580.834z"/>
				<path fill="#F6F6F6" d="M598.588,28.875v-17.18h5.566c2.109,0,3.484,0.086,4.125,0.258c0.984,0.258,1.809,0.818,2.473,1.682
					s0.996,1.979,0.996,3.346c0,1.055-0.191,1.941-0.574,2.66s-0.869,1.283-1.459,1.693s-1.189,0.682-1.799,0.814
					c-0.828,0.164-2.027,0.246-3.598,0.246h-2.262v6.48H598.588z M602.057,14.602v4.875h1.898c1.367,0,2.281-0.09,2.742-0.27
					s0.822-0.461,1.084-0.844s0.393-0.828,0.393-1.336c0-0.625-0.184-1.141-0.551-1.547s-0.832-0.66-1.395-0.762
					c-0.414-0.078-1.246-0.117-2.496-0.117H602.057z"/>
				<path fill="#F6F6F6" d="M614.596,28.875v-17.18h12.738v2.906h-9.27v3.809h8.625v2.895h-8.625v4.676h9.598v2.895H614.596z"/>
				<path fill="#F6F6F6" d="M630.592,11.695h6.34c1.43,0,2.52,0.109,3.27,0.328c1.008,0.297,1.871,0.824,2.59,1.582
					s1.266,1.686,1.641,2.783s0.562,2.451,0.562,4.061c0,1.414-0.176,2.633-0.527,3.656c-0.43,1.25-1.043,2.262-1.84,3.035
					c-0.602,0.586-1.414,1.043-2.438,1.371c-0.766,0.242-1.789,0.363-3.07,0.363h-6.527V11.695z M634.061,14.602V25.98h2.59
					c0.969,0,1.668-0.055,2.098-0.164c0.562-0.141,1.029-0.379,1.4-0.715s0.674-0.889,0.908-1.658s0.352-1.818,0.352-3.146
					s-0.117-2.348-0.352-3.059s-0.562-1.266-0.984-1.664s-0.957-0.668-1.605-0.809c-0.484-0.109-1.434-0.164-2.848-0.164H634.061z"
					/>
				<path fill="#F6F6F6" d="M647.83,28.875v-17.18h3.469v17.18H647.83z"/>
				<path fill="#F6F6F6" d="M665.596,22.559l3.363,1.066c-0.516,1.875-1.373,3.268-2.572,4.178s-2.721,1.365-4.564,1.365
					c-2.281,0-4.156-0.779-5.625-2.338s-2.203-3.689-2.203-6.393c0-2.859,0.738-5.08,2.215-6.662s3.418-2.373,5.824-2.373
					c2.102,0,3.809,0.621,5.121,1.863c0.781,0.734,1.367,1.789,1.758,3.164l-3.434,0.82c-0.203-0.891-0.627-1.594-1.271-2.109
					s-1.428-0.773-2.35-0.773c-1.273,0-2.307,0.457-3.1,1.371s-1.189,2.395-1.189,4.441c0,2.172,0.391,3.719,1.172,4.641
					s1.797,1.383,3.047,1.383c0.922,0,1.715-0.293,2.379-0.879S665.307,23.816,665.596,22.559z"/>
				<path fill="#F6F6F6" d="M671.83,28.875v-17.18h3.469v17.18H671.83z"/>
				<path fill="#F6F6F6" d="M677.9,20.391c0-1.75,0.262-3.219,0.785-4.406c0.391-0.875,0.924-1.66,1.6-2.355
					s1.416-1.211,2.221-1.547c1.07-0.453,2.305-0.68,3.703-0.68c2.531,0,4.557,0.785,6.076,2.355s2.279,3.754,2.279,6.551
					c0,2.773-0.754,4.943-2.262,6.51s-3.523,2.35-6.047,2.35c-2.555,0-4.586-0.779-6.094-2.338S677.9,23.125,677.9,20.391z
					 M681.475,20.273c0,1.945,0.449,3.42,1.348,4.424s2.039,1.506,3.422,1.506s2.518-0.498,3.404-1.494s1.33-2.49,1.33-4.482
					c0-1.969-0.432-3.438-1.295-4.406s-2.01-1.453-3.439-1.453s-2.582,0.49-3.457,1.471S681.475,18.297,681.475,20.273z
					 M684.1,10.711l1.617-3.504h3.691l-3.223,3.504H684.1z"/>
				<path fill="#F6F6F6" d="M697.307,28.875v-17.18h3.375l7.031,11.473V11.695h3.223v17.18h-3.48l-6.926-11.203v11.203H697.307z"/>
			</g>
		</g>
		
			<line fill="none" stroke="#331842" stroke-width="0.75" stroke-miterlimit="10" x1="689.671" y1="117.174" x2="896.293" y2="117.174"/>
	</g>
	<g>
		<path fill="#0093AF" d="M132.595,130.57c-0.361,0-0.674-0.084-0.936-0.251c-0.264-0.168-0.395-0.47-0.395-0.905l0.197-27.158
			c0-0.368,0.09-0.687,0.27-0.955c0.182-0.268,0.486-0.402,0.914-0.402l15.516-0.151c0.369,0,0.654,0.126,0.855,0.378
			c0.201,0.251,0.311,0.527,0.328,0.829c0.016,0.302-0.068,0.587-0.252,0.855c-0.186,0.269-0.479,0.402-0.881,0.402l-14.332,0.15
			l-0.152,11.165l13.73-0.251c0.369,0,0.645,0.125,0.83,0.377c0.184,0.251,0.283,0.536,0.301,0.854
			c0.018,0.319-0.066,0.604-0.25,0.855c-0.186,0.251-0.463,0.377-0.83,0.377l-13.781,0.251l-0.098,11.115l14.732-0.151
			c0.369,0,0.654,0.126,0.855,0.377c0.201,0.252,0.303,0.537,0.303,0.855s-0.084,0.604-0.252,0.854
			c-0.168,0.252-0.453,0.378-0.855,0.378L132.595,130.57z"/>
		<path fill="#0093AF" d="M170.491,122.322c-0.035-0.938-0.311-1.692-0.83-2.263c-0.521-0.57-1.207-1.048-2.062-1.434
			c-0.855-0.385-1.818-0.704-2.891-0.955c-1.074-0.252-2.172-0.511-3.295-0.78c-1.123-0.268-2.213-0.586-3.27-0.955
			c-1.055-0.368-1.994-0.863-2.816-1.483s-1.475-1.408-1.961-2.364c-0.486-0.955-0.713-2.137-0.68-3.545
			c0.033-1.375,0.379-2.573,1.031-3.596c0.654-1.022,1.5-1.861,2.541-2.515c1.039-0.654,2.203-1.123,3.494-1.408
			s2.598-0.386,3.924-0.302c1.324,0.084,2.598,0.36,3.822,0.829c1.223,0.471,2.287,1.106,3.193,1.911
			c0.301,0.27,0.418,0.562,0.352,0.881c-0.068,0.318-0.209,0.578-0.428,0.779s-0.496,0.327-0.832,0.377
			c-0.338,0.051-0.639-0.042-0.908-0.276c-0.908-0.838-2.111-1.416-3.609-1.735c-1.496-0.318-2.984-0.352-4.465-0.101
			c-1.48,0.252-2.766,0.805-3.859,1.66c-1.094,0.854-1.689,2.036-1.791,3.545c-0.066,1.04,0.143,1.895,0.631,2.565
			c0.486,0.671,1.15,1.231,1.992,1.685c0.84,0.452,1.799,0.821,2.873,1.106c1.076,0.285,2.186,0.578,3.33,0.88
			c1.143,0.302,2.27,0.629,3.379,0.98c1.109,0.353,2.092,0.813,2.949,1.383c0.857,0.571,1.547,1.283,2.068,2.138
			c0.521,0.855,0.781,1.937,0.781,3.244c-0.033,1.375-0.402,2.573-1.109,3.596c-0.705,1.023-1.631,1.86-2.773,2.515
			c-1.143,0.653-2.43,1.115-3.857,1.383c-1.43,0.269-2.867,0.369-4.312,0.302c-1.447-0.066-2.816-0.302-4.111-0.704
			c-1.293-0.402-2.377-0.988-3.248-1.76c-0.301-0.269-0.428-0.562-0.377-0.881c0.051-0.318,0.184-0.595,0.402-0.829
			s0.494-0.386,0.83-0.453c0.334-0.066,0.637,0.018,0.904,0.252c0.641,0.57,1.455,1.014,2.447,1.332
			c0.992,0.319,2.053,0.521,3.18,0.604c1.127,0.084,2.254,0.034,3.381-0.15c1.127-0.184,2.137-0.503,3.027-0.956
			c0.891-0.452,1.615-1.056,2.17-1.811C170.263,124.259,170.524,123.362,170.491,122.322z"/>
		<path fill="#0093AF" d="M178.56,130.57c-0.361,0-0.672-0.084-0.936-0.251c-0.264-0.168-0.395-0.47-0.395-0.905l0.197-27.158
			c0-0.368,0.09-0.687,0.271-0.955c0.182-0.268,0.486-0.402,0.914-0.402l15.516-0.151c0.369,0,0.654,0.126,0.855,0.378
			c0.201,0.251,0.309,0.527,0.326,0.829c0.016,0.302-0.068,0.587-0.252,0.855s-0.477,0.402-0.879,0.402l-14.334,0.15l-0.15,11.165
			l13.729-0.251c0.369,0,0.646,0.125,0.83,0.377c0.184,0.251,0.285,0.536,0.303,0.854c0.016,0.319-0.068,0.604-0.252,0.855
			c-0.184,0.251-0.461,0.377-0.83,0.377l-13.779,0.251l-0.098,11.115l14.732-0.151c0.369,0,0.654,0.126,0.855,0.377
			c0.201,0.252,0.301,0.537,0.301,0.855s-0.084,0.604-0.252,0.854c-0.168,0.252-0.451,0.378-0.854,0.378L178.56,130.57z"/>
		<path fill="#0093AF" d="M215.077,130.57c-0.377,0-0.703-0.084-0.977-0.251c-0.273-0.168-0.41-0.47-0.41-0.905l0.205-27.309
			c0-0.436,0.137-0.755,0.412-0.956c0.273-0.201,0.564-0.293,0.873-0.276c0.307,0.018,0.588,0.144,0.844,0.377
			c0.254,0.235,0.383,0.571,0.383,1.006l-0.252,25.851l12.875-0.151c0.367,0,0.652,0.126,0.854,0.377
			c0.201,0.252,0.311,0.537,0.328,0.855c0.016,0.318-0.068,0.604-0.252,0.854c-0.184,0.252-0.479,0.378-0.881,0.378L215.077,130.57z
			"/>
		<path fill="#0093AF" d="M243.563,112.415c0.031-0.436,0.176-0.754,0.426-0.955c0.252-0.201,0.529-0.302,0.83-0.302
			c0.303,0,0.57,0.101,0.805,0.302s0.369,0.52,0.402,0.955c0.102,2.851,0.168,5.7,0.201,8.55s0.152,5.801,0.352,8.852
			c-0.033,0.335-0.176,0.595-0.426,0.779c-0.252,0.184-0.521,0.276-0.805,0.276c-0.285,0-0.555-0.084-0.805-0.252
			c-0.252-0.167-0.395-0.435-0.428-0.804l-0.15-2.465c-0.773,0.704-1.719,1.207-2.842,1.509c-1.125,0.302-2.439,0.269-3.949-0.101
			c-0.904-0.201-1.676-0.553-2.312-1.056s-1.156-1.09-1.559-1.761c-0.402-0.67-0.697-1.408-0.881-2.213s-0.244-1.626-0.176-2.464
			c0.066-0.973,0.277-1.919,0.629-2.842c0.352-0.922,0.838-1.743,1.459-2.464c0.619-0.721,1.373-1.291,2.262-1.71
			s1.887-0.629,2.992-0.629c0.805,0.034,1.543,0.21,2.213,0.528c0.672,0.318,1.291,0.729,1.861,1.231
			c-0.033-0.469-0.059-0.955-0.076-1.458C243.571,113.421,243.563,112.918,243.563,112.415z M237.812,126.346
			c0.666,0.269,1.326,0.345,1.977,0.227c0.648-0.117,1.24-0.36,1.775-0.729c0.533-0.368,1-0.838,1.4-1.408
			c0.4-0.569,0.684-1.173,0.85-1.811l-0.1-2.816c-0.268-0.938-0.676-1.692-1.225-2.263c-0.551-0.569-1.16-0.964-1.826-1.182
			c-0.668-0.218-1.359-0.269-2.076-0.151c-0.717,0.118-1.367,0.395-1.951,0.83c-0.582,0.437-1.059,1.048-1.424,1.836
			c-0.367,0.788-0.535,1.734-0.5,2.841c0.033,0.973,0.291,1.886,0.773,2.741C235.97,125.314,236.745,125.943,237.812,126.346z"/>
		<path fill="#0093AF" d="M282.538,122.322c-0.033-0.938-0.311-1.692-0.83-2.263s-1.207-1.048-2.061-1.434
			c-0.855-0.385-1.82-0.704-2.893-0.955c-1.074-0.252-2.172-0.511-3.295-0.78c-1.123-0.268-2.213-0.586-3.268-0.955
			c-1.057-0.368-1.996-0.863-2.816-1.483c-0.822-0.62-1.477-1.408-1.961-2.364c-0.486-0.955-0.713-2.137-0.68-3.545
			c0.033-1.375,0.377-2.573,1.031-3.596s1.5-1.861,2.539-2.515c1.039-0.654,2.205-1.123,3.496-1.408
			c1.289-0.285,2.598-0.386,3.922-0.302s2.598,0.36,3.822,0.829c1.225,0.471,2.289,1.106,3.193,1.911
			c0.303,0.27,0.42,0.562,0.352,0.881c-0.066,0.318-0.209,0.578-0.428,0.779s-0.496,0.327-0.832,0.377
			c-0.336,0.051-0.639-0.042-0.908-0.276c-0.908-0.838-2.111-1.416-3.607-1.735c-1.498-0.318-2.986-0.352-4.465-0.101
			c-1.48,0.252-2.768,0.805-3.859,1.66c-1.094,0.854-1.691,2.036-1.791,3.545c-0.068,1.04,0.143,1.895,0.629,2.565
			c0.488,0.671,1.152,1.231,1.992,1.685c0.842,0.452,1.799,0.821,2.875,1.106s2.186,0.578,3.328,0.88s2.27,0.629,3.379,0.98
			c1.109,0.353,2.094,0.813,2.951,1.383c0.857,0.571,1.545,1.283,2.068,2.138c0.52,0.855,0.781,1.937,0.781,3.244
			c-0.033,1.375-0.404,2.573-1.109,3.596c-0.707,1.023-1.631,1.86-2.773,2.515c-1.145,0.653-2.43,1.115-3.859,1.383
			c-1.43,0.269-2.867,0.369-4.312,0.302c-1.445-0.066-2.816-0.302-4.109-0.704c-1.295-0.402-2.377-0.988-3.248-1.76
			c-0.303-0.269-0.428-0.562-0.377-0.881c0.049-0.318,0.184-0.595,0.402-0.829c0.217-0.234,0.494-0.386,0.828-0.453
			c0.336-0.066,0.637,0.018,0.906,0.252c0.639,0.57,1.455,1.014,2.447,1.332c0.992,0.319,2.053,0.521,3.18,0.604
			c1.127,0.084,2.254,0.034,3.379-0.15c1.127-0.184,2.137-0.503,3.029-0.956c0.891-0.452,1.613-1.056,2.168-1.811
			C282.312,124.259,282.571,123.362,282.538,122.322z"/>
		<path fill="#0093AF" d="M299.638,112.415c0.033-0.436,0.176-0.754,0.428-0.955s0.527-0.302,0.83-0.302
			c0.301,0,0.568,0.101,0.805,0.302c0.234,0.201,0.367,0.52,0.402,0.955c0.1,2.851,0.166,5.7,0.201,8.55
			c0.033,2.85,0.15,5.801,0.352,8.852c-0.033,0.335-0.176,0.595-0.428,0.779c-0.252,0.184-0.52,0.276-0.805,0.276
			s-0.553-0.084-0.805-0.252c-0.252-0.167-0.395-0.435-0.428-0.804l-0.15-2.465c-0.771,0.704-1.719,1.207-2.842,1.509
			s-2.439,0.269-3.947-0.101c-0.906-0.201-1.678-0.553-2.314-1.056s-1.156-1.09-1.559-1.761c-0.402-0.67-0.695-1.408-0.879-2.213
			c-0.186-0.805-0.244-1.626-0.178-2.464c0.068-0.973,0.277-1.919,0.629-2.842c0.354-0.922,0.838-1.743,1.459-2.464
			s1.375-1.291,2.264-1.71c0.887-0.419,1.885-0.629,2.992-0.629c0.805,0.034,1.541,0.21,2.213,0.528
			c0.67,0.318,1.289,0.729,1.861,1.231c-0.035-0.469-0.061-0.955-0.076-1.458C299.646,113.421,299.638,112.918,299.638,112.415z
			 M293.888,126.346c0.666,0.269,1.324,0.345,1.975,0.227c0.65-0.117,1.242-0.36,1.775-0.729c0.533-0.368,1-0.838,1.4-1.408
			c0.4-0.569,0.684-1.173,0.852-1.811l-0.1-2.816c-0.268-0.938-0.676-1.692-1.227-2.263c-0.551-0.569-1.158-0.964-1.826-1.182
			c-0.666-0.218-1.359-0.269-2.076-0.151c-0.715,0.118-1.367,0.395-1.949,0.83c-0.584,0.437-1.059,1.048-1.426,1.836
			s-0.533,1.734-0.5,2.841c0.033,0.973,0.291,1.886,0.775,2.741C292.044,125.314,292.819,125.943,293.888,126.346z"/>
		<path fill="#0093AF" d="M308.187,102.356c0-0.435,0.127-0.754,0.377-0.955c0.252-0.201,0.537-0.302,0.855-0.302
			s0.604,0.101,0.855,0.302s0.377,0.521,0.377,0.955l0.402,27.359c0,0.369-0.143,0.653-0.428,0.854s-0.588,0.302-0.904,0.302
			c-0.32,0-0.621-0.101-0.906-0.302s-0.428-0.485-0.428-0.854L308.187,102.356z"/>
		<path fill="#0093AF" d="M330.968,113.975c0.033,1.576,0.059,2.85,0.076,3.821c0.016,0.974,0.033,1.786,0.049,2.439
			c0.018,0.654,0.025,1.241,0.025,1.761s0,1.098,0,1.734c0,0.638,0.008,1.417,0.025,2.339c0.018,0.923,0.025,2.138,0.025,3.646
			c0,0.402-0.135,0.704-0.402,0.904c-0.27,0.201-0.562,0.302-0.881,0.302s-0.611-0.092-0.879-0.276
			c-0.27-0.184-0.402-0.46-0.402-0.829v-2.565c-0.604,0.939-1.357,1.677-2.264,2.213c-0.904,0.537-2.012,0.805-3.318,0.805
			c-1.141,0.034-2.113-0.176-2.918-0.629c-0.805-0.452-1.459-1.072-1.961-1.86c-0.504-0.787-0.889-1.71-1.156-2.767
			c-0.27-1.056-0.471-2.179-0.604-3.369c-0.135-1.189-0.211-2.405-0.227-3.646c-0.018-1.239-0.025-2.446-0.025-3.62
			c0-0.369,0.125-0.654,0.377-0.855s0.527-0.31,0.83-0.327c0.301-0.017,0.586,0.067,0.855,0.252c0.268,0.185,0.402,0.478,0.402,0.88
			c0.033,1.476,0.066,3.01,0.1,4.602c0.033,1.593,0.176,3.068,0.428,4.426s0.688,2.473,1.309,3.345
			c0.619,0.872,1.533,1.308,2.74,1.308c1.877,0,3.219-1.022,4.023-3.068c0.805-2.045,1.223-4.929,1.258-8.65v-2.111
			c0-0.369,0.125-0.654,0.377-0.855c0.25-0.201,0.527-0.318,0.83-0.352c0.301-0.033,0.586,0.033,0.854,0.201
			S330.935,113.605,330.968,113.975z"/>
		<path fill="#0093AF" d="M349.224,102.256c0.033-0.435,0.168-0.762,0.402-0.98c0.234-0.218,0.504-0.327,0.805-0.327
			c0.303,0,0.578,0.109,0.83,0.327c0.252,0.219,0.395,0.546,0.428,0.98c-0.102,2.448-0.168,4.778-0.201,6.991
			s-0.043,4.409-0.025,6.588c0.018,2.18,0.041,4.384,0.076,6.613c0.033,2.23,0.066,4.568,0.1,7.016
			c-0.066,0.369-0.219,0.646-0.453,0.83c-0.234,0.184-0.494,0.276-0.779,0.276s-0.545-0.093-0.779-0.276
			c-0.234-0.185-0.385-0.461-0.451-0.83c0-0.368-0.01-0.737-0.025-1.106c-0.018-0.368-0.025-0.737-0.025-1.106
			c-1.074,1.04-2.373,1.728-3.898,2.062s-3,0.285-4.426-0.151c-1.426-0.436-2.664-1.265-3.721-2.489
			c-1.057-1.224-1.668-2.892-1.836-5.004c-0.102-2.347,0.334-4.232,1.307-5.658c0.973-1.425,2.189-2.405,3.646-2.941
			c1.459-0.536,2.992-0.646,4.602-0.327c1.609,0.319,3,1.064,4.176,2.237c-0.035-2.044-0.025-4.099,0.023-6.16
			C349.048,106.757,349.124,104.569,349.224,102.256z M348.974,121.518c-0.035-1.509-0.361-2.757-0.982-3.746
			c-0.619-0.989-1.365-1.718-2.236-2.188c-0.873-0.469-1.811-0.679-2.816-0.628c-1.006,0.05-1.912,0.344-2.717,0.88
			c-0.805,0.537-1.451,1.316-1.936,2.339c-0.486,1.022-0.646,2.288-0.479,3.797c0.135,1.274,0.512,2.306,1.133,3.093
			c0.619,0.788,1.34,1.35,2.162,1.685c0.82,0.336,1.701,0.461,2.641,0.377c0.938-0.083,1.793-0.352,2.564-0.805
			c0.77-0.452,1.408-1.089,1.91-1.911C348.722,123.589,348.974,122.624,348.974,121.518z"/>
	</g>
	<g>
		<path fill="#0093AF" d="M134.382,225.618h-0.051l-2.715,9.053c-0.102,0.335-0.295,0.553-0.578,0.653
			c-0.285,0.101-0.57,0.101-0.855,0s-0.527-0.276-0.729-0.527c-0.201-0.252-0.252-0.562-0.152-0.931l8.852-28.867
			c0.102-0.368,0.285-0.629,0.555-0.779c0.268-0.151,0.543-0.218,0.828-0.201s0.555,0.117,0.805,0.302
			c0.252,0.185,0.428,0.427,0.529,0.729l9.504,28.616c0.135,0.369,0.109,0.679-0.074,0.931c-0.186,0.251-0.428,0.427-0.73,0.527
			c-0.301,0.101-0.604,0.101-0.904,0c-0.303-0.101-0.52-0.318-0.654-0.653l-3.018-9.304h-0.1L134.382,225.618z M135.036,223.305
			l9.254-0.352l-4.729-14.635L135.036,223.305z"/>
		<path fill="#0093AF" d="M155.882,234.545c-0.252,0.218-0.537,0.327-0.855,0.327s-0.604-0.109-0.855-0.327
			c-0.25-0.218-0.377-0.527-0.377-0.93c0-2.917-0.051-5.709-0.15-8.374c-0.102-2.665-0.15-5.354-0.15-8.067
			c0-0.405,0.125-0.716,0.377-0.935c0.252-0.218,0.527-0.327,0.83-0.327c0.301,0,0.586,0.109,0.854,0.327
			c0.27,0.219,0.402,0.529,0.402,0.935l0.051,2.46c0.57-0.784,1.258-1.407,2.062-1.869s1.793-0.728,2.967-0.796
			c1.475-0.033,2.699,0.274,3.672,0.925c0.971,0.649,1.76,1.488,2.363,2.515c0.604,1.025,1.047,2.168,1.332,3.425
			c0.285,1.258,0.461,2.489,0.529,3.696c0.066,1.073,0.1,2.121,0.1,3.144c0,1.023-0.018,1.937-0.051,2.741
			c0,0.436-0.125,0.754-0.377,0.955c-0.25,0.201-0.527,0.31-0.83,0.327c-0.301,0.017-0.578-0.067-0.828-0.252
			c-0.252-0.184-0.377-0.46-0.377-0.829c-0.035-0.838-0.035-1.777,0-2.816c0.031-1.039,0.016-2.096-0.051-3.169
			c-0.035-0.704-0.135-1.533-0.303-2.489c-0.168-0.955-0.443-1.86-0.83-2.716c-0.385-0.854-0.904-1.575-1.559-2.162
			s-1.482-0.864-2.488-0.83c-1.141,0.067-2.047,0.377-2.717,0.931c-0.67,0.553-1.182,1.249-1.533,2.087s-0.578,1.769-0.68,2.791
			c-0.1,1.023-0.15,2.021-0.15,2.992v5.382C156.259,234.018,156.134,234.327,155.882,234.545z"/>
		<path fill="#0093AF" d="M179.091,219.281l0.201,14.535c-0.035,0.369-0.168,0.637-0.402,0.804
			c-0.236,0.168-0.496,0.252-0.779,0.252c-0.287,0-0.562-0.084-0.83-0.252c-0.27-0.167-0.42-0.435-0.453-0.804l-0.201-14.435
			l-3.672,0.051c-0.402,0-0.721-0.108-0.955-0.327c-0.234-0.218-0.369-0.46-0.402-0.729s0.051-0.528,0.252-0.78
			c0.201-0.251,0.52-0.377,0.955-0.377l3.771-0.101l-0.1-8.901c0-0.436,0.125-0.755,0.377-0.956s0.527-0.302,0.83-0.302
			c0.301,0,0.586,0.101,0.854,0.302c0.27,0.201,0.402,0.521,0.402,0.956l0.102,8.852l4.225-0.101c0.369,0,0.654,0.108,0.855,0.326
			c0.201,0.219,0.316,0.47,0.352,0.755c0.033,0.285-0.035,0.545-0.201,0.779c-0.168,0.235-0.438,0.352-0.805,0.352L179.091,219.281z
			"/>
		<path fill="#0093AF" d="M188.042,212.543c0-0.369,0.117-0.671,0.352-0.905s0.52-0.353,0.855-0.353c0.367,0,0.67,0.118,0.904,0.353
			s0.352,0.536,0.352,0.905c0,0.335-0.117,0.62-0.352,0.854c-0.234,0.235-0.537,0.353-0.904,0.353c-0.336,0-0.621-0.117-0.855-0.353
			C188.159,213.163,188.042,212.878,188.042,212.543z M188.042,217.622c0-0.436,0.133-0.754,0.402-0.955
			c0.268-0.201,0.561-0.302,0.879-0.302s0.611,0.101,0.881,0.302c0.268,0.201,0.402,0.52,0.402,0.955
			c0,1.509,0.008,2.935,0.025,4.274c0.016,1.342,0.041,2.666,0.074,3.974s0.059,2.632,0.076,3.973
			c0.016,1.342,0.025,2.767,0.025,4.275c0,0.368-0.135,0.645-0.402,0.829c-0.27,0.185-0.57,0.276-0.906,0.276
			c-0.334,0-0.637-0.092-0.904-0.276c-0.27-0.185-0.402-0.461-0.402-0.829c0-1.509-0.008-2.934-0.025-4.275
			c-0.018-1.341-0.033-2.665-0.051-3.973s-0.033-2.632-0.049-3.974C188.05,220.557,188.042,219.131,188.042,217.622z"/>
		<path fill="#0093AF" d="M203.253,233.716c-1.336,0.033-2.506-0.169-3.508-0.605s-1.83-1.034-2.482-1.791s-1.127-1.614-1.428-2.573
			s-0.451-1.942-0.451-2.951c0-1.01,0.166-1.984,0.502-2.926c0.334-0.941,0.826-1.782,1.479-2.522
			c0.65-0.74,1.453-1.338,2.406-1.792c0.951-0.454,2.062-0.697,3.332-0.731c1.271,0,2.391,0.228,3.359,0.682
			s1.771,1.059,2.406,1.815c0.635,0.758,1.102,1.624,1.404,2.599c0.299,0.976,0.449,1.968,0.449,2.977
			c0,0.976-0.158,1.926-0.475,2.851c-0.318,0.926-0.787,1.758-1.404,2.498c-0.619,0.74-1.395,1.337-2.332,1.791
			C205.575,233.489,204.489,233.716,203.253,233.716z M203.28,231.352c0.836,0,1.566-0.15,2.188-0.452
			c0.619-0.302,1.139-0.712,1.559-1.232c0.418-0.52,0.729-1.114,0.93-1.785s0.303-1.358,0.303-2.062s-0.109-1.391-0.328-2.062
			c-0.217-0.671-0.553-1.266-1.006-1.785c-0.451-0.52-1.006-0.931-1.658-1.232c-0.654-0.302-1.4-0.453-2.238-0.453
			c-0.838,0.034-1.576,0.219-2.213,0.554c-0.637,0.336-1.166,0.763-1.584,1.282c-0.42,0.521-0.738,1.106-0.955,1.761
			c-0.219,0.653-0.328,1.332-0.328,2.036c0.033,1.375,0.504,2.607,1.408,3.696C200.263,230.706,201.569,231.285,203.28,231.352z"/>
		<path fill="#0093AF" d="M226.966,217.421c0.033-0.436,0.164-0.762,0.395-0.98c0.229-0.218,0.484-0.327,0.764-0.327
			c0.277,0,0.531,0.109,0.762,0.327c0.229,0.219,0.361,0.545,0.395,0.98c0,1.677-0.01,3.149-0.025,4.419
			c-0.018,1.271-0.033,2.439-0.051,3.508c-0.018,1.069-0.025,2.088-0.025,3.057s0,1.954,0,2.956c0,1.574,0.018,3.184,0.051,4.826
			s0.217,3.27,0.553,4.879c0.201,0.837,0.504,1.491,0.906,1.961c0.402,0.469,0.854,0.737,1.357,0.805
			c0.502,0.066,1.014-0.075,1.533-0.428c0.52-0.352,0.98-0.914,1.383-1.685c0.234-0.47,0.512-0.763,0.83-0.88
			c0.318-0.118,0.596-0.109,0.83,0.025c0.234,0.133,0.402,0.359,0.504,0.679c0.1,0.318,0.066,0.679-0.102,1.081
			c-0.469,0.972-1.105,1.76-1.91,2.363s-1.652,0.956-2.541,1.057s-1.742-0.067-2.561-0.503c-0.818-0.437-1.475-1.19-1.967-2.264
			c-0.328-0.637-0.574-1.416-0.736-2.338c-0.164-0.923-0.279-1.895-0.346-2.917c-0.066-1.023-0.098-2.079-0.098-3.169
			c0-1.089,0-2.137,0-3.143c-0.672,0.616-1.451,1.121-2.34,1.515s-1.885,0.591-2.992,0.591c-1.273,0-2.396-0.227-3.369-0.68
			c-0.973-0.452-1.777-1.056-2.414-1.811c-0.637-0.754-1.105-1.617-1.408-2.59c-0.301-0.972-0.453-1.961-0.453-2.967
			c0-0.973,0.16-1.919,0.479-2.842c0.318-0.922,0.787-1.751,1.408-2.489c0.619-0.737,1.398-1.333,2.338-1.785
			c0.938-0.453,2.027-0.679,3.268-0.679c1.24-0.033,2.312,0.143,3.217,0.527c0.904,0.386,1.691,0.914,2.363,1.584L226.966,217.421z
			 M221.358,220.338c-0.842,0-1.576,0.15-2.199,0.451c-0.623,0.3-1.145,0.709-1.566,1.227c-0.42,0.517-0.732,1.101-0.936,1.751
			c-0.201,0.651-0.303,1.327-0.303,2.028c0,0.7,0.109,1.394,0.328,2.077c0.219,0.685,0.557,1.285,1.012,1.803
			c0.453,0.517,1.002,0.927,1.643,1.227c0.639,0.3,1.396,0.45,2.273,0.45c0.842-0.033,1.584-0.217,2.225-0.551
			c0.639-0.333,1.17-0.759,1.592-1.276c0.42-0.517,0.74-1.102,0.959-1.752s0.33-1.326,0.33-2.027
			c-0.068-1.368-0.549-2.595-1.441-3.68S223.075,220.404,221.358,220.338z"/>
		<path fill="#0093AF" d="M248.741,217.975c0.033,1.576,0.059,2.85,0.076,3.821c0.018,0.974,0.033,1.786,0.051,2.439
			c0.016,0.654,0.025,1.241,0.025,1.761s0,1.098,0,1.734c0,0.638,0.008,1.417,0.025,2.339c0.016,0.923,0.023,2.138,0.023,3.646
			c0,0.402-0.133,0.704-0.402,0.904c-0.268,0.201-0.561,0.302-0.879,0.302s-0.613-0.092-0.881-0.276
			c-0.268-0.184-0.402-0.46-0.402-0.829v-2.565c-0.604,0.939-1.357,1.677-2.262,2.213c-0.906,0.537-2.012,0.805-3.32,0.805
			c-1.141,0.034-2.111-0.176-2.916-0.629c-0.805-0.452-1.459-1.072-1.963-1.86c-0.502-0.787-0.889-1.71-1.156-2.767
			c-0.268-1.056-0.469-2.179-0.604-3.369c-0.135-1.189-0.209-2.405-0.227-3.646c-0.018-1.239-0.025-2.446-0.025-3.62
			c0-0.369,0.127-0.654,0.379-0.855c0.25-0.201,0.527-0.31,0.828-0.327c0.303-0.017,0.588,0.067,0.855,0.252s0.402,0.478,0.402,0.88
			c0.033,1.476,0.066,3.01,0.102,4.602c0.033,1.593,0.176,3.068,0.428,4.426c0.25,1.357,0.686,2.473,1.307,3.345
			c0.619,0.872,1.533,1.308,2.74,1.308c1.879,0,3.219-1.022,4.023-3.068c0.805-2.045,1.225-4.929,1.258-8.65v-2.111
			c0-0.369,0.125-0.654,0.377-0.855s0.529-0.318,0.83-0.352s0.586,0.033,0.855,0.201
			C248.558,217.338,248.708,217.605,248.741,217.975z"/>
		<path fill="#0093AF" d="M254.476,212.543c0-0.369,0.117-0.671,0.352-0.905s0.52-0.353,0.855-0.353c0.367,0,0.67,0.118,0.904,0.353
			s0.352,0.536,0.352,0.905c0,0.335-0.117,0.62-0.352,0.854c-0.234,0.235-0.537,0.353-0.904,0.353c-0.336,0-0.621-0.117-0.855-0.353
			C254.593,213.163,254.476,212.878,254.476,212.543z M254.476,217.622c0-0.436,0.133-0.754,0.402-0.955
			c0.268-0.201,0.561-0.302,0.879-0.302s0.611,0.101,0.881,0.302c0.268,0.201,0.402,0.52,0.402,0.955
			c0,1.509,0.008,2.935,0.025,4.274c0.016,1.342,0.041,2.666,0.074,3.974s0.059,2.632,0.076,3.973
			c0.016,1.342,0.025,2.767,0.025,4.275c0,0.368-0.135,0.645-0.402,0.829c-0.27,0.185-0.57,0.276-0.906,0.276
			c-0.334,0-0.637-0.092-0.904-0.276c-0.27-0.185-0.402-0.461-0.402-0.829c0-1.509-0.008-2.934-0.025-4.275
			c-0.018-1.341-0.033-2.665-0.051-3.973s-0.033-2.632-0.049-3.974C254.483,220.557,254.476,219.131,254.476,217.622z"/>
		<path fill="#0093AF" d="M273.134,216.415c0.031-0.436,0.176-0.754,0.426-0.955c0.252-0.201,0.529-0.302,0.83-0.302
			c0.303,0,0.57,0.101,0.805,0.302s0.369,0.52,0.402,0.955c0.102,2.851,0.168,5.7,0.201,8.55s0.152,5.801,0.352,8.852
			c-0.033,0.335-0.176,0.595-0.426,0.779c-0.252,0.184-0.521,0.276-0.805,0.276c-0.285,0-0.555-0.084-0.805-0.252
			c-0.252-0.167-0.395-0.435-0.428-0.804l-0.15-2.465c-0.773,0.704-1.719,1.207-2.842,1.509c-1.125,0.302-2.439,0.269-3.949-0.101
			c-0.904-0.201-1.676-0.553-2.312-1.056s-1.156-1.09-1.559-1.761c-0.402-0.67-0.697-1.408-0.881-2.213s-0.244-1.626-0.176-2.464
			c0.066-0.973,0.277-1.919,0.629-2.842c0.352-0.922,0.838-1.743,1.459-2.464c0.619-0.721,1.373-1.291,2.262-1.71
			s1.887-0.629,2.992-0.629c0.805,0.034,1.543,0.21,2.213,0.528c0.672,0.318,1.291,0.729,1.861,1.231
			c-0.033-0.469-0.059-0.955-0.076-1.458C273.142,217.421,273.134,216.918,273.134,216.415z M267.382,230.346
			c0.666,0.269,1.326,0.345,1.977,0.227c0.648-0.117,1.24-0.36,1.775-0.729c0.533-0.368,1-0.838,1.4-1.408
			c0.4-0.569,0.684-1.173,0.85-1.811l-0.1-2.816c-0.268-0.938-0.676-1.692-1.225-2.263c-0.551-0.569-1.16-0.964-1.826-1.182
			c-0.668-0.218-1.359-0.269-2.076-0.151c-0.717,0.118-1.367,0.395-1.951,0.83c-0.582,0.437-1.059,1.048-1.424,1.836
			c-0.367,0.788-0.535,1.734-0.5,2.841c0.033,0.973,0.291,1.886,0.773,2.741C265.54,229.314,266.315,229.943,267.382,230.346z"/>
	</g>
	<g>
		<path fill="#0093AF" d="M637.995,210.028l-8.398,23.587c-0.066,0.269-0.234,0.47-0.502,0.604c-0.27,0.134-0.553,0.201-0.855,0.201
			c-0.301,0-0.588-0.067-0.855-0.201s-0.451-0.335-0.553-0.604l-8.6-23.939l-1.51,24.19c0,0.369-0.133,0.637-0.402,0.805
			c-0.268,0.167-0.553,0.234-0.854,0.201c-0.303-0.034-0.578-0.151-0.83-0.353c-0.252-0.2-0.361-0.485-0.328-0.854l1.811-28.214
			c0.033-0.402,0.178-0.704,0.428-0.905c0.252-0.201,0.545-0.317,0.881-0.352c0.334-0.033,0.67,0.018,1.006,0.15
			c0.334,0.135,0.604,0.353,0.805,0.654l8.951,25.146l8.752-24.492c0.066-0.368,0.258-0.645,0.578-0.829
			c0.318-0.185,0.66-0.277,1.031-0.277c0.367,0,0.703,0.101,1.006,0.302c0.301,0.201,0.469,0.503,0.502,0.905l2.717,27.963
			c0.031,0.369-0.068,0.653-0.303,0.854s-0.502,0.31-0.805,0.327c-0.301,0.017-0.596-0.051-0.881-0.201
			c-0.285-0.151-0.443-0.41-0.477-0.779L637.995,210.028z"/>
		<path fill="#0093AF" d="M661.382,224.06c-0.471,0.269-1.283,0.521-2.439,0.754c-1.156,0.235-2.406,0.453-3.746,0.654
			c-1.342,0.201-2.65,0.369-3.924,0.503s-2.264,0.218-2.967,0.251c0.066,0.939,0.268,1.803,0.604,2.59
			c0.334,0.789,0.771,1.442,1.307,1.962c0.537,0.521,1.174,0.905,1.912,1.156c0.736,0.252,1.541,0.294,2.414,0.126
			c1.039-0.167,1.969-0.536,2.791-1.106c0.82-0.569,1.668-1.408,2.539-2.515c0.268-0.302,0.57-0.469,0.906-0.503
			c0.334-0.033,0.629,0.034,0.879,0.201c0.252,0.168,0.428,0.395,0.529,0.679c0.1,0.286,0.066,0.596-0.102,0.931
			c-1.141,1.476-2.287,2.565-3.445,3.27c-1.156,0.704-2.32,1.174-3.494,1.408c-1.24,0.233-2.424,0.192-3.545-0.126
			c-1.125-0.318-2.113-0.872-2.969-1.66c-0.854-0.787-1.533-1.785-2.037-2.992c-0.502-1.207-0.754-2.581-0.754-4.124
			c0-1.106,0.127-2.195,0.377-3.269c0.252-1.072,0.646-2.054,1.182-2.942c0.537-0.888,1.232-1.643,2.088-2.263
			s1.902-1.014,3.143-1.182c1.039-0.134,2.08-0.076,3.119,0.176c1.039,0.251,1.977,0.679,2.816,1.282
			c0.838,0.604,1.541,1.375,2.111,2.313c0.57,0.939,0.939,2.029,1.107,3.269C661.851,223.474,661.716,223.858,661.382,224.06z
			 M652.53,218.377c-0.672,0.134-1.25,0.377-1.734,0.729c-0.488,0.353-0.898,0.764-1.232,1.232c-0.336,0.47-0.596,0.998-0.779,1.584
			c-0.186,0.587-0.311,1.199-0.379,1.836c1.912,0,3.73-0.151,5.457-0.453s3.512-0.653,5.357-1.056
			c-0.135-0.637-0.395-1.232-0.781-1.785c-0.385-0.554-0.871-1.014-1.457-1.384c-0.588-0.368-1.258-0.619-2.012-0.754
			C654.214,218.192,653.401,218.209,652.53,218.377z"/>
		<path fill="#0093AF" d="M679.335,206.256c0.033-0.435,0.166-0.762,0.402-0.98c0.234-0.218,0.502-0.327,0.805-0.327
			c0.301,0,0.578,0.109,0.83,0.327c0.25,0.219,0.393,0.546,0.426,0.98c-0.1,2.448-0.168,4.778-0.201,6.991s-0.041,4.409-0.023,6.588
			c0.016,2.18,0.041,4.384,0.074,6.613c0.033,2.23,0.066,4.568,0.102,7.016c-0.068,0.369-0.219,0.646-0.453,0.83
			c-0.234,0.184-0.494,0.276-0.779,0.276s-0.545-0.093-0.779-0.276c-0.236-0.185-0.387-0.461-0.453-0.83
			c0-0.368-0.008-0.737-0.025-1.106c-0.018-0.368-0.025-0.737-0.025-1.106c-1.072,1.04-2.371,1.728-3.896,2.062
			c-1.527,0.335-3.002,0.285-4.426-0.151c-1.426-0.436-2.666-1.265-3.723-2.489c-1.055-1.224-1.668-2.892-1.836-5.004
			c-0.1-2.347,0.336-4.232,1.309-5.658c0.973-1.425,2.188-2.405,3.646-2.941c1.457-0.536,2.992-0.646,4.602-0.327
			c1.609,0.319,3,1.064,4.174,2.237c-0.033-2.044-0.025-4.099,0.025-6.16C679.159,210.757,679.233,208.569,679.335,206.256z
			 M679.083,225.518c-0.033-1.509-0.361-2.757-0.98-3.746c-0.621-0.989-1.367-1.718-2.238-2.188
			c-0.873-0.469-1.811-0.679-2.816-0.628c-1.006,0.05-1.91,0.344-2.715,0.88c-0.805,0.537-1.451,1.316-1.938,2.339
			s-0.645,2.288-0.477,3.797c0.133,1.274,0.51,2.306,1.131,3.093c0.619,0.788,1.34,1.35,2.162,1.685
			c0.822,0.336,1.701,0.461,2.641,0.377c0.938-0.083,1.793-0.352,2.564-0.805c0.771-0.452,1.408-1.089,1.912-1.911
			C678.831,227.589,679.083,226.624,679.083,225.518z"/>
		<path fill="#0093AF" d="M701.362,224.06c-0.471,0.269-1.283,0.521-2.439,0.754c-1.156,0.235-2.406,0.453-3.746,0.654
			c-1.342,0.201-2.65,0.369-3.924,0.503s-2.264,0.218-2.967,0.251c0.066,0.939,0.268,1.803,0.604,2.59
			c0.334,0.789,0.771,1.442,1.307,1.962c0.537,0.521,1.174,0.905,1.912,1.156c0.736,0.252,1.541,0.294,2.414,0.126
			c1.039-0.167,1.969-0.536,2.791-1.106c0.82-0.569,1.668-1.408,2.539-2.515c0.268-0.302,0.57-0.469,0.906-0.503
			c0.334-0.033,0.629,0.034,0.879,0.201c0.252,0.168,0.428,0.395,0.529,0.679c0.1,0.286,0.066,0.596-0.102,0.931
			c-1.141,1.476-2.287,2.565-3.445,3.27c-1.156,0.704-2.32,1.174-3.494,1.408c-1.24,0.233-2.424,0.192-3.545-0.126
			c-1.125-0.318-2.113-0.872-2.969-1.66c-0.854-0.787-1.533-1.785-2.037-2.992c-0.502-1.207-0.754-2.581-0.754-4.124
			c0-1.106,0.127-2.195,0.377-3.269c0.252-1.072,0.646-2.054,1.182-2.942c0.537-0.888,1.232-1.643,2.088-2.263
			s1.902-1.014,3.143-1.182c1.039-0.134,2.08-0.076,3.119,0.176c1.039,0.251,1.977,0.679,2.816,1.282
			c0.838,0.604,1.541,1.375,2.111,2.313c0.57,0.939,0.939,2.029,1.107,3.269C701.831,223.474,701.696,223.858,701.362,224.06z
			 M692.511,218.377c-0.672,0.134-1.25,0.377-1.734,0.729c-0.488,0.353-0.898,0.764-1.232,1.232
			c-0.336,0.47-0.596,0.998-0.779,1.584c-0.186,0.587-0.311,1.199-0.379,1.836c1.912,0,3.73-0.151,5.457-0.453
			s3.512-0.653,5.357-1.056c-0.135-0.637-0.395-1.232-0.781-1.785c-0.385-0.554-0.871-1.014-1.457-1.384
			c-0.588-0.368-1.258-0.619-2.012-0.754C694.194,218.192,693.382,218.209,692.511,218.377z"/>
		<path fill="#0093AF" d="M706.792,206.356c0-0.435,0.127-0.754,0.377-0.955c0.252-0.201,0.537-0.302,0.855-0.302
			s0.604,0.101,0.855,0.302s0.377,0.521,0.377,0.955l0.402,27.359c0,0.369-0.143,0.653-0.428,0.854s-0.588,0.302-0.904,0.302
			c-0.32,0-0.621-0.101-0.906-0.302s-0.428-0.485-0.428-0.854L706.792,206.356z"/>
		<path fill="#0093AF" d="M715.694,206.356c0-0.435,0.125-0.754,0.377-0.955s0.535-0.302,0.855-0.302
			c0.318,0,0.604,0.101,0.854,0.302c0.252,0.201,0.377,0.521,0.377,0.955l0.402,27.359c0,0.369-0.143,0.653-0.426,0.854
			c-0.287,0.201-0.588,0.302-0.906,0.302s-0.621-0.101-0.904-0.302c-0.285-0.201-0.428-0.485-0.428-0.854L715.694,206.356z"/>
		<path fill="#0093AF" d="M724.595,212.543c0-0.369,0.117-0.671,0.352-0.905s0.52-0.353,0.855-0.353c0.369,0,0.67,0.118,0.906,0.353
			c0.234,0.234,0.352,0.536,0.352,0.905c0,0.335-0.117,0.62-0.352,0.854c-0.236,0.235-0.537,0.353-0.906,0.353
			c-0.336,0-0.621-0.117-0.855-0.353C724.712,213.163,724.595,212.878,724.595,212.543z M724.595,217.622
			c0-0.436,0.135-0.754,0.402-0.955s0.561-0.302,0.881-0.302c0.318,0,0.611,0.101,0.879,0.302c0.27,0.201,0.402,0.52,0.402,0.955
			c0,1.509,0.008,2.935,0.025,4.274c0.018,1.342,0.043,2.666,0.076,3.974s0.059,2.632,0.076,3.973
			c0.016,1.342,0.023,2.767,0.023,4.275c0,0.368-0.133,0.645-0.402,0.829c-0.268,0.185-0.57,0.276-0.904,0.276
			c-0.336,0-0.637-0.092-0.906-0.276c-0.268-0.185-0.402-0.461-0.402-0.829c0-1.509-0.008-2.934-0.023-4.275
			c-0.018-1.341-0.035-2.665-0.051-3.973c-0.018-1.308-0.033-2.632-0.051-3.974C724.603,220.557,724.595,219.131,724.595,217.622z"
			/>
		<path fill="#0093AF" d="M735.28,234.545c-0.25,0.218-0.535,0.327-0.854,0.327c-0.32,0-0.604-0.109-0.855-0.327
			s-0.377-0.527-0.377-0.93c0-2.917-0.051-5.709-0.152-8.374c-0.1-2.665-0.15-5.354-0.15-8.067c0-0.405,0.127-0.716,0.377-0.935
			c0.252-0.218,0.529-0.327,0.83-0.327c0.303,0,0.586,0.109,0.855,0.327c0.268,0.219,0.402,0.529,0.402,0.935l0.051,2.46
			c0.568-0.784,1.256-1.407,2.061-1.869s1.795-0.728,2.969-0.796c1.475-0.033,2.697,0.274,3.67,0.925
			c0.973,0.649,1.762,1.488,2.363,2.515c0.604,1.025,1.049,2.168,1.334,3.425c0.283,1.258,0.461,2.489,0.527,3.696
			c0.066,1.073,0.102,2.121,0.102,3.144c0,1.023-0.018,1.937-0.051,2.741c0,0.436-0.125,0.754-0.377,0.955s-0.529,0.31-0.83,0.327
			c-0.303,0.017-0.578-0.067-0.83-0.252c-0.252-0.184-0.377-0.46-0.377-0.829c-0.033-0.838-0.033-1.777,0-2.816
			s0.016-2.096-0.051-3.169c-0.033-0.704-0.135-1.533-0.301-2.489c-0.168-0.955-0.445-1.86-0.83-2.716
			c-0.387-0.854-0.906-1.575-1.559-2.162c-0.654-0.587-1.484-0.864-2.49-0.83c-1.141,0.067-2.045,0.377-2.715,0.931
			c-0.672,0.553-1.182,1.249-1.535,2.087c-0.352,0.838-0.578,1.769-0.678,2.791c-0.102,1.023-0.152,2.021-0.152,2.992v5.382
			C735.657,234.018,735.532,234.327,735.28,234.545z"/>
	</g>
	<g>
		<path fill="#0093AF" d="M697.749,138.569c-0.166,0-0.287-0.054-0.361-0.162c-0.076-0.108-0.117-0.241-0.125-0.4
			c-0.01-0.158,0.012-0.328,0.062-0.512c0.049-0.184,0.125-0.342,0.225-0.476c0.217-0.316,0.541-0.763,0.975-1.337
			c0.434-0.575,0.908-1.209,1.426-1.9c0.516-0.691,1.037-1.412,1.562-2.162c0.523-0.75,0.994-1.467,1.412-2.15
			c0.482-0.783,0.754-1.483,0.812-2.1c0.059-0.617-0.018-1.129-0.225-1.538c-0.209-0.408-0.518-0.7-0.926-0.875
			s-0.846-0.212-1.312-0.112s-0.922,0.346-1.363,0.737s-0.795,0.954-1.062,1.688c-0.049,0.167-0.154,0.271-0.312,0.312
			c-0.158,0.042-0.309,0.038-0.449-0.013c-0.143-0.05-0.258-0.133-0.35-0.25c-0.092-0.116-0.105-0.266-0.037-0.449
			c0.398-1.017,0.908-1.792,1.523-2.325c0.617-0.533,1.254-0.862,1.914-0.987c0.658-0.125,1.287-0.062,1.887,0.188
			s1.074,0.646,1.426,1.188c0.35,0.541,0.523,1.212,0.523,2.012c0,0.801-0.258,1.684-0.773,2.65c-0.4,0.733-0.867,1.492-1.4,2.275
			s-1.059,1.524-1.576,2.225c-0.516,0.7-0.975,1.329-1.375,1.888c-0.398,0.559-0.666,0.979-0.799,1.263l6.574-0.051
			c0.184,0.018,0.326,0.092,0.426,0.226s0.158,0.274,0.174,0.425c0.018,0.15-0.02,0.292-0.111,0.425
			c-0.092,0.134-0.23,0.2-0.412,0.2L697.749,138.569z"/>
		<path fill="#0093AF" d="M722.774,131.444c0-1.683,0.262-3.096,0.787-4.237s1.184-2,1.975-2.575
			c0.793-0.574,1.654-0.87,2.588-0.887s1.797,0.25,2.588,0.8s1.453,1.392,1.988,2.524c0.533,1.134,0.807,2.551,0.824,4.25
			c0,0.9-0.104,1.771-0.312,2.613s-0.525,1.592-0.949,2.25c-0.426,0.658-0.963,1.195-1.613,1.612s-1.416,0.642-2.301,0.675
			c-0.982,0.033-1.828-0.138-2.537-0.513s-1.287-0.892-1.736-1.55c-0.451-0.658-0.779-1.416-0.988-2.275
			C722.878,133.274,722.774,132.378,722.774,131.444z M728.237,137.295c0.701,0,1.312-0.175,1.83-0.525
			c0.518-0.35,0.941-0.808,1.266-1.375c0.326-0.566,0.568-1.212,0.729-1.938c0.158-0.725,0.238-1.462,0.238-2.212
			c0-1.4-0.209-2.571-0.627-3.513s-0.938-1.642-1.555-2.101c-0.619-0.458-1.291-0.688-2.02-0.688c-0.727,0-1.395,0.238-2.006,0.713
			c-0.609,0.475-1.115,1.188-1.518,2.138c-0.4,0.95-0.592,2.125-0.576,3.524c0,0.734,0.066,1.463,0.201,2.188
			c0.133,0.726,0.359,1.367,0.676,1.926c0.318,0.559,0.748,1.012,1.293,1.362C726.712,137.145,727.401,137.312,728.237,137.295z"/>
		<path fill="#0093AF" d="M752.05,124.495c0-0.217,0.062-0.375,0.188-0.476c0.125-0.1,0.266-0.149,0.424-0.149
			s0.301,0.05,0.426,0.149c0.125,0.101,0.188,0.259,0.188,0.476l0.199,13.6c0,0.184-0.07,0.325-0.211,0.425
			c-0.143,0.101-0.293,0.15-0.451,0.15s-0.309-0.05-0.449-0.15c-0.143-0.1-0.213-0.241-0.213-0.425L752.05,124.495z"/>
		<path fill="#0093AF" d="M771.974,134.395c0-0.883,0.197-1.608,0.592-2.175c0.393-0.566,0.891-1.008,1.494-1.325
			c-0.586-0.283-1.072-0.7-1.457-1.25c-0.387-0.55-0.578-1.241-0.578-2.075c0-0.949,0.217-1.729,0.65-2.337
			c0.436-0.608,0.982-1.054,1.643-1.338c0.66-0.283,1.375-0.408,2.145-0.375c0.768,0.034,1.482,0.209,2.143,0.525
			s1.217,0.771,1.668,1.362s0.686,1.305,0.701,2.138c0.018,0.8-0.178,1.475-0.584,2.024c-0.406,0.551-0.924,0.976-1.555,1.275
			c0.721,0.316,1.32,0.771,1.797,1.362c0.479,0.592,0.725,1.312,0.742,2.163c0,0.666-0.139,1.254-0.414,1.762
			c-0.277,0.509-0.643,0.938-1.094,1.288c-0.453,0.35-0.969,0.621-1.547,0.812s-1.168,0.287-1.771,0.287
			c-0.586,0.017-1.152-0.054-1.695-0.212c-0.545-0.158-1.031-0.408-1.459-0.75s-0.77-0.775-1.029-1.301
			C772.104,135.732,771.974,135.111,771.974,134.395z M780.149,134.52c0-0.633-0.168-1.171-0.5-1.612
			c-0.334-0.441-0.754-0.779-1.264-1.013c-0.508-0.233-1.059-0.366-1.648-0.399c-0.592-0.033-1.146,0.05-1.664,0.25
			c-0.516,0.199-0.949,0.512-1.299,0.938c-0.35,0.425-0.543,0.971-0.576,1.637c-0.033,0.5,0.047,0.938,0.238,1.312
			s0.449,0.688,0.775,0.938c0.324,0.25,0.695,0.434,1.111,0.551c0.418,0.116,0.852,0.175,1.301,0.175
			c0.434,0,0.863-0.059,1.287-0.175c0.426-0.117,0.805-0.296,1.139-0.538c0.332-0.241,0.6-0.533,0.799-0.875
			C780.05,135.366,780.149,134.97,780.149,134.52z M779.749,127.645c0-0.616-0.162-1.146-0.486-1.587
			c-0.322-0.441-0.721-0.783-1.195-1.025c-0.473-0.241-0.992-0.375-1.557-0.4c-0.564-0.024-1.088,0.059-1.568,0.25
			c-0.482,0.192-0.885,0.505-1.207,0.938c-0.324,0.434-0.486,0.984-0.486,1.65c0,0.634,0.158,1.158,0.473,1.575
			c0.316,0.417,0.715,0.729,1.195,0.938c0.482,0.208,1.004,0.312,1.57,0.312c0.564,0,1.086-0.101,1.568-0.3
			c0.48-0.2,0.885-0.496,1.207-0.888C779.587,128.716,779.749,128.229,779.749,127.645z"/>
		<path fill="#0093AF" d="M799.124,131.444c0-1.683,0.262-3.096,0.787-4.237s1.184-2,1.975-2.575
			c0.793-0.574,1.654-0.87,2.588-0.887s1.797,0.25,2.588,0.8s1.453,1.392,1.988,2.524c0.533,1.134,0.807,2.551,0.824,4.25
			c0,0.9-0.104,1.771-0.312,2.613s-0.525,1.592-0.949,2.25c-0.426,0.658-0.963,1.195-1.613,1.612s-1.416,0.642-2.301,0.675
			c-0.982,0.033-1.828-0.138-2.537-0.513s-1.287-0.892-1.736-1.55c-0.451-0.658-0.779-1.416-0.988-2.275
			C799.228,133.274,799.124,132.378,799.124,131.444z M804.587,137.295c0.701,0,1.312-0.175,1.83-0.525
			c0.518-0.35,0.941-0.808,1.266-1.375c0.326-0.566,0.568-1.212,0.729-1.938c0.158-0.725,0.238-1.462,0.238-2.212
			c0-1.4-0.209-2.571-0.627-3.513s-0.938-1.642-1.555-2.101c-0.619-0.458-1.291-0.688-2.02-0.688c-0.727,0-1.395,0.238-2.006,0.713
			c-0.609,0.475-1.115,1.188-1.518,2.138c-0.4,0.95-0.592,2.125-0.576,3.524c0,0.734,0.066,1.463,0.201,2.188
			c0.133,0.726,0.359,1.367,0.676,1.926c0.318,0.559,0.748,1.012,1.293,1.362C803.062,137.145,803.751,137.312,804.587,137.295z"/>
		<path fill="#0093AF" d="M826.8,124.97c-0.201,0-0.355-0.054-0.463-0.162c-0.109-0.108-0.168-0.233-0.176-0.375
			s0.037-0.271,0.139-0.388c0.1-0.116,0.258-0.184,0.475-0.2l6.1-0.05c0.283,0,0.471,0.134,0.562,0.399
			c0.092,0.268,0.096,0.534,0.012,0.801l-3.949,13.074c-0.066,0.2-0.176,0.342-0.324,0.426c-0.15,0.083-0.301,0.107-0.451,0.074
			s-0.271-0.116-0.361-0.25c-0.092-0.133-0.098-0.308-0.014-0.524l3.9-12.9L826.8,124.97z"/>
		<path fill="#0093AF" d="M860.448,134.37c0,1.083-0.316,1.945-0.951,2.587c-0.633,0.642-1.416,1.084-2.35,1.325s-1.934,0.3-3,0.175
			s-2.049-0.412-2.949-0.862c-0.217-0.1-0.342-0.229-0.375-0.388c-0.033-0.158-0.014-0.304,0.062-0.438
			c0.074-0.133,0.188-0.233,0.338-0.3c0.148-0.066,0.299-0.059,0.449,0.025c0.449,0.233,0.949,0.412,1.5,0.537
			s1.104,0.196,1.662,0.213s1.1-0.029,1.625-0.138s0.992-0.279,1.4-0.513s0.738-0.529,0.988-0.888s0.375-0.787,0.375-1.287
			c0-0.934-0.521-1.642-1.562-2.125c-1.043-0.483-2.562-0.65-4.562-0.5c-0.301,0.033-0.51-0.009-0.625-0.125
			c-0.117-0.116-0.168-0.25-0.15-0.4c0.016-0.149,0.082-0.287,0.199-0.412s0.268-0.188,0.451-0.188c0.949,0,1.77-0.083,2.461-0.25
			s1.268-0.4,1.727-0.7c0.457-0.3,0.799-0.646,1.023-1.037c0.227-0.392,0.338-0.812,0.338-1.263c0-0.634-0.225-1.154-0.674-1.562
			c-0.451-0.408-1.01-0.691-1.676-0.851c-0.666-0.158-1.379-0.191-2.137-0.1c-0.76,0.092-1.438,0.312-2.039,0.662
			c-0.148,0.084-0.287,0.092-0.412,0.025s-0.221-0.166-0.287-0.3s-0.084-0.275-0.051-0.425c0.033-0.15,0.125-0.275,0.275-0.375
			c0.801-0.45,1.672-0.733,2.613-0.851c0.941-0.116,1.824-0.054,2.65,0.188c0.824,0.242,1.52,0.667,2.086,1.275
			s0.859,1.412,0.875,2.412c0,0.717-0.199,1.371-0.6,1.963s-0.916,1.054-1.549,1.388c0.383,0.116,0.744,0.287,1.086,0.512
			c0.342,0.226,0.645,0.492,0.904,0.801c0.262,0.309,0.471,0.646,0.625,1.012C860.37,133.562,860.448,133.953,860.448,134.37z"/>
		<path fill="#0093AF" d="M878.173,131.444c0-1.683,0.262-3.096,0.787-4.237s1.184-2,1.975-2.575
			c0.793-0.574,1.654-0.87,2.588-0.887s1.797,0.25,2.588,0.8s1.453,1.392,1.988,2.524c0.533,1.134,0.807,2.551,0.824,4.25
			c0,0.9-0.104,1.771-0.312,2.613s-0.525,1.592-0.949,2.25c-0.426,0.658-0.963,1.195-1.613,1.612s-1.416,0.642-2.301,0.675
			c-0.982,0.033-1.828-0.138-2.537-0.513s-1.287-0.892-1.736-1.55c-0.451-0.658-0.779-1.416-0.988-2.275
			C878.276,133.274,878.173,132.378,878.173,131.444z M883.636,137.295c0.701,0,1.312-0.175,1.83-0.525
			c0.518-0.35,0.941-0.808,1.266-1.375c0.326-0.566,0.568-1.212,0.729-1.938c0.158-0.725,0.238-1.462,0.238-2.212
			c0-1.4-0.209-2.571-0.627-3.513s-0.938-1.642-1.555-2.101c-0.619-0.458-1.291-0.688-2.02-0.688c-0.727,0-1.395,0.238-2.006,0.713
			c-0.609,0.475-1.115,1.188-1.518,2.138c-0.4,0.95-0.592,2.125-0.576,3.524c0,0.734,0.066,1.463,0.201,2.188
			c0.133,0.726,0.359,1.367,0.676,1.926c0.318,0.559,0.748,1.012,1.293,1.362C882.11,137.145,882.8,137.312,883.636,137.295z"/>
	</g>
	<path fill="#331842" d="M929.893,73.087c-13.572,0-24.584,11.011-24.584,24.59c0,13.574,11.012,24.584,24.584,24.584
		c13.579,0,24.59-11.01,24.59-24.584C954.482,84.098,943.472,73.087,929.893,73.087z M921,93.921c0-0.854,0.98-1.342,1.666-0.834
		l4.801,3.586c0.668,0.5,0.668,1.502,0,2.004l-4.801,3.584c-0.686,0.511-1.666,0.02-1.666-0.834V93.921z M943.854,98.677
		l-21.188,15.836c-0.686,0.521-1.666,0.029-1.666-0.833v-3.096c0-0.833,0.396-1.624,1.066-2.122l13.334-9.973
		c0.536-0.408,0.536-1.223,0-1.629l-13.334-9.973c-0.67-0.5-1.066-1.289-1.066-2.113v-3.104c0-0.864,0.98-1.355,1.666-0.838
		l21.188,15.84C944.521,97.173,944.521,98.175,943.854,98.677z"/>
	<path fill="#331842" d="M0,97.677c0,13.574,11.012,24.584,24.59,24.584c13.574,0,24.584-11.01,24.584-24.584
		c0-13.579-11.01-24.59-24.584-24.59C11.012,73.087,0,84.098,0,97.677z M33.484,101.427c0,0.854-0.982,1.345-1.668,0.834
		l-4.801-3.584c-0.668-0.502-0.668-1.504,0-2.004l4.801-3.586c0.686-0.508,1.668-0.02,1.668,0.834V101.427z M10.631,96.673
		l21.186-15.84c0.686-0.518,1.668-0.026,1.668,0.838v3.104c0,0.824-0.398,1.613-1.068,2.113L19.082,96.86
		c-0.537,0.406-0.537,1.221,0,1.629l13.334,9.973c0.67,0.498,1.068,1.289,1.068,2.122v3.096c0,0.862-0.982,1.354-1.668,0.833
		L10.631,98.677C9.961,98.175,9.961,97.173,10.631,96.673z"/>
</g>
</svg>
