<?xml version="1.0" encoding="utf-8"?>
<!-- Generator: Adobe Illustrator 16.0.0, SVG Export Plug-In . SVG Version: 6.00 Build 0)  -->
<!DOCTYPE svg PUBLIC "-//W3C//DTD SVG 1.1//EN" "http://www.w3.org/Graphics/SVG/1.1/DTD/svg11.dtd">
<svg version="1.1" id="Capa_1" xmlns="http://www.w3.org/2000/svg" xmlns:xlink="http://www.w3.org/1999/xlink" x="0px" y="0px"
	 width="954.482px" height="363.87px" viewBox="0 0 954.482 363.87" enable-background="new 0 0 954.482 363.87"
	 xml:space="preserve">
<g>
	<g>
		<g>
			
				<rect x="86.998" y="39.375" fill="none" stroke="#331842" stroke-width="0.75" stroke-miterlimit="10" width="482.557" height="40.578"/>
			
				<rect x="86.998" y="39.375" opacity="0.4" fill="#0093AF" stroke="#331842" stroke-width="0.75" stroke-miterlimit="10" width="482.557" height="40.578"/>
			
				<rect x="86.998" y="0.375" fill="#0093AF" stroke="#331842" stroke-width="0.75" stroke-miterlimit="10" width="482.557" height="39"/>
			
				<rect x="86.998" y="79.953" fill="none" stroke="#331842" stroke-width="0.75" stroke-miterlimit="10" width="482.557" height="40.578"/>
			
				<rect x="86.998" y="120.531" fill="none" stroke="#331842" stroke-width="0.75" stroke-miterlimit="10" width="482.557" height="40.578"/>
			
				<rect x="86.998" y="161.109" fill="none" stroke="#331842" stroke-width="0.75" stroke-miterlimit="10" width="482.557" height="40.578"/>
			
				<rect x="86.998" y="201.688" fill="none" stroke="#331842" stroke-width="0.75" stroke-miterlimit="10" width="482.557" height="40.578"/>
			
				<rect x="86.998" y="242.266" fill="none" stroke="#331842" stroke-width="0.75" stroke-miterlimit="10" width="482.557" height="40.578"/>
			
				<rect x="86.998" y="282.844" fill="none" stroke="#331842" stroke-width="0.75" stroke-miterlimit="10" width="482.557" height="40.578"/>
			
				<rect x="86.998" y="322.834" fill="none" stroke="#331842" stroke-width="0.75" stroke-miterlimit="10" width="482.557" height="40.578"/>
			
				<line fill="none" stroke="#331842" stroke-width="0.75" stroke-miterlimit="10" x1="336.393" y1="39.833" x2="336.393" y2="363.87"/>
			<g>
				<g>
					<path fill="#F6F6F6" d="M105.422,13.843h5.547c1.252,0,2.205,0.096,2.861,0.287c0.881,0.26,1.637,0.722,2.266,1.384
						c0.629,0.664,1.107,1.476,1.436,2.436c0.328,0.961,0.492,2.146,0.492,3.553c0,1.238-0.154,2.305-0.461,3.199
						c-0.377,1.095-0.912,1.979-1.609,2.656c-0.527,0.513-1.238,0.912-2.133,1.199c-0.672,0.213-1.566,0.318-2.688,0.318h-5.711
						V13.843z M108.457,16.386v9.956h2.266c0.848,0,1.459-0.047,1.836-0.143c0.492-0.123,0.9-0.332,1.225-0.626
						s0.59-0.777,0.795-1.451c0.205-0.673,0.309-1.591,0.309-2.753s-0.104-2.054-0.309-2.676s-0.492-1.107-0.861-1.457
						c-0.369-0.348-0.838-0.584-1.404-0.707c-0.424-0.096-1.256-0.144-2.492-0.144H108.457z"/>
					<path fill="#F6F6F6" d="M120.576,28.875v-2.881h2.881v2.881H120.576z"/>
					<path fill="#F6F6F6" d="M132.297,28.875V13.843h2.953l6.152,10.038V13.843h2.82v15.032h-3.045l-6.061-9.803v9.803H132.297z"/>
					<path fill="#F6F6F6" d="M147.34,28.875V13.843h3.035v15.032H147.34z"/>
					<path fill="#F6F6F6" d="M157.102,28.875l-5.373-15.032h3.291l3.805,11.126l3.682-11.126h3.219l-5.383,15.032H157.102z"/>
					<path fill="#F6F6F6" d="M167.271,28.875V13.843h11.146v2.543h-8.111v3.333h7.547v2.532h-7.547v4.091h8.398v2.533H167.271z"/>
					<path fill="#F6F6F6" d="M181.361,28.875V13.966h3.035v12.376h7.547v2.533H181.361z"/>
					<path fill="#F6F6F6" d="M199.553,13.843h5.547c1.252,0,2.205,0.096,2.861,0.287c0.881,0.26,1.637,0.722,2.266,1.384
						c0.629,0.664,1.107,1.476,1.436,2.436c0.328,0.961,0.492,2.146,0.492,3.553c0,1.238-0.154,2.305-0.461,3.199
						c-0.377,1.095-0.912,1.979-1.609,2.656c-0.527,0.513-1.238,0.912-2.133,1.199c-0.672,0.213-1.566,0.318-2.688,0.318h-5.711
						V13.843z M202.588,16.386v9.956h2.266c0.848,0,1.459-0.047,1.836-0.143c0.492-0.123,0.9-0.332,1.225-0.626
						s0.59-0.777,0.795-1.451c0.205-0.673,0.309-1.591,0.309-2.753s-0.104-2.054-0.309-2.676s-0.492-1.107-0.861-1.457
						c-0.369-0.348-0.838-0.584-1.404-0.707c-0.424-0.096-1.256-0.144-2.492-0.144H202.588z"/>
					<path fill="#F6F6F6" d="M214.727,28.875V13.843h11.146v2.543h-8.111v3.333h7.547v2.532h-7.547v4.091h8.398v2.533H214.727z"/>
					<path fill="#F6F6F6" d="M234.559,13.843h5.547c1.252,0,2.205,0.096,2.861,0.287c0.883,0.26,1.637,0.722,2.266,1.384
						c0.629,0.664,1.107,1.476,1.436,2.436c0.328,0.961,0.492,2.146,0.492,3.553c0,1.238-0.152,2.305-0.461,3.199
						c-0.375,1.095-0.912,1.979-1.609,2.656c-0.527,0.513-1.238,0.912-2.133,1.199c-0.67,0.213-1.566,0.318-2.688,0.318h-5.711
						V13.843z M237.594,16.386v9.956h2.266c0.848,0,1.461-0.047,1.836-0.143c0.492-0.123,0.9-0.332,1.227-0.626
						c0.324-0.294,0.588-0.777,0.793-1.451c0.205-0.673,0.309-1.591,0.309-2.753s-0.104-2.054-0.309-2.676s-0.492-1.107-0.861-1.457
						c-0.369-0.348-0.836-0.584-1.404-0.707c-0.424-0.096-1.254-0.144-2.492-0.144H237.594z"/>
					<path fill="#F6F6F6" d="M249.643,28.875V13.843h3.035v15.032H249.643z"/>
					<path fill="#F6F6F6" d="M255.59,28.875V13.843h10.305v2.543h-7.27v3.558h6.275v2.543h-6.275v6.389H255.59z"/>
					<path fill="#F6F6F6" d="M268.305,28.875V13.843h3.035v15.032H268.305z"/>
					<path fill="#F6F6F6" d="M283.85,23.348l2.943,0.934c-0.451,1.641-1.201,2.859-2.252,3.655
						c-1.049,0.797-2.381,1.194-3.994,1.194c-1.996,0-3.637-0.682-4.922-2.045c-1.285-1.364-1.928-3.229-1.928-5.594
						c0-2.502,0.646-4.445,1.939-5.829c1.291-1.385,2.99-2.077,5.096-2.077c1.838,0,3.332,0.544,4.48,1.631
						c0.684,0.643,1.197,1.565,1.539,2.769l-3.006,0.718c-0.178-0.779-0.547-1.395-1.111-1.846s-1.25-0.677-2.057-0.677
						c-1.113,0-2.018,0.399-2.711,1.2c-0.695,0.799-1.041,2.095-1.041,3.886c0,1.9,0.342,3.254,1.025,4.061s1.572,1.21,2.666,1.21
						c0.807,0,1.5-0.256,2.08-0.77C283.18,25.256,283.596,24.449,283.85,23.348z"/>
					<path fill="#F6F6F6" d="M289.377,13.843h3.035v8.142c0,1.292,0.037,2.13,0.113,2.512c0.129,0.615,0.439,1.109,0.928,1.482
						c0.488,0.372,1.156,0.559,2.004,0.559c0.861,0,1.512-0.176,1.949-0.528c0.438-0.352,0.699-0.784,0.789-1.297
						c0.088-0.513,0.133-1.364,0.133-2.554v-8.315h3.035v7.896c0,1.805-0.082,3.08-0.246,3.824
						c-0.164,0.746-0.467,1.375-0.906,1.887c-0.441,0.514-1.031,0.922-1.77,1.226c-0.738,0.305-1.703,0.456-2.893,0.456
						c-1.436,0-2.523-0.165-3.266-0.497c-0.74-0.331-1.328-0.762-1.758-1.292c-0.432-0.529-0.715-1.085-0.852-1.666
						c-0.197-0.861-0.297-2.133-0.297-3.814V13.843z"/>
					<path fill="#F6F6F6" d="M304.645,28.875V13.966h3.035v12.376h7.547v2.533H304.645z"/>
					<path fill="#F6F6F6" d="M319.215,28.875V16.386h-4.461v-2.543h11.945v2.543h-4.449v12.489H319.215z"/>
					<path fill="#F6F6F6" d="M340.656,28.875h-3.303l-1.312-3.414h-6.008l-1.24,3.414h-3.221l5.855-15.032h3.209L340.656,28.875z
						 M335.068,22.928l-2.072-5.578l-2.029,5.578H335.068z"/>
					<path fill="#F6F6F6" d="M342.256,13.843h5.547c1.252,0,2.205,0.096,2.861,0.287c0.883,0.26,1.637,0.722,2.266,1.384
						c0.629,0.664,1.107,1.476,1.436,2.436c0.328,0.961,0.492,2.146,0.492,3.553c0,1.238-0.152,2.305-0.461,3.199
						c-0.375,1.095-0.912,1.979-1.609,2.656c-0.527,0.513-1.238,0.912-2.133,1.199c-0.67,0.213-1.566,0.318-2.688,0.318h-5.711
						V13.843z M345.291,16.386v9.956h2.266c0.848,0,1.461-0.047,1.836-0.143c0.492-0.123,0.9-0.332,1.227-0.626
						c0.324-0.294,0.588-0.777,0.793-1.451c0.205-0.673,0.309-1.591,0.309-2.753s-0.104-2.054-0.309-2.676s-0.492-1.107-0.861-1.457
						c-0.369-0.348-0.836-0.584-1.404-0.707c-0.424-0.096-1.254-0.144-2.492-0.144H345.291z"/>
					<path fill="#F6F6F6" d="M363.266,28.875V13.843h11.146v2.543h-8.111v3.333h7.547v2.532h-7.547v4.091h8.398v2.533H363.266z"/>
					<path fill="#F6F6F6" d="M377.303,28.875V13.843h2.953l6.152,10.038V13.843h2.82v15.032h-3.045l-6.061-9.803v9.803H377.303z"/>
					<path fill="#F6F6F6" d="M398.271,28.875V13.843h11.146v2.543h-8.111v3.333h7.547v2.532h-7.547v4.091h8.398v2.533H398.271z"/>
					<path fill="#F6F6F6" d="M412.361,28.875V13.966h3.035v12.376h7.547v2.533H412.361z"/>
					<path fill="#F6F6F6" d="M430.553,13.843h5.547c1.252,0,2.205,0.096,2.861,0.287c0.881,0.26,1.637,0.722,2.266,1.384
						c0.629,0.664,1.107,1.476,1.436,2.436c0.328,0.961,0.492,2.146,0.492,3.553c0,1.238-0.154,2.305-0.461,3.199
						c-0.377,1.095-0.912,1.979-1.609,2.656c-0.527,0.513-1.238,0.912-2.133,1.199c-0.672,0.213-1.566,0.318-2.688,0.318h-5.711
						V13.843z M433.588,16.386v9.956h2.266c0.848,0,1.459-0.047,1.836-0.143c0.492-0.123,0.9-0.332,1.225-0.626
						s0.59-0.777,0.795-1.451c0.205-0.673,0.309-1.591,0.309-2.753s-0.104-2.054-0.309-2.676s-0.492-1.107-0.861-1.457
						c-0.369-0.348-0.838-0.584-1.404-0.707c-0.424-0.096-1.256-0.144-2.492-0.144H433.588z"/>
					<path fill="#F6F6F6" d="M445.727,28.875V13.843h11.146v2.543h-8.111v3.333h7.547v2.532h-7.547v4.091h8.398v2.533H445.727z"/>
					<path fill="#F6F6F6" d="M458.967,23.984l2.953-0.287c0.178,0.991,0.537,1.719,1.082,2.184c0.543,0.465,1.275,0.697,2.199,0.697
						c0.977,0,1.713-0.207,2.209-0.62c0.496-0.414,0.744-0.897,0.744-1.451c0-0.355-0.105-0.658-0.312-0.907
						c-0.209-0.25-0.574-0.467-1.094-0.651c-0.355-0.123-1.164-0.342-2.43-0.656c-1.627-0.403-2.768-0.898-3.424-1.487
						c-0.924-0.826-1.385-1.835-1.385-3.024c0-0.766,0.217-1.481,0.65-2.148c0.436-0.666,1.061-1.174,1.877-1.522
						s1.803-0.523,2.959-0.523c1.887,0,3.307,0.414,4.26,1.241s1.455,1.932,1.502,3.312l-3.035,0.134
						c-0.129-0.772-0.408-1.328-0.836-1.666c-0.426-0.339-1.068-0.508-1.922-0.508c-0.883,0-1.572,0.182-2.072,0.544
						c-0.32,0.232-0.48,0.543-0.48,0.933c0,0.355,0.15,0.66,0.451,0.913c0.383,0.321,1.312,0.656,2.789,1.004
						c1.477,0.35,2.568,0.71,3.275,1.082c0.707,0.373,1.262,0.882,1.662,1.528c0.398,0.646,0.6,1.444,0.6,2.394
						c0,0.861-0.24,1.669-0.719,2.42c-0.479,0.753-1.154,1.312-2.029,1.677c-0.875,0.366-1.967,0.549-3.271,0.549
						c-1.9,0-3.359-0.439-4.379-1.317C459.773,26.945,459.164,25.666,458.967,23.984z"/>
					<path fill="#F6F6F6" d="M473.74,28.875V13.843h11.146v2.543h-8.111v3.333h7.547v2.532h-7.547v4.091h8.398v2.533H473.74z"/>
					<path fill="#F6F6F6" d="M487.707,28.875V13.843h4.543l2.729,10.254l2.695-10.254h4.553v15.032h-2.818V17.042l-2.984,11.833
						h-2.922l-2.975-11.833v11.833H487.707z"/>
					<path fill="#F6F6F6" d="M505.24,28.875V13.843h4.871c1.846,0,3.049,0.075,3.609,0.226c0.861,0.226,1.582,0.716,2.164,1.472
						c0.58,0.755,0.871,1.731,0.871,2.927c0,0.924-0.168,1.699-0.502,2.328c-0.336,0.629-0.76,1.123-1.277,1.481
						c-0.516,0.359-1.041,0.597-1.574,0.713c-0.725,0.144-1.773,0.216-3.146,0.216h-1.98v5.67H505.24z M508.275,16.386v4.266h1.662
						c1.195,0,1.996-0.078,2.398-0.235c0.404-0.157,0.721-0.403,0.949-0.738s0.344-0.725,0.344-1.17c0-0.546-0.16-0.997-0.482-1.354
						c-0.32-0.354-0.729-0.577-1.221-0.666c-0.361-0.068-1.09-0.103-2.184-0.103H508.275z"/>
					<path fill="#F6F6F6" d="M519.248,28.875V13.843h11.146v2.543h-8.111v3.333h7.547v2.532h-7.547v4.091h8.398v2.533H519.248z"/>
					<path fill="#F6F6F6" d="M533.285,28.875V13.843h2.953l6.152,10.038V13.843h2.82v15.032h-3.045l-6.061-9.803v9.803H533.285z
						 M537.059,13.012h-1.312c-0.006-0.156-0.01-0.279-0.01-0.369c0-0.717,0.174-1.27,0.523-1.655
						c0.348-0.387,0.795-0.579,1.342-0.579c0.24,0,0.463,0.025,0.668,0.076c0.205,0.052,0.578,0.198,1.123,0.441
						c0.543,0.242,0.969,0.363,1.275,0.363c0.219,0,0.402-0.067,0.549-0.205c0.146-0.136,0.24-0.365,0.281-0.687h1.334
						c-0.008,0.923-0.18,1.583-0.518,1.979s-0.775,0.594-1.309,0.594c-0.232,0-0.461-0.023-0.686-0.071
						c-0.158-0.041-0.551-0.181-1.18-0.421c-0.629-0.238-1.088-0.358-1.375-0.358c-0.219,0-0.389,0.066-0.512,0.2
						C537.131,12.453,537.066,12.684,537.059,13.012z"/>
					<path fill="#F6F6F6" d="M547.805,21.451c0-1.531,0.23-2.816,0.688-3.855c0.342-0.766,0.809-1.452,1.4-2.061
						s1.238-1.06,1.943-1.354c0.936-0.396,2.016-0.596,3.24-0.596c2.215,0,3.986,0.688,5.316,2.062s1.994,3.285,1.994,5.731
						c0,2.428-0.66,4.326-1.979,5.696c-1.32,1.371-3.084,2.056-5.291,2.056c-2.236,0-4.014-0.682-5.332-2.045
						C548.465,25.722,547.805,23.844,547.805,21.451z M550.934,21.349c0,1.702,0.393,2.992,1.178,3.871
						c0.787,0.878,1.785,1.317,2.994,1.317c1.211,0,2.203-0.436,2.98-1.308c0.775-0.871,1.162-2.179,1.162-3.922
						c0-1.723-0.377-3.008-1.133-3.855c-0.754-0.848-1.758-1.271-3.01-1.271c-1.25,0-2.258,0.429-3.023,1.287
						C551.316,18.325,550.934,19.619,550.934,21.349z"/>
				</g>
			</g>
			<g>
				<g>
					<path fill="#331842" d="M104.844,56.1h3.434c0.775,0,1.365,0.06,1.771,0.178c0.545,0.161,1.014,0.446,1.402,0.856
						c0.389,0.411,0.686,0.913,0.889,1.508s0.305,1.328,0.305,2.199c0,0.767-0.096,1.427-0.285,1.98
						c-0.232,0.678-0.564,1.226-0.996,1.645c-0.326,0.317-0.768,0.564-1.32,0.742c-0.416,0.132-0.971,0.197-1.664,0.197h-3.535V56.1
						z M106.723,57.674v6.163h1.402c0.525,0,0.904-0.029,1.137-0.088c0.305-0.076,0.557-0.206,0.758-0.388s0.365-0.481,0.492-0.898
						s0.191-0.984,0.191-1.704s-0.064-1.271-0.191-1.656c-0.127-0.386-0.305-0.686-0.533-0.902
						c-0.229-0.215-0.518-0.361-0.869-0.438c-0.264-0.06-0.777-0.089-1.543-0.089H106.723z"/>
					<path fill="#331842" d="M113.812,61.939c0-0.593,0.145-1.166,0.438-1.72c0.291-0.555,0.705-0.979,1.24-1.27
						c0.535-0.293,1.133-0.438,1.793-0.438c1.021,0,1.857,0.331,2.508,0.993c0.652,0.662,0.979,1.499,0.979,2.511
						c0,1.02-0.33,1.865-0.988,2.536s-1.486,1.006-2.484,1.006c-0.617,0-1.207-0.14-1.768-0.419s-0.988-0.688-1.279-1.229
						C113.957,63.371,113.812,62.714,113.812,61.939z M115.641,62.034c0,0.669,0.158,1.182,0.475,1.537
						c0.318,0.355,0.709,0.533,1.176,0.533c0.465,0,0.855-0.178,1.17-0.533c0.316-0.355,0.473-0.872,0.473-1.549
						c0-0.66-0.156-1.168-0.473-1.523c-0.314-0.355-0.705-0.533-1.17-0.533c-0.467,0-0.857,0.178-1.176,0.533
						C115.799,60.854,115.641,61.366,115.641,62.034z"/>
					<path fill="#331842" d="M122.033,58.664h1.643v0.921c0.59-0.716,1.289-1.073,2.102-1.073c0.432,0,0.807,0.089,1.123,0.267
						c0.318,0.178,0.578,0.446,0.781,0.807c0.297-0.36,0.615-0.629,0.959-0.807c0.342-0.178,0.709-0.267,1.098-0.267
						c0.496,0,0.914,0.101,1.258,0.302c0.342,0.201,0.598,0.496,0.768,0.885c0.123,0.288,0.184,0.754,0.184,1.396v4.311h-1.783
						v-3.854c0-0.668-0.061-1.1-0.184-1.295c-0.166-0.254-0.42-0.381-0.762-0.381c-0.25,0-0.484,0.076-0.705,0.229
						s-0.379,0.376-0.477,0.67s-0.146,0.759-0.146,1.394v3.237h-1.783v-3.694c0-0.656-0.031-1.079-0.096-1.27
						c-0.062-0.19-0.16-0.332-0.295-0.425c-0.133-0.094-0.314-0.141-0.543-0.141c-0.273,0-0.521,0.074-0.742,0.223
						c-0.219,0.148-0.377,0.361-0.473,0.641s-0.143,0.743-0.143,1.391v3.275h-1.783V58.664z"/>
					<path fill="#331842" d="M133.725,57.75V56.1h1.783v1.65H133.725z M133.725,65.405v-6.741h1.783v6.741H133.725z"/>
					<path fill="#331842" d="M143.469,65.405h-1.783v-3.44c0-0.728-0.039-1.198-0.115-1.412s-0.199-0.38-0.371-0.499
						c-0.172-0.118-0.377-0.178-0.619-0.178c-0.309,0-0.586,0.085-0.83,0.254c-0.246,0.17-0.414,0.395-0.506,0.674
						c-0.09,0.279-0.137,0.795-0.137,1.549v3.053h-1.783v-6.741h1.656v0.99c0.588-0.762,1.33-1.143,2.223-1.143
						c0.393,0,0.752,0.071,1.078,0.213s0.572,0.322,0.74,0.542c0.166,0.221,0.283,0.471,0.35,0.75
						c0.064,0.279,0.098,0.679,0.098,1.199V65.405z"/>
					<path fill="#331842" d="M145.277,57.75V56.1h1.783v1.65H145.277z M145.277,65.405v-6.741h1.783v6.741H145.277z"/>
					<path fill="#331842" d="M148.477,61.939c0-0.593,0.146-1.166,0.439-1.72c0.291-0.555,0.705-0.979,1.24-1.27
						c0.535-0.293,1.133-0.438,1.793-0.438c1.02,0,1.855,0.331,2.508,0.993c0.65,0.662,0.977,1.499,0.977,2.511
						c0,1.02-0.328,1.865-0.986,2.536s-1.486,1.006-2.484,1.006c-0.619,0-1.209-0.14-1.77-0.419s-0.986-0.688-1.277-1.229
						C148.623,63.371,148.477,62.714,148.477,61.939z M150.305,62.034c0,0.669,0.16,1.182,0.477,1.537
						c0.318,0.355,0.709,0.533,1.174,0.533c0.467,0,0.855-0.178,1.172-0.533c0.314-0.355,0.473-0.872,0.473-1.549
						c0-0.66-0.158-1.168-0.473-1.523c-0.316-0.355-0.705-0.533-1.172-0.533c-0.465,0-0.855,0.178-1.174,0.533
						C150.465,60.854,150.305,61.366,150.305,62.034z"/>
					<path fill="#331842" d="M109.02,106.405h-1.783v-6.723c-0.652,0.609-1.42,1.061-2.305,1.353v-1.618
						c0.467-0.152,0.973-0.441,1.518-0.867c0.547-0.425,0.92-0.921,1.123-1.488h1.447V106.405z"/>
					<path fill="#331842" d="M112.066,106.405v-1.783h1.783v1.783H112.066z"/>
					<path fill="#331842" d="M125.258,102.983l1.822,0.578c-0.279,1.016-0.744,1.77-1.395,2.263
						c-0.648,0.493-1.473,0.739-2.473,0.739c-1.234,0-2.25-0.422-3.047-1.266c-0.795-0.845-1.193-1.999-1.193-3.463
						c0-1.549,0.4-2.752,1.201-3.608c0.799-0.857,1.852-1.286,3.154-1.286c1.139,0,2.062,0.337,2.773,1.01
						c0.424,0.397,0.74,0.969,0.953,1.714l-1.861,0.444c-0.109-0.482-0.338-0.863-0.688-1.143s-0.773-0.419-1.273-0.419
						c-0.689,0-1.248,0.247-1.678,0.743c-0.43,0.494-0.645,1.297-0.645,2.405c0,1.177,0.211,2.015,0.635,2.514
						c0.422,0.499,0.973,0.749,1.65,0.749c0.498,0,0.928-0.158,1.287-0.477C124.844,104.165,125.102,103.665,125.258,102.983z"/>
					<path fill="#331842" d="M128.266,102.939c0-0.593,0.146-1.166,0.439-1.72c0.291-0.555,0.705-0.979,1.24-1.27
						c0.535-0.293,1.133-0.438,1.793-0.438c1.02,0,1.855,0.331,2.508,0.993c0.65,0.662,0.977,1.499,0.977,2.511
						c0,1.02-0.328,1.865-0.986,2.536s-1.486,1.006-2.484,1.006c-0.619,0-1.209-0.14-1.77-0.419s-0.986-0.688-1.277-1.229
						C128.412,104.371,128.266,103.714,128.266,102.939z M130.094,103.034c0,0.669,0.16,1.182,0.477,1.537
						c0.318,0.355,0.709,0.533,1.174,0.533c0.467,0,0.855-0.178,1.172-0.533c0.314-0.355,0.473-0.872,0.473-1.549
						c0-0.66-0.158-1.168-0.473-1.523c-0.316-0.355-0.705-0.533-1.172-0.533c-0.465,0-0.855,0.178-1.174,0.533
						C130.254,101.854,130.094,102.366,130.094,103.034z"/>
					<path fill="#331842" d="M136.453,106.85l2.039,0.247c0.033,0.237,0.111,0.4,0.234,0.489c0.17,0.127,0.436,0.19,0.799,0.19
						c0.467,0,0.816-0.07,1.049-0.209c0.156-0.094,0.275-0.244,0.355-0.451c0.055-0.148,0.082-0.421,0.082-0.818v-0.984
						c-0.533,0.728-1.207,1.092-2.02,1.092c-0.904,0-1.621-0.383-2.15-1.148c-0.416-0.605-0.623-1.359-0.623-2.26
						c0-1.131,0.271-1.994,0.816-2.59c0.543-0.598,1.219-0.896,2.027-0.896c0.834,0,1.521,0.366,2.062,1.099v-0.946h1.67v6.05
						c0,0.795-0.064,1.39-0.197,1.783c-0.131,0.394-0.314,0.702-0.551,0.927c-0.238,0.225-0.555,0.399-0.949,0.526
						c-0.396,0.127-0.896,0.191-1.502,0.191c-1.143,0-1.953-0.196-2.432-0.588c-0.477-0.392-0.717-0.888-0.717-1.488
						C136.447,107.006,136.449,106.935,136.453,106.85z M138.047,102.896c0,0.715,0.139,1.238,0.416,1.57s0.619,0.498,1.025,0.498
						c0.436,0,0.805-0.17,1.104-0.511c0.301-0.341,0.451-0.845,0.451-1.514c0-0.698-0.143-1.217-0.432-1.556
						c-0.287-0.338-0.65-0.508-1.092-0.508c-0.428,0-0.779,0.167-1.057,0.499S138.047,102.214,138.047,102.896z"/>
					<path fill="#331842" d="M150.691,106.405h-1.783v-3.44c0-0.728-0.037-1.198-0.113-1.412s-0.201-0.38-0.371-0.499
						c-0.172-0.118-0.379-0.178-0.619-0.178c-0.309,0-0.586,0.085-0.832,0.254c-0.246,0.17-0.414,0.395-0.504,0.674
						c-0.092,0.279-0.137,0.795-0.137,1.549v3.053h-1.785v-6.741h1.658v0.99c0.588-0.762,1.328-1.143,2.221-1.143
						c0.395,0,0.754,0.071,1.08,0.213s0.572,0.322,0.738,0.542c0.168,0.221,0.285,0.471,0.35,0.75
						c0.066,0.279,0.098,0.679,0.098,1.199V106.405z"/>
					<path fill="#331842" d="M152.502,98.75V97.1h1.783v1.65H152.502z M152.502,106.405v-6.741h1.783v6.741H152.502z"/>
					<path fill="#331842" d="M161.99,101.657l-1.758,0.317c-0.059-0.352-0.193-0.616-0.402-0.794s-0.482-0.266-0.816-0.266
						c-0.443,0-0.799,0.153-1.062,0.46c-0.266,0.307-0.396,0.819-0.396,1.539c0,0.8,0.135,1.364,0.402,1.694
						c0.27,0.33,0.629,0.496,1.082,0.496c0.34,0,0.615-0.097,0.832-0.289c0.215-0.192,0.367-0.523,0.457-0.994l1.752,0.299
						c-0.182,0.804-0.531,1.411-1.047,1.822c-0.518,0.41-1.209,0.615-2.076,0.615c-0.986,0-1.771-0.311-2.357-0.934
						c-0.586-0.621-0.881-1.482-0.881-2.583c0-1.113,0.295-1.979,0.883-2.6s1.385-0.93,2.387-0.93c0.822,0,1.475,0.177,1.959,0.53
						S161.779,100.934,161.99,101.657z"/>
					<path fill="#331842" d="M163.344,98.75V97.1h1.783v1.65H163.344z M163.344,106.405v-6.741h1.783v6.741H163.344z"/>
					<path fill="#331842" d="M166.543,102.939c0-0.593,0.145-1.166,0.438-1.72c0.291-0.555,0.705-0.979,1.24-1.27
						c0.535-0.293,1.133-0.438,1.793-0.438c1.021,0,1.857,0.331,2.508,0.993c0.652,0.662,0.979,1.499,0.979,2.511
						c0,1.02-0.33,1.865-0.988,2.536s-1.486,1.006-2.484,1.006c-0.617,0-1.207-0.14-1.768-0.419s-0.988-0.688-1.279-1.229
						C166.688,104.371,166.543,103.714,166.543,102.939z M168.371,103.034c0,0.669,0.158,1.182,0.475,1.537
						c0.318,0.355,0.709,0.533,1.176,0.533c0.465,0,0.855-0.178,1.17-0.533c0.316-0.355,0.473-0.872,0.473-1.549
						c0-0.66-0.156-1.168-0.473-1.523c-0.314-0.355-0.705-0.533-1.17-0.533c-0.467,0-0.857,0.178-1.176,0.533
						C168.529,101.854,168.371,102.366,168.371,103.034z M169.119,98.839l0.877-1.898h1.998l-1.744,1.898H169.119z"/>
					<path fill="#331842" d="M181.027,106.405h-1.783v-3.44c0-0.728-0.037-1.198-0.113-1.412s-0.201-0.38-0.371-0.499
						c-0.172-0.118-0.379-0.178-0.619-0.178c-0.309,0-0.586,0.085-0.832,0.254c-0.246,0.17-0.414,0.395-0.504,0.674
						c-0.092,0.279-0.137,0.795-0.137,1.549v3.053h-1.785v-6.741h1.658v0.99c0.588-0.762,1.328-1.143,2.221-1.143
						c0.395,0,0.754,0.071,1.08,0.213s0.572,0.322,0.738,0.542c0.168,0.221,0.285,0.471,0.35,0.75
						c0.066,0.279,0.098,0.679,0.098,1.199V106.405z"/>
					<path fill="#331842" d="M110.48,145.749v1.656h-6.252c0.066-0.626,0.27-1.22,0.609-1.78c0.338-0.561,1.006-1.305,2.006-2.231
						c0.803-0.749,1.297-1.257,1.479-1.523c0.244-0.368,0.367-0.732,0.367-1.092c0-0.397-0.105-0.703-0.32-0.917
						c-0.213-0.214-0.508-0.321-0.885-0.321c-0.373,0-0.67,0.112-0.889,0.337c-0.221,0.225-0.348,0.597-0.381,1.117l-1.777-0.178
						c0.105-0.981,0.438-1.687,0.996-2.114c0.559-0.427,1.258-0.641,2.096-0.641c0.918,0,1.639,0.248,2.164,0.742
						c0.523,0.496,0.787,1.111,0.787,1.848c0,0.419-0.076,0.817-0.227,1.196s-0.387,0.775-0.713,1.19
						c-0.217,0.275-0.605,0.671-1.168,1.188c-0.562,0.516-0.92,0.858-1.07,1.027c-0.15,0.17-0.271,0.335-0.365,0.496H110.48z"/>
					<path fill="#331842" d="M112.066,147.405v-1.783h1.783v1.783H112.066z"/>
					<path fill="#331842" d="M119.277,147.405V138.1h2.812l1.689,6.348l1.668-6.348h2.818v9.306h-1.744v-7.325l-1.848,7.325h-1.809
						l-1.842-7.325v7.325H119.277z"/>
					<path fill="#331842" d="M129.707,143.939c0-0.593,0.145-1.166,0.438-1.72c0.291-0.555,0.705-0.979,1.24-1.27
						c0.535-0.293,1.133-0.438,1.793-0.438c1.021,0,1.857,0.331,2.508,0.993c0.652,0.662,0.979,1.499,0.979,2.511
						c0,1.02-0.33,1.865-0.988,2.536s-1.486,1.006-2.484,1.006c-0.617,0-1.207-0.14-1.768-0.419s-0.988-0.688-1.279-1.229
						C129.852,145.371,129.707,144.714,129.707,143.939z M131.535,144.034c0,0.669,0.158,1.182,0.475,1.537
						c0.318,0.355,0.709,0.533,1.176,0.533c0.465,0,0.855-0.178,1.17-0.533c0.316-0.355,0.473-0.872,0.473-1.549
						c0-0.66-0.156-1.168-0.473-1.523c-0.314-0.355-0.705-0.533-1.17-0.533c-0.467,0-0.857,0.178-1.176,0.533
						C131.693,142.854,131.535,143.366,131.535,144.034z"/>
					<path fill="#331842" d="M139.914,147.405l-2.717-6.741h1.873l1.27,3.44l0.367,1.148c0.098-0.291,0.158-0.484,0.184-0.577
						c0.061-0.19,0.123-0.381,0.191-0.571l1.281-3.44h1.836l-2.68,6.741H139.914z"/>
					<path fill="#331842" d="M145.291,139.75v-1.65h1.783v1.65H145.291z M145.291,147.405v-6.741h1.783v6.741H145.291z"/>
					<path fill="#331842" d="M148.902,147.405V138.1h1.783v9.306H148.902z"/>
					<path fill="#331842" d="M152.514,139.75v-1.65h1.783v1.65H152.514z M152.514,147.405v-6.741h1.783v6.741H152.514z"/>
					<path fill="#331842" d="M162.309,147.405h-1.656v-0.99c-0.275,0.385-0.6,0.672-0.975,0.86s-0.752,0.282-1.133,0.282
						c-0.775,0-1.438-0.312-1.99-0.937s-0.828-1.495-0.828-2.612c0-1.143,0.268-2.011,0.807-2.605
						c0.537-0.595,1.215-0.892,2.037-0.892c0.752,0,1.404,0.313,1.955,0.939V138.1h1.783V147.405z M157.549,143.889
						c0,0.72,0.098,1.24,0.297,1.562c0.289,0.466,0.689,0.698,1.207,0.698c0.41,0,0.76-0.175,1.047-0.523
						c0.287-0.35,0.432-0.871,0.432-1.565c0-0.773-0.139-1.331-0.418-1.672s-0.639-0.512-1.074-0.512
						c-0.422,0-0.777,0.169-1.062,0.505C157.691,142.718,157.549,143.22,157.549,143.889z"/>
					<path fill="#331842" d="M165.398,142.721l-1.617-0.292c0.182-0.651,0.494-1.134,0.939-1.447c0.443-0.313,1.104-0.47,1.98-0.47
						c0.795,0,1.387,0.094,1.777,0.282c0.389,0.188,0.662,0.428,0.822,0.718c0.158,0.29,0.236,0.821,0.236,1.597l-0.018,2.082
						c0,0.592,0.027,1.029,0.086,1.311c0.057,0.281,0.164,0.583,0.32,0.904h-1.766c-0.047-0.118-0.104-0.294-0.172-0.527
						c-0.029-0.105-0.051-0.175-0.062-0.209c-0.305,0.296-0.631,0.519-0.979,0.666c-0.346,0.148-0.717,0.223-1.109,0.223
						c-0.695,0-1.242-0.188-1.641-0.564c-0.4-0.377-0.602-0.854-0.602-1.429c0-0.381,0.092-0.721,0.273-1.019
						c0.182-0.299,0.438-0.527,0.766-0.686c0.328-0.159,0.801-0.298,1.418-0.416c0.834-0.156,1.412-0.303,1.732-0.438v-0.178
						c0-0.344-0.084-0.588-0.254-0.733c-0.168-0.146-0.488-0.22-0.957-0.22c-0.318,0-0.566,0.062-0.744,0.188
						S165.51,142.407,165.398,142.721z M167.785,144.168c-0.229,0.076-0.59,0.167-1.084,0.272c-0.496,0.106-0.82,0.21-0.973,0.312
						c-0.232,0.165-0.348,0.374-0.348,0.628c0,0.25,0.092,0.466,0.279,0.648c0.186,0.182,0.422,0.272,0.711,0.272
						c0.32,0,0.627-0.105,0.92-0.317c0.215-0.161,0.357-0.357,0.426-0.59c0.047-0.152,0.068-0.442,0.068-0.87V144.168z"/>
					<path fill="#331842" d="M177.479,147.405h-1.656v-0.99c-0.275,0.385-0.6,0.672-0.975,0.86
						c-0.373,0.188-0.752,0.282-1.133,0.282c-0.773,0-1.438-0.312-1.99-0.937c-0.551-0.624-0.828-1.495-0.828-2.612
						c0-1.143,0.27-2.011,0.807-2.605s1.217-0.892,2.037-0.892c0.754,0,1.406,0.313,1.955,0.939V138.1h1.783V147.405z
						 M172.719,143.889c0,0.72,0.1,1.24,0.299,1.562c0.287,0.466,0.689,0.698,1.205,0.698c0.41,0,0.76-0.175,1.047-0.523
						c0.289-0.35,0.432-0.871,0.432-1.565c0-0.773-0.139-1.331-0.418-1.672s-0.637-0.512-1.072-0.512
						c-0.424,0-0.777,0.169-1.064,0.505C172.861,142.718,172.719,143.22,172.719,143.889z"/>
					<path fill="#331842" d="M104.393,185.937l1.727-0.21c0.055,0.44,0.203,0.776,0.445,1.009c0.24,0.233,0.533,0.35,0.875,0.35
						c0.369,0,0.678-0.14,0.93-0.419s0.379-0.656,0.379-1.13c0-0.448-0.121-0.804-0.363-1.066c-0.24-0.263-0.535-0.394-0.881-0.394
						c-0.229,0-0.502,0.044-0.82,0.134l0.197-1.454c0.482,0.013,0.852-0.092,1.105-0.314c0.254-0.222,0.381-0.517,0.381-0.886
						c0-0.312-0.094-0.562-0.279-0.748c-0.188-0.187-0.436-0.279-0.744-0.279c-0.305,0-0.564,0.105-0.779,0.316
						c-0.217,0.212-0.348,0.521-0.395,0.928l-1.645-0.279c0.115-0.563,0.287-1.013,0.518-1.35c0.23-0.336,0.553-0.601,0.965-0.793
						s0.875-0.289,1.387-0.289c0.877,0,1.578,0.279,2.107,0.838c0.436,0.457,0.654,0.974,0.654,1.549
						c0,0.816-0.447,1.469-1.34,1.955c0.533,0.114,0.961,0.37,1.279,0.768c0.32,0.398,0.48,0.879,0.48,1.441
						c0,0.816-0.299,1.513-0.896,2.088c-0.596,0.576-1.338,0.863-2.227,0.863c-0.844,0-1.541-0.242-2.096-0.727
						S104.482,186.719,104.393,185.937z"/>
					<path fill="#331842" d="M112.066,188.405v-1.783h1.783v1.783H112.066z"/>
					<path fill="#331842" d="M125.258,184.983l1.822,0.578c-0.279,1.016-0.744,1.77-1.395,2.263
						c-0.648,0.493-1.473,0.739-2.473,0.739c-1.234,0-2.25-0.422-3.047-1.266c-0.795-0.845-1.193-1.999-1.193-3.463
						c0-1.549,0.4-2.752,1.201-3.608c0.799-0.857,1.852-1.286,3.154-1.286c1.139,0,2.062,0.337,2.773,1.01
						c0.424,0.397,0.74,0.969,0.953,1.714l-1.861,0.444c-0.109-0.482-0.338-0.863-0.688-1.143s-0.773-0.419-1.273-0.419
						c-0.689,0-1.248,0.247-1.678,0.743c-0.43,0.494-0.645,1.297-0.645,2.405c0,1.177,0.211,2.015,0.635,2.514
						c0.422,0.499,0.973,0.749,1.65,0.749c0.498,0,0.928-0.158,1.287-0.477C124.844,186.165,125.102,185.665,125.258,184.983z"/>
					<path fill="#331842" d="M133.115,188.405v-1.01c-0.244,0.36-0.568,0.644-0.967,0.852c-0.4,0.207-0.822,0.311-1.268,0.311
						c-0.453,0-0.859-0.1-1.219-0.299c-0.359-0.198-0.619-0.478-0.779-0.838c-0.162-0.359-0.242-0.856-0.242-1.491v-4.266h1.783
						v3.098c0,0.948,0.033,1.528,0.1,1.742c0.064,0.214,0.184,0.383,0.357,0.508s0.395,0.188,0.66,0.188
						c0.305,0,0.578-0.084,0.82-0.251c0.24-0.167,0.406-0.374,0.494-0.622c0.09-0.247,0.133-0.854,0.133-1.818v-2.844h1.785v6.741
						H133.115z"/>
					<path fill="#331842" d="M136.619,180.75v-1.65h1.783v1.65H136.619z M136.619,188.405v-6.741h1.783v6.741H136.619z"/>
					<path fill="#331842" d="M146.414,188.405h-1.656v-0.99c-0.275,0.385-0.6,0.672-0.975,0.86s-0.752,0.282-1.133,0.282
						c-0.775,0-1.438-0.312-1.99-0.937s-0.828-1.495-0.828-2.612c0-1.143,0.268-2.011,0.807-2.605
						c0.537-0.595,1.215-0.892,2.037-0.892c0.752,0,1.404,0.313,1.955,0.939V179.1h1.783V188.405z M141.654,184.889
						c0,0.72,0.098,1.24,0.297,1.562c0.289,0.466,0.689,0.698,1.207,0.698c0.41,0,0.76-0.175,1.047-0.523
						c0.287-0.35,0.432-0.871,0.432-1.565c0-0.773-0.139-1.331-0.418-1.672s-0.639-0.512-1.074-0.512
						c-0.422,0-0.777,0.169-1.062,0.505C141.797,183.718,141.654,184.22,141.654,184.889z"/>
					<path fill="#331842" d="M149.504,183.721l-1.617-0.292c0.182-0.651,0.494-1.134,0.939-1.447c0.443-0.313,1.104-0.47,1.98-0.47
						c0.795,0,1.387,0.094,1.777,0.282c0.389,0.188,0.662,0.428,0.822,0.718c0.158,0.29,0.236,0.821,0.236,1.597l-0.018,2.082
						c0,0.592,0.027,1.029,0.086,1.311c0.057,0.281,0.164,0.583,0.32,0.904h-1.766c-0.047-0.118-0.104-0.294-0.172-0.527
						c-0.029-0.105-0.051-0.175-0.062-0.209c-0.305,0.296-0.631,0.519-0.979,0.666c-0.346,0.148-0.717,0.223-1.109,0.223
						c-0.695,0-1.242-0.188-1.641-0.564c-0.4-0.377-0.602-0.854-0.602-1.429c0-0.381,0.092-0.721,0.273-1.019
						c0.182-0.299,0.438-0.527,0.766-0.686c0.328-0.159,0.801-0.298,1.418-0.416c0.834-0.156,1.412-0.303,1.732-0.438v-0.178
						c0-0.344-0.084-0.588-0.254-0.733c-0.168-0.146-0.488-0.22-0.957-0.22c-0.318,0-0.566,0.062-0.744,0.188
						S149.615,183.407,149.504,183.721z M151.891,185.168c-0.229,0.076-0.59,0.167-1.084,0.272c-0.496,0.106-0.82,0.21-0.973,0.312
						c-0.232,0.165-0.348,0.374-0.348,0.628c0,0.25,0.092,0.466,0.279,0.648c0.186,0.182,0.422,0.272,0.711,0.272
						c0.32,0,0.627-0.105,0.92-0.317c0.215-0.161,0.357-0.357,0.426-0.59c0.047-0.152,0.068-0.442,0.068-0.87V185.168z"/>
					<path fill="#331842" d="M161.584,188.405h-1.656v-0.99c-0.275,0.385-0.6,0.672-0.975,0.86
						c-0.373,0.188-0.752,0.282-1.133,0.282c-0.773,0-1.438-0.312-1.99-0.937c-0.551-0.624-0.828-1.495-0.828-2.612
						c0-1.143,0.27-2.011,0.807-2.605s1.217-0.892,2.037-0.892c0.754,0,1.406,0.313,1.955,0.939V179.1h1.783V188.405z
						 M156.824,184.889c0,0.72,0.1,1.24,0.299,1.562c0.287,0.466,0.689,0.698,1.205,0.698c0.41,0,0.76-0.175,1.047-0.523
						c0.289-0.35,0.432-0.871,0.432-1.565c0-0.773-0.139-1.331-0.418-1.672s-0.637-0.512-1.072-0.512
						c-0.424,0-0.777,0.169-1.064,0.505C156.967,183.718,156.824,184.22,156.824,184.889z"/>
					<path fill="#331842" d="M162.932,184.939c0-0.593,0.145-1.166,0.438-1.72c0.291-0.555,0.705-0.979,1.24-1.27
						c0.535-0.293,1.133-0.438,1.793-0.438c1.021,0,1.857,0.331,2.508,0.993c0.652,0.662,0.979,1.499,0.979,2.511
						c0,1.02-0.33,1.865-0.988,2.536s-1.486,1.006-2.484,1.006c-0.617,0-1.207-0.14-1.768-0.419s-0.988-0.688-1.279-1.229
						C163.076,186.371,162.932,185.714,162.932,184.939z M164.76,185.034c0,0.669,0.158,1.182,0.475,1.537
						c0.318,0.355,0.709,0.533,1.176,0.533c0.465,0,0.855-0.178,1.17-0.533c0.316-0.355,0.473-0.872,0.473-1.549
						c0-0.66-0.156-1.168-0.473-1.523c-0.314-0.355-0.705-0.533-1.17-0.533c-0.467,0-0.857,0.178-1.176,0.533
						C164.918,183.854,164.76,184.366,164.76,185.034z"/>
					<path fill="#331842" d="M174.846,181.664h1.662v0.99c0.217-0.339,0.508-0.613,0.877-0.825c0.367-0.212,0.777-0.317,1.225-0.317
						c0.783,0,1.447,0.307,1.994,0.921c0.545,0.613,0.818,1.468,0.818,2.564c0,1.125-0.275,2-0.826,2.624
						c-0.549,0.624-1.215,0.937-1.998,0.937c-0.373,0-0.711-0.074-1.014-0.223c-0.303-0.147-0.621-0.401-0.955-0.762v3.396h-1.783
						V181.664z M176.609,184.921c0,0.757,0.15,1.316,0.451,1.679c0.301,0.361,0.666,0.542,1.098,0.542
						c0.416,0,0.76-0.166,1.035-0.498s0.412-0.877,0.412-1.635c0-0.706-0.141-1.23-0.424-1.574
						c-0.283-0.342-0.635-0.514-1.055-0.514c-0.436,0-0.797,0.168-1.086,0.505C176.754,183.762,176.609,184.261,176.609,184.921z"/>
					<path fill="#331842" d="M186.74,186.26l1.777,0.298c-0.229,0.652-0.588,1.148-1.082,1.489c-0.492,0.341-1.109,0.511-1.85,0.511
						c-1.172,0-2.041-0.383-2.604-1.148c-0.443-0.614-0.666-1.389-0.666-2.324c0-1.117,0.293-1.991,0.877-2.624
						s1.322-0.949,2.215-0.949c1.002,0,1.793,0.331,2.373,0.993s0.857,1.677,0.832,3.044h-4.469c0.014,0.529,0.156,0.94,0.432,1.234
						s0.617,0.441,1.029,0.441c0.279,0,0.514-0.076,0.703-0.229C186.5,186.844,186.643,186.599,186.74,186.26z M186.842,184.457
						c-0.012-0.517-0.145-0.909-0.398-1.178s-0.564-0.403-0.928-0.403c-0.389,0-0.711,0.143-0.965,0.426s-0.379,0.669-0.375,1.155
						H186.842z"/>
					<path fill="#331842" d="M191.773,188.405h-1.783v-6.741h1.656v0.958c0.283-0.452,0.539-0.751,0.766-0.895
						s0.482-0.216,0.771-0.216c0.406,0,0.797,0.112,1.174,0.337l-0.553,1.555c-0.301-0.194-0.58-0.292-0.838-0.292
						c-0.25,0-0.461,0.068-0.635,0.206s-0.309,0.387-0.408,0.746s-0.15,1.113-0.15,2.26V188.405z"/>
					<path fill="#331842" d="M194.498,186.481l1.789-0.272c0.076,0.347,0.23,0.61,0.465,0.79c0.232,0.18,0.559,0.27,0.977,0.27
						c0.461,0,0.809-0.084,1.041-0.254c0.156-0.118,0.234-0.276,0.234-0.476c0-0.136-0.041-0.247-0.127-0.337
						c-0.088-0.084-0.287-0.162-0.596-0.234c-1.439-0.317-2.352-0.607-2.736-0.869c-0.533-0.364-0.799-0.87-0.799-1.518
						c0-0.584,0.23-1.075,0.691-1.473s1.176-0.597,2.145-0.597c0.924,0,1.609,0.15,2.057,0.45c0.449,0.301,0.758,0.745,0.928,1.334
						l-1.682,0.311c-0.072-0.263-0.209-0.463-0.41-0.604c-0.201-0.139-0.488-0.209-0.859-0.209c-0.471,0-0.807,0.065-1.01,0.197
						c-0.137,0.093-0.203,0.213-0.203,0.361c0,0.127,0.059,0.234,0.178,0.324c0.16,0.118,0.715,0.285,1.666,0.501
						c0.949,0.216,1.613,0.48,1.99,0.794c0.371,0.316,0.559,0.759,0.559,1.326c0,0.618-0.258,1.148-0.775,1.594
						c-0.516,0.443-1.279,0.666-2.291,0.666c-0.918,0-1.645-0.187-2.18-0.559S194.662,187.121,194.498,186.481z"/>
					<path fill="#331842" d="M201.943,184.939c0-0.593,0.145-1.166,0.438-1.72c0.291-0.555,0.705-0.979,1.24-1.27
						c0.535-0.293,1.133-0.438,1.793-0.438c1.021,0,1.857,0.331,2.508,0.993c0.652,0.662,0.979,1.499,0.979,2.511
						c0,1.02-0.33,1.865-0.988,2.536s-1.486,1.006-2.484,1.006c-0.617,0-1.207-0.14-1.768-0.419s-0.988-0.688-1.279-1.229
						C202.088,186.371,201.943,185.714,201.943,184.939z M203.771,185.034c0,0.669,0.158,1.182,0.475,1.537
						c0.318,0.355,0.709,0.533,1.176,0.533c0.465,0,0.855-0.178,1.17-0.533c0.316-0.355,0.473-0.872,0.473-1.549
						c0-0.66-0.156-1.168-0.473-1.523c-0.314-0.355-0.705-0.533-1.17-0.533c-0.467,0-0.857,0.178-1.176,0.533
						C203.93,183.854,203.771,184.366,203.771,185.034z"/>
					<path fill="#331842" d="M216.428,188.405h-1.783v-3.44c0-0.728-0.037-1.198-0.113-1.412s-0.201-0.38-0.371-0.499
						c-0.172-0.118-0.379-0.178-0.619-0.178c-0.309,0-0.586,0.085-0.832,0.254c-0.246,0.17-0.414,0.395-0.504,0.674
						c-0.092,0.279-0.137,0.795-0.137,1.549v3.053h-1.785v-6.741h1.658v0.99c0.588-0.762,1.328-1.143,2.221-1.143
						c0.395,0,0.754,0.071,1.08,0.213s0.572,0.322,0.738,0.542c0.168,0.221,0.285,0.471,0.35,0.75
						c0.066,0.279,0.098,0.679,0.098,1.199V188.405z"/>
					<path fill="#331842" d="M219.57,183.721l-1.617-0.292c0.182-0.651,0.494-1.134,0.939-1.447c0.443-0.313,1.104-0.47,1.98-0.47
						c0.795,0,1.387,0.094,1.777,0.282c0.389,0.188,0.662,0.428,0.822,0.718c0.158,0.29,0.236,0.821,0.236,1.597l-0.018,2.082
						c0,0.592,0.027,1.029,0.086,1.311c0.057,0.281,0.164,0.583,0.32,0.904h-1.766c-0.047-0.118-0.104-0.294-0.172-0.527
						c-0.029-0.105-0.051-0.175-0.062-0.209c-0.305,0.296-0.631,0.519-0.979,0.666c-0.346,0.148-0.717,0.223-1.109,0.223
						c-0.695,0-1.242-0.188-1.641-0.564c-0.4-0.377-0.602-0.854-0.602-1.429c0-0.381,0.092-0.721,0.273-1.019
						c0.182-0.299,0.438-0.527,0.766-0.686c0.328-0.159,0.801-0.298,1.418-0.416c0.834-0.156,1.412-0.303,1.732-0.438v-0.178
						c0-0.344-0.084-0.588-0.254-0.733c-0.168-0.146-0.488-0.22-0.957-0.22c-0.318,0-0.566,0.062-0.744,0.188
						S219.682,183.407,219.57,183.721z M221.957,185.168c-0.229,0.076-0.59,0.167-1.084,0.272c-0.496,0.106-0.82,0.21-0.973,0.312
						c-0.232,0.165-0.348,0.374-0.348,0.628c0,0.25,0.092,0.466,0.279,0.648c0.186,0.182,0.422,0.272,0.711,0.272
						c0.32,0,0.627-0.105,0.92-0.317c0.215-0.161,0.357-0.357,0.426-0.59c0.047-0.152,0.068-0.442,0.068-0.87V185.168z"/>
					<path fill="#331842" d="M225.469,188.405V179.1h1.783v9.306H225.469z"/>
					<path fill="#331842" d="M107.953,229.405v-1.873h-3.809v-1.561l4.037-5.91h1.498v5.903h1.156v1.567h-1.156v1.873H107.953z
						 M107.953,225.965v-3.181l-2.139,3.181H107.953z"/>
					<path fill="#331842" d="M112.066,229.405v-1.783h1.783v1.783H112.066z"/>
					<path fill="#331842" d="M119.311,229.405V220.1h3.953c0.996,0,1.719,0.084,2.168,0.251c0.451,0.167,0.812,0.464,1.082,0.892
						c0.271,0.428,0.406,0.916,0.406,1.466c0,0.699-0.205,1.275-0.615,1.73s-1.023,0.741-1.84,0.859
						c0.406,0.237,0.74,0.498,1.006,0.781c0.264,0.283,0.621,0.787,1.068,1.511l1.137,1.815h-2.246l-1.359-2.025
						c-0.482-0.723-0.812-1.179-0.99-1.367s-0.365-0.317-0.564-0.388c-0.199-0.069-0.514-0.104-0.945-0.104h-0.381v3.885H119.311z
						 M121.189,224.035h1.389c0.902,0,1.465-0.038,1.689-0.114s0.4-0.207,0.527-0.394s0.189-0.419,0.189-0.698
						c0-0.313-0.084-0.566-0.25-0.759c-0.168-0.192-0.404-0.313-0.709-0.364c-0.152-0.021-0.609-0.032-1.371-0.032h-1.465V224.035z"
						/>
					<path fill="#331842" d="M132.582,227.26l1.777,0.298c-0.229,0.652-0.588,1.148-1.082,1.489
						c-0.492,0.341-1.109,0.511-1.85,0.511c-1.172,0-2.041-0.383-2.604-1.148c-0.443-0.614-0.666-1.389-0.666-2.324
						c0-1.117,0.293-1.991,0.877-2.624s1.322-0.949,2.215-0.949c1.002,0,1.793,0.331,2.373,0.993s0.857,1.677,0.832,3.044h-4.469
						c0.014,0.529,0.156,0.94,0.432,1.234s0.617,0.441,1.029,0.441c0.279,0,0.514-0.076,0.703-0.229
						C132.342,227.844,132.484,227.599,132.582,227.26z M132.684,225.457c-0.012-0.517-0.145-0.909-0.398-1.178
						s-0.564-0.403-0.928-0.403c-0.389,0-0.711,0.143-0.965,0.426s-0.379,0.669-0.375,1.155H132.684z"/>
					<path fill="#331842" d="M135.908,229.405V220.1h1.783v9.306H135.908z"/>
					<path fill="#331842" d="M140.854,224.721l-1.619-0.292c0.182-0.651,0.496-1.134,0.939-1.447c0.445-0.313,1.105-0.47,1.98-0.47
						c0.797,0,1.389,0.094,1.777,0.282c0.391,0.188,0.664,0.428,0.822,0.718s0.238,0.821,0.238,1.597l-0.02,2.082
						c0,0.592,0.029,1.029,0.086,1.311s0.164,0.583,0.32,0.904h-1.764c-0.047-0.118-0.104-0.294-0.172-0.527
						c-0.029-0.105-0.051-0.175-0.062-0.209c-0.305,0.296-0.631,0.519-0.979,0.666c-0.348,0.148-0.717,0.223-1.111,0.223
						c-0.693,0-1.24-0.188-1.641-0.564c-0.4-0.377-0.6-0.854-0.6-1.429c0-0.381,0.092-0.721,0.273-1.019
						c0.182-0.299,0.436-0.527,0.764-0.686c0.328-0.159,0.801-0.298,1.42-0.416c0.834-0.156,1.41-0.303,1.732-0.438v-0.178
						c0-0.344-0.084-0.588-0.254-0.733c-0.17-0.146-0.488-0.22-0.959-0.22c-0.316,0-0.564,0.062-0.742,0.188
						S140.963,224.407,140.854,224.721z M143.24,226.168c-0.229,0.076-0.59,0.167-1.086,0.272c-0.494,0.106-0.818,0.21-0.971,0.312
						c-0.232,0.165-0.35,0.374-0.35,0.628c0,0.25,0.094,0.466,0.279,0.648c0.188,0.182,0.424,0.272,0.711,0.272
						c0.322,0,0.629-0.105,0.922-0.317c0.215-0.161,0.357-0.357,0.424-0.59c0.047-0.152,0.07-0.442,0.07-0.87V226.168z"/>
					<path fill="#331842" d="M152.627,224.657l-1.758,0.317c-0.059-0.352-0.193-0.616-0.402-0.794s-0.482-0.266-0.816-0.266
						c-0.443,0-0.799,0.153-1.062,0.46c-0.266,0.307-0.396,0.819-0.396,1.539c0,0.8,0.135,1.364,0.402,1.694
						c0.27,0.33,0.629,0.496,1.082,0.496c0.34,0,0.615-0.097,0.832-0.289c0.215-0.192,0.367-0.523,0.457-0.994l1.752,0.299
						c-0.182,0.804-0.531,1.411-1.047,1.822c-0.518,0.41-1.209,0.615-2.076,0.615c-0.986,0-1.771-0.311-2.357-0.934
						c-0.586-0.621-0.881-1.482-0.881-2.583c0-1.113,0.295-1.979,0.883-2.6s1.385-0.93,2.387-0.93c0.822,0,1.475,0.177,1.959,0.53
						S152.416,223.934,152.627,224.657z"/>
					<path fill="#331842" d="M153.98,221.75v-1.65h1.783v1.65H153.98z M153.98,229.405v-6.741h1.783v6.741H153.98z"/>
					<path fill="#331842" d="M157.18,225.939c0-0.593,0.145-1.166,0.438-1.72c0.291-0.555,0.705-0.979,1.24-1.27
						c0.535-0.293,1.133-0.438,1.793-0.438c1.021,0,1.857,0.331,2.508,0.993c0.652,0.662,0.979,1.499,0.979,2.511
						c0,1.02-0.33,1.865-0.988,2.536s-1.486,1.006-2.484,1.006c-0.617,0-1.207-0.14-1.768-0.419s-0.988-0.688-1.279-1.229
						C157.324,227.371,157.18,226.714,157.18,225.939z M159.008,226.034c0,0.669,0.158,1.182,0.475,1.537
						c0.318,0.355,0.709,0.533,1.176,0.533c0.465,0,0.855-0.178,1.17-0.533c0.316-0.355,0.473-0.872,0.473-1.549
						c0-0.66-0.156-1.168-0.473-1.523c-0.314-0.355-0.705-0.533-1.17-0.533c-0.467,0-0.857,0.178-1.176,0.533
						C159.166,224.854,159.008,225.366,159.008,226.034z"/>
					<path fill="#331842" d="M171.664,229.405h-1.783v-3.44c0-0.728-0.037-1.198-0.113-1.412s-0.201-0.38-0.371-0.499
						c-0.172-0.118-0.379-0.178-0.619-0.178c-0.309,0-0.586,0.085-0.832,0.254c-0.246,0.17-0.414,0.395-0.504,0.674
						c-0.092,0.279-0.137,0.795-0.137,1.549v3.053h-1.785v-6.741h1.658v0.99c0.588-0.762,1.328-1.143,2.221-1.143
						c0.395,0,0.754,0.071,1.08,0.213s0.572,0.322,0.738,0.542c0.168,0.221,0.285,0.471,0.35,0.75
						c0.066,0.279,0.098,0.679,0.098,1.199V229.405z"/>
					<path fill="#331842" d="M177.379,227.26l1.777,0.298c-0.229,0.652-0.59,1.148-1.082,1.489
						c-0.494,0.341-1.111,0.511-1.852,0.511c-1.172,0-2.039-0.383-2.602-1.148c-0.445-0.614-0.668-1.389-0.668-2.324
						c0-1.117,0.293-1.991,0.877-2.624s1.322-0.949,2.215-0.949c1.004,0,1.795,0.331,2.375,0.993s0.855,1.677,0.83,3.044h-4.469
						c0.014,0.529,0.158,0.94,0.432,1.234c0.275,0.294,0.619,0.441,1.029,0.441c0.279,0,0.514-0.076,0.705-0.229
						C177.137,227.844,177.281,227.599,177.379,227.26z M177.48,225.457c-0.014-0.517-0.146-0.909-0.4-1.178
						s-0.562-0.403-0.928-0.403c-0.389,0-0.711,0.143-0.965,0.426s-0.377,0.669-0.373,1.155H177.48z"/>
					<path fill="#331842" d="M180.076,227.481l1.789-0.272c0.076,0.347,0.23,0.61,0.465,0.79c0.232,0.18,0.559,0.27,0.977,0.27
						c0.461,0,0.809-0.084,1.041-0.254c0.156-0.118,0.234-0.276,0.234-0.476c0-0.136-0.041-0.247-0.127-0.337
						c-0.088-0.084-0.287-0.162-0.596-0.234c-1.439-0.317-2.352-0.607-2.736-0.869c-0.533-0.364-0.799-0.87-0.799-1.518
						c0-0.584,0.23-1.075,0.691-1.473s1.176-0.597,2.145-0.597c0.924,0,1.609,0.15,2.057,0.45c0.449,0.301,0.758,0.745,0.928,1.334
						l-1.682,0.311c-0.072-0.263-0.209-0.463-0.41-0.604c-0.201-0.139-0.488-0.209-0.859-0.209c-0.471,0-0.807,0.065-1.01,0.197
						c-0.137,0.093-0.203,0.213-0.203,0.361c0,0.127,0.059,0.234,0.178,0.324c0.16,0.118,0.715,0.285,1.666,0.501
						c0.949,0.216,1.613,0.48,1.99,0.794c0.371,0.316,0.559,0.759,0.559,1.326c0,0.618-0.258,1.148-0.775,1.594
						c-0.516,0.443-1.279,0.666-2.291,0.666c-0.918,0-1.645-0.187-2.18-0.559S180.24,228.121,180.076,227.481z"/>
					<path fill="#331842" d="M104.482,268.013l1.777-0.185c0.051,0.402,0.199,0.721,0.449,0.955c0.25,0.235,0.537,0.353,0.863,0.353
						c0.373,0,0.688-0.151,0.947-0.454c0.258-0.303,0.387-0.759,0.387-1.368c0-0.57-0.129-0.999-0.385-1.285
						c-0.256-0.285-0.59-0.428-1-0.428c-0.512,0-0.971,0.226-1.377,0.679l-1.447-0.21l0.914-4.843h4.717v1.669h-3.365l-0.279,1.581
						c0.398-0.199,0.805-0.298,1.219-0.298c0.791,0,1.463,0.287,2.014,0.863c0.549,0.575,0.824,1.322,0.824,2.24
						c0,0.766-0.223,1.449-0.666,2.051c-0.605,0.82-1.445,1.23-2.52,1.23c-0.859,0-1.561-0.23-2.102-0.691
						C104.91,269.411,104.588,268.791,104.482,268.013z"/>
					<path fill="#331842" d="M112.066,270.405v-1.783h1.783v1.783H112.066z"/>
					<path fill="#331842" d="M127.213,270.405h-2.045l-0.812-2.113h-3.719l-0.768,2.113h-1.994l3.625-9.306h1.986L127.213,270.405z
						 M123.754,266.724l-1.283-3.453l-1.256,3.453H123.754z"/>
					<path fill="#331842" d="M134.074,265.657l-1.758,0.317c-0.061-0.352-0.193-0.616-0.404-0.794
						c-0.209-0.178-0.48-0.266-0.814-0.266c-0.445,0-0.799,0.153-1.064,0.46c-0.264,0.307-0.396,0.819-0.396,1.539
						c0,0.8,0.135,1.364,0.404,1.694c0.268,0.33,0.629,0.496,1.082,0.496c0.338,0,0.615-0.097,0.832-0.289
						c0.215-0.192,0.367-0.523,0.457-0.994l1.752,0.299c-0.184,0.804-0.531,1.411-1.049,1.822c-0.516,0.41-1.207,0.615-2.074,0.615
						c-0.986,0-1.773-0.311-2.359-0.934c-0.586-0.621-0.879-1.482-0.879-2.583c0-1.113,0.295-1.979,0.883-2.6s1.383-0.93,2.387-0.93
						c0.82,0,1.473,0.177,1.957,0.53S133.863,264.934,134.074,265.657z"/>
					<path fill="#331842" d="M138.518,263.664v1.422h-1.219v2.717c0,0.55,0.012,0.871,0.035,0.962s0.076,0.166,0.158,0.225
						c0.082,0.06,0.184,0.09,0.301,0.09c0.166,0,0.404-0.058,0.717-0.172l0.152,1.384c-0.414,0.178-0.883,0.267-1.408,0.267
						c-0.322,0-0.611-0.054-0.869-0.162c-0.258-0.107-0.447-0.247-0.568-0.419c-0.121-0.171-0.205-0.403-0.252-0.694
						c-0.037-0.208-0.057-0.627-0.057-1.258v-2.938h-0.818v-1.422h0.818v-1.339l1.791-1.041v2.38H138.518z"/>
					<path fill="#331842" d="M139.756,262.75v-1.65h1.783v1.65H139.756z M139.756,270.405v-6.741h1.783v6.741H139.756z"/>
					<path fill="#331842" d="M145.221,270.405l-2.717-6.741h1.873l1.27,3.44l0.367,1.148c0.098-0.291,0.158-0.484,0.184-0.577
						c0.061-0.19,0.123-0.381,0.191-0.571l1.281-3.44h1.836l-2.68,6.741H145.221z"/>
					<path fill="#331842" d="M150.598,262.75v-1.65h1.783v1.65H150.598z M150.598,270.405v-6.741h1.783v6.741H150.598z"/>
					<path fill="#331842" d="M160.391,270.405h-1.656v-0.99c-0.275,0.385-0.6,0.672-0.975,0.86
						c-0.373,0.188-0.752,0.282-1.133,0.282c-0.773,0-1.438-0.312-1.99-0.937c-0.551-0.624-0.828-1.495-0.828-2.612
						c0-1.143,0.27-2.011,0.807-2.605s1.217-0.892,2.037-0.892c0.754,0,1.406,0.313,1.955,0.939V261.1h1.783V270.405z
						 M155.631,266.889c0,0.72,0.1,1.24,0.299,1.562c0.287,0.466,0.689,0.698,1.205,0.698c0.41,0,0.76-0.175,1.047-0.523
						c0.289-0.35,0.432-0.871,0.432-1.565c0-0.773-0.139-1.331-0.418-1.672s-0.637-0.512-1.072-0.512
						c-0.424,0-0.777,0.169-1.064,0.505C155.773,265.718,155.631,266.22,155.631,266.889z"/>
					<path fill="#331842" d="M163.482,265.721l-1.617-0.292c0.182-0.651,0.494-1.134,0.939-1.447c0.443-0.313,1.104-0.47,1.98-0.47
						c0.795,0,1.387,0.094,1.777,0.282c0.389,0.188,0.662,0.428,0.822,0.718c0.158,0.29,0.236,0.821,0.236,1.597l-0.018,2.082
						c0,0.592,0.027,1.029,0.086,1.311c0.057,0.281,0.164,0.583,0.32,0.904h-1.766c-0.047-0.118-0.104-0.294-0.172-0.527
						c-0.029-0.105-0.051-0.175-0.062-0.209c-0.305,0.296-0.631,0.519-0.979,0.666c-0.346,0.148-0.717,0.223-1.109,0.223
						c-0.695,0-1.242-0.188-1.641-0.564c-0.4-0.377-0.602-0.854-0.602-1.429c0-0.381,0.092-0.721,0.273-1.019
						c0.182-0.299,0.438-0.527,0.766-0.686c0.328-0.159,0.801-0.298,1.418-0.416c0.834-0.156,1.412-0.303,1.732-0.438v-0.178
						c0-0.344-0.084-0.588-0.254-0.733c-0.168-0.146-0.488-0.22-0.957-0.22c-0.318,0-0.566,0.062-0.744,0.188
						S163.594,265.407,163.482,265.721z M165.869,267.168c-0.229,0.076-0.59,0.167-1.084,0.272c-0.496,0.106-0.82,0.21-0.973,0.312
						c-0.232,0.165-0.348,0.374-0.348,0.628c0,0.25,0.092,0.466,0.279,0.648c0.186,0.182,0.422,0.272,0.711,0.272
						c0.32,0,0.627-0.105,0.92-0.317c0.215-0.161,0.357-0.357,0.426-0.59c0.047-0.152,0.068-0.442,0.068-0.87V267.168z"/>
					<path fill="#331842" d="M175.562,270.405h-1.656v-0.99c-0.275,0.385-0.6,0.672-0.975,0.86s-0.752,0.282-1.133,0.282
						c-0.775,0-1.438-0.312-1.99-0.937s-0.828-1.495-0.828-2.612c0-1.143,0.268-2.011,0.807-2.605
						c0.537-0.595,1.215-0.892,2.037-0.892c0.752,0,1.404,0.313,1.955,0.939V261.1h1.783V270.405z M170.803,266.889
						c0,0.72,0.098,1.24,0.297,1.562c0.289,0.466,0.689,0.698,1.207,0.698c0.41,0,0.76-0.175,1.047-0.523
						c0.287-0.35,0.432-0.871,0.432-1.565c0-0.773-0.139-1.331-0.418-1.672s-0.639-0.512-1.074-0.512
						c-0.422,0-0.777,0.169-1.062,0.505C170.945,265.718,170.803,266.22,170.803,266.889z"/>
					<path fill="#331842" d="M181.225,268.26l1.777,0.298c-0.229,0.652-0.59,1.148-1.082,1.489
						c-0.494,0.341-1.111,0.511-1.852,0.511c-1.172,0-2.039-0.383-2.602-1.148c-0.445-0.614-0.668-1.389-0.668-2.324
						c0-1.117,0.293-1.991,0.877-2.624s1.322-0.949,2.215-0.949c1.004,0,1.795,0.331,2.375,0.993s0.855,1.677,0.83,3.044h-4.469
						c0.014,0.529,0.158,0.94,0.432,1.234c0.275,0.294,0.619,0.441,1.029,0.441c0.279,0,0.514-0.076,0.705-0.229
						C180.982,268.844,181.127,268.599,181.225,268.26z M181.326,266.457c-0.014-0.517-0.146-0.909-0.4-1.178
						s-0.562-0.403-0.928-0.403c-0.389,0-0.711,0.143-0.965,0.426s-0.377,0.669-0.373,1.155H181.326z"/>
					<path fill="#331842" d="M183.922,268.481l1.791-0.272c0.076,0.347,0.23,0.61,0.463,0.79s0.559,0.27,0.977,0.27
						c0.463,0,0.809-0.084,1.041-0.254c0.158-0.118,0.236-0.276,0.236-0.476c0-0.136-0.043-0.247-0.127-0.337
						c-0.09-0.084-0.289-0.162-0.598-0.234c-1.438-0.317-2.35-0.607-2.736-0.869c-0.533-0.364-0.799-0.87-0.799-1.518
						c0-0.584,0.23-1.075,0.691-1.473s1.178-0.597,2.146-0.597c0.922,0,1.607,0.15,2.057,0.45c0.447,0.301,0.758,0.745,0.926,1.334
						l-1.682,0.311c-0.072-0.263-0.209-0.463-0.41-0.604c-0.201-0.139-0.486-0.209-0.859-0.209c-0.471,0-0.807,0.065-1.01,0.197
						c-0.135,0.093-0.203,0.213-0.203,0.361c0,0.127,0.061,0.234,0.178,0.324c0.162,0.118,0.717,0.285,1.666,0.501
						c0.951,0.216,1.613,0.48,1.99,0.794c0.373,0.316,0.559,0.759,0.559,1.326c0,0.618-0.258,1.148-0.773,1.594
						c-0.518,0.443-1.281,0.666-2.293,0.666c-0.918,0-1.645-0.187-2.18-0.559S184.088,269.121,183.922,268.481z"/>
					<path fill="#331842" d="M201.574,270.405h-1.656v-0.99c-0.275,0.385-0.6,0.672-0.975,0.86
						c-0.373,0.188-0.752,0.282-1.133,0.282c-0.773,0-1.438-0.312-1.99-0.937c-0.551-0.624-0.828-1.495-0.828-2.612
						c0-1.143,0.27-2.011,0.807-2.605s1.217-0.892,2.037-0.892c0.754,0,1.406,0.313,1.955,0.939V261.1h1.783V270.405z
						 M196.814,266.889c0,0.72,0.1,1.24,0.299,1.562c0.287,0.466,0.689,0.698,1.205,0.698c0.41,0,0.76-0.175,1.047-0.523
						c0.289-0.35,0.432-0.871,0.432-1.565c0-0.773-0.139-1.331-0.418-1.672s-0.637-0.512-1.072-0.512
						c-0.424,0-0.777,0.169-1.064,0.505C196.957,265.718,196.814,266.22,196.814,266.889z"/>
					<path fill="#331842" d="M207.238,268.26l1.777,0.298c-0.229,0.652-0.59,1.148-1.082,1.489
						c-0.494,0.341-1.111,0.511-1.852,0.511c-1.172,0-2.039-0.383-2.602-1.148c-0.445-0.614-0.668-1.389-0.668-2.324
						c0-1.117,0.293-1.991,0.877-2.624s1.322-0.949,2.215-0.949c1.004,0,1.795,0.331,2.375,0.993s0.855,1.677,0.83,3.044h-4.469
						c0.014,0.529,0.158,0.94,0.432,1.234c0.275,0.294,0.619,0.441,1.029,0.441c0.279,0,0.514-0.076,0.705-0.229
						C206.996,268.844,207.141,268.599,207.238,268.26z M207.34,266.457c-0.014-0.517-0.146-0.909-0.4-1.178
						s-0.562-0.403-0.928-0.403c-0.389,0-0.711,0.143-0.965,0.426s-0.377,0.669-0.373,1.155H207.34z"/>
					<path fill="#331842" d="M214.176,270.405V261.1h1.783v9.306H214.176z"/>
					<path fill="#331842" d="M219.119,265.721l-1.617-0.292c0.182-0.651,0.494-1.134,0.939-1.447c0.443-0.313,1.104-0.47,1.98-0.47
						c0.795,0,1.387,0.094,1.777,0.282c0.389,0.188,0.662,0.428,0.822,0.718c0.158,0.29,0.236,0.821,0.236,1.597l-0.018,2.082
						c0,0.592,0.027,1.029,0.086,1.311c0.057,0.281,0.164,0.583,0.32,0.904h-1.766c-0.047-0.118-0.104-0.294-0.172-0.527
						c-0.029-0.105-0.051-0.175-0.062-0.209c-0.305,0.296-0.631,0.519-0.979,0.666c-0.346,0.148-0.717,0.223-1.109,0.223
						c-0.695,0-1.242-0.188-1.641-0.564c-0.4-0.377-0.602-0.854-0.602-1.429c0-0.381,0.092-0.721,0.273-1.019
						c0.182-0.299,0.438-0.527,0.766-0.686c0.328-0.159,0.801-0.298,1.418-0.416c0.834-0.156,1.412-0.303,1.732-0.438v-0.178
						c0-0.344-0.084-0.588-0.254-0.733c-0.168-0.146-0.488-0.22-0.957-0.22c-0.318,0-0.566,0.062-0.744,0.188
						S219.23,265.407,219.119,265.721z M221.506,267.168c-0.229,0.076-0.59,0.167-1.084,0.272c-0.496,0.106-0.82,0.21-0.973,0.312
						c-0.232,0.165-0.348,0.374-0.348,0.628c0,0.25,0.092,0.466,0.279,0.648c0.186,0.182,0.422,0.272,0.711,0.272
						c0.32,0,0.627-0.105,0.92-0.317c0.215-0.161,0.357-0.357,0.426-0.59c0.047-0.152,0.068-0.442,0.068-0.87V267.168z"/>
					<path fill="#331842" d="M230.482,270.405l-2.717-6.741h1.873l1.27,3.44l0.367,1.148c0.098-0.291,0.158-0.484,0.184-0.577
						c0.061-0.19,0.123-0.381,0.191-0.571l1.281-3.44h1.836l-2.68,6.741H230.482z"/>
					<path fill="#331842" d="M235.859,262.75v-1.65h1.783v1.65H235.859z M235.859,270.405v-6.741h1.783v6.741H235.859z"/>
					<path fill="#331842" d="M245.652,270.405h-1.656v-0.99c-0.275,0.385-0.6,0.672-0.975,0.86
						c-0.373,0.188-0.752,0.282-1.133,0.282c-0.773,0-1.438-0.312-1.99-0.937c-0.551-0.624-0.828-1.495-0.828-2.612
						c0-1.143,0.27-2.011,0.807-2.605s1.217-0.892,2.037-0.892c0.754,0,1.406,0.313,1.955,0.939V261.1h1.783V270.405z
						 M240.893,266.889c0,0.72,0.1,1.24,0.299,1.562c0.287,0.466,0.689,0.698,1.205,0.698c0.41,0,0.76-0.175,1.047-0.523
						c0.289-0.35,0.432-0.871,0.432-1.565c0-0.773-0.139-1.331-0.418-1.672s-0.637-0.512-1.072-0.512
						c-0.424,0-0.777,0.169-1.064,0.505C241.035,265.718,240.893,266.22,240.893,266.889z"/>
					<path fill="#331842" d="M248.744,265.721l-1.617-0.292c0.182-0.651,0.494-1.134,0.939-1.447c0.443-0.313,1.104-0.47,1.98-0.47
						c0.795,0,1.387,0.094,1.777,0.282c0.389,0.188,0.662,0.428,0.822,0.718c0.158,0.29,0.236,0.821,0.236,1.597l-0.018,2.082
						c0,0.592,0.027,1.029,0.086,1.311c0.057,0.281,0.164,0.583,0.32,0.904h-1.766c-0.047-0.118-0.104-0.294-0.172-0.527
						c-0.029-0.105-0.051-0.175-0.062-0.209c-0.305,0.296-0.631,0.519-0.979,0.666c-0.346,0.148-0.717,0.223-1.109,0.223
						c-0.695,0-1.242-0.188-1.641-0.564c-0.4-0.377-0.602-0.854-0.602-1.429c0-0.381,0.092-0.721,0.273-1.019
						c0.182-0.299,0.438-0.527,0.766-0.686c0.328-0.159,0.801-0.298,1.418-0.416c0.834-0.156,1.412-0.303,1.732-0.438v-0.178
						c0-0.344-0.084-0.588-0.254-0.733c-0.168-0.146-0.488-0.22-0.957-0.22c-0.318,0-0.566,0.062-0.744,0.188
						S248.855,265.407,248.744,265.721z M251.131,267.168c-0.229,0.076-0.59,0.167-1.084,0.272c-0.496,0.106-0.82,0.21-0.973,0.312
						c-0.232,0.165-0.348,0.374-0.348,0.628c0,0.25,0.092,0.466,0.279,0.648c0.186,0.182,0.422,0.272,0.711,0.272
						c0.32,0,0.627-0.105,0.92-0.317c0.215-0.161,0.357-0.357,0.426-0.59c0.047-0.152,0.068-0.442,0.068-0.87V267.168z"/>
					<path fill="#331842" d="M264.436,270.405h-1.656v-0.99c-0.275,0.385-0.6,0.672-0.975,0.86
						c-0.373,0.188-0.752,0.282-1.133,0.282c-0.773,0-1.438-0.312-1.99-0.937c-0.551-0.624-0.828-1.495-0.828-2.612
						c0-1.143,0.27-2.011,0.807-2.605s1.217-0.892,2.037-0.892c0.754,0,1.406,0.313,1.955,0.939V261.1h1.783V270.405z
						 M259.676,266.889c0,0.72,0.1,1.24,0.299,1.562c0.287,0.466,0.689,0.698,1.205,0.698c0.41,0,0.76-0.175,1.047-0.523
						c0.289-0.35,0.432-0.871,0.432-1.565c0-0.773-0.139-1.331-0.418-1.672s-0.637-0.512-1.072-0.512
						c-0.424,0-0.777,0.169-1.064,0.505C259.818,265.718,259.676,266.22,259.676,266.889z"/>
					<path fill="#331842" d="M266.195,262.75v-1.65h1.783v1.65H266.195z M266.195,270.405v-6.741h1.783v6.741H266.195z"/>
					<path fill="#331842" d="M271.139,265.721l-1.617-0.292c0.182-0.651,0.494-1.134,0.939-1.447c0.443-0.313,1.104-0.47,1.98-0.47
						c0.795,0,1.387,0.094,1.777,0.282c0.389,0.188,0.662,0.428,0.822,0.718c0.158,0.29,0.236,0.821,0.236,1.597l-0.018,2.082
						c0,0.592,0.027,1.029,0.086,1.311c0.057,0.281,0.164,0.583,0.32,0.904H273.9c-0.047-0.118-0.104-0.294-0.172-0.527
						c-0.029-0.105-0.051-0.175-0.062-0.209c-0.305,0.296-0.631,0.519-0.979,0.666c-0.346,0.148-0.717,0.223-1.109,0.223
						c-0.695,0-1.242-0.188-1.641-0.564c-0.4-0.377-0.602-0.854-0.602-1.429c0-0.381,0.092-0.721,0.273-1.019
						c0.182-0.299,0.438-0.527,0.766-0.686c0.328-0.159,0.801-0.298,1.418-0.416c0.834-0.156,1.412-0.303,1.732-0.438v-0.178
						c0-0.344-0.084-0.588-0.254-0.733c-0.168-0.146-0.488-0.22-0.957-0.22c-0.318,0-0.566,0.062-0.744,0.188
						S271.25,265.407,271.139,265.721z M273.525,267.168c-0.229,0.076-0.59,0.167-1.084,0.272c-0.496,0.106-0.82,0.21-0.973,0.312
						c-0.232,0.165-0.348,0.374-0.348,0.628c0,0.25,0.092,0.466,0.279,0.648c0.186,0.182,0.422,0.272,0.711,0.272
						c0.32,0,0.627-0.105,0.92-0.317c0.215-0.161,0.357-0.357,0.426-0.59c0.047-0.152,0.068-0.442,0.068-0.87V267.168z"/>
					<path fill="#331842" d="M278.744,270.405h-1.783v-6.741h1.656v0.958c0.283-0.452,0.537-0.751,0.764-0.895
						s0.484-0.216,0.771-0.216c0.406,0,0.799,0.112,1.176,0.337l-0.553,1.555c-0.301-0.194-0.58-0.292-0.838-0.292
						c-0.25,0-0.461,0.068-0.635,0.206s-0.311,0.387-0.41,0.746s-0.148,1.113-0.148,2.26V270.405z"/>
					<path fill="#331842" d="M282.096,262.75v-1.65h1.783v1.65H282.096z M282.096,270.405v-6.741h1.783v6.741H282.096z"/>
					<path fill="#331842" d="M287.039,265.721l-1.617-0.292c0.182-0.651,0.494-1.134,0.939-1.447c0.443-0.313,1.104-0.47,1.98-0.47
						c0.795,0,1.387,0.094,1.777,0.282c0.389,0.188,0.662,0.428,0.822,0.718c0.158,0.29,0.236,0.821,0.236,1.597l-0.018,2.082
						c0,0.592,0.027,1.029,0.086,1.311c0.057,0.281,0.164,0.583,0.32,0.904h-1.766c-0.047-0.118-0.104-0.294-0.172-0.527
						c-0.029-0.105-0.051-0.175-0.062-0.209c-0.305,0.296-0.631,0.519-0.979,0.666c-0.346,0.148-0.717,0.223-1.109,0.223
						c-0.695,0-1.242-0.188-1.641-0.564c-0.4-0.377-0.602-0.854-0.602-1.429c0-0.381,0.092-0.721,0.273-1.019
						c0.182-0.299,0.438-0.527,0.766-0.686c0.328-0.159,0.801-0.298,1.418-0.416c0.834-0.156,1.412-0.303,1.732-0.438v-0.178
						c0-0.344-0.084-0.588-0.254-0.733c-0.168-0.146-0.488-0.22-0.957-0.22c-0.318,0-0.566,0.062-0.744,0.188
						S287.15,265.407,287.039,265.721z M289.426,267.168c-0.229,0.076-0.59,0.167-1.084,0.272c-0.496,0.106-0.82,0.21-0.973,0.312
						c-0.232,0.165-0.348,0.374-0.348,0.628c0,0.25,0.092,0.466,0.279,0.648c0.186,0.182,0.422,0.272,0.711,0.272
						c0.32,0,0.627-0.105,0.92-0.317c0.215-0.161,0.357-0.357,0.426-0.59c0.047-0.152,0.068-0.442,0.068-0.87V267.168z"/>
					<path fill="#331842" d="M110.5,304.378l-1.727,0.191c-0.043-0.355-0.152-0.618-0.33-0.787c-0.178-0.17-0.41-0.254-0.693-0.254
						c-0.377,0-0.695,0.169-0.955,0.508c-0.26,0.338-0.424,1.043-0.492,2.113c0.445-0.524,0.998-0.787,1.658-0.787
						c0.744,0,1.381,0.283,1.912,0.851s0.797,1.299,0.797,2.196c0,0.952-0.279,1.716-0.838,2.291
						c-0.559,0.576-1.275,0.863-2.15,0.863c-0.939,0-1.713-0.364-2.318-1.095c-0.605-0.729-0.906-1.927-0.906-3.589
						c0-1.706,0.314-2.936,0.945-3.688s1.449-1.13,2.457-1.13c0.705,0,1.291,0.198,1.754,0.594S110.373,303.625,110.5,304.378z
						 M106.455,308.27c0,0.58,0.135,1.027,0.4,1.343c0.268,0.315,0.572,0.473,0.914,0.473c0.33,0,0.605-0.129,0.826-0.387
						c0.219-0.259,0.33-0.682,0.33-1.27c0-0.605-0.119-1.049-0.355-1.33c-0.238-0.281-0.533-0.422-0.889-0.422
						c-0.344,0-0.633,0.134-0.871,0.402C106.574,307.348,106.455,307.745,106.455,308.27z"/>
					<path fill="#331842" d="M112.066,311.405v-1.783h1.783v1.783H112.066z"/>
					<path fill="#331842" d="M115.691,311.405V302.1h3.016c1.143,0,1.887,0.047,2.234,0.14c0.533,0.14,0.979,0.443,1.34,0.911
						c0.359,0.468,0.539,1.071,0.539,1.812c0,0.572-0.104,1.052-0.311,1.441c-0.209,0.39-0.473,0.695-0.791,0.917
						c-0.32,0.223-0.645,0.369-0.975,0.441c-0.449,0.089-1.098,0.134-1.949,0.134h-1.225v3.51H115.691z M117.57,303.674v2.641h1.029
						c0.74,0,1.234-0.049,1.484-0.146c0.25-0.098,0.445-0.25,0.588-0.457c0.141-0.208,0.213-0.449,0.213-0.725
						c0-0.338-0.1-0.617-0.299-0.838c-0.199-0.22-0.451-0.357-0.756-0.412c-0.225-0.042-0.676-0.063-1.352-0.063H117.57z"/>
					<path fill="#331842" d="M125.682,306.721l-1.617-0.292c0.182-0.651,0.494-1.134,0.939-1.447c0.443-0.313,1.104-0.47,1.98-0.47
						c0.795,0,1.387,0.094,1.777,0.282c0.389,0.188,0.662,0.428,0.822,0.718c0.158,0.29,0.236,0.821,0.236,1.597l-0.018,2.082
						c0,0.592,0.027,1.029,0.086,1.311c0.057,0.281,0.164,0.583,0.32,0.904h-1.766c-0.047-0.118-0.104-0.294-0.172-0.527
						c-0.029-0.105-0.051-0.175-0.062-0.209c-0.305,0.296-0.631,0.519-0.979,0.666c-0.346,0.148-0.717,0.223-1.109,0.223
						c-0.695,0-1.242-0.188-1.641-0.564c-0.4-0.377-0.602-0.854-0.602-1.429c0-0.381,0.092-0.721,0.273-1.019
						c0.182-0.299,0.438-0.527,0.766-0.686c0.328-0.159,0.801-0.298,1.418-0.416c0.834-0.156,1.412-0.303,1.732-0.438v-0.178
						c0-0.344-0.084-0.588-0.254-0.733c-0.168-0.146-0.488-0.22-0.957-0.22c-0.318,0-0.566,0.062-0.744,0.188
						S125.793,306.407,125.682,306.721z M128.068,308.168c-0.229,0.076-0.59,0.167-1.084,0.272c-0.496,0.106-0.82,0.21-0.973,0.312
						c-0.232,0.165-0.348,0.374-0.348,0.628c0,0.25,0.092,0.466,0.279,0.648c0.186,0.182,0.422,0.272,0.711,0.272
						c0.32,0,0.627-0.105,0.92-0.317c0.215-0.161,0.357-0.357,0.426-0.59c0.047-0.152,0.068-0.442,0.068-0.87V308.168z"/>
					<path fill="#331842" d="M133.287,311.405h-1.783v-6.741h1.656v0.958c0.283-0.452,0.539-0.751,0.766-0.895
						s0.482-0.216,0.771-0.216c0.406,0,0.797,0.112,1.174,0.337l-0.553,1.555c-0.301-0.194-0.58-0.292-0.838-0.292
						c-0.25,0-0.461,0.068-0.635,0.206s-0.309,0.387-0.408,0.746s-0.15,1.113-0.15,2.26V311.405z"/>
					<path fill="#331842" d="M139.73,304.664v1.422h-1.219v2.717c0,0.55,0.012,0.871,0.035,0.962s0.076,0.166,0.158,0.225
						c0.082,0.06,0.184,0.09,0.301,0.09c0.166,0,0.404-0.058,0.717-0.172l0.152,1.384c-0.414,0.178-0.883,0.267-1.408,0.267
						c-0.322,0-0.611-0.054-0.869-0.162c-0.258-0.107-0.447-0.247-0.568-0.419c-0.121-0.171-0.205-0.403-0.252-0.694
						c-0.037-0.208-0.057-0.627-0.057-1.258v-2.938h-0.818v-1.422h0.818v-1.339l1.791-1.041v2.38H139.73z"/>
					<path fill="#331842" d="M140.969,303.75v-1.65h1.783v1.65H140.969z M140.969,311.405v-6.741h1.783v6.741H140.969z"/>
					<path fill="#331842" d="M150.457,306.657l-1.758,0.317c-0.059-0.352-0.193-0.616-0.402-0.794s-0.482-0.266-0.816-0.266
						c-0.443,0-0.799,0.153-1.062,0.46c-0.266,0.307-0.396,0.819-0.396,1.539c0,0.8,0.135,1.364,0.402,1.694
						c0.27,0.33,0.629,0.496,1.082,0.496c0.34,0,0.615-0.097,0.832-0.289c0.215-0.192,0.367-0.523,0.457-0.994l1.752,0.299
						c-0.182,0.804-0.531,1.411-1.047,1.822c-0.518,0.41-1.209,0.615-2.076,0.615c-0.986,0-1.771-0.311-2.357-0.934
						c-0.586-0.621-0.881-1.482-0.881-2.583c0-1.113,0.295-1.979,0.883-2.6s1.385-0.93,2.387-0.93c0.822,0,1.475,0.177,1.959,0.53
						S150.246,305.934,150.457,306.657z"/>
					<path fill="#331842" d="M151.811,303.75v-1.65h1.783v1.65H151.811z M151.811,311.405v-6.741h1.783v6.741H151.811z"/>
					<path fill="#331842" d="M155.371,304.664h1.662v0.99c0.217-0.339,0.508-0.613,0.877-0.825c0.367-0.212,0.777-0.317,1.225-0.317
						c0.783,0,1.447,0.307,1.994,0.921c0.545,0.613,0.818,1.468,0.818,2.564c0,1.125-0.275,2-0.826,2.624
						c-0.549,0.624-1.215,0.937-1.998,0.937c-0.373,0-0.711-0.074-1.014-0.223c-0.303-0.147-0.621-0.401-0.955-0.762v3.396h-1.783
						V304.664z M157.135,307.921c0,0.757,0.15,1.316,0.451,1.679c0.301,0.361,0.666,0.542,1.098,0.542
						c0.416,0,0.76-0.166,1.035-0.498s0.412-0.877,0.412-1.635c0-0.706-0.141-1.23-0.424-1.574
						c-0.283-0.342-0.635-0.514-1.055-0.514c-0.436,0-0.797,0.168-1.086,0.505C157.279,306.762,157.135,307.261,157.135,307.921z"/>
					<path fill="#331842" d="M164.695,306.721l-1.619-0.292c0.182-0.651,0.496-1.134,0.939-1.447c0.445-0.313,1.105-0.47,1.98-0.47
						c0.797,0,1.389,0.094,1.777,0.282c0.391,0.188,0.664,0.428,0.822,0.718s0.238,0.821,0.238,1.597l-0.02,2.082
						c0,0.592,0.029,1.029,0.086,1.311s0.164,0.583,0.32,0.904h-1.764c-0.047-0.118-0.104-0.294-0.172-0.527
						c-0.029-0.105-0.051-0.175-0.062-0.209c-0.305,0.296-0.631,0.519-0.979,0.666c-0.348,0.148-0.717,0.223-1.111,0.223
						c-0.693,0-1.24-0.188-1.641-0.564c-0.4-0.377-0.6-0.854-0.6-1.429c0-0.381,0.092-0.721,0.273-1.019
						c0.182-0.299,0.436-0.527,0.764-0.686c0.328-0.159,0.801-0.298,1.42-0.416c0.834-0.156,1.41-0.303,1.732-0.438v-0.178
						c0-0.344-0.084-0.588-0.254-0.733c-0.17-0.146-0.488-0.22-0.959-0.22c-0.316,0-0.564,0.062-0.742,0.188
						S164.805,306.407,164.695,306.721z M167.082,308.168c-0.229,0.076-0.59,0.167-1.086,0.272c-0.494,0.106-0.818,0.21-0.971,0.312
						c-0.232,0.165-0.35,0.374-0.35,0.628c0,0.25,0.094,0.466,0.279,0.648c0.188,0.182,0.424,0.272,0.711,0.272
						c0.322,0,0.629-0.105,0.922-0.317c0.215-0.161,0.357-0.357,0.424-0.59c0.047-0.152,0.07-0.442,0.07-0.87V308.168z"/>
					<path fill="#331842" d="M176.469,306.657l-1.758,0.317c-0.059-0.352-0.193-0.616-0.402-0.794s-0.482-0.266-0.816-0.266
						c-0.443,0-0.799,0.153-1.062,0.46c-0.266,0.307-0.396,0.819-0.396,1.539c0,0.8,0.135,1.364,0.402,1.694
						c0.27,0.33,0.629,0.496,1.082,0.496c0.34,0,0.615-0.097,0.832-0.289c0.215-0.192,0.367-0.523,0.457-0.994l1.752,0.299
						c-0.182,0.804-0.531,1.411-1.047,1.822c-0.518,0.41-1.209,0.615-2.076,0.615c-0.986,0-1.771-0.311-2.357-0.934
						c-0.586-0.621-0.881-1.482-0.881-2.583c0-1.113,0.295-1.979,0.883-2.6s1.385-0.93,2.387-0.93c0.822,0,1.475,0.177,1.959,0.53
						S176.258,305.934,176.469,306.657z"/>
					<path fill="#331842" d="M177.822,303.75v-1.65h1.783v1.65H177.822z M177.822,311.405v-6.741h1.783v6.741H177.822z"/>
					<path fill="#331842" d="M181.021,307.939c0-0.593,0.145-1.166,0.438-1.72c0.291-0.555,0.705-0.979,1.24-1.27
						c0.535-0.293,1.133-0.438,1.793-0.438c1.021,0,1.857,0.331,2.508,0.993c0.652,0.662,0.979,1.499,0.979,2.511
						c0,1.02-0.33,1.865-0.988,2.536s-1.486,1.006-2.484,1.006c-0.617,0-1.207-0.14-1.768-0.419s-0.988-0.688-1.279-1.229
						C181.166,309.371,181.021,308.714,181.021,307.939z M182.85,308.034c0,0.669,0.158,1.182,0.475,1.537
						c0.318,0.355,0.709,0.533,1.176,0.533c0.465,0,0.855-0.178,1.17-0.533c0.316-0.355,0.473-0.872,0.473-1.549
						c0-0.66-0.156-1.168-0.473-1.523c-0.314-0.355-0.705-0.533-1.17-0.533c-0.467,0-0.857,0.178-1.176,0.533
						C183.008,306.854,182.85,307.366,182.85,308.034z M183.598,303.839l0.877-1.898h1.998l-1.744,1.898H183.598z"/>
					<path fill="#331842" d="M195.506,311.405h-1.783v-3.44c0-0.728-0.037-1.198-0.113-1.412s-0.201-0.38-0.371-0.499
						c-0.172-0.118-0.379-0.178-0.619-0.178c-0.309,0-0.586,0.085-0.832,0.254c-0.246,0.17-0.414,0.395-0.504,0.674
						c-0.092,0.279-0.137,0.795-0.137,1.549v3.053h-1.785v-6.741h1.658v0.99c0.588-0.762,1.328-1.143,2.221-1.143
						c0.395,0,0.754,0.071,1.08,0.213s0.572,0.322,0.738,0.542c0.168,0.221,0.285,0.471,0.35,0.75
						c0.066,0.279,0.098,0.679,0.098,1.199V311.405z"/>
					<path fill="#331842" d="M104.457,344.884v-1.657h6.1v1.295c-0.504,0.495-1.016,1.206-1.537,2.133
						c-0.52,0.927-0.916,1.912-1.189,2.955s-0.408,1.975-0.402,2.796h-1.721c0.029-1.286,0.295-2.599,0.797-3.936
						c0.5-1.337,1.17-2.533,2.008-3.586H104.457z"/>
					<path fill="#331842" d="M112.066,352.405v-1.783h1.783v1.783H112.066z"/>
					<path fill="#331842" d="M123.633,348.983v-1.567h4.049v3.707c-0.393,0.381-0.963,0.716-1.709,1.006
						c-0.748,0.29-1.504,0.435-2.27,0.435c-0.975,0-1.822-0.204-2.547-0.612c-0.723-0.408-1.266-0.992-1.631-1.752
						c-0.363-0.76-0.545-1.586-0.545-2.479c0-0.969,0.203-1.83,0.609-2.583c0.406-0.754,1-1.331,1.783-1.733
						c0.596-0.309,1.34-0.464,2.229-0.464c1.154,0,2.057,0.243,2.707,0.728c0.648,0.484,1.066,1.154,1.254,2.009l-1.867,0.35
						c-0.131-0.457-0.377-0.818-0.738-1.083c-0.363-0.265-0.814-0.396-1.355-0.396c-0.822,0-1.475,0.261-1.959,0.78
						c-0.484,0.521-0.727,1.293-0.727,2.317c0,1.104,0.246,1.933,0.736,2.485c0.49,0.552,1.135,0.828,1.93,0.828
						c0.393,0,0.789-0.077,1.184-0.231c0.396-0.154,0.736-0.342,1.02-0.562v-1.182H123.633z"/>
					<path fill="#331842" d="M129.402,352.405V343.1h1.783v9.306H129.402z"/>
					<path fill="#331842" d="M132.602,348.939c0-0.593,0.145-1.166,0.438-1.72c0.291-0.555,0.705-0.979,1.24-1.27
						c0.535-0.293,1.133-0.438,1.793-0.438c1.021,0,1.857,0.331,2.508,0.993c0.652,0.662,0.979,1.499,0.979,2.511
						c0,1.02-0.33,1.865-0.988,2.536s-1.486,1.006-2.484,1.006c-0.617,0-1.207-0.14-1.768-0.419s-0.988-0.688-1.279-1.229
						C132.746,350.371,132.602,349.714,132.602,348.939z M134.43,349.034c0,0.669,0.158,1.182,0.475,1.537
						c0.318,0.355,0.709,0.533,1.176,0.533c0.465,0,0.855-0.178,1.17-0.533c0.316-0.355,0.473-0.872,0.473-1.549
						c0-0.66-0.156-1.168-0.473-1.523c-0.314-0.355-0.705-0.533-1.17-0.533c-0.467,0-0.857,0.178-1.176,0.533
						C134.588,347.854,134.43,348.366,134.43,349.034z"/>
					<path fill="#331842" d="M140.879,352.405V343.1h1.783v3.352c0.551-0.626,1.203-0.939,1.955-0.939
						c0.822,0,1.5,0.297,2.037,0.892c0.539,0.595,0.807,1.448,0.807,2.562c0,1.151-0.273,2.038-0.822,2.659
						c-0.547,0.623-1.213,0.934-1.996,0.934c-0.385,0-0.764-0.097-1.139-0.289s-0.697-0.477-0.969-0.854v0.99H140.879z
						 M142.65,348.889c0,0.698,0.109,1.215,0.33,1.549c0.309,0.474,0.719,0.711,1.23,0.711c0.395,0,0.729-0.168,1.006-0.505
						c0.277-0.336,0.416-0.866,0.416-1.59c0-0.771-0.139-1.325-0.418-1.666s-0.637-0.512-1.074-0.512
						c-0.426,0-0.781,0.167-1.066,0.499C142.791,347.707,142.65,348.212,142.65,348.889z"/>
					<path fill="#331842" d="M150.229,347.721l-1.617-0.292c0.182-0.651,0.494-1.134,0.939-1.447c0.443-0.313,1.104-0.47,1.98-0.47
						c0.795,0,1.387,0.094,1.777,0.282c0.389,0.188,0.662,0.428,0.822,0.718c0.158,0.29,0.236,0.821,0.236,1.597l-0.018,2.082
						c0,0.592,0.027,1.029,0.086,1.311c0.057,0.281,0.164,0.583,0.32,0.904h-1.766c-0.047-0.118-0.104-0.294-0.172-0.527
						c-0.029-0.105-0.051-0.175-0.062-0.209c-0.305,0.296-0.631,0.519-0.979,0.666c-0.346,0.148-0.717,0.223-1.109,0.223
						c-0.695,0-1.242-0.188-1.641-0.564c-0.4-0.377-0.602-0.854-0.602-1.429c0-0.381,0.092-0.721,0.273-1.019
						c0.182-0.299,0.438-0.527,0.766-0.686c0.328-0.159,0.801-0.298,1.418-0.416c0.834-0.156,1.412-0.303,1.732-0.438v-0.178
						c0-0.344-0.084-0.588-0.254-0.733c-0.168-0.146-0.488-0.22-0.957-0.22c-0.318,0-0.566,0.062-0.744,0.188
						S150.34,347.407,150.229,347.721z M152.615,349.168c-0.229,0.076-0.59,0.167-1.084,0.272c-0.496,0.106-0.82,0.21-0.973,0.312
						c-0.232,0.165-0.348,0.374-0.348,0.628c0,0.25,0.092,0.466,0.279,0.648c0.186,0.182,0.422,0.272,0.711,0.272
						c0.32,0,0.627-0.105,0.92-0.317c0.215-0.161,0.357-0.357,0.426-0.59c0.047-0.152,0.068-0.442,0.068-0.87V349.168z"/>
					<path fill="#331842" d="M156.127,352.405V343.1h1.783v9.306H156.127z"/>
				</g>
			</g>
			<g>
				<g>
					<path fill="#331842" d="M433.459,65.405V56.1h3.016c1.143,0,1.889,0.047,2.234,0.14c0.533,0.14,0.98,0.443,1.34,0.911
						s0.539,1.071,0.539,1.812c0,0.572-0.104,1.052-0.311,1.441s-0.471,0.695-0.791,0.917c-0.318,0.223-0.645,0.369-0.975,0.441
						c-0.447,0.089-1.098,0.134-1.947,0.134h-1.227v3.51H433.459z M435.338,57.674v2.641h1.029c0.74,0,1.236-0.049,1.484-0.146
						c0.25-0.098,0.447-0.25,0.588-0.457c0.143-0.208,0.213-0.449,0.213-0.725c0-0.338-0.1-0.617-0.299-0.838
						c-0.199-0.22-0.451-0.357-0.756-0.412c-0.223-0.042-0.674-0.063-1.352-0.063H435.338z"/>
					<path fill="#331842" d="M446.555,65.405v-1.01c-0.244,0.36-0.568,0.644-0.967,0.852c-0.4,0.207-0.822,0.311-1.268,0.311
						c-0.453,0-0.859-0.1-1.219-0.299c-0.359-0.198-0.619-0.478-0.779-0.838c-0.162-0.359-0.242-0.856-0.242-1.491v-4.266h1.783
						v3.098c0,0.948,0.033,1.528,0.1,1.742c0.064,0.214,0.184,0.383,0.357,0.508s0.395,0.188,0.66,0.188
						c0.305,0,0.578-0.084,0.82-0.251c0.24-0.167,0.406-0.374,0.494-0.622c0.09-0.247,0.133-0.854,0.133-1.818v-2.844h1.785v6.741
						H446.555z"/>
					<path fill="#331842" d="M456.191,65.405h-1.783v-3.44c0-0.728-0.039-1.198-0.115-1.412s-0.199-0.38-0.371-0.499
						c-0.172-0.118-0.377-0.178-0.619-0.178c-0.309,0-0.586,0.085-0.83,0.254c-0.246,0.17-0.414,0.395-0.506,0.674
						c-0.09,0.279-0.137,0.795-0.137,1.549v3.053h-1.783v-6.741h1.656v0.99c0.588-0.762,1.33-1.143,2.223-1.143
						c0.393,0,0.752,0.071,1.078,0.213s0.572,0.322,0.74,0.542c0.166,0.221,0.283,0.471,0.35,0.75
						c0.064,0.279,0.098,0.679,0.098,1.199V65.405z"/>
					<path fill="#331842" d="M461.092,58.664v1.422h-1.219v2.717c0,0.55,0.012,0.871,0.035,0.962s0.076,0.166,0.158,0.225
						c0.082,0.06,0.184,0.09,0.301,0.09c0.166,0,0.404-0.058,0.717-0.172l0.152,1.384c-0.414,0.178-0.883,0.267-1.408,0.267
						c-0.322,0-0.611-0.054-0.869-0.162c-0.258-0.107-0.447-0.247-0.568-0.419c-0.121-0.171-0.205-0.403-0.252-0.694
						c-0.037-0.208-0.057-0.627-0.057-1.258v-2.938h-0.818v-1.422h0.818v-1.339l1.791-1.041v2.38H461.092z"/>
					<path fill="#331842" d="M463.662,60.721l-1.619-0.292c0.182-0.651,0.496-1.134,0.939-1.447c0.445-0.313,1.105-0.47,1.98-0.47
						c0.797,0,1.389,0.094,1.777,0.282c0.391,0.188,0.664,0.428,0.822,0.718s0.238,0.821,0.238,1.597l-0.02,2.082
						c0,0.592,0.029,1.029,0.086,1.311s0.164,0.583,0.32,0.904h-1.764c-0.047-0.118-0.104-0.294-0.172-0.527
						c-0.029-0.105-0.051-0.175-0.062-0.209c-0.305,0.296-0.631,0.519-0.979,0.666c-0.348,0.148-0.717,0.223-1.111,0.223
						c-0.693,0-1.24-0.188-1.641-0.564c-0.4-0.377-0.6-0.854-0.6-1.429c0-0.381,0.092-0.721,0.273-1.019
						c0.182-0.299,0.436-0.527,0.764-0.686c0.328-0.159,0.801-0.298,1.42-0.416c0.834-0.156,1.41-0.303,1.732-0.438v-0.178
						c0-0.344-0.084-0.588-0.254-0.733c-0.17-0.146-0.488-0.22-0.959-0.22c-0.316,0-0.564,0.062-0.742,0.188
						S463.771,60.407,463.662,60.721z M466.049,62.168c-0.229,0.076-0.59,0.167-1.086,0.272c-0.494,0.106-0.818,0.21-0.971,0.312
						c-0.232,0.165-0.35,0.374-0.35,0.628c0,0.25,0.094,0.466,0.279,0.648c0.188,0.182,0.424,0.272,0.711,0.272
						c0.322,0,0.629-0.105,0.922-0.317c0.215-0.161,0.357-0.357,0.424-0.59c0.047-0.152,0.07-0.442,0.07-0.87V62.168z"/>
					<path fill="#331842" d="M471.305,58.664v6.532c0,0.858-0.055,1.465-0.168,1.818c-0.111,0.354-0.328,0.629-0.646,0.828
						c-0.32,0.199-0.727,0.299-1.223,0.299c-0.178,0-0.369-0.017-0.574-0.048c-0.205-0.032-0.426-0.079-0.664-0.144l0.312-1.523
						c0.084,0.018,0.162,0.031,0.236,0.042s0.145,0.016,0.207,0.016c0.182,0,0.332-0.039,0.447-0.117
						c0.117-0.078,0.193-0.173,0.232-0.282c0.037-0.11,0.057-0.44,0.057-0.99v-6.431H471.305z M469.521,57.75V56.1h1.783v1.65
						H469.521z"/>
					<path fill="#331842" d="M477.074,63.26l1.777,0.298c-0.229,0.652-0.588,1.148-1.082,1.489c-0.492,0.341-1.109,0.511-1.85,0.511
						c-1.172,0-2.041-0.383-2.604-1.148c-0.443-0.614-0.666-1.389-0.666-2.324c0-1.117,0.293-1.991,0.877-2.624
						s1.322-0.949,2.215-0.949c1.002,0,1.793,0.331,2.373,0.993s0.857,1.677,0.832,3.044h-4.469c0.014,0.529,0.156,0.94,0.432,1.234
						s0.617,0.441,1.029,0.441c0.279,0,0.514-0.076,0.703-0.229C476.834,63.844,476.977,63.599,477.074,63.26z M477.176,61.457
						c-0.012-0.517-0.145-0.909-0.398-1.178s-0.564-0.403-0.928-0.403c-0.389,0-0.711,0.143-0.965,0.426s-0.379,0.669-0.375,1.155
						H477.176z"/>
				</g>
			</g>
		</g>
		<path fill="#331842" d="M929.893,114.454c-13.572,0-24.584,11.011-24.584,24.59c0,13.574,11.012,24.584,24.584,24.584
			c13.58,0,24.59-11.01,24.59-24.584C954.482,125.465,943.473,114.454,929.893,114.454z M921,135.288
			c0-0.854,0.98-1.342,1.666-0.834l4.801,3.586c0.668,0.5,0.668,1.502,0,2.004l-4.801,3.584c-0.686,0.511-1.666,0.02-1.666-0.834
			V135.288z M943.854,140.044l-21.188,15.836c-0.686,0.521-1.666,0.029-1.666-0.833v-3.096c0-0.833,0.396-1.624,1.066-2.122
			l13.334-9.973c0.537-0.408,0.537-1.223,0-1.629l-13.334-9.973c-0.67-0.5-1.066-1.289-1.066-2.113v-3.104
			c0-0.864,0.98-1.355,1.666-0.838l21.188,15.84C944.521,138.54,944.521,139.542,943.854,140.044z"/>
		<path fill="#331842" d="M0,139.044c0,13.574,11.012,24.584,24.59,24.584c13.574,0,24.584-11.01,24.584-24.584
			c0-13.579-11.01-24.59-24.584-24.59C11.012,114.454,0,125.465,0,139.044z M33.484,142.794c0,0.854-0.982,1.345-1.668,0.834
			l-4.801-3.584c-0.668-0.502-0.668-1.504,0-2.004l4.801-3.586c0.686-0.508,1.668-0.02,1.668,0.834V142.794z M10.631,138.04
			l21.186-15.84c0.686-0.518,1.668-0.026,1.668,0.838v3.104c0,0.824-0.398,1.613-1.068,2.113l-13.334,9.973
			c-0.537,0.406-0.537,1.221,0,1.629l13.334,9.973c0.67,0.498,1.068,1.289,1.068,2.122v3.096c0,0.862-0.982,1.354-1.668,0.833
			l-21.186-15.836C9.961,139.542,9.961,138.54,10.631,138.04z"/>
	</g>
	<g opacity="0.9">
		<path fill="#A0C219" d="M797.168,265.334c-0.758-0.872-1.641-1.622-2.633-2.24c1.006-2.464,0.852-5.25-0.441-7.569
			c-0.941-1.694-2.355-3.023-4.127-3.86c-1.904-0.888-4.061-1.08-6.1-0.542c-1.893,0.498-3.527,1.603-4.701,3.13
			c-1.033-0.273-2.115-0.411-3.238-0.411c-1.184,0-2.314,0.175-3.395,0.486c-0.982-0.842-2.059-1.562-3.242-2.13
			c-1.977-0.949-4.121-1.48-6.373-1.578c-2.387-0.104-4.643,0.304-6.768,1.213c-0.723,0.311-1.395,0.694-2.041,1.111
			c-0.436-0.267-0.881-0.522-1.348-0.746c-1.979-0.949-4.123-1.48-6.373-1.578c-2.385-0.104-4.645,0.304-6.768,1.213
			c-2.363,1.017-4.33,2.609-5.846,4.734c-1.645,2.304-2.479,5.063-2.479,8.2c0,1.812,0.299,3.499,0.891,5.043
			c-0.643,1.619-0.967,3.402-0.967,5.331c0,2.329,0.479,4.477,1.422,6.377c0.914,1.852,2.172,3.425,3.742,4.682
			c1.471,1.174,3.145,2.039,4.973,2.569c1.471,0.429,3.008,0.646,4.568,0.646c0.119,0,0.238-0.001,0.357-0.003
			c1.734-0.012,3.451-0.296,5.098-0.843c1.059-0.351,2.057-0.812,3-1.358c1.09,0.666,2.26,1.196,3.506,1.559
			c1.473,0.429,3.01,0.646,4.568,0.646c0.119,0,0.238-0.001,0.359-0.003c1.734-0.012,3.451-0.296,5.098-0.843
			c1.238-0.41,2.4-0.963,3.48-1.639c0.684,0.638,1.463,1.165,2.314,1.562c1.232,0.583,2.543,0.878,3.896,0.878
			c0.502,0,1.006-0.042,1.475-0.12c2.521-0.411,4.672-1.871,6.01-4.052c1.049,0.254,2.139,0.364,3.299,0.337
			c1.828-0.021,3.545-0.426,5.104-1.205c1.42-0.71,2.656-1.665,3.686-2.848c1-1.156,1.762-2.48,2.26-3.936
			c0.451-1.315,0.68-2.688,0.68-4.077c0-1.373-0.215-2.73-0.639-4.034C798.979,267.908,798.205,266.531,797.168,265.334z
			 M789.164,275.808l0.988-2.339h0.402c-0.006,0.619-0.188,1.188-0.547,1.71C789.797,275.483,789.51,275.686,789.164,275.808z
			 M790.545,273.271l-0.316,0.014l0.236-0.558C790.508,272.903,790.535,273.084,790.545,273.271z"/>
		<path fill="#A0C219" d="M733.43,127.617c1.209,2.054,2.857,3.698,4.902,4.889c2.004,1.167,4.311,1.759,6.854,1.759
			c0.195,0,0.393-0.004,0.594-0.011c2.611-0.069,5-0.794,7.102-2.154c0.209-0.136,0.4-0.291,0.602-0.436
			c0.393,0.255,0.783,0.509,1.203,0.73c2.148,1.14,4.586,1.717,7.24,1.717c0.209,0,0.42-0.003,0.666-0.012
			c2.783-0.105,5.311-0.874,7.51-2.285c0.332-0.213,0.643-0.452,0.955-0.687c0.805,0.889,1.756,1.627,2.842,2.134
			c1.232,0.583,2.545,0.878,3.898,0.878c0.5,0,1.006-0.042,1.475-0.12c2.52-0.411,4.672-1.871,6.008-4.052
			c1.049,0.253,2.145,0.361,3.301,0.337c1.828-0.021,3.545-0.426,5.102-1.205c1.422-0.71,2.658-1.665,3.686-2.848
			c1.002-1.156,1.762-2.48,2.262-3.936c0.451-1.315,0.68-2.688,0.68-4.077c0-1.373-0.217-2.73-0.641-4.034
			c-0.496-1.526-1.271-2.903-2.309-4.101c-0.758-0.872-1.639-1.622-2.633-2.24c1.008-2.464,0.854-5.25-0.441-7.569
			c-0.941-1.694-2.354-3.023-4.125-3.86c-1.906-0.889-4.059-1.08-6.102-0.542c-1.893,0.498-3.527,1.603-4.701,3.13
			c-1.031-0.273-2.113-0.411-3.236-0.411c-1.539,0-2.992,0.278-4.355,0.805c-0.426-0.373-0.863-0.728-1.324-1.048
			c-2.492-1.73-5.387-2.646-8.371-2.646l-0.268,0.002c-3.041,0.055-5.977,1.049-8.492,2.875c-0.615,0.447-1.195,0.945-1.746,1.487
			c-0.865-1.641-2.223-2.979-3.898-3.822c-1.553-0.776-3.311-1.105-5.08-0.915c-2.537,0.267-4.852,1.649-6.312,3.74
			c-0.738,1.04-1.422,2.267-2.088,3.753c-0.594,1.321-1.119,2.766-1.562,4.296c-0.416,1.435-0.773,2.95-1.057,4.498
			c-0.32,1.722-0.498,3.455-0.531,5.15c-0.035,1.748,0.084,3.458,0.354,5.089C731.74,123.982,732.428,125.914,733.43,127.617z
			 M789.355,120.578l0.988-2.339h0.404c-0.008,0.619-0.189,1.188-0.549,1.71C789.99,120.253,789.703,120.456,789.355,120.578z
			 M790.738,118.041l-0.316,0.014l0.234-0.558C790.701,117.673,790.729,117.854,790.738,118.041z"/>
		<path fill="#A0C219" d="M692.369,137.217c-0.941-1.694-2.355-3.023-4.127-3.86c-1.904-0.888-4.059-1.08-6.1-0.542
			c-1.895,0.498-3.529,1.603-4.701,3.13c-1.033-0.273-2.115-0.411-3.238-0.411c-0.197,0-0.389,0.022-0.584,0.031
			c-0.402-0.51-0.861-0.975-1.377-1.383c-1.598-1.286-3.607-1.994-5.658-1.994c-1.189,0-2.34,0.227-3.408,0.661
			c-0.488-0.065-0.98-0.106-1.473-0.122c-1.746-0.065-3.443,0.237-5.1,0.801c-1.094,0.371-2.111,0.882-3.062,1.498
			c-0.707-0.743-1.539-1.369-2.473-1.839c-1.553-0.776-3.309-1.105-5.08-0.915c-2.537,0.267-4.852,1.649-6.312,3.74
			c-0.738,1.04-1.422,2.267-2.088,3.753c-0.594,1.321-1.119,2.766-1.562,4.296c-0.416,1.435-0.773,2.95-1.057,4.498
			c-0.32,1.722-0.498,3.455-0.531,5.15c-0.035,1.748,0.084,3.458,0.354,5.089c0.352,2.106,1.039,4.038,2.041,5.741
			c1.209,2.054,2.857,3.698,4.902,4.889c2.004,1.167,4.311,1.759,6.854,1.759c0.195,0,0.393-0.004,0.594-0.011
			c2.611-0.069,5-0.794,7.102-2.154c0.916-0.593,1.75-1.269,2.502-2.022c0.596,1.036,1.396,1.961,2.406,2.704
			c1.564,1.14,3.416,1.742,5.355,1.742c1.795,0,3.512-0.522,5.002-1.506c0.146,0.078,0.283,0.174,0.434,0.244
			c1.232,0.583,2.543,0.878,3.896,0.878c0.502,0,1.006-0.042,1.475-0.12c2.521-0.411,4.672-1.871,6.01-4.052
			c1.047,0.254,2.141,0.359,3.299,0.337c1.828-0.021,3.545-0.426,5.104-1.205c1.42-0.71,2.656-1.665,3.686-2.848
			c1-1.156,1.762-2.48,2.26-3.936c0.451-1.315,0.68-2.688,0.68-4.077c0-1.373-0.215-2.73-0.639-4.034
			c-0.498-1.526-1.271-2.903-2.309-4.101c-0.758-0.872-1.641-1.622-2.633-2.24C693.816,142.322,693.662,139.536,692.369,137.217z
			 M687.439,157.5l0.988-2.339h0.402c-0.006,0.619-0.188,1.188-0.547,1.71C688.072,157.175,687.785,157.378,687.439,157.5z
			 M688.82,154.963l-0.316,0.014l0.236-0.558C688.783,154.595,688.811,154.776,688.82,154.963z"/>
		<path fill="#A0C219" d="M635.99,80.002c1.408,1.288,3.043,2.243,4.85,2.837c0.332,0.109,0.666,0.207,1.004,0.293v2.01
			c0,2.833,1.289,5.409,3.576,7.094c1.564,1.14,3.416,1.742,5.355,1.742c1.945,0,3.803-0.606,5.377-1.758
			c0.045-0.033,0.084-0.072,0.129-0.106c2.004,0.948,4.23,1.452,6.652,1.452c0.209,0,0.42-0.003,0.664-0.012
			c2.783-0.105,5.311-0.874,7.512-2.285c0.332-0.213,0.641-0.452,0.955-0.687c0.803,0.89,1.754,1.627,2.842,2.134
			c1.232,0.583,2.543,0.878,3.896,0.878c0.502,0,1.006-0.042,1.475-0.12c2.521-0.411,4.672-1.871,6.01-4.052
			c1.049,0.253,2.139,0.361,3.299,0.337c1.828-0.021,3.545-0.426,5.104-1.205c1.42-0.71,2.656-1.665,3.686-2.848
			c1-1.156,1.762-2.48,2.26-3.936c0.451-1.315,0.68-2.688,0.68-4.077c0-1.373-0.215-2.73-0.639-4.034
			c-0.498-1.526-1.271-2.903-2.309-4.101c-0.758-0.872-1.641-1.622-2.633-2.24c1.006-2.464,0.852-5.25-0.441-7.569
			c-0.941-1.694-2.355-3.023-4.127-3.86c-1.906-0.888-4.059-1.081-6.1-0.542c-1.893,0.498-3.527,1.603-4.701,3.13
			c-1.033-0.273-2.115-0.411-3.238-0.411c-1.537,0-2.992,0.278-4.354,0.805c-0.426-0.373-0.863-0.729-1.324-1.048
			c-2.494-1.73-5.389-2.646-8.371-2.646l-0.27,0.002c-2.199,0.039-4.34,0.577-6.311,1.559c-0.01-0.007-0.018-0.016-0.027-0.023
			c-1.598-1.286-3.607-1.994-5.658-1.994c-1.189,0-2.34,0.227-3.408,0.661c-0.488-0.065-0.98-0.106-1.473-0.122
			c-1.744-0.06-3.443,0.238-5.1,0.801c-1.762,0.598-3.352,1.521-4.73,2.749c-1.412,1.259-2.541,2.817-3.354,4.621
			c-0.822,1.824-1.24,3.868-1.24,6.075c0,2.15,0.408,4.151,1.213,5.939C633.51,77.207,634.611,78.741,635.99,80.002z
			 M690.363,80.032l0.988-2.339h0.402c-0.006,0.619-0.188,1.188-0.547,1.71C690.996,79.708,690.709,79.91,690.363,80.032z
			 M691.744,77.495l-0.316,0.014l0.236-0.558C691.707,77.128,691.734,77.309,691.744,77.495z"/>
		<path fill="#A0C219" d="M702.869,301.856c-0.758-0.872-1.641-1.622-2.633-2.24c1.006-2.464,0.852-5.25-0.441-7.569
			c-0.941-1.694-2.355-3.023-4.127-3.86c-1.904-0.888-4.059-1.081-6.1-0.542c-1.895,0.498-3.529,1.603-4.701,3.13
			c-1.033-0.273-2.115-0.411-3.238-0.411c-1.537,0-2.992,0.278-4.354,0.805c-0.426-0.373-0.863-0.728-1.324-1.048
			c-2.492-1.73-5.387-2.646-8.371-2.646l-0.268,0.002c-3.041,0.055-5.977,1.049-8.492,2.875c-0.211,0.154-0.416,0.32-0.619,0.485
			c-0.307-0.251-0.621-0.492-0.945-0.717c-2.492-1.73-5.387-2.646-8.371-2.646l-0.268,0.002c-2.539,0.046-4.998,0.754-7.207,2.046
			c-1.568-1.195-3.502-1.857-5.475-1.857c-2.049,0-4.059,0.708-5.643,1.981c-2.09,1.672-3.287,4.212-3.287,7.027l0.15,20.613
			c0,2.857,1.387,5.543,3.717,7.187c1.566,1.104,3.396,1.688,5.291,1.688c1.889,0,3.713-0.58,5.311-1.702
			c0.092-0.064,0.172-0.14,0.26-0.207c2.092,1.062,4.445,1.611,7.006,1.611c0.209,0,0.42-0.003,0.666-0.012
			c2.783-0.105,5.311-0.874,7.51-2.285c0.396-0.254,0.77-0.534,1.139-0.817c0.674,0.514,1.377,0.994,2.141,1.397
			c2.148,1.14,4.586,1.717,7.24,1.717c0.209,0,0.42-0.003,0.666-0.012c2.783-0.105,5.311-0.874,7.51-2.285
			c0.332-0.213,0.643-0.452,0.955-0.687c0.803,0.89,1.754,1.627,2.842,2.134c1.232,0.583,2.543,0.878,3.896,0.878
			c0.502,0,1.006-0.042,1.475-0.12c2.521-0.411,4.672-1.871,6.01-4.052c1.047,0.254,2.146,0.367,3.299,0.337
			c1.828-0.021,3.545-0.426,5.104-1.205c1.42-0.71,2.656-1.665,3.686-2.848c1-1.156,1.762-2.48,2.26-3.936
			c0.451-1.315,0.68-2.688,0.68-4.077c0-1.373-0.215-2.73-0.639-4.034C704.68,304.431,703.906,303.054,702.869,301.856z
			 M694.865,312.33l0.988-2.339h0.402c-0.006,0.619-0.188,1.188-0.547,1.71C695.498,312.005,695.211,312.208,694.865,312.33z
			 M696.246,309.793l-0.316,0.014l0.236-0.558C696.209,309.425,696.236,309.606,696.246,309.793z"/>
		<path fill="#A0C219" d="M634.199,240.675c0.916,1.854,2.176,3.43,3.746,4.685c1.471,1.174,3.145,2.039,4.98,2.573
			c1.469,0.426,3.002,0.643,4.553,0.643c0.123,0,0.246-0.002,0.369-0.004c1.74-0.013,3.457-0.297,5.094-0.843
			c1.734-0.574,3.324-1.415,4.727-2.499c0.791-0.611,1.508-1.299,2.148-2.055c0.582,1.578,1.611,2.959,3.012,3.985
			c1.566,1.146,3.424,1.753,5.371,1.753c1.807,0,3.533-0.529,5.002-1.504c0.146,0.077,0.281,0.173,0.432,0.242
			c1.234,0.583,2.545,0.878,3.9,0.878c0.488,0,0.98-0.039,1.465-0.118c2.523-0.409,4.676-1.871,6.014-4.053
			c1.049,0.254,2.146,0.366,3.301,0.337c1.824-0.021,3.537-0.424,5.104-1.205c1.424-0.711,2.662-1.669,3.67-2.832
			c1.012-1.161,1.777-2.493,2.273-3.942c0.453-1.318,0.684-2.692,0.684-4.086c0-1.376-0.217-2.737-0.639-4.026
			c-0.496-1.529-1.271-2.91-2.318-4.117c-0.756-0.869-1.639-1.617-2.625-2.231c1.004-2.459,0.852-5.243-0.441-7.57
			c-0.941-1.694-2.354-3.022-4.141-3.867c-1.893-0.877-3.961-1.088-6.105-0.53c-1.885,0.502-3.512,1.604-4.682,3.126
			c-1.033-0.274-2.115-0.412-3.236-0.412c-0.201,0-0.395,0.022-0.592,0.031c-0.4-0.506-0.857-0.971-1.369-1.383
			c-2.521-2.029-6.131-2.532-9.061-1.331c-0.49-0.065-0.984-0.106-1.479-0.123c-1.734-0.056-3.441,0.236-5.102,0.801
			c-0.885,0.301-1.725,0.684-2.52,1.146c-0.455-0.283-0.926-0.55-1.416-0.786c-1.977-0.947-4.119-1.478-6.369-1.575
			c-2.395-0.106-4.646,0.304-6.766,1.211c-2.361,1.015-4.326,2.606-5.85,4.738c-1.645,2.305-2.477,5.062-2.477,8.197
			c0,1.812,0.297,3.499,0.889,5.043c-0.641,1.618-0.965,3.402-0.965,5.332C632.781,236.629,633.26,238.775,634.199,240.675z
			 M689.09,234.969l0.988-2.339h0.402c-0.006,0.619-0.188,1.188-0.547,1.709C689.723,234.644,689.438,234.847,689.09,234.969z
			 M690.471,232.433l-0.314,0.013l0.234-0.557C690.434,232.064,690.461,232.245,690.471,232.433z"/>
		<path fill="#A0C219" d="M733.215,203.908c0.916,1.851,2.172,3.423,3.74,4.678c1.469,1.173,3.145,2.037,4.965,2.566
			c1.473,0.431,3.014,0.648,4.582,0.648c0.115,0,0.232-0.001,0.348-0.003c1.73-0.012,3.447-0.295,5.102-0.843
			c0.561-0.186,1.1-0.409,1.629-0.649c1.713,0.67,3.529,1.121,5.422,1.343c0.857,0.1,1.717,0.15,2.553,0.15
			c1.693,0,3.355-0.208,4.941-0.618c1.576-0.408,3.029-1.029,4.355-1.843c0.676,0.622,1.441,1.143,2.285,1.54
			c1.232,0.582,2.543,0.878,3.896,0.878c0.512,0,1.029-0.044,1.477-0.121c2.52-0.411,4.672-1.871,6.008-4.051
			c1.049,0.252,2.146,0.361,3.301,0.336c1.834-0.021,3.555-0.428,5.102-1.205c1.418-0.708,2.652-1.66,3.691-2.854
			c1.002-1.157,1.76-2.481,2.254-3.925c0.451-1.315,0.682-2.688,0.682-4.081c0-1.374-0.217-2.733-0.639-4.029
			c-0.498-1.532-1.275-2.913-2.303-4.097c-0.758-0.875-1.643-1.627-2.641-2.248c1.01-2.469,0.854-5.259-0.441-7.569
			c-0.941-1.694-2.354-3.023-4.1-3.848c-1.205-0.567-2.49-0.855-3.818-0.855c-0.785,0-1.572,0.104-2.279,0.293
			c-1.906,0.494-3.551,1.602-4.73,3.138c-1.031-0.273-2.113-0.411-3.236-0.411c-1.271,0-2.482,0.195-3.631,0.552
			c-1.6-1.368-3.453-2.374-5.541-2.985c-2.287-0.67-4.719-0.858-7.262-0.547c-1.869,0.232-3.658,0.729-5.34,1.477
			c-0.086-0.042-0.162-0.096-0.248-0.137c-1.979-0.952-4.125-1.484-6.379-1.582c-2.377-0.104-4.643,0.304-6.768,1.214
			c-2.365,1.018-4.332,2.611-5.844,4.73c-1.646,2.305-2.48,5.064-2.48,8.204c0,1.812,0.299,3.499,0.891,5.043
			c-0.643,1.618-0.967,3.402-0.967,5.33C731.791,199.854,732.27,202,733.215,203.908z M788.596,198.193l0.986-2.339h0.404
			c-0.008,0.618-0.188,1.188-0.549,1.711C789.229,197.869,788.941,198.071,788.596,198.193z M789.977,195.657l-0.316,0.013
			l0.236-0.556C789.939,195.29,789.967,195.471,789.977,195.657z"/>
	</g>
</g>
</svg>
