<?xml version="1.0" encoding="utf-8"?>
<!-- Generator: Adobe Illustrator 16.0.0, SVG Export Plug-In . SVG Version: 6.00 Build 0)  -->
<!DOCTYPE svg PUBLIC "-//W3C//DTD SVG 1.1//EN" "http://www.w3.org/Graphics/SVG/1.1/DTD/svg11.dtd">
<svg version="1.1" id="Capa_1" xmlns="http://www.w3.org/2000/svg" xmlns:xlink="http://www.w3.org/1999/xlink" x="0px" y="0px"
	 width="52.895px" height="22.812px" viewBox="0 0 52.895 22.812" enable-background="new 0 0 52.895 22.812" xml:space="preserve">
<g>
	<path fill="#331842" d="M0,16.537c0-1.342,0.299-2.444,0.898-3.306c0.598-0.861,1.355-1.532,2.271-2.014
		c-0.891-0.431-1.629-1.064-2.215-1.9S0.076,7.431,0.076,6.163c0-1.443,0.33-2.628,0.99-3.553s1.492-1.602,2.496-2.033
		c1.004-0.43,2.09-0.62,3.258-0.569s2.256,0.316,3.258,0.798c1.004,0.481,1.848,1.172,2.535,2.07c0.686,0.9,1.041,1.983,1.066,3.249
		c0.025,1.217-0.271,2.242-0.889,3.078s-1.404,1.482-2.361,1.938c1.094,0.481,2.006,1.172,2.73,2.071
		c0.727,0.899,1.102,1.994,1.127,3.286c0,1.014-0.209,1.907-0.629,2.68c-0.422,0.772-0.975,1.425-1.662,1.957
		c-0.688,0.531-1.471,0.943-2.35,1.234c-0.879,0.292-1.777,0.438-2.693,0.438c-0.893,0.024-1.752-0.082-2.58-0.323
		c-0.826-0.24-1.564-0.62-2.215-1.14s-1.172-1.179-1.566-1.977S0,17.627,0,16.537z M12.426,16.728c0-0.963-0.254-1.779-0.76-2.451
		c-0.508-0.671-1.146-1.184-1.92-1.539c-0.771-0.354-1.607-0.557-2.508-0.607c-0.898-0.051-1.742,0.075-2.527,0.38
		c-0.785,0.304-1.443,0.778-1.975,1.425c-0.533,0.646-0.824,1.476-0.875,2.489c-0.051,0.76,0.07,1.425,0.361,1.994
		c0.291,0.57,0.684,1.046,1.178,1.426s1.059,0.659,1.691,0.836c0.633,0.178,1.293,0.266,1.977,0.266
		c0.658,0,1.311-0.088,1.957-0.266c0.645-0.177,1.221-0.45,1.729-0.817c0.506-0.367,0.912-0.811,1.217-1.33
		C12.273,18.014,12.426,17.411,12.426,16.728z M11.818,6.277c0-0.937-0.246-1.741-0.738-2.413c-0.492-0.671-1.098-1.19-1.816-1.558
		c-0.721-0.367-1.51-0.57-2.367-0.608s-1.652,0.089-2.385,0.38C3.779,2.37,3.168,2.845,2.676,3.504
		C2.184,4.162,1.938,4.998,1.938,6.012c0,0.963,0.24,1.761,0.719,2.394c0.48,0.634,1.086,1.108,1.818,1.425
		c0.73,0.317,1.525,0.476,2.385,0.476c0.857,0,1.652-0.152,2.385-0.456c0.73-0.304,1.344-0.754,1.836-1.35
		C11.572,7.905,11.818,7.164,11.818,6.277z"/>
	<path fill="#331842" d="M16.529,16.537c0-1.342,0.301-2.444,0.898-3.306c0.6-0.861,1.355-1.532,2.273-2.014
		c-0.893-0.431-1.631-1.064-2.217-1.9s-0.879-1.887-0.879-3.154c0-1.443,0.33-2.628,0.99-3.553s1.494-1.602,2.496-2.033
		c1.004-0.43,2.09-0.62,3.258-0.569c1.17,0.051,2.256,0.316,3.26,0.798s1.848,1.172,2.533,2.07c0.686,0.9,1.043,1.983,1.068,3.249
		c0.023,1.217-0.271,2.242-0.889,3.078s-1.406,1.482-2.363,1.938c1.096,0.481,2.006,1.172,2.732,2.071
		c0.725,0.899,1.102,1.994,1.127,3.286c0,1.014-0.211,1.907-0.631,2.68s-0.975,1.425-1.662,1.957
		c-0.688,0.531-1.471,0.943-2.35,1.234c-0.879,0.292-1.775,0.438-2.693,0.438c-0.891,0.024-1.75-0.082-2.578-0.323
		c-0.828-0.24-1.566-0.62-2.217-1.14c-0.648-0.52-1.17-1.179-1.564-1.977C16.727,18.57,16.529,17.627,16.529,16.537z M28.957,16.728
		c0-0.963-0.254-1.779-0.762-2.451c-0.506-0.671-1.146-1.184-1.918-1.539c-0.773-0.354-1.609-0.557-2.508-0.607
		c-0.9-0.051-1.742,0.075-2.527,0.38c-0.785,0.304-1.443,0.778-1.977,1.425c-0.531,0.646-0.822,1.476-0.873,2.489
		c-0.051,0.76,0.068,1.425,0.361,1.994c0.291,0.57,0.684,1.046,1.178,1.426s1.057,0.659,1.691,0.836
		c0.633,0.178,1.291,0.266,1.975,0.266c0.658,0,1.311-0.088,1.957-0.266c0.646-0.177,1.223-0.45,1.729-0.817
		c0.508-0.367,0.912-0.811,1.217-1.33C28.805,18.014,28.957,17.411,28.957,16.728z M28.348,6.277c0-0.937-0.246-1.741-0.738-2.413
		c-0.492-0.671-1.098-1.19-1.816-1.558s-1.508-0.57-2.365-0.608c-0.859-0.038-1.654,0.089-2.385,0.38
		c-0.732,0.292-1.346,0.767-1.836,1.426c-0.492,0.658-0.738,1.494-0.738,2.508c0,0.963,0.238,1.761,0.719,2.394
		c0.479,0.634,1.086,1.108,1.816,1.425c0.732,0.317,1.527,0.476,2.385,0.476c0.859,0,1.654-0.152,2.385-0.456
		c0.732-0.304,1.344-0.754,1.836-1.35C28.102,7.905,28.348,7.164,28.348,6.277z"/>
	<path fill="#331842" d="M36.822,11.445c-0.711,0.025-1.324-0.076-1.844-0.304c-0.52-0.229-0.949-0.532-1.293-0.912
		c-0.342-0.38-0.594-0.817-0.76-1.312C32.762,8.425,32.68,7.911,32.68,7.38c0-0.532,0.088-1.046,0.266-1.539
		c0.178-0.494,0.438-0.932,0.779-1.312s0.76-0.689,1.254-0.931c0.494-0.24,1.07-0.361,1.729-0.361s1.242,0.114,1.748,0.342
		c0.506,0.229,0.926,0.539,1.254,0.932c0.33,0.393,0.576,0.842,0.742,1.349c0.164,0.507,0.246,1.026,0.246,1.558
		c0,0.508-0.082,1.002-0.246,1.482c-0.166,0.481-0.412,0.912-0.742,1.292c-0.328,0.38-0.734,0.684-1.215,0.912
		C38.012,11.331,37.455,11.445,36.822,11.445z M36.859,9.888c0.76,0.025,1.33-0.229,1.711-0.76c0.379-0.532,0.568-1.115,0.568-1.748
		c0-0.659-0.203-1.255-0.607-1.786c-0.406-0.532-1.014-0.798-1.824-0.798c-0.76,0.025-1.336,0.304-1.729,0.836
		c-0.393,0.531-0.59,1.127-0.59,1.785c0.025,0.608,0.242,1.173,0.646,1.691C35.439,9.628,36.049,9.888,36.859,9.888z M46.131,0.806
		c0.127-0.305,0.311-0.487,0.551-0.551c0.242-0.063,0.469-0.044,0.686,0.057c0.215,0.102,0.385,0.266,0.512,0.494
		c0.127,0.228,0.127,0.469,0,0.722l-8.777,20.786c-0.127,0.254-0.305,0.399-0.531,0.437c-0.229,0.038-0.451,0.007-0.666-0.095
		c-0.215-0.101-0.379-0.253-0.494-0.456c-0.113-0.202-0.107-0.442,0.02-0.722L46.131,0.806z M49.02,18.932
		c-0.709,0.025-1.324-0.076-1.844-0.304c-0.52-0.229-0.949-0.538-1.291-0.932c-0.342-0.393-0.596-0.836-0.76-1.33
		c-0.166-0.494-0.248-1.007-0.248-1.539c0-0.531,0.09-1.045,0.266-1.539c0.178-0.493,0.438-0.931,0.779-1.311s0.76-0.69,1.254-0.931
		c0.494-0.241,1.07-0.361,1.73-0.361c0.658,0,1.24,0.12,1.748,0.361c0.506,0.24,0.924,0.551,1.254,0.931
		c0.328,0.38,0.574,0.823,0.74,1.33c0.164,0.507,0.246,1.025,0.246,1.558c0,0.507-0.082,1.001-0.246,1.482
		c-0.166,0.481-0.412,0.912-0.74,1.292c-0.33,0.38-0.736,0.69-1.217,0.931C50.209,18.812,49.652,18.932,49.02,18.932z
		 M49.057,17.335c0.785,0.026,1.361-0.228,1.73-0.76c0.367-0.532,0.551-1.114,0.551-1.748c0-0.658-0.203-1.254-0.609-1.786
		c-0.404-0.531-1.012-0.798-1.822-0.798c-0.762,0.052-1.338,0.336-1.73,0.855s-0.588,1.108-0.588,1.767
		c0.025,0.608,0.24,1.172,0.646,1.691C47.639,17.076,48.246,17.335,49.057,17.335z"/>
</g>
</svg>
