<?xml version="1.0" encoding="utf-8"?>
<!-- Generator: Adobe Illustrator 16.0.0, SVG Export Plug-In . SVG Version: 6.00 Build 0)  -->
<!DOCTYPE svg PUBLIC "-//W3C//DTD SVG 1.1//EN" "http://www.w3.org/Graphics/SVG/1.1/DTD/svg11.dtd">
<svg version="1.1" id="Capa_1" xmlns="http://www.w3.org/2000/svg" xmlns:xlink="http://www.w3.org/1999/xlink" x="0px" y="0px"
	 width="62.811px" height="22.816px" viewBox="0 0 62.811 22.816" enable-background="new 0 0 62.811 22.816" xml:space="preserve">
<g>
	<path fill="#331842" d="M0,1.271c0-0.329,0.094-0.569,0.285-0.722C0.475,0.396,0.689,0.32,0.93,0.32s0.457,0.076,0.646,0.229
		s0.285,0.393,0.285,0.722l0.305,20.672c0,0.279-0.109,0.494-0.324,0.646c-0.215,0.151-0.443,0.228-0.684,0.228
		s-0.469-0.076-0.684-0.228c-0.217-0.152-0.324-0.367-0.324-0.646L0,1.271z"/>
	<path fill="#331842" d="M5.623,11.835c0-2.559,0.398-4.706,1.197-6.441c0.797-1.734,1.799-3.04,3.002-3.914
		s2.514-1.323,3.932-1.349c1.42-0.025,2.73,0.38,3.934,1.216s2.211,2.115,3.021,3.838c0.811,1.724,1.229,3.876,1.254,6.46
		c0,1.368-0.158,2.692-0.475,3.971c-0.318,1.28-0.799,2.42-1.445,3.421c-0.645,1.001-1.463,1.817-2.449,2.45
		c-0.988,0.634-2.154,0.976-3.496,1.026c-1.496,0.051-2.781-0.209-3.857-0.779c-1.078-0.569-1.957-1.354-2.641-2.355
		c-0.686-1.001-1.186-2.153-1.502-3.458S5.623,13.254,5.623,11.835z M13.926,20.727c1.068,0,1.994-0.266,2.783-0.798
		c0.787-0.532,1.43-1.229,1.924-2.09c0.496-0.861,0.863-1.843,1.105-2.945c0.242-1.102,0.363-2.223,0.363-3.363
		c0-2.128-0.318-3.907-0.953-5.339C18.512,4.761,17.725,3.696,16.785,3c-0.941-0.696-1.963-1.045-3.068-1.045
		s-2.121,0.36-3.049,1.083C9.74,3.76,8.971,4.843,8.361,6.287C7.752,7.73,7.459,9.517,7.484,11.645c0,1.115,0.102,2.224,0.305,3.325
		s0.547,2.077,1.029,2.926c0.482,0.85,1.137,1.539,1.963,2.071S12.656,20.752,13.926,20.727z"/>
	<path fill="#331842" d="M24.318,11.835c0-2.559,0.398-4.706,1.197-6.441c0.797-1.734,1.799-3.04,3.002-3.914
		s2.514-1.323,3.932-1.349c1.42-0.025,2.73,0.38,3.934,1.216s2.211,2.115,3.021,3.838c0.811,1.724,1.229,3.876,1.254,6.46
		c0,1.368-0.158,2.692-0.475,3.971c-0.318,1.28-0.799,2.42-1.445,3.421c-0.645,1.001-1.463,1.817-2.449,2.45
		c-0.988,0.634-2.154,0.976-3.496,1.026c-1.496,0.051-2.781-0.209-3.857-0.779c-1.078-0.569-1.957-1.354-2.641-2.355
		c-0.686-1.001-1.186-2.153-1.502-3.458S24.318,13.254,24.318,11.835z M32.621,20.727c1.068,0,1.994-0.266,2.783-0.798
		c0.787-0.532,1.43-1.229,1.924-2.09c0.496-0.861,0.863-1.843,1.105-2.945c0.242-1.102,0.363-2.223,0.363-3.363
		c0-2.128-0.318-3.907-0.953-5.339C37.207,4.761,36.42,3.696,35.48,3c-0.941-0.696-1.963-1.045-3.068-1.045s-2.121,0.36-3.049,1.083
		c-0.928,0.722-1.697,1.805-2.307,3.249c-0.609,1.443-0.902,3.229-0.877,5.357c0,1.115,0.102,2.224,0.305,3.325
		s0.547,2.077,1.029,2.926c0.482,0.85,1.137,1.539,1.963,2.071S31.352,20.752,32.621,20.727z"/>
	<path fill="#331842" d="M46.738,11.227c-0.711,0.025-1.324-0.076-1.844-0.304c-0.52-0.229-0.949-0.532-1.293-0.912
		c-0.342-0.38-0.594-0.817-0.76-1.312c-0.164-0.493-0.246-1.007-0.246-1.538c0-0.532,0.088-1.046,0.266-1.539
		c0.178-0.494,0.438-0.932,0.779-1.312s0.76-0.689,1.254-0.931c0.494-0.24,1.07-0.361,1.729-0.361s1.242,0.114,1.748,0.342
		c0.506,0.229,0.926,0.539,1.254,0.932c0.33,0.393,0.576,0.842,0.742,1.349c0.164,0.507,0.246,1.026,0.246,1.558
		c0,0.508-0.082,1.002-0.246,1.482c-0.166,0.481-0.412,0.912-0.742,1.292c-0.328,0.38-0.734,0.684-1.215,0.912
		C47.928,11.112,47.371,11.227,46.738,11.227z M46.775,9.669c0.76,0.025,1.33-0.229,1.711-0.76c0.379-0.532,0.568-1.115,0.568-1.748
		c0-0.659-0.203-1.255-0.607-1.786c-0.406-0.532-1.014-0.798-1.824-0.798c-0.76,0.025-1.336,0.304-1.729,0.836
		c-0.393,0.531-0.59,1.127-0.59,1.785c0.025,0.608,0.242,1.173,0.646,1.691C45.355,9.409,45.965,9.669,46.775,9.669z M56.047,0.587
		c0.127-0.305,0.311-0.487,0.551-0.551c0.242-0.063,0.469-0.044,0.686,0.057c0.215,0.102,0.385,0.266,0.512,0.494
		c0.127,0.228,0.127,0.469,0,0.722l-8.777,20.786c-0.127,0.254-0.305,0.399-0.531,0.437c-0.229,0.038-0.451,0.007-0.666-0.095
		c-0.215-0.101-0.379-0.253-0.494-0.456c-0.113-0.202-0.107-0.442,0.02-0.722L56.047,0.587z M58.936,18.713
		c-0.709,0.025-1.324-0.076-1.844-0.304c-0.52-0.229-0.949-0.538-1.291-0.932c-0.342-0.393-0.596-0.836-0.76-1.33
		c-0.166-0.494-0.248-1.007-0.248-1.539c0-0.531,0.09-1.045,0.266-1.539c0.178-0.493,0.438-0.931,0.779-1.311s0.76-0.69,1.254-0.931
		c0.494-0.241,1.07-0.361,1.73-0.361c0.658,0,1.24,0.12,1.748,0.361c0.506,0.24,0.924,0.551,1.254,0.931
		c0.328,0.38,0.574,0.823,0.74,1.33c0.164,0.507,0.246,1.025,0.246,1.558c0,0.507-0.082,1.001-0.246,1.482
		c-0.166,0.481-0.412,0.912-0.74,1.292c-0.33,0.38-0.736,0.69-1.217,0.931C60.125,18.593,59.568,18.713,58.936,18.713z
		 M58.973,17.116c0.785,0.026,1.361-0.228,1.73-0.76c0.367-0.532,0.551-1.114,0.551-1.748c0-0.658-0.203-1.254-0.609-1.786
		c-0.404-0.531-1.012-0.798-1.822-0.798c-0.762,0.052-1.338,0.336-1.73,0.855s-0.588,1.108-0.588,1.767
		c0.025,0.608,0.24,1.172,0.646,1.691C57.555,16.857,58.162,17.116,58.973,17.116z"/>
</g>
</svg>
