<?xml version="1.0" encoding="utf-8"?>
<!-- Generator: Adobe Illustrator 16.0.0, SVG Export Plug-In . SVG Version: 6.00 Build 0)  -->
<!DOCTYPE svg PUBLIC "-//W3C//DTD SVG 1.1//EN" "http://www.w3.org/Graphics/SVG/1.1/DTD/svg11.dtd">
<svg version="1.1" id="Capa_1" xmlns="http://www.w3.org/2000/svg" xmlns:xlink="http://www.w3.org/1999/xlink" x="0px" y="0px"
	 width="27.258px" height="39px" viewBox="0 0 27.258 39" enable-background="new 0 0 27.258 39" xml:space="preserve">
<g>
	<rect fill="#A0C219" width="27.258" height="39"/>
	
		<path fill="#331842" stroke="#331842" stroke-width="2" stroke-linecap="round" stroke-linejoin="round" stroke-miterlimit="10" d="
		M9.635,27.037c-0.166,0-0.287-0.054-0.361-0.162c-0.076-0.108-0.117-0.241-0.125-0.4c-0.01-0.158,0.012-0.328,0.062-0.512
		c0.049-0.184,0.125-0.342,0.225-0.476c0.217-0.316,0.541-0.763,0.975-1.337c0.434-0.575,0.908-1.209,1.426-1.9
		c0.516-0.691,1.037-1.412,1.562-2.162c0.523-0.75,0.994-1.467,1.412-2.15c0.482-0.783,0.754-1.483,0.812-2.1
		c0.059-0.617-0.018-1.129-0.225-1.538c-0.209-0.408-0.518-0.7-0.926-0.875s-0.846-0.212-1.312-0.112s-0.922,0.346-1.363,0.737
		s-0.795,0.954-1.062,1.688c-0.049,0.167-0.154,0.271-0.312,0.312c-0.158,0.042-0.309,0.038-0.449-0.013
		c-0.143-0.05-0.258-0.133-0.35-0.25c-0.092-0.116-0.105-0.266-0.037-0.449c0.398-1.017,0.908-1.792,1.523-2.325
		c0.617-0.533,1.254-0.862,1.914-0.987c0.658-0.125,1.287-0.062,1.887,0.188s1.074,0.646,1.426,1.188
		c0.35,0.541,0.523,1.212,0.523,2.012c0,0.801-0.258,1.684-0.773,2.65c-0.4,0.733-0.867,1.492-1.4,2.275s-1.059,1.524-1.576,2.225
		c-0.516,0.7-0.975,1.329-1.375,1.888c-0.398,0.559-0.666,0.979-0.799,1.263l6.574-0.051c0.184,0.018,0.326,0.092,0.426,0.226
		s0.158,0.274,0.174,0.425c0.018,0.15-0.02,0.292-0.111,0.425c-0.092,0.134-0.23,0.2-0.412,0.2L9.635,27.037z"/>
</g>
</svg>
