<?xml version="1.0" encoding="utf-8"?>
<!-- Generator: Adobe Illustrator 16.0.0, SVG Export Plug-In . SVG Version: 6.00 Build 0)  -->
<!DOCTYPE svg PUBLIC "-//W3C//DTD SVG 1.1//EN" "http://www.w3.org/Graphics/SVG/1.1/DTD/svg11.dtd">
<svg version="1.1" id="Capa_1" xmlns="http://www.w3.org/2000/svg" xmlns:xlink="http://www.w3.org/1999/xlink" x="0px" y="0px"
	 width="27.259px" height="39px" viewBox="0 0 27.259 39" enable-background="new 0 0 27.259 39" xml:space="preserve">
<g>
	<rect fill="#A0C219" width="27.259" height="39"/>
	
		<path fill="#331842" stroke="#331842" stroke-width="2" stroke-linecap="round" stroke-linejoin="round" stroke-miterlimit="10" d="
		M12.919,12.726c0-0.217,0.063-0.375,0.188-0.477c0.125-0.1,0.265-0.148,0.422-0.148c0.16,0,0.301,0.049,0.427,0.148
		c0.125,0.102,0.188,0.26,0.188,0.477l0.199,13.6c0,0.184-0.069,0.324-0.212,0.424c-0.142,0.102-0.292,0.15-0.451,0.15
		c-0.156,0-0.308-0.049-0.447-0.15c-0.144-0.1-0.215-0.24-0.215-0.424L12.919,12.726z"/>
</g>
</svg>
