<svg xmlns="http://www.w3.org/2000/svg" width="194.714" height="140.601" viewBox="0 0 194.714 140.601">
  <g id="Grupo_1" data-name="Grupo 1" transform="translate(-753.668 -1232.601)">
    <path id="Trazado_1" data-name="Trazado 1" d="M0,0A3.736,3.736,0,0,1,3.777,3.809,3.816,3.816,0,0,1-.048,7.6,3.752,3.752,0,0,1-3.807,3.758,3.7,3.7,0,0,1,0,0" transform="translate(788.548 1237.484)" fill="#20143b"/>
    <path id="Trazado_2" data-name="Trazado 2" d="M0,0C-.085.176-.177.349-.256.528a3.192,3.192,0,0,1-3.7,1.911A3.13,3.13,0,0,1-6.416-.637,3.2,3.2,0,0,1-4-3.768,3.232,3.232,0,0,1-.278-1.9c.091.2.185.393.278.59Z" transform="translate(807.066 1263.105)" fill="#20143b"/>
    <path id="Trazado_3" data-name="Trazado 3" d="M0,0C-.218.023-.345.046-.473.046q-6.563,0-13.126,0a1.618,1.618,0,0,1-1.573-.976,1.476,1.476,0,0,1,.21-1.771,2.089,2.089,0,0,1,1.16-.625c2.5-.26,5.006-.458,7.51-.661,1.351-.11,2.7-.189,4.055-.289a3.258,3.258,0,0,0,.512-.137c-.138-.254-.234-.463-.359-.655-.56-.862-1.1-1.74-1.71-2.565a1.235,1.235,0,0,0-.853-.432c-1.749-.04-3.5-.015-5.25-.022-1.192-.006-1.921-.649-1.926-1.68A1.728,1.728,0,0,1-9.9-11.474c1.706-.01,3.413,0,5.119,0,.17,0,.342.028.545.046a9.941,9.941,0,0,0-.147,1.3A2.562,2.562,0,0,0-1.228-7.672,8.037,8.037,0,0,0,.133-8.146a.754.754,0,0,1,1.04.2c.039.052.1.087.138.14C2.42-6.2,3.95-5.811,5.849-5.931c2.484-.156,4.985-.049,7.479-.03A2.941,2.941,0,0,1,16.2-3.623,3,3,0,0,1,14.564-.232,3.25,3.25,0,0,1,13.3.036C9.733.057,6.167.051,2.6.046c-.93,0-1.508-.5-1.511-1.267S1.672-2.5,2.607-2.512c1.378-.02,2.758-.051,4.134,0,1.895.073,3.663-.562,5.489-.877.442-.075.417-.37.332-.691s-.126-.677-.613-.573c-.556.119-1.125.192-1.67.345a24.982,24.982,0,0,1-6.587.448,13.493,13.493,0,0,0-1.506.053A2.568,2.568,0,0,0-.089-.448C-.058-.324-.039-.2,0,0" transform="translate(783.731 1267.638)" fill="#20143b"/>
    <path id="Trazado_4" data-name="Trazado 4" d="M0,0C-5.819,0-11.639-.036-17.458.021c-1.876.019-1.99-1.05-1.805-2.529.022-.172.343-.369.562-.436a3.093,3.093,0,0,1,.847-.032c8.949,0,17.9-.032,26.844.028a6.11,6.11,0,0,0,4.319-1.536A2.368,2.368,0,0,1,15.045-5.1c.984.032,1.969,0,2.954.013.9.013,1.229.343,1.238,1.23q.012,1.18,0,2.362C19.226-.391,18.844,0,17.721,0Q10.8.006,3.872,0,1.937,0,0,0" transform="translate(787.698 1271.995)" fill="#20143b"/>
    <path id="Trazado_5" data-name="Trazado 5" d="M0,0V-3.664C-.635-3.1-1.239-2.587-1.816-2.047a4.473,4.473,0,0,0-.778.885A2.991,2.991,0,0,1-5.836.241,19.321,19.321,0,0,0-8.052.227C-7.307-.608-6.7-1.3-6.071-1.99c1.78-1.959,3.58-3.9,5.341-5.876a3.327,3.327,0,0,1,2.6-1.18c1.576-.006,3.154.054,4.726-.017C9.275-9.186,10.25-6.936,9.523-4.9s-1.612,4.019-2.48,6a1.732,1.732,0,0,1-.852.84Q3.418,3.046.6,4.028A1.33,1.33,0,0,1-1.2,2.5,1.351,1.351,0,0,1-.23,1.441C1.221.891,2.685.368,4.121-.222a1.677,1.677,0,0,0,.8-.757c.431-.884.768-1.812,1.151-2.718.141-.331.24-.6-.232-.768-.427-.155-.694-.125-.875.336-.3.753-.616,1.5-.952,2.234a1.051,1.051,0,0,1-.424.54C2.459-.9,1.309-.488,0,0" transform="translate(781.892 1254.694)" fill="#20143b"/>
    <path id="Trazado_6" data-name="Trazado 6" d="M0,0C.781-.3,1.514-.624,2.274-.868a2.984,2.984,0,0,0,2-1.908c.386-1.021.855-2.01,1.347-3.15a3.818,3.818,0,0,1,.066.445c0,1.925-.011,3.85.012,5.775.006.537-.174.736-.719.719a30.888,30.888,0,0,0-3.148.01A1.9,1.9,0,0,1,0,0" transform="translate(785.874 1258.794)" fill="#20143b"/>
    <path id="Trazado_7" data-name="Trazado 7" d="M0,0A5.079,5.079,0,0,1-2.852,3.139c-.721.367-1.185,1.228-1.789,1.843-.672.685-1.256,1.641-2.079,1.96-2.991,1.156-5.651.941-7.5-1.689a2.592,2.592,0,0,1-.245-2.881c.494-1.034,1.316-1.134,2.3-1.083.912.048,2.021.45,2.457-.814a1.984,1.984,0,0,0,0-1.544,1.8,1.8,0,0,0-1.464-.4,13.633,13.633,0,0,0-2.653.729,2.092,2.092,0,0,1-2.35-.383A2.141,2.141,0,0,1-16.68-3.67a10.354,10.354,0,0,1,1.792-2.618c2.511-2.631,5.51-4.01,9.24-3.253A5.481,5.481,0,0,1-1.815-6.464C-1.08-5.04-.6-3.488,0-1.992Z" transform="translate(871.345 1262.053)" fill="#20143b"/>
    <path id="Trazado_8" data-name="Trazado 8" d="M0,0A2.613,2.613,0,0,1,.123-3.283,5.739,5.739,0,0,1,5.038-5.776a2.78,2.78,0,0,1,1.253.356c1.24.693,1.2,1.233.021,2.007C4.629-2.31,2.988-1.141,1.328,0Z" transform="translate(849.424 1272.017)" fill="#20143b"/>
    <path id="Trazado_9" data-name="Trazado 9" d="M0,0A11.4,11.4,0,0,1,6.222,2.382,4.069,4.069,0,0,1,7.557,4.534C7.832,5.771,6.9,6.675,5.61,6.777c-1.062.084-2.13.165-3.176.348-.728.126-1.372.479-1.111,1.427a1.637,1.637,0,0,0,1.9,1.3,7.446,7.446,0,0,0,1.2-.539,2.083,2.083,0,0,1,2.47.115,2.5,2.5,0,0,1,.964,2.639A6.155,6.155,0,0,1-.011,16.3a2.233,2.233,0,0,1-.92-.572,4.835,4.835,0,0,0-3.276-1.612A3.789,3.789,0,0,1-7.884,10.76a12.611,12.611,0,0,1,.229-6.229C-6.82,1.77-4.689.642-2.08.157A18.166,18.166,0,0,1,0,0" transform="translate(828.215 1249.084)" fill="#20143b"/>
    <path id="Trazado_10" data-name="Trazado 10" d="M0,0C.48-2.73.915-5.469,1.468-8.183A1.784,1.784,0,0,1,3.219-9.632,1.68,1.68,0,0,1,5.091-7.813a2.779,2.779,0,0,1-.191.967A16.764,16.764,0,0,0,3.538-.526a3.21,3.21,0,0,1-.517,1.542A1.783,1.783,0,0,1,.893,1.8,1.293,1.293,0,0,1,0,0" transform="translate(829.926 1247.118)" fill="#20143b"/>
    <path id="Trazado_11" data-name="Trazado 11" d="M0,0A12.127,12.127,0,0,1-1.6-1a2.507,2.507,0,0,1-.7-1.107A12.585,12.585,0,0,0-5.418-6.994a3.853,3.853,0,0,1-.545-.828,1.6,1.6,0,0,1,.313-2.193,1.661,1.661,0,0,1,2.318-.1A4.851,4.851,0,0,1-1.864-8.1a12.145,12.145,0,0,0,2.579,4.2,5.375,5.375,0,0,1,.942,1.471C2.142-1.205,1.422-.2,0,0" transform="translate(856.44 1254.304)" fill="#20143b"/>
    <path id="Trazado_12" data-name="Trazado 12" d="M0,0A15.24,15.24,0,0,0,.206,6.509a2.151,2.151,0,0,1-.144,1.4,2.42,2.42,0,0,1-1.2,1.062,1.248,1.248,0,0,1-1.625-.783,5.607,5.607,0,0,1-.357-1.711c-.063-1.9-.079-3.813-.068-5.72A4.791,4.791,0,0,1-2.926-.866,1.544,1.544,0,0,1-1.152-2.023C-.324-1.88.034-1.291,0,0" transform="translate(827.627 1239.57)" fill="#20143b"/>
    <path id="Trazado_13" data-name="Trazado 13" d="M0,0A1.706,1.706,0,0,1-1.262,1.681,1.364,1.364,0,0,1-3,.872a18.992,18.992,0,0,1-.672-2.081Q-4.437-3.5-5.232-5.772c-.11-.31-.308-.588-.436-.893a1.432,1.432,0,0,1,.532-2.021,1.5,1.5,0,0,1,2.054.49A12.21,12.21,0,0,1-1.956-5.823C-1.438-4.494-.968-3.145-.5-1.794-.3-1.208-.166-.6,0,0" transform="translate(862.921 1250.317)" fill="#20143b"/>
    <path id="Trazado_14" data-name="Trazado 14" d="M0,0A16.148,16.148,0,0,1-.965,1.915C-2.139,3.6-3.336,5.275-4.587,6.906c-.485.632-1.022,1.546-2.047.825a1.887,1.887,0,0,1-.2-2.726C-5.828,3.608-4.888,2.16-3.891.754A10.458,10.458,0,0,1-2.425-1.018a1.435,1.435,0,0,1,1.247-.33A5.451,5.451,0,0,1,0,0" transform="translate(842.299 1244.074)" fill="#20143b"/>
    <path id="Trazado_15" data-name="Trazado 15" d="M0,0C-.053,1.907-.79,2.387-2.066,1.6c-2-1.232-3.955-2.532-5.857-3.9-1.213-.877-1.4-1.57-.788-2.5a1.4,1.4,0,0,1,1.2-.54A10.164,10.164,0,0,1-5.2-4.11C-3.741-3.136-2.3-2.131-.89-1.073A4.821,4.821,0,0,1,0,0" transform="translate(854.33 1256.729)" fill="#20143b"/>
    <path id="Trazado_16" data-name="Trazado 16" d="M0,0C-.641,1.933-1.235,3.883-1.958,5.784a1.914,1.914,0,0,1-1.192.984,1.805,1.805,0,0,1-1.474-.354A1.782,1.782,0,0,1-4.831,5c.366-1.673.82-3.327,1.268-4.981a3.123,3.123,0,0,1,.571-1.4c.427-.41,1.139-.892,1.6-.788.443.1.751.9,1.063,1.421.1.163.015.432.015.653L0,0" transform="translate(869.867 1245.299)" fill="#20143b"/>
    <path id="Trazado_17" data-name="Trazado 17" d="M0,0A1.538,1.538,0,0,1-2.345,1.352,10.951,10.951,0,0,1-6.71-5.064,1.4,1.4,0,0,1-6.222-6.27a1.53,1.53,0,0,1,1.39-.1A10.318,10.318,0,0,1-3-4.387C-2.137-3.256-1.344-2.072-.537-.9-.3-.553-.1-.174,0,0" transform="translate(823.094 1248.974)" fill="#20143b"/>
    <path id="Trazado_18" data-name="Trazado 18" d="M0,0A4.462,4.462,0,0,1,3.921,1.9a2.611,2.611,0,0,1,.3,1.918c-.09.29-1.106.507-1.638.408C.531,3.842-1.5,3.342-3.511,2.8c-.2-.053-.42-.731-.33-1.027C-3.466.552-2.266-.025,0,0" transform="translate(840.558 1259.139)" fill="#20143b"/>
    <path id="Trazado_19" data-name="Trazado 19" d="M0,0A8.393,8.393,0,0,1-3.342,7.588a12.627,12.627,0,0,1-6.346,2.688,9,9,0,0,1-4.977-1.3c-3.255-1.577-5.347-4.057-5.53-7.815a46.588,46.588,0,0,1,0-4.972,10.3,10.3,0,0,1,1.661-5.57.569.569,0,0,0,.048-.51c-.761-1.145-.2-2.068.452-3.05a2.12,2.12,0,0,0,2.359.686c1.916-.408,3.814-.9,5.727-1.331a16.828,16.828,0,0,1,2.644-.44,3.546,3.546,0,0,1,3.156,1.446,1.111,1.111,0,0,0,.6.391A3.526,3.526,0,0,1-1.075-10.1,14.883,14.883,0,0,1,.113-4.036C.148-3.368-.082-1.249,0,0M-6.273,3.433h-7.5a3.271,3.271,0,0,0,3.24,2.6c2.245.112,3.718-.759,4.259-2.6m-6.272-5.307a2,2,0,0,0-1.924-.849,1.383,1.383,0,0,0-1.279.849Zm8.737,0a1.8,1.8,0,0,0-1.785-.847,1.566,1.566,0,0,0-1.475.847Z" transform="translate(922.68 1251.516)" fill="#20143b"/>
    <path id="Trazado_20" data-name="Trazado 20" d="M0,0A14.617,14.617,0,0,1-8.507-2.892c-.4-.289-.686-.638-.351-1.126.363-.53.794-.36,1.23-.05A12.82,12.82,0,0,0-.215-1.478a13.3,13.3,0,0,0,7.927-2.6c.42-.3.835-.449,1.181-.01.378.481.119.89-.322,1.2-.046.032-.09.067-.136.1A15.218,15.218,0,0,1,0,0" transform="translate(912.831 1272.016)" fill="#20143b"/>
    <path id="Trazado_21" data-name="Trazado 21" d="M0,0A8.019,8.019,0,0,1-4.227-1.536c-.437-.3-.762-.664-.413-1.177s.8-.339,1.245-.04a6.531,6.531,0,0,0,7.854-.02c.417-.276.834-.432,1.186.017.4.511.067.877-.345,1.193A9.171,9.171,0,0,1,0,0" transform="translate(912.254 1268.495)" fill="#20143b"/>
    <path id="Trazado_22" data-name="Trazado 22" d="M0,0A7.754,7.754,0,0,1-1.611,4.644c-.184.255-.676.288-1.025.423-.013-.372-.182-.847-.015-1.1a7.2,7.2,0,0,0-.021-8.506c-.158-.246-.009-.689,0-1.04.353.11.859.11,1.034.35A8.457,8.457,0,0,1,0,0" transform="translate(901.251 1251.715)" fill="#20143b"/>
    <path id="Trazado_23" data-name="Trazado 23" d="M0,0C-.447,1.094-.873,2.2-1.353,3.277c-.191.431-.634.679-1.015.333a1.038,1.038,0,0,1-.064-1,4.871,4.871,0,0,0-.017-5.741c-.145-.228.045-.672.081-1.016.335.115.8.127.982.36A5.9,5.9,0,0,1-.233-.089L0,0" transform="translate(898.508 1251.796)" fill="#20143b"/>
    <path id="Trazado_24" data-name="Trazado 24" d="M0,0A10.7,10.7,0,0,1-1.795-.758C-2.019-.9-2.019-1.4-2.122-1.73c.34-.091.787-.365,1-.24a2.01,2.01,0,0,0,2.274-.019.96.96,0,0,1,.9.223,1.053,1.053,0,0,1-.213.977A11.232,11.232,0,0,1,0,0" transform="translate(912.762 1265.529)" fill="#20143b"/>
    <path id="Trazado_25" data-name="Trazado 25" d="M0,0A13.427,13.427,0,0,1-.815,1.887c-.124.2-.6.186-.918.269-.057-.3-.264-.692-.147-.885a2.286,2.286,0,0,0,0-2.609c-.116-.189.1-.581.165-.88.316.087.8.076.916.279A14.3,14.3,0,0,1,0,0" transform="translate(895.836 1251.586)" fill="#20143b"/>
    <path id="Trazado_74" data-name="Trazado 74" d="M.684,0h.783V-2.745h2.3v-.648h-2.3V-5.409H3.951v-.657H.684Z" transform="translate(882.379 1284.432)" fill="#42454a"/>
    <path id="Trazado_75" data-name="Trazado 75" d="M2.5-4.455A2.127,2.127,0,0,0,.342-2.142,2.071,2.071,0,0,0,2.43.1,2.129,2.129,0,0,0,4.6-2.214,2.063,2.063,0,0,0,2.5-4.455Zm-.018.594c.936,0,1.305.936,1.305,1.674C3.789-1.206,3.222-.5,2.466-.5c-.774,0-1.323-.72-1.323-1.674C1.143-3,1.548-3.861,2.484-3.861ZM5.058,0H5.85V-2.619A1.139,1.139,0,0,1,5.9-2.988,1.125,1.125,0,0,1,6.966-3.8c.747,0,1.008.585,1.008,1.287V0h.792V-2.6c0-1.494-.936-1.854-1.539-1.854a1.6,1.6,0,0,0-1.44.819H5.769l-.045-.72h-.7c.027.36.036.729.036,1.179Zm6.3-4.455A2.127,2.127,0,0,0,9.2-2.142,2.071,2.071,0,0,0,11.286.1a2.129,2.129,0,0,0,2.169-2.313A2.063,2.063,0,0,0,11.358-4.455Zm-.018.594c.936,0,1.305.936,1.305,1.674,0,.981-.567,1.692-1.323,1.692C10.548-.5,10-1.215,10-2.169,10-3,10.4-3.861,11.34-3.861ZM17.046,0a6.133,6.133,0,0,1-.072-1.044V-2.673c0-.873-.324-1.782-1.656-1.782a2.7,2.7,0,0,0-1.431.387l.18.522A2.17,2.17,0,0,1,15.2-3.87a.9.9,0,0,1,.99,1.008v.09c-1.683-.009-2.619.567-2.619,1.62A1.241,1.241,0,0,0,14.9.1a1.622,1.622,0,0,0,1.332-.648h.027L16.326,0Zm-.837-1.467a.827.827,0,0,1-.045.252,1.084,1.084,0,0,1-1.053.729.7.7,0,0,1-.747-.756c0-.846.981-1,1.845-.981Zm5.148-2.889h-.792v2.673a1.158,1.158,0,0,1-.072.405,1.145,1.145,0,0,1-1.044.72c-.72,0-.972-.558-.972-1.386V-4.356h-.792v2.547c0,1.53.819,1.908,1.5,1.908a1.639,1.639,0,0,0,1.44-.81h.018L20.691,0h.7c-.027-.342-.036-.738-.036-1.188ZM25.1-6.39v2.6h-.018a1.456,1.456,0,0,0-1.314-.666,2.084,2.084,0,0,0-1.953,2.34A1.986,1.986,0,0,0,23.679.1a1.611,1.611,0,0,0,1.485-.855h.018L25.218,0h.711c-.027-.3-.036-.738-.036-1.125V-6.39Zm0,4.563a1.376,1.376,0,0,1-.036.342A1.191,1.191,0,0,1,23.9-.54c-.855,0-1.287-.729-1.287-1.611,0-.963.486-1.683,1.305-1.683a1.165,1.165,0,0,1,1.143.918,1.4,1.4,0,0,1,.036.333ZM27.459,0V-4.356h-.792V0Zm-.4-6.075a.483.483,0,0,0-.495.5.471.471,0,0,0,.477.486.468.468,0,0,0,.5-.486A.47.47,0,0,0,27.063-6.075Zm3.015,1.62a2.127,2.127,0,0,0-2.16,2.313A2.071,2.071,0,0,0,30.006.1a2.129,2.129,0,0,0,2.169-2.313A2.063,2.063,0,0,0,30.078-4.455Zm-.018.594c.936,0,1.305.936,1.305,1.674,0,.981-.567,1.692-1.323,1.692-.774,0-1.323-.72-1.323-1.674C28.719-3,29.124-3.861,30.06-3.861ZM32.634,0h.792V-6.39h-.792Zm3.429-4.455A2.127,2.127,0,0,0,33.9-2.142,2.071,2.071,0,0,0,35.991.1,2.129,2.129,0,0,0,38.16-2.214,2.063,2.063,0,0,0,36.063-4.455Zm-.018.594c.936,0,1.305.936,1.305,1.674,0,.981-.567,1.692-1.323,1.692-.774,0-1.323-.72-1.323-1.674C34.7-3,35.109-3.861,36.045-3.861Zm5.634-.5-.036.657h-.018a1.449,1.449,0,0,0-1.359-.756A2.091,2.091,0,0,0,38.3-2.142,1.947,1.947,0,0,0,40.158-.018a1.555,1.555,0,0,0,1.386-.729h.018v.486c0,1.1-.594,1.521-1.4,1.521A2.456,2.456,0,0,1,38.88.918l-.2.6a2.811,2.811,0,0,0,1.449.36,2.309,2.309,0,0,0,1.584-.522A2.5,2.5,0,0,0,42.336-.63V-3.159c0-.531.018-.882.036-1.2Zm-.126,2.5a1.378,1.378,0,0,1-.063.423,1.158,1.158,0,0,1-1.1.81c-.855,0-1.287-.711-1.287-1.566,0-1.008.54-1.647,1.3-1.647A1.141,1.141,0,0,1,41.508-3a1.128,1.128,0,0,1,.045.36ZM43.848,0V-4.356h-.792V0Zm-.054-6.237L43-4.95h.567l1.1-1.287ZM47.754,0a6.133,6.133,0,0,1-.072-1.044V-2.673c0-.873-.324-1.782-1.656-1.782a2.7,2.7,0,0,0-1.431.387l.18.522a2.17,2.17,0,0,1,1.134-.324.9.9,0,0,1,.99,1.008v.09c-1.683-.009-2.619.567-2.619,1.62A1.241,1.241,0,0,0,45.612.1a1.622,1.622,0,0,0,1.332-.648h.027L47.034,0Zm-.837-1.467a.827.827,0,0,1-.045.252,1.084,1.084,0,0,1-1.053.729.7.7,0,0,1-.747-.756c0-.846.981-1,1.845-.981Z" transform="translate(886.097 1284.432)" fill="#42454a"/>
    <path id="Trazado_76" data-name="Trazado 76" d="M1.836,0h.792V-5.4H4.482v-.666H-.009V-5.4H1.836Z" transform="translate(829.698 1283.803)" fill="#42454a"/>
    <path id="Trazado_77" data-name="Trazado 77" d="M4.158-2.034A2.987,2.987,0,0,0,4.185-2.4a1.845,1.845,0,0,0-1.8-2.052A2.115,2.115,0,0,0,.342-2.106,2.023,2.023,0,0,0,2.484.09,3.528,3.528,0,0,0,3.933-.18L3.8-.747a2.864,2.864,0,0,1-1.206.225A1.4,1.4,0,0,1,1.1-2.034ZM1.107-2.6A1.313,1.313,0,0,1,2.322-3.888,1.128,1.128,0,0,1,3.42-2.6ZM4.626,0h.783V-2.322a2.229,2.229,0,0,1,.036-.369A1.111,1.111,0,0,1,6.507-3.708a1.19,1.19,0,0,1,.27.027v-.747a.857.857,0,0,0-.225-.027A1.307,1.307,0,0,0,5.346-3.5H5.31l-.027-.855H4.59c.027.405.036.846.036,1.359Zm5.49,0a6.133,6.133,0,0,1-.072-1.044V-2.673c0-.873-.324-1.782-1.656-1.782a2.7,2.7,0,0,0-1.431.387l.18.522A2.17,2.17,0,0,1,8.271-3.87a.9.9,0,0,1,.99,1.008v.09c-1.683-.009-2.619.567-2.619,1.62A1.241,1.241,0,0,0,7.974.1,1.622,1.622,0,0,0,9.306-.549h.027L9.4,0ZM9.279-1.467a.827.827,0,0,1-.045.252,1.084,1.084,0,0,1-1.053.729.7.7,0,0,1-.747-.756c0-.846.981-1,1.845-.981Zm1.5,3.249h.783V-.585h.018A1.528,1.528,0,0,0,12.924.1a2.062,2.062,0,0,0,1.98-2.34,1.973,1.973,0,0,0-1.845-2.214,1.713,1.713,0,0,0-1.548.846h-.018l-.036-.747h-.711c.018.414.036.864.036,1.422Zm.783-4.3a1.284,1.284,0,0,1,.054-.324,1.264,1.264,0,0,1,1.2-.981c.837,0,1.3.747,1.3,1.62,0,1-.486,1.683-1.323,1.683A1.222,1.222,0,0,1,11.6-1.449a1.783,1.783,0,0,1-.036-.324ZM16.155,0V-4.356h-.792V0Zm-.4-6.075a.483.483,0,0,0-.5.5.471.471,0,0,0,.477.486.468.468,0,0,0,.5-.486A.47.47,0,0,0,15.759-6.075ZM20.061,0a6.133,6.133,0,0,1-.072-1.044V-2.673c0-.873-.324-1.782-1.656-1.782a2.7,2.7,0,0,0-1.431.387l.18.522a2.17,2.17,0,0,1,1.134-.324.9.9,0,0,1,.99,1.008v.09c-1.683-.009-2.619.567-2.619,1.62A1.241,1.241,0,0,0,17.919.1a1.622,1.622,0,0,0,1.332-.648h.027L19.341,0Zm-.837-1.467a.827.827,0,0,1-.045.252,1.084,1.084,0,0,1-1.053.729.7.7,0,0,1-.747-.756c0-.846.981-1,1.845-.981Z" transform="translate(833.135 1283.803)" fill="#42454a"/>
    <path id="Trazado_78" data-name="Trazado 78" d="M3.141-6.165A2.882,2.882,0,0,0,.324-2.979,2.781,2.781,0,0,0,3.051.1C4.6.1,5.868-1.008,5.868-3.1A2.762,2.762,0,0,0,3.141-6.165Zm-.036.639c1.3,0,1.935,1.26,1.935,2.466,0,1.377-.7,2.52-1.944,2.52S1.161-1.7,1.161-3C1.161-4.329,1.809-5.526,3.105-5.526ZM9.324-.756a2.25,2.25,0,0,1-.972.216A1.494,1.494,0,0,1,6.84-2.169,1.507,1.507,0,0,1,8.379-3.816a1.837,1.837,0,0,1,.918.207l.18-.612a2.647,2.647,0,0,0-1.1-.225,2.213,2.213,0,0,0-2.34,2.313A2.07,2.07,0,0,0,8.208.09,2.917,2.917,0,0,0,9.459-.162Zm4.167-3.6H12.7v2.673a1.158,1.158,0,0,1-.072.405,1.145,1.145,0,0,1-1.044.72c-.72,0-.972-.558-.972-1.386V-4.356H9.819v2.547c0,1.53.819,1.908,1.5,1.908a1.639,1.639,0,0,0,1.44-.81h.018L12.825,0h.7c-.027-.342-.036-.738-.036-1.188Zm.774,6.138h.783V-.585h.018A1.528,1.528,0,0,0,16.407.1a2.062,2.062,0,0,0,1.98-2.34,1.973,1.973,0,0,0-1.845-2.214,1.713,1.713,0,0,0-1.548.846h-.018l-.036-.747h-.711c.018.414.036.864.036,1.422Zm.783-4.3a1.284,1.284,0,0,1,.054-.324,1.264,1.264,0,0,1,1.2-.981c.837,0,1.3.747,1.3,1.62,0,1-.486,1.683-1.323,1.683a1.222,1.222,0,0,1-1.188-.927,1.783,1.783,0,0,1-.036-.324ZM21.978,0a6.133,6.133,0,0,1-.072-1.044V-2.673c0-.873-.324-1.782-1.656-1.782a2.7,2.7,0,0,0-1.431.387l.18.522a2.17,2.17,0,0,1,1.134-.324.9.9,0,0,1,.99,1.008v.09C19.44-2.781,18.5-2.2,18.5-1.152A1.241,1.241,0,0,0,19.836.1a1.622,1.622,0,0,0,1.332-.648h.027L21.258,0Zm-.837-1.467a.827.827,0,0,1-.045.252,1.084,1.084,0,0,1-1.053.729.7.7,0,0,1-.747-.756c0-.846.981-1,1.845-.981Zm4.473.711a2.25,2.25,0,0,1-.972.216A1.494,1.494,0,0,1,23.13-2.169a1.507,1.507,0,0,1,1.539-1.647,1.837,1.837,0,0,1,.918.207l.18-.612a2.647,2.647,0,0,0-1.1-.225,2.213,2.213,0,0,0-2.34,2.313A2.07,2.07,0,0,0,24.5.09a2.917,2.917,0,0,0,1.251-.252ZM26.928,0V-4.356h-.792V0Zm-.4-6.075a.483.483,0,0,0-.495.5.471.471,0,0,0,.477.486.468.468,0,0,0,.5-.486A.47.47,0,0,0,26.532-6.075Zm3.015,1.62a2.127,2.127,0,0,0-2.16,2.313A2.071,2.071,0,0,0,29.475.1a2.129,2.129,0,0,0,2.169-2.313A2.063,2.063,0,0,0,29.547-4.455Zm-.018.594c.936,0,1.305.936,1.305,1.674,0,.981-.567,1.692-1.323,1.692-.774,0-1.323-.72-1.323-1.674C28.188-3,28.593-3.861,29.529-3.861ZM32.1,0H32.9V-2.619a1.139,1.139,0,0,1,.054-.369,1.125,1.125,0,0,1,1.062-.81c.747,0,1.008.585,1.008,1.287V0h.792V-2.6c0-1.494-.936-1.854-1.539-1.854a1.6,1.6,0,0,0-1.44.819h-.018l-.045-.72h-.7c.027.36.036.729.036,1.179ZM39.69,0a6.133,6.133,0,0,1-.072-1.044V-2.673c0-.873-.324-1.782-1.656-1.782a2.7,2.7,0,0,0-1.431.387l.18.522a2.17,2.17,0,0,1,1.134-.324.9.9,0,0,1,.99,1.008v.09c-1.683-.009-2.619.567-2.619,1.62A1.241,1.241,0,0,0,37.548.1,1.622,1.622,0,0,0,38.88-.549h.027L38.97,0Zm-.837-1.467a.827.827,0,0,1-.045.252,1.084,1.084,0,0,1-1.053.729.7.7,0,0,1-.747-.756c0-.846.981-1,1.845-.981ZM40.356,0h.792V-6.39h-.792Z" transform="translate(820.356 1295.069)" fill="#42454a"/>
    <path id="Trazado_79" data-name="Trazado 79" d="M.684,0h.783V-2.745h2.3v-.648h-2.3V-5.409H3.951v-.657H.684Z" transform="translate(769.159 1283.173)" fill="#42454a"/>
    <path id="Trazado_80" data-name="Trazado 80" d="M1.449,0V-4.356H.657V0Zm-.4-6.075a.483.483,0,0,0-.5.5.471.471,0,0,0,.477.486.468.468,0,0,0,.5-.486A.47.47,0,0,0,1.053-6.075ZM1.917-.207a2.484,2.484,0,0,0,1.224.3C4.176.09,4.77-.45,4.77-1.215c0-.648-.387-1.026-1.143-1.314C3.06-2.745,2.8-2.907,2.8-3.267c0-.324.261-.594.729-.594a1.7,1.7,0,0,1,.891.252l.2-.576a2.174,2.174,0,0,0-1.071-.27,1.343,1.343,0,0,0-1.5,1.278c0,.522.369.954,1.152,1.233.585.216.81.423.81.8,0,.36-.27.648-.846.648A2.076,2.076,0,0,1,2.115-.81ZM6.039,0V-4.356H5.247V0Zm-.4-6.075a.483.483,0,0,0-.495.5.471.471,0,0,0,.477.486.468.468,0,0,0,.5-.486A.47.47,0,0,0,5.643-6.075Zm3.015,1.62A2.127,2.127,0,0,0,6.5-2.142,2.071,2.071,0,0,0,8.586.1a2.129,2.129,0,0,0,2.169-2.313A2.063,2.063,0,0,0,8.658-4.455Zm-.018.594c.936,0,1.305.936,1.305,1.674C9.945-1.206,9.378-.5,8.622-.5,7.848-.5,7.3-1.215,7.3-2.169,7.3-3,7.7-3.861,8.64-3.861ZM11.394-5.4v1.044h-.675v.6h.675v2.376A1.614,1.614,0,0,0,11.7-.243a1.1,1.1,0,0,0,.855.333,1.939,1.939,0,0,0,.7-.108l-.036-.594a1.762,1.762,0,0,1-.459.054c-.441,0-.594-.306-.594-.846V-3.753H13.3v-.6H12.168V-5.607ZM17.1-2.034a2.987,2.987,0,0,0,.027-.369,1.845,1.845,0,0,0-1.8-2.052,2.115,2.115,0,0,0-2.043,2.349A2.023,2.023,0,0,0,15.426.09a3.528,3.528,0,0,0,1.449-.27L16.74-.747a2.864,2.864,0,0,1-1.206.225A1.4,1.4,0,0,1,14.04-2.034ZM14.049-2.6a1.313,1.313,0,0,1,1.215-1.287,1.128,1.128,0,0,1,1.1,1.287ZM17.568,0h.783V-2.322a2.229,2.229,0,0,1,.036-.369,1.111,1.111,0,0,1,1.062-1.017,1.19,1.19,0,0,1,.27.027v-.747a.857.857,0,0,0-.225-.027,1.307,1.307,0,0,0-1.206.954h-.036l-.027-.855h-.693c.027.405.036.846.036,1.359Zm5.49,0a6.133,6.133,0,0,1-.072-1.044V-2.673c0-.873-.324-1.782-1.656-1.782a2.7,2.7,0,0,0-1.431.387l.18.522a2.17,2.17,0,0,1,1.134-.324.9.9,0,0,1,.99,1.008v.09c-1.683-.009-2.619.567-2.619,1.62A1.241,1.241,0,0,0,20.916.1a1.622,1.622,0,0,0,1.332-.648h.027L22.338,0Zm-.837-1.467a.827.827,0,0,1-.045.252,1.084,1.084,0,0,1-1.053.729.7.7,0,0,1-.747-.756c0-.846.981-1,1.845-.981Zm1.5,3.249h.783V-.585h.018A1.528,1.528,0,0,0,25.866.1a2.062,2.062,0,0,0,1.98-2.34A1.973,1.973,0,0,0,26-4.455a1.713,1.713,0,0,0-1.548.846h-.018L24.4-4.356h-.711c.018.414.036.864.036,1.422Zm.783-4.3a1.285,1.285,0,0,1,.054-.324,1.264,1.264,0,0,1,1.2-.981c.837,0,1.3.747,1.3,1.62,0,1-.486,1.683-1.323,1.683a1.222,1.222,0,0,1-1.188-.927,1.783,1.783,0,0,1-.036-.324ZM29.1,0V-4.356H28.3V0Zm-.4-6.075a.483.483,0,0,0-.495.5.471.471,0,0,0,.477.486.468.468,0,0,0,.5-.486A.47.47,0,0,0,28.7-6.075ZM33,0a6.133,6.133,0,0,1-.072-1.044V-2.673c0-.873-.324-1.782-1.656-1.782a2.7,2.7,0,0,0-1.431.387l.18.522a2.17,2.17,0,0,1,1.134-.324.9.9,0,0,1,.99,1.008v.09c-1.683-.009-2.619.567-2.619,1.62A1.241,1.241,0,0,0,30.861.1a1.622,1.622,0,0,0,1.332-.648h.027L32.283,0Zm-.837-1.467a.827.827,0,0,1-.045.252,1.084,1.084,0,0,1-1.053.729.7.7,0,0,1-.747-.756c0-.846.981-1,1.845-.981Z" transform="translate(772.924 1283.173)" fill="#42454a"/>
    <path id="Trazado_27" data-name="Trazado 27" d="M0,0C-.392-1.838-.783-3.708-1.2-5.573a2.811,2.811,0,0,0-.4-1.069c-.177-.233-.55-.319-.836-.469-.114.318-.379.671-.316.95.306,1.36.707,2.7,1.058,4.049a4.092,4.092,0,0,1,.1.815c.151,2.644-.42,3.422-2.98,4.134A27.044,27.044,0,0,0-5.488-.476a27.7,27.7,0,0,0-1.7-3.048c1.313-2.136.841-5.031-2.221-6.55a14.883,14.883,0,0,1,1.387-1.055,1.022,1.022,0,0,1,.748.019,5.234,5.234,0,0,0,3.312.02,1.418,1.418,0,0,1,1.086.152A11.557,11.557,0,0,1,1.857-3.127c.172,1.014.192,2.054.285,3.127Z" transform="translate(886.278 1326.626)" fill="#20143b"/>
    <path id="Trazado_28" data-name="Trazado 28" d="M0,0C-2.957,1.942-3.558,3.848-2.091,6.718A10.332,10.332,0,0,0-4.7,13.169c-1.044-.643-1.974-1.176-2.85-1.785-.186-.129-.241-.53-.257-.811A16.238,16.238,0,0,1-6.673,4.137a1.247,1.247,0,0,0-.048-.97c-.3-.459-.855-.227-1.134.461A19.5,19.5,0,0,0-9.15,9.548c-.015.19-.02.378-.03.557H-11.4A12.753,12.753,0,0,1-9.075,1.8,24.244,24.244,0,0,1-6.5-.83c.347-.345.712-.276,1.186-.2A6.852,6.852,0,0,0-2.5-.961,1.841,1.841,0,0,1-.534-.5c.174.163.349.325.534.5" transform="translate(873.885 1316.534)" fill="#20143b"/>
    <path id="Trazado_29" data-name="Trazado 29" d="M0,0C-.5-1.03-1-2.085-1.526-3.125c-.232-.456-.617-.8-1.127-.445-.492.338-.224.751.038,1.142,1.469,2.2,1.6,4.675,1.5,7.19-1.454,1.347-3.222.693-4.853.749-.694.024-1.192-.822-1.2-1.6a10.855,10.855,0,0,1,1.645-6.6c.133-.194-.057-.611-.1-.924-.316.075-.8.048-.917.243-.51.835-.923,1.732-1.351,2.616A7.1,7.1,0,0,0-8.177.1a1.9,1.9,0,0,1-.809-1.959,8.582,8.582,0,0,1,2.17-5.158,4.546,4.546,0,0,0,5.323.007A7.239,7.239,0,0,1,.478-3.3,9.838,9.838,0,0,1,.7-1.673C.778-.7.763-.7,0,0" transform="translate(879.532 1331.234)" fill="#20143b"/>
    <path id="Trazado_30" data-name="Trazado 30" d="M0,0-2.548,2.579A7.543,7.543,0,0,0-3.567,3.648a.908.908,0,0,0-.013.857.851.851,0,0,0,.842.051C-1.107,2.875.883,1.492,1.8-.8c.366-.915.772-1.814,1.161-2.721.2-.464.479-.874,1.049-.612.511.235.448.695.248,1.134-.8,1.771-1.584,3.554-2.433,5.3A5.85,5.85,0,0,1,.749,3.747C-.47,5.012-1.711,6.257-2.983,7.469a1.76,1.76,0,0,1-1.053.454c-1.424.051-2.851.021-4.264.021a4.824,4.824,0,0,1,2.375-5.5A36.7,36.7,0,0,0-2.1.066,1.611,1.611,0,0,1,0,0" transform="translate(888.247 1328.214)" fill="#20143b"/>
    <path id="Trazado_31" data-name="Trazado 31" d="M0,0A1.513,1.513,0,0,1,1.946.033c1.4.9,2.811,1.782,4.248,2.618A4.441,4.441,0,0,1,8.342,5.988a12.843,12.843,0,0,1,.016,1.983c-1.642,0-3.252.015-4.86-.019-.2,0-.408-.249-.578-.417C1.653,6.279.371,5.035-.856,3.74a6.857,6.857,0,0,1-1.17-1.672c-.783-1.6-1.491-3.234-2.229-4.856-.046-.1-.149-.215-.127-.3.1-.355.229-.7.348-1.047.3.161.745.245.889.5a15.451,15.451,0,0,1,.963,2.176,10.115,10.115,0,0,0,2.7,3.975c.67.608,1.25,1.319,1.945,1.894.24.2.7.128,1.063.179-.053-.361.022-.835-.18-1.063C2.528,2.605,1.618,1.763.753.881.492.614.265.313,0,0" transform="translate(862.619 1328.178)" fill="#20143b"/>
    <path id="Trazado_32" data-name="Trazado 32" d="M0,0A3.313,3.313,0,0,1,3.388-3.289,3.329,3.329,0,0,1,6.707.08a3.412,3.412,0,0,1-3.36,3.36A3.375,3.375,0,0,1,0,0" transform="translate(877.311 1311.088)" fill="#20143b"/>
    <path id="Trazado_33" data-name="Trazado 33" d="M0,0A3.374,3.374,0,0,1-3.3,3.4,3.413,3.413,0,0,1-6.707,0a3.347,3.347,0,0,1,3.366-3.33A3.287,3.287,0,0,1,0,0" transform="translate(873.484 1311.127)" fill="#20143b"/>
    <path id="Trazado_34" data-name="Trazado 34" d="M0,0C.877,0,1.756.016,2.632-.006c.482-.012.69.143.678.658q-.044,1.768,0,3.537c.012.514-.195.665-.677.661-1.782-.017-3.564-.02-5.347,0-.517.005-.744-.153-.731-.7q.042-1.727,0-3.454c-.013-.548.212-.718.731-.7C-1.81.019-.9,0,0,0M1.741,3.387c.445-.442.906-.686.936-.975.059-.574-.462-.628-.932-.62-.434.007-.936.039-.863.59.041.3.454.553.859,1.005" transform="translate(868.99 1337.481)" fill="#20143b"/>
    <path id="Trazado_35" data-name="Trazado 35" d="M0,0C0-1.537-.02-2.932.025-4.323A.745.745,0,0,1,.563-4.81c1.864-.036,3.729-.039,5.593.005a.809.809,0,0,1,.551.563c.051,1.232.043,2.468,0,3.7-.006.186-.278.517-.431.519C4.228.012,2.176,0,0,0M1.423-1.476c.457-.393.911-.594.991-.9.138-.519-.309-.67-.777-.67S.6-3.065.618-2.421c.009.27.431.526.805.945" transform="translate(878.507 1342.314)" fill="#20143b"/>
    <path id="Trazado_36" data-name="Trazado 36" d="M0,0A3.009,3.009,0,0,1-3.1,3.045,3.007,3.007,0,0,1-6.06-.047,2.964,2.964,0,0,1-3.009-3.035,2.98,2.98,0,0,1,0,0" transform="translate(878.427 1320.741)" fill="#20143b"/>
    <path id="Trazado_37" data-name="Trazado 37" d="M0,0C.414-.362.82-.7,1.2-1.057,1.778-1.6,2.336-2.151,2.9-2.7a1.3,1.3,0,0,1,.211-.175c.307-.186.581-.047.594.313a1.31,1.31,0,0,0,.6,1.123,1.457,1.457,0,0,0,1.135.173A2.844,2.844,0,0,0,7.633-3.911,1.278,1.278,0,0,0,6.29-5.279c-.192,0-.406.029-.5-.2a.54.54,0,0,1,.15-.574Q7.263-7.661,8.58-9.278c.093-.114.186-.231.315-.393.217.315.428.592.607.888A9.807,9.807,0,0,1,11-3.843,9.527,9.527,0,0,1,10.834-2.3a2.741,2.741,0,0,0,.518,2.084c.6.843,1.157,1.724,1.749,2.577a1.069,1.069,0,0,1-.635,1.666,5.281,5.281,0,0,1-.719.095c-.157.01-.234.05-.209.224.046.313.069.631.121.944.087.525-.01.7-.509.868l-.242.081c.053.035.083.057.115.076.408.238.478.532.154.876a1.242,1.242,0,0,0-.317,1.271,2.556,2.556,0,0,1-2.382,3.2c-.476.035-.954.023-1.43.049-.433.026-.869.052-1.3.119a1.059,1.059,0,0,0-.978,1.139c-.009.26,0,.52-.031.778-.041.4-.2.458-.557.281-.862-.428-1.71-.9-2.6-1.245a35.179,35.179,0,0,0-8.249-2.13c-.341-.045-.681-.089-1.02-.138-.312-.045-.353-.111-.378-.421-.066-.825-.136-1.65-.223-2.474A6.322,6.322,0,0,0-9.1,5.447,35.667,35.667,0,0,1-11.212.81a10.318,10.318,0,0,1-.183-5.8,9.112,9.112,0,0,1,1.353-3.329c.39-.544.39-.559.9-.146,1,.809,2,1.632,3,2.445a1.091,1.091,0,0,0,.36.215c.25.07.368-.048.393-.307a2.662,2.662,0,0,1,.124-.734,1.434,1.434,0,0,1,1.718-.794A3,3,0,0,1-1.287-5.477a1.431,1.431,0,0,1-.622,1.639,4.223,4.223,0,0,1-.618.188c-.142.048-.381.107-.392.187a.678.678,0,0,0,.148.491c.355.4.755.76,1.12,1.152.508.545,1,1.105,1.5,1.658C-.113-.119-.073-.078,0,0" transform="translate(781.094 1328.206)" fill="#20143b"/>
    <path id="Trazado_38" data-name="Trazado 38" d="M0,0A20.476,20.476,0,0,1,3.982.4a8.741,8.741,0,0,1,3.886,2c.264.242.514.5.759.763.227.242.219.345.007.606-.5.616-1,1.236-1.5,1.852-.344.421-.7.835-1.044,1.253a1.605,1.605,0,0,0-.15.2c-.2.322-.069.572.306.566a1.288,1.288,0,0,1,1.4,1.121,2.314,2.314,0,0,1-.476,1.724,2.741,2.741,0,0,1-1.768,1.141,1.362,1.362,0,0,1-1.621-1.218c-.017-.144-.089-.378-.173-.4a.621.621,0,0,0-.47.134c-.3.252-.559.552-.848.821C1.67,11.548,1.036,12.12.409,12.7c-.134.124-.238.108-.36-.024C-.8,11.752-1.664,10.84-2.5,9.908a.619.619,0,0,1-.112-.473c.015-.082.227-.166.356-.181A1.356,1.356,0,0,0-1.035,7.515,2.854,2.854,0,0,0-3.344,5.4,1.346,1.346,0,0,0-4.97,6.767a.6.6,0,0,1-.157.409c-.153.139-.336.035-.476-.081-.646-.53-1.285-1.07-1.933-1.6-.435-.354-.88-.694-1.321-1.04-.244-.192-.247-.215-.049-.448A10.863,10.863,0,0,1-3.16.388,20.2,20.2,0,0,1-.755.054C-.482.02-.2.014,0,0" transform="translate(779.739 1307.798)" fill="#20143b"/>
    <path id="Trazado_39" data-name="Trazado 39" d="M0,0C-4.377.5-8.373.924-12.356,1.434c-2.671.342-3.242.1-4.17-2.433C-18-5.024-19.333-9.1-20.872-13.1a2.335,2.335,0,0,1,1.127-3.278C-8.664-23.4,2.656-24,14.214-17.642c4.356,2.4,4.3,2.444,2.89,7.167C16.1-7.13,15.186-3.76,14.228-.4c-.553,1.94-1.087,2.256-3.1,1.966C7.311,1.014,3.492.49,0,0M-7.715-11.856c-.068,1.154.348,2.206,1.684,2.113,1.948-.135,2.317.766,2.235,2.436A1.862,1.862,0,0,0-1.662-5.158C.308-5.167.838-5.611.81-7.716.8-8.922.895-9.729,2.473-9.662c1.681.071,2.147-.536,2.168-2.2.023-1.78-.423-2.389-2.166-2.394C1.108-14.261.8-14.817.776-16.062A2.609,2.609,0,0,0-.11-18.029c-1.881-1.044-3.636.01-3.708,2.162-.037,1.143-.4,1.58-1.577,1.594-1.97.022-2.34.471-2.32,2.417" transform="translate(830.005 1335.262)" fill="#20143b"/>
    <path id="Trazado_81" data-name="Trazado 81" d="M3.141-6.165A2.882,2.882,0,0,0,.324-2.979,2.781,2.781,0,0,0,3.051.1C4.6.1,5.868-1.008,5.868-3.1A2.762,2.762,0,0,0,3.141-6.165Zm-.036.639c1.3,0,1.935,1.26,1.935,2.466,0,1.377-.7,2.52-1.944,2.52S1.161-1.7,1.161-3C1.161-4.329,1.809-5.526,3.105-5.526ZM6.318,1.782H7.1V-.585h.018A1.528,1.528,0,0,0,8.46.1a2.062,2.062,0,0,0,1.98-2.34A1.973,1.973,0,0,0,8.595-4.455a1.713,1.713,0,0,0-1.548.846H7.029l-.036-.747H6.282c.018.414.036.864.036,1.422ZM7.1-2.52a1.284,1.284,0,0,1,.054-.324,1.264,1.264,0,0,1,1.2-.981c.837,0,1.3.747,1.3,1.62,0,1-.486,1.683-1.323,1.683a1.222,1.222,0,0,1-1.188-.927A1.783,1.783,0,0,1,7.1-1.773ZM11.079-5.4v1.044H10.4v.6h.675v2.376a1.614,1.614,0,0,0,.306,1.134A1.1,1.1,0,0,0,12.24.09a1.939,1.939,0,0,0,.7-.108l-.036-.594a1.762,1.762,0,0,1-.459.054c-.441,0-.594-.306-.594-.846V-3.753h1.134v-.6H11.853V-5.607Zm4.05.945a2.127,2.127,0,0,0-2.16,2.313A2.071,2.071,0,0,0,15.057.1a2.129,2.129,0,0,0,2.169-2.313A2.063,2.063,0,0,0,15.129-4.455Zm-.018.594c.936,0,1.305.936,1.305,1.674,0,.981-.567,1.692-1.323,1.692-.774,0-1.323-.72-1.323-1.674C13.77-3,14.175-3.861,15.111-3.861ZM17.685,0h.774V-2.628a1.092,1.092,0,0,1,.063-.387,1.082,1.082,0,0,1,.981-.792c.6,0,.909.5.909,1.2V0h.774V-2.691a1.3,1.3,0,0,1,.063-.4,1.025,1.025,0,0,1,.936-.72c.639,0,.945.5.945,1.341V0H23.9V-2.565c0-1.512-.855-1.89-1.431-1.89a1.487,1.487,0,0,0-.963.306,1.794,1.794,0,0,0-.486.567h-.018a1.288,1.288,0,0,0-1.233-.873,1.5,1.5,0,0,0-1.368.8h-.027l-.036-.7h-.693c.027.36.036.729.036,1.179ZM28.152-2.034a2.987,2.987,0,0,0,.027-.369,1.845,1.845,0,0,0-1.8-2.052,2.115,2.115,0,0,0-2.043,2.349A2.023,2.023,0,0,0,26.478.09a3.528,3.528,0,0,0,1.449-.27l-.135-.567a2.864,2.864,0,0,1-1.206.225,1.4,1.4,0,0,1-1.494-1.512ZM25.1-2.6a1.313,1.313,0,0,1,1.215-1.287,1.128,1.128,0,0,1,1.1,1.287Zm3.7-2.8v1.044h-.675v.6H28.8v2.376a1.614,1.614,0,0,0,.306,1.134,1.1,1.1,0,0,0,.855.333,1.939,1.939,0,0,0,.7-.108l-.036-.594a1.762,1.762,0,0,1-.459.054c-.441,0-.594-.306-.594-.846V-3.753h1.134v-.6H29.574V-5.607ZM31.059,0h.783V-2.322a2.229,2.229,0,0,1,.036-.369A1.111,1.111,0,0,1,32.94-3.708a1.19,1.19,0,0,1,.27.027v-.747a.857.857,0,0,0-.225-.027,1.307,1.307,0,0,0-1.206.954h-.036l-.027-.855h-.693c.027.405.036.846.036,1.359ZM34.29,0V-4.356H33.5V0Zm-.054-6.237L33.444-4.95h.567l1.1-1.287ZM38.2,0a6.133,6.133,0,0,1-.072-1.044V-2.673c0-.873-.324-1.782-1.656-1.782a2.7,2.7,0,0,0-1.431.387l.18.522a2.17,2.17,0,0,1,1.134-.324.9.9,0,0,1,.99,1.008v.09c-1.683-.009-2.619.567-2.619,1.62A1.241,1.241,0,0,0,36.054.1a1.622,1.622,0,0,0,1.332-.648h.027L37.476,0Zm-.837-1.467a.827.827,0,0,1-.045.252,1.084,1.084,0,0,1-1.053.729.7.7,0,0,1-.747-.756c0-.846.981-1,1.845-.981Z" transform="translate(901.263 1355.894)" fill="#42454a"/>
    <path id="Trazado_82" data-name="Trazado 82" d="M.684,0h.783V-2.43a2.7,2.7,0,0,0,.63.054,2.513,2.513,0,0,0,1.854-.666,1.786,1.786,0,0,0,.468-1.3,1.631,1.631,0,0,0-.531-1.269,2.492,2.492,0,0,0-1.7-.5,9.075,9.075,0,0,0-1.5.117Zm.783-5.427A3.286,3.286,0,0,1,2.2-5.49c.864,0,1.431.387,1.431,1.188,0,.837-.576,1.3-1.521,1.3a2.626,2.626,0,0,1-.648-.063Z" transform="translate(764.363 1352.674)" fill="#42454a"/>
    <path id="Trazado_83" data-name="Trazado 83" d="M.351-.207a2.484,2.484,0,0,0,1.224.3C2.61.09,3.2-.45,3.2-1.215c0-.648-.387-1.026-1.143-1.314-.567-.216-.828-.378-.828-.738,0-.324.261-.594.729-.594a1.7,1.7,0,0,1,.891.252l.2-.576a2.174,2.174,0,0,0-1.071-.27,1.343,1.343,0,0,0-1.5,1.278c0,.522.369.954,1.152,1.233.585.216.81.423.81.8,0,.36-.27.648-.846.648A2.076,2.076,0,0,1,.549-.81ZM4.473,0V-4.356H3.681V0Zm-.4-6.075a.483.483,0,0,0-.5.5.471.471,0,0,0,.477.486.468.468,0,0,0,.5-.486A.47.47,0,0,0,4.077-6.075ZM8.217-.756a2.25,2.25,0,0,1-.972.216A1.494,1.494,0,0,1,5.733-2.169,1.507,1.507,0,0,1,7.272-3.816a1.837,1.837,0,0,1,.918.207l.18-.612a2.647,2.647,0,0,0-1.1-.225,2.213,2.213,0,0,0-2.34,2.313A2.07,2.07,0,0,0,7.1.09,2.917,2.917,0,0,0,8.352-.162Zm2.313-3.7A2.127,2.127,0,0,0,8.37-2.142,2.071,2.071,0,0,0,10.458.1a2.129,2.129,0,0,0,2.169-2.313A2.063,2.063,0,0,0,10.53-4.455Zm-.018.594c.936,0,1.305.936,1.305,1.674,0,.981-.567,1.692-1.323,1.692-.774,0-1.323-.72-1.323-1.674C9.171-3,9.576-3.861,10.512-3.861ZM13.086,0h.792V-6.39h-.792Zm3.429-4.455a2.127,2.127,0,0,0-2.16,2.313A2.071,2.071,0,0,0,16.443.1a2.129,2.129,0,0,0,2.169-2.313A2.063,2.063,0,0,0,16.515-4.455Zm-.018.594c.936,0,1.305.936,1.305,1.674,0,.981-.567,1.692-1.323,1.692-.774,0-1.323-.72-1.323-1.674C15.156-3,15.561-3.861,16.5-3.861Zm5.634-.5-.036.657h-.018a1.449,1.449,0,0,0-1.359-.756,2.091,2.091,0,0,0-1.962,2.313A1.947,1.947,0,0,0,20.61-.018,1.555,1.555,0,0,0,22-.747h.018v.486c0,1.1-.594,1.521-1.4,1.521A2.456,2.456,0,0,1,19.332.918l-.2.6a2.811,2.811,0,0,0,1.449.36,2.309,2.309,0,0,0,1.584-.522A2.5,2.5,0,0,0,22.788-.63V-3.159c0-.531.018-.882.036-1.2ZM22-1.854a1.378,1.378,0,0,1-.063.423,1.158,1.158,0,0,1-1.1.81c-.855,0-1.287-.711-1.287-1.566,0-1.008.54-1.647,1.3-1.647A1.141,1.141,0,0,1,21.96-3a1.128,1.128,0,0,1,.045.36ZM24.3,0V-4.356h-.792V0Zm-.054-6.237L23.454-4.95h.567l1.1-1.287ZM28.206,0a6.133,6.133,0,0,1-.072-1.044V-2.673c0-.873-.324-1.782-1.656-1.782a2.7,2.7,0,0,0-1.431.387l.18.522a2.17,2.17,0,0,1,1.134-.324.9.9,0,0,1,.99,1.008v.09c-1.683-.009-2.619.567-2.619,1.62A1.241,1.241,0,0,0,26.064.1,1.622,1.622,0,0,0,27.4-.549h.027L27.486,0Zm-.837-1.467a.827.827,0,0,1-.045.252,1.084,1.084,0,0,1-1.053.729.7.7,0,0,1-.747-.756c0-.846.981-1,1.845-.981Z" transform="translate(768.588 1352.674)" fill="#42454a"/>
    <path id="Trazado_84" data-name="Trazado 84" d="M3.825-3.492H1.467V-5.409H3.96v-.657H.684V0H4.1V-.657H1.467V-2.844H3.825ZM4.545,0h.792V-2.619a1.139,1.139,0,0,1,.054-.369A1.125,1.125,0,0,1,6.453-3.8c.747,0,1.008.585,1.008,1.287V0h.792V-2.6c0-1.494-.936-1.854-1.539-1.854a1.6,1.6,0,0,0-1.44.819H5.256l-.045-.72h-.7c.027.36.036.729.036,1.179ZM9.864,0V-3.753h1.053v-.6H9.864V-4.59c0-.666.171-1.26.846-1.26a1.183,1.183,0,0,1,.5.1l.108-.612a1.837,1.837,0,0,0-.675-.126,1.515,1.515,0,0,0-1.062.4,2.054,2.054,0,0,0-.5,1.521v.207H8.469v.6h.612V0Zm4.608-2.034A2.987,2.987,0,0,0,14.5-2.4a1.845,1.845,0,0,0-1.8-2.052,2.115,2.115,0,0,0-2.043,2.349A2.023,2.023,0,0,0,12.8.09a3.528,3.528,0,0,0,1.449-.27l-.135-.567a2.864,2.864,0,0,1-1.206.225,1.4,1.4,0,0,1-1.494-1.512ZM11.421-2.6a1.313,1.313,0,0,1,1.215-1.287,1.128,1.128,0,0,1,1.1,1.287ZM14.94,0h.783V-2.322a2.229,2.229,0,0,1,.036-.369,1.111,1.111,0,0,1,1.062-1.017,1.19,1.19,0,0,1,.27.027v-.747a.857.857,0,0,0-.225-.027A1.307,1.307,0,0,0,15.66-3.5h-.036L15.6-4.356H14.9c.027.405.036.846.036,1.359Zm2.439,0h.774V-2.628a1.092,1.092,0,0,1,.063-.387,1.082,1.082,0,0,1,.981-.792c.6,0,.909.5.909,1.2V0h.774V-2.691a1.3,1.3,0,0,1,.063-.4,1.025,1.025,0,0,1,.936-.72c.639,0,.945.5.945,1.341V0H23.6V-2.565c0-1.512-.855-1.89-1.431-1.89a1.487,1.487,0,0,0-.963.306,1.794,1.794,0,0,0-.486.567H20.7a1.288,1.288,0,0,0-1.233-.873,1.5,1.5,0,0,0-1.368.8h-.027l-.036-.7h-.693c.027.36.036.729.036,1.179ZM27.846-2.034a2.987,2.987,0,0,0,.027-.369,1.845,1.845,0,0,0-1.8-2.052A2.115,2.115,0,0,0,24.03-2.106,2.023,2.023,0,0,0,26.172.09a3.528,3.528,0,0,0,1.449-.27l-.135-.567a2.864,2.864,0,0,1-1.206.225,1.4,1.4,0,0,1-1.494-1.512ZM24.8-2.6A1.313,1.313,0,0,1,26.01-3.888a1.128,1.128,0,0,1,1.1,1.287ZM28.314,0H29.1V-2.322a2.229,2.229,0,0,1,.036-.369,1.111,1.111,0,0,1,1.062-1.017,1.19,1.19,0,0,1,.27.027v-.747a.857.857,0,0,0-.225-.027,1.307,1.307,0,0,0-1.206.954H29l-.027-.855h-.693c.027.405.036.846.036,1.359Zm3.231,0V-4.356h-.792V0Zm-.054-6.237L30.7-4.95h.567l1.1-1.287ZM35.451,0a6.133,6.133,0,0,1-.072-1.044V-2.673c0-.873-.324-1.782-1.656-1.782a2.7,2.7,0,0,0-1.431.387l.18.522a2.17,2.17,0,0,1,1.134-.324.9.9,0,0,1,.99,1.008v.09c-1.683-.009-2.619.567-2.619,1.62A1.241,1.241,0,0,0,33.309.1a1.622,1.622,0,0,0,1.332-.648h.027L34.731,0Zm-.837-1.467a.827.827,0,0,1-.045.252,1.084,1.084,0,0,1-1.053.729.7.7,0,0,1-.747-.756c0-.846.981-1,1.845-.981Z" transform="translate(809.289 1353.303)" fill="#42454a"/>
    <path id="Trazado_85" data-name="Trazado 85" d="M1.836,0h.792V-5.4H4.482v-.666H-.009V-5.4H1.836Z" transform="translate(861.782 1355.246)" fill="#42454a"/>
    <path id="Trazado_86" data-name="Trazado 86" d="M.657,0H1.44V-2.322a2.229,2.229,0,0,1,.036-.369A1.111,1.111,0,0,1,2.538-3.708a1.19,1.19,0,0,1,.27.027v-.747a.857.857,0,0,0-.225-.027A1.307,1.307,0,0,0,1.377-3.5H1.341l-.027-.855H.621C.648-3.951.657-3.51.657-3Zm5.49,0a6.133,6.133,0,0,1-.072-1.044V-2.673c0-.873-.324-1.782-1.656-1.782a2.7,2.7,0,0,0-1.431.387l.18.522A2.17,2.17,0,0,1,4.3-3.87a.9.9,0,0,1,.99,1.008v.09c-1.683-.009-2.619.567-2.619,1.62A1.241,1.241,0,0,0,4.005.1,1.622,1.622,0,0,0,5.337-.549h.027L5.427,0ZM5.31-1.467a.827.827,0,0,1-.045.252,1.084,1.084,0,0,1-1.053.729.7.7,0,0,1-.747-.756c0-.846.981-1,1.845-.981ZM7.461,0,7.5-.72h.027A1.552,1.552,0,0,0,8.982.1a2.07,2.07,0,0,0,1.953-2.331A1.955,1.955,0,0,0,9.1-4.455a1.622,1.622,0,0,0-1.485.8H7.6V-6.39H6.813v5.265c0,.387-.018.828-.036,1.125ZM7.6-2.529a1.561,1.561,0,0,1,.045-.324,1.263,1.263,0,0,1,1.206-.972c.846,0,1.3.747,1.3,1.62,0,1-.495,1.674-1.323,1.674a1.222,1.222,0,0,1-1.188-.927A1.483,1.483,0,0,1,7.6-1.746ZM14.526,0a6.133,6.133,0,0,1-.072-1.044V-2.673c0-.873-.324-1.782-1.656-1.782a2.7,2.7,0,0,0-1.431.387l.18.522a2.17,2.17,0,0,1,1.134-.324.9.9,0,0,1,.99,1.008v.09c-1.683-.009-2.619.567-2.619,1.62A1.241,1.241,0,0,0,12.384.1a1.622,1.622,0,0,0,1.332-.648h.027L13.806,0Zm-.837-1.467a.827.827,0,0,1-.045.252,1.084,1.084,0,0,1-1.053.729.7.7,0,0,1-.747-.756c0-.846.981-1,1.845-.981Zm.522,3.348a2.01,2.01,0,0,0,1.35-.495,2.389,2.389,0,0,0,.522-1.791V-4.356h-.792V-.711c0,1.044-.081,1.386-.3,1.638a1.282,1.282,0,0,1-.864.333ZM15.7-6.075a.485.485,0,0,0-.5.5.473.473,0,0,0,.486.486.465.465,0,0,0,.5-.486A.468.468,0,0,0,15.7-6.075Zm2.988,1.62a2.127,2.127,0,0,0-2.16,2.313A2.071,2.071,0,0,0,18.612.1a2.129,2.129,0,0,0,2.169-2.313A2.063,2.063,0,0,0,18.684-4.455Zm-.018.594c.936,0,1.3.936,1.3,1.674,0,.981-.567,1.692-1.323,1.692-.774,0-1.323-.72-1.323-1.674C17.325-3,17.73-3.861,18.666-3.861Z" transform="translate(865.463 1355.246)" fill="#42454a"/>
    <path id="Trazado_87" data-name="Trazado 87" d="M.378-.3A3.135,3.135,0,0,0,1.926.09C3.357.09,4.05-.72,4.05-1.656c0-.891-.522-1.386-1.548-1.782-.837-.324-1.206-.6-1.206-1.17,0-.414.315-.909,1.143-.909a2.416,2.416,0,0,1,1.152.288l.216-.639a2.756,2.756,0,0,0-1.341-.3A1.746,1.746,0,0,0,.5-4.518c0,.855.612,1.368,1.6,1.719.819.315,1.143.639,1.143,1.206,0,.612-.468,1.035-1.269,1.035a2.775,2.775,0,0,1-1.4-.4ZM6.453-4.455a2.127,2.127,0,0,0-2.16,2.313A2.071,2.071,0,0,0,6.381.1,2.129,2.129,0,0,0,8.55-2.214,2.063,2.063,0,0,0,6.453-4.455Zm-.018.594c.936,0,1.3.936,1.3,1.674C7.74-1.206,7.173-.5,6.417-.5c-.774,0-1.323-.72-1.323-1.674C5.094-3,5.5-3.861,6.435-3.861ZM11.979-.756a2.25,2.25,0,0,1-.972.216A1.494,1.494,0,0,1,9.495-2.169a1.507,1.507,0,0,1,1.539-1.647,1.837,1.837,0,0,1,.918.207l.18-.612a2.647,2.647,0,0,0-1.1-.225,2.213,2.213,0,0,0-2.34,2.313A2.07,2.07,0,0,0,10.863.09a2.917,2.917,0,0,0,1.251-.252ZM13.293,0V-4.356H12.5V0Zm-.4-6.075a.483.483,0,0,0-.5.5.471.471,0,0,0,.477.486.468.468,0,0,0,.5-.486A.47.47,0,0,0,12.9-6.075ZM17.2,0a6.133,6.133,0,0,1-.072-1.044V-2.673c0-.873-.324-1.782-1.656-1.782a2.7,2.7,0,0,0-1.431.387l.18.522a2.17,2.17,0,0,1,1.134-.324.9.9,0,0,1,.99,1.008v.09c-1.683-.009-2.619.567-2.619,1.62A1.241,1.241,0,0,0,15.057.1a1.622,1.622,0,0,0,1.332-.648h.027L16.479,0Zm-.837-1.467a.827.827,0,0,1-.045.252,1.084,1.084,0,0,1-1.053.729.7.7,0,0,1-.747-.756c0-.846.981-1,1.845-.981ZM17.865,0h.792V-6.39h-.792Z" transform="translate(864.552 1366.513)" fill="#42454a"/>
    <path id="Trazado_41" data-name="Trazado 41" d="M0,0A9.826,9.826,0,0,0,1.786,12.684a7.349,7.349,0,0,0,7.463,1.21v3.344l-4.1,4.611H-11.111V-3.993H9.249v.776A7.594,7.594,0,0,0,0,0" transform="translate(912.374 1320.068)" fill="#331642"/>
    <path id="Trazado_43" data-name="Trazado 43" d="M0,0-4.1,4.611V0Z" transform="translate(921.622 1337.307)" fill="#331642"/>
    <path id="Trazado_44" data-name="Trazado 44" d="M0,0A2.208,2.208,0,0,0,.81-.162L.891-.195V-1.78H-.178v.567H.331v.6a1.187,1.187,0,0,1-.309.034c-.527,0-.843-.372-.843-1s.331-.992.884-.992a1.061,1.061,0,0,1,.5.109l.127.063L.841-2.95.748-3A1.5,1.5,0,0,0,.07-3.143,1.458,1.458,0,0,0-1.407-1.555,1.7,1.7,0,0,0-1.02-.409,1.318,1.318,0,0,0,0,0" transform="translate(911.701 1320.87)" fill="#fff"/>
    <path id="Trazado_45" data-name="Trazado 45" d="M0,0C.639,0,1.284-.5,1.284-1.617c0-.919-.513-1.56-1.247-1.56-.756,0-1.284.664-1.284,1.614C-1.247-.643-.734,0,0,0M.022-2.606c.465,0,.676.521.676,1,0,.513-.21,1.03-.679,1.03s-.676-.519-.676-1c0-.514.21-1.034.679-1.034" transform="translate(909.576 1325.37)" fill="#fff"/>
    <path id="Trazado_46" data-name="Trazado 46" d="M0,0H.178C.384.009.5.076.564.439a3.667,3.667,0,0,0,.181.71l.035.069h.61l-.1-.2A5.324,5.324,0,0,1,1.111.278,1.049,1.049,0,0,0,.868-.25a.888.888,0,0,0,.35-.738.887.887,0,0,0-.237-.636,1.053,1.053,0,0,0-.806-.264,3.14,3.14,0,0,0-.645.061l-.1.022V1.218H0ZM0-1.323a1.6,1.6,0,0,1,.2-.011c.454,0,.454.293.454.388a.39.39,0,0,1-.442.4H0Z" transform="translate(907.435 1328.554)" fill="#fff"/>
    <path id="Trazado_47" data-name="Trazado 47" d="M0,0-.4.85-.431.93c-.039.086-.076.167-.111.246-.042-.1-.088-.2-.144-.326L-1.072,0h-.649l.875,1.79v1.3h.571v-1.3L.655,0Z" transform="translate(911.976 1331.05)" fill="#fff"/>
    <path id="Trazado_48" data-name="Trazado 48" d="M0,0-.476,1.451c-.059.19-.109.356-.151.506-.04-.151-.088-.317-.145-.506L-1.228,0H-1.84l-.192,3.085h.554L-1.4,1.751c.008-.136.014-.275.02-.413.027.094.056.193.088.3l.433,1.432h.418L.026,1.615l.107-.337c.006.153.013.3.02.443L.222,3.085H.784L.612,0Z" transform="translate(908.511 1331.05)" fill="#fff"/>
    <path id="Trazado_49" data-name="Trazado 49" d="M0,0-.476,1.451c-.059.19-.109.356-.151.506-.04-.151-.088-.317-.145-.506L-1.228,0H-1.84l-.192,3.085h.554L-1.4,1.751c.008-.136.014-.275.02-.413.027.094.056.193.088.3l.433,1.432h.417L.026,1.615C.063,1.5.1,1.386.132,1.278c.007.153.014.3.02.443l.07,1.364H.783L.612,0Z" transform="translate(915.623 1335.664)" fill="#fff"/>
    <path id="Trazado_50" data-name="Trazado 50" d="M0,0A4.2,4.2,0,0,0-.7.06l-.1.018v3L-.7,3.1a4.943,4.943,0,0,0,.6.034,1.543,1.543,0,0,0,1.192-.444,1.74,1.74,0,0,0,.4-1.19A1.535,1.535,0,0,0,1.1.387,1.438,1.438,0,0,0,0,0M-.037,2.564c-.06,0-.136,0-.2,0V.579A1.692,1.692,0,0,1,.015.562a.864.864,0,0,1,.68.257,1,1,0,0,1,.211.69c0,.69-.326,1.055-.943,1.055" transform="translate(914.659 1331.004)" fill="#fff"/>
    <path id="Trazado_51" data-name="Trazado 51" d="M0,0C0,.759-.367.759-.487.759c-.38,0-.46-.413-.46-.759V-1.8h-.572V-.008c0,.85.373,1.338,1.021,1.338C.182,1.33.571.836.571-.025V-1.8H0Z" transform="translate(908.361 1337.42)" fill="#fff"/>
    <path id="Trazado_52" data-name="Trazado 52" d="M0,0A.79.79,0,0,0,.274-.605a.755.755,0,0,0-.253-.6,1.063,1.063,0,0,0-.764-.236,2.911,2.911,0,0,0-.616.062l-.1.023v3l.106.016a3.468,3.468,0,0,0,.517.034,1.25,1.25,0,0,0,.951-.3A.948.948,0,0,0,.367.725.845.845,0,0,0,0,0M-.717-.234H-.888V-.883c.046,0,.1-.006.163-.006.428,0,.428.233.428.321,0,.206-.161.334-.42.334M-.74,1.129c-.058,0-.107,0-.148,0V.315h.145c.2,0,.523.053.523.405s-.282.409-.52.409" transform="translate(911.987 1337.062)" fill="#fff"/>
    <path id="Trazado_53" data-name="Trazado 53" d="M0,0V17.111A7.347,7.347,0,0,1-7.462,15.9,9.825,9.825,0,0,1-9.249,3.217,7.6,7.6,0,0,1,0,0" transform="translate(921.623 1316.851)" fill="#fff"/>
    <path id="Trazado_54" data-name="Trazado 54" d="M0,0A8.193,8.193,0,0,1-3.83,3.216V-13.9a7.779,7.779,0,0,1,2.043,1.211A9.828,9.828,0,0,1,0,0" transform="translate(925.452 1330.746)" fill="#331642"/>
    <path id="Trazado_56" data-name="Trazado 56" d="M0,0-1.245,1.924-2.683.75l1.245-1.924Z" transform="translate(927.693 1331.106)" fill="#331642"/>
    <path id="Trazado_57" data-name="Trazado 57" d="M0,0,8.507,6.946a1.335,1.335,0,0,1-2.07.443L-.9,1.4Z" transform="translate(927.07 1332.067)" fill="#331642"/>
    <path id="Trazado_58" data-name="Trazado 58" d="M0,0,7.341,5.993A1.763,1.763,0,0,1,7.6,8.341L-.9,1.4Z" transform="translate(927.973 1330.672)" fill="#331642"/>
    <path id="Trazado_59" data-name="Trazado 59" d="M0,0,11.172,9.122A1.334,1.334,0,0,1,9.1,9.565L-.9,1.4Z" transform="translate(927.07 1332.067)" fill="#331642"/>
    <path id="Trazado_60" data-name="Trazado 60" d="M0,0,10.006,8.169a1.763,1.763,0,0,1,.263,2.348L-.9,1.4Z" transform="translate(927.973 1330.672)" fill="#331642"/>
    <path id="Trazado_61" data-name="Trazado 61" d="M0,0C-3.916-3.2-9.4-2.223-12.246,2.176a10.836,10.836,0,0,0-1.29,8.68,10.517,10.517,0,0,0,.811,2.081,9.5,9.5,0,0,0,2.415,2.994c3.917,3.2,9.4,2.224,12.247-2.176A10.655,10.655,0,0,0,0,0M.614,12.675a6.641,6.641,0,0,1-9.961,1.77,7.415,7.415,0,0,1-1.179-1.211,7.988,7.988,0,0,1-1.059-1.807,8.841,8.841,0,0,1,.663-8.171A6.638,6.638,0,0,1-.962,1.487,8.667,8.667,0,0,1,.614,12.675" transform="translate(924.067 1317.442)" fill="#331642"/>
    <path id="Trazado_63" data-name="Trazado 63" d="M0,0H.817V-3.578H1.911v-.834h-3v.834H0Z" transform="translate(914.579 1325.305)" fill="#fff"/>
    <path id="Trazado_64" data-name="Trazado 64" d="M0,0V3.488A8.029,8.029,0,0,1-1.06,1.681h.243V0Z" transform="translate(913.542 1327.188)" fill="#fff"/>
    <path id="Trazado_65" data-name="Trazado 65" d="M0,0H.739V-4.413H-.046v1.878c0,.273,0,.529.008.78-.088-.173-.183-.35-.286-.533l-1.2-2.125H-2.3V0h.785V-1.914c0-.314,0-.586-.007-.838.1.191.208.4.333.62Z" transform="translate(917.842 1331.601)" fill="#fff"/>
    <path id="Trazado_66" data-name="Trazado 66" d="M5.115-.447h193.82V-140.154H5.115Z" transform="translate(749 1373.202)" fill="none" stroke="#afb0b3" stroke-width="0.894"/>
    <path id="Trazado_68" data-name="Trazado 68" d="M0,0H183.512" transform="translate(758.508 1301.91)" fill="none" stroke="#afb0b3" stroke-width="0.894"/>
    <path id="Trazado_69" data-name="Trazado 69" d="M0,0V61.164" transform="translate(812.497 1239.937)" fill="none" stroke="#afb0b3" stroke-width="0.894"/>
    <path id="Trazado_70" data-name="Trazado 70" d="M0,0V61.164" transform="translate(876.058 1239.937)" fill="none" stroke="#afb0b3" stroke-width="0.894"/>
    <path id="Trazado_71" data-name="Trazado 71" d="M0,0V64.762" transform="translate(804.073 1301.91)" fill="none" stroke="#afb0b3" stroke-width="0.894"/>
    <path id="Trazado_72" data-name="Trazado 72" d="M0,0V64.762" transform="translate(852.141 1301.91)" fill="none" stroke="#afb0b3" stroke-width="0.894"/>
    <path id="Trazado_73" data-name="Trazado 73" d="M0,0V64.762" transform="translate(896.336 1301.91)" fill="none" stroke="#afb0b3" stroke-width="0.894"/>
  </g>
</svg>
