<svg xmlns="http://www.w3.org/2000/svg" width="154.73" height="530.127" viewBox="0 0 154.73 530.127">
  <g id="Grupo_1" data-name="Grupo 1" transform="translate(-1203 -1351.268)">
    <path id="Trazado_1" data-name="Trazado 1" d="M0,0C0,9.972-33.871,18.054-75.656,18.054S-151.312,9.972-151.312,0s33.873-18.051,75.656-18.051S0-9.968,0,0" transform="translate(1357.73 1863.34)" fill="#9a9b9f"/>
    <path id="Trazado_2" data-name="Trazado 2" d="M3.418,59.859H154.729V23.753H3.418Z" transform="translate(1203 1821.536)" fill="none"/>
    <rect id="Rect치ngulo_1" data-name="Rect치ngulo 1" width="151.312" height="36.106" transform="translate(1206.418 1845.288)" fill="none"/>
    <path id="Trazado_3" data-name="Trazado 3" d="M0,0C-1.593,5.806-3.529,9.106-1.024,11.155S.956,21.964.732,26.287s-13.48.913-13.48.913A224.655,224.655,0,0,1-10.584-.568C-7.737-.568,0,0,0,0" transform="translate(1218.724 1631.02)" fill="#ffa57a"/>
    <path id="Trazado_4" data-name="Trazado 4" d="M0,0C.076,6.98-1.6,16.616-.077,19.194S8.571,33.231,9.787,32.929s.455-3.036.455-3.036c2.431,2.579,5.461,4.1,4.7-2.883-1.972-4.854-3.34-6.827-3.34-8.043,3.794,5.618,4.1,8.5,5.614,8.346S15.856,20.029,13.883,17s0-13.505-1.061-16.845S0,0,0,0" transform="translate(1206.481 1646.307)" fill="#ffa57a"/>
    <path id="Trazado_5" data-name="Trazado 5" d="M0,0C.143-.1,1.151,1.23,1.92,3.777,2.35,5.018,2.662,6.587,3.3,8.1a12.029,12.029,0,0,0,1.242,2.281,5.248,5.248,0,0,0,.838.963,1.359,1.359,0,0,0,.216.163c.05.036.034.021.042.025s.015,0,.015-.01a4.4,4.4,0,0,0,.1-1A16.08,16.08,0,0,0,5.662,8.8a34.126,34.126,0,0,0-.568-3.519c-.117-.567-.248-1.121-.387-1.661s-.29-1.032-.42-1.646a19.441,19.441,0,0,1,.137-5.949A7.4,7.4,0,0,0,4.1-7.591c-.329-.8-.662-1.2-.554-1.3.054-.06.556.183,1.126,1A6.833,6.833,0,0,1,5.6-3.922a22.433,22.433,0,0,0,.183,5.554,36.623,36.623,0,0,1,1.534,7A15.43,15.43,0,0,1,7.4,10.556a7.444,7.444,0,0,1-.086,1.009A2.748,2.748,0,0,1,6.69,12.9a1.519,1.519,0,0,1-1.356.243,2.636,2.636,0,0,1-1.009-.606,6.5,6.5,0,0,1-1.066-1.288A12.43,12.43,0,0,1,1.972,8.616,35.542,35.542,0,0,1,.895,4.047C.429,1.519-.2.112,0,0" transform="translate(1210.644 1652.53)" fill="#db7f56"/>
    <path id="Trazado_6" data-name="Trazado 6" d="M0,0C.791,25.318.022,124.611,2,133.709s15.43,26.5,12.66,30.459S-5.913,149.926-9.474,139.247-24.5,9.1-24.5,9.1Z" transform="translate(1307.845 1709.892)" fill="#ffa57a"/>
    <path id="Trazado_7" data-name="Trazado 7" d="M0,0C15.033,24.328,25.021,28.777,20.668,16.121c0,0,9.792,15.326,5.043,15.722-3.306.275-12.955-6.22-20.012-16.876l.234,4.119L3.165,16.712S1.911,10.85,1.156,6.395C.231,3.806-.313,1.012,0,0" transform="translate(1297.186 1843.998)" fill="#151227"/>
    <path id="Trazado_8" data-name="Trazado 8" d="M0,0C0,15.428-1.187,123.72-2.077,126.391S-18.4,145.775-36.2,144.588c-4.746-1.186,16.614-15.824,21.067-22.351,1.483-22.252-9.2-110.962-10.386-126.093S0,0,0,0" transform="translate(1260.175 1713.452)" fill="#ffa57a"/>
    <path id="Trazado_9" data-name="Trazado 9" d="M0,0C.987,4.153.839,8.209-2.918,22.448a6.449,6.449,0,0,1-2.968.594c-.077-3.5.743-5.784.891-10.382-10.68,8.008-12.313,13.5-26.059,13.646-5.766.063-13.053.99,0-8.308C-32.045,24.921-17.013,19.78,0,0" transform="translate(1258.79 1833.711)" fill="#151227"/>
    <path id="Trazado_10" data-name="Trazado 10" d="M0,0C7.12-6.528,17.209-8.7,31.054-4.153S54-3.165,61.91-3.56,81.49-2.176,86.236-1.385c13.847-8.9,1.582-63.69.792-68.238s-49.052-33.23-57.359-30.856-16.416,0-19.384,3.56.79,40.944-7.516,52.217S-12.661-13.251,0,0" transform="translate(1230.084 1462.717)" fill="#301712"/>
    <path id="Trazado_11" data-name="Trazado 11" d="M0,0C-.791,11.868-18.939,40.077-1.533,51.549-.346,44.43,3.215,37.507,11.522,40.87s17.8-.4,20.569-4.946C44.356,14.562,36.244-.471,28.73-10.359S18.642-36.27,18.642-36.27L2.819-17.876" transform="translate(1304.602 1426.001)" fill="#612715"/>
    <path id="Trazado_12" data-name="Trazado 12" d="M0,0C-8.9-15.428-36.591-6.723-34.809,6.925s12.261,25.91.788,38.964S-53.6,77.931-44.109,89.6s7.122,12.266,5.343,14.44c12.857-4.746,13.053-10.878,5.539-27.1S-19,43.76-19.187,25.714C-19.385,6.726-12.855.99,0,0" transform="translate(1261.73 1370.346)" fill="#612715"/>
    <path id="Trazado_13" data-name="Trazado 13" d="M0,0C1.887,8.626,2.483,16.7.861,23.66a30.548,30.548,0,0,0,2.3-11.2C3-3.469,7.57-10.071,16.638-12.366,6.964-14.518-2.594-11.86,0,0" transform="translate(1239.38 1383.599)" fill="#321b12"/>
    <path id="Trazado_14" data-name="Trazado 14" d="M0,0C-6.329,3.363-20.371,2.176-24.725.4-28.086-18.4-47.667-158.235-47.667-158.235s-5.145,151.7-5.342,154.87c-8.308,4.749-19.581.6-21.558-1.778C-76.745-21.363-80.9-107.8-82.083-125.4s2.966-58.153,3.955-72,7.121-36.79,7.121-36.79a157.272,157.272,0,0,0,46.282-.2C-11.868-215.6.2-11.868,0,0" transform="translate(1314.658 1803.252)" fill="#b9c0b7"/>
    <path id="Trazado_15" data-name="Trazado 15" d="M0,0C-5.192-3.71-25.664-6.825-40.5,0c-12.607,9.493-8.01,10.829-7.267,10.976S2.226,16.318,2.226,16.318" transform="translate(1299.128 1480.403)" fill="#f3a5ae"/>
    <path id="Trazado_16" data-name="Trazado 16" d="M0,0C-1.384,15.823-5.143,39.212,10.683,48.508,4.749,71.651-32.489,76.6-32.489,76.6s-7.711-26.7-4.351-32.044c12.66-2.77,12.067-15.528,12.662-33.13C-21.212,4.895,0,0,0,0" transform="translate(1293.045 1440.053)" fill="#ffa57a"/>
    <path id="Trazado_17" data-name="Trazado 17" d="M0,0C2.434-5.952,2.378-14.594,2.728-24.9c2.966-6.528,24.178-11.423,24.178-11.423-.628,7.2-1.745,15.96-1.291,24.25A55.735,55.735,0,0,1,0,0" transform="translate(1266.14 1476.381)" fill="#db7f56"/>
    <path id="Trazado_18" data-name="Trazado 18" d="M63.139-345.155H90.045v-36.327H63.139Z" transform="translate(1203 1821.536)" fill="none"/>
    <rect id="Rect치ngulo_2" data-name="Rect치ngulo 2" width="26.906" height="36.328" transform="translate(1266.14 1440.053)" fill="none"/>
    <path id="Trazado_19" data-name="Trazado 19" d="M0,0C-6.529,10.088-21.682,73-17.922,81.7c-25.12.988-38.242,0-38.242,0-6.725-24.526-11.314-71.5,14.6-88.31-1.979,10.681.591,21.707,3.56,23.488C-29.3,14.7-2.77-2.374,0,0" transform="translate(1300.346 1489.682)" fill="#151227"/>
    <path id="Trazado_20" data-name="Trazado 20" d="M0,0C1.483,18.691,1.187,29.966-2.077,44.5c-1.485,6.527-.593,16.02,22.251,29.372C23.586,75.508,58.3,67.349,62.9,38.866,67.637,9.512,58.15-13.944,40.349-17.5S1.483-18.988,0,0" transform="translate(1242.164 1387.984)" fill="#ffa57a"/>
    <path id="Trazado_21" data-name="Trazado 21" d="M0,0C5.046-7.764,14.835-1.977,11.671,6.329,8.4,14.931.3,15.972-4,11.521A32.162,32.162,0,0,1,0,0" transform="translate(1306.246 1415.18)" fill="#ffa57a"/>
    <path id="Trazado_22" data-name="Trazado 22" d="M0,0C-.247-.043-.388-1.5.345-3.791A8.44,8.44,0,0,1,2.715-7.41,8.944,8.944,0,0,1,7.64-9.478a26.942,26.942,0,0,1,5-.013,24.953,24.953,0,0,0,3.774.066c2.055-.152,2.889-1.292,3.169-1.107.061.04.069.149.016.328a1.9,1.9,0,0,1-.378.713A4.65,4.65,0,0,1,16.7-7.951c-2.409.692-5.632.217-8.793.581A7.911,7.911,0,0,0,3.964-5.9,8.385,8.385,0,0,0,1.72-3.185C.734-1.3.322.069,0,0" transform="translate(1277.616 1421.361)" fill="#010306"/>
    <path id="Trazado_23" data-name="Trazado 23" d="M0,0A6.679,6.679,0,0,1,1.79,4.663c0,3.359-2.193,6.082-4.9,6.082S-8,8.022-8,4.663A6.741,6.741,0,0,1-6.339.129C-4.227.037-2.114,0,0,0" transform="translate(1290.071 1412.693)" fill="#010306"/>
    <path id="Trazado_24" data-name="Trazado 24" d="M0,0C-.069.183-1.489.022-3.666-.942a6.719,6.719,0,0,1-1.7-1.136A2.829,2.829,0,0,1-6.114-3.2a2.309,2.309,0,0,1,.041-1.578,5.9,5.9,0,0,1,1.71-2.1,4.361,4.361,0,0,0,1.453-1.6A9.506,9.506,0,0,0-2.4-12.858c-.08-1.454-.256-2.785-.389-3.905C-3.066-19-3.2-20.42-2.969-20.472s.755,1.269,1.337,3.492a29.78,29.78,0,0,1,.76,3.995,9.839,9.839,0,0,1-.543,5.231A4.861,4.861,0,0,1-2.3-6.491c-.395.379-.719.614-1.015.856A5.062,5.062,0,0,0-4.657-4.2c-.432.7.686,1.68,1.569,2.231C-1.227-.825.094-.242,0,0" transform="translate(1265.998 1433.776)" fill="#db7f56"/>
    <path id="Trazado_25" data-name="Trazado 25" d="M0,0C-.7,1.5-1.816,2.49-3.085,2.49c-2.118,0-3.84-2.724-3.84-6.083A7.572,7.572,0,0,1-5.318-8.521C-2.11-6.682-.716-3.493,0,0" transform="translate(1257.197 1421.247)" fill="#010306"/>
    <path id="Trazado_26" data-name="Trazado 26" d="M0,0C.172-.11-.122-.937-1.189-1.749A7.693,7.693,0,0,0-6.032-3.172a6.662,6.662,0,0,0-4.7,1.967c-.9,1.017-1.014,1.867-.84,1.947.229.127.709-.457,1.614-1.061a7.623,7.623,0,0,1,3.98-1.192A9.958,9.958,0,0,1-1.79-.739C-.768-.313-.2.153,0,0" transform="translate(1255.069 1401.927)" fill="#301712"/>
    <path id="Trazado_27" data-name="Trazado 27" d="M0,0C-5.636,9.495-21.761,25.62-21.462,4.054-20.176,3.463,0,0,0,0" transform="translate(1279.348 1439.905)" fill="#ff4a30"/>
    <path id="Trazado_28" data-name="Trazado 28" d="M0,0C-7.614,2.176-18.69.2-25.217.2c4.943,3.858,6.329,12.858,7.812,13.055C-12.658,13.252-5.044,6.528,0,0" transform="translate(1279.644 1439.213)" fill="#fff"/>
    <path id="Trazado_29" data-name="Trazado 29" d="M0,0C-5.241,1.385-20.67-3.263-27.294-.3-22.647.89-5.538,3.362,0,0" transform="translate(1279.15 1439.115)" fill="#ff4a30"/>
    <path id="Trazado_30" data-name="Trazado 30" d="M0,0C.131-.423,1.522-.36,2.913.443a5.129,5.129,0,0,1,1.6,1.289c.344.418.475.759.332.938C4.533,3.049,3.388,2.6,2.114,1.9.845,1.164-.148.452,0,0" transform="translate(1277.172 1438.422)" fill="#db7f56"/>
    <path id="Trazado_31" data-name="Trazado 31" d="M0,0C-.309.043-.663-1.037-1.255-2.66c-.6-1.565-1.51-3.932-3.522-4.623-2.067-.7-4.71.12-6.766-.588A3.042,3.042,0,0,1-13.424-9.5c-.223-.532-.179-.857-.06-.911.3-.174.874.95,2.3,1.079a14.061,14.061,0,0,0,2.881-.2,9.487,9.487,0,0,1,4.229.237,5.924,5.924,0,0,1,3.3,3.033A10.31,10.31,0,0,1,.2-3.029C.452-1.174.271-.035,0,0" transform="translate(1257.22 1421.139)" fill="#010306"/>
    <path id="Trazado_32" data-name="Trazado 32" d="M0,0C12.164-.3,41.092-1.336,47.469-16.467c-7.861-31.3-16.91-80.7-37.381-117.194-2.524-7.566,12.016-26.406,17.355-42.427,5.193-17.652,8.805-35.75,8.408-36.343-2.176-2.077-22.055-6.38-22.055-6.38s-23.291,14.835-25.962,36.2.3,61.266,3.413,89.305S-6.527-10.088,0,0" transform="translate(1289.783 1706.927)" fill="#ff9027"/>
    <path id="Trazado_33" data-name="Trazado 33" d="M0,0C5.736,4.549,11.747,6.719,11.695,7.343,10.855,17.677,1.187,27.692,0,28.681a145.6,145.6,0,0,0-14.438,4.153c8.7,5.24,6.923,5.734,6.923,5.734-8.308,7.122-15.23,28.879-14.241,48.46C-26.9,54.2-31.745,43.81-1.583,6.725A7.93,7.93,0,0,0,0,0" transform="translate(1298.93 1480.255)" fill="#e2791f"/>
    <path id="Trazado_34" data-name="Trazado 34" d="M0,0C-10.781,8.358-8.31,45.493-17.408,67.25s-16.811,62.7-16.811,67.054c7.913,6.725,17.8,4.748,20.571,1.582C-5.34,112.941,2.769,70.811,5.143,56.965,1.679,36.692,0,0,0,0" transform="translate(1237.219 1496.67)" fill="#f27b21"/>
    <path id="Trazado_35" data-name="Trazado 35" d="M0,0C6.495,21.685-4.894,117.934,4.3,148.2c-7.419,1.189-18.249-7.713-19.732-10.681S-9.491,24.774-6.525,6.677-17.947-23.142-9.641-54.591c6.527-5.34,6.083-1.632,6.083-1.632S-8.305-27.74,0,0" transform="translate(1244.684 1555.762)" fill="#ff9027"/>
    <path id="Trazado_36" data-name="Trazado 36" d="M0,0C-11.076,10.88-27.542,26.5-17.257,77.734-28.138,58.943-30.905,32.241-30.905,32.241s5.338-5.737,6.13-5.737c-3.955-2.967-6.328-4.152-5.735-5.537S-9.717-1.038,0,0" transform="translate(1262.191 1479.067)" fill="#e2791f"/>
    <path id="Trazado_37" data-name="Trazado 37" d="M0,0A117.639,117.639,0,0,1-8.6-9.346c-4.452,9.346-7.714,27-7.121,31.3C-12.757,31.745.446,37.235,4.894,33.823,8.9,26.555,9.049,8.456,9.049,8.456S2.967,2.969,0,0" transform="translate(1301.501 1621.479)" fill="#f27b21"/>
    <path id="Trazado_38" data-name="Trazado 38" d="M0,0C-4.254,1.088-15.524-7.42-13.648-12.265-9.889-14.539,2.277-11.178,0,0" transform="translate(1322.666 1619.897)" fill="#f27b21"/>
    <path id="Trazado_39" data-name="Trazado 39" d="M0,0C-5.043,6.083-5.787,10.782-11.273,9.1c-4.967-1.522-7.861,7.616-14.537,8.653-2.226,1.039-.1,4.1,1.285,3.808s8.8-3.659,8.8-3.659a17.446,17.446,0,0,0,9.347,6.675C1.04,18.5,7.419,7.666,7.419,7.666Z" transform="translate(1316.928 1605.358)" fill="#ffa57a"/>
    <path id="Trazado_40" data-name="Trazado 40" d="M0,0C.79,1.781,29.469,70.412,28.68,81.49S5.538,118.873-2.969,125.4c-1.979-9.99-13.647-12.265-13.647-12.265C-9.495,102.258,4.549,82.676,5.538,76.544s-16.079-36.95-17.209-39.359C-22.154,14.834-.791-1.78,0,0" transform="translate(1325.634 1494.496)" fill="#e2791f"/>
    <path id="Trazado_41" data-name="Trazado 41" d="M0,0C-.2,5.934.4,25.714-.791,28.285S-8.307,36.592-9.3,36.2-9.888,9.3-9.888,9.3Z" transform="translate(1241.767 1614.359)" fill="#f27b21"/>
    <path id="Trazado_42" data-name="Trazado 42" d="M0,0C-.114-.019-.129-.444-.06-1.206c.035-.382.091-.848.167-1.389C.2-3.129.345-3.723.5-4.386a75.591,75.591,0,0,1,3.261-10.06c2.988-7.7,6.381-13.508,6.776-13.294.414.218-2.267,6.279-5.228,13.9-1.481,3.808-2.812,7.26-3.682,9.782-.227.628-.434,1.2-.617,1.7-.156.5-.3.936-.433,1.289C.313-.367.115.019,0,0" transform="translate(1294.973 1583.502)" fill="#f27b21"/>
    <path id="Trazado_43" data-name="Trazado 43" d="M0,0C2.571,13.45,4.549,26.9,18.791,31.25s28.285-.2,27.692,2.968-3.093,14.363.073,15.155c4.154-4.945,4.209-6.219,6.255-8.429,3.388-3.66,15.031-3.165,14.834-13.254S63.492-2.77,55.382-4.352,37.976-6.922,30.265-15.23.593-23.143-5.935-5.342C-3.165-6.925-.2-1.98,0,0" transform="translate(1257.378 1371.733)" fill="#612715"/>
    <path id="Trazado_44" data-name="Trazado 44" d="M0,0C.167.2,1.048-.354,2.562-.827a16.633,16.633,0,0,1,6.166-.566C13.667-1,17.5.633,17.7.2c.236-.364-3.479-2.809-8.853-3.246A12.726,12.726,0,0,0,2.115-1.913C.522-1.075-.132-.137,0,0" transform="translate(1275.293 1401.337)" fill="#301712"/>
    <path id="Trazado_45" data-name="Trazado 45" d="M0,0H154.73V-470.268H0Z" transform="translate(1203 1821.536)" fill="none"/>
  </g>
</svg>
