<?xml version="1.0" encoding="utf-8"?>
<!-- Generator: Adobe Illustrator 24.3.0, SVG Export Plug-In . SVG Version: 6.00 Build 0)  -->
<svg version="1.1" id="Layer_1" xmlns="http://www.w3.org/2000/svg" xmlns:xlink="http://www.w3.org/1999/xlink" x="0px" y="0px"
	 viewBox="0 0 244 296.3" style="enable-background:new 0 0 244 296.3;" xml:space="preserve">
<style type="text/css">
	.st0{fill:#A1B85A;}
	.st1{fill:#D9E887;}
	.st2{fill:#BBD371;}
	.st3{fill:#CCE081;}
	.st4{fill:#130729;}
	.st5{fill:#F4A67B;}
	.st6{fill:#CD8059;}
	.st7{fill:#37190D;}
	.st8{fill:#612A12;}
	.st9{fill:#381F0C;}
	.st10{fill:#BCBBB5;}
	.st11{fill:#EBA4A9;}
	.st12{opacity:0.5;}
	.st13{clip-path:url(#SVGID_2_);}
	.st14{clip-path:url(#SVGID_4_);fill:#CD8059;}
	.st15{fill:#EF4C38;}
	.st16{fill:#FFFFFF;}
	.st17{fill:#F7941D;}
	.st18{fill:#D27B18;}
	.st19{fill:#DF7F1B;}
	.st20{fill:none;}
</style>
<g>
	<path class="st0" d="M175,281.9c0,5.4-18.2,9.7-40.7,9.7c-22.5,0-40.7-4.4-40.7-9.7c0-5.4,18.2-9.7,40.7-9.7
		C156.7,272.2,175,276.6,175,281.9"/>
	<path class="st1" d="M22.7,149.6c-2.7-2-4.9-4.3-6.5-6.9C3.1,155,6.8,177.2,24,184.2l87.7,35.9l23,9.4l-39.1-27.9L22.7,149.6z"/>
	<path class="st1" d="M189.6,34.4c5.4-2.5,11-2.7,16-1.3c-7-13.1-24.8-18-37.6-8l-60.4,46.7l0.5-0.2L189.6,34.4z"/>
	<path class="st1" d="M233.8,229.3L221,135.4l-3.2-23.3l-3.4,35.3l-8.6,89.1c-0.8,7.8-5,14-10.8,17.7l4.3,1.8
		C217.3,263.3,236.4,248.5,233.8,229.3z"/>
	<path class="st2" d="M217.9,112.1l5.2-53.8c1.2-12.3-6.9-22.4-17.5-25.2c1.3,2.5,2.3,5.4,2.7,8.4L217.9,112.1z"/>
	<path class="st2" d="M93,83l14.6-11.3l-81,36.9c-13.6,6.2-17.5,22.5-10.4,34c0.6-0.6,1.2-1.1,1.9-1.6L93,83z"/>
	<path class="st2" d="M168.5,253.6c8.5,6.1,18.9,5.6,26.6,0.6l-60.4-24.7L168.5,253.6z"/>
	<path class="st1" d="M205.9,236.5l8.6-89.1l3.4-35.3l-9.6-70.6c-0.4-3.1-1.4-5.9-2.7-8.4c-5-1.4-10.6-1.1-16,1.3l-81.5,37.1
		l-0.5,0.2L93,83l-74.9,58c-0.7,0.5-1.3,1.1-1.9,1.6c1.6,2.6,3.8,5,6.5,6.9l72.9,52l39.1,27.9l60.4,24.7
		C200.9,250.5,205.1,244.3,205.9,236.5z"/>
	<path class="st3" d="M205.9,236.5l8.6-89.1l3.4-35.3l-9.6-70.6c-0.4-3.1-1.4-5.9-2.7-8.4c-5-1.4-10.6-1.1-16,1.3l-81.5,37.1
		l-0.5,0.2L93,83l-74.9,58c-0.7,0.5-1.3,1.1-1.9,1.6c1.6,2.6,3.8,5,6.5,6.9l72.9,52l39.1,27.9l60.4,24.7
		C200.9,250.5,205.1,244.3,205.9,236.5z"/>
	<path class="st4" d="M142.4,271.5c8.1,13.1,13.5,15.5,11.1,8.7c0,0,5.3,8.3,2.7,8.5c-1.8,0.1-7-3.3-10.8-9.1l0.1,2.2l-1.5-1.3
		c0,0-0.7-3.2-1.1-5.6C142.5,273.6,142.2,272.1,142.4,271.5"/>
	<path class="st4" d="M121.7,266c0.5,2.2,0.5,4.4-1.6,12.1c-0.7,0.4-1.6,0.3-1.6,0.3c0-1.9,0.4-3.1,0.5-5.6c-5.8,4.3-6.6,7.3-14,7.3
		c-3.1,0-7,0.5,0-4.5C104.4,279.4,112.5,276.6,121.7,266"/>
	<g>
		<path class="st5" d="M100.1,156.8c-0.9,3.1-1.9,4.9-0.6,6c1.3,1.1,1.1,5.8,0.9,8.1c-0.1,2.3-7.3,0.5-7.3,0.5s0-6.6,1.2-15
			C95.9,156.5,100.1,156.8,100.1,156.8"/>
		<path class="st5" d="M93.5,165.1c0,3.8-0.9,8.9,0,10.3c0.8,1.4,4.7,7.6,5.3,7.4c0.7-0.2,0.2-1.6,0.2-1.6c1.3,1.4,2.9,2.2,2.5-1.6
			c-1.1-2.6-1.8-3.7-1.8-4.3c2,3,2.2,4.6,3,4.5c0.8-0.1-0.7-3.9-1.8-5.6c-1.1-1.6,0-7.3-0.6-9.1C99.8,163.4,93.5,165.1,93.5,165.1"
			/>
		<path class="st6" d="M95.7,168.4c0.1-0.1,0.6,0.7,1,2c0.2,0.7,0.4,1.5,0.7,2.3c0.2,0.4,0.4,0.8,0.7,1.2c0.1,0.2,0.3,0.4,0.5,0.5
			c0,0,0.1,0.1,0.1,0.1c0,0,0,0,0,0c0,0,0,0,0,0c0,0.1,0.1-0.3,0.1-0.5c0-0.3,0-0.6,0-0.9c-0.1-0.6-0.2-1.3-0.3-1.9
			c-0.1-0.3-0.1-0.6-0.2-0.9c-0.1-0.3-0.2-0.6-0.2-0.9c-0.3-1.3,0-2.4,0.1-3.2c0.1-0.9,0-1.5-0.2-1.9c-0.2-0.4-0.4-0.6-0.3-0.7
			c0,0,0.3,0.1,0.6,0.5c0.3,0.4,0.5,1.2,0.5,2.1c0,0.9-0.2,2,0.1,3c0.3,1.1,0.7,2.4,0.8,3.8c0,0.3,0.1,0.7,0,1c0,0.2,0,0.4,0,0.5
			c0,0.2-0.1,0.5-0.3,0.7c-0.2,0.2-0.5,0.2-0.7,0.1c-0.1-0.1-0.3-0.1-0.3-0.2c-0.1-0.1-0.1-0.1-0.2-0.2c-0.2-0.2-0.4-0.5-0.6-0.7
			c-0.3-0.5-0.5-1-0.7-1.4c-0.3-1-0.4-1.8-0.6-2.5C96,169.2,95.6,168.5,95.7,168.4"/>
		<path class="st5" d="M148.1,199.3c0.4,13.6,0,67.1,1.1,72c1.1,4.9,8.3,14.3,6.8,16.4c-1.5,2.1-11.1-7.7-13-13.4
			c-1.9-5.8-8.1-70.1-8.1-70.1L148.1,199.3z"/>
		<path class="st5" d="M122.4,201.2c0,8.3-0.6,66.6-1.1,68.1c-0.5,1.4-8.8,10.4-18.4,9.8c-2.6-0.6,8.9-8.5,11.3-12
			c0.8-12-5-59.8-5.6-67.9C108,191,122.4,201.2,122.4,201.2"/>
		<path class="st7" d="M106.2,66.2c3.8-3.5,9.3-4.7,16.7-2.2c7.5,2.4,12.4,0.5,16.6,0.3c4.3-0.2,10.5,0.7,13.1,1.2
			c7.5-4.8,0.9-34.3,0.4-36.7c-0.4-2.4-26.4-17.9-30.9-16.6c-4.5,1.3-8.8,0-10.4,1.9c-1.6,1.9,0.4,22-4,28.1
			C103.2,48.2,99.4,59.1,106.2,66.2"/>
		<path class="st8" d="M146.3,46.4c-0.4,6.4-10.2,21.6-0.8,27.8c0.6-3.8,2.6-7.6,7-5.8c4.5,1.8,9.6-0.2,11.1-2.7
			c6.6-11.5,2.2-19.6-1.8-24.9c-4-5.3-5.4-14-5.4-14l-8.5,9.9"/>
		<path class="st8" d="M123.3,16.5c-4.8-8.3-19.7-3.6-18.7,3.7c1,7.3,6.6,14,0.4,21c-6.2,7-10.5,17.3-5.4,23.5
			c5.1,6.3,3.8,6.6,2.9,7.8c6.9-2.6,7-5.9,3-14.6c-4-8.7,7.7-17.9,7.6-27.6C112.8,20.1,116.3,17,123.3,16.5"/>
		<path class="st9" d="M111.2,23.6c1,4.6,1.3,9,0.5,12.7c0.8-2,1.3-4,1.2-6c-0.1-8.6,2.4-12.1,7.3-13.4
			C115,15.8,109.8,17.2,111.2,23.6"/>
		<path class="st10" d="M151.8,249.6c-3.4,1.8-11,1.2-13.3,0.2c-1.8-10.1-12.4-85.4-12.4-85.4s-2.8,81.7-2.9,83.4
			c-4.5,2.6-10.5,0.3-11.6-1c-1.2-8.7-3.4-55.3-4-64.8c-0.6-9.5,1.6-31.3,2.1-38.8c0.5-7.5,3.8-19.8,3.8-19.8s11.8,2,24.9-0.1
			C145.4,133.5,151.9,243.2,151.8,249.6"/>
		<path class="st11" d="M143.4,75.7c-2.8-2-13.8-3.7-21.8,0c-6.8,5.1-4.3,5.8-3.9,5.9c0.4,0.1,26.9,2.9,26.9,2.9"/>
		<path class="st5" d="M140.1,54c-0.7,8.5-2.8,21.1,5.8,26.1c-3.2,12.5-23.2,15.1-23.2,15.1s-4.2-14.4-2.3-17.3
			c6.8-1.5,6.5-8.4,6.8-17.8C128.7,56.6,140.1,54,140.1,54"/>
		<g class="st12">
			<g>
				<defs>
					<rect id="SVGID_1_" x="125.6" y="54" width="14.5" height="19.6"/>
				</defs>
				<clipPath id="SVGID_2_">
					<use xlink:href="#SVGID_1_"  style="overflow:visible;"/>
				</clipPath>
				<g class="st13">
					<defs>
						<rect id="SVGID_3_" x="125.6" y="54" width="14.5" height="19.6"/>
					</defs>
					<clipPath id="SVGID_4_">
						<use xlink:href="#SVGID_3_"  style="overflow:visible;"/>
					</clipPath>
					<path class="st14" d="M125.6,73.6c1.3-3.2,1.3-7.9,1.5-13.4c1.6-3.5,13-6.2,13-6.2c-0.3,3.9-0.9,8.6-0.7,13.1
						C134.6,71.1,128.8,73.1,125.6,73.6"/>
				</g>
			</g>
		</g>
		<path class="st4" d="M144.1,80.7c-3.5,5.4-11.7,39.3-9.7,44c-13.5,0.5-20.6,0-20.6,0c-3.6-13.2-6.1-38.5,7.9-47.6
			c-1.1,5.8,0.3,11.7,1.9,12.6C128.3,88.6,142.6,79.4,144.1,80.7"/>
		<path class="st5" d="M112.7,26c0.8,10.1,0.6,16.1-1.1,24c-0.8,3.5-0.3,8.6,12,15.8c1.8,0.9,20.5-3.5,23-18.9
			c2.6-15.8-2.6-28.4-12.1-30.4C124.9,14.6,113.5,15.7,112.7,26"/>
		<path class="st5" d="M147.2,40.6c2.7-4.2,8-1.1,6.3,3.4c-1.8,4.6-6.1,5.2-8.4,2.8C145.5,43.4,147.2,40.6,147.2,40.6"/>
		<path d="M131.8,43.9c-0.1,0-0.2-0.8,0.2-2c0.2-0.6,0.6-1.3,1.3-1.9c0.7-0.6,1.7-1,2.7-1.1c1-0.1,1.9-0.1,2.7,0
			c0.8,0.1,1.5,0.1,2,0c1.1-0.1,1.6-0.7,1.7-0.6c0,0,0,0.1,0,0.2c0,0.1-0.1,0.2-0.2,0.4c-0.2,0.3-0.7,0.7-1.4,0.8
			c-1.3,0.4-3,0.1-4.7,0.3c-0.8,0.1-1.6,0.4-2.1,0.8c-0.6,0.4-0.9,1-1.2,1.5C132.2,43.2,132,44,131.8,43.9"/>
		<path d="M138.5,39.3c0.6,0.6,1,1.5,1,2.5c0,1.8-1.2,3.3-2.6,3.3c-1.5,0-2.6-1.5-2.6-3.3c0-1,0.4-1.8,0.9-2.4
			C136.2,39.3,137.4,39.3,138.5,39.3"/>
		<path class="st6" d="M125.6,50.6c0,0.1-0.8,0-2-0.5c-0.3-0.1-0.6-0.3-0.9-0.6c-0.2-0.1-0.3-0.3-0.4-0.6c-0.1-0.3-0.1-0.6,0-0.8
			c0.2-0.5,0.6-0.8,0.9-1.1c0.4-0.3,0.6-0.5,0.8-0.9c0.3-0.7,0.3-1.6,0.3-2.4c0-0.8-0.1-1.5-0.2-2.1c-0.2-1.2-0.2-2-0.1-2
			c0.1,0,0.4,0.7,0.7,1.9c0.2,0.6,0.3,1.3,0.4,2.2c0.1,0.8,0.2,1.8-0.3,2.8c-0.1,0.2-0.3,0.5-0.5,0.7c-0.2,0.2-0.4,0.3-0.5,0.5
			c-0.3,0.3-0.6,0.5-0.7,0.8c-0.2,0.4,0.4,0.9,0.8,1.2C124.9,50.2,125.6,50.5,125.6,50.6"/>
		<path d="M120.8,43.9c-0.4,0.8-1,1.3-1.7,1.3c-1.1,0-2.1-1.5-2.1-3.3c0-1.1,0.3-2.1,0.9-2.7C119.7,40.3,120.4,42,120.8,43.9"/>
		<path class="st7" d="M119.7,33.5c0.1-0.1-0.1-0.5-0.6-0.9c-0.6-0.4-1.5-0.8-2.6-0.8c-1.1,0-2.1,0.5-2.5,1.1c-0.5,0.5-0.5,1-0.5,1
			c0.1,0.1,0.4-0.2,0.9-0.6c0.5-0.3,1.2-0.6,2.1-0.6c0.9,0,1.7,0.2,2.3,0.4C119.3,33.3,119.6,33.5,119.7,33.5"/>
		<path class="st15" d="M132.7,53.9c-3,5.1-11.7,13.8-11.6,2.2C121.9,55.8,132.7,53.9,132.7,53.9"/>
		<path class="st16" d="M132.9,53.5c-4.1,1.2-10.1,0.1-13.6,0.1c2.7,2.1,3.4,6.9,4.2,7C126.1,60.7,130.2,57.1,132.9,53.5"/>
		<path class="st15" d="M132.6,53.5c-2.8,0.7-11.1-1.8-14.7-0.2C120.4,54,129.7,55.3,132.6,53.5"/>
		<path class="st6" d="M131.6,53.1c0.1-0.2,0.8-0.2,1.6,0.2c0.4,0.2,0.7,0.5,0.9,0.7c0.2,0.2,0.3,0.4,0.2,0.5
			c-0.2,0.2-0.8,0-1.5-0.4C132,53.7,131.5,53.4,131.6,53.1"/>
		<path d="M120.8,43.8c-0.2,0-0.4-0.6-0.7-1.4c-0.3-0.8-0.8-2.1-1.9-2.5c-1.1-0.4-2.5,0.1-3.6-0.3c-0.6-0.2-0.9-0.6-1-0.9
			c-0.1-0.3-0.1-0.5,0-0.5c0.2-0.1,0.5,0.5,1.2,0.6c0.4,0,0.9,0,1.6-0.1c0.6-0.1,1.4-0.2,2.3,0.1c0.9,0.3,1.5,1,1.8,1.6
			c0.3,0.6,0.5,1.2,0.5,1.7C121.1,43.2,121,43.8,120.8,43.8"/>
		<path class="st17" d="M138.4,197.7c6.6-0.2,22.1-0.7,25.6-8.9c-4.2-16.9-9.1-43.5-20.1-63.1c-1.4-4.1,6.5-14.2,9.3-22.8
			c2.8-9.5,4.7-19.3,4.5-19.6c-1.2-1.1-11.9-3.4-11.9-3.4s-12.5,8-14,19.5c-1.4,11.5,0.2,33,1.8,48.1
			C135.3,162.6,134.8,192.3,138.4,197.7"/>
		<path class="st18" d="M143.3,75.6c3.1,2.4,6.3,3.6,6.3,4c-0.5,5.6-5.7,11-6.3,11.5c-3.8,0.9-7.8,2.2-7.8,2.2
			c4.7,2.8,3.7,3.1,3.7,3.1c-4.5,3.8-8.2,15.6-7.7,26.1c-2.8-17.7-5.4-23.3,10.9-43.2C143.8,77.6,143.3,75.6,143.3,75.6"/>
		<path class="st19" d="M110.1,84.5c-5.8,4.5-4.5,24.5-9.4,36.2c-4.9,11.7-9.1,33.8-9.1,36.1c4.3,3.6,9.6,2.6,11.1,0.9
			c4.5-12.4,8.8-35,10.1-42.5C111,104.2,110.1,84.5,110.1,84.5"/>
		<path class="st17" d="M114.1,116.3c3.5,11.7-2.6,63.5,2.3,79.8c-4,0.6-9.8-4.2-10.6-5.8c-0.8-1.6,3.2-60.7,4.8-70.5
			c1.6-9.7-6.2-16.1-1.7-33c3.5-2.9,3.3-0.9,3.3-0.9S109.6,101.4,114.1,116.3"/>
		<path class="st18" d="M123.5,75c-6,5.9-14.8,14.3-9.3,41.9c-5.9-10.1-7.3-24.5-7.3-24.5s2.9-3.1,3.3-3.1c-2.1-1.6-3.4-2.2-3.1-3
			C107.4,85.6,118.3,74.4,123.5,75"/>
		<path class="st19" d="M144.7,151.7c-2-1.8-4.6-5-4.6-5c-2.4,5-4.2,14.5-3.8,16.9c1.6,5.3,8.7,8.2,11.1,6.4
			c2.2-3.9,2.2-13.7,2.2-13.7S146.3,153.3,144.7,151.7"/>
		<path class="st19" d="M156.1,150.8c-2.3,0.6-8.4-4-7.3-6.6C150.7,143,157.3,144.8,156.1,150.8"/>
		<path class="st5" d="M153,143c-2.7,3.3-3.1,5.8-6.1,4.9c-2.7-0.8-4.2,4.1-7.8,4.7c-1.2,0.6-0.1,2.2,0.7,2.1c0.7-0.2,4.7-2,4.7-2
			c2,2.9,5,3.6,5,3.6c4-3.3,7.4-9.1,7.4-9.1L153,143z"/>
		<path class="st18" d="M157.7,83.3c0.4,1,15.9,37.9,15.4,43.9c-0.4,6-12.5,20.1-17,23.6c-1.1-5.4-7.3-6.6-7.3-6.6
			c3.8-5.9,11.4-16.4,11.9-19.7c0.5-3.3-8.7-19.9-9.3-21.2C145.7,91.3,157.2,82.4,157.7,83.3"/>
		<path class="st19" d="M112.5,147.9c-0.1,3.2,0.2,13.8-0.4,15.2c-0.6,1.4-4,4.5-4.6,4.3s-0.3-14.5-0.3-14.5L112.5,147.9z"/>
		<path class="st19" d="M141.2,131.2c-0.1,0-0.1-0.2,0-0.6c0-0.2,0-0.5,0.1-0.7c0.1-0.3,0.1-0.6,0.2-1c0.3-1.4,1-3.3,1.8-5.4
			c1.6-4.1,3.4-7.3,3.6-7.2c0.2,0.1-1.2,3.4-2.8,7.5c-0.8,2.1-1.5,3.9-2,5.3c-0.1,0.3-0.2,0.6-0.3,0.9c-0.1,0.3-0.2,0.5-0.2,0.7
			C141.3,131,141.2,131.3,141.2,131.2"/>
		<path class="st8" d="M120.9,17.2c1.4,7.2,2.4,14.5,10.1,16.8c7.7,2.3,15.2-0.1,14.9,1.6c-0.3,1.7-1.7,7.7,0,8.2
			c2.2-2.7,2.3-3.3,3.4-4.5c1.8-2,8.1-1.7,8-7.1c-0.1-5.4-2.2-16.4-6.6-17.3c-4.4-0.9-9.4-1.4-13.5-5.9c-4.2-4.5-16-4.3-19.5,5.3
			C119.2,13.5,120.8,16.1,120.9,17.2"/>
		<path class="st7" d="M130.6,33.1c0.1,0.1,0.6-0.2,1.4-0.4c0.8-0.3,2-0.4,3.3-0.3c2.7,0.2,4.7,1.1,4.8,0.9c0.1-0.2-1.9-1.5-4.8-1.7
			c-1.4-0.1-2.8,0.2-3.6,0.6C130.8,32.6,130.5,33.1,130.6,33.1"/>
		<rect x="91.6" y="6.2" class="st20" width="83.3" height="253.3"/>
		<rect x="91.6" y="6.2" class="st20" width="83.3" height="253.3"/>
	</g>
</g>
</svg>
