<svg xmlns="http://www.w3.org/2000/svg" xmlns:xlink="http://www.w3.org/1999/xlink" width="87.163" height="87.232" viewBox="0 0 87.163 87.232">
  <defs>
    <clipPath id="clip-path">
      <path id="Trazado_173" data-name="Trazado 173" d="M0,0H87.163V-87.232H0Z" fill="none"/>
    </clipPath>
  </defs>
  <g id="Grupo_25" data-name="Grupo 25" transform="translate(0 87.232)">
    <g id="Grupo_24" data-name="Grupo 24" clip-path="url(#clip-path)">
      <g id="Grupo_23" data-name="Grupo 23" transform="translate(0.008 -43.044)">
        <path id="Trazado_172" data-name="Trazado 172" d="M0,0A42.673,42.673,0,0,0,9.576,26.612a42.48,42.48,0,0,0,26.357,15.65,48.59,48.59,0,0,0,8.152.74c13.784.07,27.567.032,41.353.029.426,0,.856-.062,1.285-.093.019-.092.041-.188.063-.28-5.228-3.1-10.455-6.2-15.786-9.356.685-.633,1.267-1.176,1.853-1.709A42.735,42.735,0,0,0,86.529,6.386,41.411,41.411,0,0,0,82.615-19.8C75.8-33.152,64.875-41.234,50.05-43.616a41.649,41.649,0,0,0-30.412,6.671A42.668,42.668,0,0,0,1.817-12.966,41.862,41.862,0,0,0,0,0M36.28,18.647a7.294,7.294,0,1,1,7.3,7.213,7.32,7.32,0,0,1-7.3-7.213m-.421-45.466a1.887,1.887,0,0,1,.434-.157c4.768-.011,9.532-.008,14.3-.029.665,0,.733.333.687.869-.135,1.572-.24,3.144-.354,4.716-.328,4.472-.641,8.942-.989,13.412-.213,2.731-.522,5.454-.706,8.185C49.06,2.752,49,5.334,48.884,8.024H38.42c-.858-11.688-1.712-23.279-2.561-34.843" fill="#20143b"/>
      </g>
    </g>
  </g>
</svg>
