<svg xmlns="http://www.w3.org/2000/svg" width="270.047" height="100.958" viewBox="0 0 270.047 100.958">
  <g id="Grupo_23" data-name="Grupo 23" transform="translate(-1341 -2488.958)">
    <path id="Trazado_182" data-name="Trazado 182" d="M0,0,.891.225A2.994,2.994,0,0,1-.116,1.9a2.781,2.781,0,0,1-1.78.576,3.192,3.192,0,0,1-1.77-.443A2.761,2.761,0,0,1-4.7.749a4.589,4.589,0,0,1-.357-1.805,3.965,3.965,0,0,1,.4-1.835,2.757,2.757,0,0,1,1.143-1.19,3.339,3.339,0,0,1,1.632-.406,2.757,2.757,0,0,1,1.7.514,2.667,2.667,0,0,1,.96,1.447L-.1-2.319a2.071,2.071,0,0,0-.68-1.07A1.807,1.807,0,0,0-1.9-3.725a2.177,2.177,0,0,0-1.3.372,1.969,1.969,0,0,0-.733,1,4.019,4.019,0,0,0-.212,1.293,4.1,4.1,0,0,0,.252,1.5,1.855,1.855,0,0,0,.777.958,2.188,2.188,0,0,0,1.144.317A1.912,1.912,0,0,0-.7,1.281,2.2,2.2,0,0,0,0,0" transform="translate(1395.696 2498.934)" fill="#20143b"/>
    <path id="Trazado_183" data-name="Trazado 183" d="M0,0A2.515,2.515,0,0,1,.753-2.007a2.271,2.271,0,0,1,1.534-.542,2.189,2.189,0,0,1,1.644.659A2.506,2.506,0,0,1,4.569-.069a3.231,3.231,0,0,1-.281,1.481,1.994,1.994,0,0,1-.822.838,2.4,2.4,0,0,1-1.179.3A2.19,2.19,0,0,1,.632,1.892,2.624,2.624,0,0,1,0,0M.85,0a2.08,2.08,0,0,0,.408,1.4,1.311,1.311,0,0,0,1.029.466A1.3,1.3,0,0,0,3.311,1.4,2.132,2.132,0,0,0,3.72-.028,2.017,2.017,0,0,0,3.31-1.4a1.31,1.31,0,0,0-1.023-.467A1.316,1.316,0,0,0,1.258-1.4,2.07,2.07,0,0,0,.85,0" transform="translate(1397.272 2498.856)" fill="#20143b"/>
    <path id="Trazado_184" data-name="Trazado 184" d="M0,0V-4.877H.739v.684A1.753,1.753,0,0,1,1.35-4.77a1.722,1.722,0,0,1,.868-.218,1.61,1.61,0,0,1,.89.225,1.2,1.2,0,0,1,.488.63A1.751,1.751,0,0,1,5.1-4.988a1.483,1.483,0,0,1,1.115.4,1.715,1.715,0,0,1,.391,1.238V0H5.787V-3.073a2.256,2.256,0,0,0-.08-.714.7.7,0,0,0-.292-.351.911.911,0,0,0-.5-.133,1.157,1.157,0,0,0-.855.342,1.509,1.509,0,0,0-.339,1.095V0H2.9V-3.169A1.4,1.4,0,0,0,2.7-4a.767.767,0,0,0-.661-.275,1.194,1.194,0,0,0-.645.184,1.038,1.038,0,0,0-.43.537A3.017,3.017,0,0,0,.827-2.531V0Z" transform="translate(1402.811 2501.295)" fill="#20143b"/>
    <path id="Trazado_185" data-name="Trazado 185" d="M0,0V-6.747H.753v.634a1.857,1.857,0,0,1,.6-.558,1.656,1.656,0,0,1,.813-.186,1.922,1.922,0,0,1,1.1.322,1.969,1.969,0,0,1,.721.907,3.313,3.313,0,0,1,.243,1.283A3.257,3.257,0,0,1,3.967-3a2.027,2.027,0,0,1-.781.919,2.007,2.007,0,0,1-1.078.319,1.558,1.558,0,0,1-.741-.174,1.708,1.708,0,0,1-.54-.441V0ZM.749-4.28A2.122,2.122,0,0,0,1.13-2.889a1.169,1.169,0,0,0,.923.45A1.2,1.2,0,0,0,3-2.9,2.216,2.216,0,0,0,3.39-4.349a2.157,2.157,0,0,0-.383-1.4,1.155,1.155,0,0,0-.917-.464,1.189,1.189,0,0,0-.934.493A2.212,2.212,0,0,0,.749-4.28" transform="translate(1410.646 2503.164)" fill="#20143b"/>
    <path id="Trazado_186" data-name="Trazado 186" d="M0,0A2.515,2.515,0,0,1,.753-2.007a2.272,2.272,0,0,1,1.534-.542,2.188,2.188,0,0,1,1.644.659A2.506,2.506,0,0,1,4.57-.069a3.217,3.217,0,0,1-.282,1.481,1.994,1.994,0,0,1-.822.838,2.4,2.4,0,0,1-1.179.3A2.19,2.19,0,0,1,.632,1.892,2.624,2.624,0,0,1,0,0M.85,0a2.08,2.08,0,0,0,.408,1.4,1.311,1.311,0,0,0,1.029.466A1.306,1.306,0,0,0,3.312,1.4,2.133,2.133,0,0,0,3.72-.028,2.012,2.012,0,0,0,3.31-1.4a1.31,1.31,0,0,0-1.023-.467A1.316,1.316,0,0,0,1.258-1.4,2.07,2.07,0,0,0,.85,0" transform="translate(1415.569 2498.856)" fill="#20143b"/>
    <path id="Trazado_187" data-name="Trazado 187" d="M0,0V-4.877H.744v.693a1.754,1.754,0,0,1,1.552-.8,2.039,2.039,0,0,1,.812.159,1.277,1.277,0,0,1,.553.415,1.606,1.606,0,0,1,.257.611,4.8,4.8,0,0,1,.046.8V0H3.137V-2.967a2.233,2.233,0,0,0-.1-.755.8.8,0,0,0-.342-.4,1.1,1.1,0,0,0-.577-.149,1.341,1.341,0,0,0-.911.335A1.658,1.658,0,0,0,.827-2.664V0Z" transform="translate(1421.107 2501.295)" fill="#20143b"/>
    <path id="Trazado_188" data-name="Trazado 188" d="M0,0,.854.106A2.085,2.085,0,0,1,.1,1.268a2.252,2.252,0,0,1-1.4.413,2.231,2.231,0,0,1-1.7-.659A2.576,2.576,0,0,1-3.615-.827a2.7,2.7,0,0,1,.634-1.91,2.148,2.148,0,0,1,1.645-.68,2.087,2.087,0,0,1,1.6.666A2.648,2.648,0,0,1,.882-.877c0,.049,0,.122-.005.22H-2.76A1.874,1.874,0,0,0-2.306.574,1.354,1.354,0,0,0-1.286,1,1.259,1.259,0,0,0-.51.762,1.575,1.575,0,0,0,0,0M-2.714-1.336H.009A1.661,1.661,0,0,0-.3-2.26a1.268,1.268,0,0,0-1.025-.477,1.312,1.312,0,0,0-.956.381,1.505,1.505,0,0,0-.43,1.02" transform="translate(1429.678 2499.724)" fill="#20143b"/>
    <path id="Trazado_189" data-name="Trazado 189" d="M0,0V-4.877H.744v.693a1.753,1.753,0,0,1,1.552-.8,2.03,2.03,0,0,1,.811.159,1.265,1.265,0,0,1,.553.415,1.575,1.575,0,0,1,.257.611,4.692,4.692,0,0,1,.046.8V0H3.137V-2.967a2.229,2.229,0,0,0-.1-.755.792.792,0,0,0-.341-.4,1.1,1.1,0,0,0-.577-.149,1.339,1.339,0,0,0-.911.335A1.654,1.654,0,0,0,.827-2.664V0Z" transform="translate(1431.57 2501.295)" fill="#20143b"/>
    <path id="Trazado_190" data-name="Trazado 190" d="M0,0,.12.73A3.073,3.073,0,0,1-.5.8,1.411,1.411,0,0,1-1.2.661.79.79,0,0,1-1.552.287a2.94,2.94,0,0,1-.1-.976V-3.495h-.606v-.643h.606V-5.346l.822-.5v1.7H0v.643H-.831V-.643a1.444,1.444,0,0,0,.044.455.344.344,0,0,0,.142.16.547.547,0,0,0,.282.06A2.758,2.758,0,0,0,0,0" transform="translate(1438.605 2500.555)" fill="#20143b"/>
    <path id="Trazado_191" data-name="Trazado 191" d="M0,0,.854.106A2.085,2.085,0,0,1,.1,1.268a2.252,2.252,0,0,1-1.4.413,2.231,2.231,0,0,1-1.7-.659A2.576,2.576,0,0,1-3.615-.827a2.7,2.7,0,0,1,.634-1.91,2.148,2.148,0,0,1,1.645-.68,2.087,2.087,0,0,1,1.6.666A2.648,2.648,0,0,1,.882-.877c0,.049,0,.122-.005.22H-2.76A1.879,1.879,0,0,0-2.306.574,1.354,1.354,0,0,0-1.286,1,1.259,1.259,0,0,0-.51.762,1.575,1.575,0,0,0,0,0M-2.714-1.336H.009A1.661,1.661,0,0,0-.3-2.26a1.268,1.268,0,0,0-1.024-.477,1.312,1.312,0,0,0-.957.381,1.505,1.505,0,0,0-.43,1.02" transform="translate(1442.753 2499.724)" fill="#20143b"/>
    <path id="Trazado_192" data-name="Trazado 192" d="M0,0V-.615A1.518,1.518,0,0,1-1.364.11,1.918,1.918,0,0,1-2.436-.211a2.118,2.118,0,0,1-.757-.9,3.09,3.09,0,0,1-.27-1.325,3.471,3.471,0,0,1,.244-1.325,1.923,1.923,0,0,1,.73-.912A1.953,1.953,0,0,1-1.4-4.988,1.626,1.626,0,0,1-.615-4.8a1.649,1.649,0,0,1,.56.485V-6.733H.767V0ZM-2.613-2.434a2.123,2.123,0,0,0,.395,1.4,1.19,1.19,0,0,0,.932.463,1.169,1.169,0,0,0,.922-.443A2.039,2.039,0,0,0,.014-2.365a2.294,2.294,0,0,0-.386-1.47,1.186,1.186,0,0,0-.95-.468,1.146,1.146,0,0,0-.921.45,2.224,2.224,0,0,0-.37,1.419" transform="translate(1450.422 2501.295)" fill="#20143b"/>
    <path id="Trazado_193" data-name="Trazado 193" d="M0,0,.854.106A2.08,2.08,0,0,1,.1,1.268a2.252,2.252,0,0,1-1.4.413,2.231,2.231,0,0,1-1.7-.659A2.575,2.575,0,0,1-3.614-.827a2.692,2.692,0,0,1,.634-1.91,2.144,2.144,0,0,1,1.644-.68,2.084,2.084,0,0,1,1.6.666A2.648,2.648,0,0,1,.882-.877c0,.049,0,.122-.005.22H-2.76A1.879,1.879,0,0,0-2.306.574,1.354,1.354,0,0,0-1.286,1,1.259,1.259,0,0,0-.51.762,1.575,1.575,0,0,0,0,0M-2.714-1.336H.009A1.654,1.654,0,0,0-.3-2.26a1.268,1.268,0,0,0-1.024-.477,1.312,1.312,0,0,0-.957.381,1.505,1.505,0,0,0-.43,1.02" transform="translate(1455.828 2499.724)" fill="#20143b"/>
    <path id="Trazado_194" data-name="Trazado 194" d="M0,0A3.076,3.076,0,0,1-.883.551a2.566,2.566,0,0,1-.912.161A1.772,1.772,0,0,1-3.031.319a1.3,1.3,0,0,1-.432-1A1.335,1.335,0,0,1-3.3-1.339a1.352,1.352,0,0,1,.427-.475,1.977,1.977,0,0,1,.594-.271,5.9,5.9,0,0,1,.735-.124A7.582,7.582,0,0,0-.069-2.494c0-.113,0-.185,0-.216A.914.914,0,0,0-.3-3.422,1.391,1.391,0,0,0-1.24-3.7a1.449,1.449,0,0,0-.86.2,1.244,1.244,0,0,0-.412.723l-.808-.11a2,2,0,0,1,.362-.838,1.6,1.6,0,0,1,.73-.492,3.258,3.258,0,0,1,1.107-.172A2.936,2.936,0,0,1-.1-4.239a1.338,1.338,0,0,1,.574.37,1.3,1.3,0,0,1,.257.562,4.737,4.737,0,0,1,.041.763v1.1A11.655,11.655,0,0,0,.821.016,1.844,1.844,0,0,0,1.029.6H.166A1.745,1.745,0,0,1,0,0M-.069-1.846a6.108,6.108,0,0,1-1.35.312,3.14,3.14,0,0,0-.721.165.72.72,0,0,0-.326.269.712.712,0,0,0-.115.393.7.7,0,0,0,.251.551A1.076,1.076,0,0,0-1.6.064,1.7,1.7,0,0,0-.749-.145,1.279,1.279,0,0,0-.2-.717a1.989,1.989,0,0,0,.133-.826Z" transform="translate(1463.516 2500.693)" fill="#20143b"/>
    <path id="Trazado_195" data-name="Trazado 195" d="M0,0,.813.106A2.107,2.107,0,0,1,.132,1.421,1.989,1.989,0,0,1-1.217,1.9a2.092,2.092,0,0,1-1.609-.655A2.657,2.657,0,0,1-3.435-.634a3.387,3.387,0,0,1,.262-1.382,1.829,1.829,0,0,1,.8-.889,2.368,2.368,0,0,1,1.164-.3,2.023,2.023,0,0,1,1.3.4A1.842,1.842,0,0,1,.735-1.658l-.8.124a1.324,1.324,0,0,0-.406-.739,1.049,1.049,0,0,0-.7-.248,1.281,1.281,0,0,0-1.015.448,2.118,2.118,0,0,0-.39,1.416A2.2,2.2,0,0,0-2.209.772a1.226,1.226,0,0,0,.983.445,1.153,1.153,0,0,0,.813-.3A1.482,1.482,0,0,0,0,0" transform="translate(1468.747 2499.508)" fill="#20143b"/>
    <path id="Trazado_196" data-name="Trazado 196" d="M0,0,.12.73A3.073,3.073,0,0,1-.5.8,1.411,1.411,0,0,1-1.2.661.79.79,0,0,1-1.552.287a2.94,2.94,0,0,1-.1-.976V-3.495h-.606v-.643h.606V-5.346l.822-.5v1.7H0v.643H-.831V-.643a1.444,1.444,0,0,0,.044.455.344.344,0,0,0,.142.16.547.547,0,0,0,.282.06A2.758,2.758,0,0,0,0,0" transform="translate(1472.072 2500.555)" fill="#20143b"/>
    <path id="Trazado_197" data-name="Trazado 197" d="M0,0H270.047V-100.958H0Z" transform="translate(1341 2589.916)" fill="none"/>
    <path id="Trazado_198" data-name="Trazado 198" d="M131.885-94.4h.827v-.95h-.827Zm0-.95,0,6.733h.827V-93.5h-.827Z" transform="translate(1341 2589.916)" fill="#20143b"/>
    <path id="Trazado_199" data-name="Trazado 199" d="M0,0-1.855-4.877h.872L.064-1.957q.171.474.312.983Q.487-1.359.684-1.9L1.768-4.877h.85L.771,0Z" transform="translate(1476.325 2501.295)" fill="#20143b"/>
    <path id="Trazado_200" data-name="Trazado 200" d="M0,0H270.047V-100.958H0Z" transform="translate(1341 2589.916)" fill="none"/>
    <path id="Trazado_201" data-name="Trazado 201" d="M138.677-94.4h.827v-.95h-.827Zm0-.95,0,6.733h.827V-93.5h-.827Z" transform="translate(1341 2589.916)" fill="#20143b"/>
    <path id="Trazado_202" data-name="Trazado 202" d="M0,0V-.615A1.518,1.518,0,0,1-1.364.11,1.913,1.913,0,0,1-2.436-.211a2.118,2.118,0,0,1-.757-.9,3.09,3.09,0,0,1-.27-1.325A3.471,3.471,0,0,1-3.22-3.759a1.925,1.925,0,0,1,.731-.912A1.952,1.952,0,0,1-1.4-4.988,1.623,1.623,0,0,1-.616-4.8a1.643,1.643,0,0,1,.561.485V-6.733H.767V0ZM-2.613-2.434a2.123,2.123,0,0,0,.395,1.4,1.19,1.19,0,0,0,.932.463,1.171,1.171,0,0,0,.922-.443A2.045,2.045,0,0,0,.014-2.365a2.294,2.294,0,0,0-.386-1.47A1.187,1.187,0,0,0-1.323-4.3a1.144,1.144,0,0,0-.92.45,2.224,2.224,0,0,0-.37,1.419" transform="translate(1484.927 2501.295)" fill="#20143b"/>
    <path id="Trazado_203" data-name="Trazado 203" d="M0,0A3.076,3.076,0,0,1-.883.551,2.567,2.567,0,0,1-1.8.712,1.769,1.769,0,0,1-3.031.319a1.3,1.3,0,0,1-.432-1A1.335,1.335,0,0,1-3.3-1.339a1.352,1.352,0,0,1,.427-.475,1.977,1.977,0,0,1,.594-.271,5.9,5.9,0,0,1,.735-.124A7.6,7.6,0,0,0-.069-2.494c0-.113,0-.185,0-.216A.914.914,0,0,0-.3-3.422,1.386,1.386,0,0,0-1.24-3.7a1.453,1.453,0,0,0-.861.2,1.249,1.249,0,0,0-.411.723l-.809-.11a2.009,2.009,0,0,1,.363-.838,1.59,1.59,0,0,1,.73-.492,3.258,3.258,0,0,1,1.107-.172,2.93,2.93,0,0,1,1.015.147,1.332,1.332,0,0,1,.574.37,1.3,1.3,0,0,1,.258.562,4.737,4.737,0,0,1,.041.763v1.1A11.735,11.735,0,0,0,.82.016,1.823,1.823,0,0,0,1.029.6H.165A1.768,1.768,0,0,1,0,0M-.069-1.846a6.108,6.108,0,0,1-1.35.312,3.126,3.126,0,0,0-.721.165.72.72,0,0,0-.326.269.7.7,0,0,0-.115.393.7.7,0,0,0,.251.551A1.073,1.073,0,0,0-1.6.064a1.7,1.7,0,0,0,.85-.209A1.29,1.29,0,0,0-.2-.717a1.989,1.989,0,0,0,.133-.826Z" transform="translate(1490.177 2500.693)" fill="#20143b"/>
    <path id="Trazado_204" data-name="Trazado 204" d="M0,0V-.615A1.518,1.518,0,0,1-1.364.11,1.915,1.915,0,0,1-2.436-.211a2.118,2.118,0,0,1-.757-.9,3.09,3.09,0,0,1-.27-1.325,3.452,3.452,0,0,1,.244-1.325,1.923,1.923,0,0,1,.73-.912A1.952,1.952,0,0,1-1.4-4.988,1.63,1.63,0,0,1-.615-4.8a1.649,1.649,0,0,1,.56.485V-6.733H.767V0ZM-2.613-2.434a2.123,2.123,0,0,0,.395,1.4,1.19,1.19,0,0,0,.932.463,1.171,1.171,0,0,0,.922-.443A2.045,2.045,0,0,0,.014-2.365a2.294,2.294,0,0,0-.386-1.47A1.187,1.187,0,0,0-1.323-4.3a1.145,1.145,0,0,0-.92.45,2.224,2.224,0,0,0-.37,1.419" transform="translate(1495.389 2501.295)" fill="#20143b"/>
    <path id="Trazado_205" data-name="Trazado 205" d="M0,0,.854.106A2.085,2.085,0,0,1,.1,1.268a2.252,2.252,0,0,1-1.4.413,2.231,2.231,0,0,1-1.7-.659A2.576,2.576,0,0,1-3.615-.827a2.7,2.7,0,0,1,.634-1.91,2.148,2.148,0,0,1,1.645-.68,2.087,2.087,0,0,1,1.6.666A2.648,2.648,0,0,1,.882-.877c0,.049,0,.122-.005.22H-2.76A1.879,1.879,0,0,0-2.306.574,1.354,1.354,0,0,0-1.286,1,1.259,1.259,0,0,0-.51.762,1.575,1.575,0,0,0,0,0M-2.714-1.336H.009A1.661,1.661,0,0,0-.3-2.26a1.268,1.268,0,0,0-1.025-.477,1.312,1.312,0,0,0-.956.381,1.505,1.505,0,0,0-.43,1.02" transform="translate(1500.795 2499.724)" fill="#20143b"/>
    <path id="Trazado_206" data-name="Trazado 206" d="M0,0,.817-.129A1.145,1.145,0,0,0,1.2.625,1.335,1.335,0,0,0,2.08.886,1.288,1.288,0,0,0,2.925.654.692.692,0,0,0,3.2.11a.5.5,0,0,0-.243-.441,3.607,3.607,0,0,0-.846-.28,7.65,7.65,0,0,1-1.259-.4A1.223,1.223,0,0,1,.32-1.472a1.228,1.228,0,0,1-.182-.654,1.249,1.249,0,0,1,.15-.6,1.324,1.324,0,0,1,.405-.462,1.718,1.718,0,0,1,.527-.241,2.487,2.487,0,0,1,.713-.1,2.808,2.808,0,0,1,1.009.166,1.371,1.371,0,0,1,.64.447,1.749,1.749,0,0,1,.285.756l-.808.11a.886.886,0,0,0-.319-.588,1.169,1.169,0,0,0-.747-.211,1.355,1.355,0,0,0-.813.188.55.55,0,0,0-.243.441.451.451,0,0,0,.1.289.726.726,0,0,0,.316.221c.083.03.327.1.731.211a10.035,10.035,0,0,1,1.225.384,1.236,1.236,0,0,1,.543.434,1.206,1.206,0,0,1,.2.707A1.385,1.385,0,0,1,3.81.8a1.556,1.556,0,0,1-.7.565,2.519,2.519,0,0,1-1.029.2A2.29,2.29,0,0,1,.637,1.171,1.839,1.839,0,0,1,0,0" transform="translate(1502.356 2499.839)" fill="#20143b"/>
    <path id="Trazado_207" data-name="Trazado 207" d="M0,0-.092-.776A1.845,1.845,0,0,0,.381-.7.9.9,0,0,0,.822-.8a.757.757,0,0,0,.271-.257,4.154,4.154,0,0,0,.253-.615c.015-.046.039-.114.073-.2L-.432-6.756H.459L1.474-3.931q.2.537.354,1.129a11.078,11.078,0,0,1,.34-1.111L3.21-6.756h.827L2.182-1.8A9.947,9.947,0,0,1,1.718-.689a1.635,1.635,0,0,1-.506.6A1.193,1.193,0,0,1,.533.1,1.668,1.668,0,0,1,0,0" transform="translate(1509.966 2503.173)" fill="#20143b"/>
    <path id="Trazado_208" data-name="Trazado 208" d="M0,0V-6.747H.753v.634a1.864,1.864,0,0,1,.6-.558,1.656,1.656,0,0,1,.813-.186,1.925,1.925,0,0,1,1.1.322,1.969,1.969,0,0,1,.721.907,3.313,3.313,0,0,1,.243,1.283A3.242,3.242,0,0,1,3.966-3a2.026,2.026,0,0,1-.78.919,2.009,2.009,0,0,1-1.078.319,1.558,1.558,0,0,1-.741-.174,1.7,1.7,0,0,1-.54-.441V0ZM.749-4.28a2.122,2.122,0,0,0,.38,1.391,1.171,1.171,0,0,0,.924.45A1.2,1.2,0,0,0,3-2.9a2.21,2.21,0,0,0,.392-1.444,2.151,2.151,0,0,0-.383-1.4,1.152,1.152,0,0,0-.917-.464,1.187,1.187,0,0,0-.933.493A2.212,2.212,0,0,0,.749-4.28" transform="translate(1517.319 2503.164)" fill="#20143b"/>
    <path id="Trazado_209" data-name="Trazado 209" d="M0,0A3.076,3.076,0,0,1-.883.551,2.567,2.567,0,0,1-1.8.712,1.771,1.771,0,0,1-3.031.319a1.3,1.3,0,0,1-.432-1A1.335,1.335,0,0,1-3.3-1.339a1.352,1.352,0,0,1,.427-.475,1.977,1.977,0,0,1,.594-.271,5.9,5.9,0,0,1,.735-.124A7.582,7.582,0,0,0-.069-2.494c0-.113,0-.185,0-.216A.917.917,0,0,0-.3-3.422,1.391,1.391,0,0,0-1.24-3.7a1.455,1.455,0,0,0-.861.2,1.249,1.249,0,0,0-.411.723l-.808-.11a2,2,0,0,1,.362-.838,1.6,1.6,0,0,1,.73-.492,3.258,3.258,0,0,1,1.107-.172A2.936,2.936,0,0,1-.1-4.239a1.328,1.328,0,0,1,.573.37,1.293,1.293,0,0,1,.258.562,4.737,4.737,0,0,1,.041.763v1.1A11.735,11.735,0,0,0,.82.016,1.871,1.871,0,0,0,1.029.6H.166A1.745,1.745,0,0,1,0,0M-.069-1.846a6.108,6.108,0,0,1-1.35.312,3.126,3.126,0,0,0-.721.165.72.72,0,0,0-.326.269.7.7,0,0,0-.115.393.7.7,0,0,0,.251.551A1.075,1.075,0,0,0-1.6.064,1.7,1.7,0,0,0-.749-.145,1.279,1.279,0,0,0-.2-.717a1.989,1.989,0,0,0,.133-.826Z" transform="translate(1525.733 2500.693)" fill="#20143b"/>
    <path id="Trazado_210" data-name="Trazado 210" d="M0,0V-4.877H.744v.739a2.012,2.012,0,0,1,.527-.684A.909.909,0,0,1,1.8-4.988a1.61,1.61,0,0,1,.85.267l-.285.767a1.176,1.176,0,0,0-.606-.179.787.787,0,0,0-.487.163.883.883,0,0,0-.308.452,3.247,3.247,0,0,0-.137.965V0Z" transform="translate(1527.772 2501.295)" fill="#20143b"/>
    <path id="Trazado_211" data-name="Trazado 211" d="M0,0,.12.73A3.073,3.073,0,0,1-.5.8,1.411,1.411,0,0,1-1.2.661.79.79,0,0,1-1.552.287a2.94,2.94,0,0,1-.1-.976V-3.495H-2.26v-.643h.607V-5.346l.822-.5v1.7H0v.643H-.831V-.643a1.444,1.444,0,0,0,.044.455.344.344,0,0,0,.142.16.547.547,0,0,0,.282.06A2.758,2.758,0,0,0,0,0" transform="translate(1532.718 2500.555)" fill="#20143b"/>
    <path id="Trazado_212" data-name="Trazado 212" d="M0,0H270.047V-100.958H0Z" transform="translate(1341 2589.916)" fill="none"/>
    <path id="Trazado_213" data-name="Trazado 213" d="M192.532-94.4h.826v-.95h-.826Zm0-.95,0,6.733h.826V-93.5h-.826Z" transform="translate(1341 2589.916)" fill="#20143b"/>
    <path id="Trazado_214" data-name="Trazado 214" d="M0,0,.813.106A2.107,2.107,0,0,1,.132,1.421,1.989,1.989,0,0,1-1.217,1.9a2.092,2.092,0,0,1-1.609-.655A2.657,2.657,0,0,1-3.435-.634a3.387,3.387,0,0,1,.262-1.382,1.829,1.829,0,0,1,.8-.889,2.368,2.368,0,0,1,1.164-.3,2.023,2.023,0,0,1,1.3.4A1.842,1.842,0,0,1,.735-1.658l-.8.124a1.33,1.33,0,0,0-.406-.739,1.049,1.049,0,0,0-.7-.248,1.281,1.281,0,0,0-1.015.448,2.118,2.118,0,0,0-.39,1.416A2.2,2.2,0,0,0-2.209.772a1.226,1.226,0,0,0,.983.445,1.153,1.153,0,0,0,.813-.3A1.482,1.482,0,0,0,0,0" transform="translate(1538.799 2499.508)" fill="#20143b"/>
    <path id="Trazado_215" data-name="Trazado 215" d="M0,0H270.047V-100.958H0Z" transform="translate(1341 2589.916)" fill="none"/>
    <path id="Trazado_216" data-name="Trazado 216" d="M199.324-94.4h.826v-.95h-.826Zm0-.95,0,6.733h.826V-93.5h-.826Z" transform="translate(1341 2589.916)" fill="#20143b"/>
    <path id="Trazado_217" data-name="Trazado 217" d="M0,0V-6.747H.753v.634a1.857,1.857,0,0,1,.6-.558,1.656,1.656,0,0,1,.813-.186,1.922,1.922,0,0,1,1.1.322,1.969,1.969,0,0,1,.721.907,3.313,3.313,0,0,1,.243,1.283A3.257,3.257,0,0,1,3.967-3a2.027,2.027,0,0,1-.781.919,2,2,0,0,1-1.078.319,1.558,1.558,0,0,1-.741-.174,1.708,1.708,0,0,1-.54-.441V0ZM.749-4.28A2.122,2.122,0,0,0,1.13-2.889a1.169,1.169,0,0,0,.923.45A1.2,1.2,0,0,0,3-2.9,2.216,2.216,0,0,0,3.39-4.349a2.157,2.157,0,0,0-.383-1.4,1.155,1.155,0,0,0-.917-.464,1.189,1.189,0,0,0-.934.493A2.212,2.212,0,0,0,.749-4.28" transform="translate(1542.409 2503.164)" fill="#20143b"/>
    <path id="Trazado_218" data-name="Trazado 218" d="M0,0A3.076,3.076,0,0,1-.883.551,2.567,2.567,0,0,1-1.8.712,1.769,1.769,0,0,1-3.031.319a1.3,1.3,0,0,1-.432-1A1.335,1.335,0,0,1-3.3-1.339a1.352,1.352,0,0,1,.427-.475,1.977,1.977,0,0,1,.594-.271,5.9,5.9,0,0,1,.735-.124A7.6,7.6,0,0,0-.069-2.494c0-.113,0-.185,0-.216A.914.914,0,0,0-.3-3.422,1.386,1.386,0,0,0-1.24-3.7a1.453,1.453,0,0,0-.861.2,1.244,1.244,0,0,0-.411.723l-.809-.11a2.009,2.009,0,0,1,.363-.838,1.59,1.59,0,0,1,.73-.492,3.258,3.258,0,0,1,1.107-.172,2.93,2.93,0,0,1,1.015.147,1.332,1.332,0,0,1,.574.37,1.3,1.3,0,0,1,.258.562,4.737,4.737,0,0,1,.041.763v1.1A11.735,11.735,0,0,0,.82.016,1.844,1.844,0,0,0,1.028.6H.165A1.768,1.768,0,0,1,0,0M-.069-1.846a6.108,6.108,0,0,1-1.35.312,3.126,3.126,0,0,0-.721.165.72.72,0,0,0-.326.269.7.7,0,0,0-.115.393.7.7,0,0,0,.251.551A1.072,1.072,0,0,0-1.6.064a1.7,1.7,0,0,0,.85-.209A1.29,1.29,0,0,0-.2-.717a1.989,1.989,0,0,0,.133-.826Z" transform="translate(1550.823 2500.693)" fill="#20143b"/>
    <path id="Trazado_219" data-name="Trazado 219" d="M0,0,.813.106A2.1,2.1,0,0,1,.131,1.421,1.987,1.987,0,0,1-1.217,1.9a2.09,2.09,0,0,1-1.609-.655,2.653,2.653,0,0,1-.61-1.876,3.4,3.4,0,0,1,.262-1.382,1.831,1.831,0,0,1,.8-.889,2.365,2.365,0,0,1,1.164-.3,2.023,2.023,0,0,1,1.3.4A1.842,1.842,0,0,1,.735-1.658l-.8.124a1.33,1.33,0,0,0-.406-.739,1.05,1.05,0,0,0-.706-.248,1.28,1.28,0,0,0-1.014.448A2.118,2.118,0,0,0-2.586-.657,2.2,2.2,0,0,0-2.209.772a1.225,1.225,0,0,0,.982.445,1.153,1.153,0,0,0,.813-.3A1.477,1.477,0,0,0,0,0" transform="translate(1556.054 2499.508)" fill="#20143b"/>
    <path id="Trazado_220" data-name="Trazado 220" d="M0,0H270.047V-100.958H0Z" transform="translate(1341 2589.916)" fill="none"/>
    <path id="Trazado_221" data-name="Trazado 221" d="M216.578-94.4h.827v-.95h-.827Zm0-.95,0,6.733h.827V-93.5h-.827Z" transform="translate(1341 2589.916)" fill="#20143b"/>
    <path id="Trazado_222" data-name="Trazado 222" d="M0,0A2.515,2.515,0,0,1,.753-2.007a2.273,2.273,0,0,1,1.535-.542,2.191,2.191,0,0,1,1.644.659A2.51,2.51,0,0,1,4.57-.069a3.217,3.217,0,0,1-.282,1.481,1.994,1.994,0,0,1-.822.838,2.4,2.4,0,0,1-1.178.3A2.192,2.192,0,0,1,.632,1.892,2.624,2.624,0,0,1,0,0M.85,0a2.074,2.074,0,0,0,.409,1.4,1.308,1.308,0,0,0,1.029.466A1.3,1.3,0,0,0,3.312,1.4,2.133,2.133,0,0,0,3.72-.028,2.012,2.012,0,0,0,3.31-1.4a1.308,1.308,0,0,0-1.022-.467A1.313,1.313,0,0,0,1.259-1.4,2.065,2.065,0,0,0,.85,0m.978-3.045.611-1.286H3.523L2.512-3.045Z" transform="translate(1559.355 2498.856)" fill="#20143b"/>
    <path id="Trazado_223" data-name="Trazado 223" d="M0,0V-4.877H.744v.693a1.753,1.753,0,0,1,1.552-.8,2.03,2.03,0,0,1,.811.159,1.265,1.265,0,0,1,.553.415,1.575,1.575,0,0,1,.257.611,4.692,4.692,0,0,1,.046.8V0H3.137V-2.967a2.229,2.229,0,0,0-.1-.755.792.792,0,0,0-.341-.4,1.1,1.1,0,0,0-.577-.149,1.339,1.339,0,0,0-.911.335A1.654,1.654,0,0,0,.827-2.664V0Z" transform="translate(1564.895 2501.295)" fill="#20143b"/>
    <path id="Trazado_224" data-name="Trazado 224" d="M0,0V-6.733H2.319a5.576,5.576,0,0,1,1.2.1,2.263,2.263,0,0,1,.987.482,2.743,2.743,0,0,1,.8,1.149,4.527,4.527,0,0,1,.263,1.6,4.681,4.681,0,0,1-.179,1.359,3.282,3.282,0,0,1-.459.98,2.431,2.431,0,0,1-.613.611,2.483,2.483,0,0,1-.8.338A4.569,4.569,0,0,1,2.43,0ZM.891-.8H2.329A3.48,3.48,0,0,0,3.374-.919a1.487,1.487,0,0,0,.6-.349,2.133,2.133,0,0,0,.5-.852,4.163,4.163,0,0,0,.176-1.3A3.137,3.137,0,0,0,4.3-5.041a1.748,1.748,0,0,0-.844-.76,3.509,3.509,0,0,0-1.152-.137H.891Z" transform="translate(1390.893 2523.869)" fill="#20143b"/>
    <path id="Trazado_225" data-name="Trazado 225" d="M0,0A2.515,2.515,0,0,1,.753-2.007a2.271,2.271,0,0,1,1.534-.542,2.188,2.188,0,0,1,1.644.658A2.508,2.508,0,0,1,4.569-.069a3.224,3.224,0,0,1-.281,1.48,2,2,0,0,1-.822.839,2.4,2.4,0,0,1-1.179.3A2.19,2.19,0,0,1,.632,1.892,2.624,2.624,0,0,1,0,0M.85,0a2.075,2.075,0,0,0,.408,1.4,1.312,1.312,0,0,0,1.029.467A1.3,1.3,0,0,0,3.311,1.4,2.132,2.132,0,0,0,3.72-.028,2.02,2.02,0,0,0,3.31-1.4a1.309,1.309,0,0,0-1.023-.466A1.316,1.316,0,0,0,1.258-1.4,2.07,2.07,0,0,0,.85,0" transform="translate(1397.272 2521.43)" fill="#20143b"/>
    <path id="Trazado_226" data-name="Trazado 226" d="M0,0V-4.877H.739v.684A1.744,1.744,0,0,1,1.35-4.77a1.711,1.711,0,0,1,.868-.218,1.61,1.61,0,0,1,.89.225,1.2,1.2,0,0,1,.488.629A1.753,1.753,0,0,1,5.1-4.988a1.486,1.486,0,0,1,1.115.4,1.718,1.718,0,0,1,.391,1.239V0H5.787V-3.073a2.263,2.263,0,0,0-.08-.715.693.693,0,0,0-.292-.35.911.911,0,0,0-.5-.133,1.156,1.156,0,0,0-.855.341,1.511,1.511,0,0,0-.339,1.1V0H2.9V-3.169A1.4,1.4,0,0,0,2.7-4a.767.767,0,0,0-.661-.275,1.2,1.2,0,0,0-.645.183,1.044,1.044,0,0,0-.43.538A3.017,3.017,0,0,0,.827-2.531V0Z" transform="translate(1402.811 2523.869)" fill="#20143b"/>
    <path id="Trazado_227" data-name="Trazado 227" d="M0,0H270.047V-100.958H0Z" transform="translate(1341 2589.916)" fill="none"/>
    <path id="Trazado_228" data-name="Trazado 228" d="M69.65-71.829h.827v-.95H69.65Zm0-.95,0,6.732h.827v-4.878H69.65Z" transform="translate(1341 2589.916)" fill="#20143b"/>
    <path id="Trazado_229" data-name="Trazado 229" d="M0,0V-4.877H.744v.693a1.753,1.753,0,0,1,1.552-.8,2.03,2.03,0,0,1,.811.158,1.275,1.275,0,0,1,.553.416,1.575,1.575,0,0,1,.257.611,4.692,4.692,0,0,1,.046.8V0H3.137V-2.967a2.235,2.235,0,0,0-.1-.756.792.792,0,0,0-.341-.4,1.1,1.1,0,0,0-.577-.148,1.339,1.339,0,0,0-.911.335A1.654,1.654,0,0,0,.827-2.664V0Z" transform="translate(1412.735 2523.869)" fill="#20143b"/>
    <path id="Trazado_230" data-name="Trazado 230" d="M0,0H270.047V-100.958H0Z" transform="translate(1341 2589.916)" fill="none"/>
    <path id="Trazado_231" data-name="Trazado 231" d="M76.971-71.829H77.8v-.95h-.827Zm0-.95,0,6.732H77.8v-4.878h-.827Z" transform="translate(1341 2589.916)" fill="#20143b"/>
    <path id="Trazado_232" data-name="Trazado 232" d="M0,0A2.515,2.515,0,0,1,.753-2.007a2.272,2.272,0,0,1,1.534-.542,2.191,2.191,0,0,1,1.645.658A2.513,2.513,0,0,1,4.57-.069a3.21,3.21,0,0,1-.282,1.48,2,2,0,0,1-.822.839,2.4,2.4,0,0,1-1.179.3A2.19,2.19,0,0,1,.632,1.892,2.624,2.624,0,0,1,0,0M.85,0a2.07,2.07,0,0,0,.409,1.4,1.309,1.309,0,0,0,1.028.467A1.3,1.3,0,0,0,3.312,1.4,2.133,2.133,0,0,0,3.72-.028,2.014,2.014,0,0,0,3.31-1.4a1.309,1.309,0,0,0-1.023-.466A1.312,1.312,0,0,0,1.259-1.4,2.065,2.065,0,0,0,.85,0" transform="translate(1419.748 2521.43)" fill="#20143b"/>
    <path id="Trazado_233" data-name="Trazado 233" d="M0,0V-.615A1.518,1.518,0,0,1-1.364.11,1.915,1.915,0,0,1-2.436-.211a2.121,2.121,0,0,1-.757-.9,3.085,3.085,0,0,1-.27-1.324A3.457,3.457,0,0,1-3.219-3.76a1.925,1.925,0,0,1,.73-.911A1.952,1.952,0,0,1-1.4-4.988,1.619,1.619,0,0,1-.615-4.8a1.649,1.649,0,0,1,.56.485V-6.733H.767V0ZM-2.613-2.434a2.123,2.123,0,0,0,.395,1.4,1.19,1.19,0,0,0,.932.463,1.174,1.174,0,0,0,.922-.443A2.046,2.046,0,0,0,.014-2.365a2.294,2.294,0,0,0-.386-1.47A1.187,1.187,0,0,0-1.323-4.3a1.145,1.145,0,0,0-.92.45,2.224,2.224,0,0,0-.37,1.419" transform="translate(1431.064 2523.869)" fill="#20143b"/>
    <path id="Trazado_234" data-name="Trazado 234" d="M0,0,.854.106A2.085,2.085,0,0,1,.1,1.268a2.252,2.252,0,0,1-1.4.413,2.231,2.231,0,0,1-1.7-.66A2.573,2.573,0,0,1-3.615-.827a2.7,2.7,0,0,1,.634-1.91,2.148,2.148,0,0,1,1.645-.68,2.087,2.087,0,0,1,1.6.666A2.648,2.648,0,0,1,.882-.877c0,.049,0,.122-.005.22H-2.76A1.879,1.879,0,0,0-2.306.574,1.354,1.354,0,0,0-1.286,1,1.259,1.259,0,0,0-.51.762,1.575,1.575,0,0,0,0,0M-2.714-1.336H.009A1.661,1.661,0,0,0-.3-2.26a1.268,1.268,0,0,0-1.025-.477,1.312,1.312,0,0,0-.956.381,1.505,1.505,0,0,0-.43,1.02" transform="translate(1436.47 2522.298)" fill="#20143b"/>
    <path id="Trazado_235" data-name="Trazado 235" d="M0,0V-4.877H.739v.684A1.744,1.744,0,0,1,1.35-4.77a1.711,1.711,0,0,1,.868-.218,1.6,1.6,0,0,1,.889.225,1.2,1.2,0,0,1,.489.629A1.753,1.753,0,0,1,5.1-4.988a1.486,1.486,0,0,1,1.115.4,1.718,1.718,0,0,1,.391,1.239V0H5.787V-3.073a2.263,2.263,0,0,0-.08-.715.693.693,0,0,0-.292-.35.912.912,0,0,0-.5-.133,1.155,1.155,0,0,0-.854.341,1.511,1.511,0,0,0-.339,1.1V0H2.9V-3.169A1.4,1.4,0,0,0,2.7-4a.767.767,0,0,0-.661-.275,1.2,1.2,0,0,0-.645.183,1.039,1.039,0,0,0-.43.538A3.017,3.017,0,0,0,.827-2.531V0Z" transform="translate(1440.976 2523.869)" fill="#20143b"/>
    <path id="Trazado_236" data-name="Trazado 236" d="M0,0A2.515,2.515,0,0,1,.753-2.007a2.271,2.271,0,0,1,1.534-.542,2.187,2.187,0,0,1,1.644.658A2.509,2.509,0,0,1,4.57-.069a3.223,3.223,0,0,1-.282,1.48,2,2,0,0,1-.822.839,2.4,2.4,0,0,1-1.179.3A2.19,2.19,0,0,1,.632,1.892,2.624,2.624,0,0,1,0,0M.85,0a2.075,2.075,0,0,0,.408,1.4,1.312,1.312,0,0,0,1.029.467A1.3,1.3,0,0,0,3.311,1.4,2.132,2.132,0,0,0,3.72-.028,2.02,2.02,0,0,0,3.31-1.4a1.309,1.309,0,0,0-1.023-.466A1.316,1.316,0,0,0,1.258-1.4,2.07,2.07,0,0,0,.85,0" transform="translate(1448.503 2521.43)" fill="#20143b"/>
    <path id="Trazado_237" data-name="Trazado 237" d="M0,0-1.855-4.877h.872L.064-1.957q.171.474.312.983Q.487-1.359.684-1.9L1.768-4.877h.85L.771,0Z" transform="translate(1455.396 2523.869)" fill="#20143b"/>
    <path id="Trazado_238" data-name="Trazado 238" d="M0,0H270.047V-100.958H0Z" transform="translate(1341 2589.916)" fill="none"/>
    <path id="Trazado_239" data-name="Trazado 239" d="M117.749-71.829h.827v-.95h-.827Zm0-.95,0,6.732h.827v-4.878h-.827Z" transform="translate(1341 2589.916)" fill="#20143b"/>
    <path id="Trazado_240" data-name="Trazado 240" d="M119.816-66.047h.826V-72.78h-.826Z" transform="translate(1341 2589.916)" fill="#20143b"/>
    <path id="Trazado_241" data-name="Trazado 241" d="M121.928-71.829h.826v-.95h-.826Zm0-.95,0,6.732h.826v-4.878h-.826Z" transform="translate(1341 2589.916)" fill="#20143b"/>
    <path id="Trazado_242" data-name="Trazado 242" d="M0,0V-.615A1.518,1.518,0,0,1-1.364.11,1.915,1.915,0,0,1-2.436-.211a2.121,2.121,0,0,1-.757-.9,3.085,3.085,0,0,1-.27-1.324A3.457,3.457,0,0,1-3.219-3.76a1.919,1.919,0,0,1,.73-.911A1.952,1.952,0,0,1-1.4-4.988,1.619,1.619,0,0,1-.615-4.8a1.649,1.649,0,0,1,.56.485V-6.733H.767V0ZM-2.613-2.434a2.123,2.123,0,0,0,.395,1.4,1.19,1.19,0,0,0,.932.463,1.174,1.174,0,0,0,.922-.443A2.046,2.046,0,0,0,.014-2.365a2.294,2.294,0,0,0-.386-1.47A1.187,1.187,0,0,0-1.323-4.3a1.145,1.145,0,0,0-.92.45,2.224,2.224,0,0,0-.37,1.419" transform="translate(1468.178 2523.869)" fill="#20143b"/>
    <path id="Trazado_243" data-name="Trazado 243" d="M0,0A3.076,3.076,0,0,1-.883.551,2.567,2.567,0,0,1-1.8.712,1.774,1.774,0,0,1-3.031.319a1.3,1.3,0,0,1-.432-1A1.332,1.332,0,0,1-3.3-1.339a1.344,1.344,0,0,1,.427-.475,2,2,0,0,1,.594-.271,5.9,5.9,0,0,1,.735-.124A7.6,7.6,0,0,0-.069-2.494c0-.113,0-.185,0-.215A.912.912,0,0,0-.3-3.421,1.381,1.381,0,0,0-1.24-3.7a1.463,1.463,0,0,0-.861.2,1.252,1.252,0,0,0-.411.724l-.809-.11a2.019,2.019,0,0,1,.363-.839,1.581,1.581,0,0,1,.73-.491,3.258,3.258,0,0,1,1.107-.172,2.926,2.926,0,0,1,1.015.147,1.331,1.331,0,0,1,.574.369,1.3,1.3,0,0,1,.258.563,4.737,4.737,0,0,1,.041.763v1.1A11.7,11.7,0,0,0,.82.015,1.844,1.844,0,0,0,1.029.6H.165A1.761,1.761,0,0,1,0,0M-.069-1.846a6.108,6.108,0,0,1-1.35.312,3.063,3.063,0,0,0-.721.166.71.71,0,0,0-.326.267.707.707,0,0,0-.115.394.7.7,0,0,0,.251.551A1.075,1.075,0,0,0-1.6.064,1.707,1.707,0,0,0-.749-.145,1.282,1.282,0,0,0-.2-.716a2,2,0,0,0,.133-.827Z" transform="translate(1473.427 2523.267)" fill="#20143b"/>
    <path id="Trazado_244" data-name="Trazado 244" d="M0,0V-.615A1.518,1.518,0,0,1-1.364.11,1.915,1.915,0,0,1-2.436-.211a2.121,2.121,0,0,1-.757-.9,3.085,3.085,0,0,1-.27-1.324A3.476,3.476,0,0,1-3.219-3.76a1.925,1.925,0,0,1,.73-.911A1.953,1.953,0,0,1-1.4-4.988,1.615,1.615,0,0,1-.615-4.8a1.649,1.649,0,0,1,.56.485V-6.733H.767V0ZM-2.613-2.434a2.123,2.123,0,0,0,.395,1.4,1.19,1.19,0,0,0,.932.463,1.172,1.172,0,0,0,.922-.443A2.046,2.046,0,0,0,.014-2.365a2.294,2.294,0,0,0-.386-1.47,1.186,1.186,0,0,0-.95-.468,1.146,1.146,0,0,0-.921.45,2.224,2.224,0,0,0-.37,1.419" transform="translate(1478.64 2523.869)" fill="#20143b"/>
    <path id="Trazado_245" data-name="Trazado 245" d="M0,0A8.24,8.24,0,0,1-1.157-2.021a6.261,6.261,0,0,1-.473-2.4,6.231,6.231,0,0,1,.354-2.094A8.8,8.8,0,0,1,0-8.827H.593q-.556.956-.735,1.364A7.39,7.39,0,0,0-.583-6.14a7.659,7.659,0,0,0-.2,1.727A8.283,8.283,0,0,0,.593,0Z" transform="translate(1484.899 2525.848)" fill="#20143b"/>
    <path id="Trazado_246" data-name="Trazado 246" d="M0,0H270.047V-100.958H0Z" transform="translate(1341 2589.916)" fill="none"/>
    <path id="Trazado_247" data-name="Trazado 247" d="M0,0V-6.733H.914L4.45-1.447V-6.733H5.3V0H4.391L.854-5.291V0Z" transform="translate(1486.548 2523.869)" fill="#20143b"/>
    <path id="Trazado_248" data-name="Trazado 248" d="M152.249-71.829h.826v-.95h-.826Zm0-.95,0,6.732h.826v-4.878h-.826Z" transform="translate(1341 2589.916)" fill="#20143b"/>
    <path id="Trazado_249" data-name="Trazado 249" d="M0,0-1.855-4.877h.872L.064-1.957q.171.474.312.983Q.487-1.359.684-1.9L1.768-4.877h.85L.771,0Z" transform="translate(1496.689 2523.869)" fill="#20143b"/>
    <path id="Trazado_250" data-name="Trazado 250" d="M0,0,.854.106A2.085,2.085,0,0,1,.1,1.268a2.252,2.252,0,0,1-1.4.413,2.231,2.231,0,0,1-1.7-.66A2.573,2.573,0,0,1-3.615-.827a2.7,2.7,0,0,1,.634-1.91,2.148,2.148,0,0,1,1.645-.68,2.087,2.087,0,0,1,1.6.666A2.648,2.648,0,0,1,.882-.877c0,.049,0,.122-.005.22H-2.76A1.879,1.879,0,0,0-2.306.574,1.354,1.354,0,0,0-1.286,1,1.259,1.259,0,0,0-.51.762,1.575,1.575,0,0,0,0,0M-2.714-1.336H.009A1.661,1.661,0,0,0-.3-2.26a1.268,1.268,0,0,0-1.025-.477,1.312,1.312,0,0,0-.956.381,1.505,1.505,0,0,0-.43,1.02" transform="translate(1503.376 2522.298)" fill="#20143b"/>
    <path id="Trazado_251" data-name="Trazado 251" d="M0,0H270.047V-100.958H0Z" transform="translate(1341 2589.916)" fill="none"/>
    <path id="Trazado_252" data-name="Trazado 252" d="M164.249-66.047h.827V-72.78h-.827Z" transform="translate(1341 2589.916)" fill="#20143b"/>
    <path id="Trazado_253" data-name="Trazado 253" d="M0,0H-.827V-5.268a4.227,4.227,0,0,1-.782.57,5.643,5.643,0,0,1-.871.427v-.8a5,5,0,0,0,1.212-.79,3.088,3.088,0,0,0,.735-.9H0Z" transform="translate(1512.855 2523.869)" fill="#20143b"/>
    <path id="Trazado_254" data-name="Trazado 254" d="M0,0H-.592A8.29,8.29,0,0,0,.781-4.413a7.518,7.518,0,0,0-.2-1.713A7.146,7.146,0,0,0,.147-7.449,15.451,15.451,0,0,0-.592-8.827H0A8.809,8.809,0,0,1,1.277-6.512,6.23,6.23,0,0,1,1.63-4.418a6.244,6.244,0,0,1-.474,2.4A8.4,8.4,0,0,1,0,0" transform="translate(1515.744 2525.848)" fill="#20143b"/>
    <path id="Trazado_255" data-name="Trazado 255" d="M0,0V-6.733H2.319a5.576,5.576,0,0,1,1.2.1,2.263,2.263,0,0,1,.987.482A2.744,2.744,0,0,1,5.3-5a4.515,4.515,0,0,1,.263,1.6,4.681,4.681,0,0,1-.179,1.359,3.3,3.3,0,0,1-.459.982,2.426,2.426,0,0,1-.613.61,2.461,2.461,0,0,1-.8.337A4.569,4.569,0,0,1,2.43,0ZM.891-.794H2.329A3.513,3.513,0,0,0,3.374-.918a1.489,1.489,0,0,0,.6-.35,2.122,2.122,0,0,0,.5-.851,4.165,4.165,0,0,0,.176-1.3A3.136,3.136,0,0,0,4.3-5.04,1.75,1.75,0,0,0,3.458-5.8a3.509,3.509,0,0,0-1.152-.137H.891Z" transform="translate(1390.893 2546.442)" fill="#20143b"/>
    <path id="Trazado_256" data-name="Trazado 256" d="M0,0,.854.1A2.084,2.084,0,0,1,.1,1.268a2.252,2.252,0,0,1-1.4.413,2.227,2.227,0,0,1-1.7-.659A2.576,2.576,0,0,1-3.615-.827a2.7,2.7,0,0,1,.634-1.91,2.148,2.148,0,0,1,1.645-.68,2.087,2.087,0,0,1,1.6.666A2.647,2.647,0,0,1,.882-.877c0,.049,0,.122-.005.22H-2.76A1.879,1.879,0,0,0-2.306.574,1.354,1.354,0,0,0-1.286,1,1.259,1.259,0,0,0-.51.762,1.575,1.575,0,0,0,0,0M-2.714-1.336H.009A1.661,1.661,0,0,0-.3-2.26a1.268,1.268,0,0,0-1.024-.477,1.312,1.312,0,0,0-.957.381,1.505,1.505,0,0,0-.43,1.02" transform="translate(1400.918 2544.871)" fill="#20143b"/>
    <path id="Trazado_257" data-name="Trazado 257" d="M0,0,.817-.129A1.145,1.145,0,0,0,1.2.625a1.336,1.336,0,0,0,.879.261A1.287,1.287,0,0,0,2.925.655.7.7,0,0,0,3.2.11a.5.5,0,0,0-.243-.441,3.607,3.607,0,0,0-.846-.28,7.776,7.776,0,0,1-1.259-.4A1.223,1.223,0,0,1,.32-1.471a1.234,1.234,0,0,1-.182-.655,1.245,1.245,0,0,1,.15-.6,1.336,1.336,0,0,1,.405-.463,1.718,1.718,0,0,1,.527-.24,2.489,2.489,0,0,1,.714-.1,2.806,2.806,0,0,1,1.008.166,1.373,1.373,0,0,1,.64.448,1.744,1.744,0,0,1,.285.755l-.808.11a.886.886,0,0,0-.319-.588,1.176,1.176,0,0,0-.747-.211,1.355,1.355,0,0,0-.813.188.55.55,0,0,0-.243.441.451.451,0,0,0,.1.289.726.726,0,0,0,.316.221q.125.047.731.211a9.99,9.99,0,0,1,1.225.385,1.229,1.229,0,0,1,.543.433,1.208,1.208,0,0,1,.2.707A1.385,1.385,0,0,1,3.81.8a1.556,1.556,0,0,1-.7.565,2.536,2.536,0,0,1-1.029.2A2.29,2.29,0,0,1,.637,1.171,1.839,1.839,0,0,1,0,0" transform="translate(1402.48 2544.986)" fill="#20143b"/>
    <path id="Trazado_258" data-name="Trazado 258" d="M0,0V-6.747H.753v.634a1.853,1.853,0,0,1,.6-.557,1.656,1.656,0,0,1,.813-.187,1.922,1.922,0,0,1,1.1.322,1.974,1.974,0,0,1,.721.907,3.317,3.317,0,0,1,.244,1.283A3.269,3.269,0,0,1,3.967-3a2.02,2.02,0,0,1-.781.918,2,2,0,0,1-1.078.319,1.547,1.547,0,0,1-.741-.175,1.682,1.682,0,0,1-.54-.441V0ZM.749-4.281A2.123,2.123,0,0,0,1.13-2.889a1.169,1.169,0,0,0,.923.45A1.2,1.2,0,0,0,3-2.9,2.219,2.219,0,0,0,3.39-4.349a2.156,2.156,0,0,0-.383-1.4,1.156,1.156,0,0,0-.917-.463,1.19,1.19,0,0,0-.934.494A2.206,2.206,0,0,0,.749-4.281" transform="translate(1407.513 2548.311)" fill="#20143b"/>
    <path id="Trazado_259" data-name="Trazado 259" d="M0,0H270.047V-100.958H0Z" transform="translate(1341 2589.916)" fill="none"/>
    <path id="Trazado_260" data-name="Trazado 260" d="M71.726-43.475h.826v-6.732h-.826Z" transform="translate(1341 2589.916)" fill="#20143b"/>
    <path id="Trazado_261" data-name="Trazado 261" d="M0,0A3.076,3.076,0,0,1-.883.551a2.566,2.566,0,0,1-.912.161A1.772,1.772,0,0,1-3.031.32a1.3,1.3,0,0,1-.432-1A1.328,1.328,0,0,1-3.3-1.338a1.356,1.356,0,0,1,.427-.476,1.988,1.988,0,0,1,.594-.271,5.9,5.9,0,0,1,.735-.124A7.582,7.582,0,0,0-.069-2.494c0-.113,0-.185,0-.216A.915.915,0,0,0-.3-3.422,1.389,1.389,0,0,0-1.24-3.7a1.459,1.459,0,0,0-.86.2,1.248,1.248,0,0,0-.412.723l-.808-.11a2,2,0,0,1,.362-.838,1.6,1.6,0,0,1,.731-.491,3.247,3.247,0,0,1,1.106-.173A2.936,2.936,0,0,1-.1-4.239a1.347,1.347,0,0,1,.574.37,1.309,1.309,0,0,1,.257.562,4.737,4.737,0,0,1,.041.763v1.1A11.676,11.676,0,0,0,.821.017,1.839,1.839,0,0,0,1.029.6H.166A1.761,1.761,0,0,1,0,0M-.069-1.846a6.108,6.108,0,0,1-1.35.312,3.14,3.14,0,0,0-.721.165.721.721,0,0,0-.326.27.708.708,0,0,0-.115.392.7.7,0,0,0,.251.551A1.076,1.076,0,0,0-1.6.064,1.706,1.706,0,0,0-.749-.144,1.281,1.281,0,0,0-.2-.717a1.989,1.989,0,0,0,.133-.826Z" transform="translate(1418.017 2545.84)" fill="#20143b"/>
    <path id="Trazado_262" data-name="Trazado 262" d="M0,0V-.67L3.1-4.234c-.352.018-.662.027-.932.027H.184v-.67H4.17v.546l-2.641,3.1L1.02-.67q.555-.042,1.042-.042H4.317V0Z" transform="translate(1419.629 2546.442)" fill="#20143b"/>
    <path id="Trazado_263" data-name="Trazado 263" d="M0,0A3.076,3.076,0,0,1-.883.551,2.567,2.567,0,0,1-1.8.712,1.771,1.771,0,0,1-3.031.32a1.3,1.3,0,0,1-.432-1A1.328,1.328,0,0,1-3.3-1.338a1.356,1.356,0,0,1,.427-.476,1.977,1.977,0,0,1,.594-.271,5.9,5.9,0,0,1,.735-.124A7.582,7.582,0,0,0-.069-2.494c0-.113,0-.185,0-.216A.919.919,0,0,0-.3-3.422,1.391,1.391,0,0,0-1.24-3.7a1.462,1.462,0,0,0-.861.2,1.253,1.253,0,0,0-.411.723l-.808-.11a2,2,0,0,1,.362-.838,1.6,1.6,0,0,1,.73-.491,3.257,3.257,0,0,1,1.107-.173A2.936,2.936,0,0,1-.1-4.239a1.337,1.337,0,0,1,.573.37,1.3,1.3,0,0,1,.258.562,4.737,4.737,0,0,1,.041.763v1.1A11.471,11.471,0,0,0,.821.017,1.839,1.839,0,0,0,1.029.6H.166A1.739,1.739,0,0,1,0,0M-.069-1.846a6.108,6.108,0,0,1-1.35.312,3.126,3.126,0,0,0-.721.165.721.721,0,0,0-.326.27.7.7,0,0,0-.115.392.7.7,0,0,0,.251.551A1.075,1.075,0,0,0-1.6.064,1.706,1.706,0,0,0-.749-.144,1.281,1.281,0,0,0-.2-.717a1.989,1.989,0,0,0,.133-.826Z" transform="translate(1427.951 2545.84)" fill="#20143b"/>
    <path id="Trazado_264" data-name="Trazado 264" d="M0,0V-4.877H.744v.739a2.012,2.012,0,0,1,.527-.684A.916.916,0,0,1,1.8-4.988a1.61,1.61,0,0,1,.85.267l-.285.767a1.176,1.176,0,0,0-.606-.179.788.788,0,0,0-.487.164.88.88,0,0,0-.308.451,3.247,3.247,0,0,0-.137.965V0Z" transform="translate(1429.99 2546.442)" fill="#20143b"/>
    <path id="Trazado_265" data-name="Trazado 265" d="M0,0,.817-.129A1.145,1.145,0,0,0,1.2.625,1.335,1.335,0,0,0,2.08.886,1.288,1.288,0,0,0,2.925.655.7.7,0,0,0,3.2.11a.5.5,0,0,0-.243-.441,3.607,3.607,0,0,0-.846-.28,7.776,7.776,0,0,1-1.259-.4A1.217,1.217,0,0,1,.32-1.471a1.234,1.234,0,0,1-.182-.655,1.245,1.245,0,0,1,.15-.6,1.336,1.336,0,0,1,.405-.463,1.718,1.718,0,0,1,.527-.24,2.487,2.487,0,0,1,.713-.1,2.808,2.808,0,0,1,1.009.166,1.373,1.373,0,0,1,.64.448,1.744,1.744,0,0,1,.285.755l-.808.11a.886.886,0,0,0-.319-.588,1.176,1.176,0,0,0-.747-.211,1.355,1.355,0,0,0-.813.188.55.55,0,0,0-.243.441.451.451,0,0,0,.1.289.726.726,0,0,0,.316.221q.125.047.731.211a10.049,10.049,0,0,1,1.225.385,1.234,1.234,0,0,1,.543.433,1.208,1.208,0,0,1,.2.707A1.384,1.384,0,0,1,3.81.8a1.556,1.556,0,0,1-.7.565,2.536,2.536,0,0,1-1.029.2A2.29,2.29,0,0,1,.637,1.171,1.835,1.835,0,0,1,0,0" transform="translate(1432.801 2544.986)" fill="#20143b"/>
    <path id="Trazado_266" data-name="Trazado 266" d="M0,0,.854.1A2.083,2.083,0,0,1,.106,1.268a2.257,2.257,0,0,1-1.4.413,2.227,2.227,0,0,1-1.7-.659A2.575,2.575,0,0,1-3.614-.827a2.692,2.692,0,0,1,.634-1.91,2.144,2.144,0,0,1,1.644-.68,2.084,2.084,0,0,1,1.6.666A2.647,2.647,0,0,1,.882-.877c0,.049,0,.122-.005.22H-2.76A1.874,1.874,0,0,0-2.305.574,1.351,1.351,0,0,0-1.286,1,1.259,1.259,0,0,0-.51.762,1.575,1.575,0,0,0,0,0M-2.714-1.336H.009A1.646,1.646,0,0,0-.3-2.26a1.268,1.268,0,0,0-1.024-.477,1.312,1.312,0,0,0-.957.381,1.51,1.51,0,0,0-.43,1.02" transform="translate(1441.173 2544.871)" fill="#20143b"/>
    <path id="Trazado_267" data-name="Trazado 267" d="M0,0V-6.747H.753v.634a1.853,1.853,0,0,1,.6-.557,1.656,1.656,0,0,1,.813-.187,1.922,1.922,0,0,1,1.1.322,1.974,1.974,0,0,1,.721.907,3.317,3.317,0,0,1,.243,1.283A3.269,3.269,0,0,1,3.967-3a2.02,2.02,0,0,1-.781.918,2,2,0,0,1-1.078.319,1.547,1.547,0,0,1-.741-.175,1.682,1.682,0,0,1-.54-.441V0ZM.749-4.281A2.123,2.123,0,0,0,1.13-2.889a1.169,1.169,0,0,0,.923.45A1.2,1.2,0,0,0,3-2.9,2.219,2.219,0,0,0,3.39-4.349a2.162,2.162,0,0,0-.383-1.4,1.156,1.156,0,0,0-.917-.463,1.19,1.19,0,0,0-.934.494A2.206,2.206,0,0,0,.749-4.281" transform="translate(1445.678 2548.311)" fill="#20143b"/>
    <path id="Trazado_268" data-name="Trazado 268" d="M0,0A2.515,2.515,0,0,1,.753-2.007a2.272,2.272,0,0,1,1.534-.542,2.192,2.192,0,0,1,1.645.66A2.506,2.506,0,0,1,4.57-.069a3.222,3.222,0,0,1-.282,1.482,1.986,1.986,0,0,1-.822.837,2.4,2.4,0,0,1-1.179.3A2.19,2.19,0,0,1,.632,1.892,2.623,2.623,0,0,1,0,0M.85,0a2.083,2.083,0,0,0,.408,1.4,1.31,1.31,0,0,0,1.029.465A1.3,1.3,0,0,0,3.312,1.4,2.129,2.129,0,0,0,3.72-.028,2.013,2.013,0,0,0,3.31-1.4a1.313,1.313,0,0,0-1.023-.467A1.316,1.316,0,0,0,1.258-1.4,2.07,2.07,0,0,0,.85,0" transform="translate(1450.602 2544.003)" fill="#20143b"/>
    <path id="Trazado_269" data-name="Trazado 269" d="M0,0V-4.877H.744v.739a2.012,2.012,0,0,1,.527-.684A.914.914,0,0,1,1.8-4.988a1.61,1.61,0,0,1,.85.267l-.285.767a1.176,1.176,0,0,0-.606-.179.786.786,0,0,0-.487.164.875.875,0,0,0-.308.451,3.247,3.247,0,0,0-.137.965V0Z" transform="translate(1456.131 2546.442)" fill="#20143b"/>
    <path id="Trazado_270" data-name="Trazado 270" d="M0,0V-.615A1.519,1.519,0,0,1-1.364.11,1.913,1.913,0,0,1-2.436-.211a2.108,2.108,0,0,1-.757-.9,3.094,3.094,0,0,1-.27-1.326A3.466,3.466,0,0,1-3.22-3.758a1.928,1.928,0,0,1,.731-.913A1.952,1.952,0,0,1-1.4-4.988,1.624,1.624,0,0,1-.616-4.8a1.641,1.641,0,0,1,.561.484V-6.733H.767V0ZM-2.613-2.434a2.116,2.116,0,0,0,.395,1.4,1.19,1.19,0,0,0,.932.464,1.171,1.171,0,0,0,.922-.443A2.048,2.048,0,0,0,.014-2.365a2.3,2.3,0,0,0-.386-1.47A1.187,1.187,0,0,0-1.323-4.3a1.144,1.144,0,0,0-.92.45,2.224,2.224,0,0,0-.37,1.419" transform="translate(1465.05 2546.442)" fill="#20143b"/>
    <path id="Trazado_271" data-name="Trazado 271" d="M0,0H270.047V-100.958H0Z" transform="translate(1341 2589.916)" fill="none"/>
    <path id="Trazado_272" data-name="Trazado 272" d="M126.122-49.256h.827v-.95h-.827Zm0-.95,0,6.731h.827v-4.877h-.827Z" transform="translate(1341 2589.916)" fill="#20143b"/>
    <path id="Trazado_273" data-name="Trazado 273" d="M0,0,.817-.129A1.145,1.145,0,0,0,1.2.625a1.336,1.336,0,0,0,.879.261A1.287,1.287,0,0,0,2.925.655.7.7,0,0,0,3.2.11a.5.5,0,0,0-.243-.441,3.607,3.607,0,0,0-.846-.28,7.776,7.776,0,0,1-1.259-.4A1.223,1.223,0,0,1,.32-1.471a1.234,1.234,0,0,1-.182-.655,1.245,1.245,0,0,1,.15-.6,1.336,1.336,0,0,1,.405-.463,1.718,1.718,0,0,1,.527-.24,2.489,2.489,0,0,1,.714-.1,2.806,2.806,0,0,1,1.008.166,1.373,1.373,0,0,1,.64.448,1.744,1.744,0,0,1,.285.755l-.808.11a.886.886,0,0,0-.319-.588,1.176,1.176,0,0,0-.747-.211,1.355,1.355,0,0,0-.813.188.55.55,0,0,0-.243.441.451.451,0,0,0,.1.289.726.726,0,0,0,.316.221q.125.047.731.211a9.99,9.99,0,0,1,1.225.385,1.229,1.229,0,0,1,.543.433,1.208,1.208,0,0,1,.2.707A1.385,1.385,0,0,1,3.81.8a1.556,1.556,0,0,1-.7.565,2.536,2.536,0,0,1-1.029.2A2.29,2.29,0,0,1,.637,1.171,1.839,1.839,0,0,1,0,0" transform="translate(1468.876 2544.986)" fill="#20143b"/>
    <path id="Trazado_274" data-name="Trazado 274" d="M0,0,.119.73A3.064,3.064,0,0,1-.5.8,1.411,1.411,0,0,1-1.2.661.793.793,0,0,1-1.552.288a2.952,2.952,0,0,1-.1-.977V-3.495H-2.26v-.643h.607V-5.346l.821-.5v1.7H0v.643H-.832V-.643a1.433,1.433,0,0,0,.045.455.344.344,0,0,0,.142.16.547.547,0,0,0,.282.06A2.758,2.758,0,0,0,0,0" transform="translate(1475.714 2545.703)" fill="#20143b"/>
    <path id="Trazado_275" data-name="Trazado 275" d="M0,0H270.047V-100.958H0Z" transform="translate(1341 2589.916)" fill="none"/>
    <path id="Trazado_276" data-name="Trazado 276" d="M135.527-49.256h.826v-.95h-.826Zm0-.95,0,6.731h.826v-4.877h-.826Z" transform="translate(1341 2589.916)" fill="#20143b"/>
    <path id="Trazado_277" data-name="Trazado 277" d="M0,0V-4.877H.744v.693a1.753,1.753,0,0,1,1.552-.8,2.031,2.031,0,0,1,.811.16,1.264,1.264,0,0,1,.553.414,1.581,1.581,0,0,1,.257.611,4.692,4.692,0,0,1,.046.8V0H3.137V-2.967a2.252,2.252,0,0,0-.1-.754.8.8,0,0,0-.342-.4,1.088,1.088,0,0,0-.577-.15,1.339,1.339,0,0,0-.911.335A1.654,1.654,0,0,0,.827-2.664V0Z" transform="translate(1478.612 2546.442)" fill="#20143b"/>
    <path id="Trazado_278" data-name="Trazado 278" d="M0,0,.119.73A3.064,3.064,0,0,1-.5.8,1.416,1.416,0,0,1-1.2.661.8.8,0,0,1-1.553.288a2.98,2.98,0,0,1-.1-.977V-3.495H-2.26v-.643h.606V-5.346l.822-.5v1.7H0v.643H-.832V-.643a1.433,1.433,0,0,0,.045.455.344.344,0,0,0,.142.16.547.547,0,0,0,.282.06A2.758,2.758,0,0,0,0,0" transform="translate(1485.648 2545.703)" fill="#20143b"/>
    <path id="Trazado_279" data-name="Trazado 279" d="M0,0A2.515,2.515,0,0,1,.753-2.007a2.271,2.271,0,0,1,1.534-.542,2.19,2.19,0,0,1,1.644.66,2.5,2.5,0,0,1,.638,1.82,3.236,3.236,0,0,1-.281,1.482,1.986,1.986,0,0,1-.822.837,2.4,2.4,0,0,1-1.179.3A2.19,2.19,0,0,1,.632,1.892,2.623,2.623,0,0,1,0,0M.85,0a2.083,2.083,0,0,0,.408,1.4,1.31,1.31,0,0,0,1.029.465A1.3,1.3,0,0,0,3.311,1.4,2.129,2.129,0,0,0,3.72-.028,2.018,2.018,0,0,0,3.31-1.4a1.313,1.313,0,0,0-1.023-.467A1.316,1.316,0,0,0,1.258-1.4,2.07,2.07,0,0,0,.85,0" transform="translate(1486.149 2544.003)" fill="#20143b"/>
    <path id="Trazado_280" data-name="Trazado 280" d="M0,0,.817-.129A1.145,1.145,0,0,0,1.2.625a1.338,1.338,0,0,0,.879.261A1.287,1.287,0,0,0,2.925.655.7.7,0,0,0,3.2.11a.5.5,0,0,0-.243-.441,3.611,3.611,0,0,0-.845-.28,7.762,7.762,0,0,1-1.26-.4A1.228,1.228,0,0,1,.32-1.471a1.234,1.234,0,0,1-.182-.655,1.245,1.245,0,0,1,.15-.6,1.336,1.336,0,0,1,.405-.463,1.718,1.718,0,0,1,.527-.24,2.489,2.489,0,0,1,.714-.1,2.806,2.806,0,0,1,1.008.166,1.373,1.373,0,0,1,.64.448,1.744,1.744,0,0,1,.285.755l-.808.11a.882.882,0,0,0-.319-.588,1.176,1.176,0,0,0-.747-.211,1.357,1.357,0,0,0-.813.188.55.55,0,0,0-.243.441.456.456,0,0,0,.1.289.724.724,0,0,0,.317.221c.082.031.326.1.73.211a9.99,9.99,0,0,1,1.225.385,1.229,1.229,0,0,1,.543.433,1.208,1.208,0,0,1,.2.707A1.392,1.392,0,0,1,3.811.8a1.564,1.564,0,0,1-.7.565,2.536,2.536,0,0,1-1.029.2A2.29,2.29,0,0,1,.637,1.171,1.839,1.839,0,0,1,0,0" transform="translate(1491.357 2544.986)" fill="#20143b"/>
    <path id="Trazado_281" data-name="Trazado 281" d="M0,0H270.047V-100.958H0Z" transform="translate(1341 2589.916)" fill="none"/>
    <path id="Trazado_282" data-name="Trazado 282" d="M157.985-43.475h.827v-6.732h-.827Z" transform="translate(1341 2589.916)" fill="#20143b"/>
    <path id="Trazado_283" data-name="Trazado 283" d="M0,0V-.716A1.784,1.784,0,0,1-1.547.11a1.977,1.977,0,0,1-.806-.165A1.319,1.319,0,0,1-2.908-.47a1.562,1.562,0,0,1-.256-.614,4.151,4.151,0,0,1-.051-.771V-4.877h.827v2.7a4.765,4.765,0,0,0,.051.872.863.863,0,0,0,.33.513A1.027,1.027,0,0,0-1.382-.6a1.35,1.35,0,0,0,.7-.19A1.058,1.058,0,0,0-.222-1.31a2.6,2.6,0,0,0,.135-.954V-4.877H.74V0Z" transform="translate(1504.29 2546.442)" fill="#20143b"/>
    <path id="Trazado_284" data-name="Trazado 284" d="M0,0,.8.119a.763.763,0,0,0,.28.542,1.376,1.376,0,0,0,.84.23,1.478,1.478,0,0,0,.887-.23A1.126,1.126,0,0,0,3.233.018a5.264,5.264,0,0,0,.06-1.061A1.7,1.7,0,0,1,1.942-.4,1.839,1.839,0,0,1,.386-1.13,2.792,2.792,0,0,1-.166-2.871,3.24,3.24,0,0,1,.087-4.158,2.015,2.015,0,0,1,.82-5.07a1.975,1.975,0,0,1,1.127-.322,1.749,1.749,0,0,1,1.424.7v-.588h.762v4.216A4,4,0,0,1,3.9.55a1.7,1.7,0,0,1-.735.75,2.555,2.555,0,0,1-1.238.275,2.332,2.332,0,0,1-1.41-.392A1.328,1.328,0,0,1,0,0M.684-2.93a2.118,2.118,0,0,0,.381,1.4,1.211,1.211,0,0,0,.956.441,1.222,1.222,0,0,0,.955-.437A2.053,2.053,0,0,0,3.362-2.9a2,2,0,0,0-.4-1.35,1.231,1.231,0,0,0-.958-.455,1.194,1.194,0,0,0-.937.449A1.989,1.989,0,0,0,.684-2.93" transform="translate(1506.173 2546.846)" fill="#20143b"/>
    <path id="Trazado_285" data-name="Trazado 285" d="M0,0A3.076,3.076,0,0,1-.883.551,2.567,2.567,0,0,1-1.8.712,1.769,1.769,0,0,1-3.031.32a1.3,1.3,0,0,1-.432-1A1.328,1.328,0,0,1-3.3-1.338a1.356,1.356,0,0,1,.427-.476,1.977,1.977,0,0,1,.594-.271,5.9,5.9,0,0,1,.735-.124A7.6,7.6,0,0,0-.069-2.494c0-.113,0-.185,0-.216A.915.915,0,0,0-.3-3.422,1.386,1.386,0,0,0-1.24-3.7a1.46,1.46,0,0,0-.861.2,1.247,1.247,0,0,0-.411.723l-.809-.11a2.015,2.015,0,0,1,.363-.838,1.6,1.6,0,0,1,.73-.491,3.257,3.257,0,0,1,1.107-.173,2.93,2.93,0,0,1,1.015.147,1.341,1.341,0,0,1,.574.37,1.31,1.31,0,0,1,.258.562,4.737,4.737,0,0,1,.041.763v1.1A11.756,11.756,0,0,0,.82.017,1.839,1.839,0,0,0,1.028.6H.165A1.761,1.761,0,0,1,0,0M-.069-1.846a6.108,6.108,0,0,1-1.35.312,3.126,3.126,0,0,0-.721.165.721.721,0,0,0-.326.27.7.7,0,0,0-.115.392.7.7,0,0,0,.251.551A1.072,1.072,0,0,0-1.6.064a1.707,1.707,0,0,0,.85-.208A1.292,1.292,0,0,0-.2-.717a1.989,1.989,0,0,0,.133-.826Z" transform="translate(1514.738 2545.84)" fill="#20143b"/>
    <path id="Trazado_286" data-name="Trazado 286" d="M0,0V-4.877H.744v.739a2.012,2.012,0,0,1,.527-.684A.914.914,0,0,1,1.8-4.988a1.61,1.61,0,0,1,.85.267l-.285.767a1.176,1.176,0,0,0-.606-.179.786.786,0,0,0-.487.164.875.875,0,0,0-.308.451,3.247,3.247,0,0,0-.137.965V0Z" transform="translate(1516.777 2546.442)" fill="#20143b"/>
    <path id="Trazado_287" data-name="Trazado 287" d="M0,0,.854.1A2.083,2.083,0,0,1,.106,1.268a2.257,2.257,0,0,1-1.4.413,2.227,2.227,0,0,1-1.7-.659A2.575,2.575,0,0,1-3.614-.827a2.692,2.692,0,0,1,.634-1.91,2.144,2.144,0,0,1,1.644-.68,2.084,2.084,0,0,1,1.6.666A2.647,2.647,0,0,1,.882-.877c0,.049,0,.122-.005.22H-2.76A1.874,1.874,0,0,0-2.305.574,1.351,1.351,0,0,0-1.286,1,1.259,1.259,0,0,0-.51.762,1.575,1.575,0,0,0,0,0M-2.714-1.336H.009A1.646,1.646,0,0,0-.3-2.26a1.268,1.268,0,0,0-1.024-.477,1.312,1.312,0,0,0-.957.381,1.51,1.51,0,0,0-.43,1.02" transform="translate(1523.257 2544.871)" fill="#20143b"/>
    <path id="Trazado_288" data-name="Trazado 288" d="M0,0,.817-.129A1.145,1.145,0,0,0,1.2.625a1.338,1.338,0,0,0,.879.261A1.292,1.292,0,0,0,2.926.655.7.7,0,0,0,3.2.11a.5.5,0,0,0-.243-.441,3.593,3.593,0,0,0-.845-.28,7.762,7.762,0,0,1-1.26-.4A1.228,1.228,0,0,1,.32-1.471a1.234,1.234,0,0,1-.182-.655,1.245,1.245,0,0,1,.15-.6,1.336,1.336,0,0,1,.405-.463,1.718,1.718,0,0,1,.527-.24,2.494,2.494,0,0,1,.714-.1,2.806,2.806,0,0,1,1.008.166,1.371,1.371,0,0,1,.641.448,1.757,1.757,0,0,1,.284.755l-.808.11a.882.882,0,0,0-.319-.588,1.174,1.174,0,0,0-.747-.211,1.359,1.359,0,0,0-.813.188.55.55,0,0,0-.243.441.456.456,0,0,0,.1.289.724.724,0,0,0,.317.221c.082.031.326.1.73.211a9.99,9.99,0,0,1,1.225.385,1.237,1.237,0,0,1,.544.433,1.215,1.215,0,0,1,.2.707A1.392,1.392,0,0,1,3.811.8a1.559,1.559,0,0,1-.7.565,2.536,2.536,0,0,1-1.029.2A2.29,2.29,0,0,1,.637,1.171,1.839,1.839,0,0,1,0,0" transform="translate(1524.819 2544.986)" fill="#20143b"/>
    <path id="Trazado_289" data-name="Trazado 289" d="M0,0A8.259,8.259,0,0,1-1.157-2.021a6.265,6.265,0,0,1-.473-2.4,6.231,6.231,0,0,1,.354-2.094A8.789,8.789,0,0,1,0-8.827H.593q-.556.956-.735,1.364A7.39,7.39,0,0,0-.583-6.14a7.657,7.657,0,0,0-.2,1.726A8.286,8.286,0,0,0,.593,0Z" transform="translate(1534.045 2548.421)" fill="#20143b"/>
    <path id="Trazado_290" data-name="Trazado 290" d="M0,0H270.047V-100.958H0Z" transform="translate(1341 2589.916)" fill="none"/>
    <path id="Trazado_291" data-name="Trazado 291" d="M0,0V-6.733H.914L4.45-1.447V-6.733H5.3V0H4.391L.854-5.291V0Z" transform="translate(1535.694 2546.442)" fill="#20143b"/>
    <path id="Trazado_292" data-name="Trazado 292" d="M201.4-49.256h.827v-.95H201.4Zm0-.95,0,6.731h.827v-4.877H201.4Z" transform="translate(1341 2589.916)" fill="#20143b"/>
    <path id="Trazado_293" data-name="Trazado 293" d="M0,0-1.855-4.877h.872L.064-1.956q.171.472.312.982Q.487-1.359.684-1.9L1.768-4.877h.85L.771,0Z" transform="translate(1545.835 2546.442)" fill="#20143b"/>
    <path id="Trazado_294" data-name="Trazado 294" d="M0,0,.854.1A2.084,2.084,0,0,1,.1,1.268a2.252,2.252,0,0,1-1.4.413,2.227,2.227,0,0,1-1.7-.659A2.576,2.576,0,0,1-3.615-.827a2.7,2.7,0,0,1,.634-1.91,2.148,2.148,0,0,1,1.645-.68,2.087,2.087,0,0,1,1.6.666A2.647,2.647,0,0,1,.882-.877c0,.049,0,.122-.005.22H-2.76A1.879,1.879,0,0,0-2.306.574,1.354,1.354,0,0,0-1.286,1,1.259,1.259,0,0,0-.51.762,1.575,1.575,0,0,0,0,0M-2.714-1.336H.009A1.661,1.661,0,0,0-.3-2.26a1.268,1.268,0,0,0-1.025-.477,1.312,1.312,0,0,0-.956.381,1.505,1.505,0,0,0-.43,1.02" transform="translate(1552.522 2544.871)" fill="#20143b"/>
    <path id="Trazado_295" data-name="Trazado 295" d="M0,0H270.047V-100.958H0Z" transform="translate(1341 2589.916)" fill="none"/>
    <path id="Trazado_296" data-name="Trazado 296" d="M213.4-43.475h.827v-6.732H213.4Z" transform="translate(1341 2589.916)" fill="#20143b"/>
    <path id="Trazado_297" data-name="Trazado 297" d="M0,0V.794H-4.45a1.473,1.473,0,0,1,.1-.574,3.024,3.024,0,0,1,.545-.9A8.5,8.5,0,0,1-2.728-1.7,9.082,9.082,0,0,0-1.245-3.12a1.7,1.7,0,0,0,.386-.995,1.1,1.1,0,0,0-.35-.828,1.27,1.27,0,0,0-.917-.338,1.29,1.29,0,0,0-.955.358,1.352,1.352,0,0,0-.363.992l-.849-.088a2.088,2.088,0,0,1,.656-1.448,2.241,2.241,0,0,1,1.529-.5,2.132,2.132,0,0,1,1.534.538A1.762,1.762,0,0,1-.009-4.1a2.026,2.026,0,0,1-.165.8,3.1,3.1,0,0,1-.549.822A13.263,13.263,0,0,1-2-1.295c-.5.416-.814.7-.955.848A2.748,2.748,0,0,0-3.3,0Z" transform="translate(1563.232 2545.647)" fill="#20143b"/>
    <path id="Trazado_298" data-name="Trazado 298" d="M0,0H-.592A8.293,8.293,0,0,0,.781-4.414a7.531,7.531,0,0,0-.2-1.713A7.161,7.161,0,0,0,.147-7.449,15.451,15.451,0,0,0-.592-8.827H0A8.794,8.794,0,0,1,1.277-6.512,6.23,6.23,0,0,1,1.63-4.418a6.247,6.247,0,0,1-.474,2.4A8.421,8.421,0,0,1,0,0" transform="translate(1564.89 2548.421)" fill="#20143b"/>
    <path id="Trazado_299" data-name="Trazado 299" d="M0,0H2.484A4.839,4.839,0,0,1,3.766.129a2.25,2.25,0,0,1,1.015.62,2.941,2.941,0,0,1,.643,1.09,4.969,4.969,0,0,1,.221,1.592,4.391,4.391,0,0,1-.208,1.433,2.951,2.951,0,0,1-.72,1.189,2.39,2.39,0,0,1-.956.538,4.11,4.11,0,0,1-1.2.142H0ZM1.359,1.139V5.6H2.375A3.676,3.676,0,0,0,3.2,5.534a1.249,1.249,0,0,0,.55-.28A1.422,1.422,0,0,0,4.1,4.6a4.384,4.384,0,0,0,.138-1.233,4.022,4.022,0,0,0-.138-1.2,1.544,1.544,0,0,0-.386-.652A1.3,1.3,0,0,0,3.086,1.2,6.162,6.162,0,0,0,1.97,1.139Z" transform="translate(1390.847 2562.283)" fill="#20143b"/>
    <path id="Trazado_300" data-name="Trazado 300" d="M0,0,1.286.216A2.109,2.109,0,0,1,.5,1.292a2.3,2.3,0,0,1-1.339.371A2.181,2.181,0,0,1-2.718.831,2.789,2.789,0,0,1-3.2-.85a2.7,2.7,0,0,1,.634-1.9,2.088,2.088,0,0,1,1.6-.685,2.162,2.162,0,0,1,1.717.718,3.181,3.181,0,0,1,.6,2.2H-1.878a1.3,1.3,0,0,0,.312.892A.977.977,0,0,0-.822.7.792.792,0,0,0-.312.533,1.034,1.034,0,0,0,0,0M.073-1.3a1.241,1.241,0,0,0-.289-.853.885.885,0,0,0-.67-.291.9.9,0,0,0-.7.308,1.19,1.19,0,0,0-.271.836Z" transform="translate(1400.458 2567.464)" fill="#20143b"/>
    <path id="Trazado_301" data-name="Trazado 301" d="M0,0,1.295-.2A.95.95,0,0,0,1.63.374a1.134,1.134,0,0,0,.707.2A1.284,1.284,0,0,0,3.091.386a.412.412,0,0,0,.17-.345A.338.338,0,0,0,3.169-.2a1.04,1.04,0,0,0-.432-.17A6.958,6.958,0,0,1,.758-1,1.256,1.256,0,0,1,.179-2.1a1.352,1.352,0,0,1,.5-1.065A2.335,2.335,0,0,1,2.232-3.6,2.711,2.711,0,0,1,3.72-3.27a1.674,1.674,0,0,1,.671.965L3.173-2.08a.753.753,0,0,0-.3-.437,1.088,1.088,0,0,0-.623-.151,1.4,1.4,0,0,0-.731.142.309.309,0,0,0-.147.262.284.284,0,0,0,.129.234,4.842,4.842,0,0,0,1.206.363,3.569,3.569,0,0,1,1.439.574,1.193,1.193,0,0,1,.405.96A1.476,1.476,0,0,1,4,1.02,2.486,2.486,0,0,1,2.337,1.5,2.719,2.719,0,0,1,.761,1.1,1.867,1.867,0,0,1,0,0" transform="translate(1402.411 2567.625)" fill="#20143b"/>
    <path id="Trazado_302" data-name="Trazado 302" d="M0,0H1.2V.717a1.8,1.8,0,0,1,.634-.6A1.749,1.749,0,0,1,2.723-.11,1.86,1.86,0,0,1,4.166.556a2.694,2.694,0,0,1,.592,1.855,2.777,2.777,0,0,1-.6,1.9,1.862,1.862,0,0,1-1.447.678,1.645,1.645,0,0,1-.732-.161,2.47,2.47,0,0,1-.691-.551V6.733H0ZM1.277,2.356A1.873,1.873,0,0,0,1.6,3.57a1,1,0,0,0,.794.394A.933.933,0,0,0,3.146,3.6a1.853,1.853,0,0,0,.3-1.182,1.765,1.765,0,0,0-.307-1.139A.952.952,0,0,0,2.375.909a.988.988,0,0,0-.786.365,1.626,1.626,0,0,0-.312,1.082" transform="translate(1408.06 2564.139)" fill="#20143b"/>
    <path id="Trazado_303" data-name="Trazado 303" d="M0,0H270.047V-100.958H0Z" transform="translate(1341 2589.916)" fill="none"/>
    <path id="Trazado_304" data-name="Trazado 304" d="M72.842-27.633h1.291V-20.9H72.842Z" transform="translate(1341 2589.916)" fill="#20143b"/>
    <path id="Trazado_305" data-name="Trazado 305" d="M0,0-1.171-.211A1.819,1.819,0,0,1-.492-1.258,2.487,2.487,0,0,1,.941-1.6a3.093,3.093,0,0,1,1.286.2,1.294,1.294,0,0,1,.6.519A2.67,2.67,0,0,1,2.994.28L2.98,1.787a5.223,5.223,0,0,0,.063.947,2.747,2.747,0,0,0,.231.655H2c-.034-.085-.075-.212-.124-.381-.022-.076-.037-.127-.046-.151a2.335,2.335,0,0,1-.707.482,2.033,2.033,0,0,1-.8.161A1.662,1.662,0,0,1-.87,3.091,1.361,1.361,0,0,1-1.3,2.058a1.387,1.387,0,0,1,.2-.738,1.289,1.289,0,0,1,.554-.5A4.293,4.293,0,0,1,.473.524,7.106,7.106,0,0,0,1.727.207V.078a.668.668,0,0,0-.184-.531A1.1,1.1,0,0,0,.85-.611a.928.928,0,0,0-.538.135A.946.946,0,0,0,0,0M1.727,1.047c-.165.055-.428.121-.786.2a2.328,2.328,0,0,0-.7.225.537.537,0,0,0-.253.454.633.633,0,0,0,.2.469.708.708,0,0,0,.515.2,1.121,1.121,0,0,0,.666-.229.817.817,0,0,0,.307-.427,2.533,2.533,0,0,0,.051-.63Z" transform="translate(1417.42 2565.627)" fill="#20143b"/>
    <path id="Trazado_306" data-name="Trazado 306" d="M0,0V-1.006L1.828-3.1q.45-.516.666-.731-.225.014-.593.019L.179-3.807v-1.07H4.211v.914L2.347-1.814,1.69-1.1c.358-.022.58-.032.666-.032h2V0Z" transform="translate(1421.167 2569.016)" fill="#20143b"/>
    <path id="Trazado_307" data-name="Trazado 307" d="M0,0-1.171-.211a1.815,1.815,0,0,1,.68-1.047A2.481,2.481,0,0,1,.941-1.6a3.1,3.1,0,0,1,1.287.2,1.3,1.3,0,0,1,.6.519A2.666,2.666,0,0,1,2.995.28L2.981,1.787a5.244,5.244,0,0,0,.062.947,2.8,2.8,0,0,0,.232.655H2c-.034-.085-.075-.212-.124-.381-.021-.076-.037-.127-.046-.151a2.335,2.335,0,0,1-.707.482,2.029,2.029,0,0,1-.8.161A1.665,1.665,0,0,1-.87,3.091,1.36,1.36,0,0,1-1.3,2.058a1.387,1.387,0,0,1,.2-.738,1.281,1.281,0,0,1,.553-.5A4.293,4.293,0,0,1,.473.524,7.106,7.106,0,0,0,1.727.207V.078a.668.668,0,0,0-.184-.531A1.1,1.1,0,0,0,.85-.611a.928.928,0,0,0-.538.135A.946.946,0,0,0,0,0M1.727,1.047q-.247.082-.786.2a2.328,2.328,0,0,0-.7.225.539.539,0,0,0-.253.454.637.637,0,0,0,.2.469.71.71,0,0,0,.515.2,1.116,1.116,0,0,0,.666-.229.812.812,0,0,0,.307-.427,2.533,2.533,0,0,0,.051-.63Z" transform="translate(1427.354 2565.627)" fill="#20143b"/>
    <path id="Trazado_308" data-name="Trazado 308" d="M0,0H-1.291V-4.877h1.2v.693a2.115,2.115,0,0,1,.554-.648,1.02,1.02,0,0,1,.558-.156,1.646,1.646,0,0,1,.85.244l-.4,1.125A1.134,1.134,0,0,0,.864-3.83a.721.721,0,0,0-.46.148,1.028,1.028,0,0,0-.3.541A7.635,7.635,0,0,0,0-1.506Z" transform="translate(1432.855 2569.016)" fill="#20143b"/>
    <path id="Trazado_309" data-name="Trazado 309" d="M0,0,1.295-.2a.952.952,0,0,0,.336.572,1.132,1.132,0,0,0,.707.2A1.28,1.28,0,0,0,3.091.386a.41.41,0,0,0,.17-.345A.338.338,0,0,0,3.169-.2a1.027,1.027,0,0,0-.432-.17A6.971,6.971,0,0,1,.758-1,1.256,1.256,0,0,1,.179-2.1a1.352,1.352,0,0,1,.5-1.065A2.336,2.336,0,0,1,2.232-3.6,2.709,2.709,0,0,1,3.72-3.27a1.665,1.665,0,0,1,.671.965L3.174-2.08a.75.75,0,0,0-.3-.437,1.086,1.086,0,0,0-.623-.151,1.4,1.4,0,0,0-.73.142.307.307,0,0,0-.147.262.284.284,0,0,0,.129.234,4.809,4.809,0,0,0,1.206.363,3.582,3.582,0,0,1,1.439.574,1.2,1.2,0,0,1,.4.96A1.476,1.476,0,0,1,4,1.02,2.483,2.483,0,0,1,2.338,1.5,2.72,2.72,0,0,1,.761,1.1,1.871,1.871,0,0,1,0,0" transform="translate(1434.826 2567.625)" fill="#20143b"/>
    <path id="Trazado_310" data-name="Trazado 310" d="M0,0,1.286.216A2.109,2.109,0,0,1,.5,1.292a2.3,2.3,0,0,1-1.339.371A2.181,2.181,0,0,1-2.718.831,2.789,2.789,0,0,1-3.2-.85a2.7,2.7,0,0,1,.633-1.9,2.088,2.088,0,0,1,1.6-.685,2.162,2.162,0,0,1,1.717.718,3.181,3.181,0,0,1,.6,2.2H-1.878a1.3,1.3,0,0,0,.312.892A.977.977,0,0,0-.822.7.792.792,0,0,0-.312.533,1.034,1.034,0,0,0,0,0M.073-1.3a1.241,1.241,0,0,0-.289-.853.884.884,0,0,0-.67-.291.9.9,0,0,0-.7.308,1.19,1.19,0,0,0-.271.836Z" transform="translate(1443.335 2567.464)" fill="#20143b"/>
    <path id="Trazado_311" data-name="Trazado 311" d="M0,0H.716V-.367a2.442,2.442,0,0,1,.132-.919A1.039,1.039,0,0,1,1.33-1.78a1.848,1.848,0,0,1,.888-.19A3.6,3.6,0,0,1,3.3-1.8l-.174.9A2.55,2.55,0,0,0,2.53-.978a.528.528,0,0,0-.4.13.762.762,0,0,0-.122.5V0h.964V1.015H2.007V4.877H.716V1.015H0Z" transform="translate(1447.791 2564.139)" fill="#20143b"/>
    <path id="Trazado_312" data-name="Trazado 312" d="M0,0V-.73a1.878,1.878,0,0,1-.7.615A1.964,1.964,0,0,1-1.617.11,1.8,1.8,0,0,1-2.5-.106a1.273,1.273,0,0,1-.564-.606,2.691,2.691,0,0,1-.175-1.079V-4.877h1.291v2.241a6.139,6.139,0,0,0,.072,1.26.685.685,0,0,0,.258.367.8.8,0,0,0,.478.136,1.017,1.017,0,0,0,.593-.182A.924.924,0,0,0-.188-1.5a5.24,5.24,0,0,0,.1-1.315V-4.877H1.2V0Z" transform="translate(1454.698 2569.016)" fill="#20143b"/>
    <path id="Trazado_313" data-name="Trazado 313" d="M0,0,1.286.216A2.109,2.109,0,0,1,.5,1.292a2.3,2.3,0,0,1-1.338.371A2.182,2.182,0,0,1-2.718.831,2.789,2.789,0,0,1-3.2-.85a2.694,2.694,0,0,1,.634-1.9,2.086,2.086,0,0,1,1.6-.685,2.162,2.162,0,0,1,1.717.718,3.181,3.181,0,0,1,.6,2.2H-1.878a1.3,1.3,0,0,0,.312.892A.977.977,0,0,0-.822.7.792.792,0,0,0-.312.533,1.02,1.02,0,0,0,0,0M.073-1.3a1.241,1.241,0,0,0-.289-.853.884.884,0,0,0-.67-.291.9.9,0,0,0-.7.308,1.19,1.19,0,0,0-.271.836Z" transform="translate(1460.057 2567.464)" fill="#20143b"/>
    <path id="Trazado_314" data-name="Trazado 314" d="M0,0H-1.291V-4.877h1.2v.693a2.115,2.115,0,0,1,.554-.648,1.02,1.02,0,0,1,.558-.156,1.646,1.646,0,0,1,.85.244l-.4,1.125A1.134,1.134,0,0,0,.864-3.83a.721.721,0,0,0-.46.148,1.028,1.028,0,0,0-.3.541A7.635,7.635,0,0,0,0-1.506Z" transform="translate(1463.7 2569.016)" fill="#20143b"/>
    <path id="Trazado_315" data-name="Trazado 315" d="M0,0-1.171-.211A1.819,1.819,0,0,1-.492-1.258,2.487,2.487,0,0,1,.941-1.6a3.1,3.1,0,0,1,1.287.2,1.3,1.3,0,0,1,.6.519A2.67,2.67,0,0,1,2.994.28L2.98,1.787a5.223,5.223,0,0,0,.063.947,2.747,2.747,0,0,0,.231.655H2c-.034-.085-.075-.212-.124-.381-.021-.076-.037-.127-.046-.151a2.335,2.335,0,0,1-.707.482,2.029,2.029,0,0,1-.8.161A1.665,1.665,0,0,1-.87,3.091,1.36,1.36,0,0,1-1.3,2.058a1.386,1.386,0,0,1,.2-.738,1.289,1.289,0,0,1,.554-.5A4.293,4.293,0,0,1,.473.524,7.106,7.106,0,0,0,1.727.207V.078a.668.668,0,0,0-.184-.531A1.1,1.1,0,0,0,.85-.611a.928.928,0,0,0-.538.135A.946.946,0,0,0,0,0M1.727,1.047q-.247.082-.786.2a2.328,2.328,0,0,0-.7.225.537.537,0,0,0-.253.454.637.637,0,0,0,.2.469.71.71,0,0,0,.515.2,1.119,1.119,0,0,0,.666-.229.812.812,0,0,0,.307-.427,2.533,2.533,0,0,0,.051-.63Z" transform="translate(1467.089 2565.627)" fill="#20143b"/>
    <path id="Trazado_316" data-name="Trazado 316" d="M0,0H-1.2V-.717a1.927,1.927,0,0,1-.7.622,1.816,1.816,0,0,1-.821.2A1.857,1.857,0,0,1-4.163-.568a2.757,2.757,0,0,1-.6-1.889,2.724,2.724,0,0,1,.584-1.886A1.9,1.9,0,0,1-2.7-4.988a1.824,1.824,0,0,1,1.414.68V-6.733H0ZM-3.444-2.544a2.23,2.23,0,0,0,.215,1.129.977.977,0,0,0,.873.506.951.951,0,0,0,.758-.38A1.748,1.748,0,0,0-1.286-2.42a1.915,1.915,0,0,0-.3-1.211A.957.957,0,0,0-2.365-4a.97.97,0,0,0-.769.364,1.658,1.658,0,0,0-.31,1.092" transform="translate(1478.442 2569.016)" fill="#20143b"/>
    <path id="Trazado_317" data-name="Trazado 317" d="M0,0,1.286.216A2.1,2.1,0,0,1,.5,1.292a2.3,2.3,0,0,1-1.339.371A2.183,2.183,0,0,1-2.719.831,2.789,2.789,0,0,1-3.2-.85a2.694,2.694,0,0,1,.634-1.9,2.088,2.088,0,0,1,1.6-.685,2.162,2.162,0,0,1,1.717.718,3.186,3.186,0,0,1,.6,2.2H-1.878a1.3,1.3,0,0,0,.312.892A.977.977,0,0,0-.822.7.792.792,0,0,0-.312.533,1.027,1.027,0,0,0,0,0M.073-1.3a1.241,1.241,0,0,0-.289-.853.884.884,0,0,0-.67-.291.9.9,0,0,0-.7.308,1.19,1.19,0,0,0-.271.836Z" transform="translate(1482.539 2567.464)" fill="#20143b"/>
    <path id="Trazado_318" data-name="Trazado 318" d="M0,0H270.047V-100.958H0Z" transform="translate(1341 2589.916)" fill="none"/>
    <path id="Trazado_319" data-name="Trazado 319" d="M143.945-27.633h1.291V-20.9h-1.291Z" transform="translate(1341 2589.916)" fill="#20143b"/>
    <path id="Trazado_320" data-name="Trazado 320" d="M0,0V2.476a1.9,1.9,0,0,1,1.493-.731,1.893,1.893,0,0,1,.8.166,1.308,1.308,0,0,1,.54.422,1.509,1.509,0,0,1,.248.57,5.048,5.048,0,0,1,.066.969V6.733H1.86V4.156a3.869,3.869,0,0,0-.073-.973.643.643,0,0,0-.259-.329.83.83,0,0,0-.467-.121,1.07,1.07,0,0,0-.574.156.893.893,0,0,0-.369.47A2.814,2.814,0,0,0,0,4.29V6.733H-1.291V0Z" transform="translate(1491.458 2562.283)" fill="#20143b"/>
    <path id="Trazado_321" data-name="Trazado 321" d="M0,0A2.642,2.642,0,0,1,.317-1.245a2.176,2.176,0,0,1,.9-.918,2.652,2.652,0,0,1,1.3-.317,2.438,2.438,0,0,1,1.815.718A2.486,2.486,0,0,1,5.034.055,2.511,2.511,0,0,1,4.32,1.889a2.413,2.413,0,0,1-1.8.729,2.833,2.833,0,0,1-1.278-.3,2.077,2.077,0,0,1-.926-.89A2.96,2.96,0,0,1,0,0M1.323.069A1.612,1.612,0,0,0,1.667,1.18a1.1,1.1,0,0,0,.85.386,1.089,1.089,0,0,0,.848-.386A1.636,1.636,0,0,0,3.707.06a1.607,1.607,0,0,0-.342-1.1,1.086,1.086,0,0,0-.848-.386,1.093,1.093,0,0,0-.85.386A1.612,1.612,0,0,0,1.323.069" transform="translate(1495.619 2566.509)" fill="#20143b"/>
    <path id="Trazado_322" data-name="Trazado 322" d="M0,0,1.474.179a.5.5,0,0,0,.17.354A.97.97,0,0,0,2.223.67,1.5,1.5,0,0,0,2.98.519.62.62,0,0,0,3.238.193,2,2,0,0,0,3.3-.4v-.711a1.745,1.745,0,0,1-1.46.789A1.8,1.8,0,0,1,.28-1.153,2.825,2.825,0,0,1-.17-2.788,2.689,2.689,0,0,1,.421-4.662a1.9,1.9,0,0,1,1.467-.647,1.787,1.787,0,0,1,1.492.794V-5.2H4.588V-.822A4.368,4.368,0,0,1,4.446.469a1.606,1.606,0,0,1-.4.67,1.769,1.769,0,0,1-.686.381,3.613,3.613,0,0,1-1.087.138A2.807,2.807,0,0,1,.514,1.232,1.33,1.33,0,0,1,0,.156C0,.113,0,.061,0,0M1.153-2.861a1.762,1.762,0,0,0,.3,1.136.931.931,0,0,0,.741.361,1.023,1.023,0,0,0,.8-.371A1.6,1.6,0,0,0,3.32-2.829a1.709,1.709,0,0,0-.312-1.125.992.992,0,0,0-.79-.368.953.953,0,0,0-.764.36,1.7,1.7,0,0,0-.3,1.1" transform="translate(1501.543 2569.338)" fill="#20143b"/>
    <path id="Trazado_323" data-name="Trazado 323" d="M0,0-1.171-.211a1.815,1.815,0,0,1,.68-1.047A2.481,2.481,0,0,1,.941-1.6a3.1,3.1,0,0,1,1.287.2,1.3,1.3,0,0,1,.6.519A2.666,2.666,0,0,1,2.995.28L2.981,1.787a5.244,5.244,0,0,0,.062.947,2.8,2.8,0,0,0,.232.655H2c-.034-.085-.075-.212-.124-.381-.021-.076-.037-.127-.046-.151a2.335,2.335,0,0,1-.707.482,2.029,2.029,0,0,1-.8.161A1.665,1.665,0,0,1-.87,3.091,1.36,1.36,0,0,1-1.3,2.058a1.4,1.4,0,0,1,.2-.738,1.289,1.289,0,0,1,.554-.5A4.293,4.293,0,0,1,.473.524,7.106,7.106,0,0,0,1.727.207V.078a.668.668,0,0,0-.184-.531A1.1,1.1,0,0,0,.85-.611a.928.928,0,0,0-.538.135A.946.946,0,0,0,0,0M1.727,1.047q-.247.082-.786.2a2.328,2.328,0,0,0-.7.225.537.537,0,0,0-.253.454.637.637,0,0,0,.2.469.71.71,0,0,0,.515.2,1.119,1.119,0,0,0,.666-.229.812.812,0,0,0,.307-.427,2.533,2.533,0,0,0,.051-.63Z" transform="translate(1508.373 2565.627)" fill="#20143b"/>
    <path id="Trazado_324" data-name="Trazado 324" d="M0,0H-1.291V-4.877h1.2v.693a2.115,2.115,0,0,1,.554-.648,1.02,1.02,0,0,1,.558-.156,1.64,1.64,0,0,1,.849.244l-.4,1.125A1.134,1.134,0,0,0,.864-3.83a.721.721,0,0,0-.46.148,1.028,1.028,0,0,0-.3.541A7.635,7.635,0,0,0,0-1.506Z" transform="translate(1513.875 2569.016)" fill="#20143b"/>
    <path id="Trazado_325" data-name="Trazado 325" d="M0,0H1.374L2.54,3.463,3.679,0H5.016L3.293,4.694l-.308.849a3.527,3.527,0,0,1-.322.653,1.43,1.43,0,0,1-.354.364,1.55,1.55,0,0,1-.492.219,2.557,2.557,0,0,1-.659.078,3.431,3.431,0,0,1-.731-.078L.312,5.769a2.93,2.93,0,0,0,.547.059.811.811,0,0,0,.666-.265,1.814,1.814,0,0,0,.33-.672Z" transform="translate(1518.302 2564.139)" fill="#20143b"/>
    <path id="Trazado_326" data-name="Trazado 326" d="M0,0H-1.2V-.717a1.927,1.927,0,0,1-.7.622,1.816,1.816,0,0,1-.821.2A1.857,1.857,0,0,1-4.163-.568a2.757,2.757,0,0,1-.6-1.889A2.729,2.729,0,0,1-4.18-4.343,1.9,1.9,0,0,1-2.7-4.988a1.826,1.826,0,0,1,1.414.68V-6.733H0ZM-3.445-2.544a2.228,2.228,0,0,0,.216,1.129.976.976,0,0,0,.873.506.948.948,0,0,0,.757-.38A1.742,1.742,0,0,0-1.286-2.42a1.915,1.915,0,0,0-.3-1.211A.958.958,0,0,0-2.365-4a.97.97,0,0,0-.769.364,1.658,1.658,0,0,0-.311,1.092" transform="translate(1531.23 2569.016)" fill="#20143b"/>
    <path id="Trazado_327" data-name="Trazado 327" d="M0,0,1.286.216A2.1,2.1,0,0,1,.5,1.292a2.3,2.3,0,0,1-1.339.371A2.183,2.183,0,0,1-2.719.831,2.789,2.789,0,0,1-3.2-.85a2.694,2.694,0,0,1,.634-1.9,2.086,2.086,0,0,1,1.6-.685,2.163,2.163,0,0,1,1.718.718,3.181,3.181,0,0,1,.6,2.2H-1.878a1.3,1.3,0,0,0,.312.892A.977.977,0,0,0-.822.7.792.792,0,0,0-.312.533,1.034,1.034,0,0,0,0,0M.073-1.3a1.241,1.241,0,0,0-.289-.853.886.886,0,0,0-.671-.291.9.9,0,0,0-.7.308,1.181,1.181,0,0,0-.271.836Z" transform="translate(1535.327 2567.464)" fill="#20143b"/>
    <path id="Trazado_328" data-name="Trazado 328" d="M0,0A2.63,2.63,0,0,1,.317-1.245a2.173,2.173,0,0,1,.9-.918,2.656,2.656,0,0,1,1.3-.317,2.436,2.436,0,0,1,1.814.718A2.482,2.482,0,0,1,5.033.055,2.51,2.51,0,0,1,4.32,1.889a2.413,2.413,0,0,1-1.8.729,2.827,2.827,0,0,1-1.278-.3,2.077,2.077,0,0,1-.926-.89A2.948,2.948,0,0,1,0,0M1.323.069A1.612,1.612,0,0,0,1.667,1.18a1.1,1.1,0,0,0,.85.386,1.089,1.089,0,0,0,.848-.386A1.636,1.636,0,0,0,3.706.06a1.607,1.607,0,0,0-.341-1.1,1.086,1.086,0,0,0-.848-.386,1.091,1.091,0,0,0-.85.386A1.612,1.612,0,0,0,1.323.069" transform="translate(1540.048 2566.509)" fill="#20143b"/>
    <path id="Trazado_329" data-name="Trazado 329" d="M0,0V1.029H-.882V2.994a4.545,4.545,0,0,0,.027.695.28.28,0,0,0,.114.164.363.363,0,0,0,.218.064A1.686,1.686,0,0,0,0,3.794l.11,1a2.577,2.577,0,0,1-1.02.193,1.621,1.621,0,0,1-.629-.118.911.911,0,0,1-.41-.3,1.174,1.174,0,0,1-.182-.5,6.144,6.144,0,0,1-.042-.909V1.029h-.592V0h.592V-.969l1.3-.753V0Z" transform="translate(1548.329 2564.139)" fill="#20143b"/>
    <path id="Trazado_330" data-name="Trazado 330" d="M0,0H-1.291V-4.877h1.2v.693a2.1,2.1,0,0,1,.554-.648,1.017,1.017,0,0,1,.558-.156,1.64,1.64,0,0,1,.849.244l-.4,1.125A1.128,1.128,0,0,0,.863-3.83.718.718,0,0,0,.4-3.682a1.021,1.021,0,0,0-.3.541A7.728,7.728,0,0,0,0-1.506Z" transform="translate(1550.46 2569.016)" fill="#20143b"/>
    <path id="Trazado_331" data-name="Trazado 331" d="M0,0A2.642,2.642,0,0,1,.317-1.245a2.176,2.176,0,0,1,.9-.918,2.652,2.652,0,0,1,1.3-.317,2.438,2.438,0,0,1,1.815.718A2.486,2.486,0,0,1,5.034.055,2.511,2.511,0,0,1,4.32,1.889a2.413,2.413,0,0,1-1.8.729,2.833,2.833,0,0,1-1.278-.3,2.077,2.077,0,0,1-.926-.89A2.96,2.96,0,0,1,0,0M1.323.069A1.612,1.612,0,0,0,1.667,1.18a1.1,1.1,0,0,0,.85.386,1.089,1.089,0,0,0,.848-.386A1.636,1.636,0,0,0,3.707.06a1.607,1.607,0,0,0-.342-1.1,1.086,1.086,0,0,0-.848-.386,1.093,1.093,0,0,0-.85.386A1.612,1.612,0,0,0,1.323.069" transform="translate(1552.586 2566.509)" fill="#20143b"/>
    <path id="Trazado_332" data-name="Trazado 332" d="M0,0,1.295-.2A.95.95,0,0,0,1.63.374a1.137,1.137,0,0,0,.708.2A1.282,1.282,0,0,0,3.091.386a.412.412,0,0,0,.17-.345A.338.338,0,0,0,3.169-.2a1.034,1.034,0,0,0-.432-.17A6.971,6.971,0,0,1,.758-1,1.256,1.256,0,0,1,.179-2.1a1.352,1.352,0,0,1,.5-1.065A2.336,2.336,0,0,1,2.232-3.6,2.711,2.711,0,0,1,3.72-3.27a1.67,1.67,0,0,1,.671.965L3.174-2.08a.755.755,0,0,0-.3-.437,1.086,1.086,0,0,0-.623-.151,1.4,1.4,0,0,0-.73.142.307.307,0,0,0-.147.262.285.285,0,0,0,.128.234,4.84,4.84,0,0,0,1.207.363,3.582,3.582,0,0,1,1.439.574,1.2,1.2,0,0,1,.4.96A1.476,1.476,0,0,1,4,1.02,2.485,2.485,0,0,1,2.338,1.5,2.72,2.72,0,0,1,.761,1.1,1.871,1.871,0,0,1,0,0" transform="translate(1558.175 2567.625)" fill="#20143b"/>
    <path id="Trazado_333" data-name="Trazado 333" d="M0,0,1.286.216A2.107,2.107,0,0,1,.5,1.292a2.3,2.3,0,0,1-1.339.371A2.182,2.182,0,0,1-2.718.831,2.789,2.789,0,0,1-3.2-.85a2.694,2.694,0,0,1,.634-1.9,2.086,2.086,0,0,1,1.6-.685,2.161,2.161,0,0,1,1.717.718,3.181,3.181,0,0,1,.6,2.2H-1.878a1.3,1.3,0,0,0,.313.892A.973.973,0,0,0-.822.7.792.792,0,0,0-.312.533,1.02,1.02,0,0,0,0,0M.074-1.3a1.247,1.247,0,0,0-.29-.853.884.884,0,0,0-.67-.291.9.9,0,0,0-.7.308,1.19,1.19,0,0,0-.271.836Z" transform="translate(1569.298 2567.464)" fill="#20143b"/>
    <path id="Trazado_334" data-name="Trazado 334" d="M0,0H-1.2V-.717a1.927,1.927,0,0,1-.7.622,1.816,1.816,0,0,1-.821.2A1.857,1.857,0,0,1-4.163-.568a2.757,2.757,0,0,1-.6-1.889,2.724,2.724,0,0,1,.584-1.886A1.9,1.9,0,0,1-2.7-4.988a1.824,1.824,0,0,1,1.414.68V-6.733H0ZM-3.445-2.544a2.228,2.228,0,0,0,.216,1.129.977.977,0,0,0,.873.506.951.951,0,0,0,.758-.38A1.748,1.748,0,0,0-1.286-2.42a1.915,1.915,0,0,0-.3-1.211A.957.957,0,0,0-2.365-4a.97.97,0,0,0-.769.364,1.658,1.658,0,0,0-.311,1.092" transform="translate(1576.179 2569.016)" fill="#20143b"/>
    <path id="Trazado_335" data-name="Trazado 335" d="M0,0H270.047V-100.958H0Z" transform="translate(1341 2589.916)" fill="none"/>
    <path id="Trazado_336" data-name="Trazado 336" d="M236.451-27.633h1.291v1.194h-1.291Zm0,1.195,0,.661h1.291V-20.9h-1.291Z" transform="translate(1341 2589.916)" fill="#20143b"/>
    <path id="Trazado_337" data-name="Trazado 337" d="M0,0H.716V-.367a2.442,2.442,0,0,1,.132-.919,1.037,1.037,0,0,1,.483-.494,1.841,1.841,0,0,1,.887-.19A3.594,3.594,0,0,1,3.3-1.8l-.174.9a2.548,2.548,0,0,0-.592-.073.529.529,0,0,0-.4.13.762.762,0,0,0-.122.5V0h.965V1.015H2.007V4.877H.716V1.015H0Z" transform="translate(1579.499 2564.139)" fill="#20143b"/>
    <path id="Trazado_338" data-name="Trazado 338" d="M0,0H270.047V-100.958H0Z" transform="translate(1341 2589.916)" fill="none"/>
    <path id="Trazado_339" data-name="Trazado 339" d="M242.2-27.633h1.291v1.194H242.2Zm0,1.195,0,.661h1.291V-20.9H242.2Z" transform="translate(1341 2589.916)" fill="#20143b"/>
    <path id="Trazado_340" data-name="Trazado 340" d="M0,0-1.272.23a.92.92,0,0,0-.291-.574.88.88,0,0,0-.591-.193A.961.961,0,0,0-2.922-.2,1.7,1.7,0,0,0-3.21.909a1.966,1.966,0,0,0,.293,1.226.952.952,0,0,0,.782.359.872.872,0,0,0,.6-.21A1.252,1.252,0,0,0-1.2,1.566l1.267.216A2.247,2.247,0,0,1-.693,3.1a2.347,2.347,0,0,1-1.5.446A2.225,2.225,0,0,1-3.9,2.87,2.614,2.614,0,0,1-4.538,1,2.622,2.622,0,0,1-3.9-.88a2.264,2.264,0,0,1,1.727-.672A2.365,2.365,0,0,1-.754-1.17,2.132,2.132,0,0,1,0,0" transform="translate(1590.062 2565.581)" fill="#20143b"/>
    <path id="Trazado_341" data-name="Trazado 341" d="M0,0H270.047V-100.958H0Z" transform="translate(1341 2589.916)" fill="none"/>
    <path id="Trazado_342" data-name="Trazado 342" d="M250.041-27.633h1.291v1.194h-1.291Zm0,1.195,0,.661h1.291V-20.9h-1.291Z" transform="translate(1341 2589.916)" fill="#20143b"/>
    <path id="Trazado_343" data-name="Trazado 343" d="M0,0A2.642,2.642,0,0,1,.317-1.245a2.17,2.17,0,0,1,.9-.918,2.652,2.652,0,0,1,1.3-.317,2.434,2.434,0,0,1,1.814.718A2.483,2.483,0,0,1,5.034.055,2.511,2.511,0,0,1,4.32,1.889a2.413,2.413,0,0,1-1.8.729,2.833,2.833,0,0,1-1.278-.3,2.077,2.077,0,0,1-.926-.89A2.96,2.96,0,0,1,0,0M1.323.069A1.612,1.612,0,0,0,1.667,1.18a1.1,1.1,0,0,0,.85.386,1.089,1.089,0,0,0,.848-.386A1.636,1.636,0,0,0,3.707.06a1.607,1.607,0,0,0-.342-1.1,1.086,1.086,0,0,0-.848-.386,1.093,1.093,0,0,0-.85.386A1.612,1.612,0,0,0,1.323.069" transform="translate(1593.355 2566.509)" fill="#20143b"/>
    <path id="Trazado_344" data-name="Trazado 344" d="M0,0,1.295-.2A.95.95,0,0,0,1.63.374a1.137,1.137,0,0,0,.708.2A1.282,1.282,0,0,0,3.091.386a.412.412,0,0,0,.17-.345A.338.338,0,0,0,3.169-.2a1.034,1.034,0,0,0-.432-.17A6.971,6.971,0,0,1,.758-1,1.256,1.256,0,0,1,.179-2.1a1.352,1.352,0,0,1,.5-1.065A2.336,2.336,0,0,1,2.232-3.6,2.711,2.711,0,0,1,3.72-3.27a1.674,1.674,0,0,1,.671.965L3.173-2.08a.749.749,0,0,0-.3-.437,1.086,1.086,0,0,0-.623-.151,1.4,1.4,0,0,0-.73.142.307.307,0,0,0-.147.262.285.285,0,0,0,.128.234,4.84,4.84,0,0,0,1.207.363,3.582,3.582,0,0,1,1.439.574,1.2,1.2,0,0,1,.4.96A1.476,1.476,0,0,1,4,1.02,2.485,2.485,0,0,1,2.338,1.5,2.72,2.72,0,0,1,.761,1.1,1.871,1.871,0,0,1,0,0" transform="translate(1598.944 2567.625)" fill="#20143b"/>
    <path id="Trazado_345" data-name="Trazado 345" d="M0,0A8.24,8.24,0,0,1-1.157-2.021a6.261,6.261,0,0,1-.473-2.4,6.255,6.255,0,0,1,.353-2.094A8.794,8.794,0,0,1,0-8.827H.593q-.556.956-.735,1.364A7.39,7.39,0,0,0-.583-6.14a7.657,7.657,0,0,0-.2,1.726A8.283,8.283,0,0,0,.593,0Z" transform="translate(1392.367 2582.283)" fill="#20143b"/>
    <path id="Trazado_346" data-name="Trazado 346" d="M0,0H270.047V-100.958H0Z" transform="translate(1341 2589.916)" fill="none"/>
    <path id="Trazado_347" data-name="Trazado 347" d="M0,0V-6.733H.914L4.45-1.447V-6.733H5.3V0H4.391L.854-5.291V0Z" transform="translate(1394.016 2580.303)" fill="#20143b"/>
    <path id="Trazado_348" data-name="Trazado 348" d="M59.716-15.4h.827v-.95h-.827Zm0-.95,0,6.732h.827V-14.49h-.827Z" transform="translate(1341 2589.916)" fill="#20143b"/>
    <path id="Trazado_349" data-name="Trazado 349" d="M0,0-1.855-4.877h.872L.064-1.956q.171.472.312.982Q.487-1.359.684-1.9L1.768-4.877h.85L.771,0Z" transform="translate(1404.156 2580.303)" fill="#20143b"/>
    <path id="Trazado_350" data-name="Trazado 350" d="M0,0,.854.106A2.085,2.085,0,0,1,.1,1.268a2.252,2.252,0,0,1-1.4.413,2.231,2.231,0,0,1-1.7-.66A2.573,2.573,0,0,1-3.615-.827a2.7,2.7,0,0,1,.634-1.91,2.148,2.148,0,0,1,1.645-.68,2.087,2.087,0,0,1,1.6.666A2.648,2.648,0,0,1,.882-.877c0,.049,0,.122-.005.22H-2.76A1.874,1.874,0,0,0-2.306.574,1.354,1.354,0,0,0-1.286,1,1.259,1.259,0,0,0-.51.762,1.575,1.575,0,0,0,0,0M-2.714-1.336H.009A1.661,1.661,0,0,0-.3-2.26a1.268,1.268,0,0,0-1.025-.477,1.312,1.312,0,0,0-.956.381,1.505,1.505,0,0,0-.43,1.02" transform="translate(1410.843 2578.733)" fill="#20143b"/>
    <path id="Trazado_351" data-name="Trazado 351" d="M0,0H270.047V-100.958H0Z" transform="translate(1341 2589.916)" fill="none"/>
    <path id="Trazado_352" data-name="Trazado 352" d="M71.717-9.613h.827v-6.732h-.827Z" transform="translate(1341 2589.916)" fill="#20143b"/>
    <path id="Trazado_353" data-name="Trazado 353" d="M0,0,.827-.11A1.823,1.823,0,0,0,1.312.9a1.2,1.2,0,0,0,.833.311A1.336,1.336,0,0,0,3.131.808a1.362,1.362,0,0,0,.4-1,1.27,1.27,0,0,0-.372-.94A1.287,1.287,0,0,0,2.214-1.5a2.394,2.394,0,0,0-.584.092l.093-.725a1.262,1.262,0,0,0,.132.009A1.7,1.7,0,0,0,2.806-2.4a.942.942,0,0,0,.423-.849,1.006,1.006,0,0,0-.308-.754,1.093,1.093,0,0,0-.8-.3,1.125,1.125,0,0,0-.8.3,1.515,1.515,0,0,0-.413.909L.083-3.238A2.129,2.129,0,0,1,.772-4.527a1.994,1.994,0,0,1,1.336-.456,2.2,2.2,0,0,1,1.015.236,1.7,1.7,0,0,1,.71.646,1.646,1.646,0,0,1,.246.868,1.425,1.425,0,0,1-.235.8,1.6,1.6,0,0,1-.693.569,1.566,1.566,0,0,1,.928.571,1.744,1.744,0,0,1,.33,1.087,1.984,1.984,0,0,1-.643,1.494A2.262,2.262,0,0,1,2.14,1.9,2.114,2.114,0,0,1,.669,1.369,2.046,2.046,0,0,1,0,0" transform="translate(1417.213 2578.526)" fill="#20143b"/>
    <path id="Trazado_354" data-name="Trazado 354" d="M0,0H-.592A8.291,8.291,0,0,0,.781-4.414a7.516,7.516,0,0,0-.2-1.712A7.146,7.146,0,0,0,.147-7.449,15.451,15.451,0,0,0-.592-8.827H0A8.794,8.794,0,0,1,1.277-6.512,6.23,6.23,0,0,1,1.63-4.418a6.244,6.244,0,0,1-.474,2.4A8.4,8.4,0,0,1,0,0" transform="translate(1423.211 2582.283)" fill="#20143b"/>
    <path id="Trazado_355" data-name="Trazado 355" d="M0,0V-.615A1.519,1.519,0,0,1-1.364.11,1.913,1.913,0,0,1-2.436-.211a2.111,2.111,0,0,1-.757-.9,3.09,3.09,0,0,1-.27-1.325A3.471,3.471,0,0,1-3.22-3.759a1.925,1.925,0,0,1,.731-.912A1.952,1.952,0,0,1-1.4-4.988,1.623,1.623,0,0,1-.616-4.8a1.643,1.643,0,0,1,.561.485V-6.733H.767V0ZM-2.613-2.434a2.118,2.118,0,0,0,.395,1.4,1.189,1.189,0,0,0,.932.463,1.171,1.171,0,0,0,.922-.443A2.045,2.045,0,0,0,.014-2.365a2.294,2.294,0,0,0-.386-1.47A1.187,1.187,0,0,0-1.323-4.3a1.144,1.144,0,0,0-.92.45,2.224,2.224,0,0,0-.37,1.419" transform="translate(1352.258 2501.295)" fill="#20143b"/>
    <path id="Trazado_356" data-name="Trazado 356" d="M0,0V-.615A1.519,1.519,0,0,1-1.364.11,1.913,1.913,0,0,1-2.436-.211a2.114,2.114,0,0,1-.757-.9,3.085,3.085,0,0,1-.27-1.324A3.476,3.476,0,0,1-3.22-3.76a1.927,1.927,0,0,1,.731-.911A1.952,1.952,0,0,1-1.4-4.988,1.612,1.612,0,0,1-.616-4.8a1.643,1.643,0,0,1,.561.485V-6.733H.767V0ZM-2.613-2.434a2.118,2.118,0,0,0,.395,1.4,1.189,1.189,0,0,0,.932.463,1.174,1.174,0,0,0,.922-.443A2.046,2.046,0,0,0,.014-2.365a2.294,2.294,0,0,0-.386-1.47A1.187,1.187,0,0,0-1.323-4.3a1.144,1.144,0,0,0-.92.45,2.224,2.224,0,0,0-.37,1.419" transform="translate(1352.258 2523.869)" fill="#20143b"/>
    <path id="Trazado_357" data-name="Trazado 357" d="M0,0H270.047V-100.958H0Z" transform="translate(1341 2589.916)" fill="none"/>
    <path id="Trazado_358" data-name="Trazado 358" d="M0,0V-1.612H-2.921V-2.37L.152-6.733H.827V-2.37h.909v.758H.827V0ZM0-2.37V-5.406L-2.108-2.37Z" transform="translate(1356.745 2523.869)" fill="#20143b"/>
    <path id="Trazado_359" data-name="Trazado 359" d="M0,0V-.615A1.519,1.519,0,0,1-1.364.11,1.913,1.913,0,0,1-2.436-.211a2.108,2.108,0,0,1-.757-.9,3.094,3.094,0,0,1-.27-1.326A3.466,3.466,0,0,1-3.22-3.758a1.928,1.928,0,0,1,.731-.913A1.952,1.952,0,0,1-1.4-4.988,1.624,1.624,0,0,1-.616-4.8a1.641,1.641,0,0,1,.561.484V-6.733H.767V0ZM-2.613-2.434a2.116,2.116,0,0,0,.395,1.4,1.19,1.19,0,0,0,.932.464,1.171,1.171,0,0,0,.922-.443A2.048,2.048,0,0,0,.014-2.365a2.3,2.3,0,0,0-.386-1.47A1.187,1.187,0,0,0-1.323-4.3a1.144,1.144,0,0,0-.92.45,2.224,2.224,0,0,0-.37,1.419" transform="translate(1352.258 2546.442)" fill="#20143b"/>
    <path id="Trazado_360" data-name="Trazado 360" d="M0,0H270.047V-100.958H0Z" transform="translate(1341 2589.916)" fill="none"/>
    <path id="Trazado_361" data-name="Trazado 361" d="M0,0V-1.612H-2.921V-2.37L.152-6.733H.827V-2.37h.909v.758H.827V0ZM0-2.37V-5.406L-2.108-2.37Z" transform="translate(1356.745 2546.442)" fill="#20143b"/>
    <path id="Trazado_362" data-name="Trazado 362" d="M0,0-.822.064a1.572,1.572,0,0,0-.312-.707A1.094,1.094,0,0,0-1.961-1a1.133,1.133,0,0,0-.693.221A1.881,1.881,0,0,0-3.27.055,4.34,4.34,0,0,0-3.5,1.612a1.914,1.914,0,0,1,.73-.675,1.963,1.963,0,0,1,.9-.22,1.874,1.874,0,0,1,1.408.609A2.178,2.178,0,0,1,.12,2.9,2.594,2.594,0,0,1-.153,4.077,1.984,1.984,0,0,1-.9,4.909a2.047,2.047,0,0,1-1.084.29,2.118,2.118,0,0,1-1.685-.76,3.835,3.835,0,0,1-.652-2.505A4.49,4.49,0,0,1-3.605-.9a2.072,2.072,0,0,1,1.694-.771,1.9,1.9,0,0,1,1.3.445A1.89,1.89,0,0,1,0,0M-3.375,2.9a1.917,1.917,0,0,0,.182.817,1.353,1.353,0,0,0,.506.6,1.266,1.266,0,0,0,.685.2A1.168,1.168,0,0,0-1.1,4.1,1.666,1.666,0,0,0-.726,2.948a1.555,1.555,0,0,0-.372-1.1,1.222,1.222,0,0,0-.937-.4,1.274,1.274,0,0,0-.95.4A1.445,1.445,0,0,0-3.375,2.9" transform="translate(1363.615 2541.358)" fill="#20143b"/>
    <path id="Trazado_363" data-name="Trazado 363" d="M0,0A6.143,6.143,0,0,1,.247-1.921a2.391,2.391,0,0,1,.73-1.124A1.866,1.866,0,0,1,2.195-3.44a1.993,1.993,0,0,1,.951.219,1.812,1.812,0,0,1,.675.629,3.367,3.367,0,0,1,.418,1A6.653,6.653,0,0,1,4.391,0a6.165,6.165,0,0,1-.244,1.914A2.39,2.39,0,0,1,3.42,3.039a1.874,1.874,0,0,1-1.225.4,1.849,1.849,0,0,1-1.529-.7A4.436,4.436,0,0,1,0,0M.85,0a4.223,4.223,0,0,0,.389,2.208,1.142,1.142,0,0,0,.956.547A1.143,1.143,0,0,0,3.154,2.2,4.22,4.22,0,0,0,3.541,0a4.22,4.22,0,0,0-.387-2.209,1.155,1.155,0,0,0-.968-.547,1.058,1.058,0,0,0-.909.483A4.266,4.266,0,0,0,.85,0" transform="translate(1364.557 2543.122)" fill="#20143b"/>
    <path id="Trazado_364" data-name="Trazado 364" d="M0,0V-.615A1.519,1.519,0,0,1-1.364.11,1.913,1.913,0,0,1-2.436-.211a2.114,2.114,0,0,1-.757-.9,3.085,3.085,0,0,1-.27-1.324A3.48,3.48,0,0,1-3.22-3.76a1.927,1.927,0,0,1,.731-.911A1.952,1.952,0,0,1-1.4-4.988,1.623,1.623,0,0,1-.616-4.8a1.643,1.643,0,0,1,.561.485V-6.733H.767V0ZM-2.613-2.434a2.118,2.118,0,0,0,.395,1.4,1.189,1.189,0,0,0,.932.463,1.174,1.174,0,0,0,.922-.443A2.046,2.046,0,0,0,.014-2.365a2.3,2.3,0,0,0-.386-1.47A1.187,1.187,0,0,0-1.323-4.3a1.144,1.144,0,0,0-.92.45,2.224,2.224,0,0,0-.37,1.419" transform="translate(1352.258 2569.016)" fill="#20143b"/>
    <path id="Trazado_365" data-name="Trazado 365" d="M0,0H270.047V-100.958H0Z" transform="translate(1341 2589.916)" fill="none"/>
    <path id="Trazado_366" data-name="Trazado 366" d="M0,0V-1.612H-2.921V-2.37L.152-6.733H.827V-2.37h.909v.758H.827V0ZM0-2.37V-5.406L-2.108-2.37Z" transform="translate(1356.745 2569.016)" fill="#20143b"/>
    <path id="Trazado_367" data-name="Trazado 367" d="M0,0-.822.064a1.572,1.572,0,0,0-.312-.707A1.094,1.094,0,0,0-1.961-1a1.133,1.133,0,0,0-.693.221A1.881,1.881,0,0,0-3.27.055,4.34,4.34,0,0,0-3.5,1.612a1.914,1.914,0,0,1,.73-.675,1.964,1.964,0,0,1,.9-.221,1.873,1.873,0,0,1,1.408.608A2.184,2.184,0,0,1,.12,2.9,2.588,2.588,0,0,1-.153,4.075,1.983,1.983,0,0,1-.9,4.909a2.047,2.047,0,0,1-1.084.29,2.118,2.118,0,0,1-1.685-.761,3.835,3.835,0,0,1-.652-2.505A4.489,4.489,0,0,1-3.605-.9a2.072,2.072,0,0,1,1.694-.771,1.9,1.9,0,0,1,1.3.445A1.89,1.89,0,0,1,0,0M-3.375,2.9a1.917,1.917,0,0,0,.182.817,1.35,1.35,0,0,0,.506.594,1.275,1.275,0,0,0,.685.2A1.168,1.168,0,0,0-1.1,4.1,1.666,1.666,0,0,0-.726,2.948a1.557,1.557,0,0,0-.372-1.1,1.221,1.221,0,0,0-.937-.4,1.273,1.273,0,0,0-.95.4A1.447,1.447,0,0,0-3.375,2.9" transform="translate(1363.615 2563.932)" fill="#20143b"/>
    <path id="Trazado_368" data-name="Trazado 368" d="M0,0A6.161,6.161,0,0,1,.247-1.923a2.394,2.394,0,0,1,.73-1.122A1.866,1.866,0,0,1,2.195-3.44a1.981,1.981,0,0,1,.951.218,1.812,1.812,0,0,1,.675.629,3.367,3.367,0,0,1,.418,1A6.662,6.662,0,0,1,4.391,0a6.147,6.147,0,0,1-.244,1.912A2.39,2.39,0,0,1,3.42,3.037a1.869,1.869,0,0,1-1.225.4,1.846,1.846,0,0,1-1.529-.7A4.434,4.434,0,0,1,0,0M.85,0a4.214,4.214,0,0,0,.389,2.206,1.143,1.143,0,0,0,.956.55A1.146,1.146,0,0,0,3.154,2.2,4.227,4.227,0,0,0,3.541,0a4.22,4.22,0,0,0-.387-2.209,1.155,1.155,0,0,0-.968-.547,1.058,1.058,0,0,0-.909.483A4.266,4.266,0,0,0,.85,0" transform="translate(1364.557 2565.696)" fill="#20143b"/>
    <path id="Trazado_369" data-name="Trazado 369" d="M0,0V.794H-4.449a1.454,1.454,0,0,1,.1-.574,3.024,3.024,0,0,1,.545-.9A8.5,8.5,0,0,1-2.728-1.7,9.133,9.133,0,0,0-1.244-3.122a1.705,1.705,0,0,0,.386-.993,1.107,1.107,0,0,0-.351-.83,1.27,1.27,0,0,0-.917-.337,1.291,1.291,0,0,0-.955.359,1.352,1.352,0,0,0-.363.992l-.849-.088a2.1,2.1,0,0,1,.656-1.45,2.241,2.241,0,0,1,1.53-.5,2.132,2.132,0,0,1,1.533.537A1.765,1.765,0,0,1-.009-4.1a2.026,2.026,0,0,1-.165.8,3.12,3.12,0,0,1-.548.822A13.3,13.3,0,0,1-2-1.295q-.743.624-.955.846A2.794,2.794,0,0,0-3.3,0Z" transform="translate(1374.132 2568.222)" fill="#20143b"/>
    <path id="Trazado_370" data-name="Trazado 370" d="M0,0H-265.055" transform="translate(1608.053 2589.416)" fill="none" stroke="#20143b" stroke-width="1" stroke-dasharray="0.995 1.995"/>
    <path id="Trazado_371" data-name="Trazado 371" d="M0,0V-95.922" transform="translate(1341.5 2586.894)" fill="none" stroke="#20143b" stroke-width="1" stroke-dasharray="1.015 2.015"/>
    <path id="Trazado_372" data-name="Trazado 372" d="M0,0H265.055" transform="translate(1343.995 2489.458)" fill="none" stroke="#20143b" stroke-width="1" stroke-dasharray="0.995 1.995"/>
    <path id="Trazado_373" data-name="Trazado 373" d="M0,0V95.922" transform="translate(1610.547 2491.98)" fill="none" stroke="#20143b" stroke-width="1" stroke-dasharray="1.015 2.015"/>
    <path id="Trazado_374" data-name="Trazado 374" d="M0,0H-.5V-.507m0-98.944v-.507H0m268.047,0h.5v.507m0,98.944V0h-.5" transform="translate(1342 2589.416)" fill="none" stroke="#20143b" stroke-width="1"/>
    <path id="Trazado_375" data-name="Trazado 375" d="M0,0H269.047" transform="translate(1341.5 2508.511)" fill="none" stroke="#20143b" stroke-width="1" stroke-dasharray="1.006 2.006"/>
    <path id="Trazado_376" data-name="Trazado 376" d="M0,0H269.047" transform="translate(1341.5 2531.779)" fill="none" stroke="#20143b" stroke-width="1" stroke-dasharray="1.006 2.006"/>
    <path id="Trazado_377" data-name="Trazado 377" d="M0,0H269.047" transform="translate(1341.5 2555.795)" fill="none" stroke="#20143b" stroke-width="1" stroke-dasharray="1.006 2.006"/>
    <path id="Trazado_378" data-name="Trazado 378" d="M0,0V99.958" transform="translate(1385.015 2489.458)" fill="none" stroke="#20143b" stroke-width="1" stroke-dasharray="0.999 1.999"/>
    <path id="Trazado_379" data-name="Trazado 379" d="M0,0H270.047V-100.958H0Z" transform="translate(1341 2589.916)" fill="none"/>
  </g>
</svg>
