<svg xmlns="http://www.w3.org/2000/svg" width="269.669" height="173.328" viewBox="0 0 269.669 173.328">
  <g id="Grupo_21" data-name="Grupo 21" transform="translate(-1145 -1807.328)">
    <g id="Grupo_20" data-name="Grupo 20">
      <path id="Trazado_83" data-name="Trazado 83" d="M0,0-.16,5.375" transform="translate(1224.159 1886.647)" fill="none" stroke="#161f60" stroke-width="7"/>
      <path id="Trazado_84" data-name="Trazado 84" d="M0,0-22.8-.6l11.1,11.695Z" transform="translate(1235.284 1890.817)" fill="#161f60"/>
      <path id="Trazado_85" data-name="Trazado 85" d="M0,0-.161,5.374" transform="translate(1298.532 1886.647)" fill="none" stroke="#161f60" stroke-width="7"/>
      <path id="Trazado_86" data-name="Trazado 86" d="M0,0-22.794-.6-11.7,11.091Z" transform="translate(1309.872 1890.817)" fill="#161f60"/>
      <path id="Trazado_87" data-name="Trazado 87" d="M0,0-.162,5.374" transform="translate(1379.379 1886.647)" fill="none" stroke="#161f60" stroke-width="7"/>
      <path id="Trazado_88" data-name="Trazado 88" d="M0,0-22.794-.605-11.7,11.09Z" transform="translate(1390.952 1890.818)" fill="#161f60"/>
      <path id="Trazado_93" data-name="Trazado 93" d="M5.838-2.9l1.542.489A3.457,3.457,0,0,1,6.2-.491,3.363,3.363,0,0,1,4.109.134,3.387,3.387,0,0,1,1.531-.937a4.1,4.1,0,0,1-1.01-2.93A4.3,4.3,0,0,1,1.536-6.921,3.481,3.481,0,0,1,4.206-8.008a3.275,3.275,0,0,1,2.347.854A3.106,3.106,0,0,1,7.358-5.7l-1.574.376A1.669,1.669,0,0,0,5.2-6.295a1.67,1.67,0,0,0-1.077-.354A1.792,1.792,0,0,0,2.7-6.021a3.08,3.08,0,0,0-.545,2.036A3.3,3.3,0,0,0,2.7-1.858a1.744,1.744,0,0,0,1.4.634,1.593,1.593,0,0,0,1.09-.4A2.34,2.34,0,0,0,5.838-2.9Zm2.583-.994a5.008,5.008,0,0,1,.36-2.02,3.706,3.706,0,0,1,.733-1.08A3.066,3.066,0,0,1,10.533-7.7a4.323,4.323,0,0,1,1.7-.312,3.7,3.7,0,0,1,2.785,1.08,4.138,4.138,0,0,1,1.045,3A4.124,4.124,0,0,1,15.023-.943,3.668,3.668,0,0,1,12.251.134,3.706,3.706,0,0,1,9.458-.937,4.066,4.066,0,0,1,8.422-3.889Zm1.638-.054a2.95,2.95,0,0,0,.618,2.028,2.013,2.013,0,0,0,1.568.69,2,2,0,0,0,1.56-.685,3.009,3.009,0,0,0,.61-2.054,2.961,2.961,0,0,0-.594-2.02,2.008,2.008,0,0,0-1.576-.666,2.021,2.021,0,0,0-1.584.674A2.975,2.975,0,0,0,10.06-3.942Zm7.235-3.932H20.2a5.674,5.674,0,0,1,1.5.15A2.633,2.633,0,0,1,22.886-7a3.44,3.44,0,0,1,.752,1.276A5.811,5.811,0,0,1,23.9-3.862a5.175,5.175,0,0,1-.242,1.676,3.472,3.472,0,0,1-.843,1.391,2.8,2.8,0,0,1-1.117.628A4.81,4.81,0,0,1,20.287,0H17.295Zm1.59,1.332v5.215h1.187a4.332,4.332,0,0,0,.961-.075,1.467,1.467,0,0,0,.642-.328,1.667,1.667,0,0,0,.416-.76,5.137,5.137,0,0,0,.161-1.442,4.7,4.7,0,0,0-.161-1.4A1.8,1.8,0,0,0,21.64-6.1a1.513,1.513,0,0,0-.736-.371A7.208,7.208,0,0,0,19.6-6.542ZM25.2,0V-7.874h1.59V0Zm3.115,0V-7.874h5.4v1.332H29.9v1.864h3.287v1.332H29.9V0Zm6.66,0V-7.874h1.59V0Zm8.143-2.9,1.542.489A3.457,3.457,0,0,1,43.476-.491a3.363,3.363,0,0,1-2.092.626A3.387,3.387,0,0,1,38.806-.937a4.1,4.1,0,0,1-1.01-2.93,4.3,4.3,0,0,1,1.015-3.053,3.481,3.481,0,0,1,2.669-1.088,3.275,3.275,0,0,1,2.347.854,3.106,3.106,0,0,1,.806,1.45l-1.574.376a1.669,1.669,0,0,0-.583-.967A1.67,1.67,0,0,0,41.4-6.649a1.792,1.792,0,0,0-1.421.628,3.08,3.08,0,0,0-.545,2.036,3.3,3.3,0,0,0,.537,2.127,1.744,1.744,0,0,0,1.4.634,1.593,1.593,0,0,0,1.09-.4A2.34,2.34,0,0,0,43.114-2.9ZM53.12,0H51.391L50.7-1.789H47.556L46.906,0H45.219l3.067-7.874h1.681ZM50.193-3.115,49.108-6.037,48.044-3.115ZM59-2.9l1.542.489A3.457,3.457,0,0,1,59.364-.491a3.363,3.363,0,0,1-2.092.626A3.387,3.387,0,0,1,54.694-.937a4.1,4.1,0,0,1-1.01-2.93A4.3,4.3,0,0,1,54.7-6.921a3.481,3.481,0,0,1,2.669-1.088,3.275,3.275,0,0,1,2.347.854,3.106,3.106,0,0,1,.806,1.45l-1.574.376a1.669,1.669,0,0,0-.583-.967,1.67,1.67,0,0,0-1.077-.354,1.792,1.792,0,0,0-1.421.628,3.08,3.08,0,0,0-.545,2.036,3.3,3.3,0,0,0,.537,2.127,1.744,1.744,0,0,0,1.4.634,1.593,1.593,0,0,0,1.09-.4A2.34,2.34,0,0,0,59-2.9ZM61.859,0V-7.874h1.59V0Zm2.782-3.889A5.008,5.008,0,0,1,65-5.908a3.706,3.706,0,0,1,.733-1.08A3.066,3.066,0,0,1,66.752-7.7a4.323,4.323,0,0,1,1.7-.312,3.7,3.7,0,0,1,2.785,1.08,4.138,4.138,0,0,1,1.045,3A4.124,4.124,0,0,1,71.242-.943,3.668,3.668,0,0,1,68.471.134,3.706,3.706,0,0,1,65.678-.937,4.066,4.066,0,0,1,64.641-3.889Zm1.638-.054A2.95,2.95,0,0,0,66.9-1.915a2.013,2.013,0,0,0,1.568.69,2,2,0,0,0,1.56-.685,3.009,3.009,0,0,0,.61-2.054,2.961,2.961,0,0,0-.594-2.02,2.008,2.008,0,0,0-1.576-.666,2.021,2.021,0,0,0-1.584.674A2.975,2.975,0,0,0,66.279-3.942Zm1.2-4.383.741-1.606h1.692L68.438-8.325ZM73.536,0V-7.874h1.547l3.223,5.258V-7.874h1.477V0h-1.6L75.013-5.135V0Z" transform="translate(1264.058 1822.831)" fill="#20143b"/>
      <path id="Trazado_94" data-name="Trazado 94" d="M.816,0V-7.874H2.363L5.586-2.616V-7.874H7.063V0h-1.6L2.293-5.135V0ZM8.733-6.478v-1.4h1.509v1.4ZM8.733,0V-5.7h1.509V0Zm4.625,0-2.3-5.7h1.584l1.074,2.911.312.972q.124-.371.156-.489.075-.242.161-.483L15.431-5.7h1.552L14.717,0ZM21.21-1.815l1.5.252A2.467,2.467,0,0,1,21.8-.3a2.69,2.69,0,0,1-1.566.432,2.552,2.552,0,0,1-2.2-.972,3.266,3.266,0,0,1-.564-1.966,3.15,3.15,0,0,1,.741-2.221,2.441,2.441,0,0,1,1.875-.8,2.532,2.532,0,0,1,2.009.841,3.719,3.719,0,0,1,.7,2.575H19.014a1.527,1.527,0,0,0,.365,1.045,1.142,1.142,0,0,0,.87.373.924.924,0,0,0,.6-.193A1.194,1.194,0,0,0,21.21-1.815ZM21.3-3.341a1.453,1.453,0,0,0-.338-1,1.038,1.038,0,0,0-.784-.341,1.048,1.048,0,0,0-.816.36,1.393,1.393,0,0,0-.317.978ZM24.025,0V-7.874h1.509V0Zm9.652,0H32.167V-5.688a5.2,5.2,0,0,1-1.95,1.144v-1.37A4.365,4.365,0,0,0,31.5-6.647a2.786,2.786,0,0,0,.951-1.26h1.225Z" transform="translate(1204.594 1842.753)" fill="#20143b"/>
      <path id="Trazado_95" data-name="Trazado 95" d="M3.292,2.315H2.256A10.445,10.445,0,0,1,1-.263a8.446,8.446,0,0,1-.43-2.589A8.13,8.13,0,0,1,1.106-5.79,10.309,10.309,0,0,1,2.277-8.008H3.309A16.293,16.293,0,0,0,2.3-5.24,10.245,10.245,0,0,0,2.02-2.82a10.326,10.326,0,0,0,.164,1.8A11.776,11.776,0,0,0,2.632.741Q2.82,1.289,3.292,2.315ZM4.479,0V-7.874H6.026L9.249-2.616V-7.874h1.477V0h-1.6L5.957-5.135V0ZM15.936,0H14.427V-5.688a5.2,5.2,0,0,1-1.95,1.144v-1.37a4.365,4.365,0,0,0,1.284-.733,2.786,2.786,0,0,0,.951-1.26h1.225ZM18.1,2.315q.446-.956.628-1.466a10.848,10.848,0,0,0,.338-1.176,12.3,12.3,0,0,0,.231-1.265,9.844,9.844,0,0,0,.075-1.227,10.341,10.341,0,0,0-.274-2.42,16.1,16.1,0,0,0-1.01-2.769H19.11a9.866,9.866,0,0,1,1.26,2.449,7.972,7.972,0,0,1,.448,2.626,9.063,9.063,0,0,1-.354,2.406,10.128,10.128,0,0,1-1.327,2.841Z" transform="translate(1213.038 1855.76)" fill="#20143b"/>
      <path id="Trazado_96" data-name="Trazado 96" d="M.816,0V-7.874H2.363L5.586-2.616V-7.874H7.063V0h-1.6L2.293-5.135V0ZM8.733-6.478v-1.4h1.509v1.4ZM8.733,0V-5.7h1.509V0Zm4.625,0-2.3-5.7h1.584l1.074,2.911.312.972q.124-.371.156-.489.075-.242.161-.483L15.431-5.7h1.552L14.717,0ZM21.21-1.815l1.5.252A2.467,2.467,0,0,1,21.8-.3a2.69,2.69,0,0,1-1.566.432,2.552,2.552,0,0,1-2.2-.972,3.266,3.266,0,0,1-.564-1.966,3.15,3.15,0,0,1,.741-2.221,2.441,2.441,0,0,1,1.875-.8,2.532,2.532,0,0,1,2.009.841,3.719,3.719,0,0,1,.7,2.575H19.014a1.527,1.527,0,0,0,.365,1.045,1.142,1.142,0,0,0,.87.373.924.924,0,0,0,.6-.193A1.194,1.194,0,0,0,21.21-1.815ZM21.3-3.341a1.453,1.453,0,0,0-.338-1,1.038,1.038,0,0,0-.784-.341,1.048,1.048,0,0,0-.816.36,1.393,1.393,0,0,0-.317.978ZM24.025,0V-7.874h1.509V0ZM34.912-1.4V0H29.622a3.644,3.644,0,0,1,.516-1.507,10.026,10.026,0,0,1,1.7-1.888,10.676,10.676,0,0,0,1.251-1.289,1.66,1.66,0,0,0,.312-.924,1.05,1.05,0,0,0-.271-.776,1.013,1.013,0,0,0-.749-.271,1,1,0,0,0-.752.285,1.462,1.462,0,0,0-.322.945l-1.5-.15a2.466,2.466,0,0,1,.843-1.789,2.832,2.832,0,0,1,1.772-.542,2.562,2.562,0,0,1,1.832.628,2.061,2.061,0,0,1,.666,1.563A2.721,2.721,0,0,1,34.721-4.7a4.117,4.117,0,0,1-.6,1.007,9.669,9.669,0,0,1-.988,1q-.714.655-.905.87a2.605,2.605,0,0,0-.309.419Z" transform="translate(1284.046 1842.753)" fill="#20143b"/>
      <path id="Trazado_97" data-name="Trazado 97" d="M3.292,2.315H2.256A10.445,10.445,0,0,1,1-.263a8.446,8.446,0,0,1-.43-2.589A8.13,8.13,0,0,1,1.106-5.79,10.309,10.309,0,0,1,2.277-8.008H3.309A16.293,16.293,0,0,0,2.3-5.24,10.245,10.245,0,0,0,2.02-2.82a10.326,10.326,0,0,0,.164,1.8A11.776,11.776,0,0,0,2.632.741Q2.82,1.289,3.292,2.315ZM4.479,0V-7.874H6.026L9.249-2.616V-7.874h1.477V0h-1.6L5.957-5.135V0ZM17.171-1.4V0H11.881A3.644,3.644,0,0,1,12.4-1.507a10.026,10.026,0,0,1,1.7-1.888,10.676,10.676,0,0,0,1.251-1.289,1.66,1.66,0,0,0,.312-.924,1.05,1.05,0,0,0-.271-.776,1.013,1.013,0,0,0-.749-.271,1,1,0,0,0-.752.285,1.462,1.462,0,0,0-.322.945l-1.5-.15A2.466,2.466,0,0,1,12.9-7.364a2.832,2.832,0,0,1,1.772-.542,2.562,2.562,0,0,1,1.832.628,2.061,2.061,0,0,1,.666,1.563A2.721,2.721,0,0,1,16.981-4.7a4.117,4.117,0,0,1-.6,1.007,9.669,9.669,0,0,1-.988,1q-.714.655-.905.87a2.605,2.605,0,0,0-.309.419ZM18.1,2.315q.446-.956.628-1.466a10.848,10.848,0,0,0,.338-1.176,12.3,12.3,0,0,0,.231-1.265,9.844,9.844,0,0,0,.075-1.227,10.341,10.341,0,0,0-.274-2.42,16.1,16.1,0,0,0-1.01-2.769H19.11a9.866,9.866,0,0,1,1.26,2.449,7.972,7.972,0,0,1,.448,2.626,9.063,9.063,0,0,1-.354,2.406,10.128,10.128,0,0,1-1.327,2.841Z" transform="translate(1290.983 1855.76)" fill="#20143b"/>
      <path id="Trazado_98" data-name="Trazado 98" d="M.816,0V-7.874H2.363L5.586-2.616V-7.874H7.063V0h-1.6L2.293-5.135V0ZM8.733-6.478v-1.4h1.509v1.4ZM8.733,0V-5.7h1.509V0Zm4.625,0-2.3-5.7h1.584l1.074,2.911.312.972q.124-.371.156-.489.075-.242.161-.483L15.431-5.7h1.552L14.717,0ZM21.21-1.815l1.5.252A2.467,2.467,0,0,1,21.8-.3a2.69,2.69,0,0,1-1.566.432,2.552,2.552,0,0,1-2.2-.972,3.266,3.266,0,0,1-.564-1.966,3.15,3.15,0,0,1,.741-2.221,2.441,2.441,0,0,1,1.875-.8,2.532,2.532,0,0,1,2.009.841,3.719,3.719,0,0,1,.7,2.575H19.014a1.527,1.527,0,0,0,.365,1.045,1.142,1.142,0,0,0,.87.373.924.924,0,0,0,.6-.193A1.194,1.194,0,0,0,21.21-1.815ZM21.3-3.341a1.453,1.453,0,0,0-.338-1,1.038,1.038,0,0,0-.784-.341,1.048,1.048,0,0,0-.816.36,1.393,1.393,0,0,0-.317.978ZM24.025,0V-7.874h1.509V0Zm5.736-2.089,1.461-.177a1.383,1.383,0,0,0,.376.854,1.028,1.028,0,0,0,.741.3,1.018,1.018,0,0,0,.787-.354,1.374,1.374,0,0,0,.32-.956,1.282,1.282,0,0,0-.306-.9.976.976,0,0,0-.747-.333,2.633,2.633,0,0,0-.693.113l.167-1.23a1.323,1.323,0,0,0,.935-.266.946.946,0,0,0,.322-.749.856.856,0,0,0-.236-.634.849.849,0,0,0-.628-.236A.909.909,0,0,0,31.6-6.4a1.262,1.262,0,0,0-.333.784l-1.391-.236a3.109,3.109,0,0,1,.438-1.141,1.976,1.976,0,0,1,.816-.671A2.742,2.742,0,0,1,32.3-7.906a2.341,2.341,0,0,1,1.783.709,1.851,1.851,0,0,1,.553,1.311A1.855,1.855,0,0,1,33.5-4.232a1.834,1.834,0,0,1,1.082.65,1.886,1.886,0,0,1,.406,1.219A2.365,2.365,0,0,1,34.235-.6a2.609,2.609,0,0,1-1.885.73,2.6,2.6,0,0,1-1.772-.615A2.417,2.417,0,0,1,29.761-2.089Z" transform="translate(1360.484 1842.753)" fill="#20143b"/>
      <path id="Trazado_99" data-name="Trazado 99" d="M3.292,2.315H2.256A10.445,10.445,0,0,1,1-.263a8.446,8.446,0,0,1-.43-2.589A8.13,8.13,0,0,1,1.106-5.79,10.309,10.309,0,0,1,2.277-8.008H3.309A16.293,16.293,0,0,0,2.3-5.24,10.245,10.245,0,0,0,2.02-2.82a10.326,10.326,0,0,0,.164,1.8A11.776,11.776,0,0,0,2.632.741Q2.82,1.289,3.292,2.315ZM4.479,0V-7.874H6.026L9.249-2.616V-7.874h1.477V0h-1.6L5.957-5.135V0Zm7.541-2.089,1.461-.177a1.383,1.383,0,0,0,.376.854,1.028,1.028,0,0,0,.741.3,1.018,1.018,0,0,0,.787-.354,1.374,1.374,0,0,0,.32-.956,1.282,1.282,0,0,0-.306-.9.976.976,0,0,0-.747-.333,2.633,2.633,0,0,0-.693.113l.167-1.23a1.323,1.323,0,0,0,.935-.266.946.946,0,0,0,.322-.749.856.856,0,0,0-.236-.634.849.849,0,0,0-.628-.236.909.909,0,0,0-.661.269,1.262,1.262,0,0,0-.333.784l-1.391-.236a3.109,3.109,0,0,1,.438-1.141,1.976,1.976,0,0,1,.816-.671,2.742,2.742,0,0,1,1.174-.244,2.341,2.341,0,0,1,1.783.709A1.851,1.851,0,0,1,16.9-5.887a1.855,1.855,0,0,1-1.133,1.654,1.834,1.834,0,0,1,1.082.65,1.886,1.886,0,0,1,.406,1.219A2.365,2.365,0,0,1,16.495-.6a2.609,2.609,0,0,1-1.885.73,2.6,2.6,0,0,1-1.772-.615A2.417,2.417,0,0,1,12.021-2.089Zm6.075,4.4q.446-.956.628-1.466a10.848,10.848,0,0,0,.338-1.176,12.3,12.3,0,0,0,.231-1.265,9.844,9.844,0,0,0,.075-1.227,10.341,10.341,0,0,0-.274-2.42,16.1,16.1,0,0,0-1.01-2.769H19.11a9.866,9.866,0,0,1,1.26,2.449,7.972,7.972,0,0,1,.448,2.626,9.063,9.063,0,0,1-.354,2.406,10.128,10.128,0,0,1-1.327,2.841Z" transform="translate(1368.927 1855.76)" fill="#20143b"/>
      <path id="Trazado_89" data-name="Trazado 89" d="M269.294-117.469H43.739v-55.484H269.294ZM43.739-148.591H269.294m-154.849-.234v49.93m-35.84-18.574v18.574m74.771-18.574v18.574m42.309-49.7V-98.66m73.609,0H43.739v-18.808H269.294Z" transform="translate(1145 1980.656)" fill="none" stroke="#20143b" stroke-width="0.75"/>
      <path id="Trazado_90" data-name="Trazado 90" d="M0,0H269.669V-173.328H0Z" transform="translate(1145 1980.656)" fill="none"/>
      <path id="Trazado_100" data-name="Trazado 100" d="M.8,0V-7.874H3.352a9.252,9.252,0,0,1,1.891.118,2.065,2.065,0,0,1,1.133.771,2.444,2.444,0,0,1,.457,1.533,2.569,2.569,0,0,1-.263,1.219,2.159,2.159,0,0,1-.669.776,2.3,2.3,0,0,1-.824.373,9.075,9.075,0,0,1-1.649.113H2.39V0ZM2.39-6.542v2.234h.87a4.111,4.111,0,0,0,1.257-.124,1.044,1.044,0,0,0,.5-.387,1.058,1.058,0,0,0,.18-.612,1.017,1.017,0,0,0-.252-.709A1.1,1.1,0,0,0,4.3-6.488a7.642,7.642,0,0,0-1.144-.054ZM9.571,0H8.062V-5.7h1.4v.811a2.438,2.438,0,0,1,.647-.757,1.191,1.191,0,0,1,.653-.183,1.916,1.916,0,0,1,.994.285L11.29-4.232a1.324,1.324,0,0,0-.709-.247.838.838,0,0,0-.537.175,1.193,1.193,0,0,0-.346.631,8.966,8.966,0,0,0-.126,1.912Zm2.836-6.478v-1.4h1.509v1.4Zm0,6.478V-5.7h1.509V0Zm2.943-5.7h1.391v.779a2.238,2.238,0,0,1,1.778-.908,1.915,1.915,0,0,1,.951.226,1.734,1.734,0,0,1,.661.682,2.635,2.635,0,0,1,.811-.682,1.99,1.99,0,0,1,.929-.226,2.07,2.07,0,0,1,1.063.255,1.563,1.563,0,0,1,.65.749,3.25,3.25,0,0,1,.156,1.182V0H22.231V-3.26a2.426,2.426,0,0,0-.156-1.1.715.715,0,0,0-.645-.322,1.029,1.029,0,0,0-.6.193,1.073,1.073,0,0,0-.4.567,4.077,4.077,0,0,0-.124,1.179V0H18.8V-3.126A4.336,4.336,0,0,0,18.718-4.2a.686.686,0,0,0-.25-.36.79.79,0,0,0-.459-.118,1.1,1.1,0,0,0-.628.188,1.031,1.031,0,0,0-.4.542,4.032,4.032,0,0,0-.121,1.176V0H15.351Zm13.2,3.889,1.5.252A2.467,2.467,0,0,1,29.135-.3,2.69,2.69,0,0,1,27.57.129a2.552,2.552,0,0,1-2.2-.972A3.266,3.266,0,0,1,24.8-2.809a3.15,3.15,0,0,1,.741-2.221,2.441,2.441,0,0,1,1.875-.8,2.532,2.532,0,0,1,2.009.841,3.719,3.719,0,0,1,.7,2.575H26.351a1.527,1.527,0,0,0,.365,1.045,1.142,1.142,0,0,0,.87.373.924.924,0,0,0,.6-.193A1.194,1.194,0,0,0,28.547-1.815Zm.086-1.525a1.453,1.453,0,0,0-.338-1,1.038,1.038,0,0,0-.784-.341,1.048,1.048,0,0,0-.816.36,1.393,1.393,0,0,0-.317.978ZM32.807,0H31.3V-5.7h1.4v.811a2.438,2.438,0,0,1,.647-.757A1.191,1.191,0,0,1,34-5.833a1.916,1.916,0,0,1,.994.285l-.467,1.316a1.324,1.324,0,0,0-.709-.247.838.838,0,0,0-.537.175,1.193,1.193,0,0,0-.346.631,8.965,8.965,0,0,0-.126,1.912Z" transform="translate(1183.65 1920.722)" fill="#20143b"/>
      <path id="Trazado_101" data-name="Trazado 101" d="M5.978,0H4.469V-2.911a4.5,4.5,0,0,0-.1-1.2.838.838,0,0,0-.314-.422.9.9,0,0,0-.524-.15,1.21,1.21,0,0,0-.7.215,1.082,1.082,0,0,0-.427.569,4.921,4.921,0,0,0-.115,1.311V0H.779V-5.7h1.4v.838a2.284,2.284,0,0,1,1.88-.967,2.265,2.265,0,0,1,.913.18,1.53,1.53,0,0,1,.626.459,1.664,1.664,0,0,1,.3.634,4.714,4.714,0,0,1,.083,1.015ZM7.509-6.478v-1.4H9.018v1.4ZM7.509,0V-5.7H9.018V0Zm4.625,0-2.3-5.7h1.584l1.074,2.911.312.972q.124-.371.156-.489.075-.242.161-.483L14.207-5.7h1.552L13.492,0Zm7.853-1.815,1.5.252A2.467,2.467,0,0,1,20.574-.3a2.69,2.69,0,0,1-1.566.432,2.552,2.552,0,0,1-2.2-.972,3.266,3.266,0,0,1-.564-1.966,3.15,3.15,0,0,1,.741-2.221,2.441,2.441,0,0,1,1.875-.8,2.532,2.532,0,0,1,2.009.841,3.719,3.719,0,0,1,.7,2.575H17.789a1.527,1.527,0,0,0,.365,1.045,1.142,1.142,0,0,0,.87.373.924.924,0,0,0,.6-.193A1.194,1.194,0,0,0,19.986-1.815Zm.086-1.525a1.453,1.453,0,0,0-.338-1,1.038,1.038,0,0,0-.784-.341,1.048,1.048,0,0,0-.816.36,1.393,1.393,0,0,0-.317.978ZM22.8,0V-7.874H24.31V0Z" transform="translate(1188.473 1933.729)" fill="#20143b"/>
      <path id="Trazado_102" data-name="Trazado 102" d="M.4-2.562l1.547-.15a1.887,1.887,0,0,0,.567,1.144A1.713,1.713,0,0,0,3.663-1.2a1.771,1.771,0,0,0,1.157-.325.967.967,0,0,0,.389-.76.717.717,0,0,0-.164-.475A1.309,1.309,0,0,0,4.474-3.1Q4.195-3.2,3.2-3.448a4.318,4.318,0,0,1-1.794-.779A2.049,2.049,0,0,1,.682-5.812a2.024,2.024,0,0,1,.341-1.125,2.135,2.135,0,0,1,.983-.8,3.939,3.939,0,0,1,1.55-.274,3.324,3.324,0,0,1,2.232.65,2.294,2.294,0,0,1,.787,1.735l-1.59.07a1.35,1.35,0,0,0-.438-.873A1.6,1.6,0,0,0,3.54-6.692a1.817,1.817,0,0,0-1.085.285.574.574,0,0,0-.252.489.6.6,0,0,0,.236.478A4.18,4.18,0,0,0,3.9-4.915a7.71,7.71,0,0,1,1.716.567,2.212,2.212,0,0,1,.87.8A2.341,2.341,0,0,1,6.8-2.293a2.319,2.319,0,0,1-.376,1.268A2.253,2.253,0,0,1,5.36-.148,4.46,4.46,0,0,1,3.647.14a3.411,3.411,0,0,1-2.293-.69A3,3,0,0,1,.4-2.562Zm11.032.747,1.5.252A2.467,2.467,0,0,1,12.018-.3a2.69,2.69,0,0,1-1.566.432,2.552,2.552,0,0,1-2.2-.972,3.266,3.266,0,0,1-.564-1.966A3.15,3.15,0,0,1,8.427-5.03a2.441,2.441,0,0,1,1.875-.8,2.532,2.532,0,0,1,2.009.841,3.719,3.719,0,0,1,.7,2.575H9.233A1.527,1.527,0,0,0,9.6-1.372a1.142,1.142,0,0,0,.87.373.924.924,0,0,0,.6-.193A1.194,1.194,0,0,0,11.43-1.815Zm.086-1.525a1.453,1.453,0,0,0-.338-1,1.038,1.038,0,0,0-.784-.341,1.048,1.048,0,0,0-.816.36,1.393,1.393,0,0,0-.317.978ZM14.1.376l1.724.209a.589.589,0,0,0,.2.414,1.135,1.135,0,0,0,.677.161A1.757,1.757,0,0,0,17.59.983a.73.73,0,0,0,.3-.381,2.292,2.292,0,0,0,.07-.693V-.924A2.042,2.042,0,0,1,16.253,0a2.1,2.1,0,0,1-1.821-.972,3.3,3.3,0,0,1-.526-1.912,3.145,3.145,0,0,1,.69-2.191,2.227,2.227,0,0,1,1.716-.757,2.089,2.089,0,0,1,1.746.929v-.8H19.47V-.585A5.1,5.1,0,0,1,19.3.924a1.87,1.87,0,0,1-.467.784,2.067,2.067,0,0,1-.8.446,4.227,4.227,0,0,1-1.27.161,3.288,3.288,0,0,1-2.057-.5A1.559,1.559,0,0,1,14.1.559Q14.1.483,14.1.376ZM15.453-2.97A2.057,2.057,0,0,0,15.8-1.641a1.088,1.088,0,0,0,.867.422,1.2,1.2,0,0,0,.935-.432,1.885,1.885,0,0,0,.381-1.281,2,2,0,0,0-.365-1.316,1.161,1.161,0,0,0-.924-.43,1.114,1.114,0,0,0-.894.422A1.977,1.977,0,0,0,15.453-2.97ZM24.718,0V-.854a2.2,2.2,0,0,1-.819.72,2.3,2.3,0,0,1-1.072.263A2.1,2.1,0,0,1,21.8-.124a1.49,1.49,0,0,1-.661-.709,3.164,3.164,0,0,1-.2-1.262V-5.7H22.44v2.621a7.269,7.269,0,0,0,.083,1.474.8.8,0,0,0,.3.43.933.933,0,0,0,.559.158,1.188,1.188,0,0,0,.693-.212,1.079,1.079,0,0,0,.419-.526A6.11,6.11,0,0,0,24.61-3.3V-5.7H26.12V0Zm8.153,0H31.362V-2.911a4.5,4.5,0,0,0-.1-1.2.838.838,0,0,0-.314-.422.9.9,0,0,0-.524-.15,1.21,1.21,0,0,0-.7.215,1.082,1.082,0,0,0-.427.569,4.921,4.921,0,0,0-.115,1.311V0H27.672V-5.7h1.4v.838a2.284,2.284,0,0,1,1.88-.967,2.265,2.265,0,0,1,.913.18,1.53,1.53,0,0,1,.626.459,1.664,1.664,0,0,1,.3.634,4.714,4.714,0,0,1,.083,1.015Zm6.762,0h-1.4V-.838a2.265,2.265,0,0,1-.824.728,2.115,2.115,0,0,1-.959.239,2.173,2.173,0,0,1-1.684-.792,3.223,3.223,0,0,1-.7-2.21,3.185,3.185,0,0,1,.682-2.2,2.224,2.224,0,0,1,1.724-.755,2.136,2.136,0,0,1,1.654.795V-7.874h1.509ZM35.6-2.976a2.612,2.612,0,0,0,.252,1.321,1.141,1.141,0,0,0,1.021.591,1.111,1.111,0,0,0,.886-.443,2.045,2.045,0,0,0,.365-1.324,2.238,2.238,0,0,0-.354-1.415,1.122,1.122,0,0,0-.908-.432,1.134,1.134,0,0,0-.9.427A1.929,1.929,0,0,0,35.6-2.976Z" transform="translate(1278.341 1920.722)" fill="#20143b"/>
      <path id="Trazado_103" data-name="Trazado 103" d="M.44-2.933A3.086,3.086,0,0,1,.811-4.388a2.544,2.544,0,0,1,1.05-1.074,3.116,3.116,0,0,1,1.517-.371A2.848,2.848,0,0,1,5.5-4.992a2.9,2.9,0,0,1,.827,2.124A2.939,2.939,0,0,1,5.492-.722a2.823,2.823,0,0,1-2.1.851,3.312,3.312,0,0,1-1.5-.354A2.432,2.432,0,0,1,.811-1.265,3.463,3.463,0,0,1,.44-2.933Zm1.547.081a1.89,1.89,0,0,0,.4,1.3,1.28,1.28,0,0,0,.994.451,1.272,1.272,0,0,0,.991-.451,1.916,1.916,0,0,0,.4-1.311,1.881,1.881,0,0,0-.4-1.289A1.272,1.272,0,0,0,3.384-4.6a1.28,1.28,0,0,0-.994.451A1.89,1.89,0,0,0,1.987-2.852Z" transform="translate(1318.099 1920.722)" fill="#20143b"/>
      <path id="Trazado_104" data-name="Trazado 104" d="M5.978,0H4.469V-2.911a4.5,4.5,0,0,0-.1-1.2.838.838,0,0,0-.314-.422.9.9,0,0,0-.524-.15,1.21,1.21,0,0,0-.7.215,1.082,1.082,0,0,0-.427.569,4.921,4.921,0,0,0-.115,1.311V0H.779V-5.7h1.4v.838a2.284,2.284,0,0,1,1.88-.967,2.265,2.265,0,0,1,.913.18,1.53,1.53,0,0,1,.626.459,1.664,1.664,0,0,1,.3.634,4.714,4.714,0,0,1,.083,1.015ZM7.509-6.478v-1.4H9.018v1.4ZM7.509,0V-5.7H9.018V0Zm4.625,0-2.3-5.7h1.584l1.074,2.911.312.972q.124-.371.156-.489.075-.242.161-.483L14.207-5.7h1.552L13.492,0Zm7.853-1.815,1.5.252A2.467,2.467,0,0,1,20.574-.3a2.69,2.69,0,0,1-1.566.432,2.552,2.552,0,0,1-2.2-.972,3.266,3.266,0,0,1-.564-1.966,3.15,3.15,0,0,1,.741-2.221,2.441,2.441,0,0,1,1.875-.8,2.532,2.532,0,0,1,2.009.841,3.719,3.719,0,0,1,.7,2.575H17.789a1.527,1.527,0,0,0,.365,1.045,1.142,1.142,0,0,0,.87.373.924.924,0,0,0,.6-.193A1.194,1.194,0,0,0,19.986-1.815Zm.086-1.525a1.453,1.453,0,0,0-.338-1,1.038,1.038,0,0,0-.784-.341,1.048,1.048,0,0,0-.816.36,1.393,1.393,0,0,0-.317.978ZM22.8,0V-7.874H24.31V0Z" transform="translate(1289.169 1933.729)" fill="#20143b"/>
      <path id="Trazado_105" data-name="Trazado 105" d="M2.573,0V-6.542H.236V-7.874H6.494v1.332H4.163V0Z" transform="translate(1363.288 1920.722)" fill="#20143b"/>
      <path id="Trazado_106" data-name="Trazado 106" d="M4.093-1.815l1.5.252A2.467,2.467,0,0,1,4.681-.3,2.69,2.69,0,0,1,3.115.129a2.552,2.552,0,0,1-2.2-.972A3.266,3.266,0,0,1,.349-2.809,3.15,3.15,0,0,1,1.09-5.03a2.441,2.441,0,0,1,1.875-.8,2.532,2.532,0,0,1,2.009.841,3.719,3.719,0,0,1,.7,2.575H1.9a1.527,1.527,0,0,0,.365,1.045A1.142,1.142,0,0,0,3.131-1a.924.924,0,0,0,.6-.193A1.194,1.194,0,0,0,4.093-1.815Zm.086-1.525a1.453,1.453,0,0,0-.338-1,1.038,1.038,0,0,0-.784-.341,1.048,1.048,0,0,0-.816.36,1.393,1.393,0,0,0-.317.978ZM8.352,0H6.843V-5.7h1.4v.811a2.438,2.438,0,0,1,.647-.757,1.191,1.191,0,0,1,.653-.183,1.916,1.916,0,0,1,.994.285l-.467,1.316a1.324,1.324,0,0,0-.709-.247.838.838,0,0,0-.537.175,1.193,1.193,0,0,0-.346.631,8.966,8.966,0,0,0-.126,1.912Zm7.81-4.018-1.488.269a1.08,1.08,0,0,0-.341-.671,1.03,1.03,0,0,0-.69-.226,1.128,1.128,0,0,0-.9.389,2,2,0,0,0-.336,1.3,2.308,2.308,0,0,0,.341,1.434,1.12,1.12,0,0,0,.916.419,1.017,1.017,0,0,0,.7-.244,1.47,1.47,0,0,0,.387-.841l1.482.252a2.631,2.631,0,0,1-.886,1.542,2.743,2.743,0,0,1-1.756.521,2.611,2.611,0,0,1-2-.79,3.061,3.061,0,0,1-.744-2.186,3.068,3.068,0,0,1,.747-2.2,2.652,2.652,0,0,1,2.02-.787,2.755,2.755,0,0,1,1.657.448A2.485,2.485,0,0,1,16.162-4.018Zm4.447,2.2,1.5.252A2.467,2.467,0,0,1,21.2-.3a2.69,2.69,0,0,1-1.566.432,2.552,2.552,0,0,1-2.2-.972,3.266,3.266,0,0,1-.564-1.966,3.15,3.15,0,0,1,.741-2.221,2.441,2.441,0,0,1,1.875-.8,2.532,2.532,0,0,1,2.009.841,3.719,3.719,0,0,1,.7,2.575H18.412a1.527,1.527,0,0,0,.365,1.045,1.142,1.142,0,0,0,.87.373.924.924,0,0,0,.6-.193A1.194,1.194,0,0,0,20.609-1.815Zm.086-1.525a1.453,1.453,0,0,0-.338-1,1.038,1.038,0,0,0-.784-.341,1.048,1.048,0,0,0-.816.36,1.393,1.393,0,0,0-.317.978ZM24.868,0H23.359V-5.7h1.4v.811a2.438,2.438,0,0,1,.647-.757,1.191,1.191,0,0,1,.653-.183,1.916,1.916,0,0,1,.994.285l-.467,1.316a1.324,1.324,0,0,0-.709-.247.838.838,0,0,0-.537.175,1.193,1.193,0,0,0-.346.631,8.966,8.966,0,0,0-.126,1.912Z" transform="translate(1369.108 1920.722)" fill="#20143b"/>
      <path id="Trazado_107" data-name="Trazado 107" d="M5.978,0H4.469V-2.911a4.5,4.5,0,0,0-.1-1.2.838.838,0,0,0-.314-.422.9.9,0,0,0-.524-.15,1.21,1.21,0,0,0-.7.215,1.082,1.082,0,0,0-.427.569,4.921,4.921,0,0,0-.115,1.311V0H.779V-5.7h1.4v.838a2.284,2.284,0,0,1,1.88-.967,2.265,2.265,0,0,1,.913.18,1.53,1.53,0,0,1,.626.459,1.664,1.664,0,0,1,.3.634,4.714,4.714,0,0,1,.083,1.015ZM7.509-6.478v-1.4H9.018v1.4ZM7.509,0V-5.7H9.018V0Zm4.625,0-2.3-5.7h1.584l1.074,2.911.312.972q.124-.371.156-.489.075-.242.161-.483L14.207-5.7h1.552L13.492,0Zm7.853-1.815,1.5.252A2.467,2.467,0,0,1,20.574-.3a2.69,2.69,0,0,1-1.566.432,2.552,2.552,0,0,1-2.2-.972,3.266,3.266,0,0,1-.564-1.966,3.15,3.15,0,0,1,.741-2.221,2.441,2.441,0,0,1,1.875-.8,2.532,2.532,0,0,1,2.009.841,3.719,3.719,0,0,1,.7,2.575H17.789a1.527,1.527,0,0,0,.365,1.045,1.142,1.142,0,0,0,.87.373.924.924,0,0,0,.6-.193A1.194,1.194,0,0,0,19.986-1.815Zm.086-1.525a1.453,1.453,0,0,0-.338-1,1.038,1.038,0,0,0-.784-.341,1.048,1.048,0,0,0-.816.36,1.393,1.393,0,0,0-.317.978ZM22.8,0V-7.874H24.31V0Z" transform="translate(1367.114 1933.729)" fill="#20143b"/>
      <path id="Trazado_91" data-name="Trazado 91" d="M269.294-39.48H.375V-70.835H269.294ZM114.436-70.835V-1.278M61.448-39.48v38.2m134.233-69.23V-.952m73.613.577H.375v-39.1H269.294Z" transform="translate(1145 1980.656)" fill="none" stroke="#20143b" stroke-width="0.75"/>
      <path id="Trazado_92" data-name="Trazado 92" d="M0,0H269.669V-173.328H0Z" transform="translate(1145 1980.656)" fill="none"/>
      <path id="Trazado_108" data-name="Trazado 108" d="M.659,0V-6.442h.853V-.76H4.685V0ZM8.793-1.5l.817.1A1.994,1.994,0,0,1,8.895-.29a2.153,2.153,0,0,1-1.336.4A2.135,2.135,0,0,1,5.935-.525a2.464,2.464,0,0,1-.6-1.769,2.579,2.579,0,0,1,.606-1.828,2.053,2.053,0,0,1,1.573-.65,2,2,0,0,1,1.529.637,2.532,2.532,0,0,1,.593,1.793q0,.07,0,.211H6.152A1.793,1.793,0,0,0,6.587-.954a1.3,1.3,0,0,0,.976.409,1.21,1.21,0,0,0,.743-.229A1.517,1.517,0,0,0,8.793-1.5ZM6.2-2.782H8.8a1.581,1.581,0,0,0-.3-.883,1.212,1.212,0,0,0-.98-.457,1.257,1.257,0,0,0-.916.365A1.444,1.444,0,0,0,6.2-2.782ZM12.331-.708l.114.7a2.934,2.934,0,0,1-.6.07,1.353,1.353,0,0,1-.668-.136.763.763,0,0,1-.334-.358,2.832,2.832,0,0,1-.1-.934V-4.052h-.58v-.615h.58V-5.823l.787-.475v1.63h.8v.615h-.8v2.729a1.379,1.379,0,0,0,.042.435.329.329,0,0,0,.136.154.526.526,0,0,0,.27.057A2.573,2.573,0,0,0,12.331-.708ZM13.1,0V-4.667h.712v.708a1.931,1.931,0,0,1,.5-.655.878.878,0,0,1,.508-.158,1.543,1.543,0,0,1,.813.255l-.272.734a1.132,1.132,0,0,0-.58-.171.753.753,0,0,0-.466.156.845.845,0,0,0-.294.433,3.081,3.081,0,0,0-.132.923V0Zm6.051-.576a2.945,2.945,0,0,1-.846.527,2.444,2.444,0,0,1-.872.154A1.7,1.7,0,0,1,16.247-.27a1.24,1.24,0,0,1-.413-.96,1.277,1.277,0,0,1,.156-.626,1.291,1.291,0,0,1,.409-.455,1.922,1.922,0,0,1,.569-.259,5.652,5.652,0,0,1,.7-.119,7.23,7.23,0,0,0,1.411-.272q0-.163,0-.207a.873.873,0,0,0-.224-.681,1.324,1.324,0,0,0-.9-.268,1.4,1.4,0,0,0-.824.2,1.2,1.2,0,0,0-.393.692l-.773-.105a1.916,1.916,0,0,1,.347-.8,1.522,1.522,0,0,1,.7-.47,3.117,3.117,0,0,1,1.059-.165,2.8,2.8,0,0,1,.971.141,1.28,1.28,0,0,1,.549.354,1.244,1.244,0,0,1,.246.538,4.454,4.454,0,0,1,.04.729v1.055a11.2,11.2,0,0,0,.051,1.4,1.76,1.76,0,0,0,.2.56h-.826A1.677,1.677,0,0,1,19.147-.576Zm-.066-1.767a5.8,5.8,0,0,1-1.292.3,2.988,2.988,0,0,0-.69.158.688.688,0,0,0-.312.257.675.675,0,0,0-.11.376.674.674,0,0,0,.24.527,1.03,1.03,0,0,0,.7.211,1.631,1.631,0,0,0,.813-.2,1.231,1.231,0,0,0,.523-.547,1.911,1.911,0,0,0,.127-.791Zm7.5,4.131V-.5a1.415,1.415,0,0,1-.516.431,1.515,1.515,0,0,1-.705.171,1.865,1.865,0,0,1-1.43-.664,2.613,2.613,0,0,1-.6-1.819,3.119,3.119,0,0,1,.244-1.261,1.82,1.82,0,0,1,.708-.846A1.891,1.891,0,0,1,25.3-4.772a1.563,1.563,0,0,1,1.362.729v-.624h.712V1.789ZM24.144-2.347A2.063,2.063,0,0,0,24.521-1a1.146,1.146,0,0,0,.905.45,1.108,1.108,0,0,0,.87-.428,1.973,1.973,0,0,0,.365-1.3,2.177,2.177,0,0,0-.385-1.4,1.14,1.14,0,0,0-.9-.47,1.09,1.09,0,0,0-.872.437A2.136,2.136,0,0,0,24.144-2.347ZM31.671,0V-.686A1.708,1.708,0,0,1,30.19.105a1.887,1.887,0,0,1-.771-.158,1.27,1.27,0,0,1-.532-.4,1.49,1.49,0,0,1-.244-.587,4.017,4.017,0,0,1-.048-.738V-4.667h.791v2.588a4.613,4.613,0,0,0,.048.835.825.825,0,0,0,.316.49.98.98,0,0,0,.6.178,1.3,1.3,0,0,0,.668-.182,1.014,1.014,0,0,0,.442-.5,2.492,2.492,0,0,0,.13-.912v-2.5h.791V0Zm5.142-1.5.817.1A1.994,1.994,0,0,1,36.914-.29a2.153,2.153,0,0,1-1.336.4,2.135,2.135,0,0,1-1.624-.631,2.464,2.464,0,0,1-.6-1.769,2.579,2.579,0,0,1,.606-1.828,2.053,2.053,0,0,1,1.573-.65,2,2,0,0,1,1.529.637,2.532,2.532,0,0,1,.593,1.793q0,.07,0,.211h-3.48a1.793,1.793,0,0,0,.435,1.178,1.3,1.3,0,0,0,.976.409,1.21,1.21,0,0,0,.743-.229A1.517,1.517,0,0,0,36.813-1.5Zm-2.6-1.279h2.606a1.581,1.581,0,0,0-.3-.883,1.212,1.212,0,0,0-.98-.457,1.257,1.257,0,0,0-.916.365A1.444,1.444,0,0,0,34.216-2.782Z" transform="translate(1158.311 1952.354)" fill="#20143b"/>
      <path id="Trazado_109" data-name="Trazado 109" transform="translate(1193.787 1952.68)" fill="#20143b"/>
      <path id="Trazado_110" data-name="Trazado 110" d="M.6-5.533v-.91h.791v.91ZM.6,0V-4.667h.791V0ZM5.621,0V-.589A1.452,1.452,0,0,1,4.315.105,1.83,1.83,0,0,1,3.289-.2a2.023,2.023,0,0,1-.725-.859,2.969,2.969,0,0,1-.257-1.268A3.318,3.318,0,0,1,2.54-3.6a1.837,1.837,0,0,1,.7-.872,1.868,1.868,0,0,1,1.042-.3,1.556,1.556,0,0,1,.751.178,1.571,1.571,0,0,1,.536.464V-6.442h.787V0ZM3.12-2.329A2.027,2.027,0,0,0,3.5-.989a1.14,1.14,0,0,0,.892.444,1.119,1.119,0,0,0,.881-.424,1.955,1.955,0,0,0,.363-1.294,2.195,2.195,0,0,0-.369-1.406,1.135,1.135,0,0,0-.91-.448,1.1,1.1,0,0,0-.881.431A2.126,2.126,0,0,0,3.12-2.329Zm7.673.826.817.1A1.994,1.994,0,0,1,10.894-.29a2.153,2.153,0,0,1-1.336.4A2.135,2.135,0,0,1,7.934-.525a2.464,2.464,0,0,1-.6-1.769,2.579,2.579,0,0,1,.606-1.828,2.053,2.053,0,0,1,1.573-.65,2,2,0,0,1,1.529.637,2.532,2.532,0,0,1,.593,1.793q0,.07,0,.211H8.152A1.793,1.793,0,0,0,8.587-.954a1.3,1.3,0,0,0,.976.409,1.21,1.21,0,0,0,.743-.229A1.517,1.517,0,0,0,10.793-1.5ZM8.2-2.782H10.8a1.581,1.581,0,0,0-.3-.883,1.212,1.212,0,0,0-.98-.457,1.257,1.257,0,0,0-.916.365A1.444,1.444,0,0,0,8.2-2.782ZM12.6,0V-4.667h.712V-4A1.678,1.678,0,0,1,14.8-4.772a1.949,1.949,0,0,1,.776.152,1.22,1.22,0,0,1,.53.4,1.527,1.527,0,0,1,.246.584,4.529,4.529,0,0,1,.044.769V0H15.6V-2.839a2.131,2.131,0,0,0-.092-.723.76.76,0,0,0-.327-.382,1.041,1.041,0,0,0-.552-.143,1.282,1.282,0,0,0-.872.321,1.583,1.583,0,0,0-.367,1.217V0Zm6.732-.708.114.7a2.934,2.934,0,0,1-.6.07,1.353,1.353,0,0,1-.668-.136.763.763,0,0,1-.334-.358,2.832,2.832,0,0,1-.1-.934V-4.052h-.58v-.615h.58V-5.823l.787-.475v1.63h.8v.615h-.8v2.729a1.379,1.379,0,0,0,.042.435.329.329,0,0,0,.136.154.526.526,0,0,0,.27.057A2.573,2.573,0,0,0,19.336-.708Zm.778-4.825v-.91H20.9v.91Zm0,5.533V-4.667H20.9V0ZM22.3,0V-4.052h-.7v-.615h.7v-.5a2.174,2.174,0,0,1,.083-.7,1.011,1.011,0,0,1,.4-.5,1.449,1.449,0,0,1,.806-.191,3.872,3.872,0,0,1,.738.079l-.119.69a2.654,2.654,0,0,0-.466-.044.693.693,0,0,0-.51.154.834.834,0,0,0-.149.576v.431h.91v.615h-.91V0Zm2.316-5.533v-.91H25.4v.91Zm0,5.533V-4.667H25.4V0Zm5.041-1.709.778.1A2.017,2.017,0,0,1,29.78-.349a1.9,1.9,0,0,1-1.29.455,2,2,0,0,1-1.54-.626,2.541,2.541,0,0,1-.582-1.8,3.249,3.249,0,0,1,.25-1.323,1.746,1.746,0,0,1,.762-.85,2.262,2.262,0,0,1,1.114-.283,1.937,1.937,0,0,1,1.244.385,1.763,1.763,0,0,1,.62,1.092l-.769.119a1.277,1.277,0,0,0-.389-.708,1.006,1.006,0,0,0-.675-.237,1.228,1.228,0,0,0-.971.428,2.034,2.034,0,0,0-.374,1.356,2.1,2.1,0,0,0,.36,1.367,1.173,1.173,0,0,0,.94.426,1.108,1.108,0,0,0,.778-.286A1.418,1.418,0,0,0,29.654-1.709Zm4.5,1.134a2.945,2.945,0,0,1-.846.527,2.444,2.444,0,0,1-.872.154A1.7,1.7,0,0,1,31.254-.27a1.24,1.24,0,0,1-.413-.96A1.277,1.277,0,0,1,31-1.857a1.291,1.291,0,0,1,.409-.455,1.922,1.922,0,0,1,.569-.259,5.652,5.652,0,0,1,.7-.119,7.23,7.23,0,0,0,1.411-.272q0-.163,0-.207a.873.873,0,0,0-.224-.681,1.324,1.324,0,0,0-.9-.268,1.4,1.4,0,0,0-.824.2,1.2,1.2,0,0,0-.393.692l-.773-.105a1.916,1.916,0,0,1,.347-.8,1.522,1.522,0,0,1,.7-.47,3.117,3.117,0,0,1,1.059-.165,2.8,2.8,0,0,1,.971.141,1.28,1.28,0,0,1,.549.354,1.244,1.244,0,0,1,.246.538,4.454,4.454,0,0,1,.04.729v1.055a11.2,11.2,0,0,0,.051,1.4,1.76,1.76,0,0,0,.2.56h-.826A1.677,1.677,0,0,1,34.154-.576Zm-.066-1.767a5.8,5.8,0,0,1-1.292.3,2.988,2.988,0,0,0-.69.158.688.688,0,0,0-.312.257.675.675,0,0,0-.11.376.674.674,0,0,0,.24.527,1.03,1.03,0,0,0,.7.211,1.631,1.631,0,0,0,.813-.2,1.231,1.231,0,0,0,.523-.547,1.911,1.911,0,0,0,.127-.791ZM41.81-1.5l.817.1A1.994,1.994,0,0,1,41.911-.29a2.153,2.153,0,0,1-1.336.4,2.135,2.135,0,0,1-1.624-.631,2.464,2.464,0,0,1-.6-1.769,2.579,2.579,0,0,1,.606-1.828,2.053,2.053,0,0,1,1.573-.65,2,2,0,0,1,1.529.637,2.532,2.532,0,0,1,.593,1.793q0,.07,0,.211h-3.48A1.793,1.793,0,0,0,39.6-.954a1.3,1.3,0,0,0,.976.409,1.21,1.21,0,0,0,.743-.229A1.517,1.517,0,0,0,41.81-1.5Zm-2.6-1.279h2.606a1.581,1.581,0,0,0-.3-.883,1.212,1.212,0,0,0-.98-.457,1.257,1.257,0,0,0-.916.365A1.444,1.444,0,0,0,39.212-2.782ZM43.6,0V-6.442h.791V0Z" transform="translate(1155.002 1962.573)" fill="#20143b"/>
      <path id="Trazado_111" data-name="Trazado 111" transform="translate(1197.108 1962.958)" fill="#20143b"/>
      <path id="Trazado_112" data-name="Trazado 112" d="M3.639-1.709l.778.1A2.017,2.017,0,0,1,3.764-.349a1.9,1.9,0,0,1-1.29.455A2,2,0,0,1,.934-.521a2.541,2.541,0,0,1-.582-1.8A3.249,3.249,0,0,1,.6-3.639a1.746,1.746,0,0,1,.762-.85,2.262,2.262,0,0,1,1.114-.283,1.937,1.937,0,0,1,1.244.385A1.763,1.763,0,0,1,4.342-3.3l-.769.119a1.277,1.277,0,0,0-.389-.708,1.006,1.006,0,0,0-.675-.237,1.228,1.228,0,0,0-.971.428,2.034,2.034,0,0,0-.374,1.356,2.1,2.1,0,0,0,.36,1.367,1.173,1.173,0,0,0,.94.426,1.108,1.108,0,0,0,.778-.286A1.418,1.418,0,0,0,3.639-1.709ZM4.8-2.333a2.406,2.406,0,0,1,.721-1.92,2.172,2.172,0,0,1,1.468-.519,2.094,2.094,0,0,1,1.573.631A2.4,2.4,0,0,1,9.171-2.4,3.087,3.087,0,0,1,8.9-.982a1.913,1.913,0,0,1-.787.8A2.29,2.29,0,0,1,6.987.105,2.1,2.1,0,0,1,5.4-.523,2.51,2.51,0,0,1,4.8-2.333Zm.813,0A1.988,1.988,0,0,0,6-.991a1.254,1.254,0,0,0,.984.446,1.246,1.246,0,0,0,.98-.448A2.035,2.035,0,0,0,8.358-2.36a1.928,1.928,0,0,0-.393-1.312,1.251,1.251,0,0,0-.978-.446A1.256,1.256,0,0,0,6-3.674,1.979,1.979,0,0,0,5.612-2.333ZM10.1,0V-4.667h.708v.655a1.663,1.663,0,0,1,.584-.552,1.642,1.642,0,0,1,.831-.209,1.535,1.535,0,0,1,.85.215,1.152,1.152,0,0,1,.468.6,1.676,1.676,0,0,1,1.441-.817,1.421,1.421,0,0,1,1.068.385A1.643,1.643,0,0,1,16.422-3.2V0h-.787V-2.94a2.165,2.165,0,0,0-.077-.683.662.662,0,0,0-.279-.336.871.871,0,0,0-.475-.127,1.1,1.1,0,0,0-.817.327,1.442,1.442,0,0,0-.325,1.048V0h-.791V-3.032a1.334,1.334,0,0,0-.193-.791.732.732,0,0,0-.633-.264,1.149,1.149,0,0,0-.617.176,1,1,0,0,0-.411.514,2.894,2.894,0,0,0-.127.976V0Zm7.5,1.789V-4.667h.721v.606a1.776,1.776,0,0,1,.576-.534,1.582,1.582,0,0,1,.778-.178,1.844,1.844,0,0,1,1.055.308,1.888,1.888,0,0,1,.69.868,3.169,3.169,0,0,1,.233,1.228,3.12,3.12,0,0,1-.257,1.29,1.938,1.938,0,0,1-.747.879,1.918,1.918,0,0,1-1.031.305,1.489,1.489,0,0,1-.71-.167,1.616,1.616,0,0,1-.516-.422V1.789Zm.716-4.1a2.03,2.03,0,0,0,.365,1.332,1.119,1.119,0,0,0,.883.431,1.144,1.144,0,0,0,.9-.446,2.116,2.116,0,0,0,.376-1.382,2.062,2.062,0,0,0-.367-1.336,1.1,1.1,0,0,0-.877-.444,1.139,1.139,0,0,0-.894.472A2.114,2.114,0,0,0,18.312-2.307Zm3.995-.026a2.406,2.406,0,0,1,.721-1.92A2.172,2.172,0,0,1,24.5-4.772a2.094,2.094,0,0,1,1.573.631A2.4,2.4,0,0,1,26.679-2.4a3.087,3.087,0,0,1-.27,1.417,1.913,1.913,0,0,1-.787.8A2.29,2.29,0,0,1,24.5.105a2.1,2.1,0,0,1-1.584-.628A2.51,2.51,0,0,1,22.307-2.333Zm.813,0a1.988,1.988,0,0,0,.391,1.343,1.254,1.254,0,0,0,.984.446,1.246,1.246,0,0,0,.98-.448,2.035,2.035,0,0,0,.391-1.367,1.928,1.928,0,0,0-.393-1.312,1.251,1.251,0,0,0-.978-.446,1.256,1.256,0,0,0-.984.444A1.979,1.979,0,0,0,23.12-2.333ZM27.606,0V-4.667h.712V-4A1.678,1.678,0,0,1,29.8-4.772a1.949,1.949,0,0,1,.776.152,1.22,1.22,0,0,1,.53.4,1.527,1.527,0,0,1,.246.584,4.529,4.529,0,0,1,.044.769V0h-.791V-2.839a2.131,2.131,0,0,0-.092-.723.76.76,0,0,0-.327-.382,1.041,1.041,0,0,0-.552-.143,1.282,1.282,0,0,0-.872.321A1.583,1.583,0,0,0,28.4-2.549V0Zm8.2-1.5.817.1A1.994,1.994,0,0,1,35.908-.29a2.153,2.153,0,0,1-1.336.4,2.135,2.135,0,0,1-1.624-.631,2.464,2.464,0,0,1-.6-1.769,2.579,2.579,0,0,1,.606-1.828,2.053,2.053,0,0,1,1.573-.65,2,2,0,0,1,1.529.637,2.532,2.532,0,0,1,.593,1.793q0,.07,0,.211h-3.48A1.793,1.793,0,0,0,33.6-.954a1.3,1.3,0,0,0,.976.409,1.21,1.21,0,0,0,.743-.229A1.517,1.517,0,0,0,35.807-1.5Zm-2.6-1.279h2.606a1.581,1.581,0,0,0-.3-.883,1.212,1.212,0,0,0-.98-.457,1.257,1.257,0,0,0-.916.365A1.444,1.444,0,0,0,33.209-2.782ZM37.617,0V-4.667h.712V-4a1.678,1.678,0,0,1,1.485-.769,1.949,1.949,0,0,1,.776.152,1.22,1.22,0,0,1,.53.4,1.527,1.527,0,0,1,.246.584,4.529,4.529,0,0,1,.044.769V0h-.791V-2.839a2.131,2.131,0,0,0-.092-.723.76.76,0,0,0-.327-.382,1.041,1.041,0,0,0-.552-.143,1.282,1.282,0,0,0-.872.321,1.583,1.583,0,0,0-.367,1.217V0ZM44.35-.708l.114.7a2.934,2.934,0,0,1-.6.07A1.353,1.353,0,0,1,43.2-.075a.763.763,0,0,1-.334-.358,2.832,2.832,0,0,1-.1-.934V-4.052h-.58v-.615h.58V-5.823l.787-.475v1.63h.8v.615h-.8v2.729a1.379,1.379,0,0,0,.042.435.329.329,0,0,0,.136.154A.526.526,0,0,0,44-.677,2.573,2.573,0,0,0,44.35-.708Zm3.968-.8.817.1A1.994,1.994,0,0,1,48.419-.29a2.153,2.153,0,0,1-1.336.4,2.135,2.135,0,0,1-1.624-.631,2.464,2.464,0,0,1-.6-1.769,2.579,2.579,0,0,1,.606-1.828,2.053,2.053,0,0,1,1.573-.65,2,2,0,0,1,1.529.637,2.532,2.532,0,0,1,.593,1.793q0,.07,0,.211h-3.48a1.793,1.793,0,0,0,.435,1.178,1.3,1.3,0,0,0,.976.409,1.21,1.21,0,0,0,.743-.229A1.517,1.517,0,0,0,48.318-1.5Zm-2.6-1.279h2.606a1.581,1.581,0,0,0-.3-.883,1.212,1.212,0,0,0-.98-.457,1.257,1.257,0,0,0-.916.365A1.444,1.444,0,0,0,45.721-2.782Z" transform="translate(1152.869 1972.793)" fill="#20143b"/>
      <path id="Trazado_113" data-name="Trazado 113" transform="translate(1199.25 1973.234)" fill="#20143b"/>
      <path id="Trazado_114" data-name="Trazado 114" d="M.686,0V-6.442H1.56L4.944-1.384V-6.442h.817V0H4.887L1.5-5.062V0Zm9.466,0V-.686A1.708,1.708,0,0,1,8.67.105,1.887,1.887,0,0,1,7.9-.053a1.27,1.27,0,0,1-.532-.4,1.49,1.49,0,0,1-.244-.587,4.017,4.017,0,0,1-.048-.738V-4.667h.791v2.588a4.613,4.613,0,0,0,.048.835.825.825,0,0,0,.316.49.98.98,0,0,0,.6.178A1.3,1.3,0,0,0,9.5-.758a1.014,1.014,0,0,0,.442-.5,2.492,2.492,0,0,0,.13-.912v-2.5h.791V0ZM8.49-5.247l.584-1.23h1.037l-.967,1.23ZM12.1,0V-4.667h.708v.655a1.663,1.663,0,0,1,.584-.552,1.642,1.642,0,0,1,.831-.209,1.535,1.535,0,0,1,.85.215,1.152,1.152,0,0,1,.468.6,1.676,1.676,0,0,1,1.441-.817,1.421,1.421,0,0,1,1.068.385A1.643,1.643,0,0,1,18.422-3.2V0h-.787V-2.94a2.165,2.165,0,0,0-.077-.683.662.662,0,0,0-.279-.336.871.871,0,0,0-.475-.127,1.1,1.1,0,0,0-.817.327,1.442,1.442,0,0,0-.325,1.048V0h-.791V-3.032a1.334,1.334,0,0,0-.193-.791.732.732,0,0,0-.633-.264,1.149,1.149,0,0,0-.617.176,1,1,0,0,0-.411.514,2.894,2.894,0,0,0-.127.976V0ZM22.79-1.5l.817.1A1.994,1.994,0,0,1,22.891-.29a2.153,2.153,0,0,1-1.336.4,2.135,2.135,0,0,1-1.624-.631,2.464,2.464,0,0,1-.6-1.769,2.579,2.579,0,0,1,.606-1.828,2.053,2.053,0,0,1,1.573-.65,2,2,0,0,1,1.529.637,2.532,2.532,0,0,1,.593,1.793q0,.07,0,.211h-3.48a1.793,1.793,0,0,0,.435,1.178,1.3,1.3,0,0,0,.976.409A1.21,1.21,0,0,0,22.3-.773,1.517,1.517,0,0,0,22.79-1.5Zm-2.6-1.279H22.8a1.581,1.581,0,0,0-.3-.883,1.212,1.212,0,0,0-.98-.457,1.257,1.257,0,0,0-.916.365A1.444,1.444,0,0,0,20.193-2.782ZM24.592,0V-4.667H25.3v.708a1.931,1.931,0,0,1,.5-.655.878.878,0,0,1,.508-.158,1.543,1.543,0,0,1,.813.255l-.272.734a1.132,1.132,0,0,0-.58-.171.753.753,0,0,0-.466.156.845.845,0,0,0-.294.433,3.081,3.081,0,0,0-.132.923V0ZM27.3-2.333a2.406,2.406,0,0,1,.721-1.92,2.172,2.172,0,0,1,1.468-.519,2.094,2.094,0,0,1,1.573.631A2.4,2.4,0,0,1,31.676-2.4a3.087,3.087,0,0,1-.27,1.417,1.913,1.913,0,0,1-.787.8,2.29,2.29,0,0,1-1.127.286,2.1,2.1,0,0,1-1.584-.628A2.51,2.51,0,0,1,27.3-2.333Zm.813,0a1.988,1.988,0,0,0,.391,1.343,1.254,1.254,0,0,0,.984.446,1.246,1.246,0,0,0,.98-.448,2.035,2.035,0,0,0,.391-1.367,1.928,1.928,0,0,0-.393-1.312,1.251,1.251,0,0,0-.978-.446,1.256,1.256,0,0,0-.984.444A1.979,1.979,0,0,0,28.116-2.333ZM38.131,0V-.589a1.452,1.452,0,0,1-1.305.694A1.83,1.83,0,0,1,35.8-.2a2.023,2.023,0,0,1-.725-.859,2.969,2.969,0,0,1-.257-1.268A3.318,3.318,0,0,1,35.051-3.6a1.837,1.837,0,0,1,.7-.872,1.868,1.868,0,0,1,1.042-.3,1.556,1.556,0,0,1,.751.178,1.571,1.571,0,0,1,.536.464V-6.442h.787V0Zm-2.5-2.329a2.027,2.027,0,0,0,.378,1.34,1.14,1.14,0,0,0,.892.444,1.119,1.119,0,0,0,.881-.424,1.955,1.955,0,0,0,.363-1.294,2.195,2.195,0,0,0-.369-1.406,1.135,1.135,0,0,0-.91-.448,1.1,1.1,0,0,0-.881.431A2.126,2.126,0,0,0,35.631-2.329ZM43.3-1.5l.817.1A1.994,1.994,0,0,1,43.4-.29a2.153,2.153,0,0,1-1.336.4,2.135,2.135,0,0,1-1.624-.631,2.464,2.464,0,0,1-.6-1.769,2.579,2.579,0,0,1,.606-1.828,2.053,2.053,0,0,1,1.573-.65,2,2,0,0,1,1.529.637,2.532,2.532,0,0,1,.593,1.793q0,.07,0,.211h-3.48A1.793,1.793,0,0,0,41.1-.954a1.3,1.3,0,0,0,.976.409,1.21,1.21,0,0,0,.743-.229A1.517,1.517,0,0,0,43.3-1.5Zm-2.6-1.279h2.606a1.581,1.581,0,0,0-.3-.883,1.212,1.212,0,0,0-.98-.457,1.257,1.257,0,0,0-.916.365A1.444,1.444,0,0,0,40.707-2.782ZM45.1,0V-6.442h.791V0Z" transform="translate(1211.256 1958.096)" fill="#20143b"/>
      <path id="Trazado_115" data-name="Trazado 115" transform="translate(1255.099 1958.455)" fill="#20143b"/>
      <path id="Trazado_116" data-name="Trazado 116" d="M3.639-1.709l.778.1A2.017,2.017,0,0,1,3.764-.349a1.9,1.9,0,0,1-1.29.455A2,2,0,0,1,.934-.521a2.541,2.541,0,0,1-.582-1.8A3.249,3.249,0,0,1,.6-3.639a1.746,1.746,0,0,1,.762-.85,2.262,2.262,0,0,1,1.114-.283,1.937,1.937,0,0,1,1.244.385A1.763,1.763,0,0,1,4.342-3.3l-.769.119a1.277,1.277,0,0,0-.389-.708,1.006,1.006,0,0,0-.675-.237,1.228,1.228,0,0,0-.971.428,2.034,2.034,0,0,0-.374,1.356,2.1,2.1,0,0,0,.36,1.367,1.173,1.173,0,0,0,.94.426,1.108,1.108,0,0,0,.778-.286A1.418,1.418,0,0,0,3.639-1.709Zm4.5,1.134a2.945,2.945,0,0,1-.846.527A2.444,2.444,0,0,1,6.42.105,1.7,1.7,0,0,1,5.238-.27a1.24,1.24,0,0,1-.413-.96,1.277,1.277,0,0,1,.156-.626,1.291,1.291,0,0,1,.409-.455,1.922,1.922,0,0,1,.569-.259,5.652,5.652,0,0,1,.7-.119,7.23,7.23,0,0,0,1.411-.272q0-.163,0-.207a.873.873,0,0,0-.224-.681,1.324,1.324,0,0,0-.9-.268,1.4,1.4,0,0,0-.824.2,1.2,1.2,0,0,0-.393.692l-.773-.105a1.916,1.916,0,0,1,.347-.8,1.522,1.522,0,0,1,.7-.47,3.117,3.117,0,0,1,1.059-.165,2.8,2.8,0,0,1,.971.141,1.28,1.28,0,0,1,.549.354,1.244,1.244,0,0,1,.246.538,4.454,4.454,0,0,1,.04.729v1.055a11.2,11.2,0,0,0,.051,1.4,1.76,1.76,0,0,0,.2.56H8.3A1.677,1.677,0,0,1,8.139-.576ZM8.073-2.342a5.8,5.8,0,0,1-1.292.3,2.988,2.988,0,0,0-.69.158.688.688,0,0,0-.312.257.675.675,0,0,0-.11.376.674.674,0,0,0,.24.527,1.03,1.03,0,0,0,.7.211,1.631,1.631,0,0,0,.813-.2,1.231,1.231,0,0,0,.523-.547,1.911,1.911,0,0,0,.127-.791ZM10.1,1.789V-4.667h.721v.606a1.776,1.776,0,0,1,.576-.534,1.582,1.582,0,0,1,.778-.178,1.844,1.844,0,0,1,1.055.308,1.888,1.888,0,0,1,.69.868,3.169,3.169,0,0,1,.233,1.228,3.12,3.12,0,0,1-.257,1.29,1.938,1.938,0,0,1-.747.879,1.918,1.918,0,0,1-1.031.305,1.489,1.489,0,0,1-.71-.167,1.616,1.616,0,0,1-.516-.422V1.789Zm.716-4.1A2.03,2.03,0,0,0,11.18-.976a1.119,1.119,0,0,0,.883.431,1.144,1.144,0,0,0,.9-.446,2.116,2.116,0,0,0,.376-1.382,2.062,2.062,0,0,0-.367-1.336,1.1,1.1,0,0,0-.877-.444,1.139,1.139,0,0,0-.894.472A2.114,2.114,0,0,0,10.815-2.307ZM15.381,0V-4.667h.791V0Zm-.04-5.247.584-1.23h1.037L16-5.247Zm3.99,4.54.114.7a2.934,2.934,0,0,1-.6.07,1.353,1.353,0,0,1-.668-.136.763.763,0,0,1-.334-.358,2.832,2.832,0,0,1-.1-.934V-4.052h-.58v-.615h.58V-5.823l.787-.475v1.63h.8v.615h-.8v2.729a1.379,1.379,0,0,0,.042.435.329.329,0,0,0,.136.154.526.526,0,0,0,.27.057A2.573,2.573,0,0,0,19.332-.708ZM23.164,0V-.686a1.708,1.708,0,0,1-1.481.791,1.887,1.887,0,0,1-.771-.158,1.27,1.27,0,0,1-.532-.4,1.49,1.49,0,0,1-.244-.587,4.017,4.017,0,0,1-.048-.738V-4.667h.791v2.588a4.613,4.613,0,0,0,.048.835.825.825,0,0,0,.316.49.98.98,0,0,0,.6.178,1.3,1.3,0,0,0,.668-.182,1.014,1.014,0,0,0,.442-.5,2.492,2.492,0,0,0,.13-.912v-2.5h.791V0Zm1.929,0V-6.442h.791V0Zm1.723-2.333a2.406,2.406,0,0,1,.721-1.92A2.172,2.172,0,0,1,29-4.772a2.094,2.094,0,0,1,1.573.631A2.4,2.4,0,0,1,31.188-2.4a3.087,3.087,0,0,1-.27,1.417,1.913,1.913,0,0,1-.787.8A2.29,2.29,0,0,1,29,.105,2.1,2.1,0,0,1,27.42-.523,2.51,2.51,0,0,1,26.815-2.333Zm.813,0A1.988,1.988,0,0,0,28.02-.991,1.254,1.254,0,0,0,29-.545a1.246,1.246,0,0,0,.98-.448,2.035,2.035,0,0,0,.391-1.367,1.928,1.928,0,0,0-.393-1.312A1.251,1.251,0,0,0,29-4.118a1.256,1.256,0,0,0-.984.444A1.979,1.979,0,0,0,27.628-2.333Z" transform="translate(1218.353 1968.316)" fill="#20143b"/>
      <path id="Trazado_117" data-name="Trazado 117" d="M.694,0V-6.442H2.914a5.383,5.383,0,0,1,1.147.092,2.182,2.182,0,0,1,.945.461,2.621,2.621,0,0,1,.762,1.1,4.321,4.321,0,0,1,.253,1.531,4.5,4.5,0,0,1-.171,1.3,3.156,3.156,0,0,1-.439.938,2.335,2.335,0,0,1-.587.584,2.391,2.391,0,0,1-.769.323A4.389,4.389,0,0,1,3.019,0Zm.853-.76H2.922a3.338,3.338,0,0,0,1-.119A1.43,1.43,0,0,0,4.5-1.213a2.032,2.032,0,0,0,.472-.815A3.985,3.985,0,0,0,5.142-3.27,3,3,0,0,0,4.81-4.823,1.67,1.67,0,0,0,4-5.55a3.333,3.333,0,0,0-1.1-.132H1.547ZM10.288-1.5l.817.1A1.994,1.994,0,0,1,10.389-.29a2.153,2.153,0,0,1-1.336.4A2.135,2.135,0,0,1,7.429-.525a2.464,2.464,0,0,1-.6-1.769,2.579,2.579,0,0,1,.606-1.828,2.053,2.053,0,0,1,1.573-.65,2,2,0,0,1,1.529.637,2.532,2.532,0,0,1,.593,1.793q0,.07,0,.211H7.646A1.793,1.793,0,0,0,8.082-.954a1.3,1.3,0,0,0,.976.409A1.21,1.21,0,0,0,9.8-.773,1.517,1.517,0,0,0,10.288-1.5ZM7.69-2.782H10.3a1.581,1.581,0,0,0-.3-.883,1.212,1.212,0,0,0-.98-.457,1.257,1.257,0,0,0-.916.365A1.444,1.444,0,0,0,7.69-2.782Zm4.091,1.389.782-.123a1.093,1.093,0,0,0,.367.721,1.279,1.279,0,0,0,.842.25,1.236,1.236,0,0,0,.809-.222.664.664,0,0,0,.264-.521.48.48,0,0,0-.233-.422,3.431,3.431,0,0,0-.809-.268,7.379,7.379,0,0,1-1.206-.38,1.169,1.169,0,0,1-.51-.444,1.176,1.176,0,0,1-.174-.626,1.2,1.2,0,0,1,.143-.578,1.281,1.281,0,0,1,.389-.442,1.631,1.631,0,0,1,.5-.231,2.393,2.393,0,0,1,.683-.094,2.7,2.7,0,0,1,.965.158,1.312,1.312,0,0,1,.613.428,1.674,1.674,0,0,1,.272.723l-.773.105A.846.846,0,0,0,14.4-3.92a1.117,1.117,0,0,0-.714-.2,1.293,1.293,0,0,0-.778.18.525.525,0,0,0-.233.422.437.437,0,0,0,.1.277.7.7,0,0,0,.3.211q.119.044.7.2a9.727,9.727,0,0,1,1.171.367,1.188,1.188,0,0,1,.521.415,1.159,1.159,0,0,1,.189.677,1.328,1.328,0,0,1-.231.745,1.491,1.491,0,0,1-.666.541,2.423,2.423,0,0,1-.984.191A2.193,2.193,0,0,1,12.39-.272,1.758,1.758,0,0,1,11.782-1.393Zm7.862-.316.778.1a2.017,2.017,0,0,1-.653,1.259,1.9,1.9,0,0,1-1.29.455,2,2,0,0,1-1.54-.626,2.541,2.541,0,0,1-.582-1.8,3.249,3.249,0,0,1,.25-1.323,1.746,1.746,0,0,1,.762-.85,2.262,2.262,0,0,1,1.114-.283,1.937,1.937,0,0,1,1.244.385,1.763,1.763,0,0,1,.62,1.092l-.769.119a1.277,1.277,0,0,0-.389-.708,1.006,1.006,0,0,0-.675-.237,1.228,1.228,0,0,0-.971.428,2.034,2.034,0,0,0-.374,1.356,2.1,2.1,0,0,0,.36,1.367,1.173,1.173,0,0,0,.94.426,1.108,1.108,0,0,0,.778-.286A1.418,1.418,0,0,0,19.644-1.709ZM21.089,0V-4.667H21.8v.708a1.931,1.931,0,0,1,.5-.655.878.878,0,0,1,.508-.158,1.543,1.543,0,0,1,.813.255l-.272.734a1.132,1.132,0,0,0-.58-.171.753.753,0,0,0-.466.156.845.845,0,0,0-.294.433,3.081,3.081,0,0,0-.132.923V0ZM24.1-5.533v-.91h.791v.91ZM24.1,0V-4.667h.791V0Zm2,1.789V-4.667h.721v.606a1.776,1.776,0,0,1,.576-.534,1.582,1.582,0,0,1,.778-.178,1.844,1.844,0,0,1,1.055.308,1.888,1.888,0,0,1,.69.868,3.169,3.169,0,0,1,.233,1.228,3.12,3.12,0,0,1-.257,1.29,1.938,1.938,0,0,1-.747.879,1.918,1.918,0,0,1-1.031.305,1.489,1.489,0,0,1-.71-.167,1.616,1.616,0,0,1-.516-.422V1.789Zm.716-4.1a2.03,2.03,0,0,0,.365,1.332,1.119,1.119,0,0,0,.883.431,1.144,1.144,0,0,0,.9-.446,2.116,2.116,0,0,0,.376-1.382,2.062,2.062,0,0,0-.367-1.336,1.1,1.1,0,0,0-.877-.444,1.139,1.139,0,0,0-.894.472A2.114,2.114,0,0,0,26.811-2.307Zm6.016,1.6.114.7a2.934,2.934,0,0,1-.6.07,1.353,1.353,0,0,1-.668-.136.763.763,0,0,1-.334-.358,2.832,2.832,0,0,1-.1-.934V-4.052h-.58v-.615h.58V-5.823l.787-.475v1.63h.8v.615h-.8v2.729a1.379,1.379,0,0,0,.042.435.329.329,0,0,0,.136.154.526.526,0,0,0,.27.057A2.573,2.573,0,0,0,32.827-.708Zm.479-1.626a2.406,2.406,0,0,1,.721-1.92,2.172,2.172,0,0,1,1.468-.519,2.094,2.094,0,0,1,1.573.631A2.4,2.4,0,0,1,37.679-2.4a3.087,3.087,0,0,1-.27,1.417,1.913,1.913,0,0,1-.787.8,2.29,2.29,0,0,1-1.127.286A2.1,2.1,0,0,1,33.91-.523,2.51,2.51,0,0,1,33.306-2.333Zm.813,0A1.988,1.988,0,0,0,34.51-.991a1.254,1.254,0,0,0,.984.446,1.246,1.246,0,0,0,.98-.448,2.035,2.035,0,0,0,.391-1.367,1.928,1.928,0,0,0-.393-1.312,1.251,1.251,0,0,0-.978-.446,1.256,1.256,0,0,0-.984.444A1.979,1.979,0,0,0,34.119-2.333ZM38.6,0V-4.667h.712v.708a1.931,1.931,0,0,1,.5-.655.878.878,0,0,1,.508-.158,1.543,1.543,0,0,1,.813.255l-.272.734a1.132,1.132,0,0,0-.58-.171.753.753,0,0,0-.466.156.845.845,0,0,0-.294.433,3.081,3.081,0,0,0-.132.923V0Zm8.534,0V-.589a1.452,1.452,0,0,1-1.305.694A1.83,1.83,0,0,1,44.8-.2a2.023,2.023,0,0,1-.725-.859,2.969,2.969,0,0,1-.257-1.268A3.318,3.318,0,0,1,44.051-3.6a1.837,1.837,0,0,1,.7-.872,1.868,1.868,0,0,1,1.042-.3,1.556,1.556,0,0,1,.751.178,1.571,1.571,0,0,1,.536.464V-6.442h.787V0Zm-2.5-2.329a2.027,2.027,0,0,0,.378,1.34,1.14,1.14,0,0,0,.892.444,1.119,1.119,0,0,0,.881-.424,1.955,1.955,0,0,0,.363-1.294,2.195,2.195,0,0,0-.369-1.406,1.135,1.135,0,0,0-.91-.448,1.1,1.1,0,0,0-.881.431A2.126,2.126,0,0,0,44.631-2.329ZM52.3-1.5l.817.1A1.994,1.994,0,0,1,52.4-.29a2.153,2.153,0,0,1-1.336.4,2.135,2.135,0,0,1-1.624-.631,2.464,2.464,0,0,1-.6-1.769,2.579,2.579,0,0,1,.606-1.828,2.053,2.053,0,0,1,1.573-.65,2,2,0,0,1,1.529.637,2.532,2.532,0,0,1,.593,1.793q0,.07,0,.211h-3.48A1.793,1.793,0,0,0,50.1-.954a1.3,1.3,0,0,0,.976.409,1.21,1.21,0,0,0,.743-.229A1.517,1.517,0,0,0,52.3-1.5Zm-2.6-1.279h2.606a1.581,1.581,0,0,0-.3-.883,1.212,1.212,0,0,0-.98-.457,1.257,1.257,0,0,0-.916.365A1.444,1.444,0,0,0,49.707-2.782Z" transform="translate(1273.446 1952.356)" fill="#20143b"/>
      <path id="Trazado_118" data-name="Trazado 118" d="M.277-1.393l.782-.123A1.093,1.093,0,0,0,1.426-.8a1.279,1.279,0,0,0,.842.25,1.236,1.236,0,0,0,.809-.222.664.664,0,0,0,.264-.521.48.48,0,0,0-.233-.422A3.431,3.431,0,0,0,2.3-1.978a7.379,7.379,0,0,1-1.206-.38A1.169,1.169,0,0,1,.582-2.8a1.176,1.176,0,0,1-.174-.626,1.2,1.2,0,0,1,.143-.578A1.281,1.281,0,0,1,.94-4.447a1.631,1.631,0,0,1,.5-.231,2.393,2.393,0,0,1,.683-.094,2.7,2.7,0,0,1,.965.158,1.312,1.312,0,0,1,.613.428,1.674,1.674,0,0,1,.272.723L3.2-3.357A.846.846,0,0,0,2.9-3.92a1.117,1.117,0,0,0-.714-.2,1.293,1.293,0,0,0-.778.18.525.525,0,0,0-.233.422.437.437,0,0,0,.1.277.7.7,0,0,0,.3.211q.119.044.7.2a9.727,9.727,0,0,1,1.171.367,1.188,1.188,0,0,1,.521.415,1.159,1.159,0,0,1,.189.677,1.328,1.328,0,0,1-.231.745,1.491,1.491,0,0,1-.666.541,2.423,2.423,0,0,1-.984.191A2.193,2.193,0,0,1,.885-.272,1.758,1.758,0,0,1,.277-1.393ZM8.288-1.5l.817.1A1.994,1.994,0,0,1,8.389-.29a2.153,2.153,0,0,1-1.336.4A2.135,2.135,0,0,1,5.429-.525a2.464,2.464,0,0,1-.6-1.769,2.579,2.579,0,0,1,.606-1.828,2.053,2.053,0,0,1,1.573-.65,2,2,0,0,1,1.529.637,2.532,2.532,0,0,1,.593,1.793q0,.07,0,.211H5.647A1.793,1.793,0,0,0,6.082-.954a1.3,1.3,0,0,0,.976.409A1.21,1.21,0,0,0,7.8-.773,1.517,1.517,0,0,0,8.288-1.5Zm-2.6-1.279H8.3A1.581,1.581,0,0,0,8-3.665a1.212,1.212,0,0,0-.98-.457,1.257,1.257,0,0,0-.916.365A1.444,1.444,0,0,0,5.691-2.782ZM9.954.387,10.723.5a.733.733,0,0,0,.268.519,1.317,1.317,0,0,0,.8.22,1.412,1.412,0,0,0,.848-.22,1.081,1.081,0,0,0,.4-.615A5.052,5.052,0,0,0,13.1-.611,1.627,1.627,0,0,1,11.813,0a1.761,1.761,0,0,1-1.49-.694A2.674,2.674,0,0,1,9.8-2.36a3.1,3.1,0,0,1,.242-1.233,1.934,1.934,0,0,1,.7-.872,1.893,1.893,0,0,1,1.079-.308,1.673,1.673,0,0,1,1.362.668v-.562h.729V-.633A3.826,3.826,0,0,1,13.687.912a1.623,1.623,0,0,1-.7.719,2.437,2.437,0,0,1-1.184.264,2.233,2.233,0,0,1-1.349-.376A1.271,1.271,0,0,1,9.954.387Zm.655-2.8a2.025,2.025,0,0,0,.365,1.34,1.158,1.158,0,0,0,.914.422,1.169,1.169,0,0,0,.914-.42,1.959,1.959,0,0,0,.369-1.316,1.914,1.914,0,0,0-.38-1.292,1.175,1.175,0,0,0-.916-.435,1.142,1.142,0,0,0-.9.428A1.9,1.9,0,0,0,10.608-2.417ZM18.163,0V-.686a1.708,1.708,0,0,1-1.481.791,1.887,1.887,0,0,1-.771-.158,1.27,1.27,0,0,1-.532-.4,1.49,1.49,0,0,1-.244-.587,4.017,4.017,0,0,1-.048-.738V-4.667h.791v2.588a4.613,4.613,0,0,0,.048.835.825.825,0,0,0,.316.49.98.98,0,0,0,.6.178,1.3,1.3,0,0,0,.668-.182,1.014,1.014,0,0,0,.442-.5,2.492,2.492,0,0,0,.13-.912v-2.5h.791V0Zm1.947,0V-4.667h.712V-4a1.678,1.678,0,0,1,1.485-.769,1.949,1.949,0,0,1,.776.152,1.22,1.22,0,0,1,.53.4,1.527,1.527,0,0,1,.246.584,4.529,4.529,0,0,1,.044.769V0h-.791V-2.839a2.131,2.131,0,0,0-.092-.723.76.76,0,0,0-.327-.382,1.041,1.041,0,0,0-.552-.143,1.282,1.282,0,0,0-.872.321A1.583,1.583,0,0,0,20.9-2.549V0Zm8.033,0V-.589a1.452,1.452,0,0,1-1.305.694A1.83,1.83,0,0,1,25.811-.2a2.023,2.023,0,0,1-.725-.859,2.969,2.969,0,0,1-.257-1.268A3.318,3.318,0,0,1,25.062-3.6a1.837,1.837,0,0,1,.7-.872,1.868,1.868,0,0,1,1.042-.3,1.556,1.556,0,0,1,.751.178,1.571,1.571,0,0,1,.536.464V-6.442h.787V0Zm-2.5-2.329a2.027,2.027,0,0,0,.378,1.34,1.14,1.14,0,0,0,.892.444,1.119,1.119,0,0,0,.881-.424,1.955,1.955,0,0,0,.363-1.294,2.195,2.195,0,0,0-.369-1.406,1.135,1.135,0,0,0-.91-.448A1.1,1.1,0,0,0,26-3.687,2.126,2.126,0,0,0,25.642-2.329Zm4.184,0a2.406,2.406,0,0,1,.721-1.92,2.172,2.172,0,0,1,1.468-.519,2.094,2.094,0,0,1,1.573.631A2.4,2.4,0,0,1,34.2-2.4a3.087,3.087,0,0,1-.27,1.417,1.913,1.913,0,0,1-.787.8,2.29,2.29,0,0,1-1.127.286A2.1,2.1,0,0,1,30.43-.523,2.51,2.51,0,0,1,29.826-2.333Zm.813,0A1.988,1.988,0,0,0,31.03-.991a1.254,1.254,0,0,0,.984.446,1.246,1.246,0,0,0,.98-.448,2.035,2.035,0,0,0,.391-1.367,1.928,1.928,0,0,0-.393-1.312,1.251,1.251,0,0,0-.978-.446,1.256,1.256,0,0,0-.984.444A1.979,1.979,0,0,0,30.639-2.333ZM37.626,0V-4.667h.712V-4a1.678,1.678,0,0,1,1.485-.769,1.949,1.949,0,0,1,.776.152,1.22,1.22,0,0,1,.53.4,1.527,1.527,0,0,1,.246.584,4.529,4.529,0,0,1,.044.769V0h-.791V-2.839a2.131,2.131,0,0,0-.092-.723.76.76,0,0,0-.327-.382,1.041,1.041,0,0,0-.552-.143,1.282,1.282,0,0,0-.872.321,1.583,1.583,0,0,0-.367,1.217V0Zm5.01-5.533v-.91h.791v.91Zm0,5.533V-4.667h.791V0Zm3.292,0L44.152-4.667h.835l1,2.795q.163.453.3.94.105-.369.294-.888l1.037-2.848h.813L46.666,0Zm6.4-1.5.817.1A1.994,1.994,0,0,1,52.427-.29a2.153,2.153,0,0,1-1.336.4,2.135,2.135,0,0,1-1.624-.631,2.464,2.464,0,0,1-.6-1.769,2.579,2.579,0,0,1,.606-1.828,2.053,2.053,0,0,1,1.573-.65,2,2,0,0,1,1.529.637,2.532,2.532,0,0,1,.593,1.793q0,.07,0,.211h-3.48A1.793,1.793,0,0,0,50.12-.954a1.3,1.3,0,0,0,.976.409,1.21,1.21,0,0,0,.743-.229A1.517,1.517,0,0,0,52.326-1.5Zm-2.6-1.279h2.606a1.581,1.581,0,0,0-.3-.883,1.212,1.212,0,0,0-.98-.457,1.257,1.257,0,0,0-.916.365A1.444,1.444,0,0,0,49.729-2.782Z" transform="translate(1272.492 1962.576)" fill="#20143b"/>
      <path id="Trazado_119" data-name="Trazado 119" d="M.576,0V-6.442h.791V0Z" transform="translate(1326.106 1962.576)" fill="#20143b"/>
      <path id="Trazado_120" data-name="Trazado 120" d="M2.1,1.894A7.908,7.908,0,0,1,1-.04,6.008,6.008,0,0,1,.545-2.333a5.972,5.972,0,0,1,.338-2A8.423,8.423,0,0,1,2.1-6.552h.567q-.532.914-.7,1.305a7.131,7.131,0,0,0-.422,1.266,7.351,7.351,0,0,0-.189,1.652A7.93,7.93,0,0,0,2.672,1.894ZM6.618,0V-.589A1.452,1.452,0,0,1,5.313.105,1.83,1.83,0,0,1,4.287-.2a2.023,2.023,0,0,1-.725-.859A2.969,2.969,0,0,1,3.3-2.329,3.318,3.318,0,0,1,3.538-3.6a1.837,1.837,0,0,1,.7-.872,1.868,1.868,0,0,1,1.042-.3,1.556,1.556,0,0,1,.751.178,1.571,1.571,0,0,1,.536.464V-6.442h.787V0Zm-2.5-2.329A2.027,2.027,0,0,0,4.5-.989a1.14,1.14,0,0,0,.892.444,1.119,1.119,0,0,0,.881-.424,1.955,1.955,0,0,0,.363-1.294,2.195,2.195,0,0,0-.369-1.406,1.135,1.135,0,0,0-.91-.448,1.1,1.1,0,0,0-.881.431A2.126,2.126,0,0,0,4.118-2.329Zm4.184,0a2.406,2.406,0,0,1,.721-1.92,2.172,2.172,0,0,1,1.468-.519,2.094,2.094,0,0,1,1.573.631A2.4,2.4,0,0,1,12.674-2.4,3.087,3.087,0,0,1,12.4-.982a1.913,1.913,0,0,1-.787.8A2.29,2.29,0,0,1,10.49.105,2.1,2.1,0,0,1,8.906-.523,2.51,2.51,0,0,1,8.3-2.333Zm.813,0A1.988,1.988,0,0,0,9.505-.991a1.254,1.254,0,0,0,.984.446,1.246,1.246,0,0,0,.98-.448,2.035,2.035,0,0,0,.391-1.367,1.928,1.928,0,0,0-.393-1.312,1.251,1.251,0,0,0-.978-.446,1.256,1.256,0,0,0-.984.444A1.979,1.979,0,0,0,9.114-2.333Zm4.17.94.782-.123a1.093,1.093,0,0,0,.367.721,1.279,1.279,0,0,0,.842.25,1.236,1.236,0,0,0,.809-.222.664.664,0,0,0,.264-.521.48.48,0,0,0-.233-.422,3.431,3.431,0,0,0-.809-.268,7.379,7.379,0,0,1-1.206-.38,1.169,1.169,0,0,1-.51-.444,1.176,1.176,0,0,1-.174-.626,1.2,1.2,0,0,1,.143-.578,1.281,1.281,0,0,1,.389-.442,1.631,1.631,0,0,1,.5-.231,2.393,2.393,0,0,1,.683-.094,2.7,2.7,0,0,1,.965.158,1.312,1.312,0,0,1,.613.428,1.674,1.674,0,0,1,.272.723l-.773.105a.846.846,0,0,0-.305-.562,1.117,1.117,0,0,0-.714-.2,1.293,1.293,0,0,0-.778.18.525.525,0,0,0-.233.422.437.437,0,0,0,.1.277.7.7,0,0,0,.3.211q.119.044.7.2a9.727,9.727,0,0,1,1.171.367,1.188,1.188,0,0,1,.521.415,1.159,1.159,0,0,1,.189.677,1.328,1.328,0,0,1-.231.745,1.491,1.491,0,0,1-.666.541,2.423,2.423,0,0,1-.984.191,2.193,2.193,0,0,1-1.386-.378A1.758,1.758,0,0,1,13.285-1.393ZM23.629,0V-.589a1.452,1.452,0,0,1-1.305.694A1.83,1.83,0,0,1,21.3-.2a2.023,2.023,0,0,1-.725-.859,2.969,2.969,0,0,1-.257-1.268A3.318,3.318,0,0,1,20.549-3.6a1.837,1.837,0,0,1,.7-.872,1.868,1.868,0,0,1,1.042-.3,1.556,1.556,0,0,1,.751.178,1.571,1.571,0,0,1,.536.464V-6.442h.787V0Zm-2.5-2.329a2.027,2.027,0,0,0,.378,1.34,1.14,1.14,0,0,0,.892.444,1.119,1.119,0,0,0,.881-.424,1.955,1.955,0,0,0,.363-1.294,2.195,2.195,0,0,0-.369-1.406,1.135,1.135,0,0,0-.91-.448,1.1,1.1,0,0,0-.881.431A2.126,2.126,0,0,0,21.129-2.329ZM25.884,0V-4.667h.791V0Zm-.04-5.247.584-1.23h1.037L26.5-5.247ZM27.962.387,28.731.5A.733.733,0,0,0,29,1.02a1.317,1.317,0,0,0,.8.22,1.412,1.412,0,0,0,.848-.22,1.081,1.081,0,0,0,.4-.615,5.052,5.052,0,0,0,.057-1.015A1.627,1.627,0,0,1,29.821,0a1.761,1.761,0,0,1-1.49-.694A2.674,2.674,0,0,1,27.8-2.36a3.1,3.1,0,0,1,.242-1.233,1.934,1.934,0,0,1,.7-.872,1.893,1.893,0,0,1,1.079-.308,1.673,1.673,0,0,1,1.362.668v-.562h.729V-.633A3.826,3.826,0,0,1,31.7.912a1.623,1.623,0,0,1-.7.719,2.437,2.437,0,0,1-1.184.264,2.233,2.233,0,0,1-1.349-.376A1.271,1.271,0,0,1,27.962.387Zm.655-2.8a2.025,2.025,0,0,0,.365,1.34,1.158,1.158,0,0,0,.914.422,1.169,1.169,0,0,0,.914-.42,1.959,1.959,0,0,0,.369-1.316,1.914,1.914,0,0,0-.38-1.292,1.175,1.175,0,0,0-.916-.435,1.142,1.142,0,0,0-.9.428A1.9,1.9,0,0,0,28.617-2.417Zm4.5-3.116v-.91h.791v.91Zm0,5.533V-4.667h.791V0Zm3.722-.708.114.7a2.934,2.934,0,0,1-.6.07,1.353,1.353,0,0,1-.668-.136.763.763,0,0,1-.334-.358,2.832,2.832,0,0,1-.1-.934V-4.052h-.58v-.615h.58V-5.823l.787-.475v1.63h.8v.615h-.8v2.729a1.379,1.379,0,0,0,.042.435.329.329,0,0,0,.136.154.526.526,0,0,0,.27.057A2.573,2.573,0,0,0,36.839-.708Zm.479-1.626a2.406,2.406,0,0,1,.721-1.92,2.172,2.172,0,0,1,1.468-.519,2.094,2.094,0,0,1,1.573.631A2.4,2.4,0,0,1,41.691-2.4a3.087,3.087,0,0,1-.27,1.417,1.913,1.913,0,0,1-.787.8,2.29,2.29,0,0,1-1.127.286,2.1,2.1,0,0,1-1.584-.628A2.51,2.51,0,0,1,37.318-2.333Zm.813,0a1.988,1.988,0,0,0,.391,1.343,1.254,1.254,0,0,0,.984.446,1.246,1.246,0,0,0,.98-.448,2.035,2.035,0,0,0,.391-1.367,1.928,1.928,0,0,0-.393-1.312,1.251,1.251,0,0,0-.978-.446,1.256,1.256,0,0,0-.984.444A1.979,1.979,0,0,0,38.131-2.333Zm4.17.94.782-.123a1.093,1.093,0,0,0,.367.721,1.279,1.279,0,0,0,.842.25A1.236,1.236,0,0,0,45.1-.767a.664.664,0,0,0,.264-.521.48.48,0,0,0-.233-.422,3.431,3.431,0,0,0-.809-.268,7.379,7.379,0,0,1-1.206-.38,1.169,1.169,0,0,1-.51-.444,1.176,1.176,0,0,1-.174-.626,1.2,1.2,0,0,1,.143-.578,1.281,1.281,0,0,1,.389-.442,1.631,1.631,0,0,1,.5-.231,2.393,2.393,0,0,1,.683-.094,2.7,2.7,0,0,1,.965.158,1.312,1.312,0,0,1,.613.428A1.674,1.674,0,0,1,46-3.463l-.773.105a.846.846,0,0,0-.305-.562,1.117,1.117,0,0,0-.714-.2,1.293,1.293,0,0,0-.778.18.525.525,0,0,0-.233.422.437.437,0,0,0,.1.277.7.7,0,0,0,.3.211q.119.044.7.2a9.727,9.727,0,0,1,1.171.367,1.188,1.188,0,0,1,.521.415,1.159,1.159,0,0,1,.189.677,1.328,1.328,0,0,1-.231.745,1.491,1.491,0,0,1-.666.541A2.423,2.423,0,0,1,44.3.105,2.193,2.193,0,0,1,42.91-.272,1.758,1.758,0,0,1,42.3-1.393Zm5.335,3.287H47.07a7.93,7.93,0,0,0,1.314-4.223,7.217,7.217,0,0,0-.189-1.639,6.889,6.889,0,0,0-.417-1.266,14.847,14.847,0,0,0-.708-1.318h.567a8.423,8.423,0,0,1,1.222,2.215,5.972,5.972,0,0,1,.338,2A5.983,5.983,0,0,1,48.742-.04,8.047,8.047,0,0,1,47.637,1.894Z" transform="translate(1275.337 1972.796)" fill="#20143b"/>
      <path id="Trazado_121" data-name="Trazado 121" d="M.694,0V-6.442H2.914a5.383,5.383,0,0,1,1.147.092,2.182,2.182,0,0,1,.945.461,2.621,2.621,0,0,1,.762,1.1,4.321,4.321,0,0,1,.253,1.531,4.5,4.5,0,0,1-.171,1.3,3.156,3.156,0,0,1-.439.938,2.335,2.335,0,0,1-.587.584,2.391,2.391,0,0,1-.769.323A4.389,4.389,0,0,1,3.019,0Zm.853-.76H2.922a3.338,3.338,0,0,0,1-.119A1.43,1.43,0,0,0,4.5-1.213a2.032,2.032,0,0,0,.472-.815A3.985,3.985,0,0,0,5.142-3.27,3,3,0,0,0,4.81-4.823,1.67,1.67,0,0,0,4-5.55a3.333,3.333,0,0,0-1.1-.132H1.547ZM10.288-1.5l.817.1A1.994,1.994,0,0,1,10.389-.29a2.153,2.153,0,0,1-1.336.4A2.135,2.135,0,0,1,7.429-.525a2.464,2.464,0,0,1-.6-1.769,2.579,2.579,0,0,1,.606-1.828,2.053,2.053,0,0,1,1.573-.65,2,2,0,0,1,1.529.637,2.532,2.532,0,0,1,.593,1.793q0,.07,0,.211H7.646A1.793,1.793,0,0,0,8.082-.954a1.3,1.3,0,0,0,.976.409A1.21,1.21,0,0,0,9.8-.773,1.517,1.517,0,0,0,10.288-1.5ZM7.69-2.782H10.3a1.581,1.581,0,0,0-.3-.883,1.212,1.212,0,0,0-.98-.457,1.257,1.257,0,0,0-.916.365A1.444,1.444,0,0,0,7.69-2.782Zm4.091,1.389.782-.123a1.093,1.093,0,0,0,.367.721,1.279,1.279,0,0,0,.842.25,1.236,1.236,0,0,0,.809-.222.664.664,0,0,0,.264-.521.48.48,0,0,0-.233-.422,3.431,3.431,0,0,0-.809-.268,7.379,7.379,0,0,1-1.206-.38,1.169,1.169,0,0,1-.51-.444,1.176,1.176,0,0,1-.174-.626,1.2,1.2,0,0,1,.143-.578,1.281,1.281,0,0,1,.389-.442,1.631,1.631,0,0,1,.5-.231,2.393,2.393,0,0,1,.683-.094,2.7,2.7,0,0,1,.965.158,1.312,1.312,0,0,1,.613.428,1.674,1.674,0,0,1,.272.723l-.773.105A.846.846,0,0,0,14.4-3.92a1.117,1.117,0,0,0-.714-.2,1.293,1.293,0,0,0-.778.18.525.525,0,0,0-.233.422.437.437,0,0,0,.1.277.7.7,0,0,0,.3.211q.119.044.7.2a9.727,9.727,0,0,1,1.171.367,1.188,1.188,0,0,1,.521.415,1.159,1.159,0,0,1,.189.677,1.328,1.328,0,0,1-.231.745,1.491,1.491,0,0,1-.666.541,2.423,2.423,0,0,1-.984.191A2.193,2.193,0,0,1,12.39-.272,1.758,1.758,0,0,1,11.782-1.393Zm7.862-.316.778.1a2.017,2.017,0,0,1-.653,1.259,1.9,1.9,0,0,1-1.29.455,2,2,0,0,1-1.54-.626,2.541,2.541,0,0,1-.582-1.8,3.249,3.249,0,0,1,.25-1.323,1.746,1.746,0,0,1,.762-.85,2.262,2.262,0,0,1,1.114-.283,1.937,1.937,0,0,1,1.244.385,1.763,1.763,0,0,1,.62,1.092l-.769.119a1.277,1.277,0,0,0-.389-.708,1.006,1.006,0,0,0-.675-.237,1.228,1.228,0,0,0-.971.428,2.034,2.034,0,0,0-.374,1.356,2.1,2.1,0,0,0,.36,1.367,1.173,1.173,0,0,0,.94.426,1.108,1.108,0,0,0,.778-.286A1.418,1.418,0,0,0,19.644-1.709ZM21.089,0V-4.667H21.8v.708a1.931,1.931,0,0,1,.5-.655.878.878,0,0,1,.508-.158,1.543,1.543,0,0,1,.813.255l-.272.734a1.132,1.132,0,0,0-.58-.171.753.753,0,0,0-.466.156.845.845,0,0,0-.294.433,3.081,3.081,0,0,0-.132.923V0ZM24.1-5.533v-.91h.791v.91ZM24.1,0V-4.667h.791V0Zm2,1.789V-4.667h.721v.606a1.776,1.776,0,0,1,.576-.534,1.582,1.582,0,0,1,.778-.178,1.844,1.844,0,0,1,1.055.308,1.888,1.888,0,0,1,.69.868,3.169,3.169,0,0,1,.233,1.228,3.12,3.12,0,0,1-.257,1.29,1.938,1.938,0,0,1-.747.879,1.918,1.918,0,0,1-1.031.305,1.489,1.489,0,0,1-.71-.167,1.616,1.616,0,0,1-.516-.422V1.789Zm.716-4.1a2.03,2.03,0,0,0,.365,1.332,1.119,1.119,0,0,0,.883.431,1.144,1.144,0,0,0,.9-.446,2.116,2.116,0,0,0,.376-1.382,2.062,2.062,0,0,0-.367-1.336,1.1,1.1,0,0,0-.877-.444,1.139,1.139,0,0,0-.894.472A2.114,2.114,0,0,0,26.811-2.307Zm6.016,1.6.114.7a2.934,2.934,0,0,1-.6.07,1.353,1.353,0,0,1-.668-.136.763.763,0,0,1-.334-.358,2.832,2.832,0,0,1-.1-.934V-4.052h-.58v-.615h.58V-5.823l.787-.475v1.63h.8v.615h-.8v2.729a1.379,1.379,0,0,0,.042.435.329.329,0,0,0,.136.154.526.526,0,0,0,.27.057A2.573,2.573,0,0,0,32.827-.708Zm.479-1.626a2.406,2.406,0,0,1,.721-1.92,2.172,2.172,0,0,1,1.468-.519,2.094,2.094,0,0,1,1.573.631A2.4,2.4,0,0,1,37.679-2.4a3.087,3.087,0,0,1-.27,1.417,1.913,1.913,0,0,1-.787.8,2.29,2.29,0,0,1-1.127.286A2.1,2.1,0,0,1,33.91-.523,2.51,2.51,0,0,1,33.306-2.333Zm.813,0A1.988,1.988,0,0,0,34.51-.991a1.254,1.254,0,0,0,.984.446,1.246,1.246,0,0,0,.98-.448,2.035,2.035,0,0,0,.391-1.367,1.928,1.928,0,0,0-.393-1.312,1.251,1.251,0,0,0-.978-.446,1.256,1.256,0,0,0-.984.444A1.979,1.979,0,0,0,34.119-2.333ZM38.6,0V-4.667h.712v.708a1.931,1.931,0,0,1,.5-.655.878.878,0,0,1,.508-.158,1.543,1.543,0,0,1,.813.255l-.272.734a1.132,1.132,0,0,0-.58-.171.753.753,0,0,0-.466.156.845.845,0,0,0-.294.433,3.081,3.081,0,0,0-.132.923V0Zm8.534,0V-.589a1.452,1.452,0,0,1-1.305.694A1.83,1.83,0,0,1,44.8-.2a2.023,2.023,0,0,1-.725-.859,2.969,2.969,0,0,1-.257-1.268A3.318,3.318,0,0,1,44.051-3.6a1.837,1.837,0,0,1,.7-.872,1.868,1.868,0,0,1,1.042-.3,1.556,1.556,0,0,1,.751.178,1.571,1.571,0,0,1,.536.464V-6.442h.787V0Zm-2.5-2.329a2.027,2.027,0,0,0,.378,1.34,1.14,1.14,0,0,0,.892.444,1.119,1.119,0,0,0,.881-.424,1.955,1.955,0,0,0,.363-1.294,2.195,2.195,0,0,0-.369-1.406,1.135,1.135,0,0,0-.91-.448,1.1,1.1,0,0,0-.881.431A2.126,2.126,0,0,0,44.631-2.329ZM52.3-1.5l.817.1A1.994,1.994,0,0,1,52.4-.29a2.153,2.153,0,0,1-1.336.4,2.135,2.135,0,0,1-1.624-.631,2.464,2.464,0,0,1-.6-1.769,2.579,2.579,0,0,1,.606-1.828,2.053,2.053,0,0,1,1.573-.65,2,2,0,0,1,1.529.637,2.532,2.532,0,0,1,.593,1.793q0,.07,0,.211h-3.48A1.793,1.793,0,0,0,50.1-.954a1.3,1.3,0,0,0,.976.409,1.21,1.21,0,0,0,.743-.229A1.517,1.517,0,0,0,52.3-1.5Zm-2.6-1.279h2.606a1.581,1.581,0,0,0-.3-.883,1.212,1.212,0,0,0-.98-.457,1.257,1.257,0,0,0-.916.365A1.444,1.444,0,0,0,49.707-2.782Z" transform="translate(1352.888 1952.356)" fill="#20143b"/>
      <path id="Trazado_122" data-name="Trazado 122" d="M2.32-.708l.114.7a2.934,2.934,0,0,1-.6.07,1.353,1.353,0,0,1-.668-.136A.763.763,0,0,1,.835-.433a2.832,2.832,0,0,1-.1-.934V-4.052H.158v-.615h.58V-5.823L1.525-6.3v1.63h.8v.615h-.8v2.729a1.379,1.379,0,0,0,.042.435A.329.329,0,0,0,1.7-.734a.526.526,0,0,0,.27.057A2.573,2.573,0,0,0,2.32-.708Zm3.968-.8.817.1A1.994,1.994,0,0,1,6.39-.29a2.153,2.153,0,0,1-1.336.4A2.135,2.135,0,0,1,3.43-.525a2.464,2.464,0,0,1-.6-1.769,2.579,2.579,0,0,1,.606-1.828,2.053,2.053,0,0,1,1.573-.65,2,2,0,0,1,1.529.637,2.532,2.532,0,0,1,.593,1.793q0,.07,0,.211H3.647A1.793,1.793,0,0,0,4.083-.954a1.3,1.3,0,0,0,.976.409A1.21,1.21,0,0,0,5.8-.773,1.517,1.517,0,0,0,6.289-1.5Zm-2.6-1.279H6.3A1.581,1.581,0,0,0,6-3.665a1.212,1.212,0,0,0-.98-.457,1.257,1.257,0,0,0-.916.365A1.444,1.444,0,0,0,3.691-2.782ZM8.09,0V-4.667H8.8v.708a1.931,1.931,0,0,1,.5-.655.878.878,0,0,1,.508-.158,1.543,1.543,0,0,1,.813.255l-.272.734a1.132,1.132,0,0,0-.58-.171.753.753,0,0,0-.466.156.845.845,0,0,0-.294.433,3.081,3.081,0,0,0-.132.923V0Zm6.051-1.709.778.1a2.017,2.017,0,0,1-.653,1.259,1.9,1.9,0,0,1-1.29.455,2,2,0,0,1-1.54-.626,2.541,2.541,0,0,1-.582-1.8,3.249,3.249,0,0,1,.25-1.323,1.746,1.746,0,0,1,.762-.85,2.262,2.262,0,0,1,1.114-.283,1.937,1.937,0,0,1,1.244.385,1.763,1.763,0,0,1,.62,1.092l-.769.119a1.277,1.277,0,0,0-.389-.708,1.006,1.006,0,0,0-.675-.237,1.228,1.228,0,0,0-.971.428,2.034,2.034,0,0,0-.374,1.356,2.1,2.1,0,0,0,.36,1.367,1.173,1.173,0,0,0,.94.426,1.108,1.108,0,0,0,.778-.286A1.418,1.418,0,0,0,14.142-1.709Zm4.649.207.817.1A1.994,1.994,0,0,1,18.892-.29a2.153,2.153,0,0,1-1.336.4,2.135,2.135,0,0,1-1.624-.631,2.464,2.464,0,0,1-.6-1.769,2.579,2.579,0,0,1,.606-1.828,2.053,2.053,0,0,1,1.573-.65,2,2,0,0,1,1.529.637,2.532,2.532,0,0,1,.593,1.793q0,.07,0,.211H16.15a1.793,1.793,0,0,0,.435,1.178,1.3,1.3,0,0,0,.976.409A1.21,1.21,0,0,0,18.3-.773,1.517,1.517,0,0,0,18.791-1.5Zm-2.6-1.279H18.8a1.581,1.581,0,0,0-.3-.883,1.212,1.212,0,0,0-.98-.457,1.257,1.257,0,0,0-.916.365A1.444,1.444,0,0,0,16.194-2.782ZM20.593,0V-4.667H21.3v.708a1.931,1.931,0,0,1,.5-.655.878.878,0,0,1,.508-.158,1.543,1.543,0,0,1,.813.255l-.272.734a1.132,1.132,0,0,0-.58-.171.753.753,0,0,0-.466.156.845.845,0,0,0-.294.433,3.081,3.081,0,0,0-.132.923V0ZM26.1,0V-4.667h.712V-4A1.678,1.678,0,0,1,28.3-4.772a1.949,1.949,0,0,1,.776.152,1.22,1.22,0,0,1,.53.4,1.527,1.527,0,0,1,.246.584,4.529,4.529,0,0,1,.044.769V0H29.1V-2.839a2.131,2.131,0,0,0-.092-.723.76.76,0,0,0-.327-.382,1.041,1.041,0,0,0-.552-.143,1.282,1.282,0,0,0-.872.321,1.583,1.583,0,0,0-.367,1.217V0Zm5.01-5.533v-.91H31.9v.91Zm0,5.533V-4.667H31.9V0ZM34.4,0,32.625-4.667h.835l1,2.795q.163.453.3.94.105-.369.294-.888l1.037-2.848h.813L35.139,0Zm6.4-1.5.817.1A1.994,1.994,0,0,1,40.9-.29a2.153,2.153,0,0,1-1.336.4A2.135,2.135,0,0,1,37.94-.525a2.464,2.464,0,0,1-.6-1.769,2.579,2.579,0,0,1,.606-1.828,2.053,2.053,0,0,1,1.573-.65,2,2,0,0,1,1.529.637,2.532,2.532,0,0,1,.593,1.793q0,.07,0,.211h-3.48a1.793,1.793,0,0,0,.435,1.178,1.3,1.3,0,0,0,.976.409,1.21,1.21,0,0,0,.743-.229A1.517,1.517,0,0,0,40.8-1.5ZM38.2-2.782h2.606a1.581,1.581,0,0,0-.3-.883,1.212,1.212,0,0,0-.98-.457,1.257,1.257,0,0,0-.916.365A1.444,1.444,0,0,0,38.2-2.782ZM42.592,0V-6.442h.791V0Z" transform="translate(1357.385 1962.576)" fill="#20143b"/>
      <path id="Trazado_123" data-name="Trazado 123" d="M2.1,1.894A7.908,7.908,0,0,1,1-.04,6.008,6.008,0,0,1,.545-2.333a5.972,5.972,0,0,1,.338-2A8.423,8.423,0,0,1,2.1-6.552h.567q-.532.914-.7,1.305a7.131,7.131,0,0,0-.422,1.266,7.351,7.351,0,0,0-.189,1.652A7.93,7.93,0,0,0,2.672,1.894ZM6.649,0V-.686A1.708,1.708,0,0,1,5.168.105,1.887,1.887,0,0,1,4.4-.053a1.27,1.27,0,0,1-.532-.4,1.49,1.49,0,0,1-.244-.587,4.017,4.017,0,0,1-.048-.738V-4.667h.791v2.588a4.613,4.613,0,0,0,.048.835.825.825,0,0,0,.316.49.98.98,0,0,0,.6.178,1.3,1.3,0,0,0,.668-.182,1.014,1.014,0,0,0,.442-.5,2.492,2.492,0,0,0,.13-.912v-2.5h.791V0ZM8.6,0V-4.667h.712V-4a1.678,1.678,0,0,1,1.485-.769,1.949,1.949,0,0,1,.776.152,1.22,1.22,0,0,1,.53.4,1.527,1.527,0,0,1,.246.584,4.529,4.529,0,0,1,.044.769V0H11.6V-2.839a2.131,2.131,0,0,0-.092-.723.76.76,0,0,0-.327-.382,1.041,1.041,0,0,0-.552-.143,1.282,1.282,0,0,0-.872.321,1.583,1.583,0,0,0-.367,1.217V0ZM19.129,0V-.589a1.452,1.452,0,0,1-1.305.694A1.83,1.83,0,0,1,16.8-.2a2.023,2.023,0,0,1-.725-.859,2.969,2.969,0,0,1-.257-1.268A3.318,3.318,0,0,1,16.049-3.6a1.837,1.837,0,0,1,.7-.872,1.868,1.868,0,0,1,1.042-.3,1.556,1.556,0,0,1,.751.178,1.571,1.571,0,0,1,.536.464V-6.442h.787V0Zm-2.5-2.329a2.027,2.027,0,0,0,.378,1.34,1.14,1.14,0,0,0,.892.444,1.119,1.119,0,0,0,.881-.424,1.955,1.955,0,0,0,.363-1.294,2.195,2.195,0,0,0-.369-1.406,1.135,1.135,0,0,0-.91-.448,1.1,1.1,0,0,0-.881.431A2.126,2.126,0,0,0,16.629-2.329ZM21.384,0V-4.667h.791V0Zm-.04-5.247.584-1.23h1.037L22-5.247ZM23.462.387,24.231.5a.733.733,0,0,0,.268.519,1.317,1.317,0,0,0,.8.22,1.412,1.412,0,0,0,.848-.22,1.081,1.081,0,0,0,.4-.615,5.052,5.052,0,0,0,.057-1.015A1.627,1.627,0,0,1,25.321,0a1.761,1.761,0,0,1-1.49-.694A2.674,2.674,0,0,1,23.3-2.36a3.1,3.1,0,0,1,.242-1.233,1.934,1.934,0,0,1,.7-.872,1.893,1.893,0,0,1,1.079-.308,1.673,1.673,0,0,1,1.362.668v-.562h.729V-.633A3.826,3.826,0,0,1,27.2.912a1.623,1.623,0,0,1-.7.719,2.437,2.437,0,0,1-1.184.264,2.233,2.233,0,0,1-1.349-.376A1.271,1.271,0,0,1,23.462.387Zm.655-2.8a2.025,2.025,0,0,0,.365,1.34,1.158,1.158,0,0,0,.914.422,1.169,1.169,0,0,0,.914-.42,1.959,1.959,0,0,0,.369-1.316,1.914,1.914,0,0,0-.38-1.292,1.175,1.175,0,0,0-.916-.435,1.142,1.142,0,0,0-.9.428A1.9,1.9,0,0,0,24.117-2.417Zm4.5-3.116v-.91h.791v.91Zm0,5.533V-4.667h.791V0Zm3.722-.708.114.7a2.934,2.934,0,0,1-.6.07,1.353,1.353,0,0,1-.668-.136.763.763,0,0,1-.334-.358,2.832,2.832,0,0,1-.1-.934V-4.052h-.58v-.615h.58V-5.823l.787-.475v1.63h.8v.615h-.8v2.729a1.379,1.379,0,0,0,.042.435.329.329,0,0,0,.136.154.526.526,0,0,0,.27.057A2.573,2.573,0,0,0,32.339-.708Zm.479-1.626a2.406,2.406,0,0,1,.721-1.92,2.172,2.172,0,0,1,1.468-.519,2.094,2.094,0,0,1,1.573.631A2.4,2.4,0,0,1,37.191-2.4a3.087,3.087,0,0,1-.27,1.417,1.913,1.913,0,0,1-.787.8,2.29,2.29,0,0,1-1.127.286,2.1,2.1,0,0,1-1.584-.628A2.51,2.51,0,0,1,32.818-2.333Zm.813,0a1.988,1.988,0,0,0,.391,1.343,1.254,1.254,0,0,0,.984.446,1.246,1.246,0,0,0,.98-.448,2.035,2.035,0,0,0,.391-1.367,1.928,1.928,0,0,0-.393-1.312,1.251,1.251,0,0,0-.978-.446,1.256,1.256,0,0,0-.984.444A1.979,1.979,0,0,0,33.631-2.333Z" transform="translate(1359.037 1972.796)" fill="#20143b"/>
      <path id="Trazado_124" data-name="Trazado 124" d="M1.112,1.894H.545A7.93,7.93,0,0,0,1.859-2.329,7.217,7.217,0,0,0,1.67-3.968a6.889,6.889,0,0,0-.417-1.266A14.847,14.847,0,0,0,.545-6.552h.567A8.423,8.423,0,0,1,2.333-4.337a5.972,5.972,0,0,1,.338,2A5.983,5.983,0,0,1,2.217-.04,8.047,8.047,0,0,1,1.112,1.894Z" transform="translate(1394.516 1972.796)" fill="#20143b"/>
    </g>
  </g>
</svg>
