<svg xmlns="http://www.w3.org/2000/svg" width="332.221" height="123.672" viewBox="0 0 332.221 123.672">
  <g id="Grupo_23" data-name="Grupo 23" transform="translate(-1260 -2400.672)">
    <path id="Trazado_172" data-name="Trazado 172" d="M0,0,1.1.276a3.67,3.67,0,0,1-1.24,2.05,3.425,3.425,0,0,1-2.189.706,3.945,3.945,0,0,1-2.178-.543A3.391,3.391,0,0,1-5.788.917a5.586,5.586,0,0,1-.438-2.211,4.841,4.841,0,0,1,.494-2.248A3.386,3.386,0,0,1-4.325-5a4.124,4.124,0,0,1,2.009-.5,3.406,3.406,0,0,1,2.09.631A3.267,3.267,0,0,1,.955-3.094l-1.079.253A2.551,2.551,0,0,0-.96-4.152a2.236,2.236,0,0,0-1.379-.411,2.682,2.682,0,0,0-1.6.456,2.4,2.4,0,0,0-.9,1.224A4.883,4.883,0,0,0-5.1-1.3,5,5,0,0,0-4.788.537,2.286,2.286,0,0,0-3.831,1.71,2.7,2.7,0,0,0-2.424,2.1,2.368,2.368,0,0,0-.864,1.57,2.71,2.71,0,0,0,0,0" transform="translate(1327.29 2412.893)" fill="#20143b"/>
    <path id="Trazado_173" data-name="Trazado 173" d="M0,0A3.07,3.07,0,0,1,.927-2.458a2.8,2.8,0,0,1,1.887-.664,2.7,2.7,0,0,1,2.022.807A3.062,3.062,0,0,1,5.622-.084,3.935,3.935,0,0,1,5.274,1.73,2.447,2.447,0,0,1,4.263,2.757a2.962,2.962,0,0,1-1.449.365,2.7,2.7,0,0,1-2.037-.8A3.2,3.2,0,0,1,0,0M1.045,0a2.54,2.54,0,0,0,.5,1.719,1.617,1.617,0,0,0,1.266.571,1.6,1.6,0,0,0,1.26-.574,2.6,2.6,0,0,0,.5-1.75,2.461,2.461,0,0,0-.506-1.679,1.61,1.61,0,0,0-1.257-.571,1.617,1.617,0,0,0-1.266.568A2.528,2.528,0,0,0,1.045,0" transform="translate(1329.228 2412.797)" fill="#20143b"/>
    <path id="Trazado_174" data-name="Trazado 174" d="M0,0V-5.975H.91v.839a2.142,2.142,0,0,1,.751-.707A2.122,2.122,0,0,1,2.729-6.11a1.975,1.975,0,0,1,1.093.276,1.477,1.477,0,0,1,.6.771A2.156,2.156,0,0,1,6.277-6.11a1.832,1.832,0,0,1,1.373.492A2.1,2.1,0,0,1,8.13-4.1V0H7.119V-3.764a2.762,2.762,0,0,0-.1-.875.846.846,0,0,0-.359-.43,1.119,1.119,0,0,0-.61-.163A1.425,1.425,0,0,0,5-4.813a1.844,1.844,0,0,0-.418,1.342V0H3.565V-3.882a1.709,1.709,0,0,0-.248-1.013A.944.944,0,0,0,2.5-5.232a1.484,1.484,0,0,0-.794.225,1.274,1.274,0,0,0-.528.658A3.7,3.7,0,0,0,1.017-3.1V0Z" transform="translate(1336.042 2415.785)" fill="#20143b"/>
    <path id="Trazado_175" data-name="Trazado 175" d="M0,0V-8.264H.927v.776a2.276,2.276,0,0,1,.74-.684,2.05,2.05,0,0,1,1-.227,2.383,2.383,0,0,1,1.356.393A2.422,2.422,0,0,1,4.91-6.895a4.041,4.041,0,0,1,.3,1.573,3.983,3.983,0,0,1-.33,1.651,2.482,2.482,0,0,1-.961,1.125,2.469,2.469,0,0,1-1.324.391,1.913,1.913,0,0,1-.913-.214,2.064,2.064,0,0,1-.664-.54V0ZM.921-5.243a2.586,2.586,0,0,0,.469,1.7,1.44,1.44,0,0,0,1.136.552,1.474,1.474,0,0,0,1.161-.571,2.7,2.7,0,0,0,.483-1.77A2.635,2.635,0,0,0,3.7-7.038a1.42,1.42,0,0,0-1.127-.568A1.464,1.464,0,0,0,1.421-7a2.7,2.7,0,0,0-.5,1.758" transform="translate(1345.681 2418.074)" fill="#20143b"/>
    <path id="Trazado_176" data-name="Trazado 176" d="M0,0A3.07,3.07,0,0,1,.927-2.458a2.8,2.8,0,0,1,1.887-.664,2.7,2.7,0,0,1,2.022.807A3.062,3.062,0,0,1,5.622-.084,3.935,3.935,0,0,1,5.274,1.73,2.447,2.447,0,0,1,4.263,2.757a2.964,2.964,0,0,1-1.449.365,2.7,2.7,0,0,1-2.037-.8A3.2,3.2,0,0,1,0,0M1.045,0a2.54,2.54,0,0,0,.5,1.719,1.617,1.617,0,0,0,1.266.571,1.605,1.605,0,0,0,1.26-.574,2.6,2.6,0,0,0,.5-1.75,2.461,2.461,0,0,0-.505-1.679,1.61,1.61,0,0,0-1.257-.571,1.617,1.617,0,0,0-1.266.568A2.528,2.528,0,0,0,1.045,0" transform="translate(1351.738 2412.797)" fill="#20143b"/>
    <path id="Trazado_177" data-name="Trazado 177" d="M0,0V-5.975H.915v.85a2.159,2.159,0,0,1,1.91-.985,2.518,2.518,0,0,1,1,.194,1.57,1.57,0,0,1,.681.51,1.931,1.931,0,0,1,.316.748,5.711,5.711,0,0,1,.057.984V0H3.859V-3.634A2.722,2.722,0,0,0,3.74-4.56a.973.973,0,0,0-.421-.489,1.339,1.339,0,0,0-.709-.183,1.649,1.649,0,0,0-1.121.411,2.017,2.017,0,0,0-.472,1.558V0Z" transform="translate(1358.552 2415.785)" fill="#20143b"/>
    <path id="Trazado_178" data-name="Trazado 178" d="M0,0,1.051.129A2.556,2.556,0,0,1,.13,1.553a2.781,2.781,0,0,1-1.718.506,2.751,2.751,0,0,1-2.087-.807,3.147,3.147,0,0,1-.772-2.265,3.291,3.291,0,0,1,.78-2.34,2.646,2.646,0,0,1,2.023-.833A2.571,2.571,0,0,1,.322-3.37a3.23,3.23,0,0,1,.763,2.295q0,.09-.006.27H-3.4A2.288,2.288,0,0,0-2.836.7a1.666,1.666,0,0,0,1.254.523A1.562,1.562,0,0,0-.627.934,1.953,1.953,0,0,0,0,0M-3.339-1.637H.011A2.015,2.015,0,0,0-.373-2.768a1.562,1.562,0,0,0-1.26-.585,1.62,1.62,0,0,0-1.178.467,1.844,1.844,0,0,0-.528,1.249" transform="translate(1369.094 2413.861)" fill="#20143b"/>
    <path id="Trazado_179" data-name="Trazado 179" d="M0,0V-5.975H.916v.85A2.157,2.157,0,0,1,2.825-6.11a2.518,2.518,0,0,1,1,.194,1.564,1.564,0,0,1,.681.51,1.947,1.947,0,0,1,.317.748,5.848,5.848,0,0,1,.056.984V0H3.859V-3.634A2.7,2.7,0,0,0,3.74-4.56a.976.976,0,0,0-.42-.489,1.345,1.345,0,0,0-.71-.183,1.649,1.649,0,0,0-1.121.411,2.017,2.017,0,0,0-.472,1.558V0Z" transform="translate(1371.422 2415.785)" fill="#20143b"/>
    <path id="Trazado_180" data-name="Trazado 180" d="M0,0,.147.894a3.792,3.792,0,0,1-.769.09A1.745,1.745,0,0,1-1.48.81.977.977,0,0,1-1.91.352a3.614,3.614,0,0,1-.124-1.2V-4.281H-2.78v-.788h.746v-1.48l1.011-.607v2.087H0v.788H-1.023V-.788a1.745,1.745,0,0,0,.054.557.422.422,0,0,0,.175.2A.678.678,0,0,0-.446.039,3.355,3.355,0,0,0,0,0" transform="translate(1380.078 2414.879)" fill="#20143b"/>
    <path id="Trazado_181" data-name="Trazado 181" d="M0,0,1.051.129A2.556,2.556,0,0,1,.13,1.553a2.781,2.781,0,0,1-1.718.506,2.751,2.751,0,0,1-2.087-.807,3.147,3.147,0,0,1-.772-2.265,3.291,3.291,0,0,1,.78-2.34,2.646,2.646,0,0,1,2.023-.833A2.569,2.569,0,0,1,.322-3.37a3.23,3.23,0,0,1,.763,2.295q0,.09-.006.27H-3.4A2.293,2.293,0,0,0-2.836.7a1.666,1.666,0,0,0,1.254.523A1.562,1.562,0,0,0-.627.934,1.939,1.939,0,0,0,0,0M-3.339-1.637H.011A2.015,2.015,0,0,0-.373-2.768a1.562,1.562,0,0,0-1.26-.585,1.622,1.622,0,0,0-1.178.467,1.844,1.844,0,0,0-.528,1.249" transform="translate(1385.18 2413.861)" fill="#20143b"/>
    <path id="Trazado_182" data-name="Trazado 182" d="M0,0V-.754A1.867,1.867,0,0,1-1.678.135,2.356,2.356,0,0,1-3-.259a2.586,2.586,0,0,1-.932-1.1A3.773,3.773,0,0,1-4.26-2.982a4.227,4.227,0,0,1,.3-1.623,2.351,2.351,0,0,1,.9-1.117A2.413,2.413,0,0,1-1.723-6.11a2.009,2.009,0,0,1,.966.228,2.021,2.021,0,0,1,.689.594v-2.96H.944V0ZM-3.215-2.982a2.587,2.587,0,0,0,.486,1.716A1.466,1.466,0,0,0-1.582-.7,1.44,1.44,0,0,0-.449-1.241,2.493,2.493,0,0,0,.017-2.9,2.8,2.8,0,0,0-.458-4.7a1.462,1.462,0,0,0-1.169-.573A1.41,1.41,0,0,0-2.76-4.72a2.712,2.712,0,0,0-.455,1.738" transform="translate(1394.615 2415.785)" fill="#20143b"/>
    <path id="Trazado_183" data-name="Trazado 183" d="M0,0,1.051.129A2.556,2.556,0,0,1,.13,1.553a2.781,2.781,0,0,1-1.718.506,2.751,2.751,0,0,1-2.087-.807,3.147,3.147,0,0,1-.772-2.265,3.291,3.291,0,0,1,.78-2.34,2.646,2.646,0,0,1,2.023-.833A2.571,2.571,0,0,1,.322-3.37a3.23,3.23,0,0,1,.763,2.295q0,.09-.006.27H-3.4A2.293,2.293,0,0,0-2.836.7a1.666,1.666,0,0,0,1.254.523A1.562,1.562,0,0,0-.627.934,1.946,1.946,0,0,0,0,0M-3.339-1.637H.011A2.015,2.015,0,0,0-.373-2.768a1.562,1.562,0,0,0-1.26-.585,1.62,1.62,0,0,0-1.178.467,1.844,1.844,0,0,0-.528,1.249" transform="translate(1401.266 2413.861)" fill="#20143b"/>
    <path id="Trazado_184" data-name="Trazado 184" d="M0,0,1.051.129A2.556,2.556,0,0,1,.13,1.553a2.781,2.781,0,0,1-1.718.506,2.755,2.755,0,0,1-2.088-.807,3.147,3.147,0,0,1-.771-2.265,3.291,3.291,0,0,1,.78-2.34,2.646,2.646,0,0,1,2.023-.833A2.571,2.571,0,0,1,.322-3.37a3.23,3.23,0,0,1,.763,2.295q0,.09-.006.27H-3.4A2.288,2.288,0,0,0-2.836.7a1.666,1.666,0,0,0,1.254.523A1.562,1.562,0,0,0-.627.934,1.953,1.953,0,0,0,0,0M-3.339-1.637H.011A2.015,2.015,0,0,0-.373-2.768a1.562,1.562,0,0,0-1.26-.585,1.62,1.62,0,0,0-1.178.467,1.844,1.844,0,0,0-.528,1.249" transform="translate(1410.916 2413.861)" fill="#20143b"/>
    <path id="Trazado_185" data-name="Trazado 185" d="M0,0,1.006-.158a1.391,1.391,0,0,0,.472.923,1.647,1.647,0,0,0,1.082.321A1.6,1.6,0,0,0,3.6.8.85.85,0,0,0,3.938.135a.615.615,0,0,0-.3-.54A4.45,4.45,0,0,0,2.6-.748a9.534,9.534,0,0,1-1.551-.487A1.5,1.5,0,0,1,.393-1.8a1.5,1.5,0,0,1-.224-.8,1.54,1.54,0,0,1,.184-.74,1.645,1.645,0,0,1,.5-.565A2.091,2.091,0,0,1,1.5-4.2a3.077,3.077,0,0,1,.879-.121,3.486,3.486,0,0,1,1.24.2,1.681,1.681,0,0,1,.788.549,2.14,2.14,0,0,1,.35.925l-.994.135a1.082,1.082,0,0,0-.393-.72,1.441,1.441,0,0,0-.918-.259,1.667,1.667,0,0,0-1,.231.67.67,0,0,0-.3.54.556.556,0,0,0,.124.354.894.894,0,0,0,.39.27q.153.057.9.259a12.662,12.662,0,0,1,1.506.47,1.526,1.526,0,0,1,.669.532,1.477,1.477,0,0,1,.243.866,1.692,1.692,0,0,1-.3.954,1.923,1.923,0,0,1-.856.692,3.132,3.132,0,0,1-1.266.244A2.833,2.833,0,0,1,.782,1.435,2.252,2.252,0,0,1,0,0" transform="translate(1412.837 2414.001)" fill="#20143b"/>
    <path id="Trazado_186" data-name="Trazado 186" d="M0,0,.147.894a3.791,3.791,0,0,1-.768.09A1.749,1.749,0,0,1-1.48.81.977.977,0,0,1-1.91.352a3.643,3.643,0,0,1-.124-1.2V-4.281H-2.78v-.788h.746v-1.48l1.011-.607v2.087H0v.788H-1.023V-.788a1.745,1.745,0,0,0,.054.557.422.422,0,0,0,.175.2A.678.678,0,0,0-.446.039,3.355,3.355,0,0,0,0,0" transform="translate(1421.25 2414.879)" fill="#20143b"/>
    <path id="Trazado_187" data-name="Trazado 187" d="M0,0V-5.975H.915v.906a2.485,2.485,0,0,1,.647-.838,1.136,1.136,0,0,1,.653-.2,1.985,1.985,0,0,1,1.045.327l-.35.939a1.462,1.462,0,0,0-.746-.219.972.972,0,0,0-.6.2,1.082,1.082,0,0,0-.378.555,3.892,3.892,0,0,0-.17,1.181V0Z" transform="translate(1422.233 2415.785)" fill="#20143b"/>
    <path id="Trazado_188" data-name="Trazado 188" d="M0,0V-.878A2.2,2.2,0,0,1-1.9.135a2.422,2.422,0,0,1-.992-.2,1.62,1.62,0,0,1-.683-.509,1.89,1.89,0,0,1-.314-.751,5.158,5.158,0,0,1-.062-.945v-3.7h1.017v3.314a5.928,5.928,0,0,0,.062,1.069,1.057,1.057,0,0,0,.407.627A1.262,1.262,0,0,0-1.7-.737,1.685,1.685,0,0,0-.842-.97a1.3,1.3,0,0,0,.568-.636A3.182,3.182,0,0,0-.107-2.774v-3.2H.91V0Z" transform="translate(1430.03 2415.785)" fill="#20143b"/>
    <path id="Trazado_189" data-name="Trazado 189" d="M0,0,1,.129A2.577,2.577,0,0,1,.161,1.741,2.451,2.451,0,0,1-1.5,2.323a2.583,2.583,0,0,1-1.981-.8,3.246,3.246,0,0,1-.748-2.3A4.139,4.139,0,0,1-3.9-2.47a2.228,2.228,0,0,1,.98-1.088,2.917,2.917,0,0,1,1.432-.363,2.5,2.5,0,0,1,1.6.492,2.257,2.257,0,0,1,.8,1.4l-.989.152a1.637,1.637,0,0,0-.5-.906,1.3,1.3,0,0,0-.867-.3A1.582,1.582,0,0,0-2.7-2.54a2.6,2.6,0,0,0-.48,1.735A2.683,2.683,0,0,0-2.718.945a1.51,1.51,0,0,0,1.209.546,1.426,1.426,0,0,0,1-.366A1.812,1.812,0,0,0,0,0" transform="translate(1436.448 2413.596)" fill="#20143b"/>
    <path id="Trazado_190" data-name="Trazado 190" d="M0,0,.147.894a3.792,3.792,0,0,1-.769.09A1.745,1.745,0,0,1-1.48.81.977.977,0,0,1-1.91.352a3.614,3.614,0,0,1-.124-1.2V-4.281H-2.78v-.788h.746v-1.48l1.011-.607v2.087H0v.788H-1.023V-.788a1.745,1.745,0,0,0,.054.557.422.422,0,0,0,.175.2A.676.676,0,0,0-.447.039,3.355,3.355,0,0,0,0,0" transform="translate(1440.539 2414.879)" fill="#20143b"/>
    <path id="Trazado_191" data-name="Trazado 191" d="M0,0V-.878A2.2,2.2,0,0,1-1.9.135a2.422,2.422,0,0,1-.992-.2,1.626,1.626,0,0,1-.683-.509,1.89,1.89,0,0,1-.314-.751,5.158,5.158,0,0,1-.062-.945v-3.7h1.017v3.314a5.928,5.928,0,0,0,.062,1.069,1.057,1.057,0,0,0,.407.627A1.262,1.262,0,0,0-1.7-.737,1.685,1.685,0,0,0-.842-.97a1.3,1.3,0,0,0,.568-.636A3.182,3.182,0,0,0-.107-2.774v-3.2H.91V0Z" transform="translate(1445.466 2415.785)" fill="#20143b"/>
    <path id="Trazado_192" data-name="Trazado 192" d="M0,0V-5.975H.915v.906a2.485,2.485,0,0,1,.647-.838,1.136,1.136,0,0,1,.653-.2,1.985,1.985,0,0,1,1.045.327l-.35.939a1.462,1.462,0,0,0-.746-.219.972.972,0,0,0-.6.2,1.082,1.082,0,0,0-.378.555,3.892,3.892,0,0,0-.17,1.181V0Z" transform="translate(1447.958 2415.785)" fill="#20143b"/>
    <path id="Trazado_193" data-name="Trazado 193" d="M0,0A3.777,3.777,0,0,1-1.088.675a3.157,3.157,0,0,1-1.121.2A2.187,2.187,0,0,1-3.729.391,1.584,1.584,0,0,1-4.26-.838a1.637,1.637,0,0,1,.2-.8,1.652,1.652,0,0,1,.526-.582A2.455,2.455,0,0,1-2.8-2.554a7.19,7.19,0,0,1,.9-.152A9.36,9.36,0,0,0-.085-3.055q.006-.208.006-.264a1.115,1.115,0,0,0-.288-.872,1.706,1.706,0,0,0-1.158-.343,1.8,1.8,0,0,0-1.06.25,1.532,1.532,0,0,0-.506.886l-.994-.135A2.447,2.447,0,0,1-3.639-4.56a1.97,1.97,0,0,1,.9-.6,4.032,4.032,0,0,1,1.361-.211,3.617,3.617,0,0,1,1.249.18,1.641,1.641,0,0,1,.706.453,1.586,1.586,0,0,1,.317.689,5.667,5.667,0,0,1,.051.934v1.351A14.135,14.135,0,0,0,1.009.02a2.221,2.221,0,0,0,.257.717H.2A2.149,2.149,0,0,1,0,0M-.085-2.262a7.485,7.485,0,0,1-1.661.383,3.914,3.914,0,0,0-.887.2.888.888,0,0,0-.4.33.86.86,0,0,0-.141.481.858.858,0,0,0,.308.675,1.327,1.327,0,0,0,.9.27A2.109,2.109,0,0,0-.921-.177a1.578,1.578,0,0,0,.672-.7A2.419,2.419,0,0,0-.085-1.89Z" transform="translate(1455.738 2415.048)" fill="#20143b"/>
    <path id="Trazado_194" data-name="Trazado 194" d="M0,0,1.006-.158a1.391,1.391,0,0,0,.472.923,1.647,1.647,0,0,0,1.082.321A1.6,1.6,0,0,0,3.6.8.85.85,0,0,0,3.938.135a.615.615,0,0,0-.3-.54A4.45,4.45,0,0,0,2.6-.748a9.534,9.534,0,0,1-1.551-.487A1.5,1.5,0,0,1,.393-1.8a1.5,1.5,0,0,1-.223-.8,1.54,1.54,0,0,1,.183-.74,1.645,1.645,0,0,1,.5-.565A2.091,2.091,0,0,1,1.5-4.2a3.077,3.077,0,0,1,.879-.121,3.486,3.486,0,0,1,1.24.2,1.681,1.681,0,0,1,.788.549,2.127,2.127,0,0,1,.35.925l-.994.135a1.082,1.082,0,0,0-.393-.72,1.441,1.441,0,0,0-.918-.259,1.667,1.667,0,0,0-1,.231.67.67,0,0,0-.3.54.556.556,0,0,0,.124.354.894.894,0,0,0,.39.27q.153.057.9.259a12.6,12.6,0,0,1,1.506.47,1.526,1.526,0,0,1,.669.532,1.477,1.477,0,0,1,.243.866,1.692,1.692,0,0,1-.3.954,1.923,1.923,0,0,1-.856.692,3.132,3.132,0,0,1-1.266.244A2.828,2.828,0,0,1,.783,1.435,2.248,2.248,0,0,1,0,0" transform="translate(1457.851 2414.001)" fill="#20143b"/>
    <path id="Trazado_195" data-name="Trazado 195" d="M0,0,1,.129A2.577,2.577,0,0,1,.161,1.741,2.451,2.451,0,0,1-1.5,2.323a2.584,2.584,0,0,1-1.981-.8,3.246,3.246,0,0,1-.748-2.3A4.139,4.139,0,0,1-3.9-2.47a2.233,2.233,0,0,1,.98-1.088,2.918,2.918,0,0,1,1.433-.363,2.5,2.5,0,0,1,1.6.492,2.253,2.253,0,0,1,.8,1.4l-.989.152a1.631,1.631,0,0,0-.5-.906,1.3,1.3,0,0,0-.867-.3A1.583,1.583,0,0,0-2.7-2.54a2.6,2.6,0,0,0-.48,1.735A2.689,2.689,0,0,0-2.718.945a1.51,1.51,0,0,0,1.209.546,1.426,1.426,0,0,0,1-.366A1.812,1.812,0,0,0,0,0" transform="translate(1471.173 2413.596)" fill="#20143b"/>
    <path id="Trazado_196" data-name="Trazado 196" d="M0,0A3.07,3.07,0,0,1,.927-2.458a2.8,2.8,0,0,1,1.887-.664,2.7,2.7,0,0,1,2.022.807A3.062,3.062,0,0,1,5.622-.084,3.935,3.935,0,0,1,5.274,1.73,2.447,2.447,0,0,1,4.263,2.757a2.964,2.964,0,0,1-1.449.365,2.7,2.7,0,0,1-2.037-.8A3.2,3.2,0,0,1,0,0M1.045,0a2.54,2.54,0,0,0,.5,1.719,1.617,1.617,0,0,0,1.266.571,1.605,1.605,0,0,0,1.26-.574,2.6,2.6,0,0,0,.5-1.75,2.461,2.461,0,0,0-.505-1.679,1.61,1.61,0,0,0-1.257-.571,1.617,1.617,0,0,0-1.266.568A2.528,2.528,0,0,0,1.045,0" transform="translate(1472.665 2412.797)" fill="#20143b"/>
    <path id="Trazado_197" data-name="Trazado 197" d="M0,0V-5.975H.916v.906a2.472,2.472,0,0,1,.646-.838,1.136,1.136,0,0,1,.653-.2,1.985,1.985,0,0,1,1.045.327l-.35.939a1.462,1.462,0,0,0-.746-.219.972.972,0,0,0-.6.2,1.082,1.082,0,0,0-.378.555,3.923,3.923,0,0,0-.17,1.181V0Z" transform="translate(1479.468 2415.785)" fill="#20143b"/>
    <path id="Trazado_198" data-name="Trazado 198" d="M0,0V-8.264H.927v.776a2.276,2.276,0,0,1,.74-.684,2.05,2.05,0,0,1,1-.227,2.383,2.383,0,0,1,1.356.393A2.422,2.422,0,0,1,4.91-6.895a4.059,4.059,0,0,1,.3,1.573,3.983,3.983,0,0,1-.33,1.651,2.482,2.482,0,0,1-.961,1.125,2.469,2.469,0,0,1-1.325.391,1.912,1.912,0,0,1-.912-.214,2.064,2.064,0,0,1-.664-.54V0ZM.921-5.243a2.586,2.586,0,0,0,.469,1.7,1.44,1.44,0,0,0,1.136.552,1.474,1.474,0,0,0,1.161-.571,2.7,2.7,0,0,0,.483-1.77A2.635,2.635,0,0,0,3.7-7.038a1.422,1.422,0,0,0-1.127-.568A1.464,1.464,0,0,0,1.421-7a2.7,2.7,0,0,0-.5,1.758" transform="translate(1483.332 2418.074)" fill="#20143b"/>
    <path id="Trazado_199" data-name="Trazado 199" d="M0,0A3.07,3.07,0,0,1,.927-2.458a2.8,2.8,0,0,1,1.887-.664,2.7,2.7,0,0,1,2.022.807A3.062,3.062,0,0,1,5.622-.084,3.935,3.935,0,0,1,5.274,1.73,2.453,2.453,0,0,1,4.263,2.757a2.964,2.964,0,0,1-1.449.365,2.7,2.7,0,0,1-2.037-.8A3.2,3.2,0,0,1,0,0M1.045,0a2.54,2.54,0,0,0,.5,1.719,1.617,1.617,0,0,0,1.266.571,1.6,1.6,0,0,0,1.259-.574,2.6,2.6,0,0,0,.5-1.75,2.461,2.461,0,0,0-.505-1.679,1.61,1.61,0,0,0-1.257-.571,1.617,1.617,0,0,0-1.266.568A2.528,2.528,0,0,0,1.045,0" transform="translate(1489.389 2412.797)" fill="#20143b"/>
    <path id="Trazado_200" data-name="Trazado 200" d="M0,0V-5.975H.915v.906a2.485,2.485,0,0,1,.647-.838,1.136,1.136,0,0,1,.653-.2,1.985,1.985,0,0,1,1.045.327l-.35.939a1.462,1.462,0,0,0-.746-.219.972.972,0,0,0-.6.2,1.082,1.082,0,0,0-.378.555,3.892,3.892,0,0,0-.17,1.181V0Z" transform="translate(1496.192 2415.785)" fill="#20143b"/>
    <path id="Trazado_201" data-name="Trazado 201" d="M0,0A3.777,3.777,0,0,1-1.088.675a3.157,3.157,0,0,1-1.121.2A2.187,2.187,0,0,1-3.729.391,1.584,1.584,0,0,1-4.26-.838a1.637,1.637,0,0,1,.2-.8,1.652,1.652,0,0,1,.526-.582A2.443,2.443,0,0,1-2.8-2.554a7.19,7.19,0,0,1,.9-.152A9.36,9.36,0,0,0-.085-3.055q.006-.208.006-.264a1.115,1.115,0,0,0-.288-.872,1.707,1.707,0,0,0-1.159-.343,1.8,1.8,0,0,0-1.059.25,1.532,1.532,0,0,0-.506.886l-.994-.135A2.447,2.447,0,0,1-3.639-4.56a1.964,1.964,0,0,1,.9-.6,4.032,4.032,0,0,1,1.361-.211,3.617,3.617,0,0,1,1.249.18,1.641,1.641,0,0,1,.706.453,1.6,1.6,0,0,1,.317.689,5.7,5.7,0,0,1,.05.934v1.351A14.341,14.341,0,0,0,1.008.02a2.269,2.269,0,0,0,.257.717H.2A2.149,2.149,0,0,1,0,0M-.085-2.262a7.485,7.485,0,0,1-1.661.383,3.914,3.914,0,0,0-.887.2.888.888,0,0,0-.4.33.861.861,0,0,0-.142.481.859.859,0,0,0,.309.675,1.327,1.327,0,0,0,.9.27A2.112,2.112,0,0,0-.921-.177a1.578,1.578,0,0,0,.672-.7A2.419,2.419,0,0,0-.085-1.89Z" transform="translate(1503.972 2415.048)" fill="#20143b"/>
    <path id="Trazado_202" data-name="Trazado 202" d="M0,0H332.22V-123.672H0Z" transform="translate(1260 2524.344)" fill="none"/>
    <path id="Trazado_203" data-name="Trazado 203" d="M246.469-116.807h1.017v8.248h-1.017Z" transform="translate(1260 2524.344)" fill="#20143b"/>
    <path id="Trazado_204" data-name="Trazado 204" d="M0,0,1.051.129A2.556,2.556,0,0,1,.13,1.553a2.781,2.781,0,0,1-1.718.506,2.755,2.755,0,0,1-2.088-.807,3.147,3.147,0,0,1-.771-2.265,3.291,3.291,0,0,1,.78-2.34,2.646,2.646,0,0,1,2.023-.833A2.571,2.571,0,0,1,.322-3.37a3.235,3.235,0,0,1,.763,2.295q0,.09-.006.27H-3.4A2.288,2.288,0,0,0-2.836.7a1.666,1.666,0,0,0,1.254.523A1.562,1.562,0,0,0-.627.934,1.953,1.953,0,0,0,0,0M-3.339-1.637H.011A2.015,2.015,0,0,0-.373-2.768a1.562,1.562,0,0,0-1.26-.585,1.62,1.62,0,0,0-1.178.467,1.844,1.844,0,0,0-.528,1.249" transform="translate(1513.17 2413.861)" fill="#20143b"/>
    <path id="Trazado_205" data-name="Trazado 205" d="M0,0,1.006-.158a1.391,1.391,0,0,0,.472.923,1.647,1.647,0,0,0,1.082.321A1.6,1.6,0,0,0,3.6.8.85.85,0,0,0,3.938.135a.615.615,0,0,0-.3-.54A4.45,4.45,0,0,0,2.6-.748a9.534,9.534,0,0,1-1.551-.487A1.5,1.5,0,0,1,.393-1.8a1.5,1.5,0,0,1-.224-.8,1.54,1.54,0,0,1,.184-.74,1.645,1.645,0,0,1,.5-.565A2.091,2.091,0,0,1,1.5-4.2a3.077,3.077,0,0,1,.879-.121,3.49,3.49,0,0,1,1.24.2,1.681,1.681,0,0,1,.788.549,2.14,2.14,0,0,1,.35.925l-.994.135a1.082,1.082,0,0,0-.393-.72,1.441,1.441,0,0,0-.918-.259,1.667,1.667,0,0,0-1,.231.67.67,0,0,0-.3.54.556.556,0,0,0,.124.354.894.894,0,0,0,.39.27q.153.057.9.259a12.724,12.724,0,0,1,1.506.47,1.526,1.526,0,0,1,.669.532,1.477,1.477,0,0,1,.243.866,1.692,1.692,0,0,1-.3.954,1.923,1.923,0,0,1-.856.692,3.132,3.132,0,0,1-1.266.244A2.833,2.833,0,0,1,.782,1.435,2.252,2.252,0,0,1,0,0" transform="translate(1515.091 2414.001)" fill="#20143b"/>
    <path id="Trazado_206" data-name="Trazado 206" d="M0,0V-8.248H2.853a6.921,6.921,0,0,1,1.475.119,2.8,2.8,0,0,1,1.215.59,3.36,3.36,0,0,1,.98,1.409,5.5,5.5,0,0,1,.325,1.961A5.76,5.76,0,0,1,6.628-2.5a4.028,4.028,0,0,1-.566,1.2,2.983,2.983,0,0,1-.754.748,3.058,3.058,0,0,1-.988.414A5.662,5.662,0,0,1,2.989,0ZM1.1-.973H2.865A4.316,4.316,0,0,0,4.15-1.125a1.837,1.837,0,0,0,.743-.428A2.6,2.6,0,0,0,5.5-2.6a5.049,5.049,0,0,0,.218-1.589,3.82,3.82,0,0,0-.427-1.989,2.142,2.142,0,0,0-1.036-.931,4.327,4.327,0,0,0-1.419-.168H1.1Z" transform="translate(1321.38 2443.438)" fill="#20143b"/>
    <path id="Trazado_207" data-name="Trazado 207" d="M0,0A3.07,3.07,0,0,1,.927-2.458a2.8,2.8,0,0,1,1.887-.664,2.7,2.7,0,0,1,2.022.806A3.065,3.065,0,0,1,5.622-.084a3.927,3.927,0,0,1-.348,1.813A2.45,2.45,0,0,1,4.263,2.757a2.962,2.962,0,0,1-1.449.365,2.7,2.7,0,0,1-2.037-.8A3.2,3.2,0,0,1,0,0M1.045,0a2.537,2.537,0,0,0,.5,1.718,1.614,1.614,0,0,0,1.266.572,1.6,1.6,0,0,0,1.26-.574,2.6,2.6,0,0,0,.5-1.75,2.464,2.464,0,0,0-.506-1.68,1.609,1.609,0,0,0-1.257-.57,1.617,1.617,0,0,0-1.266.568A2.528,2.528,0,0,0,1.045,0" transform="translate(1329.228 2440.45)" fill="#20143b"/>
    <path id="Trazado_208" data-name="Trazado 208" d="M0,0V-5.975H.91v.839a2.145,2.145,0,0,1,.751-.708A2.121,2.121,0,0,1,2.729-6.11a1.975,1.975,0,0,1,1.093.276,1.477,1.477,0,0,1,.6.771A2.156,2.156,0,0,1,6.277-6.11a1.828,1.828,0,0,1,1.373.492A2.1,2.1,0,0,1,8.13-4.1V0H7.119V-3.764a2.769,2.769,0,0,0-.1-.876.844.844,0,0,0-.359-.429,1.119,1.119,0,0,0-.61-.163A1.424,1.424,0,0,0,5-4.814a1.847,1.847,0,0,0-.418,1.343V0H3.565V-3.882a1.709,1.709,0,0,0-.248-1.013A.944.944,0,0,0,2.5-5.232a1.484,1.484,0,0,0-.794.225,1.274,1.274,0,0,0-.528.658A3.7,3.7,0,0,0,1.017-3.1V0Z" transform="translate(1336.042 2443.438)" fill="#20143b"/>
    <path id="Trazado_209" data-name="Trazado 209" d="M0,0H332.22V-123.672H0Z" transform="translate(1260 2524.344)" fill="none"/>
    <path id="Trazado_210" data-name="Trazado 210" d="M85.686-89.154H86.7v1.165H85.686Zm0,1.165,0,1.108H86.7v5.975H85.686Z" transform="translate(1260 2524.344)" fill="#20143b"/>
    <path id="Trazado_211" data-name="Trazado 211" d="M0,0V-5.975H.915v.85a2.16,2.16,0,0,1,1.91-.985,2.518,2.518,0,0,1,1,.193,1.566,1.566,0,0,1,.681.511,1.947,1.947,0,0,1,.317.748,5.848,5.848,0,0,1,.056.984V0H3.859V-3.634a2.729,2.729,0,0,0-.119-.927.973.973,0,0,0-.421-.489,1.338,1.338,0,0,0-.709-.182,1.649,1.649,0,0,0-1.121.411,2.017,2.017,0,0,0-.472,1.558V0Z" transform="translate(1348.251 2443.438)" fill="#20143b"/>
    <path id="Trazado_212" data-name="Trazado 212" d="M0,0H332.22V-123.672H0Z" transform="translate(1260 2524.344)" fill="none"/>
    <path id="Trazado_213" data-name="Trazado 213" d="M94.693-89.154H95.71v1.165H94.693Zm0,1.165,0,1.108H95.71v5.975H94.693Z" transform="translate(1260 2524.344)" fill="#20143b"/>
    <path id="Trazado_214" data-name="Trazado 214" d="M0,0A3.07,3.07,0,0,1,.927-2.458a2.8,2.8,0,0,1,1.887-.664,2.7,2.7,0,0,1,2.022.806A3.065,3.065,0,0,1,5.622-.084a3.927,3.927,0,0,1-.348,1.813A2.455,2.455,0,0,1,4.263,2.757a2.964,2.964,0,0,1-1.449.365,2.7,2.7,0,0,1-2.037-.8A3.2,3.2,0,0,1,0,0M1.045,0a2.537,2.537,0,0,0,.5,1.718,1.614,1.614,0,0,0,1.266.572,1.6,1.6,0,0,0,1.259-.574,2.6,2.6,0,0,0,.5-1.75,2.464,2.464,0,0,0-.505-1.68,1.609,1.609,0,0,0-1.257-.57,1.617,1.617,0,0,0-1.266.568A2.528,2.528,0,0,0,1.045,0" transform="translate(1356.879 2440.45)" fill="#20143b"/>
    <path id="Trazado_215" data-name="Trazado 215" d="M0,0V-.754A1.867,1.867,0,0,1-1.678.135,2.356,2.356,0,0,1-3-.259a2.6,2.6,0,0,1-.933-1.1,3.783,3.783,0,0,1-.33-1.622,4.251,4.251,0,0,1,.3-1.624,2.355,2.355,0,0,1,.9-1.116A2.413,2.413,0,0,1-1.723-6.11a2.009,2.009,0,0,1,.966.227,2.024,2.024,0,0,1,.689.595v-2.96H.944V0ZM-3.215-2.982a2.587,2.587,0,0,0,.486,1.716A1.466,1.466,0,0,0-1.582-.7,1.445,1.445,0,0,0-.449-1.241,2.493,2.493,0,0,0,.017-2.9,2.8,2.8,0,0,0-.458-4.7a1.462,1.462,0,0,0-1.169-.573A1.41,1.41,0,0,0-2.76-4.72a2.712,2.712,0,0,0-.455,1.738" transform="translate(1370.801 2443.438)" fill="#20143b"/>
    <path id="Trazado_216" data-name="Trazado 216" d="M0,0,1.051.129A2.556,2.556,0,0,1,.13,1.553a2.781,2.781,0,0,1-1.718.506,2.755,2.755,0,0,1-2.088-.808,3.144,3.144,0,0,1-.771-2.264,3.291,3.291,0,0,1,.78-2.34,2.646,2.646,0,0,1,2.023-.833A2.571,2.571,0,0,1,.322-3.37a3.235,3.235,0,0,1,.763,2.295q0,.09-.006.27H-3.4A2.288,2.288,0,0,0-2.836.7a1.666,1.666,0,0,0,1.254.523A1.562,1.562,0,0,0-.627.934,1.948,1.948,0,0,0,0,0M-3.339-1.637H.011A2.015,2.015,0,0,0-.373-2.768a1.562,1.562,0,0,0-1.26-.585,1.62,1.62,0,0,0-1.178.467,1.846,1.846,0,0,0-.528,1.249" transform="translate(1377.451 2441.514)" fill="#20143b"/>
    <path id="Trazado_217" data-name="Trazado 217" d="M0,0H332.22V-123.672H0Z" transform="translate(1260 2524.344)" fill="none"/>
    <path id="Trazado_218" data-name="Trazado 218" d="M0,0V-8.248H5.989v.974H1.1v2.526H5.678v.967H1.1V-.973H6.181V0Z" transform="translate(1383.146 2443.438)" fill="#20143b"/>
    <path id="Trazado_219" data-name="Trazado 219" d="M0,0,1.006-.157a1.4,1.4,0,0,0,.471.922,1.649,1.649,0,0,0,1.082.321A1.6,1.6,0,0,0,3.6.8.848.848,0,0,0,3.938.135a.613.613,0,0,0-.3-.54A4.418,4.418,0,0,0,2.6-.748a9.509,9.509,0,0,1-1.551-.488A1.5,1.5,0,0,1,.393-1.8a1.5,1.5,0,0,1-.224-.8,1.538,1.538,0,0,1,.184-.74,1.645,1.645,0,0,1,.5-.565,2.091,2.091,0,0,1,.647-.3,3.077,3.077,0,0,1,.879-.12,3.49,3.49,0,0,1,1.24.2,1.68,1.68,0,0,1,.788.548,2.15,2.15,0,0,1,.35.926l-.994.135a1.082,1.082,0,0,0-.393-.72,1.441,1.441,0,0,0-.918-.259,1.667,1.667,0,0,0-1,.231.67.67,0,0,0-.3.54.556.556,0,0,0,.124.354.9.9,0,0,0,.39.271c.1.037.4.123.9.258a12.773,12.773,0,0,1,1.506.469,1.527,1.527,0,0,1,.669.533,1.477,1.477,0,0,1,.243.866,1.7,1.7,0,0,1-.3.953,1.917,1.917,0,0,1-.856.692,3.132,3.132,0,0,1-1.266.245A2.833,2.833,0,0,1,.782,1.435,2.252,2.252,0,0,1,0,0" transform="translate(1390.305 2441.654)" fill="#20143b"/>
    <path id="Trazado_220" data-name="Trazado 220" d="M0,0,.147.895A3.857,3.857,0,0,1-.622.984,1.745,1.745,0,0,1-1.48.81.979.979,0,0,1-1.91.351,3.607,3.607,0,0,1-2.034-.844V-4.281H-2.78v-.788h.746v-1.48l1.011-.607v2.087H0v.788H-1.023V-.788a1.745,1.745,0,0,0,.054.557.422.422,0,0,0,.175.2A.678.678,0,0,0-.446.039,3.355,3.355,0,0,0,0,0" transform="translate(1398.718 2442.532)" fill="#20143b"/>
    <path id="Trazado_221" data-name="Trazado 221" d="M0,0V-5.975H.915v.906a2.485,2.485,0,0,1,.647-.838,1.136,1.136,0,0,1,.653-.2,1.985,1.985,0,0,1,1.045.327l-.35.939a1.462,1.462,0,0,0-.746-.219.971.971,0,0,0-.6.2,1.085,1.085,0,0,0-.378.556,3.892,3.892,0,0,0-.17,1.181V0Z" transform="translate(1399.701 2443.438)" fill="#20143b"/>
    <path id="Trazado_222" data-name="Trazado 222" d="M0,0V-.878A2.2,2.2,0,0,1-1.9.135a2.422,2.422,0,0,1-.992-.2,1.628,1.628,0,0,1-.683-.51,1.885,1.885,0,0,1-.314-.75,5.158,5.158,0,0,1-.062-.945v-3.7h1.017v3.314a5.928,5.928,0,0,0,.062,1.069,1.055,1.055,0,0,0,.407.626A1.263,1.263,0,0,0-1.7-.737,1.686,1.686,0,0,0-.842-.971a1.3,1.3,0,0,0,.568-.636A3.176,3.176,0,0,0-.107-2.774v-3.2H.91V0Z" transform="translate(1407.498 2443.438)" fill="#20143b"/>
    <path id="Trazado_223" data-name="Trazado 223" d="M0,0,1,.129A2.574,2.574,0,0,1,.161,1.74,2.452,2.452,0,0,1-1.5,2.323a2.585,2.585,0,0,1-1.981-.8,3.243,3.243,0,0,1-.748-2.3A4.139,4.139,0,0,1-3.9-2.47a2.24,2.24,0,0,1,.98-1.089,2.917,2.917,0,0,1,1.433-.362,2.5,2.5,0,0,1,1.6.491,2.255,2.255,0,0,1,.8,1.4l-.989.152a1.631,1.631,0,0,0-.5-.906,1.3,1.3,0,0,0-.867-.3A1.582,1.582,0,0,0-2.7-2.541a2.6,2.6,0,0,0-.48,1.736A2.689,2.689,0,0,0-2.718.945a1.51,1.51,0,0,0,1.209.546,1.426,1.426,0,0,0,1-.366A1.812,1.812,0,0,0,0,0" transform="translate(1413.916 2441.249)" fill="#20143b"/>
    <path id="Trazado_224" data-name="Trazado 224" d="M0,0,.147.895A3.856,3.856,0,0,1-.621.984,1.749,1.749,0,0,1-1.48.81.979.979,0,0,1-1.91.351,3.635,3.635,0,0,1-2.034-.844V-4.281H-2.78v-.788h.746v-1.48l1.012-.607v2.087H0v.788H-1.022V-.788a1.755,1.755,0,0,0,.053.557.422.422,0,0,0,.175.2A.678.678,0,0,0-.446.039,3.355,3.355,0,0,0,0,0" transform="translate(1418.007 2442.532)" fill="#20143b"/>
    <path id="Trazado_225" data-name="Trazado 225" d="M0,0V-.878A2.2,2.2,0,0,1-1.9.135a2.422,2.422,0,0,1-.992-.2,1.621,1.621,0,0,1-.683-.51,1.885,1.885,0,0,1-.314-.75,5.158,5.158,0,0,1-.062-.945v-3.7h1.017v3.314a5.928,5.928,0,0,0,.062,1.069,1.055,1.055,0,0,0,.407.626A1.263,1.263,0,0,0-1.7-.737,1.686,1.686,0,0,0-.842-.971a1.3,1.3,0,0,0,.568-.636A3.176,3.176,0,0,0-.107-2.774v-3.2H.91V0Z" transform="translate(1422.934 2443.438)" fill="#20143b"/>
    <path id="Trazado_226" data-name="Trazado 226" d="M0,0V-5.975H.916v.906a2.472,2.472,0,0,1,.646-.838,1.136,1.136,0,0,1,.653-.2,1.985,1.985,0,0,1,1.045.327l-.35.939a1.462,1.462,0,0,0-.746-.219.971.971,0,0,0-.6.2,1.085,1.085,0,0,0-.378.556,3.923,3.923,0,0,0-.17,1.181V0Z" transform="translate(1425.425 2443.438)" fill="#20143b"/>
    <path id="Trazado_227" data-name="Trazado 227" d="M0,0A3.777,3.777,0,0,1-1.088.675a3.157,3.157,0,0,1-1.121.2A2.187,2.187,0,0,1-3.729.39,1.582,1.582,0,0,1-4.26-.838a1.641,1.641,0,0,1,.2-.8,1.649,1.649,0,0,1,.526-.581A2.468,2.468,0,0,1-2.8-2.554a7.19,7.19,0,0,1,.9-.152A9.284,9.284,0,0,0-.085-3.055q.006-.208.006-.264a1.115,1.115,0,0,0-.288-.872,1.707,1.707,0,0,0-1.159-.343,1.8,1.8,0,0,0-1.059.249,1.535,1.535,0,0,0-.506.887l-.994-.135a2.452,2.452,0,0,1,.446-1.028,1.97,1.97,0,0,1,.9-.6,4.033,4.033,0,0,1,1.361-.21,3.617,3.617,0,0,1,1.249.18,1.64,1.64,0,0,1,.706.452,1.6,1.6,0,0,1,.317.69,5.667,5.667,0,0,1,.051.934v1.351A14.115,14.115,0,0,0,1.009.019a2.226,2.226,0,0,0,.257.718H.2A2.149,2.149,0,0,1,0,0M-.085-2.262a7.485,7.485,0,0,1-1.661.383,3.914,3.914,0,0,0-.887.2.886.886,0,0,0-.4.329.864.864,0,0,0-.141.482.858.858,0,0,0,.308.675,1.327,1.327,0,0,0,.9.27A2.1,2.1,0,0,0-.921-.178a1.575,1.575,0,0,0,.672-.7A2.419,2.419,0,0,0-.085-1.89Z" transform="translate(1433.205 2442.701)" fill="#20143b"/>
    <path id="Trazado_228" data-name="Trazado 228" d="M0,0,1.006-.157a1.391,1.391,0,0,0,.472.922,1.647,1.647,0,0,0,1.082.321A1.6,1.6,0,0,0,3.6.8.848.848,0,0,0,3.938.135a.615.615,0,0,0-.3-.54A4.45,4.45,0,0,0,2.6-.748a9.509,9.509,0,0,1-1.551-.488A1.5,1.5,0,0,1,.393-1.8a1.5,1.5,0,0,1-.224-.8,1.538,1.538,0,0,1,.184-.74,1.645,1.645,0,0,1,.5-.565,2.091,2.091,0,0,1,.647-.3,3.077,3.077,0,0,1,.879-.12,3.486,3.486,0,0,1,1.24.2,1.68,1.68,0,0,1,.788.548,2.15,2.15,0,0,1,.35.926l-.994.135a1.082,1.082,0,0,0-.393-.72,1.441,1.441,0,0,0-.918-.259,1.667,1.667,0,0,0-1,.231.67.67,0,0,0-.3.54.556.556,0,0,0,.124.354.9.9,0,0,0,.39.271q.153.055.9.258a12.71,12.71,0,0,1,1.506.469,1.527,1.527,0,0,1,.669.533,1.477,1.477,0,0,1,.243.866,1.689,1.689,0,0,1-.3.953,1.917,1.917,0,0,1-.856.692,3.132,3.132,0,0,1-1.266.245A2.833,2.833,0,0,1,.782,1.435,2.252,2.252,0,0,1,0,0" transform="translate(1435.318 2441.654)" fill="#20143b"/>
    <path id="Trazado_229" data-name="Trazado 229" d="M0,0V-5.975H.915v.906a2.485,2.485,0,0,1,.647-.838,1.136,1.136,0,0,1,.653-.2,1.985,1.985,0,0,1,1.045.327l-.35.939a1.462,1.462,0,0,0-.746-.219.971.971,0,0,0-.6.2,1.085,1.085,0,0,0-.378.556,3.892,3.892,0,0,0-.17,1.181V0Z" transform="translate(1444.714 2443.438)" fill="#20143b"/>
    <path id="Trazado_230" data-name="Trazado 230" d="M0,0,1.051.129A2.556,2.556,0,0,1,.13,1.553a2.781,2.781,0,0,1-1.718.506,2.751,2.751,0,0,1-2.087-.808,3.145,3.145,0,0,1-.772-2.264,3.291,3.291,0,0,1,.78-2.34,2.646,2.646,0,0,1,2.023-.833A2.571,2.571,0,0,1,.322-3.37a3.23,3.23,0,0,1,.763,2.295q0,.09-.006.27H-3.4A2.288,2.288,0,0,0-2.836.7a1.666,1.666,0,0,0,1.254.523A1.562,1.562,0,0,0-.627.934,1.948,1.948,0,0,0,0,0M-3.339-1.637H.011A2.015,2.015,0,0,0-.373-2.768a1.562,1.562,0,0,0-1.26-.585,1.62,1.62,0,0,0-1.178.467,1.846,1.846,0,0,0-.528,1.249" transform="translate(1452.687 2441.514)" fill="#20143b"/>
    <path id="Trazado_231" data-name="Trazado 231" d="M0,0H332.22V-123.672H0Z" transform="translate(1260 2524.344)" fill="none"/>
    <path id="Trazado_232" data-name="Trazado 232" d="M194.992-89.154h1.017v8.248h-1.017Z" transform="translate(1260 2524.344)" fill="#20143b"/>
    <path id="Trazado_233" data-name="Trazado 233" d="M0,0A3.764,3.764,0,0,1-1.088.675a3.157,3.157,0,0,1-1.121.2A2.187,2.187,0,0,1-3.729.39,1.582,1.582,0,0,1-4.26-.838a1.641,1.641,0,0,1,.2-.8,1.658,1.658,0,0,1,.526-.581A2.492,2.492,0,0,1-2.8-2.554a7.224,7.224,0,0,1,.9-.152A9.284,9.284,0,0,0-.085-3.055q.006-.208.006-.264a1.115,1.115,0,0,0-.288-.872,1.706,1.706,0,0,0-1.158-.343,1.8,1.8,0,0,0-1.06.249,1.535,1.535,0,0,0-.506.887l-.994-.135a2.452,2.452,0,0,1,.447-1.028,1.961,1.961,0,0,1,.9-.6,4.039,4.039,0,0,1,1.362-.21,3.615,3.615,0,0,1,1.248.18,1.64,1.64,0,0,1,.706.452,1.59,1.59,0,0,1,.317.69,5.667,5.667,0,0,1,.051.934v1.351A14.115,14.115,0,0,0,1.009.019a2.25,2.25,0,0,0,.257.718H.2A2.149,2.149,0,0,1,0,0M-.085-2.262a7.485,7.485,0,0,1-1.661.383,3.928,3.928,0,0,0-.887.2.886.886,0,0,0-.4.329.864.864,0,0,0-.141.482.858.858,0,0,0,.308.675,1.327,1.327,0,0,0,.9.27A2.1,2.1,0,0,0-.921-.178a1.575,1.575,0,0,0,.672-.7A2.419,2.419,0,0,0-.085-1.89Z" transform="translate(1461.5 2442.701)" fill="#20143b"/>
    <path id="Trazado_234" data-name="Trazado 234" d="M0,0,1,.129A2.574,2.574,0,0,1,.161,1.74,2.452,2.452,0,0,1-1.5,2.323a2.585,2.585,0,0,1-1.981-.8,3.243,3.243,0,0,1-.748-2.3A4.139,4.139,0,0,1-3.9-2.47a2.24,2.24,0,0,1,.98-1.089,2.916,2.916,0,0,1,1.432-.362,2.5,2.5,0,0,1,1.6.491,2.26,2.26,0,0,1,.8,1.4l-.989.152a1.637,1.637,0,0,0-.5-.906,1.3,1.3,0,0,0-.867-.3A1.581,1.581,0,0,0-2.7-2.541a2.6,2.6,0,0,0-.48,1.736A2.683,2.683,0,0,0-2.718.945a1.51,1.51,0,0,0,1.209.546,1.426,1.426,0,0,0,1-.366A1.812,1.812,0,0,0,0,0" transform="translate(1467.936 2441.249)" fill="#20143b"/>
    <path id="Trazado_235" data-name="Trazado 235" d="M0,0H332.22V-123.672H0Z" transform="translate(1260 2524.344)" fill="none"/>
    <path id="Trazado_236" data-name="Trazado 236" d="M209.812-89.154h1.017v1.165h-1.017Zm0,1.165,0,1.108h1.017v5.975h-1.017Z" transform="translate(1260 2524.344)" fill="#20143b"/>
    <path id="Trazado_237" data-name="Trazado 237" d="M0,0A3.07,3.07,0,0,1,.927-2.458a2.8,2.8,0,0,1,1.887-.664,2.7,2.7,0,0,1,2.022.806A3.065,3.065,0,0,1,5.622-.084a3.927,3.927,0,0,1-.348,1.813A2.45,2.45,0,0,1,4.263,2.757a2.964,2.964,0,0,1-1.449.365,2.7,2.7,0,0,1-2.037-.8A3.2,3.2,0,0,1,0,0M1.045,0a2.537,2.537,0,0,0,.5,1.718,1.614,1.614,0,0,0,1.266.572,1.605,1.605,0,0,0,1.26-.574,2.6,2.6,0,0,0,.5-1.75,2.464,2.464,0,0,0-.506-1.68,1.609,1.609,0,0,0-1.257-.57,1.617,1.617,0,0,0-1.266.568A2.528,2.528,0,0,0,1.045,0" transform="translate(1471.998 2440.45)" fill="#20143b"/>
    <path id="Trazado_238" data-name="Trazado 238" d="M0,0V-5.975H.915v.85a2.16,2.16,0,0,1,1.91-.985,2.518,2.518,0,0,1,1,.193,1.572,1.572,0,0,1,.681.511,1.947,1.947,0,0,1,.317.748,5.848,5.848,0,0,1,.056.984V0H3.859V-3.634a2.729,2.729,0,0,0-.119-.927.973.973,0,0,0-.421-.489,1.338,1.338,0,0,0-.709-.182,1.649,1.649,0,0,0-1.121.411,2.017,2.017,0,0,0-.472,1.558V0Z" transform="translate(1478.812 2443.438)" fill="#20143b"/>
    <path id="Trazado_239" data-name="Trazado 239" d="M0,0A3.777,3.777,0,0,1-1.088.675a3.157,3.157,0,0,1-1.121.2A2.187,2.187,0,0,1-3.729.39,1.582,1.582,0,0,1-4.26-.838a1.641,1.641,0,0,1,.2-.8,1.649,1.649,0,0,1,.526-.581A2.492,2.492,0,0,1-2.8-2.554a7.19,7.19,0,0,1,.9-.152A9.284,9.284,0,0,0-.085-3.055q.006-.208.006-.264a1.115,1.115,0,0,0-.288-.872,1.706,1.706,0,0,0-1.158-.343,1.8,1.8,0,0,0-1.06.249,1.535,1.535,0,0,0-.506.887l-.994-.135a2.452,2.452,0,0,1,.446-1.028,1.97,1.97,0,0,1,.9-.6,4.033,4.033,0,0,1,1.361-.21,3.617,3.617,0,0,1,1.249.18,1.64,1.64,0,0,1,.706.452,1.59,1.59,0,0,1,.317.69,5.667,5.667,0,0,1,.051.934v1.351A14.115,14.115,0,0,0,1.009.019a2.226,2.226,0,0,0,.257.718H.2A2.149,2.149,0,0,1,0,0M-.085-2.262a7.485,7.485,0,0,1-1.661.383,3.914,3.914,0,0,0-.887.2.886.886,0,0,0-.4.329.864.864,0,0,0-.141.482.858.858,0,0,0,.308.675,1.327,1.327,0,0,0,.9.27A2.1,2.1,0,0,0-.921-.178a1.575,1.575,0,0,0,.672-.7A2.419,2.419,0,0,0-.085-1.89Z" transform="translate(1489.163 2442.701)" fill="#20143b"/>
    <path id="Trazado_240" data-name="Trazado 240" d="M0,0V-.754A1.868,1.868,0,0,1-1.678.135,2.356,2.356,0,0,1-3-.259a2.6,2.6,0,0,1-.933-1.1,3.783,3.783,0,0,1-.33-1.622,4.251,4.251,0,0,1,.3-1.624,2.355,2.355,0,0,1,.9-1.116A2.413,2.413,0,0,1-1.723-6.11a2.009,2.009,0,0,1,.966.227,2.024,2.024,0,0,1,.689.595v-2.96H.944V0ZM-3.215-2.982a2.587,2.587,0,0,0,.486,1.716A1.466,1.466,0,0,0-1.582-.7,1.445,1.445,0,0,0-.449-1.241,2.493,2.493,0,0,0,.017-2.9,2.8,2.8,0,0,0-.458-4.7a1.462,1.462,0,0,0-1.169-.573A1.41,1.41,0,0,0-2.76-4.72a2.712,2.712,0,0,0-.455,1.738" transform="translate(1495.576 2443.438)" fill="#20143b"/>
    <path id="Trazado_241" data-name="Trazado 241" d="M0,0A3.777,3.777,0,0,1-1.088.675a3.157,3.157,0,0,1-1.121.2A2.187,2.187,0,0,1-3.729.39,1.582,1.582,0,0,1-4.26-.838a1.641,1.641,0,0,1,.2-.8,1.649,1.649,0,0,1,.526-.581A2.468,2.468,0,0,1-2.8-2.554a7.19,7.19,0,0,1,.9-.152A9.284,9.284,0,0,0-.085-3.055q.006-.208.006-.264a1.115,1.115,0,0,0-.288-.872,1.707,1.707,0,0,0-1.159-.343,1.8,1.8,0,0,0-1.059.249,1.535,1.535,0,0,0-.506.887l-.994-.135a2.452,2.452,0,0,1,.446-1.028,1.964,1.964,0,0,1,.9-.6,4.033,4.033,0,0,1,1.361-.21,3.617,3.617,0,0,1,1.249.18,1.64,1.64,0,0,1,.706.452,1.6,1.6,0,0,1,.317.69,5.7,5.7,0,0,1,.05.934v1.351A14.037,14.037,0,0,0,1.009.019a2.226,2.226,0,0,0,.257.718H.2A2.149,2.149,0,0,1,0,0M-.085-2.262a7.485,7.485,0,0,1-1.661.383,3.914,3.914,0,0,0-.887.2.886.886,0,0,0-.4.329.864.864,0,0,0-.141.482.858.858,0,0,0,.308.675,1.327,1.327,0,0,0,.9.27A2.1,2.1,0,0,0-.921-.178a1.575,1.575,0,0,0,.672-.7A2.419,2.419,0,0,0-.085-1.89Z" transform="translate(1502.034 2442.701)" fill="#20143b"/>
    <path id="Trazado_242" data-name="Trazado 242" d="M0,0,1.006-.157a1.391,1.391,0,0,0,.472.922,1.646,1.646,0,0,0,1.081.321A1.6,1.6,0,0,0,3.6.8.848.848,0,0,0,3.938.135a.615.615,0,0,0-.3-.54A4.45,4.45,0,0,0,2.6-.748a9.509,9.509,0,0,1-1.551-.488A1.5,1.5,0,0,1,.393-1.8a1.5,1.5,0,0,1-.224-.8,1.538,1.538,0,0,1,.184-.74,1.645,1.645,0,0,1,.5-.565,2.091,2.091,0,0,1,.647-.3,3.077,3.077,0,0,1,.879-.12,3.49,3.49,0,0,1,1.24.2,1.68,1.68,0,0,1,.788.548,2.15,2.15,0,0,1,.35.926l-.994.135a1.082,1.082,0,0,0-.393-.72,1.441,1.441,0,0,0-.918-.259,1.667,1.667,0,0,0-1,.231.67.67,0,0,0-.3.54.556.556,0,0,0,.124.354.9.9,0,0,0,.39.271q.153.055.9.258a12.773,12.773,0,0,1,1.506.469,1.527,1.527,0,0,1,.669.533,1.477,1.477,0,0,1,.243.866,1.689,1.689,0,0,1-.3.953,1.917,1.917,0,0,1-.856.692,3.132,3.132,0,0,1-1.266.245A2.833,2.833,0,0,1,.782,1.435,2.252,2.252,0,0,1,0,0" transform="translate(1504.147 2441.654)" fill="#20143b"/>
    <path id="Trazado_243" data-name="Trazado 243" d="M0,0,1,.129A2.574,2.574,0,0,1,.161,1.74,2.452,2.452,0,0,1-1.5,2.323a2.585,2.585,0,0,1-1.981-.8,3.243,3.243,0,0,1-.748-2.3A4.139,4.139,0,0,1-3.9-2.47a2.24,2.24,0,0,1,.98-1.089,2.916,2.916,0,0,1,1.432-.362,2.5,2.5,0,0,1,1.6.491,2.255,2.255,0,0,1,.8,1.4l-.989.152a1.637,1.637,0,0,0-.5-.906,1.3,1.3,0,0,0-.867-.3A1.581,1.581,0,0,0-2.7-2.541a2.6,2.6,0,0,0-.48,1.736A2.683,2.683,0,0,0-2.718.945a1.51,1.51,0,0,0,1.209.546,1.426,1.426,0,0,0,1-.366A1.812,1.812,0,0,0,0,0" transform="translate(1517.47 2441.249)" fill="#20143b"/>
    <path id="Trazado_244" data-name="Trazado 244" d="M0,0A3.07,3.07,0,0,1,.927-2.458a2.8,2.8,0,0,1,1.887-.664,2.7,2.7,0,0,1,2.022.806A3.065,3.065,0,0,1,5.622-.084a3.927,3.927,0,0,1-.348,1.813A2.461,2.461,0,0,1,4.263,2.757a2.964,2.964,0,0,1-1.449.365,2.7,2.7,0,0,1-2.037-.8A3.2,3.2,0,0,1,0,0M1.045,0a2.537,2.537,0,0,0,.5,1.718,1.614,1.614,0,0,0,1.266.572,1.6,1.6,0,0,0,1.259-.574,2.6,2.6,0,0,0,.5-1.75,2.464,2.464,0,0,0-.505-1.68,1.61,1.61,0,0,0-1.257-.57,1.617,1.617,0,0,0-1.266.568A2.528,2.528,0,0,0,1.045,0" transform="translate(1518.961 2440.45)" fill="#20143b"/>
    <path id="Trazado_245" data-name="Trazado 245" d="M0,0V-5.975H.916v.85A2.157,2.157,0,0,1,2.825-6.11a2.518,2.518,0,0,1,1,.193,1.566,1.566,0,0,1,.681.511,1.947,1.947,0,0,1,.317.748,5.848,5.848,0,0,1,.056.984V0H3.859V-3.634a2.7,2.7,0,0,0-.119-.927.976.976,0,0,0-.42-.489,1.345,1.345,0,0,0-.71-.182,1.649,1.649,0,0,0-1.121.411,2.017,2.017,0,0,0-.472,1.558V0Z" transform="translate(1525.775 2443.438)" fill="#20143b"/>
    <path id="Trazado_246" data-name="Trazado 246" d="M0,0,1.051.129A2.556,2.556,0,0,1,.13,1.553a2.781,2.781,0,0,1-1.718.506,2.751,2.751,0,0,1-2.087-.808,3.145,3.145,0,0,1-.772-2.264,3.291,3.291,0,0,1,.78-2.34,2.646,2.646,0,0,1,2.023-.833A2.569,2.569,0,0,1,.322-3.37a3.23,3.23,0,0,1,.763,2.295q0,.09-.006.27H-3.4A2.293,2.293,0,0,0-2.836.7a1.666,1.666,0,0,0,1.254.523A1.562,1.562,0,0,0-.627.934,1.934,1.934,0,0,0,0,0M-3.339-1.637H.011A2.015,2.015,0,0,0-.373-2.768a1.562,1.562,0,0,0-1.26-.585,1.622,1.622,0,0,0-1.178.467,1.846,1.846,0,0,0-.528,1.249" transform="translate(1539.533 2441.514)" fill="#20143b"/>
    <path id="Trazado_247" data-name="Trazado 247" d="M0,0H332.22V-123.672H0Z" transform="translate(1260 2524.344)" fill="none"/>
    <path id="Trazado_248" data-name="Trazado 248" d="M281.838-89.154h1.017v8.248h-1.017Z" transform="translate(1260 2524.344)" fill="#20143b"/>
    <path id="Trazado_249" data-name="Trazado 249" d="M0,0V-5.975H.91v.839a2.134,2.134,0,0,1,.751-.707A2.122,2.122,0,0,1,2.729-6.11a1.978,1.978,0,0,1,1.093.276,1.477,1.477,0,0,1,.6.771A2.156,2.156,0,0,1,6.277-6.11a1.828,1.828,0,0,1,1.373.493A2.1,2.1,0,0,1,8.13-4.1V0H7.119V-3.764a2.762,2.762,0,0,0-.1-.875.846.846,0,0,0-.359-.43,1.119,1.119,0,0,0-.61-.163A1.425,1.425,0,0,0,5-4.813a1.844,1.844,0,0,0-.418,1.342V0H3.565V-3.882a1.709,1.709,0,0,0-.248-1.013A.944.944,0,0,0,2.5-5.232a1.484,1.484,0,0,0-.794.225,1.274,1.274,0,0,0-.528.658A3.7,3.7,0,0,0,1.017-3.1V0Z" transform="translate(1321.25 2457.263)" fill="#20143b"/>
    <path id="Trazado_250" data-name="Trazado 250" d="M0,0A3.07,3.07,0,0,1,.927-2.458a2.8,2.8,0,0,1,1.887-.664,2.7,2.7,0,0,1,2.022.807A3.062,3.062,0,0,1,5.622-.084,3.932,3.932,0,0,1,5.274,1.73,2.453,2.453,0,0,1,4.263,2.757a2.964,2.964,0,0,1-1.449.365,2.7,2.7,0,0,1-2.037-.8A3.2,3.2,0,0,1,0,0M1.045,0a2.54,2.54,0,0,0,.5,1.719,1.617,1.617,0,0,0,1.266.571,1.6,1.6,0,0,0,1.259-.574,2.6,2.6,0,0,0,.5-1.75,2.461,2.461,0,0,0-.505-1.679,1.61,1.61,0,0,0-1.257-.571,1.617,1.617,0,0,0-1.266.568A2.528,2.528,0,0,0,1.045,0" transform="translate(1330.51 2454.276)" fill="#20143b"/>
    <path id="Trazado_251" data-name="Trazado 251" d="M0,0-2.283-5.975h1.074L.079-2.4q.208.581.384,1.2Q.6-1.666.842-2.329L2.175-5.975H3.22L.949,0Z" transform="translate(1338.991 2457.263)" fill="#20143b"/>
    <path id="Trazado_252" data-name="Trazado 252" d="M0,0H332.22V-123.672H0Z" transform="translate(1260 2524.344)" fill="none"/>
    <path id="Trazado_253" data-name="Trazado 253" d="M83.116-75.328h1.017v1.165H83.116Zm0,1.164,0,1.109h1.017v5.975H83.116Z" transform="translate(1260 2524.344)" fill="#20143b"/>
    <path id="Trazado_254" data-name="Trazado 254" d="M0,0V-5.975H.91v.839a2.142,2.142,0,0,1,.751-.707A2.122,2.122,0,0,1,2.729-6.11a1.975,1.975,0,0,1,1.093.276,1.477,1.477,0,0,1,.6.771A2.156,2.156,0,0,1,6.277-6.11a1.828,1.828,0,0,1,1.373.493A2.1,2.1,0,0,1,8.13-4.1V0H7.119V-3.764a2.762,2.762,0,0,0-.1-.875.846.846,0,0,0-.359-.43,1.119,1.119,0,0,0-.61-.163A1.425,1.425,0,0,0,5-4.813a1.844,1.844,0,0,0-.418,1.342V0H3.565V-3.882a1.709,1.709,0,0,0-.248-1.013A.944.944,0,0,0,2.5-5.232a1.484,1.484,0,0,0-.794.225,1.274,1.274,0,0,0-.528.658A3.7,3.7,0,0,0,1.017-3.1V0Z" transform="translate(1345.681 2457.263)" fill="#20143b"/>
    <path id="Trazado_255" data-name="Trazado 255" d="M0,0H332.22V-123.672H0Z" transform="translate(1260 2524.344)" fill="none"/>
    <path id="Trazado_256" data-name="Trazado 256" d="M95.325-75.328h1.017v1.165H95.325Zm0,1.164,0,1.109h1.017v5.975H95.325Z" transform="translate(1260 2524.344)" fill="#20143b"/>
    <path id="Trazado_257" data-name="Trazado 257" d="M0,0,1.051.129A2.556,2.556,0,0,1,.13,1.553a2.781,2.781,0,0,1-1.718.506,2.751,2.751,0,0,1-2.087-.807,3.147,3.147,0,0,1-.772-2.265,3.291,3.291,0,0,1,.78-2.34,2.646,2.646,0,0,1,2.023-.833A2.571,2.571,0,0,1,.322-3.37a3.23,3.23,0,0,1,.763,2.295q0,.09-.006.27H-3.4A2.288,2.288,0,0,0-2.836.7a1.666,1.666,0,0,0,1.254.523A1.562,1.562,0,0,0-.627.934,1.948,1.948,0,0,0,0,0M-3.339-1.637H.011A2.015,2.015,0,0,0-.373-2.768a1.562,1.562,0,0,0-1.26-.585,1.62,1.62,0,0,0-1.178.467,1.846,1.846,0,0,0-.528,1.249" transform="translate(1361.998 2455.339)" fill="#20143b"/>
    <path id="Trazado_258" data-name="Trazado 258" d="M0,0V-5.975H.915v.85a2.159,2.159,0,0,1,1.91-.985,2.518,2.518,0,0,1,1,.194,1.57,1.57,0,0,1,.681.51,1.931,1.931,0,0,1,.316.748,5.711,5.711,0,0,1,.057.984V0H3.859V-3.634A2.722,2.722,0,0,0,3.74-4.56a.973.973,0,0,0-.421-.489,1.341,1.341,0,0,0-.709-.183,1.649,1.649,0,0,0-1.121.411,2.017,2.017,0,0,0-.472,1.558V0Z" transform="translate(1364.326 2457.263)" fill="#20143b"/>
    <path id="Trazado_259" data-name="Trazado 259" d="M0,0,.147.895A3.857,3.857,0,0,1-.622.984,1.745,1.745,0,0,1-1.48.81.977.977,0,0,1-1.91.352a3.614,3.614,0,0,1-.124-1.2V-4.281H-2.78v-.788h.746v-1.48l1.011-.607v2.087H0v.788H-1.023V-.788a1.745,1.745,0,0,0,.054.557.422.422,0,0,0,.175.2A.678.678,0,0,0-.446.039,3.355,3.355,0,0,0,0,0" transform="translate(1372.982 2456.358)" fill="#20143b"/>
    <path id="Trazado_260" data-name="Trazado 260" d="M0,0A3.07,3.07,0,0,1,.927-2.458a2.8,2.8,0,0,1,1.887-.664,2.7,2.7,0,0,1,2.022.807A3.062,3.062,0,0,1,5.622-.084,3.932,3.932,0,0,1,5.274,1.73,2.447,2.447,0,0,1,4.263,2.757a2.962,2.962,0,0,1-1.449.365,2.7,2.7,0,0,1-2.037-.8A3.2,3.2,0,0,1,0,0M1.045,0a2.54,2.54,0,0,0,.5,1.719,1.618,1.618,0,0,0,1.266.571,1.6,1.6,0,0,0,1.26-.574,2.6,2.6,0,0,0,.5-1.75,2.461,2.461,0,0,0-.506-1.679,1.61,1.61,0,0,0-1.257-.571,1.619,1.619,0,0,0-1.266.568A2.528,2.528,0,0,0,1.045,0" transform="translate(1373.597 2454.276)" fill="#20143b"/>
    <path id="Trazado_261" data-name="Trazado 261" d="M0,0A10.12,10.12,0,0,1-1.424-2.475a7.669,7.669,0,0,1-.582-2.937,7.621,7.621,0,0,1,.435-2.566A10.765,10.765,0,0,1,0-10.813H.729q-.684,1.17-.9,1.671a9.1,9.1,0,0,0-.543,1.62A9.429,9.429,0,0,0-.96-5.406,10.124,10.124,0,0,0,.729,0Z" transform="translate(1385.57 2459.688)" fill="#20143b"/>
    <path id="Trazado_262" data-name="Trazado 262" d="M0,0H332.22V-123.672H0Z" transform="translate(1260 2524.344)" fill="none"/>
    <path id="Trazado_263" data-name="Trazado 263" d="M0,0V-8.248H1.125l4.35,6.476V-8.248H6.526V0H5.4L1.051-6.481V0Z" transform="translate(1387.598 2457.263)" fill="#20143b"/>
    <path id="Trazado_264" data-name="Trazado 264" d="M135.842-75.328h1.017v1.165h-1.017Zm0,1.164,0,1.109h1.017v5.975h-1.017Z" transform="translate(1260 2524.344)" fill="#20143b"/>
    <path id="Trazado_265" data-name="Trazado 265" d="M0,0-2.282-5.975h1.073L.079-2.4q.21.581.384,1.2Q.6-1.666.842-2.329L2.175-5.975H3.22L.949,0Z" transform="translate(1400.073 2457.263)" fill="#20143b"/>
    <path id="Trazado_266" data-name="Trazado 266" d="M0,0,1.051.129A2.556,2.556,0,0,1,.13,1.553a2.781,2.781,0,0,1-1.718.506,2.755,2.755,0,0,1-2.088-.807,3.147,3.147,0,0,1-.771-2.265,3.291,3.291,0,0,1,.78-2.34,2.646,2.646,0,0,1,2.023-.833A2.571,2.571,0,0,1,.322-3.37a3.23,3.23,0,0,1,.763,2.295q0,.09-.006.27H-3.4A2.288,2.288,0,0,0-2.836.7a1.666,1.666,0,0,0,1.254.523A1.562,1.562,0,0,0-.627.934,1.948,1.948,0,0,0,0,0M-3.339-1.637H.011A2.015,2.015,0,0,0-.373-2.768a1.562,1.562,0,0,0-1.26-.585,1.62,1.62,0,0,0-1.178.467,1.846,1.846,0,0,0-.528,1.249" transform="translate(1408.3 2455.339)" fill="#20143b"/>
    <path id="Trazado_267" data-name="Trazado 267" d="M0,0H332.22V-123.672H0Z" transform="translate(1260 2524.344)" fill="none"/>
    <path id="Trazado_268" data-name="Trazado 268" d="M150.6-75.328h1.017v8.248H150.6Z" transform="translate(1260 2524.344)" fill="#20143b"/>
    <path id="Trazado_269" data-name="Trazado 269" d="M0,0H-1.017V-6.453a5.271,5.271,0,0,1-.963.7,6.908,6.908,0,0,1-1.071.523v-.979A6.111,6.111,0,0,0-1.56-7.179a3.8,3.8,0,0,0,.9-1.1H0Z" transform="translate(1419.962 2457.263)" fill="#20143b"/>
    <path id="Trazado_270" data-name="Trazado 270" d="M0,0H-.729A10.125,10.125,0,0,0,.961-5.406a9.2,9.2,0,0,0-.243-2.1,8.745,8.745,0,0,0-.537-1.62,18.9,18.9,0,0,0-.91-1.688H0A10.765,10.765,0,0,1,1.571-7.978a7.621,7.621,0,0,1,.435,2.566,7.635,7.635,0,0,1-.585,2.937A10.277,10.277,0,0,1,0,0" transform="translate(1423.515 2459.688)" fill="#20143b"/>
    <path id="Trazado_271" data-name="Trazado 271" d="M0,0H332.22V-123.672H0Z" transform="translate(1260 2524.344)" fill="none"/>
    <path id="Trazado_272" data-name="Trazado 272" d="M0,0V-8.248H5.989v.974H1.1v2.526H5.678v.967H1.1V-.973H6.181V0Z" transform="translate(1321.403 2484.916)" fill="#20143b"/>
    <path id="Trazado_273" data-name="Trazado 273" d="M0,0,1.006-.158a1.4,1.4,0,0,0,.471.923,1.649,1.649,0,0,0,1.082.321A1.6,1.6,0,0,0,3.6.8.85.85,0,0,0,3.938.135a.613.613,0,0,0-.3-.54A4.418,4.418,0,0,0,2.6-.748a9.534,9.534,0,0,1-1.551-.487A1.5,1.5,0,0,1,.393-1.8a1.5,1.5,0,0,1-.224-.8,1.529,1.529,0,0,1,.184-.74,1.634,1.634,0,0,1,.5-.565A2.091,2.091,0,0,1,1.5-4.2a3.075,3.075,0,0,1,.878-.121,3.491,3.491,0,0,1,1.241.2,1.686,1.686,0,0,1,.788.549,2.14,2.14,0,0,1,.35.925l-.994.135a1.082,1.082,0,0,0-.393-.72,1.443,1.443,0,0,0-.918-.259,1.667,1.667,0,0,0-1,.231.67.67,0,0,0-.3.54.556.556,0,0,0,.124.354.894.894,0,0,0,.39.27c.1.038.4.124.9.259a12.724,12.724,0,0,1,1.506.47,1.526,1.526,0,0,1,.669.532,1.477,1.477,0,0,1,.243.866,1.7,1.7,0,0,1-.3.954,1.923,1.923,0,0,1-.856.692,3.132,3.132,0,0,1-1.266.244A2.833,2.833,0,0,1,.782,1.435,2.252,2.252,0,0,1,0,0" transform="translate(1328.561 2483.132)" fill="#20143b"/>
    <path id="Trazado_274" data-name="Trazado 274" d="M0,0,.147.895a3.792,3.792,0,0,1-.769.09A1.744,1.744,0,0,1-1.48.81.977.977,0,0,1-1.91.352a3.614,3.614,0,0,1-.124-1.2V-4.281H-2.78v-.788h.746V-6.548l1.011-.608v2.087H0v.788H-1.023V-.788a1.745,1.745,0,0,0,.054.557.422.422,0,0,0,.175.2A.676.676,0,0,0-.447.039,3.355,3.355,0,0,0,0,0" transform="translate(1336.974 2484.01)" fill="#20143b"/>
    <path id="Trazado_275" data-name="Trazado 275" d="M0,0V-5.975H.916v.906a2.472,2.472,0,0,1,.646-.838,1.136,1.136,0,0,1,.653-.2,1.985,1.985,0,0,1,1.045.327l-.35.939a1.462,1.462,0,0,0-.746-.219.972.972,0,0,0-.6.2,1.082,1.082,0,0,0-.378.555,3.923,3.923,0,0,0-.17,1.181V0Z" transform="translate(1337.957 2484.916)" fill="#20143b"/>
    <path id="Trazado_276" data-name="Trazado 276" d="M0,0V-.878A2.2,2.2,0,0,1-1.9.135a2.422,2.422,0,0,1-.992-.2,1.626,1.626,0,0,1-.683-.509,1.89,1.89,0,0,1-.314-.751,5.15,5.15,0,0,1-.062-.945v-3.7h1.017v3.314a5.928,5.928,0,0,0,.062,1.069,1.057,1.057,0,0,0,.407.627A1.262,1.262,0,0,0-1.7-.737,1.685,1.685,0,0,0-.842-.97a1.3,1.3,0,0,0,.568-.636A3.179,3.179,0,0,0-.107-2.774v-3.2H.91V0Z" transform="translate(1345.754 2484.916)" fill="#20143b"/>
    <path id="Trazado_277" data-name="Trazado 277" d="M0,0,1,.129A2.577,2.577,0,0,1,.161,1.741,2.447,2.447,0,0,1-1.5,2.324a2.585,2.585,0,0,1-1.981-.8,3.246,3.246,0,0,1-.748-2.3A4.142,4.142,0,0,1-3.9-2.47a2.242,2.242,0,0,1,.98-1.088,2.917,2.917,0,0,1,1.432-.363,2.5,2.5,0,0,1,1.6.492,2.253,2.253,0,0,1,.8,1.4l-.989.152a1.637,1.637,0,0,0-.5-.906,1.3,1.3,0,0,0-.867-.3A1.582,1.582,0,0,0-2.7-2.54,2.6,2.6,0,0,0-3.181-.8,2.682,2.682,0,0,0-2.718.945a1.51,1.51,0,0,0,1.209.546,1.426,1.426,0,0,0,1-.366A1.812,1.812,0,0,0,0,0" transform="translate(1352.173 2482.727)" fill="#20143b"/>
    <path id="Trazado_278" data-name="Trazado 278" d="M0,0,.147.895a3.791,3.791,0,0,1-.768.09A1.748,1.748,0,0,1-1.48.81.977.977,0,0,1-1.91.352a3.643,3.643,0,0,1-.124-1.2V-4.281H-2.78v-.788h.746V-6.548l1.011-.608v2.087H0v.788H-1.023V-.788a1.745,1.745,0,0,0,.054.557.422.422,0,0,0,.175.2A.678.678,0,0,0-.446.039,3.355,3.355,0,0,0,0,0" transform="translate(1356.263 2484.01)" fill="#20143b"/>
    <path id="Trazado_279" data-name="Trazado 279" d="M0,0V-.878A2.2,2.2,0,0,1-1.9.135a2.422,2.422,0,0,1-.992-.2,1.626,1.626,0,0,1-.683-.509,1.89,1.89,0,0,1-.314-.751,5.15,5.15,0,0,1-.062-.945v-3.7h1.017v3.314a5.928,5.928,0,0,0,.062,1.069,1.057,1.057,0,0,0,.407.627A1.263,1.263,0,0,0-1.7-.737,1.684,1.684,0,0,0-.842-.97a1.3,1.3,0,0,0,.568-.636A3.179,3.179,0,0,0-.107-2.774v-3.2H.91V0Z" transform="translate(1361.19 2484.916)" fill="#20143b"/>
    <path id="Trazado_280" data-name="Trazado 280" d="M0,0V-5.975H.915v.906a2.485,2.485,0,0,1,.647-.838,1.136,1.136,0,0,1,.653-.2,1.985,1.985,0,0,1,1.045.327l-.35.939a1.462,1.462,0,0,0-.746-.219.972.972,0,0,0-.6.2,1.082,1.082,0,0,0-.378.555,3.892,3.892,0,0,0-.17,1.181V0Z" transform="translate(1363.682 2484.916)" fill="#20143b"/>
    <path id="Trazado_281" data-name="Trazado 281" d="M0,0A3.773,3.773,0,0,1-1.087.675a3.167,3.167,0,0,1-1.122.2A2.187,2.187,0,0,1-3.729.391,1.584,1.584,0,0,1-4.26-.838a1.627,1.627,0,0,1,.2-.8,1.649,1.649,0,0,1,.525-.582A2.466,2.466,0,0,1-2.8-2.554a7.224,7.224,0,0,1,.9-.152A9.36,9.36,0,0,0-.085-3.055q.006-.208.006-.264a1.114,1.114,0,0,0-.288-.872,1.706,1.706,0,0,0-1.158-.343,1.8,1.8,0,0,0-1.06.25,1.526,1.526,0,0,0-.5.886l-1-.135A2.448,2.448,0,0,1-3.638-4.56a1.961,1.961,0,0,1,.9-.6,4.038,4.038,0,0,1,1.362-.211,3.615,3.615,0,0,1,1.248.18,1.641,1.641,0,0,1,.706.453,1.586,1.586,0,0,1,.317.689,5.667,5.667,0,0,1,.051.934v1.351A14.135,14.135,0,0,0,1.009.02a2.245,2.245,0,0,0,.257.717H.2A2.127,2.127,0,0,1,0,0M-.085-2.262a7.485,7.485,0,0,1-1.661.383,3.873,3.873,0,0,0-.887.2.881.881,0,0,0-.4.33.86.86,0,0,0-.141.481.858.858,0,0,0,.308.675,1.327,1.327,0,0,0,.9.27A2.109,2.109,0,0,0-.921-.177a1.578,1.578,0,0,0,.672-.7A2.419,2.419,0,0,0-.085-1.89Z" transform="translate(1371.462 2484.179)" fill="#20143b"/>
    <path id="Trazado_282" data-name="Trazado 282" d="M0,0,1.006-.158a1.391,1.391,0,0,0,.472.923,1.644,1.644,0,0,0,1.081.321A1.6,1.6,0,0,0,3.6.8.85.85,0,0,0,3.938.135a.615.615,0,0,0-.3-.54A4.45,4.45,0,0,0,2.6-.748a9.534,9.534,0,0,1-1.551-.487A1.5,1.5,0,0,1,.393-1.8a1.5,1.5,0,0,1-.224-.8,1.54,1.54,0,0,1,.184-.74,1.645,1.645,0,0,1,.5-.565A2.091,2.091,0,0,1,1.5-4.2a3.077,3.077,0,0,1,.879-.121,3.49,3.49,0,0,1,1.24.2,1.681,1.681,0,0,1,.788.549,2.14,2.14,0,0,1,.35.925l-.994.135a1.082,1.082,0,0,0-.393-.72,1.441,1.441,0,0,0-.918-.259,1.667,1.667,0,0,0-1,.231.67.67,0,0,0-.3.54.556.556,0,0,0,.124.354.894.894,0,0,0,.39.27c.1.038.4.124.9.259a12.724,12.724,0,0,1,1.506.47,1.526,1.526,0,0,1,.669.532,1.477,1.477,0,0,1,.243.866,1.7,1.7,0,0,1-.3.954,1.923,1.923,0,0,1-.856.692,3.132,3.132,0,0,1-1.266.244A2.833,2.833,0,0,1,.782,1.435,2.252,2.252,0,0,1,0,0" transform="translate(1373.575 2483.132)" fill="#20143b"/>
    <path id="Trazado_283" data-name="Trazado 283" d="M0,0V-.754A1.867,1.867,0,0,1-1.678.135,2.356,2.356,0,0,1-3-.259a2.586,2.586,0,0,1-.932-1.1A3.773,3.773,0,0,1-4.26-2.982a4.246,4.246,0,0,1,.3-1.623,2.356,2.356,0,0,1,.9-1.116A2.406,2.406,0,0,1-1.723-6.11a2.009,2.009,0,0,1,.966.228,2.021,2.021,0,0,1,.689.594v-2.96H.944V0ZM-3.215-2.982a2.587,2.587,0,0,0,.486,1.716A1.466,1.466,0,0,0-1.582-.7,1.443,1.443,0,0,0-.449-1.24,2.5,2.5,0,0,0,.017-2.9,2.8,2.8,0,0,0-.458-4.7a1.462,1.462,0,0,0-1.169-.573A1.41,1.41,0,0,0-2.76-4.72a2.712,2.712,0,0,0-.455,1.738" transform="translate(1386.875 2484.916)" fill="#20143b"/>
    <path id="Trazado_284" data-name="Trazado 284" d="M0,0,1.051.129A2.556,2.556,0,0,1,.13,1.553a2.781,2.781,0,0,1-1.718.506,2.751,2.751,0,0,1-2.087-.807,3.147,3.147,0,0,1-.772-2.265,3.291,3.291,0,0,1,.78-2.34,2.646,2.646,0,0,1,2.023-.833A2.571,2.571,0,0,1,.322-3.37a3.23,3.23,0,0,1,.763,2.295q0,.09-.006.27H-3.4A2.288,2.288,0,0,0-2.836.7a1.666,1.666,0,0,0,1.254.523A1.562,1.562,0,0,0-.627.934,1.953,1.953,0,0,0,0,0M-3.339-1.637H.011A2.015,2.015,0,0,0-.373-2.768a1.562,1.562,0,0,0-1.26-.585,1.62,1.62,0,0,0-1.178.467,1.844,1.844,0,0,0-.528,1.249" transform="translate(1393.525 2482.992)" fill="#20143b"/>
    <path id="Trazado_285" data-name="Trazado 285" d="M0,0H332.22V-123.672H0Z" transform="translate(1260 2524.344)" fill="none"/>
    <path id="Trazado_286" data-name="Trazado 286" d="M139.045-47.676h1.017v8.248h-1.017Z" transform="translate(1260 2524.344)" fill="#20143b"/>
    <path id="Trazado_287" data-name="Trazado 287" d="M0,0A3.777,3.777,0,0,1-1.088.675a3.157,3.157,0,0,1-1.121.2A2.187,2.187,0,0,1-3.729.391,1.584,1.584,0,0,1-4.26-.838a1.637,1.637,0,0,1,.2-.8,1.661,1.661,0,0,1,.526-.582A2.466,2.466,0,0,1-2.8-2.554a7.224,7.224,0,0,1,.9-.152A9.36,9.36,0,0,0-.085-3.055q.006-.208.006-.264a1.114,1.114,0,0,0-.288-.872,1.706,1.706,0,0,0-1.158-.343,1.8,1.8,0,0,0-1.06.25,1.532,1.532,0,0,0-.506.886l-.994-.135A2.448,2.448,0,0,1-3.638-4.56a1.961,1.961,0,0,1,.9-.6,4.038,4.038,0,0,1,1.362-.211,3.615,3.615,0,0,1,1.248.18,1.641,1.641,0,0,1,.706.453,1.586,1.586,0,0,1,.317.689,5.667,5.667,0,0,1,.051.934v1.351A14.135,14.135,0,0,0,1.009.02a2.245,2.245,0,0,0,.257.717H.2A2.149,2.149,0,0,1,0,0M-.085-2.262a7.485,7.485,0,0,1-1.661.383,3.873,3.873,0,0,0-.887.2.881.881,0,0,0-.4.33.86.86,0,0,0-.141.481.858.858,0,0,0,.308.675,1.327,1.327,0,0,0,.9.27A2.109,2.109,0,0,0-.921-.177a1.578,1.578,0,0,0,.672-.7A2.419,2.419,0,0,0-.085-1.89Z" transform="translate(1405.554 2484.179)" fill="#20143b"/>
    <path id="Trazado_288" data-name="Trazado 288" d="M0,0,1.051.129A2.556,2.556,0,0,1,.13,1.553a2.781,2.781,0,0,1-1.718.506,2.755,2.755,0,0,1-2.088-.807,3.147,3.147,0,0,1-.771-2.265,3.291,3.291,0,0,1,.78-2.34,2.646,2.646,0,0,1,2.023-.833A2.571,2.571,0,0,1,.322-3.37a3.23,3.23,0,0,1,.763,2.295q0,.09-.006.27H-3.4A2.288,2.288,0,0,0-2.836.7a1.666,1.666,0,0,0,1.254.523A1.562,1.562,0,0,0-.627.934,1.953,1.953,0,0,0,0,0M-3.339-1.637H.011A2.015,2.015,0,0,0-.373-2.768a1.562,1.562,0,0,0-1.26-.585,1.62,1.62,0,0,0-1.178.467,1.844,1.844,0,0,0-.528,1.249" transform="translate(1415.396 2482.992)" fill="#20143b"/>
    <path id="Trazado_289" data-name="Trazado 289" d="M0,0,2.192-3.105.164-5.975H1.435l.921,1.4c.173.267.313.49.418.67q.249-.372.458-.658L4.243-5.975H5.458L3.385-3.162,5.616,0H4.367L3.136-1.856l-.328-.5L1.232,0Z" transform="translate(1417.046 2484.916)" fill="#20143b"/>
    <path id="Trazado_290" data-name="Trazado 290" d="M0,0,.147.895a3.791,3.791,0,0,1-.768.09A1.748,1.748,0,0,1-1.48.81.977.977,0,0,1-1.91.352a3.643,3.643,0,0,1-.124-1.2V-4.281H-2.78v-.788h.746V-6.548l1.011-.608v2.087H0v.788H-1.023V-.788a1.745,1.745,0,0,0,.054.557.422.422,0,0,0,.175.2A.678.678,0,0,0-.446.039,3.355,3.355,0,0,0,0,0" transform="translate(1425.73 2484.01)" fill="#20143b"/>
    <path id="Trazado_291" data-name="Trazado 291" d="M0,0V-5.975H.915v.906a2.485,2.485,0,0,1,.647-.838,1.136,1.136,0,0,1,.653-.2,1.985,1.985,0,0,1,1.045.327l-.35.939a1.462,1.462,0,0,0-.746-.219.972.972,0,0,0-.6.2,1.082,1.082,0,0,0-.378.555,3.892,3.892,0,0,0-.17,1.181V0Z" transform="translate(1426.713 2484.916)" fill="#20143b"/>
    <path id="Trazado_292" data-name="Trazado 292" d="M0,0,1.051.129A2.556,2.556,0,0,1,.13,1.553a2.781,2.781,0,0,1-1.718.506,2.751,2.751,0,0,1-2.087-.807,3.147,3.147,0,0,1-.772-2.265,3.291,3.291,0,0,1,.78-2.34,2.646,2.646,0,0,1,2.023-.833A2.571,2.571,0,0,1,.322-3.37a3.23,3.23,0,0,1,.763,2.295q0,.09-.006.27H-3.4A2.288,2.288,0,0,0-2.836.7a1.666,1.666,0,0,0,1.254.523A1.562,1.562,0,0,0-.627.934,1.953,1.953,0,0,0,0,0M-3.339-1.637H.011A2.015,2.015,0,0,0-.373-2.768a1.562,1.562,0,0,0-1.26-.585,1.62,1.62,0,0,0-1.178.467,1.844,1.844,0,0,0-.528,1.249" transform="translate(1434.686 2482.992)" fill="#20143b"/>
    <path id="Trazado_293" data-name="Trazado 293" d="M0,0V-5.975H.91v.839a2.122,2.122,0,0,1,.751-.706A2.112,2.112,0,0,1,2.729-6.11a1.978,1.978,0,0,1,1.093.276,1.477,1.477,0,0,1,.6.771A2.155,2.155,0,0,1,6.277-6.11a1.828,1.828,0,0,1,1.373.493A2.1,2.1,0,0,1,8.13-4.1V0H7.119V-3.764a2.762,2.762,0,0,0-.1-.875.851.851,0,0,0-.359-.43,1.119,1.119,0,0,0-.61-.163A1.425,1.425,0,0,0,5-4.813a1.841,1.841,0,0,0-.418,1.342V0H3.565V-3.882a1.7,1.7,0,0,0-.249-1.013A.941.941,0,0,0,2.5-5.232a1.484,1.484,0,0,0-.794.225,1.274,1.274,0,0,0-.528.658A3.7,3.7,0,0,0,1.017-3.1V0Z" transform="translate(1437.013 2484.916)" fill="#20143b"/>
    <path id="Trazado_294" data-name="Trazado 294" d="M0,0H332.22V-123.672H0Z" transform="translate(1260 2524.344)" fill="none"/>
    <path id="Trazado_295" data-name="Trazado 295" d="M186.658-47.676h1.017v1.165h-1.017Zm0,1.165,0,1.108h1.017v5.975h-1.017Z" transform="translate(1260 2524.344)" fill="#20143b"/>
    <path id="Trazado_296" data-name="Trazado 296" d="M0,0V-.754A1.867,1.867,0,0,1-1.678.135,2.356,2.356,0,0,1-3-.259a2.6,2.6,0,0,1-.933-1.1,3.788,3.788,0,0,1-.33-1.623,4.246,4.246,0,0,1,.3-1.623,2.35,2.35,0,0,1,.9-1.116A2.406,2.406,0,0,1-1.723-6.11a2.009,2.009,0,0,1,.966.228,2.021,2.021,0,0,1,.689.594v-2.96H.944V0ZM-3.215-2.982a2.587,2.587,0,0,0,.486,1.716A1.466,1.466,0,0,0-1.582-.7,1.443,1.443,0,0,0-.449-1.24,2.5,2.5,0,0,0,.017-2.9,2.8,2.8,0,0,0-.458-4.7a1.462,1.462,0,0,0-1.169-.573A1.41,1.41,0,0,0-2.76-4.72a2.712,2.712,0,0,0-.455,1.738" transform="translate(1453.116 2484.916)" fill="#20143b"/>
    <path id="Trazado_297" data-name="Trazado 297" d="M0,0A3.777,3.777,0,0,1-1.088.675a3.157,3.157,0,0,1-1.121.2A2.187,2.187,0,0,1-3.729.391,1.584,1.584,0,0,1-4.26-.838a1.637,1.637,0,0,1,.2-.8,1.652,1.652,0,0,1,.526-.582A2.443,2.443,0,0,1-2.8-2.554a7.19,7.19,0,0,1,.9-.152A9.36,9.36,0,0,0-.085-3.055q.006-.208.006-.264a1.114,1.114,0,0,0-.288-.872,1.707,1.707,0,0,0-1.159-.343,1.8,1.8,0,0,0-1.059.25,1.532,1.532,0,0,0-.506.886l-.994-.135A2.447,2.447,0,0,1-3.639-4.56a1.97,1.97,0,0,1,.9-.6,4.032,4.032,0,0,1,1.361-.211,3.617,3.617,0,0,1,1.249.18,1.641,1.641,0,0,1,.706.453,1.6,1.6,0,0,1,.317.689,5.667,5.667,0,0,1,.051.934v1.351A14.135,14.135,0,0,0,1.009.02a2.221,2.221,0,0,0,.257.717H.2A2.149,2.149,0,0,1,0,0M-.085-2.262a7.485,7.485,0,0,1-1.661.383,3.86,3.86,0,0,0-.887.2.881.881,0,0,0-.4.33.86.86,0,0,0-.141.481.858.858,0,0,0,.308.675,1.327,1.327,0,0,0,.9.27A2.109,2.109,0,0,0-.921-.177a1.578,1.578,0,0,0,.672-.7A2.419,2.419,0,0,0-.085-1.89Z" transform="translate(1459.574 2484.179)" fill="#20143b"/>
    <path id="Trazado_298" data-name="Trazado 298" d="M0,0V-.754A1.867,1.867,0,0,1-1.678.135,2.356,2.356,0,0,1-3-.259a2.586,2.586,0,0,1-.932-1.1A3.773,3.773,0,0,1-4.26-2.982a4.227,4.227,0,0,1,.3-1.623,2.348,2.348,0,0,1,.9-1.116A2.406,2.406,0,0,1-1.723-6.11a2.009,2.009,0,0,1,.966.228,2.012,2.012,0,0,1,.689.594v-2.96H.944V0ZM-3.215-2.982a2.587,2.587,0,0,0,.486,1.716A1.466,1.466,0,0,0-1.582-.7,1.443,1.443,0,0,0-.449-1.24,2.5,2.5,0,0,0,.017-2.9,2.8,2.8,0,0,0-.458-4.7a1.462,1.462,0,0,0-1.169-.573A1.41,1.41,0,0,0-2.76-4.72a2.712,2.712,0,0,0-.455,1.738" transform="translate(1465.987 2484.916)" fill="#20143b"/>
    <path id="Trazado_299" data-name="Trazado 299" d="M0,0H332.22V-123.672H0Z" transform="translate(1260 2524.344)" fill="none"/>
    <path id="Trazado_300" data-name="Trazado 300" d="M211.75-47.676h1.017v1.165H211.75Zm0,1.165,0,1.108h1.017v5.975H211.75Z" transform="translate(1260 2524.344)" fill="#20143b"/>
    <path id="Trazado_301" data-name="Trazado 301" d="M0,0V-5.975H.915v.85a2.161,2.161,0,0,1,1.91-.985,2.518,2.518,0,0,1,1,.194,1.578,1.578,0,0,1,.681.51,1.938,1.938,0,0,1,.316.748,5.719,5.719,0,0,1,.057.984V0H3.859V-3.634A2.722,2.722,0,0,0,3.74-4.56a.973.973,0,0,0-.421-.489,1.341,1.341,0,0,0-.709-.183,1.649,1.649,0,0,0-1.121.411,2.017,2.017,0,0,0-.472,1.558V0Z" transform="translate(1474.315 2484.916)" fill="#20143b"/>
    <path id="Trazado_302" data-name="Trazado 302" d="M0,0V-5.187H-.9v-.788H0V-6.61a2.791,2.791,0,0,1,.107-.895,1.3,1.3,0,0,1,.517-.638,1.865,1.865,0,0,1,1.037-.245,5.034,5.034,0,0,1,.949.1L2.458-7.4a3.48,3.48,0,0,0-.6-.056.9.9,0,0,0-.656.2,1.064,1.064,0,0,0-.192.737v.551h1.17v.788H1.011V0Z" transform="translate(1480.993 2484.916)" fill="#20143b"/>
    <path id="Trazado_303" data-name="Trazado 303" d="M0,0,1.051.129A2.556,2.556,0,0,1,.13,1.553a2.781,2.781,0,0,1-1.718.506,2.755,2.755,0,0,1-2.088-.807,3.147,3.147,0,0,1-.771-2.265,3.291,3.291,0,0,1,.78-2.34,2.646,2.646,0,0,1,2.023-.833A2.571,2.571,0,0,1,.322-3.37a3.235,3.235,0,0,1,.763,2.295q0,.09-.006.27H-3.4A2.288,2.288,0,0,0-2.836.7a1.666,1.666,0,0,0,1.254.523A1.562,1.562,0,0,0-.627.934,1.953,1.953,0,0,0,0,0M-3.339-1.637H.011A2.015,2.015,0,0,0-.373-2.768a1.562,1.562,0,0,0-1.26-.585,1.62,1.62,0,0,0-1.178.467,1.844,1.844,0,0,0-.528,1.249" transform="translate(1488.073 2482.992)" fill="#20143b"/>
    <path id="Trazado_304" data-name="Trazado 304" d="M0,0V-5.975H.915v.906a2.485,2.485,0,0,1,.647-.838,1.136,1.136,0,0,1,.653-.2,1.985,1.985,0,0,1,1.045.327l-.35.939a1.462,1.462,0,0,0-.746-.219.972.972,0,0,0-.6.2,1.082,1.082,0,0,0-.378.555,3.892,3.892,0,0,0-.17,1.181V0Z" transform="translate(1490.389 2484.916)" fill="#20143b"/>
    <path id="Trazado_305" data-name="Trazado 305" d="M0,0H332.22V-123.672H0Z" transform="translate(1260 2524.344)" fill="none"/>
    <path id="Trazado_306" data-name="Trazado 306" d="M234.26-47.676h1.017v1.165H234.26Zm0,1.165,0,1.108h1.017v5.975H234.26Z" transform="translate(1260 2524.344)" fill="#20143b"/>
    <path id="Trazado_307" data-name="Trazado 307" d="M0,0A3.07,3.07,0,0,1,.927-2.458a2.8,2.8,0,0,1,1.887-.664,2.7,2.7,0,0,1,2.022.807A3.062,3.062,0,0,1,5.622-.084,3.935,3.935,0,0,1,5.274,1.73,2.453,2.453,0,0,1,4.263,2.757a2.964,2.964,0,0,1-1.449.365,2.7,2.7,0,0,1-2.037-.8A3.206,3.206,0,0,1,0,0M1.045,0a2.54,2.54,0,0,0,.5,1.719,1.617,1.617,0,0,0,1.266.571,1.6,1.6,0,0,0,1.259-.574,2.6,2.6,0,0,0,.5-1.75,2.461,2.461,0,0,0-.505-1.679,1.61,1.61,0,0,0-1.257-.571,1.617,1.617,0,0,0-1.266.568A2.528,2.528,0,0,0,1.045,0" transform="translate(1496.446 2481.928)" fill="#20143b"/>
    <path id="Trazado_308" data-name="Trazado 308" d="M0,0V-5.975H.915v.906a2.485,2.485,0,0,1,.647-.838,1.136,1.136,0,0,1,.653-.2,1.985,1.985,0,0,1,1.045.327l-.35.939a1.462,1.462,0,0,0-.746-.219.972.972,0,0,0-.6.2,1.082,1.082,0,0,0-.378.555,3.892,3.892,0,0,0-.17,1.181V0Z" transform="translate(1503.249 2484.916)" fill="#20143b"/>
    <path id="Trazado_309" data-name="Trazado 309" d="M0,0A10.12,10.12,0,0,1-1.424-2.475a7.665,7.665,0,0,1-.582-2.937,7.621,7.621,0,0,1,.435-2.566A10.781,10.781,0,0,1,0-10.813H.729q-.684,1.17-.9,1.671a9.1,9.1,0,0,0-.543,1.62A9.378,9.378,0,0,0-.96-5.406,10.121,10.121,0,0,0,.729,0Z" transform="translate(1512.272 2487.341)" fill="#20143b"/>
    <path id="Trazado_310" data-name="Trazado 310" d="M0,0H332.22V-123.672H0Z" transform="translate(1260 2524.344)" fill="none"/>
    <path id="Trazado_311" data-name="Trazado 311" d="M0,0V-8.248H1.124L5.475-1.772V-8.248H6.526V0H5.4L1.051-6.481V0Z" transform="translate(1514.3 2484.916)" fill="#20143b"/>
    <path id="Trazado_312" data-name="Trazado 312" d="M262.543-47.676h1.017v1.165h-1.017Zm0,1.165,0,1.108h1.017v5.975h-1.017Z" transform="translate(1260 2524.344)" fill="#20143b"/>
    <path id="Trazado_313" data-name="Trazado 313" d="M0,0-2.283-5.975h1.074L.079-2.4q.208.581.384,1.2Q.6-1.666.842-2.329L2.175-5.975H3.22L.949,0Z" transform="translate(1526.775 2484.916)" fill="#20143b"/>
    <path id="Trazado_314" data-name="Trazado 314" d="M0,0,1.051.129A2.556,2.556,0,0,1,.13,1.553a2.781,2.781,0,0,1-1.718.506,2.751,2.751,0,0,1-2.087-.807,3.147,3.147,0,0,1-.772-2.265,3.291,3.291,0,0,1,.78-2.34,2.646,2.646,0,0,1,2.023-.833A2.571,2.571,0,0,1,.322-3.37a3.23,3.23,0,0,1,.763,2.295q0,.09-.006.27H-3.4A2.288,2.288,0,0,0-2.836.7a1.666,1.666,0,0,0,1.254.523A1.562,1.562,0,0,0-.627.934,1.946,1.946,0,0,0,0,0M-3.339-1.637H.011A2.015,2.015,0,0,0-.373-2.768a1.562,1.562,0,0,0-1.26-.585,1.62,1.62,0,0,0-1.178.467,1.844,1.844,0,0,0-.528,1.249" transform="translate(1535.002 2482.992)" fill="#20143b"/>
    <path id="Trazado_315" data-name="Trazado 315" d="M0,0H332.22V-123.672H0Z" transform="translate(1260 2524.344)" fill="none"/>
    <path id="Trazado_316" data-name="Trazado 316" d="M277.307-47.676h1.017v8.248h-1.017Z" transform="translate(1260 2524.344)" fill="#20143b"/>
    <path id="Trazado_317" data-name="Trazado 317" d="M0,0V.973H-5.474a1.786,1.786,0,0,1,.119-.7,3.71,3.71,0,0,1,.669-1.1A10.45,10.45,0,0,1-3.355-2.076,11.2,11.2,0,0,0-1.531-3.823a2.081,2.081,0,0,0,.475-1.218,1.347,1.347,0,0,0-.433-1.015A1.559,1.559,0,0,0-2.615-6.47a1.6,1.6,0,0,0-1.176.439,1.662,1.662,0,0,0-.446,1.215l-1.045-.107A2.56,2.56,0,0,1-4.474-6.7a2.767,2.767,0,0,1,1.881-.61A2.63,2.63,0,0,1-.706-6.65,2.159,2.159,0,0,1-.011-5.018a2.459,2.459,0,0,1-.2.973A3.753,3.753,0,0,1-.89-3.038,16.463,16.463,0,0,1-2.457-1.586q-.915.765-1.175,1.038A3.3,3.3,0,0,0-4.062,0Z" transform="translate(1548.177 2483.942)" fill="#20143b"/>
    <path id="Trazado_318" data-name="Trazado 318" d="M0,0H-.729A10.121,10.121,0,0,0,.96-5.406a9.255,9.255,0,0,0-.242-2.1,8.82,8.82,0,0,0-.537-1.62,18.9,18.9,0,0,0-.91-1.688H0A10.781,10.781,0,0,1,1.571-7.978a7.621,7.621,0,0,1,.435,2.566,7.631,7.631,0,0,1-.585,2.937A10.31,10.31,0,0,1,0,0" transform="translate(1550.217 2487.341)" fill="#20143b"/>
    <path id="Trazado_319" data-name="Trazado 319" d="M0,0H332.22V-123.672H0Z" transform="translate(1260 2524.344)" fill="none"/>
    <path id="Trazado_320" data-name="Trazado 320" d="M0,0V-8.248H6.142v1.4H1.672v1.828H5.831v1.39H1.672V-1.39H6.3V0Z" transform="translate(1321.329 2512.569)" fill="#20143b"/>
    <path id="Trazado_321" data-name="Trazado 321" d="M0,0,1.594-.242a1.157,1.157,0,0,0,.412.7,1.4,1.4,0,0,0,.87.24A1.573,1.573,0,0,0,3.8.473a.5.5,0,0,0,.21-.422.418.418,0,0,0-.113-.3,1.27,1.27,0,0,0-.532-.208,8.615,8.615,0,0,1-2.435-.77A1.54,1.54,0,0,1,.22-2.571a1.654,1.654,0,0,1,.616-1.3,2.885,2.885,0,0,1,1.91-.529,3.35,3.35,0,0,1,1.831.4A2.049,2.049,0,0,1,5.4-2.824l-1.5.276a.921.921,0,0,0-.364-.535,1.336,1.336,0,0,0-.766-.186,1.732,1.732,0,0,0-.9.175.372.372,0,0,0-.181.32.348.348,0,0,0,.158.287,5.958,5.958,0,0,0,1.483.445,4.436,4.436,0,0,1,1.772.7,1.459,1.459,0,0,1,.5,1.176,1.8,1.8,0,0,1-.689,1.412,3.061,3.061,0,0,1-2.04.591,3.361,3.361,0,0,1-1.941-.5A2.285,2.285,0,0,1,0,0" transform="translate(1328.476 2510.864)" fill="#20143b"/>
    <path id="Trazado_322" data-name="Trazado 322" d="M0,0V1.26H-1.085V3.668a6.055,6.055,0,0,0,.031.851.347.347,0,0,0,.142.2A.443.443,0,0,0-.644,4.8a2.063,2.063,0,0,0,.638-.152L.13,5.873a3.158,3.158,0,0,1-1.254.237A1.985,1.985,0,0,1-1.9,5.965,1.121,1.121,0,0,1-2.4,5.594a1.455,1.455,0,0,1-.223-.615,7.61,7.61,0,0,1-.051-1.114V1.26h-.729V0h.729V-1.187l1.593-.923V0Z" transform="translate(1338.223 2506.594)" fill="#20143b"/>
    <path id="Trazado_323" data-name="Trazado 323" d="M0,0H-1.588V-5.975H-.113v.85a2.542,2.542,0,0,1,.681-.793,1.253,1.253,0,0,1,.686-.192,2.032,2.032,0,0,1,1.046.3L1.808-4.433a1.392,1.392,0,0,0-.746-.259A.884.884,0,0,0,.5-4.51a1.251,1.251,0,0,0-.364.662,9.313,9.313,0,0,0-.133,2Z" transform="translate(1340.844 2512.569)" fill="#20143b"/>
    <path id="Trazado_324" data-name="Trazado 324" d="M0,0V-.895a2.306,2.306,0,0,1-.862.754A2.419,2.419,0,0,1-1.989.135,2.211,2.211,0,0,1-3.073-.129a1.569,1.569,0,0,1-.7-.743,3.307,3.307,0,0,1-.214-1.322V-5.975H-2.4v2.746a7.58,7.58,0,0,0,.088,1.543.837.837,0,0,0,.319.45.985.985,0,0,0,.588.167,1.256,1.256,0,0,0,.729-.223,1.131,1.131,0,0,0,.44-.552,6.352,6.352,0,0,0,.119-1.61V-5.975H1.475V0Z" transform="translate(1347.777 2512.569)" fill="#20143b"/>
    <path id="Trazado_325" data-name="Trazado 325" d="M0,0-1.565.281a1.134,1.134,0,0,0-.359-.7A1.087,1.087,0,0,0-2.65-.658,1.187,1.187,0,0,0-3.6-.251a2.082,2.082,0,0,0-.353,1.365,2.412,2.412,0,0,0,.358,1.5,1.18,1.18,0,0,0,.964.439,1.072,1.072,0,0,0,.74-.257,1.541,1.541,0,0,0,.407-.88l1.559.265A2.75,2.75,0,0,1-.853,3.8,2.9,2.9,0,0,1-2.7,4.343a2.752,2.752,0,0,1-2.1-.827,3.2,3.2,0,0,1-.782-2.29,3.2,3.2,0,0,1,.785-2.3A2.794,2.794,0,0,1-2.673-1.9a2.913,2.913,0,0,1,1.744.468A2.6,2.6,0,0,1,0,0" transform="translate(1356.128 2508.361)" fill="#20143b"/>
    <path id="Trazado_326" data-name="Trazado 326" d="M0,0V1.26H-1.085V3.668a6.055,6.055,0,0,0,.031.851.35.35,0,0,0,.141.2A.448.448,0,0,0-.644,4.8a2.063,2.063,0,0,0,.638-.152L.13,5.873a3.159,3.159,0,0,1-1.255.237A1.983,1.983,0,0,1-1.9,5.965,1.121,1.121,0,0,1-2.4,5.594a1.455,1.455,0,0,1-.223-.615,7.61,7.61,0,0,1-.051-1.114V1.26h-.729V0h.729V-1.187l1.593-.923V0Z" transform="translate(1360.083 2506.594)" fill="#20143b"/>
    <path id="Trazado_327" data-name="Trazado 327" d="M0,0V-.895a2.306,2.306,0,0,1-.862.754A2.419,2.419,0,0,1-1.989.135,2.217,2.217,0,0,1-3.074-.129a1.572,1.572,0,0,1-.7-.743,3.307,3.307,0,0,1-.214-1.322V-5.975H-2.4v2.746a7.58,7.58,0,0,0,.088,1.543.837.837,0,0,0,.319.45.985.985,0,0,0,.588.167,1.256,1.256,0,0,0,.729-.223,1.131,1.131,0,0,0,.44-.552,6.352,6.352,0,0,0,.119-1.61V-5.975H1.475V0Z" transform="translate(1365.134 2512.569)" fill="#20143b"/>
    <path id="Trazado_328" data-name="Trazado 328" d="M0,0H-1.588V-5.975H-.113v.85a2.542,2.542,0,0,1,.681-.793,1.25,1.25,0,0,1,.686-.192,2.032,2.032,0,0,1,1.046.3L1.808-4.433a1.392,1.392,0,0,0-.746-.259A.884.884,0,0,0,.5-4.51a1.251,1.251,0,0,0-.364.662,9.313,9.313,0,0,0-.133,2Z" transform="translate(1369.772 2512.569)" fill="#20143b"/>
    <path id="Trazado_329" data-name="Trazado 329" d="M0,0-1.441-.259A2.237,2.237,0,0,1-.6-1.542a3.072,3.072,0,0,1,1.762-.416,3.812,3.812,0,0,1,1.582.25,1.567,1.567,0,0,1,.732.635A3.258,3.258,0,0,1,3.684.343L3.667,2.188a6.352,6.352,0,0,0,.076,1.161,3.363,3.363,0,0,0,.286.8H2.458q-.063-.158-.153-.467c-.026-.094-.045-.156-.056-.186a2.858,2.858,0,0,1-.87.591,2.509,2.509,0,0,1-.989.2,2.05,2.05,0,0,1-1.461-.5A1.658,1.658,0,0,1-1.6,2.52a1.693,1.693,0,0,1,.242-.9,1.585,1.585,0,0,1,.681-.608A5.326,5.326,0,0,1,.582.641,8.645,8.645,0,0,0,2.125.253V.1A.818.818,0,0,0,1.9-.555a1.361,1.361,0,0,0-.853-.193,1.138,1.138,0,0,0-.661.165A1.157,1.157,0,0,0,0,0M2.125,1.283q-.306.1-.967.242A2.9,2.9,0,0,0,.294,1.8a.66.66,0,0,0-.311.557.772.772,0,0,0,.249.574.869.869,0,0,0,.633.242,1.382,1.382,0,0,0,.819-.281.991.991,0,0,0,.378-.523A3.07,3.07,0,0,0,2.125,1.6Z" transform="translate(1373.942 2508.417)" fill="#20143b"/>
    <path id="Trazado_330" data-name="Trazado 330" d="M0,0H-1.475V-.878a2.368,2.368,0,0,1-.867.762A2.229,2.229,0,0,1-3.35.135,2.292,2.292,0,0,1-5.122-.7,3.366,3.366,0,0,1-5.859-3.01a3.325,3.325,0,0,1,.718-2.31,2.341,2.341,0,0,1,1.813-.79,2.249,2.249,0,0,1,1.74.833V-8.248H0ZM-4.238-3.117a2.725,2.725,0,0,0,.266,1.384A1.2,1.2,0,0,0-2.9-1.114a1.172,1.172,0,0,0,.932-.465,2.133,2.133,0,0,0,.384-1.386,2.337,2.337,0,0,0-.373-1.483A1.18,1.18,0,0,0-2.91-4.9a1.194,1.194,0,0,0-.946.446,2.019,2.019,0,0,0-.382,1.337" transform="translate(1387.909 2512.569)" fill="#20143b"/>
    <path id="Trazado_331" data-name="Trazado 331" d="M0,0,1.582.264A2.59,2.59,0,0,1,.619,1.583a2.84,2.84,0,0,1-1.647.454A2.689,2.689,0,0,1-3.344,1.018a3.414,3.414,0,0,1-.593-2.059,3.292,3.292,0,0,1,.78-2.327,2.568,2.568,0,0,1,1.971-.84,2.668,2.668,0,0,1,2.113.879,3.9,3.9,0,0,1,.74,2.7H-2.31A1.588,1.588,0,0,0-1.926.463a1.2,1.2,0,0,0,.915.392.973.973,0,0,0,.627-.2A1.25,1.25,0,0,0,0,0M.091-1.6A1.528,1.528,0,0,0-.265-2.642,1.1,1.1,0,0,0-1.09-3a1.106,1.106,0,0,0-.859.377A1.455,1.455,0,0,0-2.282-1.6Z" transform="translate(1392.948 2510.667)" fill="#20143b"/>
    <path id="Trazado_332" data-name="Trazado 332" d="M0,0H332.22V-123.672H0Z" transform="translate(1260 2524.344)" fill="none"/>
    <path id="Trazado_333" data-name="Trazado 333" d="M139.124-20.023h1.588v8.248h-1.588Z" transform="translate(1260 2524.344)" fill="#20143b"/>
    <path id="Trazado_334" data-name="Trazado 334" d="M0,0-1.441-.259A2.237,2.237,0,0,1-.6-1.542a3.072,3.072,0,0,1,1.762-.416,3.812,3.812,0,0,1,1.582.25,1.567,1.567,0,0,1,.732.635A3.258,3.258,0,0,1,3.684.343L3.667,2.188a6.352,6.352,0,0,0,.076,1.161,3.363,3.363,0,0,0,.286.8H2.458q-.063-.158-.153-.467c-.026-.094-.045-.156-.056-.186a2.858,2.858,0,0,1-.87.591,2.509,2.509,0,0,1-.989.2,2.05,2.05,0,0,1-1.461-.5A1.658,1.658,0,0,1-1.6,2.52a1.693,1.693,0,0,1,.242-.9,1.585,1.585,0,0,1,.681-.608A5.326,5.326,0,0,1,.582.641,8.645,8.645,0,0,0,2.125.253V.1A.818.818,0,0,0,1.9-.555a1.361,1.361,0,0,0-.853-.193,1.138,1.138,0,0,0-.661.165A1.157,1.157,0,0,0,0,0M2.125,1.283q-.306.1-.967.242A2.9,2.9,0,0,0,.294,1.8a.66.66,0,0,0-.311.557.772.772,0,0,0,.249.574.869.869,0,0,0,.633.242,1.382,1.382,0,0,0,.819-.281.991.991,0,0,0,.378-.523A3.07,3.07,0,0,0,2.125,1.6Z" transform="translate(1403.526 2508.417)" fill="#20143b"/>
    <path id="Trazado_335" data-name="Trazado 335" d="M0,0H1.48V.878A2.223,2.223,0,0,1,2.26.146,2.162,2.162,0,0,1,3.351-.135,2.293,2.293,0,0,1,5.125.681a3.292,3.292,0,0,1,.729,2.273,3.388,3.388,0,0,1-.735,2.325,2.3,2.3,0,0,1-1.78.831,2.036,2.036,0,0,1-.9-.2,3.04,3.04,0,0,1-.85-.675v3.01H0ZM1.571,2.886a2.3,2.3,0,0,0,.4,1.487,1.229,1.229,0,0,0,.977.482,1.15,1.15,0,0,0,.921-.442,2.266,2.266,0,0,0,.368-1.448A2.148,2.148,0,0,0,3.859,1.57a1.172,1.172,0,0,0-.938-.456,1.219,1.219,0,0,0-.966.446,1.989,1.989,0,0,0-.384,1.326" transform="translate(1411.944 2506.594)" fill="#20143b"/>
    <path id="Trazado_336" data-name="Trazado 336" d="M0,0H332.22V-123.672H0Z" transform="translate(1260 2524.344)" fill="none"/>
    <path id="Trazado_337" data-name="Trazado 337" d="M159.058-20.023h1.588v1.463h-1.588Zm0,1.463,0,.81h1.588v5.975h-1.588Z" transform="translate(1260 2524.344)" fill="#20143b"/>
    <path id="Trazado_338" data-name="Trazado 338" d="M0,0,1.582.264A2.586,2.586,0,0,1,.618,1.583a2.834,2.834,0,0,1-1.646.454A2.689,2.689,0,0,1-3.344,1.018a3.407,3.407,0,0,1-.593-2.059,3.3,3.3,0,0,1,.779-2.327,2.571,2.571,0,0,1,1.972-.84,2.666,2.666,0,0,1,2.112.879,3.885,3.885,0,0,1,.74,2.7H-2.31A1.588,1.588,0,0,0-1.926.463a1.2,1.2,0,0,0,.915.392.976.976,0,0,0,.627-.2A1.257,1.257,0,0,0,0,0M.09-1.6A1.518,1.518,0,0,0-.266-2.642,1.091,1.091,0,0,0-1.09-3a1.106,1.106,0,0,0-.859.377A1.455,1.455,0,0,0-2.282-1.6Z" transform="translate(1425.746 2510.667)" fill="#20143b"/>
    <path id="Trazado_339" data-name="Trazado 339" d="M0,0H-1.588V-5.975H-.113v.85a2.542,2.542,0,0,1,.681-.793,1.25,1.25,0,0,1,.686-.192,2.032,2.032,0,0,1,1.046.3L1.808-4.433a1.392,1.392,0,0,0-.746-.259A.884.884,0,0,0,.5-4.51a1.251,1.251,0,0,0-.364.662,9.313,9.313,0,0,0-.133,2Z" transform="translate(1430.228 2512.569)" fill="#20143b"/>
    <path id="Trazado_340" data-name="Trazado 340" d="M0,0H-1.588V-3.049a4.75,4.75,0,0,0-.1-1.253.878.878,0,0,0-.331-.441A.948.948,0,0,0-2.571-4.9a1.275,1.275,0,0,0-.74.225,1.133,1.133,0,0,0-.449.6,5.129,5.129,0,0,0-.122,1.373V0H-5.469V-5.975h1.474V-5.1A2.408,2.408,0,0,1-2.017-6.11a2.383,2.383,0,0,1,.96.188A1.609,1.609,0,0,1-.4-5.44a1.741,1.741,0,0,1,.31.664A4.869,4.869,0,0,1,0-3.713Z" transform="translate(1438.669 2512.569)" fill="#20143b"/>
    <path id="Trazado_341" data-name="Trazado 341" d="M0,0-1.441-.259A2.237,2.237,0,0,1-.6-1.542a3.072,3.072,0,0,1,1.762-.416,3.812,3.812,0,0,1,1.582.25,1.567,1.567,0,0,1,.732.635A3.258,3.258,0,0,1,3.684.343L3.667,2.188a6.352,6.352,0,0,0,.076,1.161,3.363,3.363,0,0,0,.286.8H2.458q-.063-.158-.153-.467c-.026-.094-.045-.156-.056-.186a2.858,2.858,0,0,1-.87.591,2.509,2.509,0,0,1-.989.2,2.05,2.05,0,0,1-1.461-.5A1.658,1.658,0,0,1-1.6,2.52a1.693,1.693,0,0,1,.242-.9,1.585,1.585,0,0,1,.681-.608A5.326,5.326,0,0,1,.582.641,8.645,8.645,0,0,0,2.125.253V.1A.818.818,0,0,0,1.9-.555a1.361,1.361,0,0,0-.853-.193,1.138,1.138,0,0,0-.661.165A1.157,1.157,0,0,0,0,0M2.125,1.283q-.306.1-.967.242A2.9,2.9,0,0,0,.294,1.8a.66.66,0,0,0-.311.557.772.772,0,0,0,.249.574.869.869,0,0,0,.633.242,1.382,1.382,0,0,0,.819-.281.991.991,0,0,0,.378-.523A3.07,3.07,0,0,0,2.125,1.6Z" transform="translate(1441.466 2508.417)" fill="#20143b"/>
    <path id="Trazado_342" data-name="Trazado 342" d="M0,0A10.12,10.12,0,0,1-1.424-2.475a7.665,7.665,0,0,1-.582-2.937,7.621,7.621,0,0,1,.435-2.566A10.781,10.781,0,0,1,0-10.813H.729q-.684,1.17-.9,1.671a9.1,9.1,0,0,0-.543,1.62A9.378,9.378,0,0,0-.96-5.406,10.121,10.121,0,0,0,.729,0Z" transform="translate(1451.805 2514.994)" fill="#20143b"/>
    <path id="Trazado_343" data-name="Trazado 343" d="M0,0H332.22V-123.672H0Z" transform="translate(1260 2524.344)" fill="none"/>
    <path id="Trazado_344" data-name="Trazado 344" d="M0,0V-8.248H1.124L5.475-1.772V-8.248H6.526V0H5.4L1.051-6.481V0Z" transform="translate(1453.833 2512.569)" fill="#20143b"/>
    <path id="Trazado_345" data-name="Trazado 345" d="M202.077-20.023h1.017v1.165h-1.017Zm0,1.165,0,1.108h1.017v5.975h-1.017Z" transform="translate(1260 2524.344)" fill="#20143b"/>
    <path id="Trazado_346" data-name="Trazado 346" d="M0,0-2.283-5.975h1.074L.079-2.4q.208.581.384,1.2Q.6-1.666.842-2.329L2.175-5.975H3.22L.949,0Z" transform="translate(1466.309 2512.569)" fill="#20143b"/>
    <path id="Trazado_347" data-name="Trazado 347" d="M0,0,1.051.129A2.556,2.556,0,0,1,.13,1.553a2.781,2.781,0,0,1-1.718.506,2.751,2.751,0,0,1-2.087-.808,3.145,3.145,0,0,1-.772-2.264,3.291,3.291,0,0,1,.78-2.34,2.646,2.646,0,0,1,2.023-.833A2.571,2.571,0,0,1,.322-3.37a3.23,3.23,0,0,1,.763,2.295q0,.09-.006.27H-3.4A2.288,2.288,0,0,0-2.836.7a1.666,1.666,0,0,0,1.254.523A1.562,1.562,0,0,0-.627.934,1.941,1.941,0,0,0,0,0M-3.339-1.637H.011A2.015,2.015,0,0,0-.373-2.768a1.562,1.562,0,0,0-1.26-.585,1.62,1.62,0,0,0-1.178.467,1.846,1.846,0,0,0-.528,1.249" transform="translate(1474.535 2510.645)" fill="#20143b"/>
    <path id="Trazado_348" data-name="Trazado 348" d="M0,0H332.22V-123.672H0Z" transform="translate(1260 2524.344)" fill="none"/>
    <path id="Trazado_349" data-name="Trazado 349" d="M216.84-20.023h1.017v8.248H216.84Z" transform="translate(1260 2524.344)" fill="#20143b"/>
    <path id="Trazado_350" data-name="Trazado 350" d="M0,0,1.017-.135a2.227,2.227,0,0,0,.6,1.239,1.473,1.473,0,0,0,1.025.381A1.645,1.645,0,0,0,3.85.99,1.666,1.666,0,0,0,4.345-.236a1.554,1.554,0,0,0-.458-1.152A1.584,1.584,0,0,0,2.723-1.84a2.931,2.931,0,0,0-.717.113l.113-.889c.068.007.122.011.163.011a2.1,2.1,0,0,0,1.17-.337,1.153,1.153,0,0,0,.52-1.041,1.228,1.228,0,0,0-.379-.923,1.346,1.346,0,0,0-.977-.365,1.387,1.387,0,0,0-.989.371,1.861,1.861,0,0,0-.508,1.114L.1-3.966A2.6,2.6,0,0,1,.949-5.545,2.458,2.458,0,0,1,2.593-6.1a2.723,2.723,0,0,1,1.249.289,2.106,2.106,0,0,1,.873.791,2.019,2.019,0,0,1,.3,1.063,1.738,1.738,0,0,1-.288.974,1.968,1.968,0,0,1-.853.7,1.923,1.923,0,0,1,1.141.7A2.129,2.129,0,0,1,5.424-.259a2.431,2.431,0,0,1-.791,1.831,2.791,2.791,0,0,1-2,.751A2.609,2.609,0,0,1,.822,1.677,2.5,2.5,0,0,1,0,0" transform="translate(1482.372 2510.392)" fill="#20143b"/>
    <path id="Trazado_351" data-name="Trazado 351" d="M0,0H-.729A10.121,10.121,0,0,0,.96-5.406a9.255,9.255,0,0,0-.242-2.1,8.82,8.82,0,0,0-.537-1.62,18.9,18.9,0,0,0-.91-1.688H0A10.781,10.781,0,0,1,1.571-7.978a7.621,7.621,0,0,1,.435,2.566,7.631,7.631,0,0,1-.585,2.937A10.31,10.31,0,0,1,0,0" transform="translate(1489.751 2514.994)" fill="#20143b"/>
    <path id="Trazado_352" data-name="Trazado 352" d="M0,0,1.006-.158a1.4,1.4,0,0,0,.471.923,1.649,1.649,0,0,0,1.082.321A1.6,1.6,0,0,0,3.6.8.85.85,0,0,0,3.938.135a.613.613,0,0,0-.3-.54A4.418,4.418,0,0,0,2.6-.748a9.534,9.534,0,0,1-1.551-.487A1.5,1.5,0,0,1,.393-1.8a1.5,1.5,0,0,1-.224-.8,1.54,1.54,0,0,1,.184-.74,1.634,1.634,0,0,1,.5-.565A2.091,2.091,0,0,1,1.5-4.2a3.077,3.077,0,0,1,.879-.121,3.49,3.49,0,0,1,1.24.2,1.686,1.686,0,0,1,.788.549,2.14,2.14,0,0,1,.35.925l-.994.135a1.082,1.082,0,0,0-.393-.72,1.443,1.443,0,0,0-.918-.259,1.667,1.667,0,0,0-1,.231.67.67,0,0,0-.3.54.556.556,0,0,0,.124.354.894.894,0,0,0,.39.27c.1.038.4.124.9.259a12.724,12.724,0,0,1,1.506.47,1.526,1.526,0,0,1,.669.532,1.477,1.477,0,0,1,.243.866,1.7,1.7,0,0,1-.3.954,1.923,1.923,0,0,1-.856.692,3.132,3.132,0,0,1-1.266.244A2.833,2.833,0,0,1,.782,1.435,2.252,2.252,0,0,1,0,0" transform="translate(1269.551 2414.001)" fill="#20143b"/>
    <path id="Trazado_353" data-name="Trazado 353" d="M0,0,1.006-.157a1.4,1.4,0,0,0,.471.922,1.649,1.649,0,0,0,1.082.321A1.6,1.6,0,0,0,3.6.8.848.848,0,0,0,3.938.135a.613.613,0,0,0-.3-.54A4.418,4.418,0,0,0,2.6-.748a9.509,9.509,0,0,1-1.551-.488A1.5,1.5,0,0,1,.393-1.8a1.5,1.5,0,0,1-.224-.8,1.538,1.538,0,0,1,.184-.74,1.634,1.634,0,0,1,.5-.565,2.091,2.091,0,0,1,.647-.3,3.077,3.077,0,0,1,.879-.12,3.49,3.49,0,0,1,1.24.2,1.685,1.685,0,0,1,.788.548,2.15,2.15,0,0,1,.35.926l-.994.135a1.082,1.082,0,0,0-.393-.72,1.443,1.443,0,0,0-.918-.259,1.667,1.667,0,0,0-1,.231.67.67,0,0,0-.3.54.556.556,0,0,0,.124.354.9.9,0,0,0,.39.271c.1.037.4.123.9.258a12.773,12.773,0,0,1,1.506.469,1.527,1.527,0,0,1,.669.533,1.477,1.477,0,0,1,.243.866,1.7,1.7,0,0,1-.3.953,1.917,1.917,0,0,1-.856.692,3.132,3.132,0,0,1-1.266.245A2.833,2.833,0,0,1,.782,1.435,2.252,2.252,0,0,1,0,0" transform="translate(1269.551 2441.654)" fill="#20143b"/>
    <path id="Trazado_354" data-name="Trazado 354" d="M0,0V-.973H5.362v.787A11.286,11.286,0,0,0,3.794,2.042,13.515,13.515,0,0,0,2.594,4.9,10.514,10.514,0,0,0,2.2,7.167H1.158a10.15,10.15,0,0,1,.384-2.351A12.359,12.359,0,0,1,2.6,2.157,11.379,11.379,0,0,1,4.057,0Z" transform="translate(1275.528 2436.27)" fill="#20143b"/>
    <path id="Trazado_355" data-name="Trazado 355" d="M0,0,1.006-.158a1.4,1.4,0,0,0,.471.923,1.649,1.649,0,0,0,1.082.321A1.6,1.6,0,0,0,3.6.8.85.85,0,0,0,3.938.135a.613.613,0,0,0-.3-.54A4.418,4.418,0,0,0,2.6-.748a9.534,9.534,0,0,1-1.551-.487A1.5,1.5,0,0,1,.393-1.8a1.5,1.5,0,0,1-.224-.8,1.54,1.54,0,0,1,.184-.74,1.634,1.634,0,0,1,.5-.565A2.091,2.091,0,0,1,1.5-4.2a3.077,3.077,0,0,1,.879-.121,3.49,3.49,0,0,1,1.24.2,1.686,1.686,0,0,1,.788.549,2.14,2.14,0,0,1,.35.925l-.994.135a1.082,1.082,0,0,0-.393-.72,1.443,1.443,0,0,0-.918-.259,1.667,1.667,0,0,0-1,.231.67.67,0,0,0-.3.54.556.556,0,0,0,.124.354.894.894,0,0,0,.39.27c.1.038.4.124.9.259a12.724,12.724,0,0,1,1.506.47,1.526,1.526,0,0,1,.669.532,1.477,1.477,0,0,1,.243.866,1.7,1.7,0,0,1-.3.954,1.923,1.923,0,0,1-.856.692,3.132,3.132,0,0,1-1.266.244A2.833,2.833,0,0,1,.782,1.435,2.252,2.252,0,0,1,0,0" transform="translate(1269.551 2483.132)" fill="#20143b"/>
    <path id="Trazado_356" data-name="Trazado 356" d="M0,0V-.973H5.362v.787A11.286,11.286,0,0,0,3.794,2.042,13.515,13.515,0,0,0,2.594,4.9,10.514,10.514,0,0,0,2.2,7.167H1.158a10.15,10.15,0,0,1,.384-2.351A12.351,12.351,0,0,1,2.6,2.158,11.389,11.389,0,0,1,4.057,0Z" transform="translate(1275.528 2477.748)" fill="#20143b"/>
    <path id="Trazado_357" data-name="Trazado 357" d="M0,0,1.068-.09a1.9,1.9,0,0,0,.551,1.167,1.5,1.5,0,0,0,1.042.391A1.624,1.624,0,0,0,3.9.917,2.073,2.073,0,0,0,4.413-.546a1.874,1.874,0,0,0-.489-1.367,1.707,1.707,0,0,0-1.28-.5,1.781,1.781,0,0,0-.887.223,1.709,1.709,0,0,0-.621.576L.181-1.738l.8-4.237H5.1v.968H1.8L1.35-2.79a2.7,2.7,0,0,1,1.565-.518,2.483,2.483,0,0,1,1.831.748A2.61,2.61,0,0,1,5.492-.636,3,3,0,0,1,4.836,1.3a2.631,2.631,0,0,1-2.175,1,2.689,2.689,0,0,1-1.845-.63A2.457,2.457,0,0,1,0,0" transform="translate(1281.896 2482.755)" fill="#20143b"/>
    <path id="Trazado_358" data-name="Trazado 358" d="M0,0A7.529,7.529,0,0,1,.3-2.354,2.929,2.929,0,0,1,1.2-3.73a2.3,2.3,0,0,1,1.5-.484,2.456,2.456,0,0,1,1.169.267,2.245,2.245,0,0,1,.831.771,4.136,4.136,0,0,1,.514,1.227A8.129,8.129,0,0,1,5.4,0a7.524,7.524,0,0,1-.3,2.343,2.936,2.936,0,0,1-.9,1.379A2.308,2.308,0,0,1,2.7,4.208,2.278,2.278,0,0,1,.819,3.353,5.418,5.418,0,0,1,0,0M1.045,0a5.142,5.142,0,0,0,.478,2.7A1.409,1.409,0,0,0,2.7,3.376,1.405,1.405,0,0,0,3.879,2.7,5.157,5.157,0,0,0,4.356,0a5.153,5.153,0,0,0-.477-2.706,1.419,1.419,0,0,0-1.19-.669,1.3,1.3,0,0,0-1.118.59A5.206,5.206,0,0,0,1.045,0" transform="translate(1288.331 2480.848)" fill="#20143b"/>
    <path id="Trazado_359" data-name="Trazado 359" d="M0,0,1.006-.157a1.4,1.4,0,0,0,.471.922,1.649,1.649,0,0,0,1.082.321A1.6,1.6,0,0,0,3.6.8.848.848,0,0,0,3.938.135a.613.613,0,0,0-.3-.54A4.418,4.418,0,0,0,2.6-.748a9.509,9.509,0,0,1-1.551-.488A1.5,1.5,0,0,1,.393-1.8a1.5,1.5,0,0,1-.224-.8,1.544,1.544,0,0,1,.184-.741,1.64,1.64,0,0,1,.5-.564,2.091,2.091,0,0,1,.647-.3,3.077,3.077,0,0,1,.879-.12,3.49,3.49,0,0,1,1.24.2,1.685,1.685,0,0,1,.788.548,2.145,2.145,0,0,1,.35.926l-.994.135a1.082,1.082,0,0,0-.393-.72,1.443,1.443,0,0,0-.918-.259,1.667,1.667,0,0,0-1,.231.67.67,0,0,0-.3.54.556.556,0,0,0,.124.354.894.894,0,0,0,.39.27c.1.038.4.124.9.259a12.773,12.773,0,0,1,1.506.469,1.527,1.527,0,0,1,.669.533,1.477,1.477,0,0,1,.243.866,1.7,1.7,0,0,1-.3.953,1.917,1.917,0,0,1-.856.692,3.132,3.132,0,0,1-1.266.245A2.833,2.833,0,0,1,.782,1.435,2.252,2.252,0,0,1,0,0" transform="translate(1269.551 2510.785)" fill="#20143b"/>
    <path id="Trazado_360" data-name="Trazado 360" d="M0,0V-.973H5.362v.787A11.286,11.286,0,0,0,3.794,2.042,13.515,13.515,0,0,0,2.594,4.9,10.514,10.514,0,0,0,2.2,7.167H1.158a10.15,10.15,0,0,1,.384-2.351A12.359,12.359,0,0,1,2.6,2.157,11.379,11.379,0,0,1,4.057,0Z" transform="translate(1275.528 2505.402)" fill="#20143b"/>
    <path id="Trazado_361" data-name="Trazado 361" d="M0,0,1.068-.09a1.9,1.9,0,0,0,.551,1.166,1.5,1.5,0,0,0,1.042.392A1.624,1.624,0,0,0,3.9.917,2.073,2.073,0,0,0,4.413-.546a1.874,1.874,0,0,0-.489-1.367,1.707,1.707,0,0,0-1.28-.5,1.78,1.78,0,0,0-.887.221,1.712,1.712,0,0,0-.621.577L.181-1.738l.8-4.237H5.1v.968H1.8L1.35-2.79a2.7,2.7,0,0,1,1.565-.518,2.483,2.483,0,0,1,1.831.748A2.61,2.61,0,0,1,5.492-.636,3,3,0,0,1,4.836,1.3a2.631,2.631,0,0,1-2.175,1,2.689,2.689,0,0,1-1.845-.63A2.457,2.457,0,0,1,0,0" transform="translate(1281.896 2510.409)" fill="#20143b"/>
    <path id="Trazado_362" data-name="Trazado 362" d="M0,0A7.536,7.536,0,0,1,.3-2.355,2.925,2.925,0,0,1,1.2-3.73a2.3,2.3,0,0,1,1.5-.484,2.456,2.456,0,0,1,1.169.266,2.245,2.245,0,0,1,.831.771A4.136,4.136,0,0,1,5.215-1.95,8.138,8.138,0,0,1,5.4,0a7.517,7.517,0,0,1-.3,2.342,2.936,2.936,0,0,1-.9,1.379A2.308,2.308,0,0,1,2.7,4.208,2.278,2.278,0,0,1,.819,3.353,5.418,5.418,0,0,1,0,0M1.045,0a5.138,5.138,0,0,0,.478,2.7A1.407,1.407,0,0,0,2.7,3.375,1.4,1.4,0,0,0,3.879,2.7,5.157,5.157,0,0,0,4.356,0a5.153,5.153,0,0,0-.477-2.706,1.42,1.42,0,0,0-1.19-.67,1.3,1.3,0,0,0-1.118.591A5.206,5.206,0,0,0,1.045,0" transform="translate(1288.331 2508.501)" fill="#20143b"/>
    <path id="Trazado_363" data-name="Trazado 363" d="M0,0H-1.017V-6.453a5.271,5.271,0,0,1-.963.7,6.908,6.908,0,0,1-1.071.523v-.979a6.136,6.136,0,0,0,1.492-.968,3.828,3.828,0,0,0,.9-1.1H0Z" transform="translate(1298.597 2512.569)" fill="#20143b"/>
    <path id="Trazado_364" data-name="Trazado 364" d="M0,0H-327.207" transform="translate(1589.212 2523.844)" fill="none" stroke="#20143b" stroke-width="1" stroke-dasharray="1.006 2.006"/>
    <path id="Trazado_365" data-name="Trazado 365" d="M0,0V-118.678" transform="translate(1260.5 2521.348)" fill="none" stroke="#20143b" stroke-width="1" stroke-dasharray="0.996 1.996"/>
    <path id="Trazado_366" data-name="Trazado 366" d="M0,0H327.207" transform="translate(1263.008 2401.172)" fill="none" stroke="#20143b" stroke-width="1" stroke-dasharray="1.006 2.006"/>
    <path id="Trazado_367" data-name="Trazado 367" d="M0,0V118.678" transform="translate(1591.72 2403.668)" fill="none" stroke="#20143b" stroke-width="1" stroke-dasharray="0.996 1.996"/>
    <path id="Trazado_368" data-name="Trazado 368" d="M0,0H-.5V-.5m0-121.672v-.5H0m330.215,0h.5v.5m0,121.672V0h-.5" transform="translate(1261.003 2523.844)" fill="none" stroke="#20143b" stroke-width="1"/>
    <path id="Trazado_369" data-name="Trazado 369" d="M0,0H331.22" transform="translate(1260.5 2424.554)" fill="none" stroke="#20143b" stroke-width="1" stroke-dasharray="1.001 2.001"/>
    <path id="Trazado_370" data-name="Trazado 370" d="M0,0H331.22" transform="translate(1260.5 2466.788)" fill="none" stroke="#20143b" stroke-width="1" stroke-dasharray="1.001 2.001"/>
    <path id="Trazado_371" data-name="Trazado 371" d="M0,0H331.22" transform="translate(1260.5 2495.688)" fill="none" stroke="#20143b" stroke-width="1" stroke-dasharray="1.001 2.001"/>
    <path id="Trazado_372" data-name="Trazado 372" d="M0,0V122.672" transform="translate(1314.071 2401.172)" fill="none" stroke="#20143b" stroke-width="1" stroke-dasharray="0.984 1.984"/>
    <path id="Trazado_373" data-name="Trazado 373" d="M0,0H332.22V-123.672H0Z" transform="translate(1260 2524.344)" fill="none"/>
  </g>
</svg>
