<svg xmlns="http://www.w3.org/2000/svg" width="335.496" height="100.778" viewBox="0 0 335.496 100.778">
  <g id="Grupo_22" data-name="Grupo 22" transform="translate(-1258 -2412.778)">
    <path id="Trazado_125" data-name="Trazado 125" d="M.338-.617h60.1v-60.02H.338Z" transform="translate(1258 2513.556)" fill="#299cb1"/>
    <path id="Trazado_126" data-name="Trazado 126" d="M60.437,0H212.489V-24.356H60.437Z" transform="translate(1258 2513.556)" fill="#299cb1"/>
    <path id="Trazado_127" data-name="Trazado 127" d="M236.67,0H273.8V-24.356H236.67Z" transform="translate(1258 2513.556)" fill="#299cb1"/>
    <path id="Trazado_128" data-name="Trazado 128" d="M316.93,0H335.5V-24.356H316.93Z" transform="translate(1258 2513.556)" fill="#ffbc7d"/>
    <path id="Trazado_141" data-name="Trazado 141" d="M.65-6.442H3.028a4.643,4.643,0,0,1,1.226.123,2.154,2.154,0,0,1,.971.593A2.815,2.815,0,0,1,5.84-4.682,4.754,4.754,0,0,1,6.051-3.16a4.234,4.234,0,0,1-.2,1.371A2.84,2.84,0,0,1,5.164-.65a2.287,2.287,0,0,1-.914.514A3.935,3.935,0,0,1,3.1,0H.65Zm1.3,1.09v4.267h.971a3.544,3.544,0,0,0,.787-.062,1.2,1.2,0,0,0,.525-.268,1.364,1.364,0,0,0,.341-.622,4.2,4.2,0,0,0,.132-1.18,3.849,3.849,0,0,0-.132-1.147,1.474,1.474,0,0,0-.369-.624,1.238,1.238,0,0,0-.6-.3,5.9,5.9,0,0,0-1.068-.062ZM6.891-3.182a4.1,4.1,0,0,1,.294-1.652,3.032,3.032,0,0,1,.6-.883,2.508,2.508,0,0,1,.833-.58,3.537,3.537,0,0,1,1.389-.255,3.025,3.025,0,0,1,2.279.883,3.385,3.385,0,0,1,.855,2.457,3.374,3.374,0,0,1-.848,2.441A3,3,0,0,1,10.024.11,3.032,3.032,0,0,1,7.739-.767,3.327,3.327,0,0,1,6.891-3.182Zm1.34-.044a2.414,2.414,0,0,0,.505,1.659A1.647,1.647,0,0,0,10.02-1a1.632,1.632,0,0,0,1.277-.56,2.462,2.462,0,0,0,.5-1.681A2.422,2.422,0,0,0,11.309-4.9a1.643,1.643,0,0,0-1.29-.545,1.654,1.654,0,0,0-1.3.552A2.434,2.434,0,0,0,8.231-3.226ZM14.137,0V-6.442h1.947l1.169,4.395,1.156-4.395H20.36V0H19.151V-5.071L17.873,0H16.62L15.346-5.071V0Zm7.475,0V-6.442h1.3V0Zm2.553,0V-6.442h1.266l2.637,4.3v-4.3h1.208V0H27.971l-2.6-4.2V0Zm6.447,0V-6.442h1.3V0Zm2.276-3.182a4.1,4.1,0,0,1,.294-1.652,3.032,3.032,0,0,1,.6-.883,2.508,2.508,0,0,1,.833-.58A3.537,3.537,0,0,1,36-6.552a3.025,3.025,0,0,1,2.279.883,3.385,3.385,0,0,1,.855,2.457A3.374,3.374,0,0,1,38.29-.771,3,3,0,0,1,36.022.11a3.032,3.032,0,0,1-2.285-.877A3.327,3.327,0,0,1,32.889-3.182Zm1.34-.044a2.414,2.414,0,0,0,.505,1.659A1.647,1.647,0,0,0,36.018-1a1.632,1.632,0,0,0,1.277-.56,2.462,2.462,0,0,0,.5-1.681A2.422,2.422,0,0,0,37.307-4.9a1.643,1.643,0,0,0-1.29-.545,1.654,1.654,0,0,0-1.3.552A2.434,2.434,0,0,0,34.229-3.226ZM39.823-2.1l1.266-.123a1.544,1.544,0,0,0,.464.936,1.4,1.4,0,0,0,.943.3,1.449,1.449,0,0,0,.947-.266.791.791,0,0,0,.319-.622.586.586,0,0,0-.134-.389,1.071,1.071,0,0,0-.468-.279q-.229-.079-1.042-.281a3.533,3.533,0,0,1-1.468-.637,1.676,1.676,0,0,1-.593-1.3,1.656,1.656,0,0,1,.279-.921,1.747,1.747,0,0,1,.8-.653,3.223,3.223,0,0,1,1.268-.224,2.719,2.719,0,0,1,1.826.532A1.877,1.877,0,0,1,44.877-4.6l-1.3.057a1.1,1.1,0,0,0-.358-.714,1.311,1.311,0,0,0-.824-.218,1.486,1.486,0,0,0-.888.233.469.469,0,0,0-.207.4.5.5,0,0,0,.193.391,3.42,3.42,0,0,0,1.2.431,6.308,6.308,0,0,1,1.4.464A1.81,1.81,0,0,1,44.8-2.9a1.915,1.915,0,0,1,.257,1.026,1.9,1.9,0,0,1-.308,1.037,1.844,1.844,0,0,1-.87.719,3.649,3.649,0,0,1-1.4.235A2.791,2.791,0,0,1,40.605-.45,2.456,2.456,0,0,1,39.823-2.1Z" transform="translate(1332.435 2436.025)" fill="#20143b"/>
    <path id="Trazado_142" data-name="Trazado 142" d="M4.777-2.369l1.261.4A2.829,2.829,0,0,1,5.073-.4,2.751,2.751,0,0,1,3.362.11,2.771,2.771,0,0,1,1.252-.767a3.355,3.355,0,0,1-.826-2.4,3.522,3.522,0,0,1,.831-2.5,2.848,2.848,0,0,1,2.184-.89,2.68,2.68,0,0,1,1.92.7,2.541,2.541,0,0,1,.659,1.187l-1.288.308a1.366,1.366,0,0,0-.477-.791,1.366,1.366,0,0,0-.881-.29,1.466,1.466,0,0,0-1.162.514,2.52,2.52,0,0,0-.446,1.666,2.7,2.7,0,0,0,.439,1.74A1.427,1.427,0,0,0,3.349-1a1.3,1.3,0,0,0,.892-.33A1.914,1.914,0,0,0,4.777-2.369Zm2.114-.813a4.1,4.1,0,0,1,.294-1.652,3.032,3.032,0,0,1,.6-.883,2.508,2.508,0,0,1,.833-.58,3.537,3.537,0,0,1,1.389-.255,3.025,3.025,0,0,1,2.279.883,3.385,3.385,0,0,1,.855,2.457,3.374,3.374,0,0,1-.848,2.441A3,3,0,0,1,10.024.11,3.032,3.032,0,0,1,7.739-.767,3.327,3.327,0,0,1,6.891-3.182Zm1.34-.044a2.414,2.414,0,0,0,.505,1.659A1.647,1.647,0,0,0,10.02-1a1.632,1.632,0,0,0,1.277-.56,2.462,2.462,0,0,0,.5-1.681A2.422,2.422,0,0,0,11.309-4.9a1.643,1.643,0,0,0-1.29-.545,1.654,1.654,0,0,0-1.3.552A2.434,2.434,0,0,0,8.231-3.226ZM14.15-6.442h2.377a4.643,4.643,0,0,1,1.226.123,2.154,2.154,0,0,1,.971.593,2.815,2.815,0,0,1,.615,1.044,4.754,4.754,0,0,1,.211,1.523,4.234,4.234,0,0,1-.2,1.371,2.84,2.84,0,0,1-.69,1.138,2.287,2.287,0,0,1-.914.514A3.935,3.935,0,0,1,16.6,0H14.15Zm1.3,1.09v4.267h.971a3.544,3.544,0,0,0,.787-.062,1.2,1.2,0,0,0,.525-.268,1.364,1.364,0,0,0,.341-.622,4.2,4.2,0,0,0,.132-1.18,3.849,3.849,0,0,0-.132-1.147,1.474,1.474,0,0,0-.369-.624,1.238,1.238,0,0,0-.6-.3,5.9,5.9,0,0,0-1.068-.062ZM20.615,0V-6.442h1.3V0Zm2.549,0V-6.442H27.58v1.09H24.464v1.525h2.689v1.09H24.464V0Zm5.449,0V-6.442h1.3V0Zm6.662-2.369,1.261.4A2.829,2.829,0,0,1,35.572-.4,2.751,2.751,0,0,1,33.86.11,2.771,2.771,0,0,1,31.75-.767a3.355,3.355,0,0,1-.826-2.4,3.522,3.522,0,0,1,.831-2.5,2.848,2.848,0,0,1,2.184-.89,2.68,2.68,0,0,1,1.92.7,2.541,2.541,0,0,1,.659,1.187l-1.288.308a1.366,1.366,0,0,0-.477-.791,1.366,1.366,0,0,0-.881-.29,1.466,1.466,0,0,0-1.162.514,2.52,2.52,0,0,0-.446,1.666,2.7,2.7,0,0,0,.439,1.74A1.427,1.427,0,0,0,33.847-1a1.3,1.3,0,0,0,.892-.33A1.914,1.914,0,0,0,35.275-2.369ZM43.462,0H42.047l-.562-1.463H38.909L38.377,0H37l2.509-6.442h1.375Zm-2.4-2.549-.888-2.391-.87,2.391Zm7.207.18,1.261.4A2.829,2.829,0,0,1,48.571-.4,2.751,2.751,0,0,1,46.859.11,2.771,2.771,0,0,1,44.75-.767a3.355,3.355,0,0,1-.826-2.4,3.522,3.522,0,0,1,.831-2.5,2.848,2.848,0,0,1,2.184-.89,2.68,2.68,0,0,1,1.92.7,2.541,2.541,0,0,1,.659,1.187l-1.288.308a1.366,1.366,0,0,0-.477-.791,1.366,1.366,0,0,0-.881-.29,1.466,1.466,0,0,0-1.162.514,2.52,2.52,0,0,0-.446,1.666,2.7,2.7,0,0,0,.439,1.74A1.427,1.427,0,0,0,46.846-1a1.3,1.3,0,0,0,.892-.33A1.914,1.914,0,0,0,48.274-2.369ZM50.612,0V-6.442h1.3V0Zm2.276-3.182a4.1,4.1,0,0,1,.294-1.652,3.032,3.032,0,0,1,.6-.883,2.508,2.508,0,0,1,.833-.58A3.537,3.537,0,0,1,56-6.552a3.025,3.025,0,0,1,2.279.883,3.385,3.385,0,0,1,.855,2.457,3.374,3.374,0,0,1-.848,2.441A3,3,0,0,1,56.021.11a3.032,3.032,0,0,1-2.285-.877A3.327,3.327,0,0,1,52.888-3.182Zm1.34-.044a2.414,2.414,0,0,0,.505,1.659A1.647,1.647,0,0,0,56.017-1a1.632,1.632,0,0,0,1.277-.56,2.462,2.462,0,0,0,.5-1.681A2.422,2.422,0,0,0,57.307-4.9a1.643,1.643,0,0,0-1.29-.545,1.654,1.654,0,0,0-1.3.552A2.434,2.434,0,0,0,54.229-3.226Zm.984-3.586.606-1.314H57.2L56-6.812ZM60.166,0V-6.442h1.266l2.637,4.3v-4.3h1.208V0H63.971l-2.6-4.2V0Z" transform="translate(1508.11 2425.5)" fill="#20143b"/>
    <path id="Trazado_143" data-name="Trazado 143" d="M.668,0V-6.442H1.934L4.57-2.14v-4.3H5.779V0H4.474l-2.6-4.2V0Zm9.374,0H8.807V-4.654a4.257,4.257,0,0,1-1.6.936V-4.838a3.571,3.571,0,0,0,1.05-.6A2.279,2.279,0,0,0,9.04-6.469h1Z" transform="translate(1477.24 2446.135)" fill="#20143b"/>
    <path id="Trazado_144" data-name="Trazado 144" d="M.593,0V-6.442H1.828v2.32a1.747,1.747,0,0,1,1.354-.65,1.819,1.819,0,0,1,1.411.617A2.556,2.556,0,0,1,5.15-2.382,2.7,2.7,0,0,1,4.581-.541,1.776,1.776,0,0,1,3.2.105a1.708,1.708,0,0,1-.789-.2,1.886,1.886,0,0,1-.67-.591V0ZM1.819-2.435a1.985,1.985,0,0,0,.229,1.072A.977.977,0,0,0,2.9-.87a.874.874,0,0,0,.7-.349,1.719,1.719,0,0,0,.288-1.1,1.823,1.823,0,0,0-.29-1.154.918.918,0,0,0-.743-.354.931.931,0,0,0-.738.345A1.584,1.584,0,0,0,1.819-2.435ZM5.88-5.208V-6.354H10.1v.9A6.645,6.645,0,0,0,9.04-3.981a8.61,8.61,0,0,0-.824,2.046A7.586,7.586,0,0,0,7.937,0H6.746A8.278,8.278,0,0,1,7.3-2.725,9.079,9.079,0,0,1,8.688-5.208Z" transform="translate(1477.24 2465.153)" fill="#20143b"/>
    <path id="Trazado_145" data-name="Trazado 145" d="M.593,0V-6.442H1.828v2.32a1.747,1.747,0,0,1,1.354-.65,1.819,1.819,0,0,1,1.411.617A2.556,2.556,0,0,1,5.15-2.382,2.7,2.7,0,0,1,4.581-.541,1.776,1.776,0,0,1,3.2.105a1.708,1.708,0,0,1-.789-.2,1.886,1.886,0,0,1-.67-.591V0ZM1.819-2.435a1.985,1.985,0,0,0,.229,1.072A.977.977,0,0,0,2.9-.87a.874.874,0,0,0,.7-.349,1.719,1.719,0,0,0,.288-1.1,1.823,1.823,0,0,0-.29-1.154.918.918,0,0,0-.743-.354.931.931,0,0,0-.738.345A1.584,1.584,0,0,0,1.819-2.435ZM5.88-5.208V-6.354H10.1v.9A6.645,6.645,0,0,0,9.04-3.981a8.61,8.61,0,0,0-.824,2.046A7.586,7.586,0,0,0,7.937,0H6.746A8.278,8.278,0,0,1,7.3-2.725,9.079,9.079,0,0,1,8.688-5.208Z" transform="translate(1477.24 2485.214)" fill="#20143b"/>
    <path id="Trazado_146" data-name="Trazado 146" d="M.593,0V-6.442H1.828v2.32a1.747,1.747,0,0,1,1.354-.65,1.819,1.819,0,0,1,1.411.617A2.556,2.556,0,0,1,5.15-2.382,2.7,2.7,0,0,1,4.581-.541,1.776,1.776,0,0,1,3.2.105a1.708,1.708,0,0,1-.789-.2,1.886,1.886,0,0,1-.67-.591V0ZM1.819-2.435a1.985,1.985,0,0,0,.229,1.072A.977.977,0,0,0,2.9-.87a.874.874,0,0,0,.7-.349,1.719,1.719,0,0,0,.288-1.1,1.823,1.823,0,0,0-.29-1.154.918.918,0,0,0-.743-.354.931.931,0,0,0-.738.345A1.584,1.584,0,0,0,1.819-2.435ZM5.88-5.208V-6.354H10.1v.9A6.645,6.645,0,0,0,9.04-3.981a8.61,8.61,0,0,0-.824,2.046A7.586,7.586,0,0,0,7.937,0H6.746A8.278,8.278,0,0,1,7.3-2.725,9.079,9.079,0,0,1,8.688-5.208Z" transform="translate(1477.24 2505.204)" fill="#20143b"/>
    <path id="Trazado_147" data-name="Trazado 147" d="M2.47-6.469A1.76,1.76,0,0,1,3.933-5.8a4.265,4.265,0,0,1,.628,2.624A4.274,4.274,0,0,1,3.929-.549,1.757,1.757,0,0,1,2.47.11,1.844,1.844,0,0,1,.954-.613,4.273,4.273,0,0,1,.378-3.19,4.256,4.256,0,0,1,1.011-5.81,1.757,1.757,0,0,1,2.47-6.469Zm0,1.024a.617.617,0,0,0-.4.143A.959.959,0,0,0,1.8-4.79,7.061,7.061,0,0,0,1.67-3.177a7.01,7.01,0,0,0,.114,1.558,1.1,1.1,0,0,0,.288.565.614.614,0,0,0,.4.141.617.617,0,0,0,.4-.143.959.959,0,0,0,.272-.512A7,7,0,0,0,3.27-3.177a7.01,7.01,0,0,0-.114-1.558A1.111,1.111,0,0,0,2.867-5.3.608.608,0,0,0,2.47-5.445Z" transform="translate(1517.636 2505.204)" fill="#20143b"/>
    <path id="Trazado_148" data-name="Trazado 148" d="M.668,0V-6.442H1.934L4.57-2.14v-4.3H5.779V0H4.474l-2.6-4.2V0ZM11.052-1.147V0H6.724a2.981,2.981,0,0,1,.422-1.233A8.2,8.2,0,0,1,8.534-2.777,8.735,8.735,0,0,0,9.558-3.832a1.359,1.359,0,0,0,.255-.756.859.859,0,0,0-.222-.635.828.828,0,0,0-.613-.222.823.823,0,0,0-.615.233,1.2,1.2,0,0,0-.264.773l-1.23-.123a2.017,2.017,0,0,1,.69-1.463,2.317,2.317,0,0,1,1.45-.444,2.1,2.1,0,0,1,1.5.514,1.686,1.686,0,0,1,.545,1.279,2.226,2.226,0,0,1-.156.828,3.369,3.369,0,0,1-.494.824,7.911,7.911,0,0,1-.809.822q-.584.536-.74.712a2.132,2.132,0,0,0-.253.343Z" transform="translate(1508.11 2446.135)" fill="#20143b"/>
    <path id="Trazado_149" data-name="Trazado 149" d="M.668,0V-6.442H1.934L4.57-2.14v-4.3H5.779V0H4.474l-2.6-4.2V0Zm6.17-1.709,1.2-.145a1.132,1.132,0,0,0,.308.7.841.841,0,0,0,.606.242.833.833,0,0,0,.644-.29,1.124,1.124,0,0,0,.261-.782,1.049,1.049,0,0,0-.25-.738A.8.8,0,0,0,8.991-3a2.154,2.154,0,0,0-.567.092l.136-1.006a1.082,1.082,0,0,0,.765-.218.774.774,0,0,0,.264-.613A.7.7,0,0,0,9.4-5.26a.7.7,0,0,0-.514-.193.744.744,0,0,0-.541.22,1.032,1.032,0,0,0-.272.642L6.93-4.786a2.544,2.544,0,0,1,.358-.934,1.617,1.617,0,0,1,.668-.549,2.244,2.244,0,0,1,.96-.2,1.915,1.915,0,0,1,1.459.58,1.514,1.514,0,0,1,.453,1.072A1.517,1.517,0,0,1,9.9-3.463a1.5,1.5,0,0,1,.885.532,1.543,1.543,0,0,1,.332,1A1.935,1.935,0,0,1,10.5-.488a2.134,2.134,0,0,1-1.542.6,2.124,2.124,0,0,1-1.45-.5A1.977,1.977,0,0,1,6.838-1.709Z" transform="translate(1538.139 2446.135)" fill="#20143b"/>
    <path id="Trazado_150" data-name="Trazado 150" d="M.505-1.718V-2.953H2.931v1.235Z" transform="translate(1563.719 2446.135)" fill="#20143b"/>
    <path id="Trazado_151" data-name="Trazado 151" d="M.505-1.718V-2.953H2.931v1.235Z" transform="translate(1563.719 2465.153)" fill="#20143b"/>
    <path id="Trazado_152" data-name="Trazado 152" d="M.505-1.718V-2.953H2.931v1.235Z" transform="translate(1563.719 2482.931)" fill="#20143b"/>
    <path id="Trazado_153" data-name="Trazado 153" d="M.505-1.718V-2.953H2.931v1.235Z" transform="translate(1563.719 2501.4)" fill="#20143b"/>
    <path id="Trazado_154" data-name="Trazado 154" d="M4.777-2.369l1.261.4A2.829,2.829,0,0,1,5.073-.4,2.751,2.751,0,0,1,3.362.11,2.771,2.771,0,0,1,1.252-.767a3.355,3.355,0,0,1-.826-2.4,3.522,3.522,0,0,1,.831-2.5,2.848,2.848,0,0,1,2.184-.89,2.68,2.68,0,0,1,1.92.7,2.541,2.541,0,0,1,.659,1.187l-1.288.308a1.366,1.366,0,0,0-.477-.791,1.366,1.366,0,0,0-.881-.29,1.466,1.466,0,0,0-1.162.514,2.52,2.52,0,0,0-.446,1.666,2.7,2.7,0,0,0,.439,1.74A1.427,1.427,0,0,0,3.349-1a1.3,1.3,0,0,0,.892-.33A1.914,1.914,0,0,0,4.777-2.369Z" transform="translate(1581.454 2446.135)" fill="#20143b"/>
    <path id="Trazado_129" data-name="Trazado 129" d="M0,0V40.48H335.457V0ZM.676.676H334.781V39.8H.676ZM335.12,40.142v0h0Z" transform="translate(1258 2412.778)" fill="#20143b"/>
    <path id="Trazado_130" data-name="Trazado 130" d="M212.489-80.2h122.63v-.676H212.489Z" transform="translate(1258 2513.556)" fill="#20143b"/>
    <path id="Trazado_131" data-name="Trazado 131" d="M60.437-40.24H335.12v-.676H60.437Z" transform="translate(1258 2513.556)" fill="#20143b"/>
    <path id="Trazado_132" data-name="Trazado 132" d="M60.437-23.154H335.12v-.676H60.437Z" transform="translate(1258 2513.556)" fill="#20143b"/>
    <path id="Trazado_133" data-name="Trazado 133" d="M212.152-.617h.676v-99.824h-.676Z" transform="translate(1258 2513.556)" fill="#20143b"/>
    <path id="Trazado_134" data-name="Trazado 134" d="M60.1-.617h.676v-60.02H60.1Z" transform="translate(1258 2513.556)" fill="#20143b"/>
    <path id="Trazado_135" data-name="Trazado 135" d="M236.332-.617h.676V-80.539h-.676Z" transform="translate(1258 2513.556)" fill="#20143b"/>
    <path id="Trazado_136" data-name="Trazado 136" d="M254.559-.617h.676v-60.02h-.676Z" transform="translate(1258 2513.556)" fill="#20143b"/>
    <path id="Trazado_137" data-name="Trazado 137" d="M273.5-.617h.676V-80.539H273.5Z" transform="translate(1258 2513.556)" fill="#20143b"/>
    <path id="Trazado_138" data-name="Trazado 138" d="M297.769-.617h.676V-80.539h-.676Z" transform="translate(1258 2513.556)" fill="#20143b"/>
    <path id="Trazado_139" data-name="Trazado 139" d="M316.592-.617h.676V-80.539h-.676Z" transform="translate(1258 2513.556)" fill="#20143b"/>
    <path id="Trazado_140" data-name="Trazado 140" d="M0,0V60.7H335.457V0ZM.676.676H334.781V60.02H.676ZM335.12,60.358v0h0Z" transform="translate(1258 2452.582)" fill="#20143b"/>
    <path id="Trazado_155" data-name="Trazado 155" d="M.332-4.354v-.591H3.575v.479a6.835,6.835,0,0,0-.948,1.354A8.243,8.243,0,0,0,1.9-1.377,6.454,6.454,0,0,0,1.665,0H1.032a6.14,6.14,0,0,1,.232-1.429A7.5,7.5,0,0,1,1.9-3.044a6.923,6.923,0,0,1,.884-1.311ZM4.529,0V-.7h.7V0ZM8.357,0V-5.011h3.38v.591H9.02v1.552h2.352v.591H9.02V0ZM14.9,0V-.533a1.329,1.329,0,0,1-1.152.615,1.468,1.468,0,0,1-.6-.123.988.988,0,0,1-.414-.309,1.159,1.159,0,0,1-.19-.456,3.124,3.124,0,0,1-.038-.574V-3.63h.615v2.013a3.588,3.588,0,0,0,.038.649.642.642,0,0,0,.246.381.762.762,0,0,0,.465.138,1.013,1.013,0,0,0,.52-.142.789.789,0,0,0,.344-.386,1.938,1.938,0,0,0,.1-.709V-3.63h.615V0Zm1.514,0V-3.63h.554v.516a1.3,1.3,0,0,1,1.155-.6,1.516,1.516,0,0,1,.6.118.949.949,0,0,1,.412.309,1.187,1.187,0,0,1,.191.455,3.523,3.523,0,0,1,.034.6V0h-.615V-2.208a1.657,1.657,0,0,0-.072-.562.591.591,0,0,0-.255-.3.81.81,0,0,0-.429-.111,1,1,0,0,0-.678.25,1.231,1.231,0,0,0-.285.947V0Zm6.262-1.33.6.079a1.569,1.569,0,0,1-.508.979,1.479,1.479,0,0,1-1,.354,1.559,1.559,0,0,1-1.2-.487,1.976,1.976,0,0,1-.453-1.4,2.527,2.527,0,0,1,.195-1.029,1.358,1.358,0,0,1,.593-.661,1.759,1.759,0,0,1,.866-.22,1.506,1.506,0,0,1,.967.3,1.371,1.371,0,0,1,.482.849l-.6.092a.993.993,0,0,0-.3-.55.783.783,0,0,0-.525-.185.955.955,0,0,0-.755.333,1.582,1.582,0,0,0-.291,1.054,1.635,1.635,0,0,0,.28,1.063.912.912,0,0,0,.731.332.862.862,0,0,0,.6-.222A1.1,1.1,0,0,0,22.675-1.33ZM23.81-4.3v-.708h.615V-4.3Zm0,4.3V-3.63h.615V0Zm1.323-1.815a1.871,1.871,0,0,1,.561-1.494,1.689,1.689,0,0,1,1.142-.4,1.629,1.629,0,0,1,1.224.49,1.866,1.866,0,0,1,.475,1.355,2.4,2.4,0,0,1-.21,1.1,1.488,1.488,0,0,1-.612.624,1.781,1.781,0,0,1-.877.222A1.632,1.632,0,0,1,25.6-.407,1.952,1.952,0,0,1,25.132-1.815Zm.632,0a1.546,1.546,0,0,0,.3,1.044.975.975,0,0,0,.766.347A.969.969,0,0,0,27.6-.772a1.583,1.583,0,0,0,.3-1.063,1.5,1.5,0,0,0-.306-1.02.973.973,0,0,0-.76-.347.977.977,0,0,0-.766.345A1.539,1.539,0,0,0,25.765-1.815ZM29.254,0V-3.63h.554v.516a1.3,1.3,0,0,1,1.155-.6,1.516,1.516,0,0,1,.6.118.949.949,0,0,1,.412.309,1.187,1.187,0,0,1,.191.455,3.523,3.523,0,0,1,.034.6V0h-.615V-2.208a1.657,1.657,0,0,0-.072-.562.591.591,0,0,0-.255-.3.81.81,0,0,0-.429-.111,1,1,0,0,0-.678.25,1.231,1.231,0,0,0-.285.947V0Zm6.378-1.169.636.079a1.551,1.551,0,0,1-.557.865,1.675,1.675,0,0,1-1.039.308,1.66,1.66,0,0,1-1.263-.49,1.916,1.916,0,0,1-.467-1.376,2.006,2.006,0,0,1,.472-1.422,1.6,1.6,0,0,1,1.224-.506,1.552,1.552,0,0,1,1.189.5,1.969,1.969,0,0,1,.461,1.395q0,.055,0,.164H33.578a1.4,1.4,0,0,0,.338.916,1.007,1.007,0,0,0,.759.318A.941.941,0,0,0,35.253-.6,1.18,1.18,0,0,0,35.632-1.169Zm-2.02-.995h2.027a1.23,1.23,0,0,0-.232-.687.943.943,0,0,0-.762-.355.977.977,0,0,0-.713.284A1.123,1.123,0,0,0,33.612-2.164Zm3.182,1.08.608-.1a.85.85,0,0,0,.285.561,1,1,0,0,0,.655.195A.962.962,0,0,0,38.972-.6.516.516,0,0,0,39.177-1,.374.374,0,0,0,39-1.33a2.668,2.668,0,0,0-.629-.208,5.739,5.739,0,0,1-.938-.3.909.909,0,0,1-.4-.345.915.915,0,0,1-.135-.487.935.935,0,0,1,.111-.449,1,1,0,0,1,.3-.344,1.268,1.268,0,0,1,.391-.179,1.861,1.861,0,0,1,.531-.073,2.1,2.1,0,0,1,.75.123,1.02,1.02,0,0,1,.477.333,1.3,1.3,0,0,1,.212.562l-.6.082a.658.658,0,0,0-.238-.437.869.869,0,0,0-.555-.157,1.006,1.006,0,0,0-.6.14.408.408,0,0,0-.181.328.34.34,0,0,0,.075.215.543.543,0,0,0,.236.164q.092.034.543.157a7.565,7.565,0,0,1,.911.285.924.924,0,0,1,.405.323.9.9,0,0,1,.147.526,1.033,1.033,0,0,1-.179.579,1.16,1.16,0,0,1-.518.42,1.885,1.885,0,0,1-.766.149,1.706,1.706,0,0,1-1.078-.294A1.367,1.367,0,0,1,36.794-1.083Z" transform="translate(1266.134 2462.612)" fill="#20143b"/>
    <path id="Trazado_156" data-name="Trazado 156" d="M.461,0V-3.63h.554v.516a1.3,1.3,0,0,1,1.155-.6,1.516,1.516,0,0,1,.6.118.949.949,0,0,1,.412.309,1.187,1.187,0,0,1,.191.455,3.523,3.523,0,0,1,.034.6V0H2.8V-2.208a1.657,1.657,0,0,0-.072-.562.591.591,0,0,0-.255-.3.81.81,0,0,0-.429-.111,1,1,0,0,0-.678.25,1.231,1.231,0,0,0-.285.947V0ZM6.839-1.169l.636.079a1.551,1.551,0,0,1-.557.865A1.675,1.675,0,0,1,5.879.082a1.66,1.66,0,0,1-1.263-.49,1.916,1.916,0,0,1-.467-1.376,2.006,2.006,0,0,1,.472-1.422,1.6,1.6,0,0,1,1.224-.506,1.552,1.552,0,0,1,1.189.5A1.969,1.969,0,0,1,7.5-1.822q0,.055,0,.164H4.785a1.4,1.4,0,0,0,.338.916,1.007,1.007,0,0,0,.759.318A.941.941,0,0,0,6.46-.6,1.18,1.18,0,0,0,6.839-1.169Zm-2.02-.995H6.846a1.23,1.23,0,0,0-.232-.687.943.943,0,0,0-.762-.355.977.977,0,0,0-.713.284A1.123,1.123,0,0,0,4.819-2.164ZM10.626,0V-.533A1.329,1.329,0,0,1,9.475.082a1.468,1.468,0,0,1-.6-.123A.988.988,0,0,1,8.461-.35a1.159,1.159,0,0,1-.19-.456,3.124,3.124,0,0,1-.038-.574V-3.63h.615v2.013a3.588,3.588,0,0,0,.038.649.642.642,0,0,0,.246.381A.762.762,0,0,0,9.6-.448a1.013,1.013,0,0,0,.52-.142.789.789,0,0,0,.344-.386,1.938,1.938,0,0,0,.1-.709V-3.63h.615V0Zm1.507,0V-3.63h.554v.55a1.5,1.5,0,0,1,.391-.509.683.683,0,0,1,.395-.123,1.2,1.2,0,0,1,.632.2l-.212.571a.88.88,0,0,0-.451-.133.586.586,0,0,0-.362.121.657.657,0,0,0-.229.337,2.4,2.4,0,0,0-.1.718V0Zm2.109-1.815A1.871,1.871,0,0,1,14.8-3.309a1.689,1.689,0,0,1,1.142-.4,1.629,1.629,0,0,1,1.224.49,1.866,1.866,0,0,1,.475,1.355,2.4,2.4,0,0,1-.21,1.1,1.488,1.488,0,0,1-.612.624,1.781,1.781,0,0,1-.877.222,1.632,1.632,0,0,1-1.232-.489A1.952,1.952,0,0,1,14.243-1.815Zm.632,0a1.546,1.546,0,0,0,.3,1.044.975.975,0,0,0,.766.347.969.969,0,0,0,.762-.349,1.583,1.583,0,0,0,.3-1.063,1.5,1.5,0,0,0-.306-1.02.973.973,0,0,0-.76-.347.977.977,0,0,0-.766.345A1.539,1.539,0,0,0,14.875-1.815ZM18.365,0V-3.63h.55v.509a1.294,1.294,0,0,1,.455-.429,1.277,1.277,0,0,1,.646-.162,1.194,1.194,0,0,1,.661.167.9.9,0,0,1,.364.468,1.3,1.3,0,0,1,1.121-.636,1.1,1.1,0,0,1,.831.3,1.278,1.278,0,0,1,.291.921V0h-.612V-2.287a1.684,1.684,0,0,0-.06-.531.515.515,0,0,0-.217-.261.678.678,0,0,0-.369-.1.859.859,0,0,0-.636.255,1.122,1.122,0,0,0-.253.815V0h-.615V-2.358a1.038,1.038,0,0,0-.15-.615.57.57,0,0,0-.492-.205.894.894,0,0,0-.48.137.776.776,0,0,0-.32.4,2.251,2.251,0,0,0-.1.759V0Zm8.21,0V-.533a1.329,1.329,0,0,1-1.152.615,1.468,1.468,0,0,1-.6-.123.988.988,0,0,1-.414-.309,1.159,1.159,0,0,1-.19-.456,3.124,3.124,0,0,1-.038-.574V-3.63H24.8v2.013a3.588,3.588,0,0,0,.038.649.642.642,0,0,0,.246.381.762.762,0,0,0,.465.138,1.013,1.013,0,0,0,.52-.142.789.789,0,0,0,.344-.386,1.938,1.938,0,0,0,.1-.709V-3.63h.615V0Zm1.268-1.083.608-.1a.85.85,0,0,0,.285.561,1,1,0,0,0,.655.195A.962.962,0,0,0,30.02-.6.516.516,0,0,0,30.225-1a.374.374,0,0,0-.181-.328,2.668,2.668,0,0,0-.629-.208,5.739,5.739,0,0,1-.938-.3.909.909,0,0,1-.4-.345.915.915,0,0,1-.135-.487.935.935,0,0,1,.111-.449,1,1,0,0,1,.3-.344,1.268,1.268,0,0,1,.391-.179,1.861,1.861,0,0,1,.531-.073,2.1,2.1,0,0,1,.75.123,1.02,1.02,0,0,1,.477.333,1.3,1.3,0,0,1,.212.562l-.6.082a.658.658,0,0,0-.238-.437.869.869,0,0,0-.555-.157,1.006,1.006,0,0,0-.6.14.408.408,0,0,0-.181.328.34.34,0,0,0,.075.215.543.543,0,0,0,.236.164q.092.034.543.157a7.565,7.565,0,0,1,.911.285.924.924,0,0,1,.405.323.9.9,0,0,1,.147.526,1.033,1.033,0,0,1-.179.579,1.16,1.16,0,0,1-.518.42,1.885,1.885,0,0,1-.766.149,1.706,1.706,0,0,1-1.078-.294A1.367,1.367,0,0,1,27.843-1.083Zm6.115-.246.6.079a1.569,1.569,0,0,1-.508.979,1.479,1.479,0,0,1-1,.354,1.559,1.559,0,0,1-1.2-.487A1.976,1.976,0,0,1,31.4-1.8,2.527,2.527,0,0,1,31.6-2.83a1.358,1.358,0,0,1,.593-.661,1.759,1.759,0,0,1,.866-.22,1.506,1.506,0,0,1,.967.3,1.371,1.371,0,0,1,.482.849l-.6.092a.993.993,0,0,0-.3-.55.783.783,0,0,0-.525-.185.955.955,0,0,0-.755.333,1.582,1.582,0,0,0-.291,1.054,1.635,1.635,0,0,0,.28,1.063.912.912,0,0,0,.731.332.862.862,0,0,0,.6-.222A1.1,1.1,0,0,0,33.958-1.33ZM37.468,0V-.533a1.329,1.329,0,0,1-1.152.615,1.468,1.468,0,0,1-.6-.123A.988.988,0,0,1,35.3-.35a1.159,1.159,0,0,1-.19-.456,3.124,3.124,0,0,1-.038-.574V-3.63h.615v2.013a3.587,3.587,0,0,0,.038.649.642.642,0,0,0,.246.381.762.762,0,0,0,.465.138,1.013,1.013,0,0,0,.52-.142A.789.789,0,0,0,37.3-.976a1.938,1.938,0,0,0,.1-.709V-3.63h.615V0Zm1.5,0V-5.011h.615V0Zm1.34-1.815a1.871,1.871,0,0,1,.561-1.494,1.689,1.689,0,0,1,1.142-.4,1.629,1.629,0,0,1,1.224.49,1.866,1.866,0,0,1,.475,1.355,2.4,2.4,0,0,1-.21,1.1,1.488,1.488,0,0,1-.612.624,1.781,1.781,0,0,1-.877.222,1.632,1.632,0,0,1-1.232-.489A1.952,1.952,0,0,1,40.308-1.815Zm.632,0a1.546,1.546,0,0,0,.3,1.044.975.975,0,0,0,.766.347.969.969,0,0,0,.762-.349,1.583,1.583,0,0,0,.3-1.063,1.5,1.5,0,0,0-.306-1.02.973.973,0,0,0-.76-.347.977.977,0,0,0-.766.345A1.539,1.539,0,0,0,40.94-1.815Z" transform="translate(1264.071 2471.515)" fill="#20143b"/>
    <path id="Trazado_157" data-name="Trazado 157" d="M2.946-1.169l.636.079a1.551,1.551,0,0,1-.557.865A1.675,1.675,0,0,1,1.986.082,1.66,1.66,0,0,1,.723-.408,1.916,1.916,0,0,1,.256-1.784,2.006,2.006,0,0,1,.728-3.206a1.6,1.6,0,0,1,1.224-.506,1.552,1.552,0,0,1,1.189.5A1.969,1.969,0,0,1,3.6-1.822q0,.055,0,.164H.892a1.4,1.4,0,0,0,.338.916,1.007,1.007,0,0,0,.759.318A.941.941,0,0,0,2.567-.6,1.18,1.18,0,0,0,2.946-1.169ZM.926-2.164H2.953a1.23,1.23,0,0,0-.232-.687.943.943,0,0,0-.762-.355.977.977,0,0,0-.713.284A1.123,1.123,0,0,0,.926-2.164Zm3.182,1.08.608-.1A.85.85,0,0,0,5-.619a1,1,0,0,0,.655.195A.962.962,0,0,0,6.286-.6.516.516,0,0,0,6.491-1,.374.374,0,0,0,6.31-1.33a2.668,2.668,0,0,0-.629-.208,5.739,5.739,0,0,1-.938-.3.909.909,0,0,1-.4-.345.915.915,0,0,1-.135-.487.935.935,0,0,1,.111-.449,1,1,0,0,1,.3-.344,1.268,1.268,0,0,1,.391-.179,1.861,1.861,0,0,1,.531-.073,2.1,2.1,0,0,1,.75.123,1.02,1.02,0,0,1,.477.333,1.3,1.3,0,0,1,.212.562l-.6.082a.658.658,0,0,0-.238-.437.869.869,0,0,0-.555-.157,1.006,1.006,0,0,0-.6.14.408.408,0,0,0-.181.328.34.34,0,0,0,.075.215.543.543,0,0,0,.236.164q.092.034.543.157a7.565,7.565,0,0,1,.911.285.924.924,0,0,1,.405.323.9.9,0,0,1,.147.526,1.033,1.033,0,0,1-.179.579,1.16,1.16,0,0,1-.518.42A1.885,1.885,0,0,1,5.66.082,1.706,1.706,0,0,1,4.582-.212,1.367,1.367,0,0,1,4.108-1.083Zm6.06,2.475V-.386a1.1,1.1,0,0,1-.4.335,1.179,1.179,0,0,1-.549.133A1.451,1.451,0,0,1,8.106-.434a2.032,2.032,0,0,1-.467-1.415,2.426,2.426,0,0,1,.19-.981,1.415,1.415,0,0,1,.55-.658,1.471,1.471,0,0,1,.791-.224,1.216,1.216,0,0,1,1.06.567V-3.63h.554V1.391Zm-1.9-3.216A1.6,1.6,0,0,0,8.565-.774a.891.891,0,0,0,.7.35.862.862,0,0,0,.677-.333,1.535,1.535,0,0,0,.284-1.013,1.693,1.693,0,0,0-.3-1.09.887.887,0,0,0-.7-.366.848.848,0,0,0-.678.34A1.661,1.661,0,0,0,8.271-1.825ZM14.126,0V-.533a1.329,1.329,0,0,1-1.152.615,1.468,1.468,0,0,1-.6-.123.988.988,0,0,1-.414-.309,1.159,1.159,0,0,1-.19-.456,3.124,3.124,0,0,1-.038-.574V-3.63h.615v2.013a3.588,3.588,0,0,0,.038.649.642.642,0,0,0,.246.381.762.762,0,0,0,.465.138,1.013,1.013,0,0,0,.52-.142.789.789,0,0,0,.344-.386,1.938,1.938,0,0,0,.1-.709V-3.63h.615V0Zm4-1.169.636.079a1.551,1.551,0,0,1-.557.865,1.675,1.675,0,0,1-1.039.308A1.66,1.66,0,0,1,15.9-.408a1.916,1.916,0,0,1-.467-1.376,2.006,2.006,0,0,1,.472-1.422,1.6,1.6,0,0,1,1.224-.506,1.552,1.552,0,0,1,1.189.5,1.969,1.969,0,0,1,.461,1.395q0,.055,0,.164H16.071a1.4,1.4,0,0,0,.338.916,1.007,1.007,0,0,0,.759.318A.941.941,0,0,0,17.746-.6,1.18,1.18,0,0,0,18.125-1.169Zm-2.02-.995h2.027a1.23,1.23,0,0,0-.232-.687.943.943,0,0,0-.762-.355.977.977,0,0,0-.713.284A1.123,1.123,0,0,0,16.105-2.164ZM19.52,0V-5.011h.615V0Zm4.054-1.169.636.079a1.551,1.551,0,0,1-.557.865,1.675,1.675,0,0,1-1.039.308,1.66,1.66,0,0,1-1.263-.49,1.916,1.916,0,0,1-.467-1.376,2.006,2.006,0,0,1,.472-1.422,1.6,1.6,0,0,1,1.224-.506,1.552,1.552,0,0,1,1.189.5,1.969,1.969,0,0,1,.461,1.395q0,.055,0,.164H21.52a1.4,1.4,0,0,0,.338.916,1.007,1.007,0,0,0,.759.318A.941.941,0,0,0,23.194-.6,1.18,1.18,0,0,0,23.574-1.169Zm-2.02-.995h2.027a1.23,1.23,0,0,0-.232-.687.943.943,0,0,0-.762-.355.977.977,0,0,0-.713.284A1.123,1.123,0,0,0,21.554-2.164Zm.663-1.917.455-.957h.807l-.752.957ZM26.325-.55l.089.543a2.282,2.282,0,0,1-.465.055,1.052,1.052,0,0,1-.52-.106.593.593,0,0,1-.26-.279,2.2,2.2,0,0,1-.075-.726V-3.151h-.451V-3.63h.451v-.9l.612-.369V-3.63h.619v.479h-.619v2.123a1.072,1.072,0,0,0,.032.338.256.256,0,0,0,.106.12.409.409,0,0,0,.21.044A2,2,0,0,0,26.325-.55Zm.6-3.753v-.708h.615V-4.3Zm0,4.3V-3.63h.615V0Zm3.92-1.33.6.079a1.569,1.569,0,0,1-.508.979,1.479,1.479,0,0,1-1,.354,1.559,1.559,0,0,1-1.2-.487,1.976,1.976,0,0,1-.453-1.4,2.527,2.527,0,0,1,.195-1.029,1.358,1.358,0,0,1,.593-.661,1.759,1.759,0,0,1,.866-.22,1.506,1.506,0,0,1,.967.3,1.371,1.371,0,0,1,.482.849l-.6.092a.993.993,0,0,0-.3-.55.783.783,0,0,0-.525-.185.955.955,0,0,0-.755.333,1.582,1.582,0,0,0-.291,1.054,1.635,1.635,0,0,0,.28,1.063.912.912,0,0,0,.731.332.862.862,0,0,0,.6-.222A1.1,1.1,0,0,0,30.851-1.33Zm3.5.882a2.291,2.291,0,0,1-.658.41,1.9,1.9,0,0,1-.678.12,1.32,1.32,0,0,1-.919-.292.965.965,0,0,1-.321-.747.993.993,0,0,1,.121-.487,1,1,0,0,1,.318-.354,1.5,1.5,0,0,1,.443-.2,4.4,4.4,0,0,1,.547-.092A5.623,5.623,0,0,0,34.3-2.3q0-.126,0-.161a.679.679,0,0,0-.174-.53,1.03,1.03,0,0,0-.7-.208,1.087,1.087,0,0,0-.641.152.929.929,0,0,0-.306.538l-.6-.082a1.491,1.491,0,0,1,.27-.624,1.184,1.184,0,0,1,.543-.366,2.424,2.424,0,0,1,.824-.128,2.18,2.18,0,0,1,.755.109,1,1,0,0,1,.427.275.968.968,0,0,1,.191.419,3.464,3.464,0,0,1,.031.567v.82a8.707,8.707,0,0,0,.039,1.085A1.369,1.369,0,0,0,35.116,0h-.643A1.3,1.3,0,0,1,34.351-.448ZM34.3-1.822a4.514,4.514,0,0,1-1,.232,2.324,2.324,0,0,0-.537.123.535.535,0,0,0-.243.2.525.525,0,0,0-.085.292.524.524,0,0,0,.186.41.8.8,0,0,0,.545.164,1.269,1.269,0,0,0,.632-.156A.958.958,0,0,0,34.2-.981a1.486,1.486,0,0,0,.1-.615Zm1.33.738.608-.1a.85.85,0,0,0,.285.561,1,1,0,0,0,.655.195A.962.962,0,0,0,37.806-.6.516.516,0,0,0,38.011-1a.374.374,0,0,0-.181-.328,2.668,2.668,0,0,0-.629-.208,5.739,5.739,0,0,1-.938-.3.909.909,0,0,1-.4-.345.915.915,0,0,1-.135-.487.935.935,0,0,1,.111-.449,1,1,0,0,1,.3-.344,1.268,1.268,0,0,1,.391-.179,1.861,1.861,0,0,1,.531-.073,2.1,2.1,0,0,1,.75.123,1.02,1.02,0,0,1,.477.333,1.3,1.3,0,0,1,.212.562l-.6.082a.658.658,0,0,0-.238-.437.869.869,0,0,0-.555-.157,1.006,1.006,0,0,0-.6.14.408.408,0,0,0-.181.328.34.34,0,0,0,.075.215.543.543,0,0,0,.236.164q.092.034.543.157a7.565,7.565,0,0,1,.911.285.924.924,0,0,1,.405.323.9.9,0,0,1,.147.526,1.033,1.033,0,0,1-.179.579,1.16,1.16,0,0,1-.518.42,1.885,1.885,0,0,1-.766.149A1.706,1.706,0,0,1,36.1-.212,1.367,1.367,0,0,1,35.629-1.083ZM41.292,1.4,41.224.82a1.371,1.371,0,0,0,.352.055A.676.676,0,0,0,41.9.807a.559.559,0,0,0,.2-.191,3.018,3.018,0,0,0,.188-.458q.017-.051.055-.15L40.971-3.63h.663l.755,2.1q.147.4.263.841a8.278,8.278,0,0,1,.253-.827l.776-2.116H44.3L42.916.062a7.246,7.246,0,0,1-.345.824,1.215,1.215,0,0,1-.376.446.888.888,0,0,1-.506.142A1.232,1.232,0,0,1,41.292,1.4Z" transform="translate(1263.863 2480.418)" fill="#20143b"/>
    <path id="Trazado_158" data-name="Trazado 158" transform="translate(1311.33 2481.05)" fill="#20143b"/>
    <path id="Trazado_159" data-name="Trazado 159" d="M.455,0V-3.63h.554v.55A1.5,1.5,0,0,1,1.4-3.589a.683.683,0,0,1,.395-.123,1.2,1.2,0,0,1,.632.2l-.212.571a.88.88,0,0,0-.451-.133.586.586,0,0,0-.362.121.657.657,0,0,0-.229.337,2.4,2.4,0,0,0-.1.718V0ZM5.277-1.169l.636.079a1.551,1.551,0,0,1-.557.865A1.675,1.675,0,0,1,4.317.082a1.66,1.66,0,0,1-1.263-.49,1.916,1.916,0,0,1-.467-1.376,2.006,2.006,0,0,1,.472-1.422,1.6,1.6,0,0,1,1.224-.506,1.552,1.552,0,0,1,1.189.5,1.969,1.969,0,0,1,.461,1.395q0,.055,0,.164H3.223a1.4,1.4,0,0,0,.338.916,1.007,1.007,0,0,0,.759.318A.941.941,0,0,0,4.9-.6,1.18,1.18,0,0,0,5.277-1.169Zm-2.02-.995H5.284a1.23,1.23,0,0,0-.232-.687.943.943,0,0,0-.762-.355.977.977,0,0,0-.713.284A1.123,1.123,0,0,0,3.257-2.164ZM6.672,0V-5.011h.615V0Zm3.938-.448a2.291,2.291,0,0,1-.658.41,1.9,1.9,0,0,1-.678.12A1.32,1.32,0,0,1,8.354-.21a.965.965,0,0,1-.321-.747.993.993,0,0,1,.121-.487A1,1,0,0,1,8.471-1.8,1.5,1.5,0,0,1,8.914-2a4.4,4.4,0,0,1,.547-.092,5.623,5.623,0,0,0,1.1-.212q0-.126,0-.161a.679.679,0,0,0-.174-.53,1.03,1.03,0,0,0-.7-.208,1.087,1.087,0,0,0-.641.152.929.929,0,0,0-.306.538l-.6-.082a1.491,1.491,0,0,1,.27-.624,1.184,1.184,0,0,1,.543-.366,2.424,2.424,0,0,1,.824-.128,2.18,2.18,0,0,1,.755.109,1,1,0,0,1,.427.275.968.968,0,0,1,.191.419,3.464,3.464,0,0,1,.031.567v.82a8.707,8.707,0,0,0,.039,1.085A1.369,1.369,0,0,0,11.375,0h-.643A1.3,1.3,0,0,1,10.609-.448Zm-.051-1.374a4.514,4.514,0,0,1-1,.232,2.324,2.324,0,0,0-.537.123.535.535,0,0,0-.243.2.525.525,0,0,0-.085.292.524.524,0,0,0,.186.41A.8.8,0,0,0,9.42-.4a1.269,1.269,0,0,0,.632-.156.958.958,0,0,0,.407-.426,1.486,1.486,0,0,0,.1-.615ZM14.5-1.33l.6.079a1.569,1.569,0,0,1-.508.979,1.479,1.479,0,0,1-1,.354,1.559,1.559,0,0,1-1.2-.487,1.976,1.976,0,0,1-.453-1.4,2.527,2.527,0,0,1,.195-1.029,1.358,1.358,0,0,1,.593-.661,1.759,1.759,0,0,1,.866-.22,1.506,1.506,0,0,1,.967.3,1.371,1.371,0,0,1,.482.849l-.6.092a.993.993,0,0,0-.3-.55.783.783,0,0,0-.525-.185.955.955,0,0,0-.755.333,1.582,1.582,0,0,0-.291,1.054,1.635,1.635,0,0,0,.28,1.063.912.912,0,0,0,.731.332.862.862,0,0,0,.6-.222A1.1,1.1,0,0,0,14.5-1.33ZM15.637-4.3v-.708h.615V-4.3Zm0,4.3V-3.63h.615V0ZM16.96-1.815a1.871,1.871,0,0,1,.561-1.494,1.689,1.689,0,0,1,1.142-.4,1.629,1.629,0,0,1,1.224.49,1.866,1.866,0,0,1,.475,1.355,2.4,2.4,0,0,1-.21,1.1,1.488,1.488,0,0,1-.612.624,1.781,1.781,0,0,1-.877.222A1.632,1.632,0,0,1,17.43-.407,1.952,1.952,0,0,1,16.96-1.815Zm.632,0a1.546,1.546,0,0,0,.3,1.044.975.975,0,0,0,.766.347.969.969,0,0,0,.762-.349,1.583,1.583,0,0,0,.3-1.063,1.5,1.5,0,0,0-.306-1.02.973.973,0,0,0-.76-.347.977.977,0,0,0-.766.345A1.539,1.539,0,0,0,17.592-1.815ZM21.082,0V-3.63h.554v.516a1.3,1.3,0,0,1,1.155-.6,1.516,1.516,0,0,1,.6.118.949.949,0,0,1,.412.309A1.187,1.187,0,0,1,24-2.83a3.523,3.523,0,0,1,.034.6V0h-.615V-2.208a1.657,1.657,0,0,0-.072-.562.591.591,0,0,0-.255-.3.81.81,0,0,0-.429-.111,1,1,0,0,0-.678.25,1.231,1.231,0,0,0-.285.947V0Zm6.262-.448a2.291,2.291,0,0,1-.658.41,1.9,1.9,0,0,1-.678.12,1.32,1.32,0,0,1-.919-.292.965.965,0,0,1-.321-.747.993.993,0,0,1,.121-.487,1,1,0,0,1,.318-.354,1.5,1.5,0,0,1,.443-.2,4.4,4.4,0,0,1,.547-.092,5.623,5.623,0,0,0,1.1-.212q0-.126,0-.161a.679.679,0,0,0-.174-.53,1.03,1.03,0,0,0-.7-.208,1.087,1.087,0,0,0-.641.152.929.929,0,0,0-.306.538l-.6-.082a1.491,1.491,0,0,1,.27-.624,1.184,1.184,0,0,1,.543-.366,2.424,2.424,0,0,1,.824-.128,2.18,2.18,0,0,1,.755.109,1,1,0,0,1,.427.275.968.968,0,0,1,.191.419,3.464,3.464,0,0,1,.031.567v.82a8.707,8.707,0,0,0,.039,1.085A1.369,1.369,0,0,0,28.109,0h-.643A1.3,1.3,0,0,1,27.344-.448Zm-.051-1.374a4.514,4.514,0,0,1-1,.232,2.324,2.324,0,0,0-.537.123.535.535,0,0,0-.243.2.525.525,0,0,0-.085.292.524.524,0,0,0,.186.41.8.8,0,0,0,.545.164,1.269,1.269,0,0,0,.632-.156.958.958,0,0,0,.407-.426,1.486,1.486,0,0,0,.1-.615ZM31.223,0V-.458a1.129,1.129,0,0,1-1.015.54,1.423,1.423,0,0,1-.8-.239,1.573,1.573,0,0,1-.564-.668,2.309,2.309,0,0,1-.2-.986,2.581,2.581,0,0,1,.181-.986,1.429,1.429,0,0,1,.543-.678,1.453,1.453,0,0,1,.81-.236,1.21,1.21,0,0,1,.584.138,1.222,1.222,0,0,1,.417.361v-1.8h.612V0ZM29.278-1.812a1.576,1.576,0,0,0,.294,1.042.886.886,0,0,0,.694.345.87.87,0,0,0,.685-.33,1.521,1.521,0,0,0,.282-1.007,1.707,1.707,0,0,0-.287-1.094.883.883,0,0,0-.708-.349.852.852,0,0,0-.685.335A1.653,1.653,0,0,0,29.278-1.812ZM35.13-.448a2.291,2.291,0,0,1-.658.41,1.9,1.9,0,0,1-.678.12,1.32,1.32,0,0,1-.919-.292.965.965,0,0,1-.321-.747.993.993,0,0,1,.121-.487,1,1,0,0,1,.318-.354,1.5,1.5,0,0,1,.443-.2,4.4,4.4,0,0,1,.547-.092,5.623,5.623,0,0,0,1.1-.212q0-.126,0-.161a.679.679,0,0,0-.174-.53,1.03,1.03,0,0,0-.7-.208,1.087,1.087,0,0,0-.641.152.929.929,0,0,0-.306.538l-.6-.082a1.491,1.491,0,0,1,.27-.624,1.184,1.184,0,0,1,.543-.366,2.424,2.424,0,0,1,.824-.128,2.18,2.18,0,0,1,.755.109,1,1,0,0,1,.427.275.968.968,0,0,1,.191.419,3.464,3.464,0,0,1,.031.567v.82A8.707,8.707,0,0,0,35.74-.436,1.369,1.369,0,0,0,35.9,0h-.643A1.3,1.3,0,0,1,35.13-.448Zm-.051-1.374a4.514,4.514,0,0,1-1,.232,2.324,2.324,0,0,0-.537.123.535.535,0,0,0-.243.2.525.525,0,0,0-.085.292.524.524,0,0,0,.186.41A.8.8,0,0,0,33.94-.4a1.269,1.269,0,0,0,.632-.156.958.958,0,0,0,.407-.426,1.486,1.486,0,0,0,.1-.615Zm1.33.738.608-.1a.85.85,0,0,0,.285.561,1,1,0,0,0,.655.195A.962.962,0,0,0,38.585-.6.516.516,0,0,0,38.791-1a.374.374,0,0,0-.181-.328,2.668,2.668,0,0,0-.629-.208,5.739,5.739,0,0,1-.938-.3.909.909,0,0,1-.4-.345.915.915,0,0,1-.135-.487.935.935,0,0,1,.111-.449,1,1,0,0,1,.3-.344,1.268,1.268,0,0,1,.391-.179,1.861,1.861,0,0,1,.531-.073,2.1,2.1,0,0,1,.75.123,1.02,1.02,0,0,1,.477.333,1.3,1.3,0,0,1,.212.562l-.6.082a.658.658,0,0,0-.238-.437.869.869,0,0,0-.555-.157,1.006,1.006,0,0,0-.6.14.408.408,0,0,0-.181.328.34.34,0,0,0,.075.215.543.543,0,0,0,.236.164q.092.034.543.157a7.565,7.565,0,0,1,.911.285.924.924,0,0,1,.405.323.9.9,0,0,1,.147.526,1.033,1.033,0,0,1-.179.579,1.16,1.16,0,0,1-.518.42,1.885,1.885,0,0,1-.766.149,1.706,1.706,0,0,1-1.078-.294A1.367,1.367,0,0,1,36.408-1.083Z" transform="translate(1266.338 2489.32)" fill="#20143b"/>
    <path id="Trazado_160" data-name="Trazado 160" d="M2.83-1.33l.6.079a1.569,1.569,0,0,1-.508.979,1.479,1.479,0,0,1-1,.354,1.559,1.559,0,0,1-1.2-.487A1.976,1.976,0,0,1,.273-1.8,2.527,2.527,0,0,1,.468-2.83a1.358,1.358,0,0,1,.593-.661,1.759,1.759,0,0,1,.866-.22,1.506,1.506,0,0,1,.967.3,1.371,1.371,0,0,1,.482.849l-.6.092a.993.993,0,0,0-.3-.55.783.783,0,0,0-.525-.185.955.955,0,0,0-.755.333A1.582,1.582,0,0,0,.906-1.818a1.635,1.635,0,0,0,.28,1.063.912.912,0,0,0,.731.332.862.862,0,0,0,.6-.222A1.1,1.1,0,0,0,2.83-1.33Zm.9-.485a1.871,1.871,0,0,1,.561-1.494,1.689,1.689,0,0,1,1.142-.4,1.629,1.629,0,0,1,1.224.49,1.866,1.866,0,0,1,.475,1.355,2.4,2.4,0,0,1-.21,1.1,1.488,1.488,0,0,1-.612.624,1.781,1.781,0,0,1-.877.222A1.632,1.632,0,0,1,4.2-.407,1.952,1.952,0,0,1,3.732-1.815Zm.632,0a1.546,1.546,0,0,0,.3,1.044.975.975,0,0,0,.766.347A.969.969,0,0,0,6.2-.772a1.583,1.583,0,0,0,.3-1.063A1.5,1.5,0,0,0,6.2-2.856a.973.973,0,0,0-.76-.347.977.977,0,0,0-.766.345A1.539,1.539,0,0,0,4.365-1.815ZM7.854,0V-3.63h.554v.516a1.3,1.3,0,0,1,1.155-.6,1.516,1.516,0,0,1,.6.118.949.949,0,0,1,.412.309,1.187,1.187,0,0,1,.191.455,3.523,3.523,0,0,1,.034.6V0h-.615V-2.208a1.657,1.657,0,0,0-.072-.562.591.591,0,0,0-.255-.3.81.81,0,0,0-.429-.111,1,1,0,0,0-.678.25,1.231,1.231,0,0,0-.285.947V0Zm8.323-1.169.636.079a1.551,1.551,0,0,1-.557.865,1.675,1.675,0,0,1-1.039.308,1.66,1.66,0,0,1-1.263-.49,1.916,1.916,0,0,1-.467-1.376,2.006,2.006,0,0,1,.472-1.422,1.6,1.6,0,0,1,1.224-.506,1.552,1.552,0,0,1,1.189.5,1.969,1.969,0,0,1,.461,1.395q0,.055,0,.164H14.123a1.4,1.4,0,0,0,.338.916,1.007,1.007,0,0,0,.759.318A.941.941,0,0,0,15.8-.6,1.18,1.18,0,0,0,16.177-1.169Zm-2.02-.995h2.027a1.23,1.23,0,0,0-.232-.687.943.943,0,0,0-.762-.355.977.977,0,0,0-.713.284A1.123,1.123,0,0,0,14.157-2.164ZM17.572,0V-5.011h.615V0Z" transform="translate(1277.474 2498.223)" fill="#20143b"/>
    <path id="Trazado_161" data-name="Trazado 161" transform="translate(1297.62 2499.022)" fill="#20143b"/>
    <path id="Trazado_162" data-name="Trazado 162" d="M.461,0V-3.63h.55v.509a1.294,1.294,0,0,1,.455-.429,1.277,1.277,0,0,1,.646-.162,1.194,1.194,0,0,1,.661.167.9.9,0,0,1,.364.468,1.3,1.3,0,0,1,1.121-.636,1.1,1.1,0,0,1,.831.3,1.278,1.278,0,0,1,.291.921V0H4.768V-2.287a1.684,1.684,0,0,0-.06-.531.515.515,0,0,0-.217-.261.678.678,0,0,0-.369-.1.859.859,0,0,0-.636.255,1.121,1.121,0,0,0-.253.815V0H2.618V-2.358a1.038,1.038,0,0,0-.15-.615.57.57,0,0,0-.492-.205.894.894,0,0,0-.48.137.776.776,0,0,0-.32.4,2.251,2.251,0,0,0-.1.759V0Zm5.6-1.815a1.871,1.871,0,0,1,.561-1.494,1.689,1.689,0,0,1,1.142-.4,1.629,1.629,0,0,1,1.224.49,1.866,1.866,0,0,1,.475,1.355,2.4,2.4,0,0,1-.21,1.1,1.488,1.488,0,0,1-.612.624,1.781,1.781,0,0,1-.877.222A1.632,1.632,0,0,1,6.533-.407,1.952,1.952,0,0,1,6.063-1.815Zm.632,0A1.546,1.546,0,0,0,7-.771a.975.975,0,0,0,.766.347.969.969,0,0,0,.762-.349,1.583,1.583,0,0,0,.3-1.063,1.5,1.5,0,0,0-.306-1.02.973.973,0,0,0-.76-.347A.977.977,0,0,0,7-2.857,1.539,1.539,0,0,0,6.7-1.815ZM11.194,0,9.813-3.63h.649l.779,2.174q.126.352.232.731.082-.287.229-.69L12.51-3.63h.632L11.768,0Zm2.5-4.3v-.708H14.3V-4.3Zm0,4.3V-3.63H14.3V0Zm1.552,0V-3.63h.55v.509a1.294,1.294,0,0,1,.455-.429,1.277,1.277,0,0,1,.646-.162,1.194,1.194,0,0,1,.661.167.9.9,0,0,1,.364.468,1.3,1.3,0,0,1,1.121-.636,1.1,1.1,0,0,1,.831.3,1.278,1.278,0,0,1,.291.921V0h-.612V-2.287a1.684,1.684,0,0,0-.06-.531.515.515,0,0,0-.217-.261.678.678,0,0,0-.369-.1.859.859,0,0,0-.636.255,1.122,1.122,0,0,0-.253.815V0H17.4V-2.358a1.038,1.038,0,0,0-.15-.615.57.57,0,0,0-.492-.205.894.894,0,0,0-.48.137.776.776,0,0,0-.32.4,2.251,2.251,0,0,0-.1.759V0Zm5.834-4.3v-.708h.615V-4.3Zm0,4.3V-3.63h.615V0Zm4.037-1.169.636.079a1.551,1.551,0,0,1-.557.865,1.675,1.675,0,0,1-1.039.308,1.66,1.66,0,0,1-1.263-.49,1.916,1.916,0,0,1-.467-1.376,2.006,2.006,0,0,1,.472-1.422,1.6,1.6,0,0,1,1.224-.506,1.552,1.552,0,0,1,1.189.5,1.969,1.969,0,0,1,.461,1.395q0,.055,0,.164H23.058a1.4,1.4,0,0,0,.338.916,1.007,1.007,0,0,0,.759.318A.941.941,0,0,0,24.732-.6,1.18,1.18,0,0,0,25.112-1.169Zm-2.02-.995h2.027a1.23,1.23,0,0,0-.232-.687.943.943,0,0,0-.762-.355.977.977,0,0,0-.713.284A1.123,1.123,0,0,0,23.092-2.164ZM26.52,0V-3.63h.554v.516a1.3,1.3,0,0,1,1.155-.6,1.516,1.516,0,0,1,.6.118.949.949,0,0,1,.412.309,1.187,1.187,0,0,1,.191.455,3.523,3.523,0,0,1,.034.6V0h-.615V-2.208a1.657,1.657,0,0,0-.072-.562.591.591,0,0,0-.255-.3.81.81,0,0,0-.429-.111,1,1,0,0,0-.678.25,1.231,1.231,0,0,0-.285.947V0Zm5.236-.55.089.543a2.282,2.282,0,0,1-.465.055,1.052,1.052,0,0,1-.52-.106.593.593,0,0,1-.26-.279,2.2,2.2,0,0,1-.075-.726V-3.151h-.451V-3.63h.451v-.9l.612-.369V-3.63h.619v.479h-.619v2.123a1.072,1.072,0,0,0,.032.338.256.256,0,0,0,.106.12.409.409,0,0,0,.21.044A2,2,0,0,0,31.756-.55Z" transform="translate(1268.407 2507.126)" fill="#20143b"/>
    <path id="Trazado_163" data-name="Trazado 163" d="M.232-1.815A1.871,1.871,0,0,1,.793-3.309a1.689,1.689,0,0,1,1.142-.4,1.629,1.629,0,0,1,1.224.49,1.866,1.866,0,0,1,.475,1.355,2.4,2.4,0,0,1-.21,1.1,1.488,1.488,0,0,1-.612.624,1.781,1.781,0,0,1-.877.222A1.632,1.632,0,0,1,.7-.407,1.952,1.952,0,0,1,.232-1.815Zm.632,0a1.546,1.546,0,0,0,.3,1.044.975.975,0,0,0,.766.347A.969.969,0,0,0,2.7-.772,1.583,1.583,0,0,0,3-1.835,1.5,1.5,0,0,0,2.7-2.856a.973.973,0,0,0-.76-.347.977.977,0,0,0-.766.345A1.539,1.539,0,0,0,.865-1.815Z" transform="translate(1302.178 2507.126)" fill="#20143b"/>
    <path id="Trazado_164" data-name="Trazado 164" d="M.574,0V-5.011h3.38v.591H1.237v1.552H3.589v.591H1.237V0ZM7.116,0V-.533A1.329,1.329,0,0,1,5.964.082a1.468,1.468,0,0,1-.6-.123A.988.988,0,0,1,4.951-.35a1.159,1.159,0,0,1-.19-.456,3.124,3.124,0,0,1-.038-.574V-3.63h.615v2.013a3.588,3.588,0,0,0,.038.649.642.642,0,0,0,.246.381.762.762,0,0,0,.465.138,1.013,1.013,0,0,0,.52-.142A.789.789,0,0,0,6.95-.976a1.938,1.938,0,0,0,.1-.709V-3.63h.615V0ZM8.63,0V-3.63h.554v.516a1.3,1.3,0,0,1,1.155-.6,1.516,1.516,0,0,1,.6.118.949.949,0,0,1,.412.309,1.187,1.187,0,0,1,.191.455,3.523,3.523,0,0,1,.034.6V0h-.615V-2.208a1.657,1.657,0,0,0-.072-.562.591.591,0,0,0-.255-.3.81.81,0,0,0-.429-.111,1,1,0,0,0-.678.25,1.231,1.231,0,0,0-.285.947V0Zm6.262-1.33.6.079a1.569,1.569,0,0,1-.508.979,1.479,1.479,0,0,1-1,.354,1.559,1.559,0,0,1-1.2-.487,1.976,1.976,0,0,1-.453-1.4A2.527,2.527,0,0,1,12.53-2.83a1.358,1.358,0,0,1,.593-.661,1.759,1.759,0,0,1,.866-.22,1.506,1.506,0,0,1,.967.3,1.371,1.371,0,0,1,.482.849l-.6.092a.993.993,0,0,0-.3-.55.783.783,0,0,0-.525-.185.955.955,0,0,0-.755.333,1.582,1.582,0,0,0-.291,1.054,1.635,1.635,0,0,0,.28,1.063.912.912,0,0,0,.731.332.862.862,0,0,0,.6-.222A1.1,1.1,0,0,0,14.892-1.33ZM16.027-4.3v-.708h.615V-4.3Zm0,4.3V-3.63h.615V0ZM17.35-1.815a1.871,1.871,0,0,1,.561-1.494,1.689,1.689,0,0,1,1.142-.4,1.629,1.629,0,0,1,1.224.49,1.866,1.866,0,0,1,.475,1.355,2.4,2.4,0,0,1-.21,1.1,1.488,1.488,0,0,1-.612.624,1.781,1.781,0,0,1-.877.222A1.632,1.632,0,0,1,17.82-.407,1.952,1.952,0,0,1,17.35-1.815Zm.632,0a1.546,1.546,0,0,0,.3,1.044.975.975,0,0,0,.766.347.969.969,0,0,0,.762-.349,1.583,1.583,0,0,0,.3-1.063,1.5,1.5,0,0,0-.306-1.02.973.973,0,0,0-.76-.347.977.977,0,0,0-.766.345A1.539,1.539,0,0,0,17.982-1.815ZM21.472,0V-3.63h.554v.516a1.3,1.3,0,0,1,1.155-.6,1.516,1.516,0,0,1,.6.118.949.949,0,0,1,.412.309,1.187,1.187,0,0,1,.191.455,3.523,3.523,0,0,1,.034.6V0h-.615V-2.208a1.657,1.657,0,0,0-.072-.562.591.591,0,0,0-.255-.3.81.81,0,0,0-.429-.111,1,1,0,0,0-.678.25,1.231,1.231,0,0,0-.285.947V0ZM27.85-1.169l.636.079a1.551,1.551,0,0,1-.557.865,1.675,1.675,0,0,1-1.039.308,1.66,1.66,0,0,1-1.263-.49,1.916,1.916,0,0,1-.467-1.376,2.006,2.006,0,0,1,.472-1.422,1.6,1.6,0,0,1,1.224-.506,1.552,1.552,0,0,1,1.189.5,1.969,1.969,0,0,1,.461,1.395q0,.055,0,.164H25.8a1.4,1.4,0,0,0,.338.916,1.007,1.007,0,0,0,.759.318A.941.941,0,0,0,27.47-.6,1.18,1.18,0,0,0,27.85-1.169Zm-2.02-.995h2.027a1.23,1.23,0,0,0-.232-.687.943.943,0,0,0-.762-.355.977.977,0,0,0-.713.284A1.123,1.123,0,0,0,25.83-2.164Zm3.182,1.08.608-.1a.85.85,0,0,0,.285.561,1,1,0,0,0,.655.195A.962.962,0,0,0,31.189-.6.516.516,0,0,0,31.394-1a.374.374,0,0,0-.181-.328,2.668,2.668,0,0,0-.629-.208,5.739,5.739,0,0,1-.938-.3.909.909,0,0,1-.4-.345.915.915,0,0,1-.135-.487.935.935,0,0,1,.111-.449,1,1,0,0,1,.3-.344,1.268,1.268,0,0,1,.391-.179,1.861,1.861,0,0,1,.531-.073,2.1,2.1,0,0,1,.75.123,1.02,1.02,0,0,1,.477.333,1.3,1.3,0,0,1,.212.562l-.6.082a.658.658,0,0,0-.238-.437.869.869,0,0,0-.555-.157,1.006,1.006,0,0,0-.6.14.408.408,0,0,0-.181.328.34.34,0,0,0,.075.215.543.543,0,0,0,.236.164q.092.034.543.157a7.565,7.565,0,0,1,.911.285.924.924,0,0,1,.405.323.9.9,0,0,1,.147.526,1.033,1.033,0,0,1-.179.579,1.16,1.16,0,0,1-.518.42,1.885,1.885,0,0,1-.766.149,1.706,1.706,0,0,1-1.078-.294A1.367,1.367,0,0,1,29.012-1.083ZM37.058,0V-.458a1.129,1.129,0,0,1-1.015.54,1.423,1.423,0,0,1-.8-.239,1.573,1.573,0,0,1-.564-.668,2.309,2.309,0,0,1-.2-.986,2.581,2.581,0,0,1,.181-.986,1.429,1.429,0,0,1,.543-.678,1.453,1.453,0,0,1,.81-.236,1.21,1.21,0,0,1,.584.138,1.222,1.222,0,0,1,.417.361v-1.8h.612V0ZM35.113-1.812a1.576,1.576,0,0,0,.294,1.042.886.886,0,0,0,.694.345.87.87,0,0,0,.685-.33,1.521,1.521,0,0,0,.282-1.007,1.707,1.707,0,0,0-.287-1.094.883.883,0,0,0-.708-.349.852.852,0,0,0-.685.335A1.653,1.653,0,0,0,35.113-1.812Zm5.968.643.636.079a1.551,1.551,0,0,1-.557.865A1.675,1.675,0,0,1,40.12.082a1.66,1.66,0,0,1-1.263-.49,1.916,1.916,0,0,1-.467-1.376,2.006,2.006,0,0,1,.472-1.422,1.6,1.6,0,0,1,1.224-.506,1.552,1.552,0,0,1,1.189.5,1.969,1.969,0,0,1,.461,1.395q0,.055,0,.164H39.026a1.4,1.4,0,0,0,.338.916,1.007,1.007,0,0,0,.759.318A.941.941,0,0,0,40.7-.6,1.18,1.18,0,0,0,41.081-1.169Zm-2.02-.995h2.027a1.23,1.23,0,0,0-.232-.687.943.943,0,0,0-.762-.355.977.977,0,0,0-.713.284A1.123,1.123,0,0,0,39.061-2.164ZM44.42,0V-5.011h.615V0Zm3.938-.448a2.291,2.291,0,0,1-.658.41,1.9,1.9,0,0,1-.678.12A1.32,1.32,0,0,1,46.1-.21a.965.965,0,0,1-.321-.747.993.993,0,0,1,.121-.487,1,1,0,0,1,.318-.354,1.5,1.5,0,0,1,.443-.2,4.4,4.4,0,0,1,.547-.092,5.623,5.623,0,0,0,1.1-.212q0-.126,0-.161a.679.679,0,0,0-.174-.53,1.03,1.03,0,0,0-.7-.208,1.087,1.087,0,0,0-.641.152.929.929,0,0,0-.306.538l-.6-.082a1.491,1.491,0,0,1,.27-.624,1.184,1.184,0,0,1,.543-.366,2.424,2.424,0,0,1,.824-.128,2.18,2.18,0,0,1,.755.109,1,1,0,0,1,.427.275.968.968,0,0,1,.191.419,3.464,3.464,0,0,1,.031.567v.82a8.707,8.707,0,0,0,.039,1.085A1.369,1.369,0,0,0,49.123,0H48.48A1.3,1.3,0,0,1,48.357-.448Zm-.051-1.374a4.514,4.514,0,0,1-1,.232,2.324,2.324,0,0,0-.537.123.535.535,0,0,0-.243.2.525.525,0,0,0-.085.292.524.524,0,0,0,.186.41.8.8,0,0,0,.545.164A1.269,1.269,0,0,0,47.8-.555a.958.958,0,0,0,.407-.426,1.486,1.486,0,0,0,.1-.615Zm1.33.738.608-.1a.85.85,0,0,0,.285.561,1,1,0,0,0,.655.195A.962.962,0,0,0,51.813-.6.516.516,0,0,0,52.018-1a.374.374,0,0,0-.181-.328,2.668,2.668,0,0,0-.629-.208,5.739,5.739,0,0,1-.938-.3.909.909,0,0,1-.4-.345.915.915,0,0,1-.135-.487.935.935,0,0,1,.111-.449,1,1,0,0,1,.3-.344,1.268,1.268,0,0,1,.391-.179,1.861,1.861,0,0,1,.531-.073,2.1,2.1,0,0,1,.75.123,1.02,1.02,0,0,1,.477.333,1.3,1.3,0,0,1,.212.562l-.6.082a.658.658,0,0,0-.238-.437.869.869,0,0,0-.555-.157,1.006,1.006,0,0,0-.6.14.408.408,0,0,0-.181.328.34.34,0,0,0,.075.215.543.543,0,0,0,.236.164q.092.034.543.157a7.565,7.565,0,0,1,.911.285.924.924,0,0,1,.405.323.9.9,0,0,1,.147.526,1.033,1.033,0,0,1-.179.579,1.16,1.16,0,0,1-.518.42,1.885,1.885,0,0,1-.766.149,1.706,1.706,0,0,1-1.078-.294A1.367,1.367,0,0,1,49.636-1.083Zm8.06.636a2.291,2.291,0,0,1-.658.41,1.9,1.9,0,0,1-.678.12,1.32,1.32,0,0,1-.919-.292.965.965,0,0,1-.321-.747.993.993,0,0,1,.121-.487,1,1,0,0,1,.318-.354A1.5,1.5,0,0,1,56-2a4.4,4.4,0,0,1,.547-.092,5.623,5.623,0,0,0,1.1-.212q0-.126,0-.161a.679.679,0,0,0-.174-.53,1.03,1.03,0,0,0-.7-.208,1.087,1.087,0,0,0-.641.152.929.929,0,0,0-.306.538l-.6-.082a1.491,1.491,0,0,1,.27-.624,1.184,1.184,0,0,1,.543-.366,2.424,2.424,0,0,1,.824-.128,2.18,2.18,0,0,1,.755.109,1,1,0,0,1,.427.275.968.968,0,0,1,.191.419,3.464,3.464,0,0,1,.031.567v.82a8.707,8.707,0,0,0,.039,1.085A1.369,1.369,0,0,0,58.461,0h-.643A1.3,1.3,0,0,1,57.7-.448Zm-.051-1.374a4.514,4.514,0,0,1-1,.232,2.324,2.324,0,0,0-.537.123.535.535,0,0,0-.243.2.525.525,0,0,0-.085.292.524.524,0,0,0,.186.41.8.8,0,0,0,.545.164,1.269,1.269,0,0,0,.632-.156.958.958,0,0,0,.407-.426,1.486,1.486,0,0,0,.1-.615ZM59.213,0V-3.63h.554v.55a1.5,1.5,0,0,1,.391-.509.683.683,0,0,1,.395-.123,1.2,1.2,0,0,1,.632.2l-.212.571a.88.88,0,0,0-.451-.133.586.586,0,0,0-.362.121.657.657,0,0,0-.229.337,2.4,2.4,0,0,0-.1.718V0Zm3.681-.55.089.543a2.282,2.282,0,0,1-.465.055A1.052,1.052,0,0,1,62-.058a.593.593,0,0,1-.26-.279,2.2,2.2,0,0,1-.075-.726V-3.151h-.451V-3.63h.451v-.9l.612-.369V-3.63h.619v.479h-.619v2.123a1.072,1.072,0,0,0,.032.338.256.256,0,0,0,.106.12.409.409,0,0,0,.21.044A2,2,0,0,0,62.894-.55ZM63.5-4.3v-.708h.615V-4.3Zm0,4.3V-3.63h.615V0Zm3.92-1.33.6.079a1.569,1.569,0,0,1-.508.979,1.479,1.479,0,0,1-1,.354,1.559,1.559,0,0,1-1.2-.487,1.976,1.976,0,0,1-.453-1.4,2.527,2.527,0,0,1,.195-1.029,1.358,1.358,0,0,1,.593-.661,1.76,1.76,0,0,1,.866-.22,1.506,1.506,0,0,1,.967.3,1.371,1.371,0,0,1,.482.849l-.6.092a.993.993,0,0,0-.3-.55.783.783,0,0,0-.525-.185.955.955,0,0,0-.755.333A1.582,1.582,0,0,0,65.5-1.818a1.635,1.635,0,0,0,.28,1.063.912.912,0,0,0,.731.332.862.862,0,0,0,.6-.222A1.1,1.1,0,0,0,67.419-1.33ZM70.93,0V-.533a1.329,1.329,0,0,1-1.152.615,1.468,1.468,0,0,1-.6-.123.988.988,0,0,1-.414-.309,1.159,1.159,0,0,1-.19-.456,3.124,3.124,0,0,1-.038-.574V-3.63h.615v2.013a3.588,3.588,0,0,0,.038.649.642.642,0,0,0,.246.381.762.762,0,0,0,.465.138,1.013,1.013,0,0,0,.52-.142.789.789,0,0,0,.344-.386,1.938,1.938,0,0,0,.1-.709V-3.63h.615V0Zm1.5,0V-5.011h.615V0Zm3.938-.448a2.291,2.291,0,0,1-.658.41,1.9,1.9,0,0,1-.678.12,1.32,1.32,0,0,1-.919-.292.965.965,0,0,1-.321-.747.993.993,0,0,1,.121-.487A1,1,0,0,1,74.23-1.8a1.5,1.5,0,0,1,.443-.2,4.4,4.4,0,0,1,.547-.092,5.623,5.623,0,0,0,1.1-.212q0-.126,0-.161a.679.679,0,0,0-.174-.53,1.03,1.03,0,0,0-.7-.208,1.087,1.087,0,0,0-.641.152.929.929,0,0,0-.306.538l-.6-.082a1.491,1.491,0,0,1,.27-.624,1.184,1.184,0,0,1,.543-.366,2.424,2.424,0,0,1,.824-.128,2.18,2.18,0,0,1,.755.109,1,1,0,0,1,.427.275.968.968,0,0,1,.191.419,3.464,3.464,0,0,1,.031.567v.82a8.706,8.706,0,0,0,.039,1.085A1.369,1.369,0,0,0,77.133,0h-.643A1.3,1.3,0,0,1,76.368-.448Zm-.051-1.374a4.514,4.514,0,0,1-1,.232,2.324,2.324,0,0,0-.537.123.535.535,0,0,0-.243.2.525.525,0,0,0-.085.292.524.524,0,0,0,.186.41.8.8,0,0,0,.545.164,1.269,1.269,0,0,0,.632-.156.958.958,0,0,0,.407-.426,1.486,1.486,0,0,0,.1-.615Zm3.944.492.6.079a1.569,1.569,0,0,1-.508.979,1.479,1.479,0,0,1-1,.354,1.559,1.559,0,0,1-1.2-.487A1.976,1.976,0,0,1,77.7-1.8,2.527,2.527,0,0,1,77.9-2.83a1.358,1.358,0,0,1,.593-.661,1.76,1.76,0,0,1,.866-.22,1.506,1.506,0,0,1,.967.3,1.371,1.371,0,0,1,.482.849l-.6.092a.993.993,0,0,0-.3-.55.783.783,0,0,0-.525-.185.955.955,0,0,0-.755.333,1.582,1.582,0,0,0-.291,1.054,1.635,1.635,0,0,0,.28,1.063.912.912,0,0,0,.731.332.862.862,0,0,0,.6-.222A1.1,1.1,0,0,0,80.261-1.33ZM81.4-4.3v-.708h.615V-4.3Zm0,4.3V-3.63h.615V0Zm1.323-1.815a1.871,1.871,0,0,1,.561-1.494,1.689,1.689,0,0,1,1.142-.4,1.629,1.629,0,0,1,1.224.49,1.866,1.866,0,0,1,.475,1.355,2.4,2.4,0,0,1-.21,1.1A1.488,1.488,0,0,1,85.3-.14a1.781,1.781,0,0,1-.877.222,1.632,1.632,0,0,1-1.232-.489A1.952,1.952,0,0,1,82.718-1.815Zm.632,0a1.546,1.546,0,0,0,.3,1.044.975.975,0,0,0,.766.347.969.969,0,0,0,.762-.349,1.583,1.583,0,0,0,.3-1.063,1.5,1.5,0,0,0-.306-1.02.973.973,0,0,0-.76-.347.977.977,0,0,0-.766.345A1.539,1.539,0,0,0,83.351-1.815ZM86.84,0V-3.63h.554v.516a1.3,1.3,0,0,1,1.155-.6,1.516,1.516,0,0,1,.6.118.949.949,0,0,1,.412.309,1.187,1.187,0,0,1,.191.455,3.523,3.523,0,0,1,.034.6V0h-.615V-2.208A1.657,1.657,0,0,0,89.1-2.77a.591.591,0,0,0-.255-.3.81.81,0,0,0-.429-.111,1,1,0,0,0-.678.25,1.231,1.231,0,0,0-.285.947V0Zm6.378-1.169.636.079a1.551,1.551,0,0,1-.557.865,1.675,1.675,0,0,1-1.039.308,1.66,1.66,0,0,1-1.263-.49,1.916,1.916,0,0,1-.467-1.376A2.006,2.006,0,0,1,91-3.206a1.6,1.6,0,0,1,1.224-.506,1.552,1.552,0,0,1,1.189.5,1.969,1.969,0,0,1,.461,1.395q0,.055,0,.164H91.164a1.4,1.4,0,0,0,.338.916,1.007,1.007,0,0,0,.759.318A.941.941,0,0,0,92.839-.6,1.18,1.18,0,0,0,93.218-1.169ZM91.2-2.164h2.027a1.23,1.23,0,0,0-.232-.687.943.943,0,0,0-.762-.355.977.977,0,0,0-.713.284A1.123,1.123,0,0,0,91.2-2.164Zm3.182,1.08.608-.1a.85.85,0,0,0,.285.561,1,1,0,0,0,.655.195A.962.962,0,0,0,96.558-.6.516.516,0,0,0,96.763-1a.374.374,0,0,0-.181-.328,2.668,2.668,0,0,0-.629-.208,5.739,5.739,0,0,1-.938-.3.909.909,0,0,1-.4-.345.915.915,0,0,1-.135-.487.935.935,0,0,1,.111-.449,1,1,0,0,1,.3-.344,1.268,1.268,0,0,1,.391-.179,1.861,1.861,0,0,1,.531-.073,2.1,2.1,0,0,1,.75.123,1.02,1.02,0,0,1,.477.333,1.3,1.3,0,0,1,.212.562l-.6.082a.658.658,0,0,0-.238-.437.869.869,0,0,0-.555-.157,1.006,1.006,0,0,0-.6.14.408.408,0,0,0-.181.328.34.34,0,0,0,.075.215.543.543,0,0,0,.236.164q.092.034.543.157a7.565,7.565,0,0,1,.911.285.924.924,0,0,1,.405.323.9.9,0,0,1,.147.526,1.033,1.033,0,0,1-.179.579,1.16,1.16,0,0,1-.518.42,1.885,1.885,0,0,1-.766.149,1.706,1.706,0,0,1-1.078-.294A1.367,1.367,0,0,1,94.38-1.083ZM100.044,1.4,99.976.82a1.371,1.371,0,0,0,.352.055.676.676,0,0,0,.328-.068.559.559,0,0,0,.2-.191,3.018,3.018,0,0,0,.188-.458q.017-.051.055-.15L99.723-3.63h.663l.755,2.1q.147.4.263.841a8.278,8.278,0,0,1,.253-.827l.776-2.116h.615L101.667.062a7.245,7.245,0,0,1-.345.824,1.215,1.215,0,0,1-.376.446.888.888,0,0,1-.506.142A1.232,1.232,0,0,1,100.044,1.4ZM105.5,0V-5.011h.615V0Zm1.34-1.815a1.871,1.871,0,0,1,.561-1.494,1.689,1.689,0,0,1,1.142-.4,1.629,1.629,0,0,1,1.224.49,1.866,1.866,0,0,1,.475,1.355,2.4,2.4,0,0,1-.21,1.1,1.488,1.488,0,0,1-.612.624,1.781,1.781,0,0,1-.877.222,1.632,1.632,0,0,1-1.232-.489A1.952,1.952,0,0,1,106.842-1.815Zm.632,0a1.546,1.546,0,0,0,.3,1.044.975.975,0,0,0,.766.347.969.969,0,0,0,.762-.349,1.583,1.583,0,0,0,.3-1.063,1.5,1.5,0,0,0-.306-1.02.973.973,0,0,0-.76-.347.977.977,0,0,0-.766.345A1.539,1.539,0,0,0,107.475-1.815Zm3.244.731.608-.1a.85.85,0,0,0,.285.561,1,1,0,0,0,.655.195A.962.962,0,0,0,112.9-.6.516.516,0,0,0,113.1-1a.374.374,0,0,0-.181-.328,2.668,2.668,0,0,0-.629-.208,5.739,5.739,0,0,1-.938-.3.909.909,0,0,1-.4-.345.915.915,0,0,1-.135-.487.935.935,0,0,1,.111-.449,1,1,0,0,1,.3-.344,1.268,1.268,0,0,1,.391-.179,1.861,1.861,0,0,1,.531-.073,2.1,2.1,0,0,1,.75.123,1.02,1.02,0,0,1,.477.333,1.3,1.3,0,0,1,.212.562l-.6.082a.658.658,0,0,0-.238-.437.869.869,0,0,0-.555-.157,1.006,1.006,0,0,0-.6.14.408.408,0,0,0-.181.328.34.34,0,0,0,.075.215.543.543,0,0,0,.236.164q.092.034.543.157a7.565,7.565,0,0,1,.911.285.924.924,0,0,1,.405.323.9.9,0,0,1,.147.526,1.033,1.033,0,0,1-.179.579,1.16,1.16,0,0,1-.518.42,1.885,1.885,0,0,1-.766.149,1.706,1.706,0,0,1-1.078-.294A1.367,1.367,0,0,1,110.718-1.083Z" transform="translate(1333.227 2460.965)" fill="#20143b"/>
    <path id="Trazado_165" data-name="Trazado 165" d="M.461,0V-5.011h.615v1.8a1.374,1.374,0,0,1,1.087-.5,1.466,1.466,0,0,1,.7.159.933.933,0,0,1,.426.439,2.025,2.025,0,0,1,.128.813V0H2.8V-2.3a.95.95,0,0,0-.2-.672.743.743,0,0,0-.566-.21,1,1,0,0,0-.514.142.8.8,0,0,0-.344.385,1.766,1.766,0,0,0-.1.67V0ZM6.733,0V-.533A1.329,1.329,0,0,1,5.582.082a1.468,1.468,0,0,1-.6-.123A.988.988,0,0,1,4.568-.35a1.159,1.159,0,0,1-.19-.456,3.124,3.124,0,0,1-.038-.574V-3.63h.615v2.013a3.588,3.588,0,0,0,.038.649.642.642,0,0,0,.246.381A.762.762,0,0,0,5.7-.448a1.013,1.013,0,0,0,.52-.142.789.789,0,0,0,.344-.386,1.938,1.938,0,0,0,.1-.709V-3.63h.615V0Zm4-1.169.636.079a1.551,1.551,0,0,1-.557.865A1.675,1.675,0,0,1,9.772.082a1.66,1.66,0,0,1-1.263-.49,1.916,1.916,0,0,1-.467-1.376,2.006,2.006,0,0,1,.472-1.422,1.6,1.6,0,0,1,1.224-.506,1.552,1.552,0,0,1,1.189.5,1.969,1.969,0,0,1,.461,1.395q0,.055,0,.164H8.678a1.4,1.4,0,0,0,.338.916,1.007,1.007,0,0,0,.759.318A.941.941,0,0,0,10.353-.6,1.18,1.18,0,0,0,10.732-1.169Zm-2.02-.995h2.027a1.23,1.23,0,0,0-.232-.687.943.943,0,0,0-.762-.355.977.977,0,0,0-.713.284A1.123,1.123,0,0,0,8.712-2.164Zm3.182,1.08.608-.1a.85.85,0,0,0,.285.561,1,1,0,0,0,.655.195A.962.962,0,0,0,14.072-.6.516.516,0,0,0,14.277-1,.374.374,0,0,0,14.1-1.33a2.668,2.668,0,0,0-.629-.208,5.739,5.739,0,0,1-.938-.3.909.909,0,0,1-.4-.345A.915.915,0,0,1,12-2.666a.935.935,0,0,1,.111-.449,1,1,0,0,1,.3-.344,1.268,1.268,0,0,1,.391-.179,1.861,1.861,0,0,1,.531-.073,2.1,2.1,0,0,1,.75.123,1.02,1.02,0,0,1,.477.333,1.3,1.3,0,0,1,.212.562l-.6.082a.658.658,0,0,0-.238-.437.869.869,0,0,0-.555-.157,1.006,1.006,0,0,0-.6.14.408.408,0,0,0-.181.328.34.34,0,0,0,.075.215.543.543,0,0,0,.236.164q.092.034.543.157a7.565,7.565,0,0,1,.911.285.924.924,0,0,1,.405.323.9.9,0,0,1,.147.526,1.033,1.033,0,0,1-.179.579,1.16,1.16,0,0,1-.518.42,1.885,1.885,0,0,1-.766.149,1.706,1.706,0,0,1-1.078-.294A1.367,1.367,0,0,1,11.895-1.083Zm3.517-.731a1.871,1.871,0,0,1,.561-1.494,1.689,1.689,0,0,1,1.142-.4,1.629,1.629,0,0,1,1.224.49,1.866,1.866,0,0,1,.475,1.355,2.4,2.4,0,0,1-.21,1.1,1.488,1.488,0,0,1-.612.624,1.781,1.781,0,0,1-.877.222,1.632,1.632,0,0,1-1.232-.489A1.952,1.952,0,0,1,15.412-1.815Zm.632,0a1.546,1.546,0,0,0,.3,1.044.975.975,0,0,0,.766.347.969.969,0,0,0,.762-.349,1.583,1.583,0,0,0,.3-1.063,1.5,1.5,0,0,0-.306-1.02.973.973,0,0,0-.76-.347.977.977,0,0,0-.766.345A1.539,1.539,0,0,0,16.044-1.815Zm3.244.731.608-.1a.85.85,0,0,0,.285.561,1,1,0,0,0,.655.195A.962.962,0,0,0,21.465-.6.516.516,0,0,0,21.67-1a.374.374,0,0,0-.181-.328,2.668,2.668,0,0,0-.629-.208,5.739,5.739,0,0,1-.938-.3.909.909,0,0,1-.4-.345.915.915,0,0,1-.135-.487.935.935,0,0,1,.111-.449,1,1,0,0,1,.3-.344,1.268,1.268,0,0,1,.391-.179,1.861,1.861,0,0,1,.531-.073,2.1,2.1,0,0,1,.75.123,1.02,1.02,0,0,1,.477.333,1.3,1.3,0,0,1,.212.562l-.6.082a.658.658,0,0,0-.238-.437.869.869,0,0,0-.555-.157,1.006,1.006,0,0,0-.6.14.408.408,0,0,0-.181.328.34.34,0,0,0,.075.215.543.543,0,0,0,.236.164q.092.034.543.157a7.565,7.565,0,0,1,.911.285.924.924,0,0,1,.405.323.9.9,0,0,1,.147.526,1.033,1.033,0,0,1-.179.579,1.16,1.16,0,0,1-.518.42,1.885,1.885,0,0,1-.766.149,1.706,1.706,0,0,1-1.078-.294A1.367,1.367,0,0,1,19.288-1.083Zm6.867,2.557a6.15,6.15,0,0,1-.861-1.5,4.673,4.673,0,0,1-.352-1.784A4.645,4.645,0,0,1,25.2-3.374a6.552,6.552,0,0,1,.95-1.723H26.6q-.414.711-.547,1.015a5.546,5.546,0,0,0-.328.984,5.717,5.717,0,0,0-.147,1.285A6.168,6.168,0,0,0,26.6,1.473ZM27.877,0h-.571V-5.011h.615v1.788a1.217,1.217,0,0,1,.995-.489,1.523,1.523,0,0,1,.634.135,1.3,1.3,0,0,1,.492.379,1.834,1.834,0,0,1,.3.59,2.431,2.431,0,0,1,.109.738,2.074,2.074,0,0,1-.461,1.442,1.443,1.443,0,0,1-1.107.509,1.156,1.156,0,0,1-1.008-.537ZM27.87-1.842a1.884,1.884,0,0,0,.178.943.886.886,0,0,0,.786.475.885.885,0,0,0,.7-.35,1.592,1.592,0,0,0,.294-1.044,1.62,1.62,0,0,0-.282-1.049.859.859,0,0,0-.682-.338.885.885,0,0,0-.7.35A1.538,1.538,0,0,0,27.87-1.842Zm3.2-2.512v-.591h3.244v.479a6.835,6.835,0,0,0-.948,1.354,8.244,8.244,0,0,0-.726,1.736A6.454,6.454,0,0,0,32.406,0h-.632a6.14,6.14,0,0,1,.232-1.429,7.5,7.5,0,0,1,.637-1.615,6.923,6.923,0,0,1,.884-1.311ZM37.242,0h-.615V-3.92a3.18,3.18,0,0,1-.583.424,4.131,4.131,0,0,1-.648.318v-.595a3.716,3.716,0,0,0,.9-.588,2.312,2.312,0,0,0,.547-.67h.4Zm1.576-2.471A4.585,4.585,0,0,1,39-3.9a1.779,1.779,0,0,1,.543-.836,1.389,1.389,0,0,1,.907-.294,1.481,1.481,0,0,1,.708.162,1.352,1.352,0,0,1,.5.468,2.512,2.512,0,0,1,.311.745,4.951,4.951,0,0,1,.113,1.184A4.6,4.6,0,0,1,41.9-1.048a1.78,1.78,0,0,1-.542.837,1.389,1.389,0,0,1-.911.3,1.375,1.375,0,0,1-1.138-.52A3.3,3.3,0,0,1,38.818-2.471Zm.632,0a3.142,3.142,0,0,0,.289,1.642.851.851,0,0,0,.713.408.85.85,0,0,0,.713-.41,3.143,3.143,0,0,0,.289-1.641,3.141,3.141,0,0,0-.289-1.644.857.857,0,0,0-.719-.407.788.788,0,0,0-.677.359A3.178,3.178,0,0,0,39.45-2.471Zm3.192.967v-.619h1.89V-1.5ZM45.78,0h-.571V-5.011h.615v1.788a1.217,1.217,0,0,1,.995-.489,1.523,1.523,0,0,1,.634.135,1.3,1.3,0,0,1,.492.379,1.834,1.834,0,0,1,.3.59,2.431,2.431,0,0,1,.109.738A2.074,2.074,0,0,1,47.9-.427a1.443,1.443,0,0,1-1.107.509A1.156,1.156,0,0,1,45.78-.455Zm-.007-1.842a1.884,1.884,0,0,0,.178.943.886.886,0,0,0,.786.475.885.885,0,0,0,.7-.35,1.592,1.592,0,0,0,.294-1.044,1.62,1.62,0,0,0-.282-1.049.859.859,0,0,0-.682-.338.885.885,0,0,0-.7.35A1.538,1.538,0,0,0,45.773-1.842Zm3.2-2.512v-.591H52.22v.479a6.835,6.835,0,0,0-.948,1.354,8.244,8.244,0,0,0-.726,1.736A6.454,6.454,0,0,0,50.309,0h-.632a6.14,6.14,0,0,1,.232-1.429,7.5,7.5,0,0,1,.637-1.615,6.923,6.923,0,0,1,.884-1.311ZM56.062-.591V0H52.75a1.088,1.088,0,0,1,.072-.427,2.26,2.26,0,0,1,.405-.667,6.346,6.346,0,0,1,.8-.759,6.823,6.823,0,0,0,1.1-1.061,1.271,1.271,0,0,0,.287-.74.822.822,0,0,0-.261-.617.943.943,0,0,0-.682-.251.961.961,0,0,0-.711.267,1.009,1.009,0,0,0-.27.738l-.632-.065a1.556,1.556,0,0,1,.489-1.078,1.667,1.667,0,0,1,1.138-.371,1.588,1.588,0,0,1,1.142.4,1.313,1.313,0,0,1,.42.991,1.5,1.5,0,0,1-.123.591,2.3,2.3,0,0,1-.408.612,9.95,9.95,0,0,1-.948.882q-.554.465-.711.631a2.023,2.023,0,0,0-.26.333Zm.752-.567.591-.055a1.027,1.027,0,0,0,.287.6.788.788,0,0,0,.543.188.938.938,0,0,0,.5-.13,1.062,1.062,0,0,0,.35-.347,2.039,2.039,0,0,0,.229-.586,3.089,3.089,0,0,0,.092-.752q0-.041,0-.123a1.409,1.409,0,0,1-.5.477A1.37,1.37,0,0,1,58.2-1.7a1.4,1.4,0,0,1-1.053-.451,1.651,1.651,0,0,1-.431-1.189,1.691,1.691,0,0,1,.449-1.227A1.5,1.5,0,0,1,58.3-5.031a1.607,1.607,0,0,1,.894.263,1.644,1.644,0,0,1,.615.75,3.7,3.7,0,0,1,.21,1.41,4.563,4.563,0,0,1-.208,1.53,1.791,1.791,0,0,1-.62.866,1.606,1.606,0,0,1-.966.3,1.4,1.4,0,0,1-.96-.326A1.4,1.4,0,0,1,56.813-1.159ZM59.333-3.37a1.2,1.2,0,0,0-.282-.841.884.884,0,0,0-.678-.311.937.937,0,0,0-.714.335,1.241,1.241,0,0,0-.3.868,1.072,1.072,0,0,0,.289.778.951.951,0,0,0,.713.3.912.912,0,0,0,.7-.3A1.178,1.178,0,0,0,59.333-3.37Z" transform="translate(1360.441 2469.867)" fill="#20143b"/>
    <path id="Trazado_166" data-name="Trazado 166" d="M.865,1.473H.424A6.168,6.168,0,0,0,1.446-1.812,5.613,5.613,0,0,0,1.3-3.086a5.358,5.358,0,0,0-.325-.984A11.547,11.547,0,0,0,.424-5.1H.865a6.552,6.552,0,0,1,.95,1.723,4.645,4.645,0,0,1,.263,1.559A4.653,4.653,0,0,1,1.724-.031,6.259,6.259,0,0,1,.865,1.473Z" transform="translate(1424.312 2469.867)" fill="#20143b"/>
    <path id="Trazado_167" data-name="Trazado 167" d="M.574,0V-5.011h3.38v.591H1.237v1.552H3.589v.591H1.237V0ZM7.116,0V-.533A1.329,1.329,0,0,1,5.964.082a1.468,1.468,0,0,1-.6-.123A.988.988,0,0,1,4.951-.35a1.159,1.159,0,0,1-.19-.456,3.124,3.124,0,0,1-.038-.574V-3.63h.615v2.013a3.588,3.588,0,0,0,.038.649.642.642,0,0,0,.246.381.762.762,0,0,0,.465.138,1.013,1.013,0,0,0,.52-.142A.789.789,0,0,0,6.95-.976a1.938,1.938,0,0,0,.1-.709V-3.63h.615V0ZM8.63,0V-3.63h.554v.516a1.3,1.3,0,0,1,1.155-.6,1.516,1.516,0,0,1,.6.118.949.949,0,0,1,.412.309,1.187,1.187,0,0,1,.191.455,3.523,3.523,0,0,1,.034.6V0h-.615V-2.208a1.657,1.657,0,0,0-.072-.562.591.591,0,0,0-.255-.3.81.81,0,0,0-.429-.111,1,1,0,0,0-.678.25,1.231,1.231,0,0,0-.285.947V0Zm6.262-1.33.6.079a1.569,1.569,0,0,1-.508.979,1.479,1.479,0,0,1-1,.354,1.559,1.559,0,0,1-1.2-.487,1.976,1.976,0,0,1-.453-1.4A2.527,2.527,0,0,1,12.53-2.83a1.358,1.358,0,0,1,.593-.661,1.759,1.759,0,0,1,.866-.22,1.506,1.506,0,0,1,.967.3,1.371,1.371,0,0,1,.482.849l-.6.092a.993.993,0,0,0-.3-.55.783.783,0,0,0-.525-.185.955.955,0,0,0-.755.333,1.582,1.582,0,0,0-.291,1.054,1.635,1.635,0,0,0,.28,1.063.912.912,0,0,0,.731.332.862.862,0,0,0,.6-.222A1.1,1.1,0,0,0,14.892-1.33ZM16.027-4.3v-.708h.615V-4.3Zm0,4.3V-3.63h.615V0ZM17.35-1.815a1.871,1.871,0,0,1,.561-1.494,1.689,1.689,0,0,1,1.142-.4,1.629,1.629,0,0,1,1.224.49,1.866,1.866,0,0,1,.475,1.355,2.4,2.4,0,0,1-.21,1.1,1.488,1.488,0,0,1-.612.624,1.781,1.781,0,0,1-.877.222A1.632,1.632,0,0,1,17.82-.407,1.952,1.952,0,0,1,17.35-1.815Zm.632,0a1.546,1.546,0,0,0,.3,1.044.975.975,0,0,0,.766.347.969.969,0,0,0,.762-.349,1.583,1.583,0,0,0,.3-1.063,1.5,1.5,0,0,0-.306-1.02.973.973,0,0,0-.76-.347.977.977,0,0,0-.766.345A1.539,1.539,0,0,0,17.982-1.815ZM21.472,0V-3.63h.554v.516a1.3,1.3,0,0,1,1.155-.6,1.516,1.516,0,0,1,.6.118.949.949,0,0,1,.412.309,1.187,1.187,0,0,1,.191.455,3.523,3.523,0,0,1,.034.6V0h-.615V-2.208a1.657,1.657,0,0,0-.072-.562.591.591,0,0,0-.255-.3.81.81,0,0,0-.429-.111,1,1,0,0,0-.678.25,1.231,1.231,0,0,0-.285.947V0ZM27.85-1.169l.636.079a1.551,1.551,0,0,1-.557.865,1.675,1.675,0,0,1-1.039.308,1.66,1.66,0,0,1-1.263-.49,1.916,1.916,0,0,1-.467-1.376,2.006,2.006,0,0,1,.472-1.422,1.6,1.6,0,0,1,1.224-.506,1.552,1.552,0,0,1,1.189.5,1.969,1.969,0,0,1,.461,1.395q0,.055,0,.164H25.8a1.4,1.4,0,0,0,.338.916,1.007,1.007,0,0,0,.759.318A.941.941,0,0,0,27.47-.6,1.18,1.18,0,0,0,27.85-1.169Zm-2.02-.995h2.027a1.23,1.23,0,0,0-.232-.687.943.943,0,0,0-.762-.355.977.977,0,0,0-.713.284A1.123,1.123,0,0,0,25.83-2.164Zm3.182,1.08.608-.1a.85.85,0,0,0,.285.561,1,1,0,0,0,.655.195A.962.962,0,0,0,31.189-.6.516.516,0,0,0,31.394-1a.374.374,0,0,0-.181-.328,2.668,2.668,0,0,0-.629-.208,5.739,5.739,0,0,1-.938-.3.909.909,0,0,1-.4-.345.915.915,0,0,1-.135-.487.935.935,0,0,1,.111-.449,1,1,0,0,1,.3-.344,1.268,1.268,0,0,1,.391-.179,1.861,1.861,0,0,1,.531-.073,2.1,2.1,0,0,1,.75.123,1.02,1.02,0,0,1,.477.333,1.3,1.3,0,0,1,.212.562l-.6.082a.658.658,0,0,0-.238-.437.869.869,0,0,0-.555-.157,1.006,1.006,0,0,0-.6.14.408.408,0,0,0-.181.328.34.34,0,0,0,.075.215.543.543,0,0,0,.236.164q.092.034.543.157a7.565,7.565,0,0,1,.911.285.924.924,0,0,1,.405.323.9.9,0,0,1,.147.526,1.033,1.033,0,0,1-.179.579,1.16,1.16,0,0,1-.518.42,1.885,1.885,0,0,1-.766.149,1.706,1.706,0,0,1-1.078-.294A1.367,1.367,0,0,1,29.012-1.083ZM34.7,0V-3.63h.554v.55a1.5,1.5,0,0,1,.391-.509.683.683,0,0,1,.395-.123,1.2,1.2,0,0,1,.632.2l-.212.571A.88.88,0,0,0,36-3.076a.586.586,0,0,0-.362.121.657.657,0,0,0-.229.337,2.4,2.4,0,0,0-.1.718V0Zm4.823-1.169.636.079a1.551,1.551,0,0,1-.557.865,1.675,1.675,0,0,1-1.039.308A1.66,1.66,0,0,1,37.3-.408a1.916,1.916,0,0,1-.467-1.376A2.006,2.006,0,0,1,37.3-3.206a1.6,1.6,0,0,1,1.224-.506,1.552,1.552,0,0,1,1.189.5,1.969,1.969,0,0,1,.461,1.395q0,.055,0,.164H37.464a1.4,1.4,0,0,0,.338.916,1.007,1.007,0,0,0,.759.318A.941.941,0,0,0,39.139-.6,1.18,1.18,0,0,0,39.519-1.169ZM37.5-2.164h2.027a1.23,1.23,0,0,0-.232-.687.943.943,0,0,0-.762-.355.977.977,0,0,0-.713.284A1.123,1.123,0,0,0,37.5-2.164ZM40.913,0V-5.011h.615V0Zm3.938-.448a2.291,2.291,0,0,1-.658.41,1.9,1.9,0,0,1-.678.12,1.32,1.32,0,0,1-.919-.292.965.965,0,0,1-.321-.747.993.993,0,0,1,.121-.487,1,1,0,0,1,.318-.354,1.5,1.5,0,0,1,.443-.2,4.4,4.4,0,0,1,.547-.092A5.623,5.623,0,0,0,44.8-2.3q0-.126,0-.161a.679.679,0,0,0-.174-.53,1.03,1.03,0,0,0-.7-.208,1.087,1.087,0,0,0-.641.152.929.929,0,0,0-.306.538l-.6-.082a1.491,1.491,0,0,1,.27-.624,1.184,1.184,0,0,1,.543-.366,2.424,2.424,0,0,1,.824-.128,2.18,2.18,0,0,1,.755.109,1,1,0,0,1,.427.275.968.968,0,0,1,.191.419,3.464,3.464,0,0,1,.031.567v.82a8.707,8.707,0,0,0,.039,1.085A1.369,1.369,0,0,0,45.616,0h-.643A1.3,1.3,0,0,1,44.851-.448ZM44.8-1.822a4.514,4.514,0,0,1-1,.232,2.324,2.324,0,0,0-.537.123.535.535,0,0,0-.243.2.525.525,0,0,0-.085.292.524.524,0,0,0,.186.41.8.8,0,0,0,.545.164,1.269,1.269,0,0,0,.632-.156A.958.958,0,0,0,44.7-.981a1.486,1.486,0,0,0,.1-.615Zm3.944.492.6.079a1.569,1.569,0,0,1-.508.979,1.479,1.479,0,0,1-1,.354,1.559,1.559,0,0,1-1.2-.487,1.976,1.976,0,0,1-.453-1.4,2.527,2.527,0,0,1,.195-1.029,1.358,1.358,0,0,1,.593-.661,1.759,1.759,0,0,1,.866-.22,1.506,1.506,0,0,1,.967.3,1.371,1.371,0,0,1,.482.849l-.6.092a.993.993,0,0,0-.3-.55.783.783,0,0,0-.525-.185.955.955,0,0,0-.755.333,1.582,1.582,0,0,0-.291,1.054A1.635,1.635,0,0,0,47.1-.755a.912.912,0,0,0,.731.332.862.862,0,0,0,.6-.222A1.1,1.1,0,0,0,48.744-1.33ZM49.878-4.3v-.708h.615V-4.3Zm0,4.3V-3.63h.615V0ZM51.2-1.815a1.871,1.871,0,0,1,.561-1.494,1.689,1.689,0,0,1,1.142-.4,1.629,1.629,0,0,1,1.224.49A1.866,1.866,0,0,1,54.6-1.866a2.4,2.4,0,0,1-.21,1.1,1.488,1.488,0,0,1-.612.624A1.781,1.781,0,0,1,52.9.082a1.632,1.632,0,0,1-1.232-.489A1.952,1.952,0,0,1,51.2-1.815Zm.632,0a1.546,1.546,0,0,0,.3,1.044.975.975,0,0,0,.766.347.969.969,0,0,0,.762-.349,1.583,1.583,0,0,0,.3-1.063,1.5,1.5,0,0,0-.306-1.02A.973.973,0,0,0,52.9-3.2a.977.977,0,0,0-.766.345A1.539,1.539,0,0,0,51.833-1.815ZM55.323,0V-3.63h.554v.516a1.3,1.3,0,0,1,1.155-.6,1.516,1.516,0,0,1,.6.118.949.949,0,0,1,.412.309,1.187,1.187,0,0,1,.191.455,3.523,3.523,0,0,1,.034.6V0h-.615V-2.208a1.657,1.657,0,0,0-.072-.562.591.591,0,0,0-.255-.3.81.81,0,0,0-.429-.111,1,1,0,0,0-.678.25,1.231,1.231,0,0,0-.285.947V0Zm6.262-.448a2.291,2.291,0,0,1-.658.41,1.9,1.9,0,0,1-.678.12,1.32,1.32,0,0,1-.919-.292.965.965,0,0,1-.321-.747.993.993,0,0,1,.121-.487,1,1,0,0,1,.318-.354A1.5,1.5,0,0,1,59.89-2a4.4,4.4,0,0,1,.547-.092,5.623,5.623,0,0,0,1.1-.212q0-.126,0-.161a.679.679,0,0,0-.174-.53,1.03,1.03,0,0,0-.7-.208,1.087,1.087,0,0,0-.641.152.929.929,0,0,0-.306.538l-.6-.082a1.491,1.491,0,0,1,.27-.624,1.184,1.184,0,0,1,.543-.366,2.424,2.424,0,0,1,.824-.128,2.18,2.18,0,0,1,.755.109,1,1,0,0,1,.427.275.968.968,0,0,1,.191.419,3.464,3.464,0,0,1,.031.567v.82A8.707,8.707,0,0,0,62.2-.436,1.369,1.369,0,0,0,62.351,0h-.643A1.3,1.3,0,0,1,61.585-.448Zm-.051-1.374a4.514,4.514,0,0,1-1,.232,2.324,2.324,0,0,0-.537.123.535.535,0,0,0-.243.2.525.525,0,0,0-.085.292.524.524,0,0,0,.186.41A.8.8,0,0,0,60.4-.4a1.269,1.269,0,0,0,.632-.156.958.958,0,0,0,.407-.426,1.486,1.486,0,0,0,.1-.615ZM65.464,0V-.458a1.129,1.129,0,0,1-1.015.54,1.423,1.423,0,0,1-.8-.239,1.573,1.573,0,0,1-.564-.668,2.309,2.309,0,0,1-.2-.986,2.581,2.581,0,0,1,.181-.986,1.429,1.429,0,0,1,.543-.678,1.453,1.453,0,0,1,.81-.236,1.21,1.21,0,0,1,.584.138,1.222,1.222,0,0,1,.417.361v-1.8h.612V0ZM63.52-1.812a1.576,1.576,0,0,0,.294,1.042.886.886,0,0,0,.694.345.87.87,0,0,0,.685-.33,1.521,1.521,0,0,0,.282-1.007,1.707,1.707,0,0,0-.287-1.094A.883.883,0,0,0,64.48-3.2a.852.852,0,0,0-.685.335A1.653,1.653,0,0,0,63.52-1.812ZM69.371-.448a2.291,2.291,0,0,1-.658.41,1.9,1.9,0,0,1-.678.12,1.32,1.32,0,0,1-.919-.292.965.965,0,0,1-.321-.747.993.993,0,0,1,.121-.487,1,1,0,0,1,.318-.354,1.5,1.5,0,0,1,.443-.2,4.4,4.4,0,0,1,.547-.092,5.623,5.623,0,0,0,1.1-.212q0-.126,0-.161a.679.679,0,0,0-.174-.53,1.03,1.03,0,0,0-.7-.208,1.087,1.087,0,0,0-.641.152.929.929,0,0,0-.306.538l-.6-.082a1.491,1.491,0,0,1,.27-.624,1.184,1.184,0,0,1,.543-.366,2.424,2.424,0,0,1,.824-.128,2.18,2.18,0,0,1,.755.109,1,1,0,0,1,.427.275.968.968,0,0,1,.191.419,3.464,3.464,0,0,1,.031.567v.82a8.706,8.706,0,0,0,.039,1.085A1.369,1.369,0,0,0,70.137,0h-.643A1.3,1.3,0,0,1,69.371-.448ZM69.32-1.822a4.514,4.514,0,0,1-1,.232,2.324,2.324,0,0,0-.537.123.535.535,0,0,0-.243.2.525.525,0,0,0-.085.292.524.524,0,0,0,.186.41.8.8,0,0,0,.545.164,1.269,1.269,0,0,0,.632-.156.958.958,0,0,0,.407-.426,1.486,1.486,0,0,0,.1-.615Zm1.33.738.608-.1a.85.85,0,0,0,.285.561,1,1,0,0,0,.655.195A.962.962,0,0,0,72.827-.6.516.516,0,0,0,73.032-1a.374.374,0,0,0-.181-.328,2.668,2.668,0,0,0-.629-.208,5.739,5.739,0,0,1-.938-.3.909.909,0,0,1-.4-.345.915.915,0,0,1-.135-.487.935.935,0,0,1,.111-.449,1,1,0,0,1,.3-.344,1.268,1.268,0,0,1,.391-.179,1.861,1.861,0,0,1,.531-.073,2.1,2.1,0,0,1,.75.123,1.02,1.02,0,0,1,.477.333,1.3,1.3,0,0,1,.212.562l-.6.082a.658.658,0,0,0-.238-.437.869.869,0,0,0-.555-.157,1.006,1.006,0,0,0-.6.14.408.408,0,0,0-.181.328.34.34,0,0,0,.075.215.543.543,0,0,0,.236.164q.092.034.543.157a7.565,7.565,0,0,1,.911.285.924.924,0,0,1,.405.323.9.9,0,0,1,.147.526,1.033,1.033,0,0,1-.179.579,1.16,1.16,0,0,1-.518.42A1.885,1.885,0,0,1,72.2.082a1.706,1.706,0,0,1-1.078-.294A1.367,1.367,0,0,1,70.649-1.083Zm8.06-.246.6.079a1.569,1.569,0,0,1-.508.979,1.479,1.479,0,0,1-1,.354,1.559,1.559,0,0,1-1.2-.487,1.976,1.976,0,0,1-.453-1.4,2.527,2.527,0,0,1,.195-1.029,1.358,1.358,0,0,1,.593-.661,1.76,1.76,0,0,1,.866-.22,1.506,1.506,0,0,1,.967.3,1.371,1.371,0,0,1,.482.849l-.6.092a.993.993,0,0,0-.3-.55.783.783,0,0,0-.525-.185.955.955,0,0,0-.755.333,1.582,1.582,0,0,0-.291,1.054,1.635,1.635,0,0,0,.28,1.063.912.912,0,0,0,.731.332.862.862,0,0,0,.6-.222A1.1,1.1,0,0,0,78.709-1.33Zm.9-.485a1.871,1.871,0,0,1,.561-1.494,1.689,1.689,0,0,1,1.142-.4,1.629,1.629,0,0,1,1.224.49,1.866,1.866,0,0,1,.475,1.355,2.4,2.4,0,0,1-.21,1.1,1.488,1.488,0,0,1-.612.624,1.781,1.781,0,0,1-.877.222,1.632,1.632,0,0,1-1.232-.489A1.952,1.952,0,0,1,79.611-1.815Zm.632,0a1.546,1.546,0,0,0,.3,1.044.975.975,0,0,0,.766.347.969.969,0,0,0,.762-.349,1.583,1.583,0,0,0,.3-1.063,1.5,1.5,0,0,0-.306-1.02.973.973,0,0,0-.76-.347.977.977,0,0,0-.766.345A1.539,1.539,0,0,0,80.244-1.815ZM83.733,0V-3.63h.554v.516a1.3,1.3,0,0,1,1.155-.6,1.516,1.516,0,0,1,.6.118.949.949,0,0,1,.412.309,1.187,1.187,0,0,1,.191.455,3.523,3.523,0,0,1,.034.6V0h-.615V-2.208A1.657,1.657,0,0,0,86-2.77a.591.591,0,0,0-.255-.3.81.81,0,0,0-.429-.111,1,1,0,0,0-.678.25,1.231,1.231,0,0,0-.285.947V0Zm8.323-1.169.636.079a1.551,1.551,0,0,1-.557.865A1.675,1.675,0,0,1,91.1.082a1.66,1.66,0,0,1-1.263-.49,1.916,1.916,0,0,1-.467-1.376,2.006,2.006,0,0,1,.472-1.422,1.6,1.6,0,0,1,1.224-.506,1.552,1.552,0,0,1,1.189.5,1.969,1.969,0,0,1,.461,1.395q0,.055,0,.164H90a1.4,1.4,0,0,0,.338.916,1.007,1.007,0,0,0,.759.318A.941.941,0,0,0,91.677-.6,1.18,1.18,0,0,0,92.056-1.169Zm-2.02-.995h2.027a1.23,1.23,0,0,0-.232-.687.943.943,0,0,0-.762-.355.977.977,0,0,0-.713.284A1.123,1.123,0,0,0,90.036-2.164ZM93.451,0V-5.011h.615V0Zm3.514,0V-3.63h.55v.509a1.294,1.294,0,0,1,.455-.429,1.277,1.277,0,0,1,.646-.162,1.194,1.194,0,0,1,.661.167.9.9,0,0,1,.364.468,1.3,1.3,0,0,1,1.121-.636,1.105,1.105,0,0,1,.831.3,1.278,1.278,0,0,1,.291.921V0h-.612V-2.287a1.683,1.683,0,0,0-.06-.531.515.515,0,0,0-.217-.261.678.678,0,0,0-.369-.1.859.859,0,0,0-.636.255,1.122,1.122,0,0,0-.253.815V0h-.615V-2.358a1.038,1.038,0,0,0-.15-.615.57.57,0,0,0-.492-.205.894.894,0,0,0-.48.137.776.776,0,0,0-.32.4,2.251,2.251,0,0,0-.1.759V0Zm5.6-1.815a1.871,1.871,0,0,1,.561-1.494,1.689,1.689,0,0,1,1.142-.4,1.629,1.629,0,0,1,1.224.49,1.866,1.866,0,0,1,.475,1.355,2.4,2.4,0,0,1-.21,1.1,1.488,1.488,0,0,1-.612.624,1.781,1.781,0,0,1-.877.222,1.632,1.632,0,0,1-1.232-.489A1.952,1.952,0,0,1,102.566-1.815Zm.632,0a1.546,1.546,0,0,0,.3,1.044.975.975,0,0,0,.766.347.969.969,0,0,0,.762-.349,1.583,1.583,0,0,0,.3-1.063,1.5,1.5,0,0,0-.306-1.02.973.973,0,0,0-.76-.347.977.977,0,0,0-.766.345A1.539,1.539,0,0,0,103.2-1.815ZM107.7,0l-1.381-3.63h.649l.779,2.174q.126.352.232.731.082-.287.229-.69l.807-2.215h.632L108.271,0Zm2.5-4.3v-.708h.615V-4.3Zm0,4.3V-3.63h.615V0Zm1.552,0V-3.63h.55v.509a1.294,1.294,0,0,1,.455-.429,1.277,1.277,0,0,1,.646-.162,1.194,1.194,0,0,1,.661.167.9.9,0,0,1,.364.468,1.3,1.3,0,0,1,1.121-.636,1.105,1.105,0,0,1,.831.3,1.278,1.278,0,0,1,.291.921V0h-.612V-2.287a1.683,1.683,0,0,0-.06-.531.515.515,0,0,0-.217-.261.678.678,0,0,0-.369-.1.859.859,0,0,0-.636.255,1.122,1.122,0,0,0-.253.815V0H113.9V-2.358a1.038,1.038,0,0,0-.15-.615.57.57,0,0,0-.492-.205.894.894,0,0,0-.48.137.776.776,0,0,0-.32.4,2.251,2.251,0,0,0-.1.759V0Zm5.834-4.3v-.708h.615V-4.3Zm0,4.3V-3.63h.615V0Zm4.037-1.169.636.079a1.551,1.551,0,0,1-.557.865,1.675,1.675,0,0,1-1.039.308,1.66,1.66,0,0,1-1.263-.49,1.916,1.916,0,0,1-.467-1.376,2.006,2.006,0,0,1,.472-1.422,1.6,1.6,0,0,1,1.224-.506,1.552,1.552,0,0,1,1.189.5,1.969,1.969,0,0,1,.461,1.395q0,.055,0,.164h-2.707a1.4,1.4,0,0,0,.338.916,1.007,1.007,0,0,0,.759.318.941.941,0,0,0,.578-.178A1.18,1.18,0,0,0,121.615-1.169Zm-2.02-.995h2.027a1.23,1.23,0,0,0-.232-.687.943.943,0,0,0-.762-.355.977.977,0,0,0-.713.284A1.123,1.123,0,0,0,119.595-2.164ZM123.023,0V-3.63h.554v.516a1.3,1.3,0,0,1,1.155-.6,1.516,1.516,0,0,1,.6.118.949.949,0,0,1,.412.309,1.187,1.187,0,0,1,.191.455,3.523,3.523,0,0,1,.034.6V0h-.615V-2.208a1.657,1.657,0,0,0-.072-.562.591.591,0,0,0-.255-.3.81.81,0,0,0-.429-.111,1,1,0,0,0-.678.25,1.231,1.231,0,0,0-.285.947V0Zm5.236-.55.089.543a2.282,2.282,0,0,1-.465.055,1.052,1.052,0,0,1-.52-.106.593.593,0,0,1-.26-.279,2.2,2.2,0,0,1-.075-.726V-3.151h-.451V-3.63h.451v-.9l.612-.369V-3.63h.619v.479h-.619v2.123a1.072,1.072,0,0,0,.032.338.256.256,0,0,0,.106.12.409.409,0,0,0,.21.044A2,2,0,0,0,128.259-.55Zm.373-1.265a1.871,1.871,0,0,1,.561-1.494,1.689,1.689,0,0,1,1.142-.4,1.629,1.629,0,0,1,1.224.49,1.866,1.866,0,0,1,.475,1.355,2.4,2.4,0,0,1-.21,1.1,1.488,1.488,0,0,1-.612.624,1.781,1.781,0,0,1-.877.222A1.632,1.632,0,0,1,129.1-.407,1.952,1.952,0,0,1,128.632-1.815Zm.632,0a1.546,1.546,0,0,0,.3,1.044.975.975,0,0,0,.766.347.969.969,0,0,0,.762-.349,1.583,1.583,0,0,0,.3-1.063,1.5,1.5,0,0,0-.306-1.02.973.973,0,0,0-.76-.347.977.977,0,0,0-.766.345A1.539,1.539,0,0,0,129.264-1.815Z" transform="translate(1323.538 2498.609)" fill="#20143b"/>
    <path id="Trazado_168" data-name="Trazado 168" d="M1.637,1.473a6.15,6.15,0,0,1-.861-1.5A4.673,4.673,0,0,1,.424-1.815,4.645,4.645,0,0,1,.687-3.374,6.552,6.552,0,0,1,1.637-5.1h.441q-.414.711-.547,1.015A5.546,5.546,0,0,0,1.2-3.1a5.717,5.717,0,0,0-.147,1.285A6.168,6.168,0,0,0,2.078,1.473ZM3.36,0H2.789V-5.011H3.4v1.788A1.217,1.217,0,0,1,4.4-3.712a1.523,1.523,0,0,1,.634.135,1.3,1.3,0,0,1,.492.379,1.834,1.834,0,0,1,.3.59,2.431,2.431,0,0,1,.109.738A2.074,2.074,0,0,1,5.476-.427,1.443,1.443,0,0,1,4.368.082,1.156,1.156,0,0,1,3.36-.455ZM3.353-1.842A1.884,1.884,0,0,0,3.531-.9a.886.886,0,0,0,.786.475.885.885,0,0,0,.7-.35,1.592,1.592,0,0,0,.294-1.044,1.62,1.62,0,0,0-.282-1.049.859.859,0,0,0-.682-.338.885.885,0,0,0-.7.35A1.538,1.538,0,0,0,3.353-1.842Zm3.2-2.512v-.591H9.8v.479a6.835,6.835,0,0,0-.948,1.354,8.243,8.243,0,0,0-.726,1.736A6.454,6.454,0,0,0,7.889,0H7.256a6.14,6.14,0,0,1,.232-1.429,7.5,7.5,0,0,1,.637-1.615A6.923,6.923,0,0,1,9.01-4.354Zm3.852,3.042.646-.055a1.158,1.158,0,0,0,.333.709.9.9,0,0,0,.631.238.982.982,0,0,0,.752-.335,1.262,1.262,0,0,0,.308-.889,1.141,1.141,0,0,0-.3-.831,1.031,1.031,0,0,0-.774-.3,1.073,1.073,0,0,0-.537.135,1.042,1.042,0,0,0-.376.35l-.578-.075L11-4.942h2.492v.588h-2l-.27,1.347a1.631,1.631,0,0,1,.947-.314,1.5,1.5,0,0,1,1.107.455A1.589,1.589,0,0,1,13.73-1.7a1.825,1.825,0,0,1-.4,1.176,1.588,1.588,0,0,1-1.316.608A1.621,1.621,0,0,1,10.9-.3,1.494,1.494,0,0,1,10.408-1.312ZM14.3-2.471a4.585,4.585,0,0,1,.183-1.43,1.779,1.779,0,0,1,.543-.836,1.389,1.389,0,0,1,.907-.294,1.481,1.481,0,0,1,.708.162,1.352,1.352,0,0,1,.5.468,2.512,2.512,0,0,1,.311.745,4.951,4.951,0,0,1,.113,1.184,4.6,4.6,0,0,1-.181,1.424,1.78,1.78,0,0,1-.542.837,1.389,1.389,0,0,1-.911.3A1.375,1.375,0,0,1,14.8-.434,3.3,3.3,0,0,1,14.3-2.471Zm.632,0a3.142,3.142,0,0,0,.289,1.642.851.851,0,0,0,.713.408.85.85,0,0,0,.713-.41,3.143,3.143,0,0,0,.289-1.641,3.141,3.141,0,0,0-.289-1.644.857.857,0,0,0-.719-.407.788.788,0,0,0-.677.359A3.178,3.178,0,0,0,14.933-2.471Zm3.192.967v-.619h1.89V-1.5ZM21.263,0h-.571V-5.011h.615v1.788a1.217,1.217,0,0,1,.995-.489,1.523,1.523,0,0,1,.634.135,1.3,1.3,0,0,1,.492.379,1.834,1.834,0,0,1,.3.59,2.431,2.431,0,0,1,.109.738,2.074,2.074,0,0,1-.461,1.442,1.443,1.443,0,0,1-1.107.509,1.156,1.156,0,0,1-1.008-.537Zm-.007-1.842a1.884,1.884,0,0,0,.178.943.886.886,0,0,0,.786.475.885.885,0,0,0,.7-.35,1.592,1.592,0,0,0,.294-1.044,1.62,1.62,0,0,0-.282-1.049.859.859,0,0,0-.682-.338.885.885,0,0,0-.7.35A1.538,1.538,0,0,0,21.256-1.842Zm3.2-2.512v-.591H27.7v.479a6.835,6.835,0,0,0-.948,1.354,8.243,8.243,0,0,0-.726,1.736A6.454,6.454,0,0,0,25.792,0H25.16a6.14,6.14,0,0,1,.232-1.429,7.5,7.5,0,0,1,.637-1.615,6.923,6.923,0,0,1,.884-1.311Zm3.893,0v-.591H31.6v.479a6.835,6.835,0,0,0-.948,1.354,8.243,8.243,0,0,0-.726,1.736A6.454,6.454,0,0,0,29.685,0h-.632a6.14,6.14,0,0,1,.232-1.429,7.5,7.5,0,0,1,.637-1.615,6.923,6.923,0,0,1,.884-1.311Zm3.944,3.2.591-.055a1.027,1.027,0,0,0,.287.6.788.788,0,0,0,.543.188.938.938,0,0,0,.5-.13,1.062,1.062,0,0,0,.35-.347,2.039,2.039,0,0,0,.229-.586,3.089,3.089,0,0,0,.092-.752q0-.041,0-.123a1.409,1.409,0,0,1-.5.477,1.37,1.37,0,0,1-.692.183,1.4,1.4,0,0,1-1.053-.451A1.651,1.651,0,0,1,32.2-3.339a1.691,1.691,0,0,1,.449-1.227,1.5,1.5,0,0,1,1.126-.465,1.607,1.607,0,0,1,.894.263,1.644,1.644,0,0,1,.615.75,3.7,3.7,0,0,1,.21,1.41,4.563,4.563,0,0,1-.208,1.53,1.791,1.791,0,0,1-.62.866,1.606,1.606,0,0,1-.966.3,1.4,1.4,0,0,1-.96-.326A1.4,1.4,0,0,1,32.3-1.159ZM34.815-3.37a1.2,1.2,0,0,0-.282-.841.884.884,0,0,0-.678-.311.937.937,0,0,0-.714.335,1.241,1.241,0,0,0-.3.868,1.072,1.072,0,0,0,.289.778.951.951,0,0,0,.713.3.912.912,0,0,0,.7-.3A1.178,1.178,0,0,0,34.815-3.37Zm1.856,4.843H36.23a6.168,6.168,0,0,0,1.022-3.285,5.614,5.614,0,0,0-.147-1.275,5.358,5.358,0,0,0-.325-.984A11.547,11.547,0,0,0,36.23-5.1h.441a6.551,6.551,0,0,1,.95,1.723,4.645,4.645,0,0,1,.263,1.559,4.653,4.653,0,0,1-.354,1.784A6.259,6.259,0,0,1,36.671,1.473Z" transform="translate(1373.431 2507.512)" fill="#20143b"/>
    <path id="Trazado_169" data-name="Trazado 169" d="M.574,0V-5.011h3.38v.591H1.237v1.552H3.589v.591H1.237V0ZM7.116,0V-.533A1.329,1.329,0,0,1,5.964.082a1.468,1.468,0,0,1-.6-.123A.988.988,0,0,1,4.951-.35a1.159,1.159,0,0,1-.19-.456,3.124,3.124,0,0,1-.038-.574V-3.63h.615v2.013a3.588,3.588,0,0,0,.038.649.642.642,0,0,0,.246.381.762.762,0,0,0,.465.138,1.013,1.013,0,0,0,.52-.142A.789.789,0,0,0,6.95-.976a1.938,1.938,0,0,0,.1-.709V-3.63h.615V0ZM8.63,0V-3.63h.554v.516a1.3,1.3,0,0,1,1.155-.6,1.516,1.516,0,0,1,.6.118.949.949,0,0,1,.412.309,1.187,1.187,0,0,1,.191.455,3.523,3.523,0,0,1,.034.6V0h-.615V-2.208a1.657,1.657,0,0,0-.072-.562.591.591,0,0,0-.255-.3.81.81,0,0,0-.429-.111,1,1,0,0,0-.678.25,1.231,1.231,0,0,0-.285.947V0Zm6.262-1.33.6.079a1.569,1.569,0,0,1-.508.979,1.479,1.479,0,0,1-1,.354,1.559,1.559,0,0,1-1.2-.487,1.976,1.976,0,0,1-.453-1.4A2.527,2.527,0,0,1,12.53-2.83a1.358,1.358,0,0,1,.593-.661,1.759,1.759,0,0,1,.866-.22,1.506,1.506,0,0,1,.967.3,1.371,1.371,0,0,1,.482.849l-.6.092a.993.993,0,0,0-.3-.55.783.783,0,0,0-.525-.185.955.955,0,0,0-.755.333,1.582,1.582,0,0,0-.291,1.054,1.635,1.635,0,0,0,.28,1.063.912.912,0,0,0,.731.332.862.862,0,0,0,.6-.222A1.1,1.1,0,0,0,14.892-1.33ZM16.027-4.3v-.708h.615V-4.3Zm0,4.3V-3.63h.615V0ZM17.35-1.815a1.871,1.871,0,0,1,.561-1.494,1.689,1.689,0,0,1,1.142-.4,1.629,1.629,0,0,1,1.224.49,1.866,1.866,0,0,1,.475,1.355,2.4,2.4,0,0,1-.21,1.1,1.488,1.488,0,0,1-.612.624,1.781,1.781,0,0,1-.877.222A1.632,1.632,0,0,1,17.82-.407,1.952,1.952,0,0,1,17.35-1.815Zm.632,0a1.546,1.546,0,0,0,.3,1.044.975.975,0,0,0,.766.347.969.969,0,0,0,.762-.349,1.583,1.583,0,0,0,.3-1.063,1.5,1.5,0,0,0-.306-1.02.973.973,0,0,0-.76-.347.977.977,0,0,0-.766.345A1.539,1.539,0,0,0,17.982-1.815ZM21.472,0V-3.63h.554v.516a1.3,1.3,0,0,1,1.155-.6,1.516,1.516,0,0,1,.6.118.949.949,0,0,1,.412.309,1.187,1.187,0,0,1,.191.455,3.523,3.523,0,0,1,.034.6V0h-.615V-2.208a1.657,1.657,0,0,0-.072-.562.591.591,0,0,0-.255-.3.81.81,0,0,0-.429-.111,1,1,0,0,0-.678.25,1.231,1.231,0,0,0-.285.947V0ZM27.85-1.169l.636.079a1.551,1.551,0,0,1-.557.865,1.675,1.675,0,0,1-1.039.308,1.66,1.66,0,0,1-1.263-.49,1.916,1.916,0,0,1-.467-1.376,2.006,2.006,0,0,1,.472-1.422,1.6,1.6,0,0,1,1.224-.506,1.552,1.552,0,0,1,1.189.5,1.969,1.969,0,0,1,.461,1.395q0,.055,0,.164H25.8a1.4,1.4,0,0,0,.338.916,1.007,1.007,0,0,0,.759.318A.941.941,0,0,0,27.47-.6,1.18,1.18,0,0,0,27.85-1.169Zm-2.02-.995h2.027a1.23,1.23,0,0,0-.232-.687.943.943,0,0,0-.762-.355.977.977,0,0,0-.713.284A1.123,1.123,0,0,0,25.83-2.164Zm3.182,1.08.608-.1a.85.85,0,0,0,.285.561,1,1,0,0,0,.655.195A.962.962,0,0,0,31.189-.6.516.516,0,0,0,31.394-1a.374.374,0,0,0-.181-.328,2.668,2.668,0,0,0-.629-.208,5.739,5.739,0,0,1-.938-.3.909.909,0,0,1-.4-.345.915.915,0,0,1-.135-.487.935.935,0,0,1,.111-.449,1,1,0,0,1,.3-.344,1.268,1.268,0,0,1,.391-.179,1.861,1.861,0,0,1,.531-.073,2.1,2.1,0,0,1,.75.123,1.02,1.02,0,0,1,.477.333,1.3,1.3,0,0,1,.212.562l-.6.082a.658.658,0,0,0-.238-.437.869.869,0,0,0-.555-.157,1.006,1.006,0,0,0-.6.14.408.408,0,0,0-.181.328.34.34,0,0,0,.075.215.543.543,0,0,0,.236.164q.092.034.543.157a7.565,7.565,0,0,1,.911.285.924.924,0,0,1,.405.323.9.9,0,0,1,.147.526,1.033,1.033,0,0,1-.179.579,1.16,1.16,0,0,1-.518.42,1.885,1.885,0,0,1-.766.149,1.706,1.706,0,0,1-1.078-.294A1.367,1.367,0,0,1,29.012-1.083ZM34.7,0V-3.63h.55v.509a1.294,1.294,0,0,1,.455-.429,1.277,1.277,0,0,1,.646-.162,1.194,1.194,0,0,1,.661.167.9.9,0,0,1,.364.468A1.3,1.3,0,0,1,38.5-3.712a1.1,1.1,0,0,1,.831.3,1.278,1.278,0,0,1,.291.921V0h-.612V-2.287a1.684,1.684,0,0,0-.06-.531.515.515,0,0,0-.217-.261.678.678,0,0,0-.369-.1.859.859,0,0,0-.636.255,1.121,1.121,0,0,0-.253.815V0h-.615V-2.358a1.038,1.038,0,0,0-.15-.615.57.57,0,0,0-.492-.205.894.894,0,0,0-.48.137.776.776,0,0,0-.32.4,2.251,2.251,0,0,0-.1.759V0Zm8.21,0V-.533a1.329,1.329,0,0,1-1.152.615,1.468,1.468,0,0,1-.6-.123.988.988,0,0,1-.414-.309,1.159,1.159,0,0,1-.19-.456,3.124,3.124,0,0,1-.038-.574V-3.63h.615v2.013a3.587,3.587,0,0,0,.038.649.642.642,0,0,0,.246.381.762.762,0,0,0,.465.138A1.013,1.013,0,0,0,42.4-.59a.789.789,0,0,0,.344-.386,1.938,1.938,0,0,0,.1-.709V-3.63h.615V0Zm1.268-1.083.608-.1a.85.85,0,0,0,.285.561,1,1,0,0,0,.655.195A.962.962,0,0,0,46.358-.6.516.516,0,0,0,46.563-1a.374.374,0,0,0-.181-.328,2.668,2.668,0,0,0-.629-.208,5.739,5.739,0,0,1-.938-.3.909.909,0,0,1-.4-.345.915.915,0,0,1-.135-.487.935.935,0,0,1,.111-.449,1,1,0,0,1,.3-.344,1.268,1.268,0,0,1,.391-.179,1.861,1.861,0,0,1,.531-.073,2.1,2.1,0,0,1,.75.123,1.02,1.02,0,0,1,.477.333,1.3,1.3,0,0,1,.212.562l-.6.082a.658.658,0,0,0-.238-.437.869.869,0,0,0-.555-.157,1.006,1.006,0,0,0-.6.14.408.408,0,0,0-.181.328.34.34,0,0,0,.075.215.543.543,0,0,0,.236.164q.092.034.543.157a7.565,7.565,0,0,1,.911.285.924.924,0,0,1,.405.323.9.9,0,0,1,.147.526,1.033,1.033,0,0,1-.179.579,1.16,1.16,0,0,1-.518.42,1.885,1.885,0,0,1-.766.149,1.706,1.706,0,0,1-1.078-.294A1.367,1.367,0,0,1,44.181-1.083ZM50.3-1.33l.6.079a1.569,1.569,0,0,1-.508.979,1.479,1.479,0,0,1-1,.354,1.559,1.559,0,0,1-1.2-.487,1.976,1.976,0,0,1-.453-1.4,2.527,2.527,0,0,1,.195-1.029,1.358,1.358,0,0,1,.593-.661,1.759,1.759,0,0,1,.866-.22,1.506,1.506,0,0,1,.967.3,1.371,1.371,0,0,1,.482.849l-.6.092a.993.993,0,0,0-.3-.55.783.783,0,0,0-.525-.185.955.955,0,0,0-.755.333,1.582,1.582,0,0,0-.291,1.054,1.635,1.635,0,0,0,.28,1.063.912.912,0,0,0,.731.332.862.862,0,0,0,.6-.222A1.1,1.1,0,0,0,50.3-1.33ZM53.806,0V-.533a1.329,1.329,0,0,1-1.152.615,1.468,1.468,0,0,1-.6-.123A.988.988,0,0,1,51.64-.35a1.159,1.159,0,0,1-.19-.456,3.124,3.124,0,0,1-.038-.574V-3.63h.615v2.013a3.587,3.587,0,0,0,.038.649.642.642,0,0,0,.246.381.762.762,0,0,0,.465.138A1.013,1.013,0,0,0,53.3-.59a.789.789,0,0,0,.344-.386,1.938,1.938,0,0,0,.1-.709V-3.63h.615V0Zm1.5,0V-5.011h.615V0Zm3.938-.448a2.291,2.291,0,0,1-.658.41,1.9,1.9,0,0,1-.678.12,1.32,1.32,0,0,1-.919-.292.965.965,0,0,1-.321-.747.993.993,0,0,1,.121-.487,1,1,0,0,1,.318-.354,1.5,1.5,0,0,1,.443-.2,4.4,4.4,0,0,1,.547-.092,5.623,5.623,0,0,0,1.1-.212q0-.126,0-.161a.679.679,0,0,0-.174-.53,1.03,1.03,0,0,0-.7-.208,1.087,1.087,0,0,0-.641.152.929.929,0,0,0-.306.538l-.6-.082a1.491,1.491,0,0,1,.27-.624,1.184,1.184,0,0,1,.543-.366,2.424,2.424,0,0,1,.824-.128,2.18,2.18,0,0,1,.755.109,1,1,0,0,1,.427.275.968.968,0,0,1,.191.419,3.464,3.464,0,0,1,.031.567v.82a8.707,8.707,0,0,0,.039,1.085A1.369,1.369,0,0,0,60.009,0h-.643A1.3,1.3,0,0,1,59.244-.448Zm-.051-1.374a4.514,4.514,0,0,1-1,.232,2.324,2.324,0,0,0-.537.123.535.535,0,0,0-.243.2.525.525,0,0,0-.085.292.524.524,0,0,0,.186.41.8.8,0,0,0,.545.164,1.269,1.269,0,0,0,.632-.156.958.958,0,0,0,.407-.426,1.486,1.486,0,0,0,.1-.615ZM60.761,0V-3.63h.554v.55a1.5,1.5,0,0,1,.391-.509.683.683,0,0,1,.395-.123,1.2,1.2,0,0,1,.632.2l-.212.571a.88.88,0,0,0-.451-.133.586.586,0,0,0-.362.121.657.657,0,0,0-.229.337,2.4,2.4,0,0,0-.1.718V0Zm4.823-1.169.636.079a1.551,1.551,0,0,1-.557.865,1.675,1.675,0,0,1-1.039.308,1.66,1.66,0,0,1-1.263-.49,1.916,1.916,0,0,1-.467-1.376,2.006,2.006,0,0,1,.472-1.422,1.6,1.6,0,0,1,1.224-.506,1.552,1.552,0,0,1,1.189.5,1.969,1.969,0,0,1,.461,1.395q0,.055,0,.164H63.53a1.4,1.4,0,0,0,.338.916,1.007,1.007,0,0,0,.759.318A.941.941,0,0,0,65.2-.6,1.18,1.18,0,0,0,65.584-1.169Zm-2.02-.995h2.027a1.23,1.23,0,0,0-.232-.687.943.943,0,0,0-.762-.355.977.977,0,0,0-.713.284A1.123,1.123,0,0,0,63.564-2.164Zm3.182,1.08.608-.1a.85.85,0,0,0,.285.561,1,1,0,0,0,.655.195A.962.962,0,0,0,68.923-.6.516.516,0,0,0,69.128-1a.374.374,0,0,0-.181-.328,2.668,2.668,0,0,0-.629-.208,5.739,5.739,0,0,1-.938-.3.909.909,0,0,1-.4-.345.915.915,0,0,1-.135-.487.935.935,0,0,1,.111-.449,1,1,0,0,1,.3-.344,1.268,1.268,0,0,1,.391-.179,1.861,1.861,0,0,1,.531-.073,2.1,2.1,0,0,1,.75.123,1.02,1.02,0,0,1,.477.333,1.3,1.3,0,0,1,.212.562l-.6.082a.658.658,0,0,0-.238-.437.869.869,0,0,0-.555-.157,1.006,1.006,0,0,0-.6.14.408.408,0,0,0-.181.328.34.34,0,0,0,.075.215.543.543,0,0,0,.236.164q.092.034.543.157a7.565,7.565,0,0,1,.911.285.924.924,0,0,1,.405.323.9.9,0,0,1,.147.526,1.033,1.033,0,0,1-.179.579,1.16,1.16,0,0,1-.518.42A1.885,1.885,0,0,1,68.3.082a1.706,1.706,0,0,1-1.078-.294A1.367,1.367,0,0,1,66.746-1.083Zm6.867,2.557a6.151,6.151,0,0,1-.861-1.5A4.673,4.673,0,0,1,72.4-1.815a4.645,4.645,0,0,1,.263-1.559,6.552,6.552,0,0,1,.95-1.723h.441q-.414.711-.547,1.015a5.546,5.546,0,0,0-.328.984,5.717,5.717,0,0,0-.147,1.285,6.168,6.168,0,0,0,1.022,3.285ZM75.335,0h-.571V-5.011h.615v1.788a1.217,1.217,0,0,1,.995-.489,1.523,1.523,0,0,1,.634.135A1.3,1.3,0,0,1,77.5-3.2a1.834,1.834,0,0,1,.3.59,2.431,2.431,0,0,1,.109.738,2.074,2.074,0,0,1-.461,1.442,1.443,1.443,0,0,1-1.107.509,1.156,1.156,0,0,1-1.008-.537Zm-.007-1.842a1.884,1.884,0,0,0,.178.943.886.886,0,0,0,.786.475.885.885,0,0,0,.7-.35,1.592,1.592,0,0,0,.294-1.044A1.62,1.62,0,0,0,77-2.868a.859.859,0,0,0-.682-.338.885.885,0,0,0-.7.35A1.538,1.538,0,0,0,75.329-1.842Zm3.2-2.512v-.591h3.244v.479a6.836,6.836,0,0,0-.948,1.354A8.243,8.243,0,0,0,80.1-1.377,6.454,6.454,0,0,0,79.864,0h-.632a6.14,6.14,0,0,1,.232-1.429A7.5,7.5,0,0,1,80.1-3.044a6.923,6.923,0,0,1,.884-1.311Zm3.855,3.032L83-1.4a1.355,1.355,0,0,0,.361.754.891.891,0,0,0,.62.231.994.994,0,0,0,.733-.3,1.015,1.015,0,0,0,.3-.745.944.944,0,0,0-.277-.7.957.957,0,0,0-.7-.275,1.766,1.766,0,0,0-.434.068l.068-.54a.94.94,0,0,0,.1.007,1.267,1.267,0,0,0,.708-.205.7.7,0,0,0,.314-.632.748.748,0,0,0-.229-.561.814.814,0,0,0-.591-.222.838.838,0,0,0-.6.226,1.133,1.133,0,0,0-.308.677l-.615-.109a1.581,1.581,0,0,1,.513-.959,1.482,1.482,0,0,1,.995-.34,1.639,1.639,0,0,1,.755.176,1.273,1.273,0,0,1,.528.48,1.234,1.234,0,0,1,.183.646,1.058,1.058,0,0,1-.174.591,1.19,1.19,0,0,1-.516.424,1.163,1.163,0,0,1,.69.426,1.3,1.3,0,0,1,.246.808,1.479,1.479,0,0,1-.479,1.113,1.683,1.683,0,0,1-1.21.456,1.574,1.574,0,0,1-1.1-.393A1.52,1.52,0,0,1,82.387-1.323Zm3.89-1.148a4.585,4.585,0,0,1,.183-1.43A1.779,1.779,0,0,1,87-4.737a1.389,1.389,0,0,1,.907-.294,1.48,1.48,0,0,1,.708.162,1.353,1.353,0,0,1,.5.468,2.512,2.512,0,0,1,.311.745,4.951,4.951,0,0,1,.113,1.184,4.6,4.6,0,0,1-.181,1.424,1.78,1.78,0,0,1-.542.837,1.389,1.389,0,0,1-.911.3,1.375,1.375,0,0,1-1.138-.52A3.3,3.3,0,0,1,86.276-2.471Zm.632,0A3.142,3.142,0,0,0,87.2-.829a.851.851,0,0,0,.713.408.85.85,0,0,0,.713-.41,3.143,3.143,0,0,0,.289-1.641,3.141,3.141,0,0,0-.289-1.644.857.857,0,0,0-.719-.407.788.788,0,0,0-.677.359A3.178,3.178,0,0,0,86.909-2.471ZM90.1-1.5v-.619h1.89V-1.5ZM93.239,0h-.571V-5.011h.615v1.788a1.217,1.217,0,0,1,.995-.489,1.523,1.523,0,0,1,.634.135A1.3,1.3,0,0,1,95.4-3.2a1.834,1.834,0,0,1,.3.59,2.431,2.431,0,0,1,.109.738,2.074,2.074,0,0,1-.461,1.442,1.443,1.443,0,0,1-1.107.509,1.156,1.156,0,0,1-1.008-.537Zm-.007-1.842A1.884,1.884,0,0,0,93.41-.9a.886.886,0,0,0,.786.475.885.885,0,0,0,.7-.35,1.592,1.592,0,0,0,.294-1.044,1.62,1.62,0,0,0-.282-1.049.859.859,0,0,0-.682-.338.885.885,0,0,0-.7.35A1.538,1.538,0,0,0,93.232-1.842Zm3.2-2.512v-.591h3.244v.479a6.836,6.836,0,0,0-.948,1.354A8.243,8.243,0,0,0,98-1.377,6.454,6.454,0,0,0,97.768,0h-.632a6.14,6.14,0,0,1,.232-1.429,7.5,7.5,0,0,1,.637-1.615,6.923,6.923,0,0,1,.884-1.311ZM102.259,0V-1.2h-2.174v-.564l2.287-3.247h.5v3.247h.677V-1.2h-.677V0Zm0-1.764V-4.023L100.69-1.764Zm2.013.6.591-.055a1.027,1.027,0,0,0,.287.6.788.788,0,0,0,.543.188.938.938,0,0,0,.5-.13,1.062,1.062,0,0,0,.35-.347,2.039,2.039,0,0,0,.229-.586,3.089,3.089,0,0,0,.092-.752q0-.041,0-.123a1.409,1.409,0,0,1-.5.477,1.37,1.37,0,0,1-.692.183,1.4,1.4,0,0,1-1.053-.451,1.651,1.651,0,0,1-.431-1.189,1.691,1.691,0,0,1,.449-1.227,1.5,1.5,0,0,1,1.126-.465,1.607,1.607,0,0,1,.894.263,1.644,1.644,0,0,1,.615.75,3.7,3.7,0,0,1,.21,1.41,4.563,4.563,0,0,1-.208,1.53,1.792,1.792,0,0,1-.62.866,1.606,1.606,0,0,1-.966.3,1.4,1.4,0,0,1-.96-.326A1.4,1.4,0,0,1,104.272-1.159Zm2.519-2.211a1.2,1.2,0,0,0-.282-.841.884.884,0,0,0-.678-.311.937.937,0,0,0-.714.335,1.241,1.241,0,0,0-.3.868,1.073,1.073,0,0,0,.289.778.951.951,0,0,0,.713.3.912.912,0,0,0,.7-.3A1.178,1.178,0,0,0,106.791-3.37Zm1.856,4.843h-.441a6.168,6.168,0,0,0,1.022-3.285,5.613,5.613,0,0,0-.147-1.275,5.358,5.358,0,0,0-.325-.984,11.548,11.548,0,0,0-.55-1.025h.441a6.552,6.552,0,0,1,.95,1.723,4.645,4.645,0,0,1,.263,1.559,4.653,4.653,0,0,1-.354,1.784A6.259,6.259,0,0,1,108.647,1.473Z" transform="translate(1340.097 2483.541)" fill="#20143b"/>
    <path id="Trazado_170" data-name="Trazado 170" d="M.57-6.5v.73H3.75v.02L.93,0h.91L4.67-5.92V-6.5Z" transform="translate(1500.929 2505.885)" fill="#2b2e34"/>
    <path id="Trazado_171" data-name="Trazado 171" d="M.42-.33A3.3,3.3,0,0,0,2.11.11C3.67.11,4.48-.8,4.48-1.84A1.693,1.693,0,0,0,3.03-3.51v-.02a1.614,1.614,0,0,0,1.2-1.53c0-.79-.58-1.55-1.86-1.55a3.09,3.09,0,0,0-1.7.5l.23.64A2.387,2.387,0,0,1,2.2-5.9c.81,0,1.14.46,1.14.98,0,.77-.81,1.1-1.45,1.1H1.4v.66h.49c.85,0,1.67.39,1.68,1.3C3.58-1.32,3.23-.6,2.1-.6A2.941,2.941,0,0,1,.66-1.01Z" transform="translate(1580.299 2505.885)" fill="#2b2e34"/>
  </g>
</svg>
