<svg xmlns="http://www.w3.org/2000/svg" width="306.8" height="204.72" viewBox="0 0 306.8 204.72">
  <g id="Grupo_40" data-name="Grupo 40" transform="translate(-1108 -2211.72)">
    <path id="Trazado_164" data-name="Trazado 164" d="M0-173.58H94.89v-31.14H0Z" transform="translate(1108 2416.44)" fill="#6071bb"/>
    <path id="Trazado_165" data-name="Trazado 165" d="M98.889-173.58h105.52v-31.14H98.889Z" transform="translate(1108 2416.44)" fill="#6071bb"/>
    <path id="Trazado_166" data-name="Trazado 166" d="M208.41-173.58H306.8v-31.14H208.41Z" transform="translate(1108 2416.44)" fill="#6071bb"/>
    <path id="Trazado_167" data-name="Trazado 167" d="M0-138.86H94.89V-170H0Z" transform="translate(1108 2416.44)" fill="#289841"/>
    <path id="Trazado_168" data-name="Trazado 168" d="M98.89-170H204.411v31.14H98.89Z" transform="translate(1108 2416.44)" fill="#289841"/>
    <path id="Trazado_169" data-name="Trazado 169" d="M208.41-138.86H306.8V-170H208.41Z" transform="translate(1108 2416.44)" fill="#289841"/>
    <path id="Trazado_170" data-name="Trazado 170" d="M0-104.15H94.89v-31.14H0Z" transform="translate(1108 2416.44)" fill="#43b94a"/>
    <path id="Trazado_171" data-name="Trazado 171" d="M204.41-104.15H98.889v-31.14H204.41Z" transform="translate(1108 2416.44)" fill="#43b94a"/>
    <path id="Trazado_172" data-name="Trazado 172" d="M208.41-104.15H306.8v-31.14H208.41Z" transform="translate(1108 2416.44)" fill="#43b94a"/>
    <path id="Trazado_173" data-name="Trazado 173" d="M0-69.43H94.89v-31.14H0Z" transform="translate(1108 2416.44)" fill="#ffad47"/>
    <path id="Trazado_174" data-name="Trazado 174" d="M98.89-100.57H204.411v31.14H98.89Z" transform="translate(1108 2416.44)" fill="#ffad47"/>
    <path id="Trazado_175" data-name="Trazado 175" d="M208.41-69.43H306.8v-31.14H208.41Z" transform="translate(1108 2416.44)" fill="#ffad47"/>
    <path id="Trazado_176" data-name="Trazado 176" d="M0-34.71H94.89V-65.86H0Z" transform="translate(1108 2416.44)" fill="#ff422e"/>
    <path id="Trazado_177" data-name="Trazado 177" d="M204.41-34.71H98.889V-65.86H204.41Z" transform="translate(1108 2416.44)" fill="#ff422e"/>
    <path id="Trazado_178" data-name="Trazado 178" d="M208.41-34.71H306.8V-65.86H208.41Z" transform="translate(1108 2416.44)" fill="#ff422e"/>
    <path id="Trazado_179" data-name="Trazado 179" d="M0,0H94.89V-31.14H0Z" transform="translate(1108 2416.44)" fill="#d02724"/>
    <path id="Trazado_180" data-name="Trazado 180" d="M98.889,0h105.52V-31.14H98.889Z" transform="translate(1108 2416.44)" fill="#d02724"/>
    <path id="Trazado_181" data-name="Trazado 181" d="M208.41,0H306.8V-31.14H208.41Z" transform="translate(1108 2416.44)" fill="#d02724"/>
    <path id="Trazado_182" data-name="Trazado 182" d="M7.961-3.948l2.1.667A4.715,4.715,0,0,1,8.456-.67,4.586,4.586,0,0,1,5.6.183,4.619,4.619,0,0,1,2.087-1.278a5.591,5.591,0,0,1-1.377-4A5.87,5.87,0,0,1,2.095-9.437a4.747,4.747,0,0,1,3.64-1.483,4.466,4.466,0,0,1,3.2,1.165,4.235,4.235,0,0,1,1.1,1.978l-2.146.513a2.276,2.276,0,0,0-.795-1.318,2.277,2.277,0,0,0-1.469-.483,2.443,2.443,0,0,0-1.937.857,4.2,4.2,0,0,0-.743,2.776,4.5,4.5,0,0,0,.732,2.9,2.378,2.378,0,0,0,1.9.864,2.172,2.172,0,0,0,1.487-.549A3.191,3.191,0,0,0,7.961-3.948Zm5.486-1.458L11.58-5.742a2.909,2.909,0,0,1,1.084-1.67,3.967,3.967,0,0,1,2.285-.542A4.925,4.925,0,0,1,17-7.628a2.045,2.045,0,0,1,.948.828,4.244,4.244,0,0,1,.275,1.842l-.022,2.4a8.34,8.34,0,0,0,.1,1.512A4.415,4.415,0,0,0,18.669,0H16.633q-.081-.205-.2-.608-.051-.183-.073-.242a3.71,3.71,0,0,1-1.128.769,3.231,3.231,0,0,1-1.282.256,2.65,2.65,0,0,1-1.893-.652,2.167,2.167,0,0,1-.692-1.648A2.212,2.212,0,0,1,11.682-3.3a2.058,2.058,0,0,1,.883-.791A6.9,6.9,0,0,1,14.2-4.57a11.213,11.213,0,0,0,2-.505v-.205a1.066,1.066,0,0,0-.293-.846A1.756,1.756,0,0,0,14.8-6.379a1.473,1.473,0,0,0-.857.216A1.5,1.5,0,0,0,13.447-5.405ZM16.2-3.735a12.864,12.864,0,0,1-1.252.315,3.773,3.773,0,0,0-1.121.359.858.858,0,0,0-.4.725,1.01,1.01,0,0,0,.322.747,1.125,1.125,0,0,0,.82.315,1.782,1.782,0,0,0,1.062-.366,1.289,1.289,0,0,0,.491-.681,4.064,4.064,0,0,0,.081-1ZM20.251,0V-10.737H22.31V0Zm4.167-8.833v-1.9h2.058v1.9Zm0,8.833V-7.778h2.058V0Zm3.267-7.778h1.143v-.586a3.892,3.892,0,0,1,.209-1.465,1.65,1.65,0,0,1,.769-.787,2.951,2.951,0,0,1,1.417-.3,5.729,5.729,0,0,1,1.721.264l-.278,1.436a4.065,4.065,0,0,0-.945-.117.843.843,0,0,0-.641.209,1.209,1.209,0,0,0-.194.8v.549h1.538V-6.16H30.886V0H28.828V-6.16H27.686Zm5.9-1.055v-1.9H35.64v1.9Zm0,8.833V-7.778H35.64V0Zm10.95-5.479L42.5-5.112a1.472,1.472,0,0,0-.465-.916,1.4,1.4,0,0,0-.941-.308,1.538,1.538,0,0,0-1.227.531,2.721,2.721,0,0,0-.458,1.776,3.147,3.147,0,0,0,.465,1.956,1.527,1.527,0,0,0,1.249.571,1.387,1.387,0,0,0,.959-.333,2,2,0,0,0,.527-1.146l2.021.344a3.587,3.587,0,0,1-1.208,2.1,3.741,3.741,0,0,1-2.4.71A3.561,3.561,0,0,1,38.309-.9a4.174,4.174,0,0,1-1.014-2.981,4.184,4.184,0,0,1,1.018-3,3.616,3.616,0,0,1,2.754-1.073,3.757,3.757,0,0,1,2.26.612A3.388,3.388,0,0,1,44.531-5.479Zm3.1.073-1.868-.337a2.909,2.909,0,0,1,1.084-1.67,3.967,3.967,0,0,1,2.285-.542,4.925,4.925,0,0,1,2.051.326,2.045,2.045,0,0,1,.948.828A4.244,4.244,0,0,1,52.4-4.958l-.022,2.4a8.34,8.34,0,0,0,.1,1.512A4.415,4.415,0,0,0,52.852,0H50.815q-.081-.205-.2-.608-.051-.183-.073-.242a3.71,3.71,0,0,1-1.128.769,3.231,3.231,0,0,1-1.282.256,2.65,2.65,0,0,1-1.893-.652,2.167,2.167,0,0,1-.692-1.648A2.212,2.212,0,0,1,45.864-3.3a2.058,2.058,0,0,1,.883-.791,6.9,6.9,0,0,1,1.637-.48,11.213,11.213,0,0,0,2-.505v-.205a1.066,1.066,0,0,0-.293-.846,1.756,1.756,0,0,0-1.106-.253,1.473,1.473,0,0,0-.857.216A1.5,1.5,0,0,0,47.629-5.405Zm2.754,1.67a12.864,12.864,0,0,1-1.252.315,3.773,3.773,0,0,0-1.121.359.858.858,0,0,0-.4.725,1.01,1.01,0,0,0,.322.747,1.125,1.125,0,0,0,.82.315,1.782,1.782,0,0,0,1.062-.366,1.289,1.289,0,0,0,.491-.681,4.064,4.064,0,0,0,.081-1ZM61.567,0H59.656V-1.143a3.088,3.088,0,0,1-1.124.992,2.884,2.884,0,0,1-1.307.326,2.963,2.963,0,0,1-2.3-1.08,4.395,4.395,0,0,1-.956-3.014,4.343,4.343,0,0,1,.93-3.007,3.032,3.032,0,0,1,2.351-1.029A2.912,2.912,0,0,1,59.509-6.87v-3.867h2.058ZM56.074-4.058a3.562,3.562,0,0,0,.344,1.8,1.555,1.555,0,0,0,1.392.806,1.515,1.515,0,0,0,1.208-.6,2.789,2.789,0,0,0,.5-1.805,3.052,3.052,0,0,0-.483-1.93,1.53,1.53,0,0,0-1.238-.59,1.546,1.546,0,0,0-1.227.582A2.631,2.631,0,0,0,56.074-4.058ZM63.12-4a4.208,4.208,0,0,1,.505-1.985,3.469,3.469,0,0,1,1.432-1.465,4.249,4.249,0,0,1,2.069-.505A3.883,3.883,0,0,1,70.02-6.808a3.96,3.96,0,0,1,1.128,2.9A4.008,4.008,0,0,1,70.009-.985,3.849,3.849,0,0,1,67.141.176,4.517,4.517,0,0,1,65.1-.308a3.316,3.316,0,0,1-1.476-1.417A4.722,4.722,0,0,1,63.12-4Zm2.109.11a2.577,2.577,0,0,0,.549,1.772,1.745,1.745,0,0,0,1.355.615,1.734,1.734,0,0,0,1.351-.615A2.613,2.613,0,0,0,69.031-3.9a2.565,2.565,0,0,0-.546-1.758,1.734,1.734,0,0,0-1.351-.615,1.745,1.745,0,0,0-1.355.615A2.577,2.577,0,0,0,65.229-3.889ZM74.729,0H72.671V-7.778h1.912v1.106a3.324,3.324,0,0,1,.883-1.033,1.624,1.624,0,0,1,.89-.249,2.612,2.612,0,0,1,1.355.388l-.637,1.794a1.806,1.806,0,0,0-.967-.337,1.142,1.142,0,0,0-.732.238,1.627,1.627,0,0,0-.472.861A12.226,12.226,0,0,0,74.729-2.4Z" transform="translate(1118.204 2232.94)" fill="#fff"/>
    <path id="Trazado_183" data-name="Trazado 183" d="M4.116-10.781A2.934,2.934,0,0,1,6.555-9.668,7.108,7.108,0,0,1,7.6-5.3,7.124,7.124,0,0,1,6.548-.916,2.929,2.929,0,0,1,4.116.183a3.073,3.073,0,0,1-2.527-1.2Q.63-2.227.63-5.317A7.094,7.094,0,0,1,1.685-9.683,2.929,2.929,0,0,1,4.116-10.781Zm0,1.707a1.028,1.028,0,0,0-.667.238A1.6,1.6,0,0,0,3-7.983,11.769,11.769,0,0,0,2.783-5.3a11.683,11.683,0,0,0,.19,2.6,1.826,1.826,0,0,0,.48.941,1.023,1.023,0,0,0,.663.234,1.028,1.028,0,0,0,.667-.238,1.6,1.6,0,0,0,.454-.853A11.665,11.665,0,0,0,5.449-5.3a11.683,11.683,0,0,0-.19-2.6,1.851,1.851,0,0,0-.48-.945A1.014,1.014,0,0,0,4.116-9.075Z" transform="translate(1153.007 2268.119)" fill="#fff"/>
    <path id="Trazado_184" data-name="Trazado 184" d="M5.9,0H3.845V-7.756A7.1,7.1,0,0,1,1.187-6.2V-8.064a5.952,5.952,0,0,0,1.75-1,3.8,3.8,0,0,0,1.3-1.718H5.9Z" transform="translate(1153.007 2302.877)" fill="#fff"/>
    <path id="Trazado_185" data-name="Trazado 185" d="M7.588-1.912V0H.374a4.969,4.969,0,0,1,.7-2.054A13.671,13.671,0,0,1,3.391-4.629,14.558,14.558,0,0,0,5.1-6.387a2.264,2.264,0,0,0,.425-1.26A1.432,1.432,0,0,0,5.153-8.7a1.381,1.381,0,0,0-1.022-.37,1.371,1.371,0,0,0-1.025.388A1.994,1.994,0,0,0,2.666-7.4L.615-7.6a3.362,3.362,0,0,1,1.15-2.439,3.861,3.861,0,0,1,2.417-.74,3.493,3.493,0,0,1,2.5.857,2.811,2.811,0,0,1,.908,2.131,3.71,3.71,0,0,1-.26,1.381A5.614,5.614,0,0,1,6.5-5.039a13.186,13.186,0,0,1-1.348,1.37q-.974.894-1.234,1.187a3.553,3.553,0,0,0-.421.571Z" transform="translate(1153.007 2337.634)" fill="#fff"/>
    <path id="Trazado_186" data-name="Trazado 186" d="M.564-2.849l1.992-.242a1.886,1.886,0,0,0,.513,1.165,1.4,1.4,0,0,0,1.011.4,1.388,1.388,0,0,0,1.073-.483,1.874,1.874,0,0,0,.436-1.3,1.748,1.748,0,0,0-.417-1.23A1.331,1.331,0,0,0,4.153-5a3.59,3.59,0,0,0-.945.154l.227-1.677a1.8,1.8,0,0,0,1.274-.363A1.291,1.291,0,0,0,5.149-7.9a1.168,1.168,0,0,0-.322-.864,1.158,1.158,0,0,0-.857-.322,1.24,1.24,0,0,0-.9.366,1.72,1.72,0,0,0-.454,1.069l-1.9-.322a4.24,4.24,0,0,1,.6-1.556,2.694,2.694,0,0,1,1.113-.916,3.739,3.739,0,0,1,1.6-.333,3.192,3.192,0,0,1,2.432.967,2.524,2.524,0,0,1,.754,1.787A2.529,2.529,0,0,1,5.669-5.771a2.5,2.5,0,0,1,1.476.886A2.572,2.572,0,0,1,7.7-3.223,3.225,3.225,0,0,1,6.665-.813a3.557,3.557,0,0,1-2.571,1A3.54,3.54,0,0,1,1.677-.656,3.3,3.3,0,0,1,.564-2.849Z" transform="translate(1153.007 2372.392)" fill="#fff"/>
    <path id="Trazado_187" data-name="Trazado 187" d="M4.673,0V-2.161H.278v-1.8l4.658-6.819H6.665V-3.97H8v1.809H6.665V0Zm0-3.97V-7.639L2.2-3.97Z" transform="translate(1153.007 2407.149)" fill="#fff"/>
    <path id="Trazado_188" data-name="Trazado 188" d="M1.113,0V-10.737H3.223l4.395,7.17v-7.17H9.631V0H7.456L3.127-7V0Zm10.8-8.833v-1.9h2.058v1.9Zm0,8.833V-7.778h2.058V0ZM23.152,0H21.094V-3.97a6.135,6.135,0,0,0-.132-1.63,1.143,1.143,0,0,0-.428-.575,1.225,1.225,0,0,0-.714-.205,1.65,1.65,0,0,0-.959.293,1.476,1.476,0,0,0-.582.776,6.711,6.711,0,0,0-.157,1.787V0H16.062V-7.778h1.912v1.143a3.114,3.114,0,0,1,2.563-1.318,3.088,3.088,0,0,1,1.245.245,2.086,2.086,0,0,1,.853.626,2.269,2.269,0,0,1,.4.864,6.428,6.428,0,0,1,.114,1.384Zm1.9.513L27.4.8a.8.8,0,0,0,.271.564,1.547,1.547,0,0,0,.923.22A2.4,2.4,0,0,0,29.8,1.34a1,1,0,0,0,.41-.52,3.125,3.125,0,0,0,.1-.945V-1.26A2.785,2.785,0,0,1,27.979,0,2.867,2.867,0,0,1,25.5-1.326a4.506,4.506,0,0,1-.718-2.607,4.289,4.289,0,0,1,.941-2.988,3.037,3.037,0,0,1,2.34-1.033,2.849,2.849,0,0,1,2.38,1.267V-7.778h1.926V-.8a6.954,6.954,0,0,1-.227,2.058A2.55,2.55,0,0,1,31.5,2.329a2.819,2.819,0,0,1-1.095.608,5.764,5.764,0,0,1-1.732.22,4.483,4.483,0,0,1-2.805-.677A2.125,2.125,0,0,1,25.042.762Q25.042.659,25.049.513ZM26.887-4.05a2.805,2.805,0,0,0,.48,1.813,1.483,1.483,0,0,0,1.183.575,1.635,1.635,0,0,0,1.274-.59A2.57,2.57,0,0,0,30.344-4a2.724,2.724,0,0,0-.5-1.794,1.583,1.583,0,0,0-1.26-.586,1.519,1.519,0,0,0-1.219.575A2.7,2.7,0,0,0,26.887-4.05ZM39.521,0V-1.165A3,3,0,0,1,38.4-.183a3.131,3.131,0,0,1-1.461.359,2.857,2.857,0,0,1-1.406-.344,2.032,2.032,0,0,1-.9-.967,4.314,4.314,0,0,1-.278-1.721V-7.778h2.058V-4.2a9.912,9.912,0,0,0,.114,2.01,1.1,1.1,0,0,0,.414.586,1.272,1.272,0,0,0,.762.216,1.619,1.619,0,0,0,.945-.289,1.472,1.472,0,0,0,.571-.718,8.331,8.331,0,0,0,.154-2.1V-7.778h2.058V0ZM50.64,0H48.582V-3.97A6.135,6.135,0,0,0,48.45-5.6a1.143,1.143,0,0,0-.428-.575,1.225,1.225,0,0,0-.714-.205,1.65,1.65,0,0,0-.959.293,1.476,1.476,0,0,0-.582.776,6.711,6.711,0,0,0-.157,1.787V0H43.55V-7.778h1.912v1.143a3.114,3.114,0,0,1,2.563-1.318,3.088,3.088,0,0,1,1.245.245,2.086,2.086,0,0,1,.853.626,2.269,2.269,0,0,1,.4.864,6.428,6.428,0,0,1,.114,1.384Z" transform="translate(1227.625 2268.134)" fill="#fff"/>
    <path id="Trazado_189" data-name="Trazado 189" d="M2.615-5.405.747-5.742a2.909,2.909,0,0,1,1.084-1.67,3.967,3.967,0,0,1,2.285-.542,4.925,4.925,0,0,1,2.051.326,2.045,2.045,0,0,1,.948.828A4.244,4.244,0,0,1,7.39-4.958l-.022,2.4a8.34,8.34,0,0,0,.1,1.512A4.415,4.415,0,0,0,7.837,0H5.8Q5.72-.205,5.6-.608,5.552-.791,5.53-.85A3.71,3.71,0,0,1,4.4-.081,3.231,3.231,0,0,1,3.12.176,2.65,2.65,0,0,1,1.227-.476,2.167,2.167,0,0,1,.535-2.124,2.212,2.212,0,0,1,.85-3.3a2.058,2.058,0,0,1,.883-.791,6.9,6.9,0,0,1,1.637-.48,11.213,11.213,0,0,0,2-.505v-.205a1.066,1.066,0,0,0-.293-.846A1.756,1.756,0,0,0,3.97-6.379a1.473,1.473,0,0,0-.857.216A1.5,1.5,0,0,0,2.615-5.405Zm2.754,1.67a12.864,12.864,0,0,1-1.252.315A3.773,3.773,0,0,0,3-3.062a.858.858,0,0,0-.4.725,1.01,1.01,0,0,0,.322.747,1.125,1.125,0,0,0,.82.315A1.782,1.782,0,0,0,4.8-1.641a1.289,1.289,0,0,0,.491-.681,4.064,4.064,0,0,0,.081-1Z" transform="translate(1279.498 2268.134)" fill="#fff"/>
    <path id="Trazado_190" data-name="Trazado 190" d="M1.15,0V-10.649H3.318v8.84H8.708V0ZM14.744-2.476l2.051.344A3.364,3.364,0,0,1,15.546-.414a3.669,3.669,0,0,1-2.135.59,3.48,3.48,0,0,1-3-1.326,4.454,4.454,0,0,1-.769-2.681,4.3,4.3,0,0,1,1.011-3.029,3.329,3.329,0,0,1,2.556-1.095,3.453,3.453,0,0,1,2.739,1.146A5.072,5.072,0,0,1,16.9-3.3H11.748a2.082,2.082,0,0,0,.5,1.425,1.558,1.558,0,0,0,1.187.509,1.26,1.26,0,0,0,.813-.264A1.628,1.628,0,0,0,14.744-2.476Zm.117-2.08A1.982,1.982,0,0,0,14.4-5.914a1.416,1.416,0,0,0-1.069-.465,1.429,1.429,0,0,0-1.113.491,1.9,1.9,0,0,0-.432,1.333ZM20.72,0,17.585-7.778h2.161l1.465,3.97.425,1.326q.168-.505.212-.667.1-.33.22-.659l1.479-3.97h2.117L22.573,0ZM31.428-2.476l2.051.344A3.364,3.364,0,0,1,32.23-.414,3.669,3.669,0,0,1,30.1.176a3.48,3.48,0,0,1-3-1.326,4.454,4.454,0,0,1-.769-2.681,4.3,4.3,0,0,1,1.011-3.029A3.329,3.329,0,0,1,29.89-7.954a3.453,3.453,0,0,1,2.739,1.146A5.072,5.072,0,0,1,33.589-3.3H28.433a2.082,2.082,0,0,0,.5,1.425,1.558,1.558,0,0,0,1.187.509,1.26,1.26,0,0,0,.813-.264A1.628,1.628,0,0,0,31.428-2.476Zm.117-2.08a1.982,1.982,0,0,0-.461-1.359,1.416,1.416,0,0,0-1.069-.465,1.429,1.429,0,0,0-1.113.491,1.9,1.9,0,0,0-.432,1.333Z" transform="translate(1240.571 2302.892)" fill="#fff"/>
    <path id="Trazado_191" data-name="Trazado 191" d="M1.062,0V-10.737H4.307L6.255-3.413l1.926-7.324h3.252V0H9.419V-8.452L7.288,0H5.2L3.076-8.452V0ZM13.1-4A4.208,4.208,0,0,1,13.6-5.984a3.469,3.469,0,0,1,1.432-1.465A4.249,4.249,0,0,1,17.1-7.954,3.883,3.883,0,0,1,20-6.808a3.96,3.96,0,0,1,1.128,2.9A4.008,4.008,0,0,1,19.984-.985,3.849,3.849,0,0,1,17.117.176a4.517,4.517,0,0,1-2.04-.483A3.316,3.316,0,0,1,13.6-1.725,4.722,4.722,0,0,1,13.1-4Zm2.109.11a2.577,2.577,0,0,0,.549,1.772,1.745,1.745,0,0,0,1.355.615,1.734,1.734,0,0,0,1.351-.615A2.613,2.613,0,0,0,19.006-3.9a2.565,2.565,0,0,0-.546-1.758,1.734,1.734,0,0,0-1.351-.615,1.745,1.745,0,0,0-1.355.615A2.577,2.577,0,0,0,15.205-3.889ZM29.868,0H27.957V-1.143a3.088,3.088,0,0,1-1.124.992,2.884,2.884,0,0,1-1.307.326,2.963,2.963,0,0,1-2.3-1.08,4.395,4.395,0,0,1-.956-3.014,4.343,4.343,0,0,1,.93-3.007,3.032,3.032,0,0,1,2.351-1.029A2.912,2.912,0,0,1,27.81-6.87v-3.867h2.058ZM24.375-4.058a3.562,3.562,0,0,0,.344,1.8,1.555,1.555,0,0,0,1.392.806,1.515,1.515,0,0,0,1.208-.6,2.789,2.789,0,0,0,.5-1.805,3.052,3.052,0,0,0-.483-1.93,1.53,1.53,0,0,0-1.238-.59,1.546,1.546,0,0,0-1.227.582A2.631,2.631,0,0,0,24.375-4.058ZM36.4-2.476l2.051.344A3.364,3.364,0,0,1,37.2-.414a3.669,3.669,0,0,1-2.135.59,3.48,3.48,0,0,1-3-1.326A4.454,4.454,0,0,1,31.3-3.831a4.3,4.3,0,0,1,1.011-3.029,3.329,3.329,0,0,1,2.556-1.095A3.453,3.453,0,0,1,37.6-6.808,5.072,5.072,0,0,1,38.562-3.3H33.406a2.082,2.082,0,0,0,.5,1.425,1.558,1.558,0,0,0,1.187.509,1.26,1.26,0,0,0,.813-.264A1.628,1.628,0,0,0,36.4-2.476Zm.117-2.08a1.982,1.982,0,0,0-.461-1.359,1.416,1.416,0,0,0-1.069-.465,1.429,1.429,0,0,0-1.113.491,1.9,1.9,0,0,0-.432,1.333ZM42.209,0H40.151V-7.778h1.912v1.106a3.324,3.324,0,0,1,.883-1.033,1.624,1.624,0,0,1,.89-.249,2.612,2.612,0,0,1,1.355.388l-.637,1.794a1.806,1.806,0,0,0-.967-.337,1.142,1.142,0,0,0-.732.238,1.627,1.627,0,0,0-.472.861A12.226,12.226,0,0,0,42.209-2.4Zm5.405-5.405-1.868-.337a2.909,2.909,0,0,1,1.084-1.67,3.967,3.967,0,0,1,2.285-.542,4.925,4.925,0,0,1,2.051.326,2.045,2.045,0,0,1,.948.828,4.244,4.244,0,0,1,.275,1.842l-.022,2.4a8.34,8.34,0,0,0,.1,1.512A4.415,4.415,0,0,0,52.837,0H50.8q-.081-.205-.2-.608-.051-.183-.073-.242A3.71,3.71,0,0,1,49.4-.081,3.231,3.231,0,0,1,48.12.176a2.65,2.65,0,0,1-1.893-.652,2.167,2.167,0,0,1-.692-1.648A2.212,2.212,0,0,1,45.85-3.3a2.058,2.058,0,0,1,.883-.791,6.9,6.9,0,0,1,1.637-.48,11.213,11.213,0,0,0,2-.505v-.205a1.066,1.066,0,0,0-.293-.846,1.756,1.756,0,0,0-1.106-.253,1.473,1.473,0,0,0-.857.216A1.5,1.5,0,0,0,47.615-5.405Zm2.754,1.67a12.864,12.864,0,0,1-1.252.315A3.773,3.773,0,0,0,48-3.062a.858.858,0,0,0-.4.725,1.01,1.01,0,0,0,.322.747,1.125,1.125,0,0,0,.82.315A1.782,1.782,0,0,0,49.8-1.641a1.289,1.289,0,0,0,.491-.681,4.064,4.064,0,0,0,.081-1ZM61.553,0H59.641V-1.143a3.088,3.088,0,0,1-1.124.992,2.884,2.884,0,0,1-1.307.326,2.963,2.963,0,0,1-2.3-1.08,4.395,4.395,0,0,1-.956-3.014,4.343,4.343,0,0,1,.93-3.007,3.032,3.032,0,0,1,2.351-1.029A2.912,2.912,0,0,1,59.495-6.87v-3.867h2.058ZM56.06-4.058a3.562,3.562,0,0,0,.344,1.8A1.555,1.555,0,0,0,57.8-1.45,1.515,1.515,0,0,0,59-2.054a2.789,2.789,0,0,0,.5-1.805,3.052,3.052,0,0,0-.483-1.93,1.53,1.53,0,0,0-1.238-.59,1.546,1.546,0,0,0-1.227.582A2.631,2.631,0,0,0,56.06-4.058Z" transform="translate(1222.176 2337.649)" fill="#fff"/>
    <path id="Trazado_192" data-name="Trazado 192" d="M2.615-5.405.747-5.742a2.909,2.909,0,0,1,1.084-1.67,3.967,3.967,0,0,1,2.285-.542,4.925,4.925,0,0,1,2.051.326,2.045,2.045,0,0,1,.948.828A4.244,4.244,0,0,1,7.39-4.958l-.022,2.4a8.34,8.34,0,0,0,.1,1.512A4.415,4.415,0,0,0,7.837,0H5.8Q5.72-.205,5.6-.608,5.552-.791,5.53-.85A3.71,3.71,0,0,1,4.4-.081,3.231,3.231,0,0,1,3.12.176,2.65,2.65,0,0,1,1.227-.476,2.167,2.167,0,0,1,.535-2.124,2.212,2.212,0,0,1,.85-3.3a2.058,2.058,0,0,1,.883-.791,6.9,6.9,0,0,1,1.637-.48,11.213,11.213,0,0,0,2-.505v-.205a1.066,1.066,0,0,0-.293-.846A1.756,1.756,0,0,0,3.97-6.379a1.473,1.473,0,0,0-.857.216A1.5,1.5,0,0,0,2.615-5.405Zm2.754,1.67a12.864,12.864,0,0,1-1.252.315A3.773,3.773,0,0,0,3-3.062a.858.858,0,0,0-.4.725,1.01,1.01,0,0,0,.322.747,1.125,1.125,0,0,0,.82.315A1.782,1.782,0,0,0,4.8-1.641a1.289,1.289,0,0,0,.491-.681,4.064,4.064,0,0,0,.081-1Z" transform="translate(1284.932 2337.649)" fill="#fff"/>
    <path id="Trazado_193" data-name="Trazado 193" d="M.542-3.494,2.651-3.7a2.573,2.573,0,0,0,.773,1.56A2.336,2.336,0,0,0,5-1.641a2.415,2.415,0,0,0,1.578-.443A1.318,1.318,0,0,0,7.1-3.12a.977.977,0,0,0-.223-.648,1.785,1.785,0,0,0-.78-.465Q5.72-4.365,4.365-4.7A5.889,5.889,0,0,1,1.919-5.764,2.794,2.794,0,0,1,.93-7.925,2.76,2.76,0,0,1,1.4-9.459a2.912,2.912,0,0,1,1.34-1.088,5.372,5.372,0,0,1,2.113-.374,4.532,4.532,0,0,1,3.043.886A3.128,3.128,0,0,1,8.965-7.668l-2.168.1a1.841,1.841,0,0,0-.6-1.19,2.186,2.186,0,0,0-1.373-.363,2.477,2.477,0,0,0-1.479.388A.782.782,0,0,0,3-8.071a.825.825,0,0,0,.322.652A5.7,5.7,0,0,0,5.317-6.7a10.513,10.513,0,0,1,2.34.773A3.016,3.016,0,0,1,8.844-4.838a3.192,3.192,0,0,1,.428,1.71A3.162,3.162,0,0,1,8.76-1.4,3.073,3.073,0,0,1,7.31-.2,6.081,6.081,0,0,1,4.973.19,4.651,4.651,0,0,1,1.846-.751,4.094,4.094,0,0,1,.542-3.494ZM15.586-2.476l2.051.344A3.364,3.364,0,0,1,16.388-.414a3.669,3.669,0,0,1-2.135.59,3.48,3.48,0,0,1-3-1.326,4.454,4.454,0,0,1-.769-2.681,4.3,4.3,0,0,1,1.011-3.029,3.329,3.329,0,0,1,2.556-1.095,3.453,3.453,0,0,1,2.739,1.146A5.072,5.072,0,0,1,17.747-3.3H12.59a2.082,2.082,0,0,0,.5,1.425,1.558,1.558,0,0,0,1.187.509,1.26,1.26,0,0,0,.813-.264A1.628,1.628,0,0,0,15.586-2.476Zm.117-2.08a1.982,1.982,0,0,0-.461-1.359,1.416,1.416,0,0,0-1.069-.465,1.429,1.429,0,0,0-1.113.491,1.9,1.9,0,0,0-.432,1.333ZM21.563,0,18.428-7.778h2.161l1.465,3.97.425,1.326q.168-.505.212-.667.1-.33.22-.659l1.479-3.97h2.117L23.416,0ZM32.271-2.476l2.051.344A3.364,3.364,0,0,1,33.073-.414a3.669,3.669,0,0,1-2.135.59,3.48,3.48,0,0,1-3-1.326,4.454,4.454,0,0,1-.769-2.681,4.3,4.3,0,0,1,1.011-3.029,3.329,3.329,0,0,1,2.556-1.095,3.453,3.453,0,0,1,2.739,1.146A5.072,5.072,0,0,1,34.431-3.3H29.275a2.082,2.082,0,0,0,.5,1.425,1.558,1.558,0,0,0,1.187.509,1.26,1.26,0,0,0,.813-.264A1.628,1.628,0,0,0,32.271-2.476Zm.117-2.08a1.982,1.982,0,0,0-.461-1.359,1.416,1.416,0,0,0-1.069-.465,1.429,1.429,0,0,0-1.113.491,1.9,1.9,0,0,0-.432,1.333ZM38.079,0H36.021V-7.778h1.912v1.106a3.324,3.324,0,0,1,.883-1.033,1.624,1.624,0,0,1,.89-.249,2.612,2.612,0,0,1,1.355.388l-.637,1.794a1.806,1.806,0,0,0-.967-.337,1.142,1.142,0,0,0-.732.238,1.627,1.627,0,0,0-.472.861A12.226,12.226,0,0,0,38.079-2.4Zm5.405-5.405-1.868-.337A2.909,2.909,0,0,1,42.7-7.412a3.967,3.967,0,0,1,2.285-.542,4.925,4.925,0,0,1,2.051.326,2.045,2.045,0,0,1,.948.828,4.244,4.244,0,0,1,.275,1.842l-.022,2.4a8.34,8.34,0,0,0,.1,1.512A4.415,4.415,0,0,0,48.706,0H46.67q-.081-.205-.2-.608Q46.421-.791,46.4-.85a3.71,3.71,0,0,1-1.128.769,3.231,3.231,0,0,1-1.282.256A2.65,2.65,0,0,1,42.1-.476,2.167,2.167,0,0,1,41.4-2.124,2.212,2.212,0,0,1,41.719-3.3a2.058,2.058,0,0,1,.883-.791,6.9,6.9,0,0,1,1.637-.48,11.213,11.213,0,0,0,2-.505v-.205a1.066,1.066,0,0,0-.293-.846,1.756,1.756,0,0,0-1.106-.253,1.473,1.473,0,0,0-.857.216A1.5,1.5,0,0,0,43.484-5.405Zm2.754,1.67a12.864,12.864,0,0,1-1.252.315,3.773,3.773,0,0,0-1.121.359.858.858,0,0,0-.4.725,1.01,1.01,0,0,0,.322.747,1.125,1.125,0,0,0,.82.315,1.782,1.782,0,0,0,1.062-.366,1.289,1.289,0,0,0,.491-.681,4.064,4.064,0,0,0,.081-1Z" transform="translate(1233.029 2372.407)" fill="#fff"/>
    <path id="Trazado_194" data-name="Trazado 194" d="M7.961-3.948l2.1.667A4.715,4.715,0,0,1,8.456-.67,4.586,4.586,0,0,1,5.6.183,4.619,4.619,0,0,1,2.087-1.278a5.591,5.591,0,0,1-1.377-4A5.87,5.87,0,0,1,2.095-9.437a4.747,4.747,0,0,1,3.64-1.483,4.466,4.466,0,0,1,3.2,1.165,4.235,4.235,0,0,1,1.1,1.978l-2.146.513a2.276,2.276,0,0,0-.795-1.318,2.277,2.277,0,0,0-1.469-.483,2.443,2.443,0,0,0-1.937.857,4.2,4.2,0,0,0-.743,2.776,4.5,4.5,0,0,0,.732,2.9,2.378,2.378,0,0,0,1.9.864,2.172,2.172,0,0,0,1.487-.549A3.191,3.191,0,0,0,7.961-3.948ZM11.433-4a4.208,4.208,0,0,1,.505-1.985A3.469,3.469,0,0,1,13.37-7.449a4.249,4.249,0,0,1,2.069-.505,3.883,3.883,0,0,1,2.893,1.146,3.96,3.96,0,0,1,1.128,2.9A4.008,4.008,0,0,1,18.322-.985,3.849,3.849,0,0,1,15.454.176a4.517,4.517,0,0,1-2.04-.483,3.316,3.316,0,0,1-1.476-1.417A4.722,4.722,0,0,1,11.433-4Zm2.109.11a2.577,2.577,0,0,0,.549,1.772,1.745,1.745,0,0,0,1.355.615A1.734,1.734,0,0,0,16.8-2.117,2.613,2.613,0,0,0,17.344-3.9,2.565,2.565,0,0,0,16.8-5.662a1.734,1.734,0,0,0-1.351-.615,1.745,1.745,0,0,0-1.355.615A2.577,2.577,0,0,0,13.542-3.889Zm7.375-3.889h1.9v1.062a3.052,3.052,0,0,1,2.424-1.238,2.611,2.611,0,0,1,1.3.308,2.364,2.364,0,0,1,.9.93,3.593,3.593,0,0,1,1.106-.93,2.713,2.713,0,0,1,1.267-.308,2.822,2.822,0,0,1,1.45.348,2.131,2.131,0,0,1,.886,1.022,4.432,4.432,0,0,1,.212,1.611V0H30.3V-4.446a3.308,3.308,0,0,0-.212-1.494.975.975,0,0,0-.879-.439,1.4,1.4,0,0,0-.813.264,1.463,1.463,0,0,0-.549.773,5.559,5.559,0,0,0-.168,1.608V0H25.62V-4.263a5.913,5.913,0,0,0-.11-1.465.935.935,0,0,0-.341-.491,1.077,1.077,0,0,0-.626-.161,1.5,1.5,0,0,0-.857.256,1.406,1.406,0,0,0-.546.74,5.5,5.5,0,0,0-.165,1.6V0H20.918Zm13.433,0H36.27v1.143a2.871,2.871,0,0,1,1.011-.952,2.786,2.786,0,0,1,1.414-.366,2.966,2.966,0,0,1,2.3,1.062,4.3,4.3,0,0,1,.945,2.959A4.429,4.429,0,0,1,40.986-.9,2.966,2.966,0,0,1,38.679.176a2.621,2.621,0,0,1-1.168-.256,3.938,3.938,0,0,1-1.1-.879V2.959H34.351Zm2.036,3.757a3,3,0,0,0,.52,1.937,1.591,1.591,0,0,0,1.267.626,1.487,1.487,0,0,0,1.194-.575,2.962,2.962,0,0,0,.476-1.886,2.811,2.811,0,0,0-.491-1.816,1.518,1.518,0,0,0-1.216-.593,1.579,1.579,0,0,0-1.252.582A2.592,2.592,0,0,0,36.387-4.021ZM43.572,0V-10.737H45.63V0Zm8.672-2.476,2.051.344A3.364,3.364,0,0,1,53.046-.414a3.669,3.669,0,0,1-2.135.59,3.48,3.48,0,0,1-3-1.326,4.454,4.454,0,0,1-.769-2.681,4.3,4.3,0,0,1,1.011-3.029,3.329,3.329,0,0,1,2.556-1.095,3.453,3.453,0,0,1,2.739,1.146A5.072,5.072,0,0,1,54.4-3.3H49.248a2.082,2.082,0,0,0,.5,1.425,1.558,1.558,0,0,0,1.187.509,1.26,1.26,0,0,0,.813-.264A1.628,1.628,0,0,0,52.244-2.476Zm.117-2.08A1.982,1.982,0,0,0,51.9-5.914a1.416,1.416,0,0,0-1.069-.465,1.429,1.429,0,0,0-1.113.491,1.9,1.9,0,0,0-.432,1.333Zm7.288-3.223v1.641H58.242V-3a7.8,7.8,0,0,0,.04,1.11.452.452,0,0,0,.183.26.581.581,0,0,0,.348.1,2.662,2.662,0,0,0,.828-.2l.176,1.6a4.091,4.091,0,0,1-1.626.308,2.579,2.579,0,0,1-1-.187,1.464,1.464,0,0,1-.656-.483,1.908,1.908,0,0,1-.289-.8,9.976,9.976,0,0,1-.066-1.45V-6.138h-.945V-7.778h.945V-9.324l2.065-1.2v2.747Zm2.966,2.373-1.868-.337a2.909,2.909,0,0,1,1.084-1.67,3.967,3.967,0,0,1,2.285-.542,4.925,4.925,0,0,1,2.051.326,2.045,2.045,0,0,1,.948.828,4.244,4.244,0,0,1,.275,1.842l-.022,2.4a8.34,8.34,0,0,0,.1,1.512A4.415,4.415,0,0,0,67.837,0H65.8q-.081-.205-.2-.608-.051-.183-.073-.242A3.71,3.71,0,0,1,64.4-.081,3.231,3.231,0,0,1,63.12.176a2.65,2.65,0,0,1-1.893-.652,2.167,2.167,0,0,1-.692-1.648A2.212,2.212,0,0,1,60.85-3.3a2.058,2.058,0,0,1,.883-.791,6.9,6.9,0,0,1,1.637-.48,11.213,11.213,0,0,0,2-.505v-.205a1.066,1.066,0,0,0-.293-.846,1.756,1.756,0,0,0-1.106-.253,1.473,1.473,0,0,0-.857.216A1.5,1.5,0,0,0,62.615-5.405Zm2.754,1.67a12.864,12.864,0,0,1-1.252.315A3.773,3.773,0,0,0,63-3.062a.858.858,0,0,0-.4.725,1.01,1.01,0,0,0,.322.747,1.125,1.125,0,0,0,.82.315A1.782,1.782,0,0,0,64.8-1.641a1.289,1.289,0,0,0,.491-.681,4.064,4.064,0,0,0,.081-1Z" transform="translate(1223.425 2407.165)" fill="#fff"/>
    <path id="Trazado_195" data-name="Trazado 195" d="M4.116-10.781A2.934,2.934,0,0,1,6.555-9.668,7.108,7.108,0,0,1,7.6-5.3,7.124,7.124,0,0,1,6.548-.916,2.929,2.929,0,0,1,4.116.183a3.073,3.073,0,0,1-2.527-1.2Q.63-2.227.63-5.317A7.094,7.094,0,0,1,1.685-9.683,2.929,2.929,0,0,1,4.116-10.781Zm0,1.707a1.028,1.028,0,0,0-.667.238A1.6,1.6,0,0,0,3-7.983,11.769,11.769,0,0,0,2.783-5.3a11.683,11.683,0,0,0,.19,2.6,1.826,1.826,0,0,0,.48.941,1.023,1.023,0,0,0,.663.234,1.028,1.028,0,0,0,.667-.238,1.6,1.6,0,0,0,.454-.853A11.665,11.665,0,0,0,5.449-5.3a11.683,11.683,0,0,0-.19-2.6,1.851,1.851,0,0,0-.48-.945A1.014,1.014,0,0,0,4.116-9.075ZM9.185-2.864V-4.922h4.043v2.058ZM18.01,0V-2.161H13.616v-1.8l4.658-6.819H20V-3.97h1.333v1.809H20V0Zm0-3.97V-7.639L15.542-3.97Zm4.321-4.116a3.1,3.1,0,0,1,.634-2.139,2.208,2.208,0,0,1,1.718-.7,2.259,2.259,0,0,1,1.754.692,3.094,3.094,0,0,1,.634,2.142,3.1,3.1,0,0,1-.634,2.139,2.208,2.208,0,0,1-1.718.7,2.259,2.259,0,0,1-1.754-.692A3.094,3.094,0,0,1,22.332-8.086Zm1.6-.015a2.775,2.775,0,0,0,.242,1.406.582.582,0,0,0,.505.264.589.589,0,0,0,.513-.264A2.85,2.85,0,0,0,25.43-8.1,2.8,2.8,0,0,0,25.2-9.5a.584.584,0,0,0-.513-.271.582.582,0,0,0-.505.264A2.775,2.775,0,0,0,23.936-8.1ZM26.25.41H24.727l5.72-11.331h1.479Zm3.325-2.82a3.1,3.1,0,0,1,.634-2.139,2.226,2.226,0,0,1,1.732-.7,2.235,2.235,0,0,1,1.74.7,3.1,3.1,0,0,1,.634,2.139A3.109,3.109,0,0,1,33.68-.264a2.208,2.208,0,0,1-1.718.7,2.253,2.253,0,0,1-1.754-.7A3.109,3.109,0,0,1,29.575-2.41Zm1.6-.007a2.729,2.729,0,0,0,.242,1.4.578.578,0,0,0,.505.271.571.571,0,0,0,.505-.264,2.775,2.775,0,0,0,.242-1.406,2.85,2.85,0,0,0-.234-1.406.589.589,0,0,0-.513-.264.571.571,0,0,0-.505.264A2.775,2.775,0,0,0,31.179-2.417Z" transform="translate(1349.405 2268.149)" fill="#fff"/>
    <path id="Trazado_196" data-name="Trazado 196" d="M.667-2.761l2.051-.212a1.759,1.759,0,0,0,.52,1.1,1.411,1.411,0,0,0,1,.406,1.383,1.383,0,0,0,1.091-.524,2.383,2.383,0,0,0,.447-1.578A2.162,2.162,0,0,0,5.328-5.05a1.477,1.477,0,0,0-1.154-.494,2.1,2.1,0,0,0-1.589.784L.916-5,1.97-10.591H7.412v1.926H3.53L3.208-6.841a3.112,3.112,0,0,1,1.406-.344,3.09,3.09,0,0,1,2.322,1A3.587,3.587,0,0,1,7.888-3.6a3.877,3.877,0,0,1-.769,2.366A3.409,3.409,0,0,1,4.211.183a3.609,3.609,0,0,1-2.424-.8A3.288,3.288,0,0,1,.667-2.761Zm8.518-.1V-4.922h4.043v2.058Zm11.741.952V0H13.711a4.969,4.969,0,0,1,.7-2.054,13.671,13.671,0,0,1,2.314-2.574,14.558,14.558,0,0,0,1.707-1.758,2.264,2.264,0,0,0,.425-1.26A1.432,1.432,0,0,0,18.49-8.7a1.381,1.381,0,0,0-1.022-.37,1.371,1.371,0,0,0-1.025.388A1.994,1.994,0,0,0,16-7.4L13.953-7.6a3.362,3.362,0,0,1,1.15-2.439,3.861,3.861,0,0,1,2.417-.74,3.493,3.493,0,0,1,2.5.857,2.811,2.811,0,0,1,.908,2.131,3.71,3.71,0,0,1-.26,1.381,5.614,5.614,0,0,1-.824,1.373,13.185,13.185,0,0,1-1.348,1.37q-.974.894-1.234,1.187a3.553,3.553,0,0,0-.421.571ZM26.353,0V-2.161H21.958v-1.8l4.658-6.819h1.729V-3.97h1.333v1.809H28.345V0Zm0-3.97V-7.639L23.884-3.97Zm4.321-4.116a3.1,3.1,0,0,1,.634-2.139,2.208,2.208,0,0,1,1.718-.7,2.259,2.259,0,0,1,1.754.692,3.094,3.094,0,0,1,.634,2.142,3.1,3.1,0,0,1-.634,2.139,2.208,2.208,0,0,1-1.718.7,2.259,2.259,0,0,1-1.754-.692A3.094,3.094,0,0,1,30.674-8.086Zm1.6-.015a2.775,2.775,0,0,0,.242,1.406.582.582,0,0,0,.505.264.589.589,0,0,0,.513-.264A2.85,2.85,0,0,0,33.772-8.1a2.8,2.8,0,0,0-.234-1.4.584.584,0,0,0-.513-.271.582.582,0,0,0-.505.264A2.775,2.775,0,0,0,32.278-8.1ZM34.592.41H33.069l5.72-11.331h1.479Zm3.325-2.82a3.1,3.1,0,0,1,.634-2.139,2.226,2.226,0,0,1,1.732-.7,2.235,2.235,0,0,1,1.74.7,3.1,3.1,0,0,1,.634,2.139,3.109,3.109,0,0,1-.634,2.146,2.208,2.208,0,0,1-1.718.7,2.253,2.253,0,0,1-1.754-.7A3.109,3.109,0,0,1,37.917-2.41Zm1.6-.007a2.729,2.729,0,0,0,.242,1.4.578.578,0,0,0,.505.271.571.571,0,0,0,.505-.264,2.775,2.775,0,0,0,.242-1.406,2.85,2.85,0,0,0-.234-1.406.589.589,0,0,0-.513-.264.571.571,0,0,0-.505.264A2.775,2.775,0,0,0,39.521-2.417Z" transform="translate(1345.22 2302.907)" fill="#fff"/>
    <path id="Trazado_197" data-name="Trazado 197" d="M7.588-1.912V0H.374a4.969,4.969,0,0,1,.7-2.054A13.671,13.671,0,0,1,3.391-4.629,14.558,14.558,0,0,0,5.1-6.387a2.264,2.264,0,0,0,.425-1.26A1.432,1.432,0,0,0,5.153-8.7a1.381,1.381,0,0,0-1.022-.37,1.371,1.371,0,0,0-1.025.388A1.994,1.994,0,0,0,2.666-7.4L.615-7.6a3.362,3.362,0,0,1,1.15-2.439,3.861,3.861,0,0,1,2.417-.74,3.493,3.493,0,0,1,2.5.857,2.811,2.811,0,0,1,.908,2.131,3.71,3.71,0,0,1-.26,1.381A5.614,5.614,0,0,1,6.5-5.039a13.186,13.186,0,0,1-1.348,1.37q-.974.894-1.234,1.187a3.553,3.553,0,0,0-.421.571Zm1.421-.85,2.051-.212a1.759,1.759,0,0,0,.52,1.1,1.411,1.411,0,0,0,1,.406,1.383,1.383,0,0,0,1.091-.524,2.383,2.383,0,0,0,.447-1.578,2.162,2.162,0,0,0-.443-1.483,1.477,1.477,0,0,0-1.154-.494,2.1,2.1,0,0,0-1.589.784L9.258-5l1.055-5.588h5.442v1.926H11.873L11.55-6.841a3.112,3.112,0,0,1,1.406-.344,3.09,3.09,0,0,1,2.322,1A3.587,3.587,0,0,1,16.23-3.6a3.877,3.877,0,0,1-.769,2.366A3.409,3.409,0,0,1,12.554.183a3.609,3.609,0,0,1-2.424-.8A3.288,3.288,0,0,1,9.009-2.761Zm8.518-.1V-4.922H21.57v2.058ZM26.353,0V-2.161H21.958v-1.8l4.658-6.819h1.729V-3.97h1.333v1.809H28.345V0Zm0-3.97V-7.639L23.884-3.97ZM30.7-2.483,32.7-2.7a1.442,1.442,0,0,0,.381.9,1.13,1.13,0,0,0,.813.293,1.326,1.326,0,0,0,1.084-.586,4.991,4.991,0,0,0,.571-2.432,2.457,2.457,0,0,1-1.941.9A2.9,2.9,0,0,1,31.417-4.6,3.565,3.565,0,0,1,30.5-7.148a3.62,3.62,0,0,1,.97-2.633,3.3,3.3,0,0,1,2.472-1,3.327,3.327,0,0,1,2.681,1.263,6.528,6.528,0,0,1,1.047,4.156,6.608,6.608,0,0,1-1.091,4.248A3.53,3.53,0,0,1,33.735.19,3.006,3.006,0,0,1,31.7-.48,3.235,3.235,0,0,1,30.7-2.483Zm4.658-4.5A2.348,2.348,0,0,0,34.9-8.525a1.351,1.351,0,0,0-1.058-.549,1.186,1.186,0,0,0-.948.45,2.3,2.3,0,0,0-.377,1.476,2.344,2.344,0,0,0,.41,1.527,1.286,1.286,0,0,0,1.025.487,1.273,1.273,0,0,0,1-.469A2.047,2.047,0,0,0,35.361-6.98Zm3.655-1.106a3.1,3.1,0,0,1,.634-2.139,2.208,2.208,0,0,1,1.718-.7,2.259,2.259,0,0,1,1.754.692,3.094,3.094,0,0,1,.634,2.142,3.1,3.1,0,0,1-.634,2.139,2.208,2.208,0,0,1-1.718.7,2.259,2.259,0,0,1-1.754-.692A3.094,3.094,0,0,1,39.016-8.086Zm1.6-.015a2.775,2.775,0,0,0,.242,1.406.582.582,0,0,0,.505.264.589.589,0,0,0,.513-.264A2.85,2.85,0,0,0,42.114-8.1a2.8,2.8,0,0,0-.234-1.4.584.584,0,0,0-.513-.271.582.582,0,0,0-.505.264A2.775,2.775,0,0,0,40.62-8.1ZM42.935.41H41.411l5.72-11.331h1.479ZM46.26-2.41a3.1,3.1,0,0,1,.634-2.139,2.226,2.226,0,0,1,1.732-.7,2.235,2.235,0,0,1,1.74.7A3.1,3.1,0,0,1,51-2.41a3.109,3.109,0,0,1-.634,2.146,2.208,2.208,0,0,1-1.718.7,2.253,2.253,0,0,1-1.754-.7A3.109,3.109,0,0,1,46.26-2.41Zm1.6-.007a2.729,2.729,0,0,0,.242,1.4.578.578,0,0,0,.505.271.571.571,0,0,0,.505-.264,2.775,2.775,0,0,0,.242-1.406,2.85,2.85,0,0,0-.234-1.406.589.589,0,0,0-.513-.264.571.571,0,0,0-.505.264A2.775,2.775,0,0,0,47.864-2.417Z" transform="translate(1341.035 2337.664)" fill="#fff"/>
    <path id="Trazado_198" data-name="Trazado 198" d="M.667-2.761l2.051-.212a1.759,1.759,0,0,0,.52,1.1,1.411,1.411,0,0,0,1,.406,1.383,1.383,0,0,0,1.091-.524,2.383,2.383,0,0,0,.447-1.578A2.162,2.162,0,0,0,5.328-5.05a1.477,1.477,0,0,0-1.154-.494,2.1,2.1,0,0,0-1.589.784L.916-5,1.97-10.591H7.412v1.926H3.53L3.208-6.841a3.112,3.112,0,0,1,1.406-.344,3.09,3.09,0,0,1,2.322,1A3.587,3.587,0,0,1,7.888-3.6a3.877,3.877,0,0,1-.769,2.366A3.409,3.409,0,0,1,4.211.183a3.609,3.609,0,0,1-2.424-.8A3.288,3.288,0,0,1,.667-2.761Zm11.792-8.02A2.934,2.934,0,0,1,14.9-9.668,7.108,7.108,0,0,1,15.945-5.3,7.124,7.124,0,0,1,14.89-.916a2.929,2.929,0,0,1-2.432,1.1,3.073,3.073,0,0,1-2.527-1.2q-.959-1.2-.959-4.3a7.094,7.094,0,0,1,1.055-4.365A2.929,2.929,0,0,1,12.458-10.781Zm0,1.707a1.028,1.028,0,0,0-.667.238,1.6,1.6,0,0,0-.454.853A11.769,11.769,0,0,0,11.125-5.3a11.683,11.683,0,0,0,.19,2.6,1.826,1.826,0,0,0,.48.941,1.023,1.023,0,0,0,.663.234,1.028,1.028,0,0,0,.667-.238,1.6,1.6,0,0,0,.454-.853A11.665,11.665,0,0,0,13.792-5.3a11.683,11.683,0,0,0-.19-2.6,1.851,1.851,0,0,0-.48-.945A1.014,1.014,0,0,0,12.458-9.075Zm5.068,6.211V-4.922H21.57v2.058Zm4.834.381,1.992-.22a1.442,1.442,0,0,0,.381.9,1.13,1.13,0,0,0,.813.293,1.326,1.326,0,0,0,1.084-.586A4.991,4.991,0,0,0,27.2-4.526a2.457,2.457,0,0,1-1.941.9A2.9,2.9,0,0,1,23.075-4.6a3.565,3.565,0,0,1-.919-2.545,3.62,3.62,0,0,1,.97-2.633,3.3,3.3,0,0,1,2.472-1,3.327,3.327,0,0,1,2.681,1.263,6.528,6.528,0,0,1,1.047,4.156,6.608,6.608,0,0,1-1.091,4.248A3.53,3.53,0,0,1,25.393.19a3.006,3.006,0,0,1-2.036-.67A3.235,3.235,0,0,1,22.361-2.483Zm4.658-4.5a2.348,2.348,0,0,0-.458-1.545A1.351,1.351,0,0,0,25.5-9.075a1.186,1.186,0,0,0-.948.45,2.3,2.3,0,0,0-.377,1.476,2.344,2.344,0,0,0,.41,1.527,1.286,1.286,0,0,0,1.025.487,1.273,1.273,0,0,0,1-.469A2.047,2.047,0,0,0,27.019-6.98Zm3.669,4.219,2.051-.212a1.759,1.759,0,0,0,.52,1.1,1.411,1.411,0,0,0,1,.406,1.383,1.383,0,0,0,1.091-.524,2.383,2.383,0,0,0,.447-1.578A2.162,2.162,0,0,0,35.35-5.05,1.477,1.477,0,0,0,34.2-5.544a2.1,2.1,0,0,0-1.589.784L30.938-5l1.055-5.588h5.442v1.926H33.552L33.23-6.841a3.112,3.112,0,0,1,1.406-.344,3.09,3.09,0,0,1,2.322,1A3.587,3.587,0,0,1,37.91-3.6a3.877,3.877,0,0,1-.769,2.366A3.409,3.409,0,0,1,34.233.183a3.609,3.609,0,0,1-2.424-.8A3.288,3.288,0,0,1,30.688-2.761Zm8.328-5.325a3.1,3.1,0,0,1,.634-2.139,2.208,2.208,0,0,1,1.718-.7,2.259,2.259,0,0,1,1.754.692,3.094,3.094,0,0,1,.634,2.142,3.1,3.1,0,0,1-.634,2.139,2.208,2.208,0,0,1-1.718.7,2.259,2.259,0,0,1-1.754-.692A3.094,3.094,0,0,1,39.016-8.086Zm1.6-.015a2.775,2.775,0,0,0,.242,1.406.582.582,0,0,0,.505.264.589.589,0,0,0,.513-.264A2.85,2.85,0,0,0,42.114-8.1a2.8,2.8,0,0,0-.234-1.4.584.584,0,0,0-.513-.271.582.582,0,0,0-.505.264A2.775,2.775,0,0,0,40.62-8.1ZM42.935.41H41.411l5.72-11.331h1.479ZM46.26-2.41a3.1,3.1,0,0,1,.634-2.139,2.226,2.226,0,0,1,1.732-.7,2.235,2.235,0,0,1,1.74.7A3.1,3.1,0,0,1,51-2.41a3.109,3.109,0,0,1-.634,2.146,2.208,2.208,0,0,1-1.718.7,2.253,2.253,0,0,1-1.754-.7A3.109,3.109,0,0,1,46.26-2.41Zm1.6-.007a2.729,2.729,0,0,0,.242,1.4.578.578,0,0,0,.505.271.571.571,0,0,0,.505-.264,2.775,2.775,0,0,0,.242-1.406,2.85,2.85,0,0,0-.234-1.406.589.589,0,0,0-.513-.264.571.571,0,0,0-.505.264A2.775,2.775,0,0,0,47.864-2.417Z" transform="translate(1341.035 2372.422)" fill="#fff"/>
    <path id="Trazado_199" data-name="Trazado 199" d="M.681-2.483,2.673-2.7a1.442,1.442,0,0,0,.381.9,1.13,1.13,0,0,0,.813.293,1.326,1.326,0,0,0,1.084-.586,4.991,4.991,0,0,0,.571-2.432,2.457,2.457,0,0,1-1.941.9A2.9,2.9,0,0,1,1.4-4.6,3.565,3.565,0,0,1,.476-7.148a3.62,3.62,0,0,1,.97-2.633,3.3,3.3,0,0,1,2.472-1A3.327,3.327,0,0,1,6.6-9.518,6.528,6.528,0,0,1,7.646-5.361,6.608,6.608,0,0,1,6.555-1.113,3.53,3.53,0,0,1,3.713.19,3.006,3.006,0,0,1,1.677-.48,3.235,3.235,0,0,1,.681-2.483Zm4.658-4.5a2.348,2.348,0,0,0-.458-1.545,1.351,1.351,0,0,0-1.058-.549,1.186,1.186,0,0,0-.948.45A2.3,2.3,0,0,0,2.5-7.148a2.344,2.344,0,0,0,.41,1.527,1.286,1.286,0,0,0,1.025.487,1.273,1.273,0,0,0,1-.469A2.047,2.047,0,0,0,5.339-6.98ZM15.952-8.108l-1.992.22a1.451,1.451,0,0,0-.381-.908,1.11,1.11,0,0,0-.8-.293,1.348,1.348,0,0,0-1.1.586,4.936,4.936,0,0,0-.568,2.439,2.406,2.406,0,0,1,1.912-.908,2.919,2.919,0,0,1,2.208.981,3.558,3.558,0,0,1,.919,2.534,3.635,3.635,0,0,1-.967,2.644,3.309,3.309,0,0,1-2.483,1A3.32,3.32,0,0,1,10.027-1.08,6.5,6.5,0,0,1,8.979-5.222a6.622,6.622,0,0,1,1.091-4.255,3.523,3.523,0,0,1,2.834-1.3,3.009,3.009,0,0,1,2.025.685A3.209,3.209,0,0,1,15.952-8.108Zm-4.666,4.49a2.332,2.332,0,0,0,.461,1.549,1.358,1.358,0,0,0,1.055.546,1.2,1.2,0,0,0,.952-.447,2.252,2.252,0,0,0,.381-1.465,2.358,2.358,0,0,0-.41-1.534A1.286,1.286,0,0,0,12.7-5.457a1.288,1.288,0,0,0-1,.465A2.02,2.02,0,0,0,11.287-3.618Zm6.24.754V-4.922H21.57v2.058ZM27.583,0H25.525V-7.756A7.1,7.1,0,0,1,22.866-6.2V-8.064a5.952,5.952,0,0,0,1.75-1,3.8,3.8,0,0,0,1.3-1.718h1.67Zm6.555-10.781a2.934,2.934,0,0,1,2.439,1.113A7.108,7.108,0,0,1,37.625-5.3,7.124,7.124,0,0,1,36.57-.916a2.929,2.929,0,0,1-2.432,1.1,3.073,3.073,0,0,1-2.527-1.2q-.959-1.2-.959-4.3a7.094,7.094,0,0,1,1.055-4.365A2.929,2.929,0,0,1,34.138-10.781Zm0,1.707a1.028,1.028,0,0,0-.667.238,1.6,1.6,0,0,0-.454.853A11.769,11.769,0,0,0,32.805-5.3,11.683,11.683,0,0,0,33-2.7a1.826,1.826,0,0,0,.48.941,1.023,1.023,0,0,0,.663.234,1.028,1.028,0,0,0,.667-.238,1.6,1.6,0,0,0,.454-.853A11.665,11.665,0,0,0,35.471-5.3a11.683,11.683,0,0,0-.19-2.6,1.851,1.851,0,0,0-.48-.945A1.014,1.014,0,0,0,34.138-9.075Zm8.342-1.707a2.934,2.934,0,0,1,2.439,1.113A7.108,7.108,0,0,1,45.967-5.3a7.124,7.124,0,0,1-1.055,4.38A2.929,2.929,0,0,1,42.48.183a3.073,3.073,0,0,1-2.527-1.2q-.959-1.2-.959-4.3a7.094,7.094,0,0,1,1.055-4.365A2.929,2.929,0,0,1,42.48-10.781Zm0,1.707a1.028,1.028,0,0,0-.667.238,1.6,1.6,0,0,0-.454.853A11.769,11.769,0,0,0,41.147-5.3a11.683,11.683,0,0,0,.19,2.6,1.826,1.826,0,0,0,.48.941,1.023,1.023,0,0,0,.663.234,1.028,1.028,0,0,0,.667-.238,1.6,1.6,0,0,0,.454-.853A11.665,11.665,0,0,0,43.813-5.3a11.683,11.683,0,0,0-.19-2.6,1.851,1.851,0,0,0-.48-.945A1.014,1.014,0,0,0,42.48-9.075Zm4.878.989a3.1,3.1,0,0,1,.634-2.139,2.208,2.208,0,0,1,1.718-.7,2.259,2.259,0,0,1,1.754.692A3.094,3.094,0,0,1,52.1-8.086a3.1,3.1,0,0,1-.634,2.139,2.208,2.208,0,0,1-1.718.7,2.259,2.259,0,0,1-1.754-.692A3.094,3.094,0,0,1,47.358-8.086Zm1.6-.015A2.775,2.775,0,0,0,49.2-6.694a.582.582,0,0,0,.505.264.589.589,0,0,0,.513-.264A2.85,2.85,0,0,0,50.457-8.1a2.8,2.8,0,0,0-.234-1.4.584.584,0,0,0-.513-.271.582.582,0,0,0-.505.264A2.775,2.775,0,0,0,48.962-8.1ZM51.277.41H49.753l5.72-11.331h1.479ZM54.6-2.41a3.1,3.1,0,0,1,.634-2.139,2.226,2.226,0,0,1,1.732-.7,2.235,2.235,0,0,1,1.74.7,3.1,3.1,0,0,1,.634,2.139,3.109,3.109,0,0,1-.634,2.146,2.208,2.208,0,0,1-1.718.7,2.253,2.253,0,0,1-1.754-.7A3.109,3.109,0,0,1,54.6-2.41Zm1.6-.007a2.729,2.729,0,0,0,.242,1.4.578.578,0,0,0,.505.271.571.571,0,0,0,.505-.264A2.775,2.775,0,0,0,57.7-2.417a2.85,2.85,0,0,0-.234-1.406.589.589,0,0,0-.513-.264.571.571,0,0,0-.505.264A2.775,2.775,0,0,0,56.206-2.417Z" transform="translate(1336.85 2407.18)" fill="#fff"/>
    <path id="Trazado_200" data-name="Trazado 200" d="M1.084-10.737H5.046a7.738,7.738,0,0,1,2.043.205,3.591,3.591,0,0,1,1.619.989A4.691,4.691,0,0,1,9.734-7.8a7.924,7.924,0,0,1,.352,2.538,7.057,7.057,0,0,1-.33,2.285,4.734,4.734,0,0,1-1.15,1.9,3.811,3.811,0,0,1-1.523.857A6.559,6.559,0,0,1,5.164,0H1.084ZM3.252-8.921v7.112H4.871a5.907,5.907,0,0,0,1.311-.1,2,2,0,0,0,.875-.447,2.273,2.273,0,0,0,.568-1.036,7,7,0,0,0,.22-1.967,6.415,6.415,0,0,0-.22-1.912,2.457,2.457,0,0,0-.615-1.04,2.063,2.063,0,0,0-1-.505,9.83,9.83,0,0,0-1.78-.1ZM16.414-2.476l2.051.344A3.364,3.364,0,0,1,17.216-.414a3.669,3.669,0,0,1-2.135.59,3.48,3.48,0,0,1-3-1.326,4.454,4.454,0,0,1-.769-2.681,4.3,4.3,0,0,1,1.011-3.029,3.329,3.329,0,0,1,2.556-1.095,3.453,3.453,0,0,1,2.739,1.146A5.072,5.072,0,0,1,18.574-3.3H13.418a2.082,2.082,0,0,0,.5,1.425,1.558,1.558,0,0,0,1.187.509,1.26,1.26,0,0,0,.813-.264A1.628,1.628,0,0,0,16.414-2.476Zm.117-2.08a1.982,1.982,0,0,0-.461-1.359A1.416,1.416,0,0,0,15-6.379a1.429,1.429,0,0,0-1.113.491,1.9,1.9,0,0,0-.432,1.333Zm3,2.336,2.065-.315a1.513,1.513,0,0,0,.535.912,1.807,1.807,0,0,0,1.128.311,2.036,2.036,0,0,0,1.2-.293.654.654,0,0,0,.271-.549.54.54,0,0,0-.146-.388,1.64,1.64,0,0,0-.688-.271,11.1,11.1,0,0,1-3.157-1,2,2,0,0,1-.923-1.75,2.157,2.157,0,0,1,.8-1.7,3.728,3.728,0,0,1,2.476-.688,4.319,4.319,0,0,1,2.373.52A2.658,2.658,0,0,1,26.528-5.9l-1.941.359a1.2,1.2,0,0,0-.472-.7,1.727,1.727,0,0,0-.992-.242,2.236,2.236,0,0,0-1.165.227.488.488,0,0,0-.234.417.455.455,0,0,0,.205.374,7.722,7.722,0,0,0,1.923.579,5.723,5.723,0,0,1,2.3.916,1.9,1.9,0,0,1,.645,1.531A2.35,2.35,0,0,1,25.9-.593a3.955,3.955,0,0,1-2.644.769,4.339,4.339,0,0,1-2.516-.645A2.97,2.97,0,0,1,19.526-2.219Zm15.85-3.259-2.029.366a1.472,1.472,0,0,0-.465-.916,1.4,1.4,0,0,0-.941-.308,1.538,1.538,0,0,0-1.227.531,2.721,2.721,0,0,0-.458,1.776,3.147,3.147,0,0,0,.465,1.956A1.527,1.527,0,0,0,31.97-1.5a1.387,1.387,0,0,0,.959-.333,2,2,0,0,0,.527-1.146l2.021.344a3.587,3.587,0,0,1-1.208,2.1,3.741,3.741,0,0,1-2.4.71A3.561,3.561,0,0,1,29.154-.9,4.174,4.174,0,0,1,28.14-3.882a4.184,4.184,0,0,1,1.018-3,3.616,3.616,0,0,1,2.754-1.073,3.757,3.757,0,0,1,2.26.612A3.388,3.388,0,0,1,35.376-5.479ZM38.906,0H36.848V-7.778H38.76v1.106a3.324,3.324,0,0,1,.883-1.033,1.624,1.624,0,0,1,.89-.249,2.612,2.612,0,0,1,1.355.388L41.25-5.771a1.806,1.806,0,0,0-.967-.337,1.142,1.142,0,0,0-.732.238,1.627,1.627,0,0,0-.472.861A12.226,12.226,0,0,0,38.906-2.4Zm3.867-8.833v-1.9h2.058v1.9Zm0,8.833V-7.778h2.058V0Zm4.109-7.778H48.8v1.143a2.871,2.871,0,0,1,1.011-.952,2.786,2.786,0,0,1,1.414-.366,2.966,2.966,0,0,1,2.3,1.062,4.3,4.3,0,0,1,.945,2.959A4.429,4.429,0,0,1,53.518-.9,2.966,2.966,0,0,1,51.211.176a2.621,2.621,0,0,1-1.168-.256,3.938,3.938,0,0,1-1.1-.879V2.959H46.882Zm2.036,3.757a3,3,0,0,0,.52,1.937,1.591,1.591,0,0,0,1.267.626A1.487,1.487,0,0,0,51.9-2.032a2.962,2.962,0,0,0,.476-1.886,2.811,2.811,0,0,0-.491-1.816,1.518,1.518,0,0,0-1.216-.593,1.579,1.579,0,0,0-1.252.582A2.592,2.592,0,0,0,48.918-4.021ZM59.67-7.778v1.641H58.264V-3a7.8,7.8,0,0,0,.04,1.11.452.452,0,0,0,.183.26.581.581,0,0,0,.348.1,2.662,2.662,0,0,0,.828-.2l.176,1.6a4.091,4.091,0,0,1-1.626.308,2.579,2.579,0,0,1-1-.187,1.464,1.464,0,0,1-.656-.483,1.908,1.908,0,0,1-.289-.8,9.976,9.976,0,0,1-.066-1.45V-6.138h-.945V-7.778H56.2V-9.324l2.065-1.2v2.747ZM60.623-4a4.208,4.208,0,0,1,.505-1.985A3.469,3.469,0,0,1,62.56-7.449a4.249,4.249,0,0,1,2.069-.505,3.883,3.883,0,0,1,2.893,1.146,3.96,3.96,0,0,1,1.128,2.9A4.008,4.008,0,0,1,67.511-.985,3.849,3.849,0,0,1,64.644.176,4.517,4.517,0,0,1,62.6-.308a3.316,3.316,0,0,1-1.476-1.417A4.722,4.722,0,0,1,60.623-4Zm2.109.11a2.577,2.577,0,0,0,.549,1.772,1.745,1.745,0,0,0,1.355.615,1.734,1.734,0,0,0,1.351-.615A2.613,2.613,0,0,0,66.533-3.9a2.565,2.565,0,0,0-.546-1.758,1.734,1.734,0,0,0-1.351-.615,1.745,1.745,0,0,0-1.355.615A2.577,2.577,0,0,0,62.732-3.889ZM72.231,0H70.173V-7.778h1.912v1.106a3.324,3.324,0,0,1,.883-1.033,1.624,1.624,0,0,1,.89-.249,2.612,2.612,0,0,1,1.355.388l-.637,1.794a1.806,1.806,0,0,0-.967-.337,1.142,1.142,0,0,0-.732.238,1.627,1.627,0,0,0-.472.861A12.226,12.226,0,0,0,72.231-2.4Z" transform="translate(1219.978 2232.985)" fill="#fff"/>
    <path id="Trazado_201" data-name="Trazado 201" d="M1.1,0V-10.737H5.662a7.81,7.81,0,0,1,2.5.289A2.467,2.467,0,0,1,9.412-9.419,3.093,3.093,0,0,1,9.88-7.727a2.866,2.866,0,0,1-.71,2,3.412,3.412,0,0,1-2.124.992,5.058,5.058,0,0,1,1.161.9A12.237,12.237,0,0,1,9.441-2.095L10.752,0H8.159L6.592-2.336A15.156,15.156,0,0,0,5.449-3.915,1.664,1.664,0,0,0,4.8-4.362a3.573,3.573,0,0,0-1.091-.121H3.267V0ZM3.267-6.2h1.6a8.283,8.283,0,0,0,1.948-.132,1.168,1.168,0,0,0,.608-.454,1.4,1.4,0,0,0,.22-.806,1.287,1.287,0,0,0-.289-.875,1.328,1.328,0,0,0-.817-.421q-.264-.037-1.582-.037H3.267Zm10.181.791L11.58-5.742a2.909,2.909,0,0,1,1.084-1.67,3.967,3.967,0,0,1,2.285-.542A4.925,4.925,0,0,1,17-7.628a2.045,2.045,0,0,1,.948.828,4.244,4.244,0,0,1,.275,1.842l-.022,2.4a8.34,8.34,0,0,0,.1,1.512A4.415,4.415,0,0,0,18.669,0H16.633q-.081-.205-.2-.608-.051-.183-.073-.242a3.71,3.71,0,0,1-1.128.769,3.231,3.231,0,0,1-1.282.256,2.65,2.65,0,0,1-1.893-.652,2.167,2.167,0,0,1-.692-1.648A2.212,2.212,0,0,1,11.682-3.3a2.058,2.058,0,0,1,.883-.791A6.9,6.9,0,0,1,14.2-4.57a11.213,11.213,0,0,0,2-.505v-.205a1.066,1.066,0,0,0-.293-.846A1.756,1.756,0,0,0,14.8-6.379a1.473,1.473,0,0,0-.857.216A1.5,1.5,0,0,0,13.447-5.405ZM16.2-3.735a12.864,12.864,0,0,1-1.252.315,3.773,3.773,0,0,0-1.121.359.858.858,0,0,0-.4.725,1.01,1.01,0,0,0,.322.747,1.125,1.125,0,0,0,.82.315,1.782,1.782,0,0,0,1.062-.366,1.289,1.289,0,0,0,.491-.681,4.064,4.064,0,0,0,.081-1ZM27.327,0H25.269V-3.97a6.135,6.135,0,0,0-.132-1.63,1.143,1.143,0,0,0-.428-.575,1.225,1.225,0,0,0-.714-.205,1.65,1.65,0,0,0-.959.293,1.476,1.476,0,0,0-.582.776,6.711,6.711,0,0,0-.157,1.787V0H20.237V-7.778h1.912v1.143a3.114,3.114,0,0,1,2.563-1.318,3.088,3.088,0,0,1,1.245.245,2.086,2.086,0,0,1,.853.626,2.269,2.269,0,0,1,.4.864,6.428,6.428,0,0,1,.114,1.384Zm1.9.513L31.575.8a.8.8,0,0,0,.271.564,1.547,1.547,0,0,0,.923.22,2.4,2.4,0,0,0,1.208-.242,1,1,0,0,0,.41-.52,3.125,3.125,0,0,0,.1-.945V-1.26A2.785,2.785,0,0,1,32.153,0,2.867,2.867,0,0,1,29.67-1.326a4.506,4.506,0,0,1-.718-2.607,4.289,4.289,0,0,1,.941-2.988,3.037,3.037,0,0,1,2.34-1.033,2.849,2.849,0,0,1,2.38,1.267V-7.778h1.926V-.8a6.954,6.954,0,0,1-.227,2.058,2.55,2.55,0,0,1-.637,1.069,2.819,2.819,0,0,1-1.095.608,5.764,5.764,0,0,1-1.732.22,4.483,4.483,0,0,1-2.805-.677A2.125,2.125,0,0,1,29.216.762Q29.216.659,29.224.513ZM31.062-4.05a2.805,2.805,0,0,0,.48,1.813,1.483,1.483,0,0,0,1.183.575A1.635,1.635,0,0,0,34-2.252,2.57,2.57,0,0,0,34.519-4a2.724,2.724,0,0,0-.5-1.794,1.583,1.583,0,0,0-1.26-.586,1.519,1.519,0,0,0-1.219.575A2.7,2.7,0,0,0,31.062-4.05ZM38.1-4a4.208,4.208,0,0,1,.505-1.985,3.469,3.469,0,0,1,1.432-1.465,4.249,4.249,0,0,1,2.069-.505A3.883,3.883,0,0,1,45-6.808a3.96,3.96,0,0,1,1.128,2.9A4.008,4.008,0,0,1,44.989-.985,3.849,3.849,0,0,1,42.122.176a4.517,4.517,0,0,1-2.04-.483,3.316,3.316,0,0,1-1.476-1.417A4.722,4.722,0,0,1,38.1-4Zm2.109.11a2.577,2.577,0,0,0,.549,1.772,1.745,1.745,0,0,0,1.355.615,1.734,1.734,0,0,0,1.351-.615A2.613,2.613,0,0,0,44.011-3.9a2.565,2.565,0,0,0-.546-1.758,1.734,1.734,0,0,0-1.351-.615,1.745,1.745,0,0,0-1.355.615A2.577,2.577,0,0,0,40.21-3.889Zm6.8,1.67,2.065-.315a1.513,1.513,0,0,0,.535.912,1.807,1.807,0,0,0,1.128.311,2.036,2.036,0,0,0,1.2-.293.654.654,0,0,0,.271-.549.54.54,0,0,0-.146-.388,1.64,1.64,0,0,0-.688-.271,11.1,11.1,0,0,1-3.157-1,2,2,0,0,1-.923-1.75,2.157,2.157,0,0,1,.8-1.7,3.728,3.728,0,0,1,2.476-.688,4.319,4.319,0,0,1,2.373.52A2.658,2.658,0,0,1,54.016-5.9l-1.941.359a1.2,1.2,0,0,0-.472-.7,1.727,1.727,0,0,0-.992-.242,2.236,2.236,0,0,0-1.165.227.488.488,0,0,0-.234.417.455.455,0,0,0,.205.374,7.722,7.722,0,0,0,1.923.579,5.723,5.723,0,0,1,2.3.916,1.9,1.9,0,0,1,.645,1.531,2.35,2.35,0,0,1-.894,1.838,3.955,3.955,0,0,1-2.644.769,4.339,4.339,0,0,1-2.516-.645A2.97,2.97,0,0,1,47.014-2.219Z" transform="translate(1339.379 2232.985)" fill="#fff"/>
  </g>
</svg>
