<svg xmlns="http://www.w3.org/2000/svg" width="332.624" height="93.37" viewBox="0 0 332.624 93.37">
  <g id="Grupo_23" data-name="Grupo 23" transform="translate(-1260 -2416.37)">
    <path id="Trazado_172" data-name="Trazado 172" d="M0,0,1.1.277A3.7,3.7,0,0,1-.144,2.339a3.425,3.425,0,0,1-2.192.71A3.939,3.939,0,0,1-4.517,2.5,3.407,3.407,0,0,1-5.8.922,5.628,5.628,0,0,1-6.234-1.3a4.886,4.886,0,0,1,.5-2.26A3.394,3.394,0,0,1-4.33-5.026a4.112,4.112,0,0,1,2.011-.5,3.4,3.4,0,0,1,2.093.634A3.283,3.283,0,0,1,.956-3.111l-1.08.254A2.567,2.567,0,0,0-.962-4.175a2.231,2.231,0,0,0-1.38-.413,2.685,2.685,0,0,0-1.6.458,2.42,2.42,0,0,0-.9,1.231A4.938,4.938,0,0,0-5.1-1.307,5.051,5.051,0,0,0-4.794.54a2.3,2.3,0,0,0,.959,1.18,2.688,2.688,0,0,0,1.408.39A2.361,2.361,0,0,0-.865,1.578,2.719,2.719,0,0,0,0,0" transform="translate(1288.399 2428.658)" fill="#20143b"/>
    <path id="Trazado_173" data-name="Trazado 173" d="M0,0A3.779,3.779,0,0,1-1.089.679a3.147,3.147,0,0,1-1.123.2A2.183,2.183,0,0,1-3.734.393,1.6,1.6,0,0,1-4.265-.843a1.642,1.642,0,0,1,.2-.806,1.659,1.659,0,0,1,.525-.585,2.451,2.451,0,0,1,.733-.334,7.242,7.242,0,0,1,.9-.153A9.278,9.278,0,0,0-.085-3.072c0-.139.006-.228.006-.266a1.124,1.124,0,0,0-.289-.876,1.7,1.7,0,0,0-1.159-.345,1.8,1.8,0,0,0-1.061.251,1.538,1.538,0,0,0-.506.891l-1-.136a2.452,2.452,0,0,1,.447-1.032,1.953,1.953,0,0,1,.9-.605A4,4,0,0,1-1.38-5.4a3.6,3.6,0,0,1,1.25.181,1.644,1.644,0,0,1,.707.455,1.609,1.609,0,0,1,.317.693,5.715,5.715,0,0,1,.051.939v1.358A14.291,14.291,0,0,0,1.01.02a2.258,2.258,0,0,0,.257.721H.2A2.144,2.144,0,0,1,0,0M-.085-2.274a7.489,7.489,0,0,1-1.663.385,3.846,3.846,0,0,0-.888.2.887.887,0,0,0-.4.331.873.873,0,0,0-.141.484.87.87,0,0,0,.308.679,1.325,1.325,0,0,0,.9.271A2.107,2.107,0,0,0-.922-.178a1.592,1.592,0,0,0,.673-.7A2.472,2.472,0,0,0-.085-1.9Z" transform="translate(1294.639 2430.824)" fill="#20143b"/>
    <path id="Trazado_174" data-name="Trazado 174" d="M0,0H332.624V-93.37H0Z" transform="translate(1260 2509.74)" fill="none"/>
    <path id="Trazado_175" data-name="Trazado 175" d="M37.139-86.468h1.018v8.293H37.139Z" transform="translate(1260 2509.74)" fill="#20143b"/>
    <path id="Trazado_176" data-name="Trazado 176" d="M39.742-86.468H40.76V-85.3H39.742Zm0,1.171,0,1.115H40.76v6.008H39.742Z" transform="translate(1260 2509.74)" fill="#20143b"/>
    <path id="Trazado_177" data-name="Trazado 177" d="M0,0V-5.216H-.9v-.792H0v-.639a2.785,2.785,0,0,1,.108-.9,1.3,1.3,0,0,1,.517-.642,1.866,1.866,0,0,1,1.038-.246,4.973,4.973,0,0,1,.951.1l-.153.888a3.482,3.482,0,0,0-.6-.056.892.892,0,0,0-.656.2,1.074,1.074,0,0,0-.192.741v.554H2.184v.792H1.013V0Z" transform="translate(1302.553 2431.565)" fill="#20143b"/>
    <path id="Trazado_178" data-name="Trazado 178" d="M0,0H332.624V-93.37H0Z" transform="translate(1260 2509.74)" fill="none"/>
    <path id="Trazado_179" data-name="Trazado 179" d="M45.534-86.468h1.018V-85.3H45.534Zm0,1.171,0,1.115h1.018v6.008H45.534Z" transform="translate(1260 2509.74)" fill="#20143b"/>
    <path id="Trazado_180" data-name="Trazado 180" d="M0,0,1,.13a2.6,2.6,0,0,1-.84,1.621,2.447,2.447,0,0,1-1.66.585A2.578,2.578,0,0,1-3.482,1.53,3.274,3.274,0,0,1-4.231-.781a4.178,4.178,0,0,1,.322-1.7,2.244,2.244,0,0,1,.982-1.1,2.913,2.913,0,0,1,1.434-.365,2.489,2.489,0,0,1,1.6.5A2.271,2.271,0,0,1,.9-2.042l-.99.153a1.641,1.641,0,0,0-.5-.911,1.3,1.3,0,0,0-.869-.306,1.58,1.58,0,0,0-1.25.552A2.621,2.621,0,0,0-3.185-.809,2.707,2.707,0,0,0-2.721.95,1.509,1.509,0,0,0-1.51,1.5a1.429,1.429,0,0,0,1-.368A1.824,1.824,0,0,0,0,0" transform="translate(1312.023 2429.365)" fill="#20143b"/>
    <path id="Trazado_181" data-name="Trazado 181" d="M0,0A3.779,3.779,0,0,1-1.089.679a3.147,3.147,0,0,1-1.123.2A2.183,2.183,0,0,1-3.734.393,1.6,1.6,0,0,1-4.265-.843a1.642,1.642,0,0,1,.2-.806,1.652,1.652,0,0,1,.526-.585,2.434,2.434,0,0,1,.732-.334,7.242,7.242,0,0,1,.9-.153A9.278,9.278,0,0,0-.085-3.072c0-.139.006-.228.006-.266a1.12,1.12,0,0,0-.289-.876,1.7,1.7,0,0,0-1.159-.345,1.8,1.8,0,0,0-1.061.251,1.538,1.538,0,0,0-.506.891l-1-.136a2.452,2.452,0,0,1,.447-1.032,1.953,1.953,0,0,1,.9-.605A4,4,0,0,1-1.38-5.4a3.6,3.6,0,0,1,1.25.181,1.644,1.644,0,0,1,.707.455,1.609,1.609,0,0,1,.317.693,5.715,5.715,0,0,1,.051.939v1.358A14.291,14.291,0,0,0,1.01.02a2.258,2.258,0,0,0,.257.721H.2A2.144,2.144,0,0,1,0,0M-.085-2.274a7.489,7.489,0,0,1-1.663.385,3.846,3.846,0,0,0-.888.2.887.887,0,0,0-.4.331.873.873,0,0,0-.141.484.87.87,0,0,0,.308.679,1.327,1.327,0,0,0,.9.271A2.107,2.107,0,0,0-.922-.178a1.592,1.592,0,0,0,.673-.7A2.472,2.472,0,0,0-.085-1.9Z" transform="translate(1317.815 2430.824)" fill="#20143b"/>
    <path id="Trazado_182" data-name="Trazado 182" d="M0,0V-.758A1.869,1.869,0,0,1-1.68.136,2.357,2.357,0,0,1-3-.26a2.607,2.607,0,0,1-.934-1.106A3.833,3.833,0,0,1-4.265-3a4.266,4.266,0,0,1,.3-1.632,2.361,2.361,0,0,1,.9-1.123,2.4,2.4,0,0,1,1.34-.39,2,2,0,0,1,.968.229,2.01,2.01,0,0,1,.69.6V-8.293H.945V0ZM-3.219-3a2.605,2.605,0,0,0,.487,1.725A1.465,1.465,0,0,0-1.584-.7,1.438,1.438,0,0,0-.45-1.247,2.519,2.519,0,0,0,.017-2.913,2.833,2.833,0,0,0-.458-4.724,1.465,1.465,0,0,0-1.629-5.3a1.408,1.408,0,0,0-1.134.555A2.732,2.732,0,0,0-3.219-3" transform="translate(1324.236 2431.565)" fill="#20143b"/>
    <path id="Trazado_183" data-name="Trazado 183" d="M0,0A3.093,3.093,0,0,1,.928-2.472,2.794,2.794,0,0,1,2.817-3.14a2.7,2.7,0,0,1,2.025.812A3.09,3.09,0,0,1,5.629-.085,3.979,3.979,0,0,1,5.281,1.74,2.464,2.464,0,0,1,4.268,2.772a2.95,2.95,0,0,1-1.451.368A2.7,2.7,0,0,1,.778,2.331,3.23,3.23,0,0,1,0,0M1.046,0a2.557,2.557,0,0,0,.5,1.728A1.612,1.612,0,0,0,2.817,2.3a1.6,1.6,0,0,0,1.262-.577,2.621,2.621,0,0,0,.5-1.759,2.486,2.486,0,0,0-.506-1.689A1.613,1.613,0,0,0,2.817-2.3a1.616,1.616,0,0,0-1.267.572A2.545,2.545,0,0,0,1.046,0" transform="translate(1326.403 2428.562)" fill="#20143b"/>
    <path id="Trazado_184" data-name="Trazado 184" d="M0,0V-6.008H.917V-5.1a2.48,2.48,0,0,1,.647-.843,1.129,1.129,0,0,1,.654-.2,1.981,1.981,0,0,1,1.046.328l-.351.944a1.452,1.452,0,0,0-.746-.22.974.974,0,0,0-.6.2,1.088,1.088,0,0,0-.379.558,3.97,3.97,0,0,0-.17,1.188V0Z" transform="translate(1333.213 2431.565)" fill="#20143b"/>
    <path id="Trazado_185" data-name="Trazado 185" d="M0,0V-.758A1.869,1.869,0,0,1-1.68.136,2.357,2.357,0,0,1-3-.26a2.6,2.6,0,0,1-.933-1.105A3.823,3.823,0,0,1-4.265-3a4.261,4.261,0,0,1,.3-1.631,2.364,2.364,0,0,1,.9-1.124,2.408,2.408,0,0,1,1.341-.39,2,2,0,0,1,.967.23,2.007,2.007,0,0,1,.69.6V-8.293H.945V0ZM-3.219-3a2.605,2.605,0,0,0,.487,1.725A1.467,1.467,0,0,0-1.584-.7,1.438,1.438,0,0,0-.45-1.246,2.522,2.522,0,0,0,.017-2.913,2.827,2.827,0,0,0-.458-4.724,1.464,1.464,0,0,0-1.629-5.3a1.408,1.408,0,0,0-1.134.555A2.734,2.734,0,0,0-3.219-3" transform="translate(1281.733 2445.467)" fill="#20143b"/>
    <path id="Trazado_186" data-name="Trazado 186" d="M0,0,1.052.13A2.563,2.563,0,0,1,.13,1.561a2.769,2.769,0,0,1-1.72.509,2.748,2.748,0,0,1-2.09-.81,3.176,3.176,0,0,1-.772-2.278,3.32,3.32,0,0,1,.781-2.354,2.641,2.641,0,0,1,2.025-.837,2.57,2.57,0,0,1,1.968.82,3.257,3.257,0,0,1,.764,2.308c0,.061,0,.151-.006.272H-3.4A2.309,2.309,0,0,0-2.84.707a1.666,1.666,0,0,0,1.256.526A1.559,1.559,0,0,0-.628.939,1.954,1.954,0,0,0,0,0M-3.343-1.646H.011A2.023,2.023,0,0,0-.374-2.783a1.56,1.56,0,0,0-1.261-.589,1.615,1.615,0,0,0-1.179.47,1.858,1.858,0,0,0-.529,1.256" transform="translate(1288.391 2443.533)" fill="#20143b"/>
    <path id="Trazado_187" data-name="Trazado 187" d="M0,0V-6.008H.911v.843a2.133,2.133,0,0,1,.752-.709,2.117,2.117,0,0,1,1.069-.269,1.977,1.977,0,0,1,1.095.277,1.482,1.482,0,0,1,.6.775A2.157,2.157,0,0,1,6.285-6.143a1.827,1.827,0,0,1,1.374.5A2.108,2.108,0,0,1,8.14-4.124V0H7.128V-3.784a2.778,2.778,0,0,0-.1-.879.857.857,0,0,0-.36-.434,1.122,1.122,0,0,0-.61-.164,1.423,1.423,0,0,0-1.053.422A1.857,1.857,0,0,0,4.588-3.49V0H3.57V-3.9a1.72,1.72,0,0,0-.249-1.019.944.944,0,0,0-.815-.339,1.488,1.488,0,0,0-.8.226,1.29,1.29,0,0,0-.529.662,3.738,3.738,0,0,0-.164,1.256V0Z" transform="translate(1293.94 2445.467)" fill="#20143b"/>
    <path id="Trazado_188" data-name="Trazado 188" d="M0,0A3.779,3.779,0,0,1-1.089.679a3.147,3.147,0,0,1-1.123.2A2.183,2.183,0,0,1-3.733.394,1.6,1.6,0,0,1-4.265-.843a1.638,1.638,0,0,1,.2-.805,1.665,1.665,0,0,1,.526-.586,2.434,2.434,0,0,1,.732-.334,7.242,7.242,0,0,1,.9-.153A9.262,9.262,0,0,0-.085-3.072c0-.139.006-.228.006-.266a1.12,1.12,0,0,0-.289-.876A1.7,1.7,0,0,0-1.527-4.56a1.8,1.8,0,0,0-1.061.253,1.535,1.535,0,0,0-.506.89l-1-.136a2.473,2.473,0,0,1,.447-1.031,1.951,1.951,0,0,1,.9-.605A3.993,3.993,0,0,1-1.38-5.4a3.6,3.6,0,0,1,1.25.181,1.639,1.639,0,0,1,.707.456,1.6,1.6,0,0,1,.317.692,5.715,5.715,0,0,1,.051.939v1.358A14.521,14.521,0,0,0,1.01.021a2.261,2.261,0,0,0,.257.72H.2A2.144,2.144,0,0,1,0,0M-.085-2.274a7.474,7.474,0,0,1-1.663.385,3.859,3.859,0,0,0-.888.2.894.894,0,0,0-.4.332.869.869,0,0,0-.141.483.87.87,0,0,0,.308.679,1.327,1.327,0,0,0,.9.271A2.107,2.107,0,0,0-.922-.177,1.586,1.586,0,0,0-.249-.883,2.447,2.447,0,0,0-.085-1.9Z" transform="translate(1307.511 2444.726)" fill="#20143b"/>
    <path id="Trazado_189" data-name="Trazado 189" d="M0,0,.99.147a.941.941,0,0,0,.345.668A1.7,1.7,0,0,0,2.37,1.1,1.821,1.821,0,0,0,3.462.815a1.389,1.389,0,0,0,.52-.792,6.463,6.463,0,0,0,.074-1.307A2.094,2.094,0,0,1,2.393-.5,2.268,2.268,0,0,1,.475-1.392,3.443,3.443,0,0,1-.2-3.536,3.988,3.988,0,0,1,.107-5.121a2.5,2.5,0,0,1,.9-1.124,2.435,2.435,0,0,1,1.388-.4,2.155,2.155,0,0,1,1.754.86v-.724h.939v5.193A4.917,4.917,0,0,1,4.8.677a2.085,2.085,0,0,1-.9.924,3.136,3.136,0,0,1-1.524.339A2.879,2.879,0,0,1,.639,1.458,1.639,1.639,0,0,1,0,0M.843-3.609a2.606,2.606,0,0,0,.469,1.725,1.492,1.492,0,0,0,1.177.543A1.5,1.5,0,0,0,3.666-1.88a2.528,2.528,0,0,0,.475-1.7,2.463,2.463,0,0,0-.489-1.663,1.513,1.513,0,0,0-1.18-.56,1.47,1.47,0,0,0-1.154.552A2.447,2.447,0,0,0,.843-3.609" transform="translate(1309.848 2445.965)" fill="#20143b"/>
    <path id="Trazado_190" data-name="Trazado 190" d="M0,0V-6.008H.917v.855a2.158,2.158,0,0,1,1.911-.99,2.515,2.515,0,0,1,1,.2,1.575,1.575,0,0,1,.682.511,1.972,1.972,0,0,1,.316.752,5.794,5.794,0,0,1,.057.99V0H3.864V-3.654a2.745,2.745,0,0,0-.119-.93.981.981,0,0,0-.422-.492,1.333,1.333,0,0,0-.709-.185,1.654,1.654,0,0,0-1.124.413,2.041,2.041,0,0,0-.472,1.567V0Z" transform="translate(1316.478 2445.467)" fill="#20143b"/>
    <path id="Trazado_191" data-name="Trazado 191" d="M0,0H332.624V-93.37H0Z" transform="translate(1260 2509.74)" fill="none"/>
    <path id="Trazado_192" data-name="Trazado 192" d="M62.927-72.566h1.018v1.171H62.927Zm0,1.171,0,1.115h1.018v6.008H62.927Z" transform="translate(1260 2509.74)" fill="#20143b"/>
    <path id="Trazado_193" data-name="Trazado 193" d="M0,0,.147.9A3.792,3.792,0,0,1-.622.99a1.742,1.742,0,0,1-.86-.175.978.978,0,0,1-.43-.461,3.653,3.653,0,0,1-.124-1.2V-4.3h-.747V-5.1h.747V-6.585L-1.024-7.2v2.1H0V-4.3H-1.024V-.792a1.768,1.768,0,0,0,.054.56.424.424,0,0,0,.175.2A.677.677,0,0,0-.447.04,3.4,3.4,0,0,0,0,0" transform="translate(1327.718 2444.556)" fill="#20143b"/>
    <path id="Trazado_194" data-name="Trazado 194" d="M0,0V-.882A2.2,2.2,0,0,1-1.906.136a2.424,2.424,0,0,1-.993-.2,1.63,1.63,0,0,1-.685-.511A1.928,1.928,0,0,1-3.9-1.335a5.221,5.221,0,0,1-.062-.95V-6.008h1.018v3.332A5.868,5.868,0,0,0-2.879-1.6a1.066,1.066,0,0,0,.407.632A1.259,1.259,0,0,0-1.7-.741a1.67,1.67,0,0,0,.86-.234,1.3,1.3,0,0,0,.569-.639A3.221,3.221,0,0,0-.107-2.789V-6.008H.911V0Z" transform="translate(1332.651 2445.467)" fill="#20143b"/>
    <path id="Trazado_195" data-name="Trazado 195" d="M0,0V-.758A1.869,1.869,0,0,1-1.68.136,2.357,2.357,0,0,1-3-.26a2.6,2.6,0,0,1-.933-1.105A3.823,3.823,0,0,1-4.265-3a4.28,4.28,0,0,1,.3-1.631,2.364,2.364,0,0,1,.9-1.124,2.408,2.408,0,0,1,1.341-.39,2,2,0,0,1,.967.23,2.007,2.007,0,0,1,.69.6V-8.293H.945V0ZM-3.219-3a2.605,2.605,0,0,0,.487,1.725A1.467,1.467,0,0,0-1.584-.7,1.438,1.438,0,0,0-.45-1.246,2.522,2.522,0,0,0,.017-2.913,2.827,2.827,0,0,0-.458-4.724,1.464,1.464,0,0,0-1.629-5.3a1.408,1.408,0,0,0-1.134.555A2.734,2.734,0,0,0-3.219-3" transform="translate(1339.054 2445.467)" fill="#20143b"/>
    <path id="Trazado_196" data-name="Trazado 196" d="M0,0A10.2,10.2,0,0,1-1.426-2.489a7.741,7.741,0,0,1-.582-2.953,7.7,7.7,0,0,1,.435-2.579A10.859,10.859,0,0,1,0-10.873H.73Q.044-9.7-.175-9.193a9.283,9.283,0,0,0-.544,1.63A9.469,9.469,0,0,0-.962-5.436,10.2,10.2,0,0,0,.73,0Z" transform="translate(1298.797 2461.808)" fill="#20143b"/>
    <path id="Trazado_197" data-name="Trazado 197" d="M0,0,1.1.277A3.691,3.691,0,0,1-.144,2.34a3.424,3.424,0,0,1-2.192.709A3.939,3.939,0,0,1-4.517,2.5,3.41,3.41,0,0,1-5.8.922,5.628,5.628,0,0,1-6.234-1.3a4.882,4.882,0,0,1,.5-2.259A3.394,3.394,0,0,1-4.33-5.025a4.113,4.113,0,0,1,2.011-.5,3.4,3.4,0,0,1,2.093.634A3.288,3.288,0,0,1,.956-3.111l-1.081.254A2.564,2.564,0,0,0-.962-4.175a2.231,2.231,0,0,0-1.38-.413,2.685,2.685,0,0,0-1.6.458,2.422,2.422,0,0,0-.9,1.232A4.932,4.932,0,0,0-5.1-1.307,5.053,5.053,0,0,0-4.794.541,2.3,2.3,0,0,0-3.835,1.72a2.688,2.688,0,0,0,1.408.39A2.361,2.361,0,0,0-.865,1.578,2.719,2.719,0,0,0,0,0" transform="translate(1306.756 2456.462)" fill="#20143b"/>
    <path id="Trazado_198" data-name="Trazado 198" d="M0,0V-6.008H.911v.843a2.133,2.133,0,0,1,.752-.709,2.117,2.117,0,0,1,1.069-.269,1.977,1.977,0,0,1,1.095.277,1.482,1.482,0,0,1,.6.775A2.157,2.157,0,0,1,6.285-6.143a1.823,1.823,0,0,1,1.374.5A2.108,2.108,0,0,1,8.14-4.124V0H7.128V-3.785a2.775,2.775,0,0,0-.1-.878.853.853,0,0,0-.36-.434,1.122,1.122,0,0,0-.61-.164,1.423,1.423,0,0,0-1.053.422A1.855,1.855,0,0,0,4.588-3.49V0H3.57V-3.9a1.72,1.72,0,0,0-.249-1.019.944.944,0,0,0-.815-.339,1.48,1.48,0,0,0-.8.226,1.29,1.29,0,0,0-.529.662,3.738,3.738,0,0,0-.164,1.256V0Z" transform="translate(1309.075 2459.37)" fill="#20143b"/>
    <path id="Trazado_199" data-name="Trazado 199" d="M0,0H-.73A10.2,10.2,0,0,0,.962-5.436a9.3,9.3,0,0,0-.243-2.11,8.947,8.947,0,0,0-.538-1.63,19.2,19.2,0,0,0-.911-1.7H0A10.859,10.859,0,0,1,1.573-8.021a7.7,7.7,0,0,1,.435,2.579,7.707,7.707,0,0,1-.585,2.953A10.394,10.394,0,0,1,0,0" transform="translate(1319.394 2461.808)" fill="#20143b"/>
    <path id="Trazado_200" data-name="Trazado 200" d="M0,0,1.006.254A3.387,3.387,0,0,1-.132,2.144a3.131,3.131,0,0,1-2.01.651,3.62,3.62,0,0,1-2-.5A3.137,3.137,0,0,1-5.313.846a5.18,5.18,0,0,1-.4-2.039,4.468,4.468,0,0,1,.454-2.071A3.12,3.12,0,0,1-3.969-4.608a3.782,3.782,0,0,1,1.843-.458,3.114,3.114,0,0,1,1.918.581A3.022,3.022,0,0,1,.877-2.852l-.991.234A2.352,2.352,0,0,0-.882-3.827a2.04,2.04,0,0,0-1.265-.379,2.458,2.458,0,0,0-1.465.421,2.221,2.221,0,0,0-.827,1.127A4.549,4.549,0,0,0-4.677-1.2,4.648,4.648,0,0,0-4.395.5a2.1,2.1,0,0,0,.879,1.081,2.462,2.462,0,0,0,1.291.358A2.166,2.166,0,0,0-.794,1.447,2.5,2.5,0,0,0,0,0" transform="translate(1318.949 2489.59)" fill="#20143b"/>
    <path id="Trazado_201" data-name="Trazado 201" d="M0,0A2.843,2.843,0,0,1,.85-2.267a2.569,2.569,0,0,1,1.732-.611,2.476,2.476,0,0,1,1.857.743,2.832,2.832,0,0,1,.72,2.057A3.638,3.638,0,0,1,4.84,1.594a2.243,2.243,0,0,1-.927.946,2.7,2.7,0,0,1-1.331.337A2.475,2.475,0,0,1,.713,2.136,2.963,2.963,0,0,1,0,0M.96,0a2.349,2.349,0,0,0,.461,1.584,1.478,1.478,0,0,0,1.161.526,1.472,1.472,0,0,0,1.157-.529A2.4,2.4,0,0,0,4.2-.032a2.268,2.268,0,0,0-.464-1.547,1.473,1.473,0,0,0-1.154-.527,1.482,1.482,0,0,0-1.161.524A2.34,2.34,0,0,0,.96,0" transform="translate(1320.727 2489.502)" fill="#20143b"/>
    <path id="Trazado_202" data-name="Trazado 202" d="M0,0V-5.507H.835v.772a1.961,1.961,0,0,1,.691-.65,1.932,1.932,0,0,1,.979-.246,1.813,1.813,0,0,1,1,.253,1.369,1.369,0,0,1,.553.711,1.975,1.975,0,0,1,1.7-.964,1.678,1.678,0,0,1,1.26.453,1.943,1.943,0,0,1,.44,1.4V0H6.534V-3.469a2.543,2.543,0,0,0-.091-.807.778.778,0,0,0-.329-.4,1.039,1.039,0,0,0-.56-.15,1.3,1.3,0,0,0-.964.387A1.7,1.7,0,0,0,4.206-3.2V0H3.273V-3.578a1.572,1.572,0,0,0-.229-.933A.86.86,0,0,0,2.3-4.823a1.352,1.352,0,0,0-.729.208,1.177,1.177,0,0,0-.485.606A3.429,3.429,0,0,0,.933-2.857V0Z" transform="translate(1326.979 2492.255)" fill="#20143b"/>
    <path id="Trazado_203" data-name="Trazado 203" d="M0,0V-7.617H.851V-6.9a2.072,2.072,0,0,1,.679-.63,1.857,1.857,0,0,1,.918-.21,2.18,2.18,0,0,1,1.244.362,2.229,2.229,0,0,1,.815,1.024,3.749,3.749,0,0,1,.275,1.45,3.7,3.7,0,0,1-.3,1.522A2.294,2.294,0,0,1,3.6-2.346a2.267,2.267,0,0,1-1.216.36,1.766,1.766,0,0,1-.838-.2,1.907,1.907,0,0,1-.609-.5V0ZM.846-4.833a2.391,2.391,0,0,0,.431,1.572,1.318,1.318,0,0,0,1.041.508,1.348,1.348,0,0,0,1.066-.526A2.5,2.5,0,0,0,3.828-4.91a2.432,2.432,0,0,0-.434-1.577A1.305,1.305,0,0,0,2.36-7.011,1.344,1.344,0,0,0,1.3-6.453a2.494,2.494,0,0,0-.459,1.62" transform="translate(1335.826 2494.365)" fill="#20143b"/>
    <path id="Trazado_204" data-name="Trazado 204" d="M0,0H332.624V-93.37H0Z" transform="translate(1260 2509.74)" fill="none"/>
    <path id="Trazado_205" data-name="Trazado 205" d="M81.712-17.484h.933v-7.6h-.933Z" transform="translate(1260 2509.74)" fill="#20143b"/>
    <path id="Trazado_206" data-name="Trazado 206" d="M0,0,.964.12A2.347,2.347,0,0,1,.12,1.431,2.544,2.544,0,0,1-1.457,1.9a2.522,2.522,0,0,1-1.917-.744A2.915,2.915,0,0,1-4.082-.933,3.041,3.041,0,0,1-3.365-3.09,2.419,2.419,0,0,1-1.51-3.858a2.356,2.356,0,0,1,1.8.751A2.984,2.984,0,0,1,1-.991c0,.056,0,.139,0,.249H-3.116A2.111,2.111,0,0,0-2.6.648a1.524,1.524,0,0,0,1.151.482A1.43,1.43,0,0,0-.576.861,1.783,1.783,0,0,0,0,0M-3.065-1.509H.01A1.864,1.864,0,0,0-.342-2.551,1.432,1.432,0,0,0-1.5-3.09a1.485,1.485,0,0,0-1.082.43,1.709,1.709,0,0,0-.485,1.151" transform="translate(1347.862 2490.482)" fill="#20143b"/>
    <path id="Trazado_207" data-name="Trazado 207" d="M0,0,.135.825A3.419,3.419,0,0,1-.571.908,1.6,1.6,0,0,1-1.359.747.9.9,0,0,1-1.753.324a3.335,3.335,0,0,1-.114-1.1V-3.946h-.684v-.726h.684V-6.036l.928-.56v1.924H0v.726H-.939v3.22a1.615,1.615,0,0,0,.05.514.391.391,0,0,0,.16.182.635.635,0,0,0,.32.067A2.924,2.924,0,0,0,0,0" transform="translate(1352.036 2491.42)" fill="#20143b"/>
    <path id="Trazado_208" data-name="Trazado 208" d="M0,0A3.507,3.507,0,0,1-1,.622,2.885,2.885,0,0,1-2.027.8,2.005,2.005,0,0,1-3.422.36,1.461,1.461,0,0,1-3.91-.773a1.5,1.5,0,0,1,.184-.739,1.519,1.519,0,0,1,.483-.537,2.309,2.309,0,0,1,.671-.306,6.955,6.955,0,0,1,.83-.14A8.614,8.614,0,0,0-.077-2.816c0-.127,0-.21,0-.244a1.03,1.03,0,0,0-.264-.8A1.561,1.561,0,0,0-1.4-4.18a1.646,1.646,0,0,0-.972.231,1.406,1.406,0,0,0-.464.817l-.913-.124a2.239,2.239,0,0,1,.41-.947,1.8,1.8,0,0,1,.824-.555,3.67,3.67,0,0,1,1.25-.2,3.324,3.324,0,0,1,1.146.166,1.514,1.514,0,0,1,.648.418,1.467,1.467,0,0,1,.29.635,5.286,5.286,0,0,1,.046.86v1.245A13.061,13.061,0,0,0,.926.018a2.08,2.08,0,0,0,.236.661H.187A1.969,1.969,0,0,1,0,0M-.077-2.085A6.852,6.852,0,0,1-1.6-1.733a3.589,3.589,0,0,0-.814.187.826.826,0,0,0-.368.3A.8.8,0,0,0-2.914-.8a.794.794,0,0,0,.283.622A1.215,1.215,0,0,0-1.8.072,1.931,1.931,0,0,0-.845-.164,1.454,1.454,0,0,0-.228-.809a2.257,2.257,0,0,0,.151-.933Z" transform="translate(1356.542 2491.576)" fill="#20143b"/>
    <path id="Trazado_209" data-name="Trazado 209" d="M0,0,2.919-7.6H4L7.115,0H5.968L5.082-2.3H1.9L1.067,0ZM2.193-3.122H4.771L3.977-5.227Q3.611-6.186,3.438-6.8a10.033,10.033,0,0,1-.41,1.452Z" transform="translate(1421.767 2486.472)" fill="#20143b"/>
    <path id="Trazado_210" data-name="Trazado 210" d="M0,0V-.809A2.015,2.015,0,0,1-1.746.125a2.236,2.236,0,0,1-.911-.187,1.516,1.516,0,0,1-.628-.47,1.752,1.752,0,0,1-.287-.692A4.806,4.806,0,0,1-3.63-2.1V-5.507H-2.7v3.054a5.4,5.4,0,0,0,.059.986.974.974,0,0,0,.373.578,1.162,1.162,0,0,0,.705.21A1.527,1.527,0,0,0-.771-.895a1.193,1.193,0,0,0,.52-.585A2.942,2.942,0,0,0-.1-2.557v-2.95H.835V0Z" transform="translate(1433.173 2486.472)" fill="#20143b"/>
    <path id="Trazado_211" data-name="Trazado 211" d="M0,0,.924-.145A1.278,1.278,0,0,0,1.358.7a1.5,1.5,0,0,0,.991.3A1.447,1.447,0,0,0,3.3.739.781.781,0,0,0,3.615.125a.564.564,0,0,0-.276-.5,3.958,3.958,0,0,0-.954-.316A8.735,8.735,0,0,1,.963-1.138a1.369,1.369,0,0,1-.6-.523A1.38,1.38,0,0,1,.156-2.4a1.429,1.429,0,0,1,.168-.682A1.506,1.506,0,0,1,.784-3.6a1.916,1.916,0,0,1,.594-.273,2.834,2.834,0,0,1,.806-.111A3.185,3.185,0,0,1,3.323-3.8a1.544,1.544,0,0,1,.722.5,1.963,1.963,0,0,1,.322.853l-.913.125a1,1,0,0,0-.36-.664,1.322,1.322,0,0,0-.843-.239,1.533,1.533,0,0,0-.918.212.623.623,0,0,0-.275.5.516.516,0,0,0,.115.327.809.809,0,0,0,.358.249c.093.035.368.114.824.239a11.381,11.381,0,0,1,1.382.433,1.405,1.405,0,0,1,.615.49,1.362,1.362,0,0,1,.222.8A1.566,1.566,0,0,1,4.3.9a1.772,1.772,0,0,1-.786.638,2.875,2.875,0,0,1-1.162.226A2.592,2.592,0,0,1,.718,1.323,2.074,2.074,0,0,1,0,0" transform="translate(1435.096 2484.828)" fill="#20143b"/>
    <path id="Trazado_212" data-name="Trazado 212" d="M0,0,.963.12A2.347,2.347,0,0,1,.119,1.431,2.542,2.542,0,0,1-1.458,1.9a2.52,2.52,0,0,1-1.916-.744A2.915,2.915,0,0,1-4.083-.933a3.046,3.046,0,0,1,.717-2.158A2.419,2.419,0,0,1-1.51-3.858a2.355,2.355,0,0,1,1.8.751A2.985,2.985,0,0,1,1-.991Q1-.907.99-.742H-3.117A2.111,2.111,0,0,0-2.6.648a1.526,1.526,0,0,0,1.152.482A1.429,1.429,0,0,0-.577.861,1.784,1.784,0,0,0,0,0M-3.066-1.509H.009A1.857,1.857,0,0,0-.343-2.551,1.428,1.428,0,0,0-1.5-3.091,1.485,1.485,0,0,0-2.58-2.66a1.71,1.71,0,0,0-.486,1.151" transform="translate(1444.551 2484.699)" fill="#20143b"/>
    <path id="Trazado_213" data-name="Trazado 213" d="M0,0V-5.507H.841v.783a1.976,1.976,0,0,1,1.752-.907,2.292,2.292,0,0,1,.916.179,1.437,1.437,0,0,1,.624.468,1.783,1.783,0,0,1,.291.69,5.306,5.306,0,0,1,.052.907V0H3.543V-3.35A2.555,2.555,0,0,0,3.434-4.2a.9.9,0,0,0-.387-.451A1.221,1.221,0,0,0,2.4-4.823a1.515,1.515,0,0,0-1.029.379A1.865,1.865,0,0,0,.933-3.008V0Z" transform="translate(1446.685 2486.472)" fill="#20143b"/>
    <path id="Trazado_214" data-name="Trazado 214" d="M0,0,.918.12A2.384,2.384,0,0,1,.149,1.606a2.251,2.251,0,0,1-1.524.536A2.36,2.36,0,0,1-3.19,1.4,2.992,2.992,0,0,1-3.879-.715a3.817,3.817,0,0,1,.3-1.561,2.055,2.055,0,0,1,.9-1,2.659,2.659,0,0,1,1.314-.335A2.284,2.284,0,0,1,.1-3.16,2.078,2.078,0,0,1,.83-1.872l-.907.141a1.508,1.508,0,0,0-.459-.835,1.19,1.19,0,0,0-.8-.28,1.447,1.447,0,0,0-1.145.5,2.4,2.4,0,0,0-.441,1.6A2.483,2.483,0,0,0-2.495.871a1.388,1.388,0,0,0,1.111.5,1.308,1.308,0,0,0,.918-.338A1.671,1.671,0,0,0,0,0" transform="translate(1456.185 2484.455)" fill="#20143b"/>
    <path id="Trazado_215" data-name="Trazado 215" d="M0,0H332.624V-93.37H0Z" transform="translate(1260 2509.74)" fill="none"/>
    <path id="Trazado_216" data-name="Trazado 216" d="M197.906-29.8h.933V-30.87h-.933Zm0-1.074,0,7.6h.933v-5.507h-.933Z" transform="translate(1260 2509.74)" fill="#20143b"/>
    <path id="Trazado_217" data-name="Trazado 217" d="M0,0A3.493,3.493,0,0,1-1,.622,2.885,2.885,0,0,1-2.027.8,2.01,2.01,0,0,1-3.423.36,1.466,1.466,0,0,1-3.909-.773a1.5,1.5,0,0,1,.183-.739,1.529,1.529,0,0,1,.483-.537,2.3,2.3,0,0,1,.671-.306,6.955,6.955,0,0,1,.83-.14A8.6,8.6,0,0,0-.077-2.816c0-.127.005-.21.005-.244a1.026,1.026,0,0,0-.266-.8A1.555,1.555,0,0,0-1.4-4.18a1.647,1.647,0,0,0-.973.231,1.4,1.4,0,0,0-.464.817l-.913-.124A2.251,2.251,0,0,1-3.34-4.2a1.812,1.812,0,0,1,.824-.555,3.68,3.68,0,0,1,1.251-.2,3.32,3.32,0,0,1,1.146.166,1.524,1.524,0,0,1,.649.418,1.491,1.491,0,0,1,.29.635,5.434,5.434,0,0,1,.045.86v1.245A13.061,13.061,0,0,0,.926.018a2.078,2.078,0,0,0,.235.661H.187A1.991,1.991,0,0,1,0,0M-.077-2.085A6.838,6.838,0,0,1-1.6-1.733a3.564,3.564,0,0,0-.813.187.817.817,0,0,0-.369.3A.81.81,0,0,0-2.913-.8a.8.8,0,0,0,.282.622A1.215,1.215,0,0,0-1.8.072a1.932,1.932,0,0,0,.96-.236A1.449,1.449,0,0,0-.228-.809a2.257,2.257,0,0,0,.151-.933Z" transform="translate(1463.854 2485.793)" fill="#20143b"/>
    <path id="Trazado_218" data-name="Trazado 218" d="M0,0,.134.825a3.48,3.48,0,0,1-.7.083A1.616,1.616,0,0,1-1.36.747.909.909,0,0,1-1.754.323a3.368,3.368,0,0,1-.113-1.1V-3.946h-.684v-.726h.684V-6.036l.928-.56v1.924H0v.726H-.939v3.22A1.658,1.658,0,0,0-.89-.212a.405.405,0,0,0,.16.181A.628.628,0,0,0-.409.037,3.086,3.086,0,0,0,0,0" transform="translate(1436.327 2498.381)" fill="#20143b"/>
    <path id="Trazado_219" data-name="Trazado 219" d="M0,0A2.845,2.845,0,0,1,.851-2.267a2.567,2.567,0,0,1,1.732-.61,2.473,2.473,0,0,1,1.856.742,2.834,2.834,0,0,1,.72,2.058A3.642,3.642,0,0,1,4.841,1.6a2.251,2.251,0,0,1-.928.946,2.7,2.7,0,0,1-1.33.336,2.477,2.477,0,0,1-1.87-.741A2.962,2.962,0,0,1,0,0M.96,0a2.349,2.349,0,0,0,.462,1.584,1.476,1.476,0,0,0,1.161.526,1.469,1.469,0,0,0,1.156-.528A2.4,2.4,0,0,0,4.2-.031a2.272,2.272,0,0,0-.463-1.547,1.476,1.476,0,0,0-1.155-.527,1.48,1.48,0,0,0-1.161.523A2.342,2.342,0,0,0,.96,0" transform="translate(1436.891 2496.462)" fill="#20143b"/>
    <path id="Trazado_220" data-name="Trazado 220" d="M0,0,.136.825A3.5,3.5,0,0,1-.57.908,1.609,1.609,0,0,1-1.358.747.9.9,0,0,1-1.752.323a3.294,3.294,0,0,1-.115-1.1V-3.946h-.684v-.726h.684V-6.036l.928-.56v1.924H0v.726H-.939v3.22a1.575,1.575,0,0,0,.051.514.383.383,0,0,0,.16.181A.62.62,0,0,0-.409.037,3.086,3.086,0,0,0,0,0" transform="translate(1445.182 2498.381)" fill="#20143b"/>
    <path id="Trazado_221" data-name="Trazado 221" d="M0,0A3.449,3.449,0,0,1-1,.622,2.885,2.885,0,0,1-2.027.8,2,2,0,0,1-3.422.36,1.463,1.463,0,0,1-3.909-.773a1.505,1.505,0,0,1,.183-.739,1.526,1.526,0,0,1,.483-.536,2.245,2.245,0,0,1,.671-.306,6.913,6.913,0,0,1,.83-.141,8.537,8.537,0,0,0,1.665-.32c0-.128.005-.21.005-.244a1.034,1.034,0,0,0-.265-.805A1.563,1.563,0,0,0-1.4-4.18a1.649,1.649,0,0,0-.973.231,1.413,1.413,0,0,0-.464.817l-.913-.125a2.252,2.252,0,0,1,.41-.946,1.8,1.8,0,0,1,.824-.554,3.646,3.646,0,0,1,1.25-.2,3.3,3.3,0,0,1,1.146.166,1.517,1.517,0,0,1,.649.417,1.491,1.491,0,0,1,.29.635,5.327,5.327,0,0,1,.045.861v1.245A13.061,13.061,0,0,0,.926.019a2.09,2.09,0,0,0,.236.66H.187A2.007,2.007,0,0,1,0,0M-.077-2.085A6.829,6.829,0,0,1-1.6-1.732a3.564,3.564,0,0,0-.813.187.815.815,0,0,0-.369.3A.81.81,0,0,0-2.913-.8a.8.8,0,0,0,.283.623A1.212,1.212,0,0,0-1.8.073,1.918,1.918,0,0,0-.845-.164,1.449,1.449,0,0,0-.228-.809a2.257,2.257,0,0,0,.151-.933Z" transform="translate(1449.689 2498.536)" fill="#20143b"/>
    <path id="Trazado_222" data-name="Trazado 222" d="M0,0H332.624V-93.37H0Z" transform="translate(1260 2509.74)" fill="none"/>
    <path id="Trazado_223" data-name="Trazado 223" d="M191.98-10.525h.933v-7.6h-.933Z" transform="translate(1260 2509.74)" fill="#20143b"/>
    <path id="Trazado_224" data-name="Trazado 224" d="M0,0V-7.6H2.617a6.39,6.39,0,0,1,1.354.109,2.57,2.57,0,0,1,1.115.545,3.1,3.1,0,0,1,.9,1.3,5.111,5.111,0,0,1,.3,1.806,5.26,5.26,0,0,1-.2,1.535A3.692,3.692,0,0,1,5.563-1.2a2.771,2.771,0,0,1-.692.689,2.809,2.809,0,0,1-.907.381A5.158,5.158,0,0,1,2.742,0ZM1-.9H2.629a3.961,3.961,0,0,0,1.18-.14,1.679,1.679,0,0,0,.681-.394,2.406,2.406,0,0,0,.558-.962,4.74,4.74,0,0,0,.2-1.465,3.512,3.512,0,0,0-.393-1.833A1.963,1.963,0,0,0,3.9-6.549,3.944,3.944,0,0,0,2.6-6.7H1Z" transform="translate(1541.806 2492.255)" fill="#20143b"/>
    <path id="Trazado_225" data-name="Trazado 225" d="M0,0,.963.12A2.341,2.341,0,0,1,.119,1.431,2.542,2.542,0,0,1-1.458,1.9a2.52,2.52,0,0,1-1.916-.744A2.915,2.915,0,0,1-4.083-.933,3.041,3.041,0,0,1-3.366-3.09,2.421,2.421,0,0,1-1.51-3.858a2.355,2.355,0,0,1,1.8.751A2.985,2.985,0,0,1,1-.991Q1-.907.99-.742H-3.117A2.116,2.116,0,0,0-2.6.648a1.526,1.526,0,0,0,1.152.482A1.429,1.429,0,0,0-.577.861,1.784,1.784,0,0,0,0,0M-3.066-1.509H.009A1.857,1.857,0,0,0-.343-2.551,1.43,1.43,0,0,0-1.5-3.09a1.484,1.484,0,0,0-1.081.43,1.71,1.71,0,0,0-.486,1.151" transform="translate(1553.125 2490.482)" fill="#20143b"/>
    <path id="Trazado_226" data-name="Trazado 226" d="M0,0V-5.507H.839v.834a2.3,2.3,0,0,1,.594-.772,1.043,1.043,0,0,1,.6-.186,1.825,1.825,0,0,1,.959.3l-.322.866a1.341,1.341,0,0,0-.684-.2.884.884,0,0,0-.549.184,1.013,1.013,0,0,0-.349.511A3.628,3.628,0,0,0,.933-2.883V0Z" transform="translate(1555.25 2492.255)" fill="#20143b"/>
    <path id="Trazado_227" data-name="Trazado 227" d="M0,0,.965.12A2.357,2.357,0,0,1,.121,1.431,2.548,2.548,0,0,1-1.456,1.9a2.525,2.525,0,0,1-1.918-.744A2.914,2.914,0,0,1-4.081-.933,3.041,3.041,0,0,1-3.364-3.09a2.419,2.419,0,0,1,1.855-.768,2.356,2.356,0,0,1,1.8.751A2.984,2.984,0,0,1,1-.991c0,.056,0,.139,0,.249H-3.115A2.111,2.111,0,0,0-2.6.648a1.522,1.522,0,0,0,1.15.482A1.433,1.433,0,0,0-.575.861,1.8,1.8,0,0,0,0,0M-3.064-1.509H.011A1.872,1.872,0,0,0-.341-2.551,1.433,1.433,0,0,0-1.5-3.09a1.486,1.486,0,0,0-1.083.43,1.708,1.708,0,0,0-.484,1.151" transform="translate(1562.567 2490.482)" fill="#20143b"/>
    <path id="Trazado_228" data-name="Trazado 228" d="M0,0,.918.12A2.384,2.384,0,0,1,.149,1.606a2.251,2.251,0,0,1-1.524.536A2.36,2.36,0,0,1-3.19,1.4,2.992,2.992,0,0,1-3.879-.715a3.817,3.817,0,0,1,.3-1.561,2.059,2.059,0,0,1,.9-1,2.659,2.659,0,0,1,1.314-.335A2.284,2.284,0,0,1,.1-3.16,2.078,2.078,0,0,1,.83-1.871l-.907.14a1.513,1.513,0,0,0-.458-.835,1.194,1.194,0,0,0-.8-.28,1.45,1.45,0,0,0-1.145.5,2.4,2.4,0,0,0-.441,1.6A2.489,2.489,0,0,0-2.495.871a1.388,1.388,0,0,0,1.111.5,1.308,1.308,0,0,0,.918-.338A1.666,1.666,0,0,0,0,0" transform="translate(1568.297 2490.238)" fill="#20143b"/>
    <path id="Trazado_229" data-name="Trazado 229" d="M0,0V-7.6H.933v2.728a2.083,2.083,0,0,1,1.65-.757,2.231,2.231,0,0,1,1.064.241,1.418,1.418,0,0,1,.645.666A3.062,3.062,0,0,1,4.486-3.49V0H3.552V-3.49a1.436,1.436,0,0,0-.3-1.019,1.127,1.127,0,0,0-.858-.318,1.527,1.527,0,0,0-.781.215,1.215,1.215,0,0,0-.52.582A2.68,2.68,0,0,0,.933-3.013V0Z" transform="translate(1570.013 2492.255)" fill="#20143b"/>
    <path id="Trazado_230" data-name="Trazado 230" d="M0,0A3.493,3.493,0,0,1-1,.622,2.885,2.885,0,0,1-2.027.8,2.007,2.007,0,0,1-3.422.36,1.463,1.463,0,0,1-3.909-.773a1.5,1.5,0,0,1,.183-.739,1.529,1.529,0,0,1,.483-.537,2.322,2.322,0,0,1,.671-.306,6.955,6.955,0,0,1,.83-.14A8.6,8.6,0,0,0-.077-2.816c0-.127.005-.21.005-.244a1.03,1.03,0,0,0-.265-.8A1.56,1.56,0,0,0-1.4-4.18a1.649,1.649,0,0,0-.973.231,1.406,1.406,0,0,0-.464.817l-.913-.124a2.239,2.239,0,0,1,.41-.947,1.8,1.8,0,0,1,.824-.555,3.67,3.67,0,0,1,1.25-.2,3.32,3.32,0,0,1,1.146.166,1.524,1.524,0,0,1,.649.418,1.491,1.491,0,0,1,.29.635,5.443,5.443,0,0,1,.045.86v1.245A13.061,13.061,0,0,0,.926.018a2.1,2.1,0,0,0,.236.661H.187A2.014,2.014,0,0,1,0,0M-.077-2.085A6.838,6.838,0,0,1-1.6-1.733a3.564,3.564,0,0,0-.813.187.823.823,0,0,0-.369.3A.81.81,0,0,0-2.913-.8a.794.794,0,0,0,.283.622A1.212,1.212,0,0,0-1.8.072,1.928,1.928,0,0,0-.845-.164,1.449,1.449,0,0,0-.228-.809a2.257,2.257,0,0,0,.151-.933Z" transform="translate(1579.513 2491.576)" fill="#20143b"/>
    <path id="Trazado_231" data-name="Trazado 231" d="M0,0,1.1.277A3.69,3.69,0,0,1-.145,2.339a3.422,3.422,0,0,1-2.191.71A3.942,3.942,0,0,1-4.518,2.5,3.407,3.407,0,0,1-5.8.922,5.627,5.627,0,0,1-6.234-1.3a4.886,4.886,0,0,1,.494-2.26A3.394,3.394,0,0,1-4.331-5.026a4.116,4.116,0,0,1,2.012-.5,3.4,3.4,0,0,1,2.093.634A3.293,3.293,0,0,1,.956-3.111l-1.081.254A2.56,2.56,0,0,0-.962-4.175a2.231,2.231,0,0,0-1.38-.413,2.688,2.688,0,0,0-1.6.458,2.418,2.418,0,0,0-.9,1.231A4.938,4.938,0,0,0-5.1-1.307,5.051,5.051,0,0,0-4.8.54a2.3,2.3,0,0,0,.96,1.18,2.688,2.688,0,0,0,1.408.39A2.361,2.361,0,0,0-.865,1.578,2.719,2.719,0,0,0,0,0" transform="translate(1389.121 2428.658)" fill="#20143b"/>
    <path id="Trazado_232" data-name="Trazado 232" d="M0,0A3.783,3.783,0,0,1-1.09.679a3.141,3.141,0,0,1-1.122.2A2.179,2.179,0,0,1-3.733.393,1.594,1.594,0,0,1-4.265-.843a1.641,1.641,0,0,1,.2-.806,1.662,1.662,0,0,1,.526-.585,2.44,2.44,0,0,1,.733-.334,7.242,7.242,0,0,1,.9-.153A9.278,9.278,0,0,0-.085-3.072c0-.139.006-.228.006-.266a1.12,1.12,0,0,0-.289-.876,1.7,1.7,0,0,0-1.159-.345,1.8,1.8,0,0,0-1.062.251,1.537,1.537,0,0,0-.505.891l-1-.136a2.477,2.477,0,0,1,.447-1.032,1.953,1.953,0,0,1,.9-.605A4,4,0,0,1-1.38-5.4a3.6,3.6,0,0,1,1.25.181,1.644,1.644,0,0,1,.707.455,1.609,1.609,0,0,1,.317.693,5.715,5.715,0,0,1,.051.939v1.358A14.582,14.582,0,0,0,1.009.02a2.26,2.26,0,0,0,.258.721H.2A2.144,2.144,0,0,1,0,0M-.085-2.274a7.474,7.474,0,0,1-1.663.385,3.846,3.846,0,0,0-.888.2.892.892,0,0,0-.4.331.873.873,0,0,0-.141.484.869.869,0,0,0,.307.679,1.329,1.329,0,0,0,.9.271A2.107,2.107,0,0,0-.922-.178a1.586,1.586,0,0,0,.673-.7A2.456,2.456,0,0,0-.085-1.9Z" transform="translate(1395.36 2430.824)" fill="#20143b"/>
    <path id="Trazado_233" data-name="Trazado 233" d="M0,0H332.624V-93.37H0Z" transform="translate(1260 2509.74)" fill="none"/>
    <path id="Trazado_234" data-name="Trazado 234" d="M137.861-86.468h1.018v8.293h-1.018Z" transform="translate(1260 2509.74)" fill="#20143b"/>
    <path id="Trazado_235" data-name="Trazado 235" d="M140.463-86.468h1.018V-85.3h-1.018Zm0,1.171,0,1.115h1.018v6.008h-1.018Z" transform="translate(1260 2509.74)" fill="#20143b"/>
    <path id="Trazado_236" data-name="Trazado 236" d="M0,0V-5.216H-.9v-.792H0v-.639a2.819,2.819,0,0,1,.107-.9,1.306,1.306,0,0,1,.517-.642,1.869,1.869,0,0,1,1.039-.246,4.973,4.973,0,0,1,.951.1l-.153.888a3.482,3.482,0,0,0-.6-.056.892.892,0,0,0-.656.2,1.074,1.074,0,0,0-.192.741v.554H2.184v.792H1.013V0Z" transform="translate(1403.274 2431.565)" fill="#20143b"/>
    <path id="Trazado_237" data-name="Trazado 237" d="M0,0H332.624V-93.37H0Z" transform="translate(1260 2509.74)" fill="none"/>
    <path id="Trazado_238" data-name="Trazado 238" d="M146.255-86.468h1.018V-85.3h-1.018Zm0,1.171,0,1.115h1.018v6.008h-1.018Z" transform="translate(1260 2509.74)" fill="#20143b"/>
    <path id="Trazado_239" data-name="Trazado 239" d="M0,0,1,.13A2.6,2.6,0,0,1,.16,1.751,2.446,2.446,0,0,1-1.5,2.336,2.581,2.581,0,0,1-3.483,1.53,3.273,3.273,0,0,1-4.231-.781a4.178,4.178,0,0,1,.322-1.7,2.242,2.242,0,0,1,.981-1.1,2.917,2.917,0,0,1,1.435-.365,2.489,2.489,0,0,1,1.6.5A2.271,2.271,0,0,1,.9-2.042l-.99.153a1.642,1.642,0,0,0-.5-.911,1.3,1.3,0,0,0-.868-.306,1.579,1.579,0,0,0-1.25.552A2.615,2.615,0,0,0-3.185-.809,2.707,2.707,0,0,0-2.721.95,1.509,1.509,0,0,0-1.51,1.5a1.429,1.429,0,0,0,1-.368A1.824,1.824,0,0,0,0,0" transform="translate(1412.744 2429.365)" fill="#20143b"/>
    <path id="Trazado_240" data-name="Trazado 240" d="M0,0A3.783,3.783,0,0,1-1.09.679a3.141,3.141,0,0,1-1.122.2A2.179,2.179,0,0,1-3.733.393,1.594,1.594,0,0,1-4.265-.843a1.641,1.641,0,0,1,.2-.806,1.662,1.662,0,0,1,.526-.585,2.451,2.451,0,0,1,.733-.334,7.242,7.242,0,0,1,.9-.153A9.262,9.262,0,0,0-.085-3.072c0-.139.006-.228.006-.266a1.12,1.12,0,0,0-.289-.876,1.7,1.7,0,0,0-1.159-.345,1.8,1.8,0,0,0-1.062.251,1.537,1.537,0,0,0-.505.891l-1-.136a2.477,2.477,0,0,1,.447-1.032,1.951,1.951,0,0,1,.9-.605A3.994,3.994,0,0,1-1.38-5.4a3.6,3.6,0,0,1,1.25.181,1.644,1.644,0,0,1,.707.455,1.609,1.609,0,0,1,.317.693,5.715,5.715,0,0,1,.051.939v1.358A14.582,14.582,0,0,0,1.009.02a2.26,2.26,0,0,0,.258.721H.2A2.144,2.144,0,0,1,0,0M-.085-2.274a7.474,7.474,0,0,1-1.663.385,3.846,3.846,0,0,0-.888.2.892.892,0,0,0-.4.331.873.873,0,0,0-.141.484.869.869,0,0,0,.307.679,1.329,1.329,0,0,0,.9.271A2.107,2.107,0,0,0-.922-.178a1.586,1.586,0,0,0,.673-.7A2.456,2.456,0,0,0-.085-1.9Z" transform="translate(1418.536 2430.824)" fill="#20143b"/>
    <path id="Trazado_241" data-name="Trazado 241" d="M0,0V-.758A1.869,1.869,0,0,1-1.68.136,2.36,2.36,0,0,1-3-.26a2.6,2.6,0,0,1-.933-1.106A3.818,3.818,0,0,1-4.265-3a4.285,4.285,0,0,1,.3-1.632,2.361,2.361,0,0,1,.9-1.123,2.408,2.408,0,0,1,1.341-.39,2,2,0,0,1,.967.229,2.01,2.01,0,0,1,.69.6V-8.293H.945V0ZM-3.219-3a2.605,2.605,0,0,0,.487,1.725A1.465,1.465,0,0,0-1.584-.7,1.436,1.436,0,0,0-.451-1.247,2.513,2.513,0,0,0,.017-2.913,2.827,2.827,0,0,0-.458-4.724,1.464,1.464,0,0,0-1.629-5.3a1.41,1.41,0,0,0-1.135.555A2.732,2.732,0,0,0-3.219-3" transform="translate(1424.957 2431.565)" fill="#20143b"/>
    <path id="Trazado_242" data-name="Trazado 242" d="M0,0A3.093,3.093,0,0,1,.928-2.472,2.8,2.8,0,0,1,2.817-3.14a2.7,2.7,0,0,1,2.026.812A3.089,3.089,0,0,1,5.629-.085,3.978,3.978,0,0,1,5.28,1.74,2.464,2.464,0,0,1,4.267,2.772a2.943,2.943,0,0,1-1.45.368,2.7,2.7,0,0,1-2.04-.809A3.235,3.235,0,0,1,0,0M1.047,0a2.557,2.557,0,0,0,.5,1.728A1.613,1.613,0,0,0,2.817,2.3a1.6,1.6,0,0,0,1.262-.577,2.621,2.621,0,0,0,.5-1.759,2.481,2.481,0,0,0-.507-1.689A1.61,1.61,0,0,0,2.817-2.3a1.618,1.618,0,0,0-1.267.572A2.545,2.545,0,0,0,1.047,0" transform="translate(1427.124 2428.562)" fill="#20143b"/>
    <path id="Trazado_243" data-name="Trazado 243" d="M0,0V-6.008H.917V-5.1a2.48,2.48,0,0,1,.646-.843,1.132,1.132,0,0,1,.655-.2,1.984,1.984,0,0,1,1.046.328l-.351.944a1.454,1.454,0,0,0-.746-.22.974.974,0,0,0-.6.2,1.088,1.088,0,0,0-.379.558,3.97,3.97,0,0,0-.17,1.188V0Z" transform="translate(1433.935 2431.565)" fill="#20143b"/>
    <path id="Trazado_244" data-name="Trazado 244" d="M0,0V-.758A1.869,1.869,0,0,1-1.68.136,2.36,2.36,0,0,1-3-.26a2.6,2.6,0,0,1-.933-1.106A3.818,3.818,0,0,1-4.265-3a4.266,4.266,0,0,1,.3-1.632,2.354,2.354,0,0,1,.9-1.123,2.408,2.408,0,0,1,1.341-.39,2,2,0,0,1,.967.229,2.01,2.01,0,0,1,.69.6V-8.293H.945V0ZM-3.219-3a2.605,2.605,0,0,0,.487,1.725A1.465,1.465,0,0,0-1.584-.7,1.436,1.436,0,0,0-.451-1.247,2.513,2.513,0,0,0,.017-2.913,2.827,2.827,0,0,0-.458-4.724,1.464,1.464,0,0,0-1.629-5.3a1.41,1.41,0,0,0-1.135.555A2.732,2.732,0,0,0-3.219-3" transform="translate(1444.92 2431.565)" fill="#20143b"/>
    <path id="Trazado_245" data-name="Trazado 245" d="M0,0,1.052.13A2.563,2.563,0,0,1,.13,1.561a2.769,2.769,0,0,1-1.72.509,2.751,2.751,0,0,1-2.091-.811,3.173,3.173,0,0,1-.771-2.277,3.32,3.32,0,0,1,.781-2.354,2.641,2.641,0,0,1,2.025-.837,2.574,2.574,0,0,1,1.969.82A3.262,3.262,0,0,1,1.086-1.08c0,.06,0,.15,0,.271H-3.4A2.314,2.314,0,0,0-2.84.707a1.668,1.668,0,0,0,1.256.526A1.557,1.557,0,0,0-.628.939,1.954,1.954,0,0,0,0,0M-3.343-1.646H.011A2.034,2.034,0,0,0-.373-2.783a1.563,1.563,0,0,0-1.262-.589,1.618,1.618,0,0,0-1.18.47,1.857,1.857,0,0,0-.528,1.256" transform="translate(1451.578 2429.631)" fill="#20143b"/>
    <path id="Trazado_246" data-name="Trazado 246" d="M0,0V-6.008H.917v.855a2.158,2.158,0,0,1,1.911-.99,2.51,2.51,0,0,1,1,.2,1.573,1.573,0,0,1,.683.511,1.972,1.972,0,0,1,.316.752,5.794,5.794,0,0,1,.057.99V0H3.864V-3.654a2.745,2.745,0,0,0-.119-.93.986.986,0,0,0-.422-.492,1.336,1.336,0,0,0-.709-.185,1.652,1.652,0,0,0-1.124.413,2.037,2.037,0,0,0-.472,1.567V0Z" transform="translate(1391.44 2445.467)" fill="#20143b"/>
    <path id="Trazado_247" data-name="Trazado 247" d="M0,0A3.783,3.783,0,0,1-1.09.679a3.141,3.141,0,0,1-1.122.2A2.188,2.188,0,0,1-3.734.394,1.6,1.6,0,0,1-4.265-.843a1.638,1.638,0,0,1,.2-.805,1.662,1.662,0,0,1,.525-.586,2.457,2.457,0,0,1,.734-.334,7.242,7.242,0,0,1,.9-.153A9.278,9.278,0,0,0-.085-3.072c0-.139.006-.228.006-.266a1.124,1.124,0,0,0-.289-.876A1.7,1.7,0,0,0-1.527-4.56a1.8,1.8,0,0,0-1.062.253,1.534,1.534,0,0,0-.505.89l-1-.136a2.447,2.447,0,0,1,.447-1.031,1.953,1.953,0,0,1,.9-.605A4,4,0,0,1-1.38-5.4a3.6,3.6,0,0,1,1.25.181,1.645,1.645,0,0,1,.707.456,1.6,1.6,0,0,1,.317.692,5.715,5.715,0,0,1,.051.939v1.358a14.391,14.391,0,0,0,.064,1.8,2.263,2.263,0,0,0,.258.72H.2A2.144,2.144,0,0,1,0,0M-.085-2.274a7.489,7.489,0,0,1-1.663.385,3.846,3.846,0,0,0-.888.2.889.889,0,0,0-.4.332.869.869,0,0,0-.141.483.869.869,0,0,0,.307.679,1.329,1.329,0,0,0,.9.271A2.107,2.107,0,0,0-.922-.177,1.591,1.591,0,0,0-.249-.883,2.464,2.464,0,0,0-.085-1.9Z" transform="translate(1401.803 2444.726)" fill="#20143b"/>
    <path id="Trazado_248" data-name="Trazado 248" d="M0,0,.147.9A3.8,3.8,0,0,1-.622.99a1.739,1.739,0,0,1-.86-.175.978.978,0,0,1-.43-.461,3.645,3.645,0,0,1-.125-1.2V-4.3h-.746V-5.1h.746V-6.585L-1.024-7.2v2.1H0V-4.3H-1.024V-.792a1.779,1.779,0,0,0,.053.56.424.424,0,0,0,.175.2A.681.681,0,0,0-.447.04,3.4,3.4,0,0,0,0,0" transform="translate(1406.55 2444.556)" fill="#20143b"/>
    <path id="Trazado_249" data-name="Trazado 249" d="M0,0V-.882A2.2,2.2,0,0,1-1.906.136a2.429,2.429,0,0,1-.994-.2,1.63,1.63,0,0,1-.685-.511A1.927,1.927,0,0,1-3.9-1.335a5.221,5.221,0,0,1-.062-.95V-6.008h1.018v3.332A5.868,5.868,0,0,0-2.879-1.6a1.061,1.061,0,0,0,.407.632A1.259,1.259,0,0,0-1.7-.741a1.67,1.67,0,0,0,.86-.234,1.3,1.3,0,0,0,.568-.639A3.221,3.221,0,0,0-.108-2.789V-6.008H.911V0Z" transform="translate(1411.482 2445.467)" fill="#20143b"/>
    <path id="Trazado_250" data-name="Trazado 250" d="M0,0V-6.008H.917V-5.1a2.48,2.48,0,0,1,.646-.843,1.14,1.14,0,0,1,.655-.2,1.984,1.984,0,0,1,1.046.328l-.351.944a1.454,1.454,0,0,0-.746-.22.97.97,0,0,0-.6.2,1.082,1.082,0,0,0-.379.556,3.97,3.97,0,0,0-.17,1.188V0Z" transform="translate(1413.977 2445.467)" fill="#20143b"/>
    <path id="Trazado_251" data-name="Trazado 251" d="M0,0A3.783,3.783,0,0,1-1.09.679a3.141,3.141,0,0,1-1.122.2A2.188,2.188,0,0,1-3.734.394,1.6,1.6,0,0,1-4.265-.843a1.638,1.638,0,0,1,.2-.805,1.656,1.656,0,0,1,.526-.586,2.44,2.44,0,0,1,.733-.334,7.242,7.242,0,0,1,.9-.153A9.278,9.278,0,0,0-.085-3.072c0-.139.006-.228.006-.266a1.12,1.12,0,0,0-.289-.876A1.7,1.7,0,0,0-1.527-4.56a1.8,1.8,0,0,0-1.062.253,1.534,1.534,0,0,0-.505.89l-1-.136a2.447,2.447,0,0,1,.447-1.031,1.953,1.953,0,0,1,.9-.605A4,4,0,0,1-1.38-5.4a3.6,3.6,0,0,1,1.25.181,1.645,1.645,0,0,1,.707.456,1.6,1.6,0,0,1,.317.692,5.715,5.715,0,0,1,.051.939v1.358a14.391,14.391,0,0,0,.064,1.8,2.263,2.263,0,0,0,.258.72H.2A2.144,2.144,0,0,1,0,0M-.085-2.274a7.489,7.489,0,0,1-1.663.385,3.846,3.846,0,0,0-.888.2.889.889,0,0,0-.4.332.869.869,0,0,0-.141.483.869.869,0,0,0,.307.679,1.329,1.329,0,0,0,.9.271A2.107,2.107,0,0,0-.922-.177,1.591,1.591,0,0,0-.249-.883,2.464,2.464,0,0,0-.085-1.9Z" transform="translate(1421.767 2444.726)" fill="#20143b"/>
    <path id="Trazado_252" data-name="Trazado 252" d="M0,0H332.624V-93.37H0Z" transform="translate(1260 2509.74)" fill="none"/>
    <path id="Trazado_253" data-name="Trazado 253" d="M164.267-72.566h1.018v8.293h-1.018Z" transform="translate(1260 2509.74)" fill="#20143b"/>
    <path id="Trazado_254" data-name="Trazado 254" d="M0,0,1.052.13A2.563,2.563,0,0,1,.13,1.561a2.769,2.769,0,0,1-1.72.509,2.751,2.751,0,0,1-2.091-.81,3.176,3.176,0,0,1-.771-2.278,3.32,3.32,0,0,1,.781-2.354,2.641,2.641,0,0,1,2.025-.837,2.57,2.57,0,0,1,1.968.82,3.257,3.257,0,0,1,.764,2.308c0,.061,0,.151-.006.272H-3.4A2.309,2.309,0,0,0-2.84.707a1.666,1.666,0,0,0,1.256.526A1.559,1.559,0,0,0-.628.939,1.954,1.954,0,0,0,0,0M-3.343-1.646H.011A2.023,2.023,0,0,0-.374-2.783a1.56,1.56,0,0,0-1.261-.589,1.618,1.618,0,0,0-1.18.47,1.857,1.857,0,0,0-.528,1.256" transform="translate(1430.976 2443.533)" fill="#20143b"/>
    <path id="Trazado_255" data-name="Trazado 255" d="M0,0V-.826l3.824-4.39c-.434.023-.816.034-1.148.034H.226v-.826h4.91v.674L1.884-1.522l-.628.7Q1.94-.877,2.54-.877H5.317V0Z" transform="translate(1432.769 2445.467)" fill="#20143b"/>
    <path id="Trazado_256" data-name="Trazado 256" d="M0,0A3.783,3.783,0,0,1-1.09.679a3.141,3.141,0,0,1-1.122.2A2.188,2.188,0,0,1-3.734.394,1.6,1.6,0,0,1-4.265-.843a1.638,1.638,0,0,1,.2-.805,1.656,1.656,0,0,1,.526-.586,2.44,2.44,0,0,1,.733-.334,7.242,7.242,0,0,1,.9-.153A9.278,9.278,0,0,0-.085-3.072c0-.139.006-.228.006-.266a1.12,1.12,0,0,0-.289-.876A1.7,1.7,0,0,0-1.527-4.56a1.8,1.8,0,0,0-1.062.253,1.534,1.534,0,0,0-.505.89l-1-.136a2.46,2.46,0,0,1,.447-1.031,1.953,1.953,0,0,1,.9-.605A4,4,0,0,1-1.38-5.4a3.6,3.6,0,0,1,1.25.181,1.645,1.645,0,0,1,.707.456,1.6,1.6,0,0,1,.317.692,5.715,5.715,0,0,1,.051.939v1.358a14.391,14.391,0,0,0,.064,1.8,2.263,2.263,0,0,0,.258.72H.2A2.144,2.144,0,0,1,0,0M-.085-2.274a7.474,7.474,0,0,1-1.663.385,3.846,3.846,0,0,0-.888.2.894.894,0,0,0-.4.332.869.869,0,0,0-.141.483.869.869,0,0,0,.307.679,1.329,1.329,0,0,0,.9.271A2.107,2.107,0,0,0-.922-.177,1.591,1.591,0,0,0-.249-.883,2.464,2.464,0,0,0-.085-1.9Z" transform="translate(1443.02 2444.726)" fill="#20143b"/>
    <path id="Trazado_257" data-name="Trazado 257" d="M0,0A10.2,10.2,0,0,1-1.426-2.489a7.741,7.741,0,0,1-.582-2.953,7.7,7.7,0,0,1,.435-2.579A10.859,10.859,0,0,1,0-10.873H.73Q.044-9.7-.175-9.193a9.2,9.2,0,0,0-.544,1.63A9.469,9.469,0,0,0-.962-5.436,10.2,10.2,0,0,0,.73,0Z" transform="translate(1409.174 2461.808)" fill="#20143b"/>
    <path id="Trazado_258" data-name="Trazado 258" d="M0,0,1.1.277A3.693,3.693,0,0,1-.145,2.34a3.421,3.421,0,0,1-2.191.709A3.942,3.942,0,0,1-4.518,2.5,3.41,3.41,0,0,1-5.8.922,5.627,5.627,0,0,1-6.234-1.3,4.881,4.881,0,0,1-5.74-3.56,3.394,3.394,0,0,1-4.331-5.025a4.117,4.117,0,0,1,2.012-.5,3.4,3.4,0,0,1,2.093.634A3.288,3.288,0,0,1,.956-3.111l-1.081.254A2.564,2.564,0,0,0-.962-4.175a2.231,2.231,0,0,0-1.38-.413,2.688,2.688,0,0,0-1.6.458,2.42,2.42,0,0,0-.9,1.232A4.932,4.932,0,0,0-5.1-1.307,5.053,5.053,0,0,0-4.8.541a2.3,2.3,0,0,0,.96,1.179,2.688,2.688,0,0,0,1.408.39A2.361,2.361,0,0,0-.865,1.578,2.719,2.719,0,0,0,0,0" transform="translate(1417.134 2456.462)" fill="#20143b"/>
    <path id="Trazado_259" data-name="Trazado 259" d="M0,0V-6.008H.917v.855a2.158,2.158,0,0,1,1.911-.99,2.51,2.51,0,0,1,1,.2,1.573,1.573,0,0,1,.683.511,1.972,1.972,0,0,1,.316.752,5.794,5.794,0,0,1,.057.99V0H3.864V-3.654a2.745,2.745,0,0,0-.119-.93.978.978,0,0,0-.422-.492,1.336,1.336,0,0,0-.709-.185,1.654,1.654,0,0,0-1.124.413,2.037,2.037,0,0,0-.472,1.567V0Z" transform="translate(1419.453 2459.37)" fill="#20143b"/>
    <path id="Trazado_260" data-name="Trazado 260" d="M0,0H-.73A10.2,10.2,0,0,0,.962-5.436a9.3,9.3,0,0,0-.244-2.11,8.869,8.869,0,0,0-.537-1.63,19.2,19.2,0,0,0-.911-1.7H0A10.859,10.859,0,0,1,1.573-8.021a7.7,7.7,0,0,1,.435,2.579,7.708,7.708,0,0,1-.586,2.953A10.392,10.392,0,0,1,0,0" transform="translate(1426.564 2461.808)" fill="#20143b"/>
    <path id="Trazado_261" data-name="Trazado 261" d="M0,0,1.1.277A3.693,3.693,0,0,1-.143,2.339a3.427,3.427,0,0,1-2.193.71A3.935,3.935,0,0,1-4.516,2.5,3.415,3.415,0,0,1-5.8.922,5.645,5.645,0,0,1-6.234-1.3a4.886,4.886,0,0,1,.5-2.26A3.4,3.4,0,0,1-4.33-5.026a4.115,4.115,0,0,1,2.011-.5,3.4,3.4,0,0,1,2.093.634A3.293,3.293,0,0,1,.956-3.111l-1.081.254A2.56,2.56,0,0,0-.962-4.175a2.233,2.233,0,0,0-1.38-.413,2.682,2.682,0,0,0-1.6.458,2.421,2.421,0,0,0-.9,1.231A4.938,4.938,0,0,0-5.1-1.307,5.05,5.05,0,0,0-4.793.54a2.3,2.3,0,0,0,.958,1.18,2.688,2.688,0,0,0,1.408.39A2.361,2.361,0,0,0-.865,1.578,2.719,2.719,0,0,0,0,0" transform="translate(1503.613 2428.658)" fill="#20143b"/>
    <path id="Trazado_262" data-name="Trazado 262" d="M0,0A3.776,3.776,0,0,1-1.088.679a3.152,3.152,0,0,1-1.124.2A2.183,2.183,0,0,1-3.734.393,1.6,1.6,0,0,1-4.265-.843a1.632,1.632,0,0,1,.2-.806,1.652,1.652,0,0,1,.526-.585,2.428,2.428,0,0,1,.731-.334,7.242,7.242,0,0,1,.9-.153A9.278,9.278,0,0,0-.085-3.072c0-.139.006-.228.006-.266a1.12,1.12,0,0,0-.289-.876,1.7,1.7,0,0,0-1.159-.345,1.8,1.8,0,0,0-1.06.251,1.539,1.539,0,0,0-.507.891l-1-.136a2.452,2.452,0,0,1,.447-1.032,1.953,1.953,0,0,1,.9-.605A4,4,0,0,1-1.38-5.4a3.6,3.6,0,0,1,1.25.181,1.644,1.644,0,0,1,.707.455,1.609,1.609,0,0,1,.317.693,5.715,5.715,0,0,1,.051.939v1.358A14.213,14.213,0,0,0,1.011.02a2.256,2.256,0,0,0,.256.721H.2A2.144,2.144,0,0,1,0,0M-.085-2.274a7.474,7.474,0,0,1-1.663.385,3.846,3.846,0,0,0-.888.2.887.887,0,0,0-.4.331.873.873,0,0,0-.141.484.871.871,0,0,0,.309.679,1.324,1.324,0,0,0,.9.271A2.107,2.107,0,0,0-.922-.178a1.592,1.592,0,0,0,.673-.7A2.472,2.472,0,0,0-.085-1.9Z" transform="translate(1509.852 2430.824)" fill="#20143b"/>
    <path id="Trazado_263" data-name="Trazado 263" d="M0,0H332.624V-93.37H0Z" transform="translate(1260 2509.74)" fill="none"/>
    <path id="Trazado_264" data-name="Trazado 264" d="M252.352-86.468h1.018v8.293h-1.018Z" transform="translate(1260 2509.74)" fill="#20143b"/>
    <path id="Trazado_265" data-name="Trazado 265" d="M254.955-86.468h1.018V-85.3h-1.018Zm0,1.171,0,1.115h1.018v6.008h-1.018Z" transform="translate(1260 2509.74)" fill="#20143b"/>
    <path id="Trazado_266" data-name="Trazado 266" d="M0,0V-5.216H-.9v-.792H0v-.639a2.819,2.819,0,0,1,.107-.9,1.31,1.31,0,0,1,.519-.642,1.862,1.862,0,0,1,1.037-.246,4.981,4.981,0,0,1,.951.1l-.153.888a3.482,3.482,0,0,0-.6-.056.892.892,0,0,0-.656.2,1.074,1.074,0,0,0-.193.741v.554H2.184v.792H1.012V0Z" transform="translate(1517.766 2431.565)" fill="#20143b"/>
    <path id="Trazado_267" data-name="Trazado 267" d="M0,0H332.624V-93.37H0Z" transform="translate(1260 2509.74)" fill="none"/>
    <path id="Trazado_268" data-name="Trazado 268" d="M260.747-86.468h1.018V-85.3h-1.018Zm0,1.171,0,1.115h1.018v6.008h-1.018Z" transform="translate(1260 2509.74)" fill="#20143b"/>
    <path id="Trazado_269" data-name="Trazado 269" d="M0,0,1,.13A2.6,2.6,0,0,1,.162,1.751,2.449,2.449,0,0,1-1.5,2.336,2.576,2.576,0,0,1-3.481,1.53a3.274,3.274,0,0,1-.75-2.311,4.178,4.178,0,0,1,.322-1.7,2.249,2.249,0,0,1,.982-1.1,2.916,2.916,0,0,1,1.434-.365,2.494,2.494,0,0,1,1.6.5A2.274,2.274,0,0,1,.9-2.042l-.99.153a1.64,1.64,0,0,0-.5-.911,1.3,1.3,0,0,0-.87-.306,1.58,1.58,0,0,0-1.25.552A2.621,2.621,0,0,0-3.185-.809,2.707,2.707,0,0,0-2.721.95,1.509,1.509,0,0,0-1.51,1.5a1.429,1.429,0,0,0,1-.368A1.824,1.824,0,0,0,0,0" transform="translate(1527.236 2429.365)" fill="#20143b"/>
    <path id="Trazado_270" data-name="Trazado 270" d="M0,0A3.776,3.776,0,0,1-1.088.679a3.152,3.152,0,0,1-1.124.2A2.183,2.183,0,0,1-3.734.393,1.6,1.6,0,0,1-4.265-.843a1.632,1.632,0,0,1,.2-.806,1.652,1.652,0,0,1,.526-.585,2.428,2.428,0,0,1,.731-.334,7.242,7.242,0,0,1,.9-.153A9.278,9.278,0,0,0-.085-3.072c0-.139.006-.228.006-.266a1.12,1.12,0,0,0-.289-.876,1.7,1.7,0,0,0-1.159-.345,1.8,1.8,0,0,0-1.06.251,1.539,1.539,0,0,0-.507.891l-1-.136a2.464,2.464,0,0,1,.447-1.032,1.953,1.953,0,0,1,.9-.605A4,4,0,0,1-1.38-5.4a3.6,3.6,0,0,1,1.25.181,1.644,1.644,0,0,1,.707.455,1.609,1.609,0,0,1,.317.693,5.715,5.715,0,0,1,.051.939v1.358A14.213,14.213,0,0,0,1.011.02a2.256,2.256,0,0,0,.256.721H.2A2.144,2.144,0,0,1,0,0M-.085-2.274a7.474,7.474,0,0,1-1.663.385,3.846,3.846,0,0,0-.888.2.892.892,0,0,0-.4.331.873.873,0,0,0-.141.484.871.871,0,0,0,.309.679,1.324,1.324,0,0,0,.9.271A2.107,2.107,0,0,0-.922-.178a1.586,1.586,0,0,0,.673-.7A2.456,2.456,0,0,0-.085-1.9Z" transform="translate(1533.028 2430.824)" fill="#20143b"/>
    <path id="Trazado_271" data-name="Trazado 271" d="M0,0V-.758A1.869,1.869,0,0,1-1.68.136,2.354,2.354,0,0,1-3-.26a2.607,2.607,0,0,1-.934-1.106A3.833,3.833,0,0,1-4.265-3a4.266,4.266,0,0,1,.3-1.632,2.361,2.361,0,0,1,.9-1.123,2.408,2.408,0,0,1,1.341-.39,2,2,0,0,1,.967.229,2.01,2.01,0,0,1,.69.6V-8.293H.945V0ZM-3.219-3a2.605,2.605,0,0,0,.487,1.725A1.465,1.465,0,0,0-1.584-.7,1.44,1.44,0,0,0-.449-1.247,2.519,2.519,0,0,0,.017-2.913,2.827,2.827,0,0,0-.458-4.724,1.464,1.464,0,0,0-1.629-5.3a1.407,1.407,0,0,0-1.133.555A2.732,2.732,0,0,0-3.219-3" transform="translate(1539.449 2431.565)" fill="#20143b"/>
    <path id="Trazado_272" data-name="Trazado 272" d="M0,0A3.093,3.093,0,0,1,.928-2.472,2.794,2.794,0,0,1,2.817-3.14a2.7,2.7,0,0,1,2.025.812A3.09,3.09,0,0,1,5.629-.085,3.98,3.98,0,0,1,5.282,1.74,2.464,2.464,0,0,1,4.269,2.772a2.954,2.954,0,0,1-1.452.368A2.7,2.7,0,0,1,.779,2.331,3.231,3.231,0,0,1,0,0M1.047,0a2.557,2.557,0,0,0,.5,1.728A1.613,1.613,0,0,0,2.817,2.3a1.6,1.6,0,0,0,1.262-.577,2.621,2.621,0,0,0,.5-1.759,2.486,2.486,0,0,0-.5-1.689A1.615,1.615,0,0,0,2.817-2.3a1.618,1.618,0,0,0-1.267.572A2.545,2.545,0,0,0,1.047,0" transform="translate(1541.615 2428.562)" fill="#20143b"/>
    <path id="Trazado_273" data-name="Trazado 273" d="M0,0V-6.008H.916V-5.1a2.492,2.492,0,0,1,.649-.843,1.126,1.126,0,0,1,.653-.2,1.984,1.984,0,0,1,1.046.328l-.351.944a1.454,1.454,0,0,0-.746-.22.974.974,0,0,0-.6.2,1.088,1.088,0,0,0-.379.558,3.97,3.97,0,0,0-.17,1.188V0Z" transform="translate(1548.427 2431.565)" fill="#20143b"/>
    <path id="Trazado_274" data-name="Trazado 274" d="M0,0V-.758A1.869,1.869,0,0,1-1.68.136,2.354,2.354,0,0,1-3-.26a2.6,2.6,0,0,1-.933-1.106A3.818,3.818,0,0,1-4.265-3a4.285,4.285,0,0,1,.3-1.632,2.361,2.361,0,0,1,.9-1.123,2.408,2.408,0,0,1,1.341-.39,2,2,0,0,1,.967.229,2.01,2.01,0,0,1,.69.6V-8.293H.945V0ZM-3.219-3a2.605,2.605,0,0,0,.487,1.725A1.465,1.465,0,0,0-1.584-.7,1.44,1.44,0,0,0-.449-1.247,2.519,2.519,0,0,0,.017-2.913,2.827,2.827,0,0,0-.458-4.724,1.464,1.464,0,0,0-1.629-5.3a1.407,1.407,0,0,0-1.133.555A2.732,2.732,0,0,0-3.219-3" transform="translate(1559.412 2431.565)" fill="#20143b"/>
    <path id="Trazado_275" data-name="Trazado 275" d="M0,0,1.052.13A2.563,2.563,0,0,1,.13,1.561a2.769,2.769,0,0,1-1.72.509,2.747,2.747,0,0,1-2.089-.811,3.174,3.174,0,0,1-.773-2.277,3.32,3.32,0,0,1,.781-2.354,2.641,2.641,0,0,1,2.025-.837,2.574,2.574,0,0,1,1.969.82A3.262,3.262,0,0,1,1.086-1.08c0,.06,0,.15,0,.271H-3.4A2.309,2.309,0,0,0-2.84.707a1.668,1.668,0,0,0,1.256.526A1.559,1.559,0,0,0-.628.939,1.954,1.954,0,0,0,0,0M-3.343-1.646H.011A2.034,2.034,0,0,0-.373-2.783a1.563,1.563,0,0,0-1.262-.589,1.613,1.613,0,0,0-1.178.47,1.859,1.859,0,0,0-.53,1.256" transform="translate(1566.07 2429.631)" fill="#20143b"/>
    <path id="Trazado_276" data-name="Trazado 276" d="M0,0H332.624V-93.37H0Z" transform="translate(1260 2509.74)" fill="none"/>
    <path id="Trazado_277" data-name="Trazado 277" d="M243.017-72.566h1.018v8.293h-1.018Z" transform="translate(1260 2509.74)" fill="#20143b"/>
    <path id="Trazado_278" data-name="Trazado 278" d="M0,0A3.093,3.093,0,0,1,.928-2.472,2.794,2.794,0,0,1,2.817-3.14a2.7,2.7,0,0,1,2.025.813A3.087,3.087,0,0,1,5.629-.085,3.975,3.975,0,0,1,5.28,1.74,2.458,2.458,0,0,1,4.267,2.772a2.946,2.946,0,0,1-1.45.368,2.7,2.7,0,0,1-2.04-.809A3.23,3.23,0,0,1,0,0M1.047,0a2.56,2.56,0,0,0,.5,1.729A1.611,1.611,0,0,0,2.817,2.3a1.6,1.6,0,0,0,1.262-.577,2.621,2.621,0,0,0,.5-1.759,2.484,2.484,0,0,0-.507-1.688A1.612,1.612,0,0,0,2.817-2.3a1.616,1.616,0,0,0-1.267.572A2.545,2.545,0,0,0,1.047,0" transform="translate(1505.234 2442.463)" fill="#20143b"/>
    <path id="Trazado_279" data-name="Trazado 279" d="M0,0,1,.13A2.6,2.6,0,0,1,.16,1.752,2.444,2.444,0,0,1-1.5,2.336a2.583,2.583,0,0,1-1.984-.8A3.276,3.276,0,0,1-4.231-.781a4.178,4.178,0,0,1,.322-1.7,2.24,2.24,0,0,1,.981-1.094,2.917,2.917,0,0,1,1.435-.366,2.49,2.49,0,0,1,1.6.5,2.268,2.268,0,0,1,.8,1.4l-.99.153a1.642,1.642,0,0,0-.5-.911,1.3,1.3,0,0,0-.868-.306,1.579,1.579,0,0,0-1.25.553A2.611,2.611,0,0,0-3.185-.809,2.707,2.707,0,0,0-2.721.95,1.509,1.509,0,0,0-1.51,1.5a1.429,1.429,0,0,0,1-.368A1.824,1.824,0,0,0,0,0" transform="translate(1515.977 2443.267)" fill="#20143b"/>
    <path id="Trazado_280" data-name="Trazado 280" d="M0,0A3.783,3.783,0,0,1-1.09.679a3.141,3.141,0,0,1-1.122.2A2.188,2.188,0,0,1-3.734.394,1.6,1.6,0,0,1-4.265-.843a1.638,1.638,0,0,1,.2-.805,1.656,1.656,0,0,1,.526-.586,2.44,2.44,0,0,1,.733-.334,7.242,7.242,0,0,1,.9-.153A9.278,9.278,0,0,0-.085-3.072c0-.139.006-.228.006-.266a1.124,1.124,0,0,0-.289-.876A1.7,1.7,0,0,0-1.527-4.56a1.8,1.8,0,0,0-1.062.253,1.534,1.534,0,0,0-.505.89l-1-.136a2.447,2.447,0,0,1,.447-1.031,1.953,1.953,0,0,1,.9-.605A4,4,0,0,1-1.38-5.4a3.6,3.6,0,0,1,1.25.181,1.645,1.645,0,0,1,.707.456,1.6,1.6,0,0,1,.317.692,5.715,5.715,0,0,1,.051.939v1.358a14.391,14.391,0,0,0,.064,1.8,2.263,2.263,0,0,0,.258.72H.2A2.144,2.144,0,0,1,0,0M-.085-2.274a7.489,7.489,0,0,1-1.663.385,3.846,3.846,0,0,0-.888.2.889.889,0,0,0-.4.332.869.869,0,0,0-.141.483.869.869,0,0,0,.307.679,1.329,1.329,0,0,0,.9.271A2.107,2.107,0,0,0-.922-.177,1.591,1.591,0,0,0-.249-.883,2.464,2.464,0,0,0-.085-1.9Z" transform="translate(1521.769 2444.726)" fill="#20143b"/>
    <path id="Trazado_281" data-name="Trazado 281" d="M0,0H332.624V-93.37H0Z" transform="translate(1260 2509.74)" fill="none"/>
    <path id="Trazado_282" data-name="Trazado 282" d="M264.27-72.566h1.018v8.293H264.27Z" transform="translate(1260 2509.74)" fill="#20143b"/>
    <path id="Trazado_283" data-name="Trazado 283" d="M266.872-72.566h1.018v1.171h-1.018Zm0,1.171,0,1.115h1.018v6.008h-1.018Z" transform="translate(1260 2509.74)" fill="#20143b"/>
    <path id="Trazado_284" data-name="Trazado 284" d="M0,0V-.826l3.824-4.39c-.434.023-.816.034-1.148.034H.226v-.826h4.91v.674L1.884-1.522l-.628.7Q1.94-.877,2.54-.877H5.317V0Z" transform="translate(1528.903 2445.467)" fill="#20143b"/>
    <path id="Trazado_285" data-name="Trazado 285" d="M0,0A3.783,3.783,0,0,1-1.09.679a3.141,3.141,0,0,1-1.122.2A2.183,2.183,0,0,1-3.733.394,1.6,1.6,0,0,1-4.265-.843a1.638,1.638,0,0,1,.2-.805,1.665,1.665,0,0,1,.526-.586,2.44,2.44,0,0,1,.733-.334,7.242,7.242,0,0,1,.9-.153A9.278,9.278,0,0,0-.085-3.072c0-.139.006-.228.006-.266a1.12,1.12,0,0,0-.289-.876A1.7,1.7,0,0,0-1.527-4.56a1.8,1.8,0,0,0-1.062.253,1.534,1.534,0,0,0-.505.89l-1-.136a2.473,2.473,0,0,1,.447-1.031,1.953,1.953,0,0,1,.9-.605A4,4,0,0,1-1.38-5.4a3.6,3.6,0,0,1,1.25.181,1.645,1.645,0,0,1,.707.456,1.6,1.6,0,0,1,.317.692,5.715,5.715,0,0,1,.051.939v1.358a14.6,14.6,0,0,0,.064,1.8,2.263,2.263,0,0,0,.258.72H.2A2.144,2.144,0,0,1,0,0M-.085-2.274a7.474,7.474,0,0,1-1.663.385,3.846,3.846,0,0,0-.888.2.894.894,0,0,0-.4.332.869.869,0,0,0-.141.483.869.869,0,0,0,.307.679,1.329,1.329,0,0,0,.9.271A2.107,2.107,0,0,0-.922-.177,1.586,1.586,0,0,0-.249-.883,2.447,2.447,0,0,0-.085-1.9Z" transform="translate(1539.153 2444.726)" fill="#20143b"/>
    <path id="Trazado_286" data-name="Trazado 286" d="M0,0,1,.13A2.6,2.6,0,0,1,.16,1.752,2.445,2.445,0,0,1-1.5,2.336a2.583,2.583,0,0,1-1.984-.8A3.271,3.271,0,0,1-4.231-.781a4.178,4.178,0,0,1,.322-1.7,2.24,2.24,0,0,1,.981-1.094,2.917,2.917,0,0,1,1.435-.366,2.49,2.49,0,0,1,1.6.5,2.268,2.268,0,0,1,.8,1.4l-.99.153a1.642,1.642,0,0,0-.5-.911,1.3,1.3,0,0,0-.868-.306,1.579,1.579,0,0,0-1.25.553A2.611,2.611,0,0,0-3.185-.809,2.707,2.707,0,0,0-2.721.95,1.509,1.509,0,0,0-1.51,1.5a1.429,1.429,0,0,0,1-.368A1.824,1.824,0,0,0,0,0" transform="translate(1545.596 2443.267)" fill="#20143b"/>
    <path id="Trazado_287" data-name="Trazado 287" d="M0,0H332.624V-93.37H0Z" transform="translate(1260 2509.74)" fill="none"/>
    <path id="Trazado_288" data-name="Trazado 288" d="M287.474-72.566h1.018v1.171h-1.018Zm0,1.171,0,1.115h1.018v6.008h-1.018Z" transform="translate(1260 2509.74)" fill="#20143b"/>
    <path id="Trazado_289" data-name="Trazado 289" d="M0,0A3.093,3.093,0,0,1,.928-2.472,2.8,2.8,0,0,1,2.817-3.14a2.7,2.7,0,0,1,2.025.813A3.083,3.083,0,0,1,5.629-.085,3.975,3.975,0,0,1,5.28,1.74,2.458,2.458,0,0,1,4.267,2.772a2.946,2.946,0,0,1-1.45.368,2.7,2.7,0,0,1-2.04-.809A3.23,3.23,0,0,1,0,0M1.047,0a2.56,2.56,0,0,0,.5,1.729A1.612,1.612,0,0,0,2.817,2.3a1.6,1.6,0,0,0,1.262-.577,2.621,2.621,0,0,0,.5-1.759,2.484,2.484,0,0,0-.507-1.688A1.612,1.612,0,0,0,2.817-2.3a1.618,1.618,0,0,0-1.267.572A2.545,2.545,0,0,0,1.047,0m1.2-3.75L3-5.334H4.339L3.094-3.75Z" transform="translate(1549.663 2442.463)" fill="#20143b"/>
    <path id="Trazado_290" data-name="Trazado 290" d="M0,0V-6.008H.917v.855a2.158,2.158,0,0,1,1.911-.99,2.51,2.51,0,0,1,1,.2,1.573,1.573,0,0,1,.683.511,1.972,1.972,0,0,1,.316.752,5.794,5.794,0,0,1,.057.99V0H3.864V-3.654a2.745,2.745,0,0,0-.119-.93.986.986,0,0,0-.422-.492,1.336,1.336,0,0,0-.709-.185,1.654,1.654,0,0,0-1.124.413,2.037,2.037,0,0,0-.472,1.567V0Z" transform="translate(1556.486 2445.467)" fill="#20143b"/>
    <path id="Trazado_291" data-name="Trazado 291" d="M0,0A10.2,10.2,0,0,1-1.426-2.489a7.741,7.741,0,0,1-.582-2.953,7.7,7.7,0,0,1,.435-2.579A10.859,10.859,0,0,1,0-10.873H.73Q.044-9.7-.175-9.193a9.2,9.2,0,0,0-.544,1.63A9.469,9.469,0,0,0-.962-5.436,10.2,10.2,0,0,0,.73,0Z" transform="translate(1525.601 2461.808)" fill="#20143b"/>
    <path id="Trazado_292" data-name="Trazado 292" d="M0,0,1.1.277A3.69,3.69,0,0,1-.143,2.34a3.427,3.427,0,0,1-2.193.709A3.935,3.935,0,0,1-4.516,2.5,3.41,3.41,0,0,1-5.794.922,5.628,5.628,0,0,1-6.234-1.3a4.882,4.882,0,0,1,.5-2.259A3.394,3.394,0,0,1-4.329-5.025a4.109,4.109,0,0,1,2.01-.5,3.4,3.4,0,0,1,2.093.634A3.288,3.288,0,0,1,.956-3.111l-1.081.254A2.564,2.564,0,0,0-.962-4.175a2.231,2.231,0,0,0-1.38-.413,2.682,2.682,0,0,0-1.6.458,2.424,2.424,0,0,0-.9,1.232A4.932,4.932,0,0,0-5.1-1.307,5.052,5.052,0,0,0-4.793.541,2.294,2.294,0,0,0-3.835,1.72a2.688,2.688,0,0,0,1.408.39A2.361,2.361,0,0,0-.865,1.578,2.719,2.719,0,0,0,0,0" transform="translate(1533.56 2456.462)" fill="#20143b"/>
    <path id="Trazado_293" data-name="Trazado 293" d="M0,0H332.624V-93.37H0Z" transform="translate(1260 2509.74)" fill="none"/>
    <path id="Trazado_294" data-name="Trazado 294" d="M275.857-58.663h1.018v8.293h-1.018Z" transform="translate(1260 2509.74)" fill="#20143b"/>
    <path id="Trazado_295" data-name="Trazado 295" d="M0,0H-.73A10.2,10.2,0,0,0,.962-5.436a9.3,9.3,0,0,0-.243-2.11,8.947,8.947,0,0,0-.538-1.63,19.2,19.2,0,0,0-.911-1.7H0A10.859,10.859,0,0,1,1.573-8.021a7.7,7.7,0,0,1,.435,2.579,7.706,7.706,0,0,1-.584,2.953A10.4,10.4,0,0,1,0,0" transform="translate(1539.121 2461.808)" fill="#20143b"/>
    <path id="Trazado_296" data-name="Trazado 296" d="M0,0H-327.633" transform="translate(1589.63 2509.097)" fill="none" stroke="#20143b" stroke-width="1" stroke-dasharray="0.994 1.994"/>
    <path id="Trazado_297" data-name="Trazado 297" d="M0,0V-88.246" transform="translate(1260.5 2506.61)" fill="none" stroke="#20143b" stroke-width="1" stroke-dasharray="0.987 1.987"/>
    <path id="Trazado_298" data-name="Trazado 298" d="M0,0H327.633" transform="translate(1262.994 2416.87)" fill="none" stroke="#20143b" stroke-width="1" stroke-dasharray="0.994 1.994"/>
    <path id="Trazado_299" data-name="Trazado 299" d="M0,0V88.246" transform="translate(1592.124 2419.357)" fill="none" stroke="#20143b" stroke-width="1" stroke-dasharray="0.987 1.987"/>
    <path id="Trazado_300" data-name="Trazado 300" d="M0,0H-.5V-.5m0-91.227v-.5H0m330.624,0h.5v.5m0,91.227V0h-.5" transform="translate(1261 2509.097)" fill="none" stroke="#20143b" stroke-width="1"/>
    <path id="Trazado_301" data-name="Trazado 301" d="M0,0H331.624" transform="translate(1260.5 2470.811)" fill="none" stroke="#20143b" stroke-width="1" stroke-dasharray="1.003 2.003"/>
    <path id="Trazado_302" data-name="Trazado 302" d="M0,0V92.87" transform="translate(1360.63 2416.87)" fill="none" stroke="#20143b" stroke-width="1" stroke-dasharray="0.982 1.982"/>
    <path id="Trazado_303" data-name="Trazado 303" d="M0,0V38.929" transform="translate(1308.965 2470.811)" fill="none" stroke="#20143b" stroke-width="1" stroke-dasharray="0.96 1.96"/>
    <path id="Trazado_304" data-name="Trazado 304" d="M0,0V38.929" transform="translate(1417.727 2470.811)" fill="none" stroke="#20143b" stroke-width="1" stroke-dasharray="0.96 1.96"/>
    <path id="Trazado_305" data-name="Trazado 305" d="M0,0V38.929" transform="translate(1532.208 2470.811)" fill="none" stroke="#20143b" stroke-width="1" stroke-dasharray="0.96 1.96"/>
    <path id="Trazado_306" data-name="Trazado 306" d="M0,0V92.87" transform="translate(1473.053 2416.87)" fill="none" stroke="#20143b" stroke-width="1" stroke-dasharray="0.982 1.982"/>
    <path id="Trazado_307" data-name="Trazado 307" d="M0,0H332.624V-93.37H0Z" transform="translate(1260 2509.74)" fill="none"/>
    <path id="Trazado_308" data-name="Trazado 308" d="M0,0V-2.317H-4.2V-3.406L.218-9.675h.97v6.269H2.495v1.089H1.188V0ZM0-3.406V-7.768L-3.029-3.406Z" transform="translate(1286.372 2493.331)" fill="#20143b"/>
    <path id="Trazado_309" data-name="Trazado 309" d="M0,0H-1.188V-7.57a6.144,6.144,0,0,1-1.125.819,8.02,8.02,0,0,1-1.251.613V-7.286A7.137,7.137,0,0,0-1.822-8.421,4.473,4.473,0,0,0-.765-9.715H0Z" transform="translate(1390.019 2493.331)" fill="#20143b"/>
    <path id="Trazado_310" data-name="Trazado 310" d="M0,0H-1.188V-7.57a6.144,6.144,0,0,1-1.125.819,8.02,8.02,0,0,1-1.251.613V-7.286A7.137,7.137,0,0,0-1.822-8.421,4.451,4.451,0,0,0-.766-9.715H0Z" transform="translate(1506.046 2493.331)" fill="#20143b"/>
    <path id="Trazado_311" data-name="Trazado 311" d="M0,0H332.624V-93.37H0Z" transform="translate(1260 2509.74)" fill="none"/>
  </g>
</svg>
