<svg xmlns="http://www.w3.org/2000/svg" width="332.221" height="116.449" viewBox="0 0 332.221 116.449">
  <g id="Grupo_20" data-name="Grupo 20" transform="translate(-1114 -1757.448)">
    <path id="Trazado_83" data-name="Trazado 83" d="M0,0V15.948H5.655V0" transform="translate(1341.542 1817.423)" fill="#161f60"/>
    <path id="Trazado_84" data-name="Trazado 84" d="M0,0H-20.611l10.3,10.3Z" transform="translate(1354.675 1831.989)" fill="#161f60"/>
    <path id="Trazado_85" data-name="Trazado 85" d="M0,0V15.948H5.655V0" transform="translate(1433.087 1817.423)" fill="#161f60"/>
    <path id="Trazado_86" data-name="Trazado 86" d="M0,0,10.3,10.3,20.611,0Z" transform="translate(1425.61 1831.989)" fill="#161f60"/>
    <path id="Trazado_87" data-name="Trazado 87" d="M0,0-1.172.211a.866.866,0,0,0-.269-.529A.816.816,0,0,0-1.986-.5a.888.888,0,0,0-.708.306A1.571,1.571,0,0,0-2.958.838a1.821,1.821,0,0,0,.268,1.13.881.881,0,0,0,.721.33.8.8,0,0,0,.555-.192,1.158,1.158,0,0,0,.305-.663l1.168.2a2.074,2.074,0,0,1-.7,1.215,2.163,2.163,0,0,1-1.385.411A2.056,2.056,0,0,1-3.6,2.645,2.409,2.409,0,0,1-4.182.923,2.422,2.422,0,0,1-3.594-.811,2.093,2.093,0,0,1-2-1.431,2.165,2.165,0,0,1-.7-1.077,1.956,1.956,0,0,1,0,0" transform="translate(1311.349 1870.629)" fill="#161f60"/>
    <path id="Trazado_88" data-name="Trazado 88" d="M0,0-1.079-.194A1.682,1.682,0,0,1-.453-1.16,2.3,2.3,0,0,1,.868-1.473a2.836,2.836,0,0,1,1.185.189A1.178,1.178,0,0,1,2.6-.806,2.446,2.446,0,0,1,2.76.258L2.747,1.647a4.722,4.722,0,0,0,.058.874,2.54,2.54,0,0,0,.214.6H1.841c-.03-.079-.069-.2-.114-.352l-.042-.139a2.13,2.13,0,0,1-.652.444,1.861,1.861,0,0,1-.741.149A1.534,1.534,0,0,1-.8,2.849,1.255,1.255,0,0,1-1.2,1.9a1.28,1.28,0,0,1,.182-.679A1.192,1.192,0,0,1-.51.76,4.024,4.024,0,0,1,.436.482,6.513,6.513,0,0,0,1.592.191V.072a.615.615,0,0,0-.17-.489A1.013,1.013,0,0,0,.783-.563a.852.852,0,0,0-.5.125A.867.867,0,0,0,0,0M1.592.965a7.282,7.282,0,0,1-.724.182,2.191,2.191,0,0,0-.648.208.5.5,0,0,0-.233.419.587.587,0,0,0,.187.432.65.65,0,0,0,.474.181,1.027,1.027,0,0,0,.613-.211.745.745,0,0,0,.284-.394,2.348,2.348,0,0,0,.047-.58Z" transform="translate(1313.139 1870.671)" fill="#161f60"/>
    <path id="Trazado_89" data-name="Trazado 89" d="M0,0H332.22V-116.448H0Z" transform="translate(1114 1873.897)" fill="none"/>
    <path id="Trazado_90" data-name="Trazado 90" d="M203.072-.1h1.189V-6.307h-1.189Z" transform="translate(1114 1873.897)" fill="#161f60"/>
    <path id="Trazado_91" data-name="Trazado 91" d="M205.481-5.206h1.189v-1.1h-1.189Zm0-1.1,0,6.2h1.189V-4.6h-1.189Z" transform="translate(1114 1873.897)" fill="#161f60"/>
    <path id="Trazado_92" data-name="Trazado 92" d="M0,0H.66V-.339a2.253,2.253,0,0,1,.121-.846.951.951,0,0,1,.444-.455,1.707,1.707,0,0,1,.819-.176,3.3,3.3,0,0,1,1,.153l-.161.829A2.357,2.357,0,0,0,2.332-.9a.487.487,0,0,0-.371.121.7.7,0,0,0-.112.463V0h.89V.935h-.89v3.56H.66V.935H0Z" transform="translate(1321.368 1869.3)" fill="#161f60"/>
    <path id="Trazado_93" data-name="Trazado 93" d="M0,0H332.22V-116.448H0Z" transform="translate(1114 1873.897)" fill="none"/>
    <path id="Trazado_94" data-name="Trazado 94" d="M210.775-5.206h1.189v-1.1h-1.189Zm0-1.1,0,6.2h1.189V-4.6h-1.189Z" transform="translate(1114 1873.897)" fill="#161f60"/>
    <path id="Trazado_95" data-name="Trazado 95" d="M0,0-1.172.211a.861.861,0,0,0-.269-.529A.816.816,0,0,0-1.986-.5a.889.889,0,0,0-.708.306A1.571,1.571,0,0,0-2.958.838a1.821,1.821,0,0,0,.268,1.13.882.882,0,0,0,.722.33.8.8,0,0,0,.554-.192,1.158,1.158,0,0,0,.305-.663l1.168.2a2.074,2.074,0,0,1-.7,1.215,2.162,2.162,0,0,1-1.384.411A2.058,2.058,0,0,1-3.6,2.645,2.414,2.414,0,0,1-4.182.923,2.422,2.422,0,0,1-3.594-.811,2.093,2.093,0,0,1-2-1.431,2.165,2.165,0,0,1-.7-1.077,1.956,1.956,0,0,1,0,0" transform="translate(1331.104 1870.629)" fill="#161f60"/>
    <path id="Trazado_96" data-name="Trazado 96" d="M0,0-1.079-.194A1.682,1.682,0,0,1-.453-1.16,2.3,2.3,0,0,1,.868-1.473a2.836,2.836,0,0,1,1.185.189A1.178,1.178,0,0,1,2.6-.806,2.446,2.446,0,0,1,2.76.258L2.747,1.647a4.834,4.834,0,0,0,.057.874,2.585,2.585,0,0,0,.214.6H1.841c-.03-.079-.069-.2-.114-.352l-.042-.139a2.142,2.142,0,0,1-.652.444,1.865,1.865,0,0,1-.741.149A1.534,1.534,0,0,1-.8,2.849,1.255,1.255,0,0,1-1.2,1.9a1.28,1.28,0,0,1,.182-.679A1.192,1.192,0,0,1-.51.76,4.024,4.024,0,0,1,.436.482,6.513,6.513,0,0,0,1.592.191V.072a.615.615,0,0,0-.17-.489A1.015,1.015,0,0,0,.783-.563a.852.852,0,0,0-.5.125A.86.86,0,0,0,0,0M1.592.965a7.282,7.282,0,0,1-.724.182,2.191,2.191,0,0,0-.648.208.5.5,0,0,0-.233.419.587.587,0,0,0,.187.432.65.65,0,0,0,.474.181,1.027,1.027,0,0,0,.613-.211.745.745,0,0,0,.284-.394,2.348,2.348,0,0,0,.047-.58Z" transform="translate(1332.894 1870.671)" fill="#161f60"/>
    <path id="Trazado_97" data-name="Trazado 97" d="M0,0H-1.1V-.66a1.791,1.791,0,0,1-.651.573A1.658,1.658,0,0,1-2.51.1,1.712,1.712,0,0,1-3.837-.523a2.539,2.539,0,0,1-.552-1.742A2.513,2.513,0,0,1-3.852-4a1.755,1.755,0,0,1,1.359-.6,1.682,1.682,0,0,1,1.3.627V-6.2H0ZM-3.175-2.345a2.05,2.05,0,0,0,.2,1.041.9.9,0,0,0,.8.466.877.877,0,0,0,.7-.349,1.613,1.613,0,0,0,.288-1.044,1.765,1.765,0,0,0-.279-1.115.885.885,0,0,0-.716-.341.891.891,0,0,0-.708.337,1.516,1.516,0,0,0-.287,1" transform="translate(1340.949 1873.795)" fill="#161f60"/>
    <path id="Trazado_98" data-name="Trazado 98" d="M0,0A2.429,2.429,0,0,1,.292-1.147a2,2,0,0,1,.828-.846,2.448,2.448,0,0,1,1.2-.293,2.243,2.243,0,0,1,1.672.663A2.288,2.288,0,0,1,4.639.051a2.315,2.315,0,0,1-.658,1.691,2.228,2.228,0,0,1-1.658.671,2.614,2.614,0,0,1-1.178-.28,1.915,1.915,0,0,1-.853-.819A2.723,2.723,0,0,1,0,0M1.219.064a1.491,1.491,0,0,0,.317,1.024,1.01,1.01,0,0,0,.784.355A1,1,0,0,0,3.1,1.088,1.515,1.515,0,0,0,3.415.055,1.491,1.491,0,0,0,3.1-.961a1,1,0,0,0-.781-.355,1.01,1.01,0,0,0-.784.355A1.5,1.5,0,0,0,1.219.064" transform="translate(1341.847 1871.484)" fill="#161f60"/>
    <path id="Trazado_99" data-name="Trazado 99" d="M0,0H-1.19V-4.495H-.084v.639a1.921,1.921,0,0,1,.509-.6A.94.94,0,0,1,.94-4.6a1.5,1.5,0,0,1,.782.225L1.355-3.335A1.046,1.046,0,0,0,.8-3.53a.657.657,0,0,0-.422.138.932.932,0,0,0-.273.5A7.007,7.007,0,0,0,0-1.388Z" transform="translate(1348.556 1873.795)" fill="#161f60"/>
    <path id="Trazado_100" data-name="Trazado 100" d="M0,0-1.172.211a.861.861,0,0,0-.269-.529A.816.816,0,0,0-1.986-.5a.889.889,0,0,0-.708.306A1.571,1.571,0,0,0-2.958.838a1.821,1.821,0,0,0,.268,1.13.882.882,0,0,0,.722.33.8.8,0,0,0,.554-.192,1.158,1.158,0,0,0,.305-.663l1.168.2a2.074,2.074,0,0,1-.7,1.215,2.162,2.162,0,0,1-1.384.411A2.058,2.058,0,0,1-3.6,2.645,2.414,2.414,0,0,1-4.182.923,2.422,2.422,0,0,1-3.594-.811,2.093,2.093,0,0,1-2-1.431,2.165,2.165,0,0,1-.7-1.077,1.956,1.956,0,0,1,0,0" transform="translate(1403.4 1870.629)" fill="#161f60"/>
    <path id="Trazado_101" data-name="Trazado 101" d="M0,0-1.079-.194A1.682,1.682,0,0,1-.453-1.16,2.3,2.3,0,0,1,.868-1.473a2.836,2.836,0,0,1,1.185.189A1.178,1.178,0,0,1,2.6-.806,2.446,2.446,0,0,1,2.76.258L2.747,1.647a4.834,4.834,0,0,0,.057.874,2.585,2.585,0,0,0,.214.6H1.841c-.03-.079-.069-.2-.114-.352l-.042-.139a2.142,2.142,0,0,1-.652.444,1.865,1.865,0,0,1-.741.149A1.534,1.534,0,0,1-.8,2.849,1.255,1.255,0,0,1-1.2,1.9a1.28,1.28,0,0,1,.182-.679A1.192,1.192,0,0,1-.51.76,4.024,4.024,0,0,1,.436.482,6.513,6.513,0,0,0,1.592.191V.072a.615.615,0,0,0-.17-.489A1.015,1.015,0,0,0,.783-.563a.852.852,0,0,0-.5.125A.86.86,0,0,0,0,0M1.592.965a7.282,7.282,0,0,1-.724.182,2.191,2.191,0,0,0-.648.208.5.5,0,0,0-.233.419.587.587,0,0,0,.187.432.65.65,0,0,0,.474.181,1.027,1.027,0,0,0,.613-.211.745.745,0,0,0,.284-.394,2.348,2.348,0,0,0,.047-.58Z" transform="translate(1405.19 1870.671)" fill="#161f60"/>
    <path id="Trazado_102" data-name="Trazado 102" d="M0,0H332.22V-116.448H0Z" transform="translate(1114 1873.897)" fill="none"/>
    <path id="Trazado_103" data-name="Trazado 103" d="M295.123-.1h1.189V-6.307h-1.189Z" transform="translate(1114 1873.897)" fill="#161f60"/>
    <path id="Trazado_104" data-name="Trazado 104" d="M297.531-5.206h1.189v-1.1h-1.189Zm0-1.1,0,6.2h1.189V-4.6h-1.189Z" transform="translate(1114 1873.897)" fill="#161f60"/>
    <path id="Trazado_105" data-name="Trazado 105" d="M0,0H.66V-.339a2.233,2.233,0,0,1,.121-.846.951.951,0,0,1,.444-.455,1.707,1.707,0,0,1,.819-.176,3.3,3.3,0,0,1,1,.153l-.161.829A2.357,2.357,0,0,0,2.332-.9a.487.487,0,0,0-.371.121.7.7,0,0,0-.112.463V0h.889V.935H1.849v3.56H.66V.935H0Z" transform="translate(1413.419 1869.3)" fill="#161f60"/>
    <path id="Trazado_106" data-name="Trazado 106" d="M0,0H332.22V-116.448H0Z" transform="translate(1114 1873.897)" fill="none"/>
    <path id="Trazado_107" data-name="Trazado 107" d="M302.827-5.206h1.189v-1.1h-1.189Zm0-1.1,0,6.2h1.189V-4.6h-1.189Z" transform="translate(1114 1873.897)" fill="#161f60"/>
    <path id="Trazado_108" data-name="Trazado 108" d="M0,0-1.172.211a.866.866,0,0,0-.269-.529A.816.816,0,0,0-1.986-.5a.889.889,0,0,0-.708.306A1.571,1.571,0,0,0-2.958.838a1.821,1.821,0,0,0,.268,1.13.882.882,0,0,0,.722.33.8.8,0,0,0,.554-.192,1.158,1.158,0,0,0,.305-.663l1.168.2a2.074,2.074,0,0,1-.7,1.215,2.163,2.163,0,0,1-1.385.411A2.058,2.058,0,0,1-3.6,2.645,2.409,2.409,0,0,1-4.182.923,2.422,2.422,0,0,1-3.594-.811,2.093,2.093,0,0,1-2-1.431,2.165,2.165,0,0,1-.7-1.077,1.956,1.956,0,0,1,0,0" transform="translate(1423.155 1870.629)" fill="#161f60"/>
    <path id="Trazado_109" data-name="Trazado 109" d="M0,0-1.079-.194A1.682,1.682,0,0,1-.453-1.16,2.3,2.3,0,0,1,.868-1.473a2.836,2.836,0,0,1,1.185.189A1.173,1.173,0,0,1,2.6-.806,2.446,2.446,0,0,1,2.76.258L2.747,1.647a4.722,4.722,0,0,0,.058.874,2.54,2.54,0,0,0,.214.6H1.841c-.03-.079-.069-.2-.114-.352l-.042-.139a2.13,2.13,0,0,1-.652.444,1.861,1.861,0,0,1-.741.149A1.534,1.534,0,0,1-.8,2.849,1.255,1.255,0,0,1-1.2,1.9a1.28,1.28,0,0,1,.181-.679A1.2,1.2,0,0,1-.51.76,4.024,4.024,0,0,1,.436.482,6.513,6.513,0,0,0,1.592.191V.072a.618.618,0,0,0-.169-.489,1.019,1.019,0,0,0-.64-.146.852.852,0,0,0-.5.125A.867.867,0,0,0,0,0M1.592.965a7.282,7.282,0,0,1-.724.182,2.191,2.191,0,0,0-.648.208.5.5,0,0,0-.233.419.587.587,0,0,0,.187.432.65.65,0,0,0,.474.181,1.027,1.027,0,0,0,.613-.211.753.753,0,0,0,.285-.394,2.415,2.415,0,0,0,.046-.58Z" transform="translate(1424.945 1870.671)" fill="#161f60"/>
    <path id="Trazado_110" data-name="Trazado 110" d="M0,0H-1.1V-.66a1.788,1.788,0,0,1-.65.573A1.662,1.662,0,0,1-2.51.1,1.709,1.709,0,0,1-3.836-.523a2.535,2.535,0,0,1-.553-1.742A2.513,2.513,0,0,1-3.852-4a1.755,1.755,0,0,1,1.359-.6,1.682,1.682,0,0,1,1.3.627V-6.2H0ZM-3.175-2.345a2.05,2.05,0,0,0,.2,1.041.9.9,0,0,0,.8.466.877.877,0,0,0,.7-.349,1.613,1.613,0,0,0,.288-1.044,1.765,1.765,0,0,0-.279-1.115.885.885,0,0,0-.716-.341.891.891,0,0,0-.708.337,1.516,1.516,0,0,0-.287,1" transform="translate(1433 1873.795)" fill="#161f60"/>
    <path id="Trazado_111" data-name="Trazado 111" d="M0,0A2.429,2.429,0,0,1,.292-1.147a2,2,0,0,1,.827-.846,2.455,2.455,0,0,1,1.2-.293,2.243,2.243,0,0,1,1.672.663A2.288,2.288,0,0,1,4.639.051a2.319,2.319,0,0,1-.658,1.691,2.228,2.228,0,0,1-1.658.671,2.614,2.614,0,0,1-1.178-.28,1.915,1.915,0,0,1-.853-.819A2.723,2.723,0,0,1,0,0M1.219.064a1.486,1.486,0,0,0,.317,1.024,1.009,1.009,0,0,0,.783.355A1,1,0,0,0,3.1,1.088,1.511,1.511,0,0,0,3.415.055,1.486,1.486,0,0,0,3.1-.961a1,1,0,0,0-.781-.355,1.009,1.009,0,0,0-.783.355A1.491,1.491,0,0,0,1.219.064" transform="translate(1433.897 1871.484)" fill="#161f60"/>
    <path id="Trazado_112" data-name="Trazado 112" d="M0,0H-1.19V-4.495H-.084v.639a1.921,1.921,0,0,1,.509-.6A.94.94,0,0,1,.94-4.6a1.5,1.5,0,0,1,.782.225L1.354-3.335A1.04,1.04,0,0,0,.8-3.53a.66.66,0,0,0-.423.138.938.938,0,0,0-.273.5A7.1,7.1,0,0,0,0-1.388Z" transform="translate(1440.606 1873.795)" fill="#161f60"/>
    <path id="Trazado_113" data-name="Trazado 113" d="M0,0H332.22V-116.448H0Z" transform="translate(1114 1873.897)" fill="none"/>
    <path id="Trazado_114" data-name="Trazado 114" d="M0-11.822H154.713V-116.449H0Z" transform="translate(1114 1873.897)" fill="#a3a6c0"/>
    <path id="Trazado_115" data-name="Trazado 115" d="M0,0H2.29A4.466,4.466,0,0,1,3.47.118,2.074,2.074,0,0,1,4.406.69,2.719,2.719,0,0,1,5,1.7a4.564,4.564,0,0,1,.2,1.466,4.075,4.075,0,0,1-.191,1.321,2.731,2.731,0,0,1-.664,1.1,2.2,2.2,0,0,1-.88.495,3.773,3.773,0,0,1-1.11.132H0ZM1.253,1.05V5.16h.935a3.374,3.374,0,0,0,.758-.06,1.158,1.158,0,0,0,.506-.258,1.321,1.321,0,0,0,.328-.6,4.072,4.072,0,0,0,.127-1.136A3.73,3.73,0,0,0,3.78,2a1.427,1.427,0,0,0-.356-.6,1.193,1.193,0,0,0-.58-.292A5.625,5.625,0,0,0,1.816,1.05Z" transform="translate(1161.295 1777.511)" fill="#20143b"/>
    <path id="Trazado_116" data-name="Trazado 116" d="M0,0A3.942,3.942,0,0,1,.284-1.591a2.921,2.921,0,0,1,.578-.851A2.434,2.434,0,0,1,1.664-3,3.418,3.418,0,0,1,3-3.246a2.913,2.913,0,0,1,2.2.85A3.262,3.262,0,0,1,6.02-.03,3.251,3.251,0,0,1,5.2,2.322a2.891,2.891,0,0,1-2.183.848,2.921,2.921,0,0,1-2.2-.844A3.207,3.207,0,0,1,0,0M1.292-.042a2.325,2.325,0,0,0,.486,1.6A1.588,1.588,0,0,0,3.014,2.1a1.574,1.574,0,0,0,1.23-.54,2.374,2.374,0,0,0,.48-1.619,2.334,2.334,0,0,0-.468-1.592,1.583,1.583,0,0,0-1.242-.525,1.592,1.592,0,0,0-1.248.532,2.339,2.339,0,0,0-.474,1.6" transform="translate(1167.305 1780.651)" fill="#20143b"/>
    <path id="Trazado_117" data-name="Trazado 117" d="M0,0H332.22V-116.448H0Z" transform="translate(1114 1873.897)" fill="none"/>
    <path id="Trazado_118" data-name="Trazado 118" d="M0,0V-6.2H1.875L3-1.972,4.114-6.2H5.993V0H4.829V-4.884L3.6,0H2.391L1.164-4.884V0Z" transform="translate(1174.284 1783.716)" fill="#20143b"/>
    <path id="Trazado_119" data-name="Trazado 119" d="M67.484-96.386h1.253v6.205H67.484Z" transform="translate(1114 1873.897)" fill="#20143b"/>
    <path id="Trazado_120" data-name="Trazado 120" d="M0,0V-6.2H1.22L3.759-2.061V-6.2H4.923V0H3.666l-2.5-4.046V0Z" transform="translate(1183.943 1783.716)" fill="#20143b"/>
    <path id="Trazado_121" data-name="Trazado 121" d="M76.153-96.386h1.253v6.205H76.153Z" transform="translate(1114 1873.897)" fill="#20143b"/>
    <path id="Trazado_122" data-name="Trazado 122" d="M0,0A3.942,3.942,0,0,1,.284-1.591a2.921,2.921,0,0,1,.578-.851A2.434,2.434,0,0,1,1.664-3,3.414,3.414,0,0,1,3-3.246a2.915,2.915,0,0,1,2.2.85A3.262,3.262,0,0,1,6.02-.03,3.251,3.251,0,0,1,5.2,2.322a2.891,2.891,0,0,1-2.184.848,2.92,2.92,0,0,1-2.2-.844A3.207,3.207,0,0,1,0,0M1.292-.042a2.325,2.325,0,0,0,.486,1.6A1.588,1.588,0,0,0,3.014,2.1a1.574,1.574,0,0,0,1.23-.54,2.374,2.374,0,0,0,.48-1.619,2.334,2.334,0,0,0-.468-1.592,1.583,1.583,0,0,0-1.242-.525,1.592,1.592,0,0,0-1.248.532,2.339,2.339,0,0,0-.474,1.6" transform="translate(1192.345 1780.651)" fill="#20143b"/>
    <path id="Trazado_123" data-name="Trazado 123" d="M0,0,1.219-.119a1.481,1.481,0,0,0,.447.9,1.346,1.346,0,0,0,.907.288A1.4,1.4,0,0,0,3.486.815a.764.764,0,0,0,.306-.6.566.566,0,0,0-.129-.375,1.029,1.029,0,0,0-.45-.269Q2.992-.5,2.21-.7A3.393,3.393,0,0,1,.8-1.312,1.617,1.617,0,0,1,.224-2.561a1.6,1.6,0,0,1,.269-.887,1.679,1.679,0,0,1,.775-.628,3.1,3.1,0,0,1,1.221-.216,2.623,2.623,0,0,1,1.759.512,1.811,1.811,0,0,1,.62,1.367l-1.253.055a1.062,1.062,0,0,0-.346-.687,1.254,1.254,0,0,0-.792-.21,1.437,1.437,0,0,0-.856.224.454.454,0,0,0-.2.386.473.473,0,0,0,.186.376,3.28,3.28,0,0,0,1.151.415,6.051,6.051,0,0,1,1.352.447,1.741,1.741,0,0,1,.686.63,1.854,1.854,0,0,1,.247.988,1.834,1.834,0,0,1-.3,1,1.789,1.789,0,0,1-.839.692,3.512,3.512,0,0,1-1.35.226A2.693,2.693,0,0,1,.753,1.585,2.369,2.369,0,0,1,0,0" transform="translate(1199.024 1781.697)" fill="#20143b"/>
    <path id="Trazado_124" data-name="Trazado 124" d="M0,0,1.215.385A2.731,2.731,0,0,1,.286,1.894a2.651,2.651,0,0,1-1.649.493,2.668,2.668,0,0,1-2.032-.844,3.234,3.234,0,0,1-.8-2.309,3.4,3.4,0,0,1,.8-2.407,2.746,2.746,0,0,1,2.1-.856,2.581,2.581,0,0,1,1.849.672A2.457,2.457,0,0,1,1.2-2.214l-1.241.3A1.317,1.317,0,0,0-.5-2.68a1.318,1.318,0,0,0-.849-.279,1.41,1.41,0,0,0-1.119.5A2.426,2.426,0,0,0-2.9-.86,2.612,2.612,0,0,0-2.477.817a1.377,1.377,0,0,0,1.1.5A1.257,1.257,0,0,0-.517,1,1.85,1.85,0,0,0,0,0" transform="translate(1329.763 1771.115)" fill="#20143b"/>
    <path id="Trazado_125" data-name="Trazado 125" d="M0,0A3.945,3.945,0,0,1,.284-1.591a2.921,2.921,0,0,1,.578-.851A2.434,2.434,0,0,1,1.664-3,3.418,3.418,0,0,1,3-3.246a2.913,2.913,0,0,1,2.2.85A3.263,3.263,0,0,1,6.02-.03,3.251,3.251,0,0,1,5.2,2.322a2.891,2.891,0,0,1-2.183.848,2.921,2.921,0,0,1-2.2-.844A3.207,3.207,0,0,1,0,0M1.292-.042a2.325,2.325,0,0,0,.486,1.6A1.588,1.588,0,0,0,3.014,2.1a1.574,1.574,0,0,0,1.23-.54,2.374,2.374,0,0,0,.48-1.619A2.331,2.331,0,0,0,4.256-1.65a1.58,1.58,0,0,0-1.242-.525,1.591,1.591,0,0,0-1.248.531,2.339,2.339,0,0,0-.474,1.6" transform="translate(1331.798 1770.332)" fill="#20143b"/>
    <path id="Trazado_126" data-name="Trazado 126" d="M0,0H2.29A4.479,4.479,0,0,1,3.471.118,2.076,2.076,0,0,1,4.406.69,2.719,2.719,0,0,1,5,1.7a4.566,4.566,0,0,1,.2,1.467,4.073,4.073,0,0,1-.191,1.32,2.735,2.735,0,0,1-.664,1.1,2.224,2.224,0,0,1-.88.495,3.812,3.812,0,0,1-1.11.131H0ZM1.253,1.05V5.16h.936a3.37,3.37,0,0,0,.757-.06,1.142,1.142,0,0,0,.506-.258,1.306,1.306,0,0,0,.328-.6,4.072,4.072,0,0,0,.127-1.136A3.73,3.73,0,0,0,3.78,2a1.417,1.417,0,0,0-.356-.6,1.189,1.189,0,0,0-.58-.292A5.625,5.625,0,0,0,1.816,1.05Z" transform="translate(1338.79 1767.192)" fill="#20143b"/>
    <path id="Trazado_127" data-name="Trazado 127" d="M0,0H332.22V-116.448H0Z" transform="translate(1114 1873.897)" fill="none"/>
    <path id="Trazado_128" data-name="Trazado 128" d="M231.017-106.705h1.253v6.205h-1.253Z" transform="translate(1114 1873.897)" fill="#20143b"/>
    <path id="Trazado_129" data-name="Trazado 129" d="M0,0V-6.2H4.254v1.05h-3v1.468H3.844v1.05H1.253V0Z" transform="translate(1347.472 1773.396)" fill="#20143b"/>
    <path id="Trazado_130" data-name="Trazado 130" d="M238.72-106.705h1.253v6.205H238.72Z" transform="translate(1114 1873.897)" fill="#20143b"/>
    <path id="Trazado_131" data-name="Trazado 131" d="M0,0,1.215.385A2.731,2.731,0,0,1,.286,1.894a2.651,2.651,0,0,1-1.649.493,2.668,2.668,0,0,1-2.032-.844,3.234,3.234,0,0,1-.8-2.309,3.4,3.4,0,0,1,.8-2.407,2.746,2.746,0,0,1,2.1-.856,2.581,2.581,0,0,1,1.849.672A2.457,2.457,0,0,1,1.2-2.214l-1.241.3A1.317,1.317,0,0,0-.5-2.68a1.318,1.318,0,0,0-.849-.279,1.41,1.41,0,0,0-1.119.5A2.426,2.426,0,0,0-2.9-.86,2.612,2.612,0,0,0-2.477.817a1.377,1.377,0,0,0,1.1.5A1.257,1.257,0,0,0-.517,1,1.85,1.85,0,0,0,0,0" transform="translate(1359.138 1771.115)" fill="#20143b"/>
    <path id="Trazado_132" data-name="Trazado 132" d="M0,0H332.22V-116.448H0Z" transform="translate(1114 1873.897)" fill="none"/>
    <path id="Trazado_133" data-name="Trazado 133" d="M0,0H-1.363L-1.9-1.409H-4.385L-4.9,0H-6.226L-3.81-6.2h1.326ZM-2.307-2.455l-.855-2.3L-4-2.455Z" transform="translate(1367.023 1773.396)" fill="#20143b"/>
    <path id="Trazado_134" data-name="Trazado 134" d="M0,0,1.215.385A2.731,2.731,0,0,1,.286,1.894a2.651,2.651,0,0,1-1.649.493,2.668,2.668,0,0,1-2.032-.844,3.234,3.234,0,0,1-.8-2.309,3.4,3.4,0,0,1,.8-2.407,2.746,2.746,0,0,1,2.1-.856,2.581,2.581,0,0,1,1.849.672A2.457,2.457,0,0,1,1.2-2.214l-1.24.3A1.323,1.323,0,0,0-.5-2.68a1.316,1.316,0,0,0-.849-.279,1.41,1.41,0,0,0-1.119.5A2.426,2.426,0,0,0-2.9-.86,2.606,2.606,0,0,0-2.476.817a1.373,1.373,0,0,0,1.1.5A1.257,1.257,0,0,0-.517,1,1.85,1.85,0,0,0,0,0" transform="translate(1371.658 1771.115)" fill="#20143b"/>
    <path id="Trazado_135" data-name="Trazado 135" d="M0,0H332.22V-116.448H0Z" transform="translate(1114 1873.897)" fill="none"/>
    <path id="Trazado_136" data-name="Trazado 136" d="M259.91-106.705h1.253v6.205H259.91Z" transform="translate(1114 1873.897)" fill="#20143b"/>
    <path id="Trazado_137" data-name="Trazado 137" d="M0,0A3.945,3.945,0,0,1,.284-1.591a2.921,2.921,0,0,1,.578-.851A2.434,2.434,0,0,1,1.664-3,3.414,3.414,0,0,1,3-3.246a2.913,2.913,0,0,1,2.2.85A3.263,3.263,0,0,1,6.02-.03,3.251,3.251,0,0,1,5.2,2.322a2.891,2.891,0,0,1-2.184.848,2.92,2.92,0,0,1-2.2-.844A3.207,3.207,0,0,1,0,0M1.292-.042a2.325,2.325,0,0,0,.486,1.6A1.588,1.588,0,0,0,3.014,2.1a1.574,1.574,0,0,0,1.23-.54,2.374,2.374,0,0,0,.48-1.619A2.331,2.331,0,0,0,4.256-1.65a1.58,1.58,0,0,0-1.242-.525,1.591,1.591,0,0,0-1.248.531,2.339,2.339,0,0,0-.474,1.6M2.24-3.5l.583-1.266H4.157L2.993-3.5Z" transform="translate(1376.102 1770.332)" fill="#20143b"/>
    <path id="Trazado_138" data-name="Trazado 138" d="M0,0H332.22V-116.448H0Z" transform="translate(1114 1873.897)" fill="none"/>
    <path id="Trazado_139" data-name="Trazado 139" d="M0,0V-6.2H1.22L3.759-2.062V-6.2H4.923V0H3.666l-2.5-4.046V0Z" transform="translate(1383.111 1773.396)" fill="#20143b"/>
    <path id="Trazado_140" data-name="Trazado 140" d="M0,0V-6.2H1.22L3.759-2.062V-6.2H4.923V0H3.666l-2.5-4.046V0Z" transform="translate(1269.357 1793.623)" fill="#20143b"/>
    <path id="Trazado_141" data-name="Trazado 141" d="M0,0H-1.189V-4.482a4.1,4.1,0,0,1-1.537.9V-4.66a3.435,3.435,0,0,0,1.012-.578,2.192,2.192,0,0,0,.749-.993H0Z" transform="translate(1278.385 1793.623)" fill="#20143b"/>
    <path id="Trazado_142" data-name="Trazado 142" d="M0,0H332.22V-116.448H0Z" transform="translate(1114 1873.897)" fill="none"/>
    <path id="Trazado_143" data-name="Trazado 143" d="M0,0V-6.2H1.22L3.759-2.062V-6.2H4.923V0H3.666l-2.5-4.046V0Z" transform="translate(1285.874 1793.623)" fill="#20143b"/>
    <path id="Trazado_144" data-name="Trazado 144" d="M0,0V1.105H-4.169A2.85,2.85,0,0,1-3.762-.082,7.862,7.862,0,0,1-2.425-1.57a8.494,8.494,0,0,0,.986-1.016,1.314,1.314,0,0,0,.245-.728.831.831,0,0,0-.213-.612A.8.8,0,0,0-2-4.14a.791.791,0,0,0-.592.225,1.147,1.147,0,0,0-.254.745l-1.185-.119A1.943,1.943,0,0,1-3.365-4.7a2.233,2.233,0,0,1,1.4-.428,2.018,2.018,0,0,1,1.443.5A1.624,1.624,0,0,1,0-3.4a2.144,2.144,0,0,1-.15.8,3.249,3.249,0,0,1-.476.794,7.692,7.692,0,0,1-.779.791q-.564.518-.713.686A2.02,2.02,0,0,0-2.362,0Z" transform="translate(1295.876 1792.518)" fill="#20143b"/>
    <path id="Trazado_145" data-name="Trazado 145" d="M0,0H332.22V-116.448H0Z" transform="translate(1114 1873.897)" fill="none"/>
    <path id="Trazado_146" data-name="Trazado 146" d="M0,0V-6.2H1.22L3.759-2.062V-6.2H4.923V0H3.666l-2.5-4.046V0Z" transform="translate(1304.053 1793.623)" fill="#20143b"/>
    <path id="Trazado_147" data-name="Trazado 147" d="M0,0,1.151-.14a1.089,1.089,0,0,0,.3.673.81.81,0,0,0,.583.233A.805.805,0,0,0,2.652.487,1.084,1.084,0,0,0,2.9-.267a1.014,1.014,0,0,0-.241-.711.771.771,0,0,0-.589-.262,2.05,2.05,0,0,0-.546.089l.131-.97A1.043,1.043,0,0,0,2.4-2.33a.747.747,0,0,0,.254-.591.675.675,0,0,0-.186-.5.673.673,0,0,0-.5-.186.711.711,0,0,0-.52.212.993.993,0,0,0-.263.617l-1.1-.186a2.44,2.44,0,0,1,.345-.9,1.547,1.547,0,0,1,.644-.529A2.146,2.146,0,0,1,2-4.584a1.845,1.845,0,0,1,1.4.559,1.457,1.457,0,0,1,.437,1.033,1.462,1.462,0,0,1-.894,1.3,1.444,1.444,0,0,1,.853.512,1.489,1.489,0,0,1,.32.961,1.868,1.868,0,0,1-.6,1.393,2.055,2.055,0,0,1-1.486.575,2.043,2.043,0,0,1-1.4-.484A1.9,1.9,0,0,1,0,0" transform="translate(1309.996 1791.976)" fill="#20143b"/>
    <path id="Trazado_148" data-name="Trazado 148" d="M0,0H332.22V-116.448H0Z" transform="translate(1114 1873.897)" fill="none"/>
    <path id="Trazado_149" data-name="Trazado 149" d="M211.648-83.119h2.336v1.19h-2.336Z" transform="translate(1114 1873.897)" fill="#20143b"/>
    <path id="Trazado_150" data-name="Trazado 150" d="M211.648-56.809h2.336v1.19h-2.336Z" transform="translate(1114 1873.897)" fill="#20143b"/>
    <path id="Trazado_151" data-name="Trazado 151" d="M211.648-29.566h2.336v1.19h-2.336Z" transform="translate(1114 1873.897)" fill="#20143b"/>
    <path id="Trazado_152" data-name="Trazado 152" d="M301.945-56.809h2.336v1.19h-2.336Z" transform="translate(1114 1873.897)" fill="#20143b"/>
    <path id="Trazado_153" data-name="Trazado 153" d="M301.945-29.566h2.336v1.19h-2.336Z" transform="translate(1114 1873.897)" fill="#20143b"/>
    <path id="Trazado_154" data-name="Trazado 154" d="M0,0,1.215.385a2.727,2.727,0,0,1-.93,1.509,2.648,2.648,0,0,1-1.648.493,2.668,2.668,0,0,1-2.032-.844,3.234,3.234,0,0,1-.8-2.309,3.4,3.4,0,0,1,.8-2.407,2.744,2.744,0,0,1,2.1-.856,2.581,2.581,0,0,1,1.849.672A2.457,2.457,0,0,1,1.2-2.214l-1.241.3A1.317,1.317,0,0,0-.5-2.68a1.318,1.318,0,0,0-.849-.279,1.408,1.408,0,0,0-1.119.5A2.422,2.422,0,0,0-2.9-.859,2.611,2.611,0,0,0-2.477.817a1.377,1.377,0,0,0,1.1.5A1.257,1.257,0,0,0-.517,1,1.85,1.85,0,0,0,0,0" transform="translate(1347.145 1791.341)" fill="#20143b"/>
    <path id="Trazado_155" data-name="Trazado 155" d="M0,0H332.22V-116.448H0Z" transform="translate(1114 1873.897)" fill="none"/>
    <path id="Trazado_156" data-name="Trazado 156" d="M0,0V-6.2H1.219l2.54,4.143V-6.2H4.923V0H3.666l-2.5-4.046V0Z" transform="translate(1358.458 1793.623)" fill="#20143b"/>
    <path id="Trazado_157" data-name="Trazado 157" d="M0,0H-1.189V-4.482a4.09,4.09,0,0,1-1.537.9V-4.66a3.435,3.435,0,0,0,1.012-.578,2.185,2.185,0,0,0,.749-.993H0Z" transform="translate(1367.487 1793.623)" fill="#20143b"/>
    <path id="Trazado_158" data-name="Trazado 158" d="M0,0H332.22V-116.448H0Z" transform="translate(1114 1873.897)" fill="none"/>
    <path id="Trazado_159" data-name="Trazado 159" d="M0,0V-6.2H1.22L3.759-2.062V-6.2H4.923V0H3.666l-2.5-4.046V0Z" transform="translate(1375.711 1793.623)" fill="#20143b"/>
    <path id="Trazado_160" data-name="Trazado 160" d="M0,0V1.105H-4.169A2.85,2.85,0,0,1-3.762-.082,7.862,7.862,0,0,1-2.425-1.57a8.494,8.494,0,0,0,.986-1.016,1.314,1.314,0,0,0,.245-.728.831.831,0,0,0-.213-.612A.8.8,0,0,0-2-4.14a.791.791,0,0,0-.592.225,1.147,1.147,0,0,0-.254.745l-1.185-.119A1.943,1.943,0,0,1-3.365-4.7a2.232,2.232,0,0,1,1.4-.428,2.019,2.019,0,0,1,1.444.5A1.624,1.624,0,0,1,0-3.4a2.144,2.144,0,0,1-.15.8,3.249,3.249,0,0,1-.476.794,7.692,7.692,0,0,1-.779.791q-.564.518-.713.686A2.02,2.02,0,0,0-2.362,0Z" transform="translate(1385.714 1792.518)" fill="#20143b"/>
    <path id="Trazado_161" data-name="Trazado 161" d="M0,0H332.22V-116.448H0Z" transform="translate(1114 1873.897)" fill="none"/>
    <path id="Trazado_162" data-name="Trazado 162" d="M0,0V-6.2H1.22L3.759-2.062V-6.2H4.923V0H3.666l-2.5-4.046V0Z" transform="translate(1393.753 1793.623)" fill="#20143b"/>
    <path id="Trazado_163" data-name="Trazado 163" d="M0,0,1.151-.14a1.089,1.089,0,0,0,.3.673.81.81,0,0,0,.583.233A.8.8,0,0,0,2.652.487,1.084,1.084,0,0,0,2.9-.267a1.014,1.014,0,0,0-.241-.711.771.771,0,0,0-.589-.262,2.05,2.05,0,0,0-.546.089l.131-.97A1.043,1.043,0,0,0,2.4-2.33a.747.747,0,0,0,.254-.591.675.675,0,0,0-.186-.5.673.673,0,0,0-.5-.186.711.711,0,0,0-.52.212.993.993,0,0,0-.263.617l-1.1-.186a2.44,2.44,0,0,1,.345-.9,1.547,1.547,0,0,1,.644-.529A2.146,2.146,0,0,1,2-4.584a1.845,1.845,0,0,1,1.4.559,1.457,1.457,0,0,1,.437,1.033,1.463,1.463,0,0,1-.893,1.3,1.444,1.444,0,0,1,.852.512,1.489,1.489,0,0,1,.32.961,1.868,1.868,0,0,1-.6,1.393,2.055,2.055,0,0,1-1.486.575,2.043,2.043,0,0,1-1.4-.484A1.9,1.9,0,0,1,0,0" transform="translate(1399.697 1791.976)" fill="#20143b"/>
    <path id="Trazado_164" data-name="Trazado 164" d="M0,0H332.22V-116.448H0Z" transform="translate(1114 1873.897)" fill="none"/>
    <path id="Trazado_165" data-name="Trazado 165" d="M301.945-83.119h2.336v1.19h-2.336Z" transform="translate(1114 1873.897)" fill="#20143b"/>
    <path id="Trazado_166" data-name="Trazado 166" d="M0,0,1.215.385A2.731,2.731,0,0,1,.286,1.894a2.649,2.649,0,0,1-1.649.493,2.668,2.668,0,0,1-2.032-.844,3.234,3.234,0,0,1-.8-2.309,3.4,3.4,0,0,1,.8-2.407,2.746,2.746,0,0,1,2.1-.856,2.581,2.581,0,0,1,1.849.672A2.457,2.457,0,0,1,1.2-2.214l-1.24.3A1.323,1.323,0,0,0-.5-2.68a1.316,1.316,0,0,0-.849-.279,1.408,1.408,0,0,0-1.119.5A2.428,2.428,0,0,0-2.9-.859,2.6,2.6,0,0,0-2.476.817a1.373,1.373,0,0,0,1.1.5A1.257,1.257,0,0,0-.517,1,1.85,1.85,0,0,0,0,0" transform="translate(1434.08 1791.341)" fill="#20143b"/>
    <path id="Trazado_167" data-name="Trazado 167" d="M0,0,1.215.385A2.731,2.731,0,0,1,.286,1.894a2.649,2.649,0,0,1-1.649.493,2.668,2.668,0,0,1-2.032-.844,3.234,3.234,0,0,1-.8-2.309,3.4,3.4,0,0,1,.8-2.407,2.746,2.746,0,0,1,2.1-.856,2.581,2.581,0,0,1,1.849.672A2.457,2.457,0,0,1,1.2-2.214l-1.24.3A1.323,1.323,0,0,0-.5-2.68a1.316,1.316,0,0,0-.849-.279,1.41,1.41,0,0,0-1.119.5A2.432,2.432,0,0,0-2.9-.86,2.6,2.6,0,0,0-2.476.816a1.371,1.371,0,0,0,1.1.5A1.257,1.257,0,0,0-.517,1,1.85,1.85,0,0,0,0,0" transform="translate(1126.93 1824.411)" fill="#20143b"/>
    <path id="Trazado_168" data-name="Trazado 168" d="M0,0-1.079-.194A1.682,1.682,0,0,1-.453-1.16,2.3,2.3,0,0,1,.868-1.473a2.836,2.836,0,0,1,1.185.189A1.173,1.173,0,0,1,2.6-.806,2.446,2.446,0,0,1,2.76.258L2.747,1.646a4.727,4.727,0,0,0,.058.875,2.54,2.54,0,0,0,.214.6H1.841c-.03-.079-.069-.2-.114-.352l-.042-.139a2.13,2.13,0,0,1-.652.444,1.861,1.861,0,0,1-.741.149A1.534,1.534,0,0,1-.8,2.849,1.255,1.255,0,0,1-1.2,1.9a1.28,1.28,0,0,1,.181-.679A1.2,1.2,0,0,1-.51.76,4.024,4.024,0,0,1,.436.482,6.4,6.4,0,0,0,1.592.19V.072a.618.618,0,0,0-.169-.489,1.019,1.019,0,0,0-.64-.146.852.852,0,0,0-.5.125A.867.867,0,0,0,0,0M1.592.965c-.153.051-.394.111-.724.182a2.23,2.23,0,0,0-.648.207.5.5,0,0,0-.232.419A.583.583,0,0,0,.174,2.2a.647.647,0,0,0,.474.182,1.022,1.022,0,0,0,.613-.212.75.75,0,0,0,.285-.393,2.415,2.415,0,0,0,.046-.58Z" transform="translate(1130.1 1823.568)" fill="#20143b"/>
    <path id="Trazado_169" data-name="Trazado 169" d="M0,0H1.108V.66A1.672,1.672,0,0,1,1.693.11,1.611,1.611,0,0,1,2.51-.1,1.716,1.716,0,0,1,3.839.512a2.484,2.484,0,0,1,.546,1.71,2.557,2.557,0,0,1-.551,1.75A1.715,1.715,0,0,1,2.5,4.6a1.513,1.513,0,0,1-.675-.149,2.271,2.271,0,0,1-.637-.508V6.2H0ZM1.176,2.171a1.735,1.735,0,0,0,.3,1.12.919.919,0,0,0,.732.362A.858.858,0,0,0,2.9,3.32a1.712,1.712,0,0,0,.275-1.09,1.622,1.622,0,0,0-.283-1.049.877.877,0,0,0-.7-.343.913.913,0,0,0-.724.336,1.5,1.5,0,0,0-.288,1" transform="translate(1133.999 1822.197)" fill="#20143b"/>
    <path id="Trazado_170" data-name="Trazado 170" d="M0,0H332.22V-116.448H0Z" transform="translate(1114 1873.897)" fill="none"/>
    <path id="Trazado_171" data-name="Trazado 171" d="M0,0,.584-1.265H1.917L.753,0ZM.089.55H1.278v4.5H.089Z" transform="translate(1139.239 1821.647)" fill="#20143b"/>
    <path id="Trazado_172" data-name="Trazado 172" d="M0,0V.948H-.813V2.76A4.369,4.369,0,0,0-.789,3.4l.106.15a.332.332,0,0,0,.2.059A1.542,1.542,0,0,0,0,3.5l.1.923a2.376,2.376,0,0,1-.94.178,1.51,1.51,0,0,1-.58-.108.852.852,0,0,1-.378-.28,1.094,1.094,0,0,1-.168-.463,5.69,5.69,0,0,1-.038-.838V.948h-.546V0h.546V-.893l1.193-.694V0Z" transform="translate(1143.797 1822.197)" fill="#20143b"/>
    <path id="Trazado_173" data-name="Trazado 173" d="M0,0V-.673a1.735,1.735,0,0,1-.645.567A1.818,1.818,0,0,1-1.49.1,1.659,1.659,0,0,1-2.3-.1a1.173,1.173,0,0,1-.52-.559,2.477,2.477,0,0,1-.162-1V-4.495h1.19v2.066a5.688,5.688,0,0,0,.066,1.161.637.637,0,0,0,.239.339A.736.736,0,0,0-1.05-.8.937.937,0,0,0-.5-.971a.851.851,0,0,0,.33-.415A4.756,4.756,0,0,0-.084-2.6v-1.9H1.1V0Z" transform="translate(1147.582 1826.692)" fill="#20143b"/>
    <path id="Trazado_174" data-name="Trazado 174" d="M0,0H332.22V-116.448H0Z" transform="translate(1114 1873.897)" fill="none"/>
    <path id="Trazado_175" data-name="Trazado 175" d="M35.918-53.41h1.189v6.2H35.918Z" transform="translate(1114 1873.897)" fill="#20143b"/>
    <path id="Trazado_176" data-name="Trazado 176" d="M0,0A2.429,2.429,0,0,1,.292-1.147a2,2,0,0,1,.828-.846,2.449,2.449,0,0,1,1.2-.293,2.24,2.24,0,0,1,1.671.663A2.288,2.288,0,0,1,4.639.051a2.315,2.315,0,0,1-.658,1.691,2.228,2.228,0,0,1-1.658.671,2.614,2.614,0,0,1-1.178-.28,1.915,1.915,0,0,1-.853-.819A2.723,2.723,0,0,1,0,0M1.219.064a1.491,1.491,0,0,0,.317,1.024,1.01,1.01,0,0,0,.784.355A1,1,0,0,0,3.1,1.088,1.51,1.51,0,0,0,3.415.055,1.481,1.481,0,0,0,3.1-.96a1,1,0,0,0-.781-.356,1.007,1.007,0,0,0-.784.356A1.491,1.491,0,0,0,1.219.064" transform="translate(1152.052 1824.381)" fill="#20143b"/>
    <path id="Trazado_177" data-name="Trazado 177" d="M0,0H-1.1V-.66a1.791,1.791,0,0,1-.651.573A1.658,1.658,0,0,1-2.51.1,1.712,1.712,0,0,1-3.837-.523a2.539,2.539,0,0,1-.552-1.742A2.513,2.513,0,0,1-3.852-4a1.755,1.755,0,0,1,1.359-.6,1.682,1.682,0,0,1,1.3.627V-6.2H0ZM-3.175-2.345a2.05,2.05,0,0,0,.2,1.041.9.9,0,0,0,.8.466.877.877,0,0,0,.7-.349,1.613,1.613,0,0,0,.288-1.044,1.765,1.765,0,0,0-.279-1.115.885.885,0,0,0-.716-.341.891.891,0,0,0-.708.337,1.516,1.516,0,0,0-.287,1" transform="translate(1164.153 1826.692)" fill="#20143b"/>
    <path id="Trazado_178" data-name="Trazado 178" d="M0,0,1.185.2a1.953,1.953,0,0,1-.721.993A2.122,2.122,0,0,1-.77,1.533,2.013,2.013,0,0,1-2.506.766,2.574,2.574,0,0,1-2.95-.783a2.483,2.483,0,0,1,.584-1.75A1.924,1.924,0,0,1-.889-3.166,2,2,0,0,1,.694-2.5a2.936,2.936,0,0,1,.555,2.03h-2.98a1.2,1.2,0,0,0,.288.823A.9.9,0,0,0-.758.643.725.725,0,0,0-.288.491.942.942,0,0,0,0,0M.068-1.2A1.144,1.144,0,0,0-.2-1.987a.82.82,0,0,0-.618-.269.826.826,0,0,0-.643.284,1.1,1.1,0,0,0-.25.77Z" transform="translate(1167.929 1825.261)" fill="#20143b"/>
    <path id="Trazado_179" data-name="Trazado 179" d="M0,0H332.22V-116.448H0Z" transform="translate(1114 1873.897)" fill="none"/>
    <path id="Trazado_180" data-name="Trazado 180" d="M15.131-43.008H16.32v6.2H15.131Z" transform="translate(1114 1873.897)" fill="#20143b"/>
    <path id="Trazado_181" data-name="Trazado 181" d="M0,0-1.079-.195A1.683,1.683,0,0,1-.453-1.16,2.3,2.3,0,0,1,.868-1.473a2.836,2.836,0,0,1,1.185.189A1.173,1.173,0,0,1,2.6-.806,2.446,2.446,0,0,1,2.76.258L2.747,1.646a4.727,4.727,0,0,0,.058.875,2.54,2.54,0,0,0,.214.6H1.842c-.031-.079-.07-.2-.115-.352l-.042-.139a2.13,2.13,0,0,1-.652.444,1.861,1.861,0,0,1-.741.148A1.533,1.533,0,0,1-.8,2.849,1.255,1.255,0,0,1-1.2,1.9a1.28,1.28,0,0,1,.181-.679A1.2,1.2,0,0,1-.51.76,4.024,4.024,0,0,1,.436.482,6.4,6.4,0,0,0,1.592.19V.072a.618.618,0,0,0-.169-.489,1.019,1.019,0,0,0-.64-.146.852.852,0,0,0-.5.125A.867.867,0,0,0,0,0M1.592.965c-.153.051-.394.111-.724.182a2.191,2.191,0,0,0-.648.208.5.5,0,0,0-.232.418A.583.583,0,0,0,.174,2.2a.651.651,0,0,0,.474.182,1.022,1.022,0,0,0,.613-.212.746.746,0,0,0,.285-.393,2.415,2.415,0,0,0,.046-.58Z" transform="translate(1132.428 1833.97)" fill="#20143b"/>
    <path id="Trazado_182" data-name="Trazado 182" d="M0,0,1.215.385A2.731,2.731,0,0,1,.286,1.894a2.651,2.651,0,0,1-1.649.493,2.668,2.668,0,0,1-2.032-.844,3.234,3.234,0,0,1-.8-2.309,3.4,3.4,0,0,1,.8-2.407,2.746,2.746,0,0,1,2.1-.856,2.581,2.581,0,0,1,1.849.672A2.457,2.457,0,0,1,1.2-2.214l-1.241.3A1.316,1.316,0,0,0-.5-2.68a1.318,1.318,0,0,0-.849-.279,1.408,1.408,0,0,0-1.119.5A2.422,2.422,0,0,0-2.9-.859,2.611,2.611,0,0,0-2.477.817a1.377,1.377,0,0,0,1.1.5A1.257,1.257,0,0,0-.517,1,1.85,1.85,0,0,0,0,0" transform="translate(1142.748 1834.813)" fill="#20143b"/>
    <path id="Trazado_183" data-name="Trazado 183" d="M0,0H332.22V-116.448H0Z" transform="translate(1114 1873.897)" fill="none"/>
    <path id="Trazado_184" data-name="Trazado 184" d="M31-43.008h1.253v6.2H31Z" transform="translate(1114 1873.897)" fill="#20143b"/>
    <path id="Trazado_185" data-name="Trazado 185" d="M0,0V-6.2H4.254v1.05h-3v1.468H3.844v1.05H1.253V0Z" transform="translate(1147.455 1837.094)" fill="#20143b"/>
    <path id="Trazado_186" data-name="Trazado 186" d="M38.6-39.648h2.336v1.19H38.6Z" transform="translate(1114 1873.897)" fill="#20143b"/>
    <path id="Trazado_187" data-name="Trazado 187" d="M41.59-43.008h1.253v6.2H41.59Z" transform="translate(1114 1873.897)" fill="#20143b"/>
    <path id="Trazado_188" data-name="Trazado 188" d="M0,0H-1.363L-1.9-1.41h-2.48L-4.9,0H-6.226L-3.81-6.2h1.326ZM-2.307-2.455l-.855-2.3L-4-2.455Z" transform="translate(1163.632 1837.094)" fill="#20143b"/>
    <path id="Trazado_189" data-name="Trazado 189" d="M0,0V-1.046H2.7V1.426A3.376,3.376,0,0,1,1.56,2.1a4.156,4.156,0,0,1-1.513.29,3.4,3.4,0,0,1-1.7-.408A2.6,2.6,0,0,1-2.738.81,3.782,3.782,0,0,1-3.1-.843,3.567,3.567,0,0,1-2.7-2.565,2.744,2.744,0,0,1-1.507-3.721,3.213,3.213,0,0,1-.021-4.029a2.966,2.966,0,0,1,1.806.484A2.185,2.185,0,0,1,2.62-2.206l-1.244.233a1.318,1.318,0,0,0-.493-.721,1.489,1.489,0,0,0-.9-.265,1.7,1.7,0,0,0-1.306.521A2.193,2.193,0,0,0-1.811-.893,2.431,2.431,0,0,0-1.321.764a1.642,1.642,0,0,0,1.287.552,2.158,2.158,0,0,0,.79-.154A2.709,2.709,0,0,0,1.435.787V0Z" transform="translate(1208.919 1811.155)" fill="#20143b"/>
    <path id="Trazado_190" data-name="Trazado 190" d="M0,0H-1.19V-4.495H-.084v.639a1.921,1.921,0,0,1,.509-.6A.94.94,0,0,1,.94-4.6a1.5,1.5,0,0,1,.782.225L1.354-3.335A1.04,1.04,0,0,0,.8-3.53a.66.66,0,0,0-.423.138.938.938,0,0,0-.273.5A7.1,7.1,0,0,0,0-1.388Z" transform="translate(1213.905 1813.436)" fill="#20143b"/>
    <path id="Trazado_191" data-name="Trazado 191" d="M0,0V-.673a1.73,1.73,0,0,1-.646.567A1.811,1.811,0,0,1-1.49.1,1.659,1.659,0,0,1-2.3-.1a1.18,1.18,0,0,1-.521-.559,2.5,2.5,0,0,1-.161-1V-4.495h1.19V-2.43a5.693,5.693,0,0,0,.066,1.162.637.637,0,0,0,.239.339A.734.734,0,0,0-1.05-.8.94.94,0,0,0-.5-.971a.851.851,0,0,0,.33-.415A4.806,4.806,0,0,0-.084-2.6v-1.9H1.1V0Z" transform="translate(1219.099 1813.436)" fill="#20143b"/>
    <path id="Trazado_192" data-name="Trazado 192" d="M0,0H1.108V.66A1.672,1.672,0,0,1,1.693.11,1.611,1.611,0,0,1,2.51-.1,1.714,1.714,0,0,1,3.839.512a2.484,2.484,0,0,1,.546,1.71,2.557,2.557,0,0,1-.551,1.75A1.715,1.715,0,0,1,2.5,4.6a1.513,1.513,0,0,1-.675-.149,2.271,2.271,0,0,1-.637-.508V6.2H0ZM1.176,2.171a1.735,1.735,0,0,0,.3,1.12.919.919,0,0,0,.732.362A.858.858,0,0,0,2.9,3.32a1.706,1.706,0,0,0,.275-1.09,1.622,1.622,0,0,0-.283-1.049.877.877,0,0,0-.7-.343.913.913,0,0,0-.724.336,1.5,1.5,0,0,0-.288,1" transform="translate(1221.402 1808.941)" fill="#20143b"/>
    <path id="Trazado_193" data-name="Trazado 193" d="M0,0A2.429,2.429,0,0,1,.292-1.147a2,2,0,0,1,.827-.846,2.455,2.455,0,0,1,1.2-.293,2.243,2.243,0,0,1,1.672.663A2.288,2.288,0,0,1,4.639.051a2.315,2.315,0,0,1-.658,1.691,2.228,2.228,0,0,1-1.658.671,2.614,2.614,0,0,1-1.178-.28,1.915,1.915,0,0,1-.853-.819A2.723,2.723,0,0,1,0,0M1.219.063a1.492,1.492,0,0,0,.317,1.025,1.009,1.009,0,0,0,.783.355A1.006,1.006,0,0,0,3.1,1.088,1.517,1.517,0,0,0,3.415.055,1.489,1.489,0,0,0,3.1-.961a1.006,1.006,0,0,0-.782-.355,1.009,1.009,0,0,0-.783.355A1.493,1.493,0,0,0,1.219.063" transform="translate(1226.456 1811.125)" fill="#20143b"/>
    <path id="Trazado_194" data-name="Trazado 194" d="M0,0H-.817A8.193,8.193,0,0,1-1.8-2.032a6.643,6.643,0,0,1-.339-2.04,6.415,6.415,0,0,1,.419-2.315A8.154,8.154,0,0,1-.8-8.135H.013a12.768,12.768,0,0,0-.8,2.182A8.033,8.033,0,0,0-1-4.046,8.145,8.145,0,0,0-.874-2.624,9.247,9.247,0,0,0-.521-1.24Q-.372-.81,0,0" transform="translate(1183.194 1825.662)" fill="#20143b"/>
    <path id="Trazado_195" data-name="Trazado 195" d="M0,0H-1.19V-4.495H-.084v.639a1.921,1.921,0,0,1,.509-.6A.94.94,0,0,1,.94-4.6a1.5,1.5,0,0,1,.782.225L1.355-3.335A1.046,1.046,0,0,0,.8-3.53a.66.66,0,0,0-.423.138.938.938,0,0,0-.273.5A7.1,7.1,0,0,0,0-1.388Z" transform="translate(1185.247 1823.838)" fill="#20143b"/>
    <path id="Trazado_196" data-name="Trazado 196" d="M0,0-1.079-.194A1.682,1.682,0,0,1-.453-1.16,2.3,2.3,0,0,1,.868-1.473a2.836,2.836,0,0,1,1.185.189A1.168,1.168,0,0,1,2.6-.806,2.446,2.446,0,0,1,2.76.258L2.747,1.647a4.722,4.722,0,0,0,.058.874,2.54,2.54,0,0,0,.214.6H1.842c-.031-.079-.07-.2-.115-.352l-.042-.139a2.13,2.13,0,0,1-.652.444,1.861,1.861,0,0,1-.741.149A1.534,1.534,0,0,1-.8,2.849,1.255,1.255,0,0,1-1.2,1.9a1.28,1.28,0,0,1,.181-.679A1.2,1.2,0,0,1-.51.76,4.039,4.039,0,0,1,.436.482,6.489,6.489,0,0,0,1.592.191V.072a.619.619,0,0,0-.169-.489,1.019,1.019,0,0,0-.64-.146.852.852,0,0,0-.5.125A.867.867,0,0,0,0,0M1.592.965a7.282,7.282,0,0,1-.724.182,2.191,2.191,0,0,0-.648.208.5.5,0,0,0-.232.419.586.586,0,0,0,.186.432.65.65,0,0,0,.474.181,1.027,1.027,0,0,0,.614-.212.75.75,0,0,0,.284-.393,2.415,2.415,0,0,0,.046-.58Z" transform="translate(1188.37 1820.714)" fill="#20143b"/>
    <path id="Trazado_197" data-name="Trazado 197" d="M0,0H-1.189V-2.294a3.487,3.487,0,0,0-.077-.942.658.658,0,0,0-.247-.332.71.71,0,0,0-.413-.119.953.953,0,0,0-.554.17.854.854,0,0,0-.337.448,3.915,3.915,0,0,0-.091,1.033V0H-4.1V-4.495h1.105v.66A1.8,1.8,0,0,1-1.511-4.6a1.793,1.793,0,0,1,.72.142A1.206,1.206,0,0,1-.3-4.093a1.307,1.307,0,0,1,.232.5,3.636,3.636,0,0,1,.066.8Z" transform="translate(1196.391 1823.838)" fill="#20143b"/>
    <path id="Trazado_198" data-name="Trazado 198" d="M0,0,1.359.165a.465.465,0,0,0,.157.326.888.888,0,0,0,.533.127,1.386,1.386,0,0,0,.7-.139.587.587,0,0,0,.238-.3,1.841,1.841,0,0,0,.054-.546v-.656A1.609,1.609,0,0,1,1.693-.3,1.658,1.658,0,0,1,.258-1.062,2.61,2.61,0,0,1-.156-2.569,2.48,2.48,0,0,1,.387-4.3a1.757,1.757,0,0,1,1.353-.6,1.645,1.645,0,0,1,1.375.732v-.63H4.229V-.758A4.042,4.042,0,0,1,4.1.432a1.486,1.486,0,0,1-.369.618A1.643,1.643,0,0,1,3.1,1.4a3.362,3.362,0,0,1-1,.127A2.584,2.584,0,0,1,.474,1.136,1.229,1.229,0,0,1,0,.144ZM1.063-2.637A1.622,1.622,0,0,0,1.34-1.589a.856.856,0,0,0,.684.332A.947.947,0,0,0,2.76-1.6a1.485,1.485,0,0,0,.3-1.009,1.573,1.573,0,0,0-.288-1.037.912.912,0,0,0-.728-.339.878.878,0,0,0-.7.332,1.56,1.56,0,0,0-.277,1.014" transform="translate(1197.488 1824.134)" fill="#20143b"/>
    <path id="Trazado_199" data-name="Trazado 199" d="M0,0A2.429,2.429,0,0,1,.292-1.147a2,2,0,0,1,.827-.846,2.455,2.455,0,0,1,1.2-.293,2.244,2.244,0,0,1,1.672.663A2.288,2.288,0,0,1,4.639.051a2.319,2.319,0,0,1-.658,1.691,2.228,2.228,0,0,1-1.658.671,2.6,2.6,0,0,1-1.178-.28,1.915,1.915,0,0,1-.853-.819A2.723,2.723,0,0,1,0,0M1.219.064a1.486,1.486,0,0,0,.317,1.024,1.009,1.009,0,0,0,.783.355A1,1,0,0,0,3.1,1.088,1.511,1.511,0,0,0,3.415.055,1.481,1.481,0,0,0,3.1-.96a1,1,0,0,0-.781-.356,1.007,1.007,0,0,0-.783.356A1.486,1.486,0,0,0,1.219.064" transform="translate(1202.618 1821.527)" fill="#20143b"/>
    <path id="Trazado_200" data-name="Trazado 200" d="M0,0H-1.1V-.66a1.791,1.791,0,0,1-.651.573A1.658,1.658,0,0,1-2.51.1,1.715,1.715,0,0,1-3.837-.523a2.539,2.539,0,0,1-.552-1.742A2.513,2.513,0,0,1-3.852-4a1.755,1.755,0,0,1,1.359-.6,1.682,1.682,0,0,1,1.3.627V-6.2H0ZM-3.175-2.345a2.05,2.05,0,0,0,.2,1.041.9.9,0,0,0,.8.466.877.877,0,0,0,.7-.349,1.613,1.613,0,0,0,.288-1.044,1.765,1.765,0,0,0-.279-1.115.885.885,0,0,0-.716-.341.891.891,0,0,0-.708.337,1.516,1.516,0,0,0-.287,1" transform="translate(1214.719 1823.838)" fill="#20143b"/>
    <path id="Trazado_201" data-name="Trazado 201" d="M0,0,1.185.2a1.948,1.948,0,0,1-.721.993,2.122,2.122,0,0,1-1.234.34A2.012,2.012,0,0,1-2.506.766,2.574,2.574,0,0,1-2.95-.783a2.483,2.483,0,0,1,.584-1.75A1.924,1.924,0,0,1-.889-3.166,2,2,0,0,1,.694-2.5a2.936,2.936,0,0,1,.555,2.03h-2.98a1.2,1.2,0,0,0,.288.823A.9.9,0,0,0-.758.643.73.73,0,0,0-.288.491.942.942,0,0,0,0,0M.068-1.2A1.144,1.144,0,0,0-.2-1.987a.82.82,0,0,0-.618-.269.826.826,0,0,0-.643.284,1.1,1.1,0,0,0-.25.77Z" transform="translate(1218.495 1822.407)" fill="#20143b"/>
    <path id="Trazado_202" data-name="Trazado 202" d="M0,0-1.172.211a.864.864,0,0,0-.269-.529A.816.816,0,0,0-1.986-.5a.889.889,0,0,0-.708.306A1.571,1.571,0,0,0-2.958.838a1.821,1.821,0,0,0,.268,1.13.881.881,0,0,0,.721.33.8.8,0,0,0,.555-.192,1.161,1.161,0,0,0,.305-.663l1.168.2a2.074,2.074,0,0,1-.7,1.215,2.163,2.163,0,0,1-1.385.411A2.058,2.058,0,0,1-3.6,2.645,2.409,2.409,0,0,1-4.182.923,2.422,2.422,0,0,1-3.594-.811,2.093,2.093,0,0,1-2-1.431,2.165,2.165,0,0,1-.7-1.077,1.956,1.956,0,0,1,0,0" transform="translate(1227.042 1820.672)" fill="#20143b"/>
    <path id="Trazado_203" data-name="Trazado 203" d="M0,0A2.429,2.429,0,0,1,.292-1.147a2,2,0,0,1,.827-.846,2.455,2.455,0,0,1,1.2-.293,2.243,2.243,0,0,1,1.672.663A2.288,2.288,0,0,1,4.639.051a2.319,2.319,0,0,1-.658,1.691,2.228,2.228,0,0,1-1.658.671,2.6,2.6,0,0,1-1.178-.28,1.915,1.915,0,0,1-.853-.819A2.723,2.723,0,0,1,0,0M1.219.064a1.486,1.486,0,0,0,.317,1.024,1.009,1.009,0,0,0,.783.355A1,1,0,0,0,3.1,1.088,1.511,1.511,0,0,0,3.415.055,1.481,1.481,0,0,0,3.1-.96a1,1,0,0,0-.781-.356,1.007,1.007,0,0,0-.783.356A1.486,1.486,0,0,0,1.219.064m.5-2.8L2.3-4H3.635L2.472-2.734Z" transform="translate(1227.668 1821.527)" fill="#20143b"/>
    <path id="Trazado_204" data-name="Trazado 204" d="M0,0H-1.1V-.66a1.788,1.788,0,0,1-.65.573A1.662,1.662,0,0,1-2.51.1,1.712,1.712,0,0,1-3.836-.523a2.535,2.535,0,0,1-.553-1.742A2.513,2.513,0,0,1-3.852-4a1.755,1.755,0,0,1,1.359-.6,1.682,1.682,0,0,1,1.3.627V-6.2H0ZM-3.175-2.345a2.05,2.05,0,0,0,.2,1.041.9.9,0,0,0,.8.466.877.877,0,0,0,.7-.349,1.613,1.613,0,0,0,.288-1.044,1.765,1.765,0,0,0-.279-1.115.885.885,0,0,0-.716-.341.891.891,0,0,0-.708.337,1.516,1.516,0,0,0-.287,1" transform="translate(1237.361 1823.838)" fill="#20143b"/>
    <path id="Trazado_205" data-name="Trazado 205" d="M0,0H332.22V-116.448H0Z" transform="translate(1114 1873.897)" fill="none"/>
    <path id="Trazado_206" data-name="Trazado 206" d="M124.534-56.264h1.189v1.1h-1.189Zm0,1.1,0,.61h1.189v4.5h-1.189Z" transform="translate(1114 1873.897)" fill="#20143b"/>
    <path id="Trazado_207" data-name="Trazado 207" d="M0,0,1.358.165a.465.465,0,0,0,.157.326.894.894,0,0,0,.534.127,1.386,1.386,0,0,0,.7-.139.58.58,0,0,0,.237-.3,1.8,1.8,0,0,0,.055-.546v-.656A1.609,1.609,0,0,1,1.693-.3,1.657,1.657,0,0,1,.258-1.062,2.61,2.61,0,0,1-.156-2.569,2.476,2.476,0,0,1,.387-4.3a1.757,1.757,0,0,1,1.353-.6,1.645,1.645,0,0,1,1.375.732v-.63H4.229V-.758A4.076,4.076,0,0,1,4.1.432a1.486,1.486,0,0,1-.369.618A1.64,1.64,0,0,1,3.1,1.4a3.35,3.35,0,0,1-1,.127A2.584,2.584,0,0,1,.474,1.136,1.226,1.226,0,0,1,0,.144ZM1.063-2.637A1.622,1.622,0,0,0,1.34-1.589a.856.856,0,0,0,.683.332A.947.947,0,0,0,2.76-1.6a1.485,1.485,0,0,0,.3-1.009,1.573,1.573,0,0,0-.288-1.037.912.912,0,0,0-.728-.339.877.877,0,0,0-.7.332,1.56,1.56,0,0,0-.277,1.014" transform="translate(1240.832 1824.134)" fill="#20143b"/>
    <path id="Trazado_208" data-name="Trazado 208" d="M0,0A2.429,2.429,0,0,1,.292-1.147a2,2,0,0,1,.827-.846,2.455,2.455,0,0,1,1.2-.293,2.243,2.243,0,0,1,1.672.663A2.288,2.288,0,0,1,4.639.051a2.319,2.319,0,0,1-.658,1.691,2.228,2.228,0,0,1-1.658.671,2.6,2.6,0,0,1-1.178-.28,1.915,1.915,0,0,1-.853-.819A2.723,2.723,0,0,1,0,0M1.219.064a1.486,1.486,0,0,0,.317,1.024,1.009,1.009,0,0,0,.783.355A1,1,0,0,0,3.1,1.088,1.511,1.511,0,0,0,3.415.055,1.481,1.481,0,0,0,3.1-.96a1,1,0,0,0-.781-.356,1.007,1.007,0,0,0-.783.356A1.486,1.486,0,0,0,1.219.064" transform="translate(1245.963 1821.527)" fill="#20143b"/>
    <path id="Trazado_209" data-name="Trazado 209" d="M0,0,1.193-.182A.878.878,0,0,0,1.5.345a1.046,1.046,0,0,0,.652.18,1.176,1.176,0,0,0,.694-.17A.377.377,0,0,0,3.005.038.309.309,0,0,0,2.92-.186a.939.939,0,0,0-.4-.157A6.43,6.43,0,0,1,.7-.923,1.159,1.159,0,0,1,.165-1.935a1.246,1.246,0,0,1,.461-.981,2.156,2.156,0,0,1,1.431-.4,2.5,2.5,0,0,1,1.371.3,1.54,1.54,0,0,1,.618.889l-1.121.207a.7.7,0,0,0-.273-.4.994.994,0,0,0-.574-.14,1.3,1.3,0,0,0-.673.131.28.28,0,0,0-.135.241.262.262,0,0,0,.118.216A4.457,4.457,0,0,0,2.5-1.536a3.3,3.3,0,0,1,1.326.529A1.1,1.1,0,0,1,4.2-.123,1.361,1.361,0,0,1,3.682.94a2.288,2.288,0,0,1-1.528.444A2.5,2.5,0,0,1,.7,1.011,1.713,1.713,0,0,1,0,0" transform="translate(1251.114 1822.555)" fill="#20143b"/>
    <path id="Trazado_210" data-name="Trazado 210" d="M0,0Q.351-.755.5-1.156a8.559,8.559,0,0,0,.267-.927,9.754,9.754,0,0,0,.182-1A7.668,7.668,0,0,0,1-4.046,8.139,8.139,0,0,0,.787-5.953a12.568,12.568,0,0,0-.8-2.182H.8A7.761,7.761,0,0,1,1.792-6.2a6.272,6.272,0,0,1,.354,2.069,7.115,7.115,0,0,1-.28,1.9A7.968,7.968,0,0,1,.821,0Z" transform="translate(1256.024 1825.662)" fill="#20143b"/>
    <path id="Trazado_211" data-name="Trazado 211" d="M0,0,1.215.385A2.731,2.731,0,0,1,.286,1.894a2.649,2.649,0,0,1-1.649.493,2.668,2.668,0,0,1-2.032-.844,3.234,3.234,0,0,1-.8-2.309,3.4,3.4,0,0,1,.8-2.407,2.746,2.746,0,0,1,2.1-.856,2.581,2.581,0,0,1,1.849.672A2.457,2.457,0,0,1,1.2-2.214l-1.24.3A1.323,1.323,0,0,0-.5-2.68a1.316,1.316,0,0,0-.849-.279,1.408,1.408,0,0,0-1.119.5A2.427,2.427,0,0,0-2.9-.86,2.606,2.606,0,0,0-2.476.817a1.373,1.373,0,0,0,1.1.5A1.257,1.257,0,0,0-.517,1,1.85,1.85,0,0,0,0,0" transform="translate(1276.041 1817.651)" fill="#20143b"/>
    <path id="Trazado_212" data-name="Trazado 212" d="M0,0-1.079-.194A1.682,1.682,0,0,1-.453-1.16,2.3,2.3,0,0,1,.868-1.473a2.836,2.836,0,0,1,1.185.189A1.173,1.173,0,0,1,2.6-.806,2.446,2.446,0,0,1,2.76.258L2.747,1.646a4.727,4.727,0,0,0,.058.875,2.54,2.54,0,0,0,.214.6H1.841c-.03-.079-.069-.2-.114-.352l-.042-.139a2.13,2.13,0,0,1-.652.444,1.861,1.861,0,0,1-.741.149A1.534,1.534,0,0,1-.8,2.849,1.255,1.255,0,0,1-1.2,1.9a1.28,1.28,0,0,1,.181-.679A1.2,1.2,0,0,1-.51.76,4.024,4.024,0,0,1,.436.482,6.4,6.4,0,0,0,1.592.19V.072a.618.618,0,0,0-.169-.489,1.019,1.019,0,0,0-.64-.146.852.852,0,0,0-.5.125A.867.867,0,0,0,0,0M1.592.965c-.153.051-.394.111-.724.182a2.191,2.191,0,0,0-.648.208.494.494,0,0,0-.232.418A.583.583,0,0,0,.174,2.2a.647.647,0,0,0,.474.182,1.022,1.022,0,0,0,.613-.212.746.746,0,0,0,.285-.393,2.415,2.415,0,0,0,.046-.58Z" transform="translate(1279.211 1816.808)" fill="#20143b"/>
    <path id="Trazado_213" data-name="Trazado 213" d="M0,0V.948H-.813V2.76A4.369,4.369,0,0,0-.789,3.4l.106.15a.339.339,0,0,0,.2.059A1.548,1.548,0,0,0,0,3.5l.1.923a2.376,2.376,0,0,1-.94.178,1.491,1.491,0,0,1-.58-.108.862.862,0,0,1-.379-.28,1.108,1.108,0,0,1-.167-.463,5.69,5.69,0,0,1-.038-.838V.948h-.546V0h.546V-.893l1.193-.694V0Z" transform="translate(1285.205 1815.437)" fill="#20143b"/>
    <path id="Trazado_214" data-name="Trazado 214" d="M0,0,1.185.2a1.948,1.948,0,0,1-.721.993,2.122,2.122,0,0,1-1.234.34A2.012,2.012,0,0,1-2.506.766,2.574,2.574,0,0,1-2.95-.783a2.483,2.483,0,0,1,.584-1.75A1.924,1.924,0,0,1-.889-3.166,2,2,0,0,1,.694-2.5a2.936,2.936,0,0,1,.555,2.03h-2.98a1.2,1.2,0,0,0,.288.823A.9.9,0,0,0-.758.643.73.73,0,0,0-.288.491.942.942,0,0,0,0,0M.068-1.2A1.144,1.144,0,0,0-.2-1.987a.82.82,0,0,0-.618-.269.826.826,0,0,0-.643.284,1.1,1.1,0,0,0-.25.77Z" transform="translate(1288.634 1818.502)" fill="#20143b"/>
    <path id="Trazado_215" data-name="Trazado 215" d="M0,0,1.359.165a.461.461,0,0,0,.157.326.888.888,0,0,0,.533.127,1.374,1.374,0,0,0,.7-.14.58.58,0,0,0,.238-.3,1.841,1.841,0,0,0,.054-.546v-.656A1.609,1.609,0,0,1,1.693-.3,1.66,1.66,0,0,1,.258-1.062,2.61,2.61,0,0,1-.156-2.569,2.476,2.476,0,0,1,.387-4.3a1.757,1.757,0,0,1,1.353-.6,1.645,1.645,0,0,1,1.375.732v-.63H4.229V-.758A4.042,4.042,0,0,1,4.1.432a1.486,1.486,0,0,1-.369.618A1.64,1.64,0,0,1,3.1,1.4a3.318,3.318,0,0,1-1,.127A2.584,2.584,0,0,1,.474,1.136,1.229,1.229,0,0,1,0,.144ZM1.063-2.637A1.622,1.622,0,0,0,1.34-1.589a.856.856,0,0,0,.684.332A.947.947,0,0,0,2.76-1.6a1.485,1.485,0,0,0,.3-1.009,1.573,1.573,0,0,0-.288-1.037.912.912,0,0,0-.728-.339.877.877,0,0,0-.7.332,1.56,1.56,0,0,0-.277,1.014" transform="translate(1290.741 1820.229)" fill="#20143b"/>
    <path id="Trazado_216" data-name="Trazado 216" d="M0,0A2.429,2.429,0,0,1,.292-1.147a2,2,0,0,1,.828-.846,2.448,2.448,0,0,1,1.2-.293,2.243,2.243,0,0,1,1.672.663A2.288,2.288,0,0,1,4.639.051a2.315,2.315,0,0,1-.658,1.691,2.228,2.228,0,0,1-1.658.671,2.614,2.614,0,0,1-1.178-.28,1.915,1.915,0,0,1-.853-.819A2.723,2.723,0,0,1,0,0M1.219.063a1.492,1.492,0,0,0,.317,1.025,1.01,1.01,0,0,0,.784.355A1,1,0,0,0,3.1,1.088,1.517,1.517,0,0,0,3.415.055,1.491,1.491,0,0,0,3.1-.961a1,1,0,0,0-.781-.355,1.01,1.01,0,0,0-.784.355A1.5,1.5,0,0,0,1.219.063" transform="translate(1295.872 1817.621)" fill="#20143b"/>
    <path id="Trazado_217" data-name="Trazado 217" d="M0,0H-1.19V-4.495H-.084v.639a1.921,1.921,0,0,1,.509-.6A.94.94,0,0,1,.94-4.6a1.5,1.5,0,0,1,.782.225L1.355-3.335A1.046,1.046,0,0,0,.8-3.53a.657.657,0,0,0-.422.138.932.932,0,0,0-.273.5A7.007,7.007,0,0,0,0-1.388Z" transform="translate(1302.581 1819.932)" fill="#20143b"/>
    <path id="Trazado_218" data-name="Trazado 218" d="M0,0H332.22V-116.448H0Z" transform="translate(1114 1873.897)" fill="none"/>
    <path id="Trazado_219" data-name="Trazado 219" d="M0,0,.584-1.265H1.917L.753,0ZM.089.55H1.278v4.5H.089Z" transform="translate(1304.727 1814.887)" fill="#20143b"/>
    <path id="Trazado_220" data-name="Trazado 220" d="M0,0-1.079-.194A1.682,1.682,0,0,1-.453-1.16,2.3,2.3,0,0,1,.868-1.473a2.836,2.836,0,0,1,1.185.189A1.173,1.173,0,0,1,2.6-.806,2.446,2.446,0,0,1,2.76.258L2.747,1.646a4.727,4.727,0,0,0,.058.875,2.54,2.54,0,0,0,.214.6H1.842c-.031-.079-.07-.2-.115-.352l-.042-.139a2.13,2.13,0,0,1-.652.444,1.861,1.861,0,0,1-.741.149A1.534,1.534,0,0,1-.8,2.849,1.255,1.255,0,0,1-1.2,1.9a1.28,1.28,0,0,1,.181-.679A1.2,1.2,0,0,1-.51.76,4.039,4.039,0,0,1,.436.482,6.4,6.4,0,0,0,1.592.19V.072a.618.618,0,0,0-.169-.489,1.019,1.019,0,0,0-.64-.146.852.852,0,0,0-.5.125A.867.867,0,0,0,0,0M1.592.965c-.153.051-.394.111-.724.182a2.191,2.191,0,0,0-.648.208.5.5,0,0,0-.232.418A.583.583,0,0,0,.174,2.2a.647.647,0,0,0,.474.182,1.022,1.022,0,0,0,.613-.212.746.746,0,0,0,.285-.393,2.415,2.415,0,0,0,.046-.58Z" transform="translate(1308.113 1816.808)" fill="#20143b"/>
    <path id="Trazado_221" data-name="Trazado 221" d="M0,0,1.215.385A2.731,2.731,0,0,1,.286,1.894a2.649,2.649,0,0,1-1.649.493,2.668,2.668,0,0,1-2.032-.844,3.234,3.234,0,0,1-.8-2.309,3.4,3.4,0,0,1,.8-2.407,2.746,2.746,0,0,1,2.1-.856,2.578,2.578,0,0,1,1.849.673A2.448,2.448,0,0,1,1.2-2.214l-1.24.3A1.323,1.323,0,0,0-.5-2.68a1.316,1.316,0,0,0-.849-.279,1.408,1.408,0,0,0-1.119.5A2.428,2.428,0,0,0-2.9-.859,2.6,2.6,0,0,0-2.476.817a1.373,1.373,0,0,0,1.1.5A1.257,1.257,0,0,0-.517,1,1.85,1.85,0,0,0,0,0" transform="translate(1276.041 1846.673)" fill="#20143b"/>
    <path id="Trazado_222" data-name="Trazado 222" d="M0,0-1.079-.195A1.683,1.683,0,0,1-.453-1.16,2.3,2.3,0,0,1,.868-1.473a2.836,2.836,0,0,1,1.185.189A1.173,1.173,0,0,1,2.6-.806,2.446,2.446,0,0,1,2.76.258L2.747,1.646a4.727,4.727,0,0,0,.058.875,2.54,2.54,0,0,0,.214.6H1.841c-.03-.079-.069-.2-.114-.352l-.042-.139a2.13,2.13,0,0,1-.652.444,1.861,1.861,0,0,1-.741.149A1.534,1.534,0,0,1-.8,2.849,1.256,1.256,0,0,1-1.2,1.9a1.28,1.28,0,0,1,.181-.679A1.2,1.2,0,0,1-.51.76,4.024,4.024,0,0,1,.436.482,6.513,6.513,0,0,0,1.592.191V.072a.618.618,0,0,0-.169-.489,1.019,1.019,0,0,0-.64-.146.852.852,0,0,0-.5.125A.867.867,0,0,0,0,0M1.592.965c-.153.051-.394.111-.724.182a2.191,2.191,0,0,0-.648.208.494.494,0,0,0-.232.418A.583.583,0,0,0,.174,2.2a.647.647,0,0,0,.474.182,1.022,1.022,0,0,0,.613-.212.746.746,0,0,0,.285-.393,2.415,2.415,0,0,0,.046-.58Z" transform="translate(1279.211 1845.83)" fill="#20143b"/>
    <path id="Trazado_223" data-name="Trazado 223" d="M0,0V.948H-.813V2.76A4.369,4.369,0,0,0-.789,3.4l.106.15a.339.339,0,0,0,.2.059A1.548,1.548,0,0,0,0,3.5l.1.923a2.376,2.376,0,0,1-.94.178,1.51,1.51,0,0,1-.58-.108.862.862,0,0,1-.379-.28,1.108,1.108,0,0,1-.167-.463,5.69,5.69,0,0,1-.038-.838V.948h-.546V0h.546V-.893l1.193-.694V0Z" transform="translate(1285.205 1844.459)" fill="#20143b"/>
    <path id="Trazado_224" data-name="Trazado 224" d="M0,0,1.185.2a1.944,1.944,0,0,1-.721.993A2.122,2.122,0,0,1-.77,1.533,2.013,2.013,0,0,1-2.506.766,2.574,2.574,0,0,1-2.95-.783a2.483,2.483,0,0,1,.584-1.75A1.924,1.924,0,0,1-.889-3.166,2,2,0,0,1,.694-2.5a2.936,2.936,0,0,1,.555,2.03h-2.98a1.2,1.2,0,0,0,.288.823A.9.9,0,0,0-.758.643.725.725,0,0,0-.288.491.942.942,0,0,0,0,0M.068-1.2A1.144,1.144,0,0,0-.2-1.987a.82.82,0,0,0-.618-.269.826.826,0,0,0-.643.284,1.1,1.1,0,0,0-.25.77Z" transform="translate(1288.634 1847.523)" fill="#20143b"/>
    <path id="Trazado_225" data-name="Trazado 225" d="M0,0,1.359.165a.461.461,0,0,0,.157.326.888.888,0,0,0,.533.127,1.386,1.386,0,0,0,.7-.139.587.587,0,0,0,.238-.3,1.841,1.841,0,0,0,.054-.546v-.656A1.609,1.609,0,0,1,1.693-.3,1.658,1.658,0,0,1,.258-1.062,2.61,2.61,0,0,1-.156-2.569,2.476,2.476,0,0,1,.387-4.3a1.757,1.757,0,0,1,1.353-.6,1.645,1.645,0,0,1,1.375.732v-.63H4.229V-.758A4.042,4.042,0,0,1,4.1.432a1.486,1.486,0,0,1-.369.618A1.64,1.64,0,0,1,3.1,1.4a3.318,3.318,0,0,1-1,.127A2.591,2.591,0,0,1,.474,1.137,1.232,1.232,0,0,1,0,.144ZM1.063-2.637A1.622,1.622,0,0,0,1.34-1.589a.856.856,0,0,0,.684.332A.947.947,0,0,0,2.76-1.6a1.485,1.485,0,0,0,.3-1.009,1.573,1.573,0,0,0-.288-1.037.912.912,0,0,0-.728-.339.877.877,0,0,0-.7.332,1.56,1.56,0,0,0-.277,1.014" transform="translate(1290.741 1849.25)" fill="#20143b"/>
    <path id="Trazado_226" data-name="Trazado 226" d="M0,0A2.429,2.429,0,0,1,.292-1.147a2,2,0,0,1,.828-.846,2.448,2.448,0,0,1,1.2-.293,2.243,2.243,0,0,1,1.672.663A2.288,2.288,0,0,1,4.639.051a2.315,2.315,0,0,1-.658,1.691,2.228,2.228,0,0,1-1.658.671,2.614,2.614,0,0,1-1.178-.28,1.915,1.915,0,0,1-.853-.819A2.723,2.723,0,0,1,0,0M1.219.064a1.491,1.491,0,0,0,.317,1.024,1.01,1.01,0,0,0,.784.355A1,1,0,0,0,3.1,1.088,1.515,1.515,0,0,0,3.415.055,1.491,1.491,0,0,0,3.1-.961a1,1,0,0,0-.781-.355,1.01,1.01,0,0,0-.784.355A1.5,1.5,0,0,0,1.219.064" transform="translate(1295.872 1846.643)" fill="#20143b"/>
    <path id="Trazado_227" data-name="Trazado 227" d="M0,0H-1.19V-4.495H-.084v.639a1.921,1.921,0,0,1,.509-.6A.94.94,0,0,1,.94-4.6a1.5,1.5,0,0,1,.782.225L1.355-3.335A1.046,1.046,0,0,0,.8-3.53a.657.657,0,0,0-.422.138.932.932,0,0,0-.273.5A7.007,7.007,0,0,0,0-1.388Z" transform="translate(1302.581 1848.954)" fill="#20143b"/>
    <path id="Trazado_228" data-name="Trazado 228" d="M0,0H332.22V-116.448H0Z" transform="translate(1114 1873.897)" fill="none"/>
    <path id="Trazado_229" data-name="Trazado 229" d="M0,0,.584-1.265H1.917L.753,0ZM.089.55H1.278v4.5H.089Z" transform="translate(1304.727 1843.909)" fill="#20143b"/>
    <path id="Trazado_230" data-name="Trazado 230" d="M0,0-1.079-.195A1.683,1.683,0,0,1-.453-1.16,2.3,2.3,0,0,1,.868-1.473a2.836,2.836,0,0,1,1.185.189A1.173,1.173,0,0,1,2.6-.806,2.446,2.446,0,0,1,2.76.258L2.747,1.646a4.727,4.727,0,0,0,.058.875,2.54,2.54,0,0,0,.214.6H1.842c-.031-.079-.07-.2-.115-.352l-.042-.139a2.13,2.13,0,0,1-.652.444,1.861,1.861,0,0,1-.741.149A1.534,1.534,0,0,1-.8,2.849,1.256,1.256,0,0,1-1.2,1.9a1.28,1.28,0,0,1,.181-.679A1.2,1.2,0,0,1-.51.76,4.039,4.039,0,0,1,.436.482,6.513,6.513,0,0,0,1.592.191V.072a.618.618,0,0,0-.169-.489,1.019,1.019,0,0,0-.64-.146.852.852,0,0,0-.5.125A.867.867,0,0,0,0,0M1.592.965c-.153.051-.394.111-.724.182a2.191,2.191,0,0,0-.648.208.5.5,0,0,0-.232.418A.583.583,0,0,0,.174,2.2a.647.647,0,0,0,.474.182,1.022,1.022,0,0,0,.613-.212.746.746,0,0,0,.285-.393,2.415,2.415,0,0,0,.046-.58Z" transform="translate(1308.113 1845.83)" fill="#20143b"/>
    <path id="Trazado_231" data-name="Trazado 231" d="M0,0,1.215.385A2.731,2.731,0,0,1,.286,1.894a2.649,2.649,0,0,1-1.649.493,2.668,2.668,0,0,1-2.032-.844,3.234,3.234,0,0,1-.8-2.309,3.4,3.4,0,0,1,.8-2.407,2.746,2.746,0,0,1,2.1-.856,2.581,2.581,0,0,1,1.849.672A2.457,2.457,0,0,1,1.2-2.214l-1.24.3A1.323,1.323,0,0,0-.5-2.68a1.316,1.316,0,0,0-.849-.279,1.408,1.408,0,0,0-1.119.5A2.427,2.427,0,0,0-2.9-.86,2.606,2.606,0,0,0-2.476.817a1.373,1.373,0,0,0,1.1.5A1.257,1.257,0,0,0-.517,1,1.85,1.85,0,0,0,0,0" transform="translate(1366.44 1817.651)" fill="#20143b"/>
    <path id="Trazado_232" data-name="Trazado 232" d="M0,0-1.079-.194A1.682,1.682,0,0,1-.453-1.16,2.3,2.3,0,0,1,.868-1.473a2.836,2.836,0,0,1,1.185.189A1.173,1.173,0,0,1,2.6-.806,2.446,2.446,0,0,1,2.76.258L2.747,1.646a4.727,4.727,0,0,0,.058.875,2.54,2.54,0,0,0,.214.6H1.841c-.03-.079-.069-.2-.114-.352l-.042-.139a2.13,2.13,0,0,1-.652.444,1.861,1.861,0,0,1-.741.149A1.534,1.534,0,0,1-.8,2.849,1.255,1.255,0,0,1-1.2,1.9a1.28,1.28,0,0,1,.181-.679A1.2,1.2,0,0,1-.51.76,4.024,4.024,0,0,1,.436.482,6.4,6.4,0,0,0,1.592.19V.072a.618.618,0,0,0-.169-.489,1.019,1.019,0,0,0-.64-.146.852.852,0,0,0-.5.125A.867.867,0,0,0,0,0M1.592.965c-.153.051-.394.111-.724.182a2.191,2.191,0,0,0-.648.208.494.494,0,0,0-.232.418A.583.583,0,0,0,.174,2.2a.647.647,0,0,0,.474.182,1.022,1.022,0,0,0,.613-.212.746.746,0,0,0,.285-.393,2.415,2.415,0,0,0,.046-.58Z" transform="translate(1369.61 1816.808)" fill="#20143b"/>
    <path id="Trazado_233" data-name="Trazado 233" d="M0,0V.948H-.813V2.76A4.369,4.369,0,0,0-.789,3.4l.106.15a.339.339,0,0,0,.2.059A1.548,1.548,0,0,0,0,3.5l.1.923a2.376,2.376,0,0,1-.94.178,1.491,1.491,0,0,1-.58-.108.862.862,0,0,1-.379-.28,1.108,1.108,0,0,1-.167-.463,5.69,5.69,0,0,1-.038-.838V.948h-.546V0h.546V-.893l1.193-.694V0Z" transform="translate(1375.604 1815.437)" fill="#20143b"/>
    <path id="Trazado_234" data-name="Trazado 234" d="M0,0,1.185.2a1.948,1.948,0,0,1-.721.993,2.122,2.122,0,0,1-1.234.34A2.012,2.012,0,0,1-2.506.766,2.581,2.581,0,0,1-2.95-.783a2.483,2.483,0,0,1,.584-1.75A1.924,1.924,0,0,1-.889-3.166,2,2,0,0,1,.694-2.5a2.931,2.931,0,0,1,.555,2.03h-2.98a1.2,1.2,0,0,0,.288.823A.9.9,0,0,0-.757.643.729.729,0,0,0-.288.491.936.936,0,0,0,0,0M.068-1.2A1.144,1.144,0,0,0-.2-1.987a.818.818,0,0,0-.617-.269.827.827,0,0,0-.644.284,1.091,1.091,0,0,0-.249.77Z" transform="translate(1379.032 1818.502)" fill="#20143b"/>
    <path id="Trazado_235" data-name="Trazado 235" d="M0,0,1.358.165a.461.461,0,0,0,.158.326.888.888,0,0,0,.533.127,1.374,1.374,0,0,0,.7-.14.58.58,0,0,0,.238-.3,1.841,1.841,0,0,0,.054-.546v-.656A1.609,1.609,0,0,1,1.693-.3,1.66,1.66,0,0,1,.258-1.062,2.61,2.61,0,0,1-.156-2.569,2.476,2.476,0,0,1,.387-4.3a1.757,1.757,0,0,1,1.353-.6,1.645,1.645,0,0,1,1.375.732v-.63H4.229V-.758A4.042,4.042,0,0,1,4.1.432a1.486,1.486,0,0,1-.369.618A1.64,1.64,0,0,1,3.1,1.4a3.318,3.318,0,0,1-1,.127A2.584,2.584,0,0,1,.474,1.136,1.229,1.229,0,0,1,0,.144ZM1.063-2.637A1.622,1.622,0,0,0,1.34-1.589a.856.856,0,0,0,.684.332A.947.947,0,0,0,2.76-1.6a1.485,1.485,0,0,0,.3-1.009,1.573,1.573,0,0,0-.288-1.037.912.912,0,0,0-.728-.339.877.877,0,0,0-.7.332,1.56,1.56,0,0,0-.277,1.014" transform="translate(1381.14 1820.229)" fill="#20143b"/>
    <path id="Trazado_236" data-name="Trazado 236" d="M0,0A2.429,2.429,0,0,1,.292-1.147a2,2,0,0,1,.828-.846,2.448,2.448,0,0,1,1.2-.293,2.243,2.243,0,0,1,1.672.663A2.288,2.288,0,0,1,4.639.051a2.315,2.315,0,0,1-.658,1.691,2.228,2.228,0,0,1-1.658.671,2.614,2.614,0,0,1-1.178-.28,1.915,1.915,0,0,1-.853-.819A2.723,2.723,0,0,1,0,0M1.219.063a1.492,1.492,0,0,0,.317,1.025,1.01,1.01,0,0,0,.784.355A1,1,0,0,0,3.1,1.088,1.517,1.517,0,0,0,3.415.055,1.491,1.491,0,0,0,3.1-.961a1,1,0,0,0-.781-.355,1.01,1.01,0,0,0-.784.355A1.5,1.5,0,0,0,1.219.063" transform="translate(1386.271 1817.621)" fill="#20143b"/>
    <path id="Trazado_237" data-name="Trazado 237" d="M0,0H-1.19V-4.495H-.084v.639a1.921,1.921,0,0,1,.509-.6A.94.94,0,0,1,.94-4.6a1.5,1.5,0,0,1,.782.225L1.355-3.335A1.046,1.046,0,0,0,.8-3.53a.657.657,0,0,0-.422.138.932.932,0,0,0-.273.5A7.007,7.007,0,0,0,0-1.388Z" transform="translate(1392.979 1819.932)" fill="#20143b"/>
    <path id="Trazado_238" data-name="Trazado 238" d="M0,0H332.22V-116.448H0Z" transform="translate(1114 1873.897)" fill="none"/>
    <path id="Trazado_239" data-name="Trazado 239" d="M0,0,.584-1.265H1.917L.753,0ZM.089.55H1.278v4.5H.089Z" transform="translate(1395.125 1814.887)" fill="#20143b"/>
    <path id="Trazado_240" data-name="Trazado 240" d="M0,0-1.079-.194A1.682,1.682,0,0,1-.453-1.16,2.3,2.3,0,0,1,.868-1.473a2.836,2.836,0,0,1,1.185.189A1.173,1.173,0,0,1,2.6-.806,2.446,2.446,0,0,1,2.76.258L2.747,1.646a4.727,4.727,0,0,0,.058.875,2.54,2.54,0,0,0,.214.6H1.842c-.031-.079-.07-.2-.115-.352l-.042-.139a2.13,2.13,0,0,1-.652.444,1.861,1.861,0,0,1-.741.149A1.534,1.534,0,0,1-.8,2.849,1.255,1.255,0,0,1-1.2,1.9a1.28,1.28,0,0,1,.181-.679A1.2,1.2,0,0,1-.51.76,4.039,4.039,0,0,1,.436.482,6.4,6.4,0,0,0,1.592.19V.072a.618.618,0,0,0-.169-.489,1.019,1.019,0,0,0-.64-.146.852.852,0,0,0-.5.125A.867.867,0,0,0,0,0M1.592.965c-.153.051-.394.111-.724.182a2.191,2.191,0,0,0-.648.208.5.5,0,0,0-.232.418A.583.583,0,0,0,.174,2.2a.647.647,0,0,0,.474.182,1.022,1.022,0,0,0,.613-.212.746.746,0,0,0,.285-.393,2.415,2.415,0,0,0,.046-.58Z" transform="translate(1398.511 1816.808)" fill="#20143b"/>
    <path id="Trazado_241" data-name="Trazado 241" d="M0,0,1.215.385A2.731,2.731,0,0,1,.286,1.894a2.649,2.649,0,0,1-1.649.493,2.668,2.668,0,0,1-2.032-.844,3.234,3.234,0,0,1-.8-2.309,3.4,3.4,0,0,1,.8-2.407,2.746,2.746,0,0,1,2.1-.856,2.578,2.578,0,0,1,1.849.673A2.448,2.448,0,0,1,1.2-2.214l-1.24.3A1.323,1.323,0,0,0-.5-2.68a1.316,1.316,0,0,0-.849-.279,1.408,1.408,0,0,0-1.119.5A2.428,2.428,0,0,0-2.9-.859,2.6,2.6,0,0,0-2.476.817a1.373,1.373,0,0,0,1.1.5A1.257,1.257,0,0,0-.517,1,1.85,1.85,0,0,0,0,0" transform="translate(1366.44 1846.673)" fill="#20143b"/>
    <path id="Trazado_242" data-name="Trazado 242" d="M0,0-1.079-.195A1.683,1.683,0,0,1-.453-1.16,2.3,2.3,0,0,1,.868-1.473a2.836,2.836,0,0,1,1.185.189A1.173,1.173,0,0,1,2.6-.806,2.446,2.446,0,0,1,2.76.258L2.747,1.646a4.727,4.727,0,0,0,.058.875,2.54,2.54,0,0,0,.214.6H1.841c-.03-.079-.069-.2-.114-.352l-.042-.139a2.13,2.13,0,0,1-.652.444,1.861,1.861,0,0,1-.741.149A1.534,1.534,0,0,1-.8,2.849,1.256,1.256,0,0,1-1.2,1.9a1.28,1.28,0,0,1,.181-.679A1.2,1.2,0,0,1-.51.76,4.024,4.024,0,0,1,.436.482,6.513,6.513,0,0,0,1.592.191V.072a.618.618,0,0,0-.169-.489,1.019,1.019,0,0,0-.64-.146.852.852,0,0,0-.5.125A.867.867,0,0,0,0,0M1.592.965c-.153.051-.394.111-.724.182a2.191,2.191,0,0,0-.648.208.494.494,0,0,0-.232.418A.583.583,0,0,0,.174,2.2a.647.647,0,0,0,.474.182,1.022,1.022,0,0,0,.613-.212.746.746,0,0,0,.285-.393,2.415,2.415,0,0,0,.046-.58Z" transform="translate(1369.61 1845.83)" fill="#20143b"/>
    <path id="Trazado_243" data-name="Trazado 243" d="M0,0V.948H-.813V2.76A4.369,4.369,0,0,0-.789,3.4l.106.15a.339.339,0,0,0,.2.059A1.548,1.548,0,0,0,0,3.5l.1.923a2.376,2.376,0,0,1-.94.178,1.51,1.51,0,0,1-.58-.108.862.862,0,0,1-.379-.28,1.108,1.108,0,0,1-.167-.463,5.69,5.69,0,0,1-.038-.838V.948h-.546V0h.546V-.893l1.193-.694V0Z" transform="translate(1375.604 1844.459)" fill="#20143b"/>
    <path id="Trazado_244" data-name="Trazado 244" d="M0,0,1.185.2a1.944,1.944,0,0,1-.721.993A2.122,2.122,0,0,1-.77,1.533,2.013,2.013,0,0,1-2.506.766,2.581,2.581,0,0,1-2.95-.783a2.483,2.483,0,0,1,.584-1.75A1.924,1.924,0,0,1-.889-3.166,2,2,0,0,1,.694-2.5a2.931,2.931,0,0,1,.555,2.03h-2.98a1.2,1.2,0,0,0,.288.823A.9.9,0,0,0-.757.643.724.724,0,0,0-.288.491.936.936,0,0,0,0,0M.068-1.2A1.144,1.144,0,0,0-.2-1.987a.818.818,0,0,0-.617-.269.827.827,0,0,0-.644.284,1.091,1.091,0,0,0-.249.77Z" transform="translate(1379.032 1847.523)" fill="#20143b"/>
    <path id="Trazado_245" data-name="Trazado 245" d="M0,0,1.358.165a.461.461,0,0,0,.158.326.888.888,0,0,0,.533.127,1.386,1.386,0,0,0,.7-.139.587.587,0,0,0,.238-.3,1.841,1.841,0,0,0,.054-.546v-.656A1.609,1.609,0,0,1,1.693-.3,1.658,1.658,0,0,1,.258-1.062,2.61,2.61,0,0,1-.156-2.569,2.476,2.476,0,0,1,.387-4.3a1.757,1.757,0,0,1,1.353-.6,1.645,1.645,0,0,1,1.375.732v-.63H4.229V-.758A4.042,4.042,0,0,1,4.1.432a1.486,1.486,0,0,1-.369.618A1.64,1.64,0,0,1,3.1,1.4a3.318,3.318,0,0,1-1,.127A2.591,2.591,0,0,1,.474,1.137,1.232,1.232,0,0,1,0,.144ZM1.063-2.637A1.622,1.622,0,0,0,1.34-1.589a.856.856,0,0,0,.684.332A.947.947,0,0,0,2.76-1.6a1.485,1.485,0,0,0,.3-1.009,1.573,1.573,0,0,0-.288-1.037.912.912,0,0,0-.728-.339.877.877,0,0,0-.7.332,1.56,1.56,0,0,0-.277,1.014" transform="translate(1381.14 1849.25)" fill="#20143b"/>
    <path id="Trazado_246" data-name="Trazado 246" d="M0,0A2.429,2.429,0,0,1,.292-1.147a2,2,0,0,1,.828-.846,2.448,2.448,0,0,1,1.2-.293,2.243,2.243,0,0,1,1.672.663A2.288,2.288,0,0,1,4.639.051a2.315,2.315,0,0,1-.658,1.691,2.228,2.228,0,0,1-1.658.671,2.614,2.614,0,0,1-1.178-.28,1.915,1.915,0,0,1-.853-.819A2.723,2.723,0,0,1,0,0M1.219.064a1.491,1.491,0,0,0,.317,1.024,1.01,1.01,0,0,0,.784.355A1,1,0,0,0,3.1,1.088,1.515,1.515,0,0,0,3.415.055,1.491,1.491,0,0,0,3.1-.961a1,1,0,0,0-.781-.355,1.01,1.01,0,0,0-.784.355A1.5,1.5,0,0,0,1.219.064" transform="translate(1386.271 1846.643)" fill="#20143b"/>
    <path id="Trazado_247" data-name="Trazado 247" d="M0,0H-1.19V-4.495H-.084v.639a1.921,1.921,0,0,1,.509-.6A.94.94,0,0,1,.94-4.6a1.5,1.5,0,0,1,.782.225L1.355-3.335A1.046,1.046,0,0,0,.8-3.53a.657.657,0,0,0-.422.138.932.932,0,0,0-.273.5A7.007,7.007,0,0,0,0-1.388Z" transform="translate(1392.979 1848.954)" fill="#20143b"/>
    <path id="Trazado_248" data-name="Trazado 248" d="M0,0H332.22V-116.448H0Z" transform="translate(1114 1873.897)" fill="none"/>
    <path id="Trazado_249" data-name="Trazado 249" d="M0,0,.584-1.265H1.917L.753,0ZM.089.55H1.278v4.5H.089Z" transform="translate(1395.125 1843.909)" fill="#20143b"/>
    <path id="Trazado_250" data-name="Trazado 250" d="M0,0-1.079-.195A1.683,1.683,0,0,1-.453-1.16,2.3,2.3,0,0,1,.868-1.473a2.836,2.836,0,0,1,1.185.189A1.173,1.173,0,0,1,2.6-.806,2.446,2.446,0,0,1,2.76.258L2.747,1.646a4.727,4.727,0,0,0,.058.875,2.54,2.54,0,0,0,.214.6H1.842c-.031-.079-.07-.2-.115-.352l-.042-.139a2.13,2.13,0,0,1-.652.444,1.861,1.861,0,0,1-.741.149A1.534,1.534,0,0,1-.8,2.849,1.256,1.256,0,0,1-1.2,1.9a1.28,1.28,0,0,1,.181-.679A1.2,1.2,0,0,1-.51.76,4.039,4.039,0,0,1,.436.482,6.513,6.513,0,0,0,1.592.191V.072a.618.618,0,0,0-.169-.489,1.019,1.019,0,0,0-.64-.146.852.852,0,0,0-.5.125A.867.867,0,0,0,0,0M1.592.965c-.153.051-.394.111-.724.182a2.191,2.191,0,0,0-.648.208.5.5,0,0,0-.232.418A.583.583,0,0,0,.174,2.2a.647.647,0,0,0,.474.182,1.022,1.022,0,0,0,.613-.212.746.746,0,0,0,.285-.393,2.415,2.415,0,0,0,.046-.58Z" transform="translate(1398.511 1845.83)" fill="#20143b"/>
    <path id="Trazado_251" data-name="Trazado 251" d="M0,0V-1.046H2.7V1.426A3.376,3.376,0,0,1,1.56,2.1a4.156,4.156,0,0,1-1.513.29,3.4,3.4,0,0,1-1.7-.408A2.6,2.6,0,0,1-2.738.81,3.782,3.782,0,0,1-3.1-.843,3.567,3.567,0,0,1-2.7-2.565,2.744,2.744,0,0,1-1.507-3.721,3.213,3.213,0,0,1-.021-4.03a2.966,2.966,0,0,1,1.806.485A2.188,2.188,0,0,1,2.62-2.206l-1.244.233a1.318,1.318,0,0,0-.493-.721,1.489,1.489,0,0,0-.9-.265,1.7,1.7,0,0,0-1.306.521A2.193,2.193,0,0,0-1.811-.893,2.431,2.431,0,0,0-1.321.764a1.642,1.642,0,0,0,1.287.552,2.158,2.158,0,0,0,.79-.154A2.709,2.709,0,0,0,1.435.787V0Z" transform="translate(1208.919 1837.371)" fill="#20143b"/>
    <path id="Trazado_252" data-name="Trazado 252" d="M0,0H-1.19V-4.495H-.084v.639a1.921,1.921,0,0,1,.509-.6A.94.94,0,0,1,.94-4.6a1.5,1.5,0,0,1,.782.225L1.354-3.335A1.04,1.04,0,0,0,.8-3.53a.66.66,0,0,0-.423.138.938.938,0,0,0-.273.5A7.1,7.1,0,0,0,0-1.388Z" transform="translate(1213.905 1839.652)" fill="#20143b"/>
    <path id="Trazado_253" data-name="Trazado 253" d="M0,0V-.673a1.73,1.73,0,0,1-.646.567A1.811,1.811,0,0,1-1.49.1,1.659,1.659,0,0,1-2.3-.1a1.18,1.18,0,0,1-.521-.559,2.5,2.5,0,0,1-.161-1V-4.495h1.19V-2.43a5.693,5.693,0,0,0,.066,1.162.637.637,0,0,0,.239.339A.734.734,0,0,0-1.05-.8.933.933,0,0,0-.5-.972a.844.844,0,0,0,.33-.414A4.812,4.812,0,0,0-.084-2.6v-1.9H1.1V0Z" transform="translate(1219.099 1839.652)" fill="#20143b"/>
    <path id="Trazado_254" data-name="Trazado 254" d="M0,0H1.108V.66A1.672,1.672,0,0,1,1.693.11,1.611,1.611,0,0,1,2.51-.1,1.714,1.714,0,0,1,3.839.512a2.484,2.484,0,0,1,.546,1.71,2.557,2.557,0,0,1-.551,1.75A1.715,1.715,0,0,1,2.5,4.6a1.513,1.513,0,0,1-.675-.149,2.271,2.271,0,0,1-.637-.508V6.2H0ZM1.176,2.171a1.735,1.735,0,0,0,.3,1.12.919.919,0,0,0,.732.362A.858.858,0,0,0,2.9,3.32a1.706,1.706,0,0,0,.275-1.09,1.622,1.622,0,0,0-.283-1.049.877.877,0,0,0-.7-.343.913.913,0,0,0-.724.336,1.5,1.5,0,0,0-.288,1" transform="translate(1221.402 1835.157)" fill="#20143b"/>
    <path id="Trazado_255" data-name="Trazado 255" d="M0,0A2.429,2.429,0,0,1,.292-1.147a2,2,0,0,1,.827-.846,2.455,2.455,0,0,1,1.2-.293,2.243,2.243,0,0,1,1.672.663A2.288,2.288,0,0,1,4.639.051a2.315,2.315,0,0,1-.658,1.691,2.228,2.228,0,0,1-1.658.671,2.614,2.614,0,0,1-1.178-.28,1.915,1.915,0,0,1-.853-.819A2.723,2.723,0,0,1,0,0M1.219.064a1.491,1.491,0,0,0,.317,1.024,1.009,1.009,0,0,0,.783.355A1.006,1.006,0,0,0,3.1,1.088,1.515,1.515,0,0,0,3.415.055,1.486,1.486,0,0,0,3.1-.96a1,1,0,0,0-.782-.356,1.007,1.007,0,0,0-.783.356A1.491,1.491,0,0,0,1.219.064" transform="translate(1226.456 1837.341)" fill="#20143b"/>
    <path id="Trazado_256" data-name="Trazado 256" d="M0,0H-.817A8.193,8.193,0,0,1-1.8-2.032a6.643,6.643,0,0,1-.339-2.04,6.415,6.415,0,0,1,.419-2.315A8.154,8.154,0,0,1-.8-8.135H.013a12.768,12.768,0,0,0-.8,2.182A8.033,8.033,0,0,0-1-4.046,8.154,8.154,0,0,0-.874-2.624,9.247,9.247,0,0,0-.521-1.24Q-.372-.81,0,0" transform="translate(1183.194 1851.879)" fill="#20143b"/>
    <path id="Trazado_257" data-name="Trazado 257" d="M0,0H-1.19V-4.495H-.084v.639a1.921,1.921,0,0,1,.509-.6A.949.949,0,0,1,.94-4.6a1.5,1.5,0,0,1,.782.225L1.355-3.335A1.046,1.046,0,0,0,.8-3.53a.66.66,0,0,0-.423.138.938.938,0,0,0-.273.5A7.1,7.1,0,0,0,0-1.388Z" transform="translate(1185.247 1850.054)" fill="#20143b"/>
    <path id="Trazado_258" data-name="Trazado 258" d="M0,0-1.079-.194A1.682,1.682,0,0,1-.453-1.16,2.3,2.3,0,0,1,.868-1.473a2.836,2.836,0,0,1,1.185.189A1.168,1.168,0,0,1,2.6-.806,2.446,2.446,0,0,1,2.76.258L2.747,1.647a4.722,4.722,0,0,0,.058.874,2.54,2.54,0,0,0,.214.6H1.842c-.031-.079-.07-.2-.115-.352l-.042-.139a2.13,2.13,0,0,1-.652.444,1.861,1.861,0,0,1-.741.149A1.534,1.534,0,0,1-.8,2.849,1.255,1.255,0,0,1-1.2,1.9a1.28,1.28,0,0,1,.181-.679A1.2,1.2,0,0,1-.51.76,4.039,4.039,0,0,1,.436.482,6.489,6.489,0,0,0,1.592.191V.072a.619.619,0,0,0-.169-.489,1.019,1.019,0,0,0-.64-.146.852.852,0,0,0-.5.125A.867.867,0,0,0,0,0M1.592.965a7.282,7.282,0,0,1-.724.182,2.191,2.191,0,0,0-.648.208.5.5,0,0,0-.232.418.587.587,0,0,0,.186.433.65.65,0,0,0,.474.181,1.032,1.032,0,0,0,.614-.211.756.756,0,0,0,.284-.394,2.415,2.415,0,0,0,.046-.58Z" transform="translate(1188.37 1846.931)" fill="#20143b"/>
    <path id="Trazado_259" data-name="Trazado 259" d="M0,0H-1.189V-2.294a3.487,3.487,0,0,0-.077-.942.658.658,0,0,0-.247-.332.71.71,0,0,0-.413-.119.953.953,0,0,0-.554.17.852.852,0,0,0-.337.449,3.9,3.9,0,0,0-.091,1.032V0H-4.1V-4.495h1.105v.66A1.8,1.8,0,0,1-1.511-4.6a1.793,1.793,0,0,1,.72.142A1.206,1.206,0,0,1-.3-4.093a1.307,1.307,0,0,1,.232.5,3.636,3.636,0,0,1,.066.8Z" transform="translate(1196.391 1850.054)" fill="#20143b"/>
    <path id="Trazado_260" data-name="Trazado 260" d="M0,0,1.359.165a.465.465,0,0,0,.157.326.888.888,0,0,0,.533.127,1.386,1.386,0,0,0,.7-.139.587.587,0,0,0,.238-.3,1.841,1.841,0,0,0,.054-.546v-.656A1.609,1.609,0,0,1,1.693-.3,1.658,1.658,0,0,1,.258-1.062,2.61,2.61,0,0,1-.156-2.569,2.48,2.48,0,0,1,.387-4.3a1.757,1.757,0,0,1,1.353-.6,1.645,1.645,0,0,1,1.375.732v-.63H4.229V-.758A4.042,4.042,0,0,1,4.1.432a1.486,1.486,0,0,1-.369.618A1.643,1.643,0,0,1,3.1,1.4a3.33,3.33,0,0,1-1,.127A2.591,2.591,0,0,1,.474,1.137,1.232,1.232,0,0,1,0,.144ZM1.063-2.637A1.622,1.622,0,0,0,1.34-1.589a.854.854,0,0,0,.684.332A.947.947,0,0,0,2.76-1.6a1.485,1.485,0,0,0,.3-1.009,1.573,1.573,0,0,0-.288-1.037.912.912,0,0,0-.728-.339.878.878,0,0,0-.7.332,1.56,1.56,0,0,0-.277,1.014" transform="translate(1197.488 1850.351)" fill="#20143b"/>
    <path id="Trazado_261" data-name="Trazado 261" d="M0,0A2.429,2.429,0,0,1,.292-1.147a2,2,0,0,1,.827-.846,2.455,2.455,0,0,1,1.2-.293,2.244,2.244,0,0,1,1.672.663A2.288,2.288,0,0,1,4.639.051a2.319,2.319,0,0,1-.658,1.691,2.228,2.228,0,0,1-1.658.671,2.611,2.611,0,0,1-1.178-.28,1.915,1.915,0,0,1-.853-.819A2.723,2.723,0,0,1,0,0M1.219.064a1.486,1.486,0,0,0,.317,1.024,1.009,1.009,0,0,0,.783.355A1,1,0,0,0,3.1,1.088,1.512,1.512,0,0,0,3.415.055,1.486,1.486,0,0,0,3.1-.961a1,1,0,0,0-.781-.355,1.009,1.009,0,0,0-.783.355A1.491,1.491,0,0,0,1.219.064" transform="translate(1202.618 1847.743)" fill="#20143b"/>
    <path id="Trazado_262" data-name="Trazado 262" d="M0,0H-1.1V-.66a1.791,1.791,0,0,1-.651.573A1.658,1.658,0,0,1-2.51.1,1.712,1.712,0,0,1-3.837-.523a2.539,2.539,0,0,1-.552-1.742A2.513,2.513,0,0,1-3.852-4a1.755,1.755,0,0,1,1.359-.6,1.682,1.682,0,0,1,1.3.627V-6.2H0ZM-3.175-2.345a2.05,2.05,0,0,0,.2,1.041.9.9,0,0,0,.8.466.877.877,0,0,0,.7-.349,1.613,1.613,0,0,0,.288-1.044,1.765,1.765,0,0,0-.279-1.115.885.885,0,0,0-.716-.341.891.891,0,0,0-.708.337,1.516,1.516,0,0,0-.287,1" transform="translate(1214.719 1850.054)" fill="#20143b"/>
    <path id="Trazado_263" data-name="Trazado 263" d="M0,0,1.185.2a1.948,1.948,0,0,1-.721.993A2.122,2.122,0,0,1-.77,1.533,2.013,2.013,0,0,1-2.506.766,2.574,2.574,0,0,1-2.95-.783a2.483,2.483,0,0,1,.584-1.75A1.924,1.924,0,0,1-.889-3.166,2,2,0,0,1,.694-2.5a2.936,2.936,0,0,1,.555,2.03h-2.98a1.2,1.2,0,0,0,.288.823A.9.9,0,0,0-.758.643.73.73,0,0,0-.288.491.942.942,0,0,0,0,0M.068-1.2A1.144,1.144,0,0,0-.2-1.987a.82.82,0,0,0-.618-.269.826.826,0,0,0-.643.284,1.1,1.1,0,0,0-.25.77Z" transform="translate(1218.495 1848.624)" fill="#20143b"/>
    <path id="Trazado_264" data-name="Trazado 264" d="M0,0-1.172.211a.866.866,0,0,0-.269-.529A.816.816,0,0,0-1.986-.5a.889.889,0,0,0-.708.306A1.571,1.571,0,0,0-2.958.838a1.821,1.821,0,0,0,.268,1.13.881.881,0,0,0,.721.33.8.8,0,0,0,.555-.192,1.158,1.158,0,0,0,.305-.663l1.168.2a2.074,2.074,0,0,1-.7,1.215,2.163,2.163,0,0,1-1.385.411A2.058,2.058,0,0,1-3.6,2.645,2.409,2.409,0,0,1-4.182.923,2.422,2.422,0,0,1-3.594-.811,2.093,2.093,0,0,1-2-1.431,2.165,2.165,0,0,1-.7-1.077,1.956,1.956,0,0,1,0,0" transform="translate(1227.042 1846.888)" fill="#20143b"/>
    <path id="Trazado_265" data-name="Trazado 265" d="M0,0A2.429,2.429,0,0,1,.292-1.147a2,2,0,0,1,.827-.846,2.455,2.455,0,0,1,1.2-.293,2.243,2.243,0,0,1,1.672.663A2.288,2.288,0,0,1,4.639.051a2.319,2.319,0,0,1-.658,1.691,2.228,2.228,0,0,1-1.658.671,2.614,2.614,0,0,1-1.178-.28,1.915,1.915,0,0,1-.853-.819A2.723,2.723,0,0,1,0,0M1.219.064a1.486,1.486,0,0,0,.317,1.024,1.009,1.009,0,0,0,.783.355A1,1,0,0,0,3.1,1.088,1.512,1.512,0,0,0,3.415.055,1.486,1.486,0,0,0,3.1-.961a1,1,0,0,0-.781-.355,1.009,1.009,0,0,0-.783.355A1.491,1.491,0,0,0,1.219.064m.5-2.8L2.3-4H3.635L2.472-2.734Z" transform="translate(1227.668 1847.743)" fill="#20143b"/>
    <path id="Trazado_266" data-name="Trazado 266" d="M0,0H-1.1V-.66a1.788,1.788,0,0,1-.65.573A1.662,1.662,0,0,1-2.51.1,1.709,1.709,0,0,1-3.836-.523a2.535,2.535,0,0,1-.553-1.742A2.513,2.513,0,0,1-3.852-4a1.755,1.755,0,0,1,1.359-.6,1.682,1.682,0,0,1,1.3.627V-6.2H0ZM-3.175-2.345a2.05,2.05,0,0,0,.2,1.041.9.9,0,0,0,.8.466.877.877,0,0,0,.7-.349,1.613,1.613,0,0,0,.288-1.044,1.765,1.765,0,0,0-.279-1.115.885.885,0,0,0-.716-.341.891.891,0,0,0-.708.337,1.516,1.516,0,0,0-.287,1" transform="translate(1237.361 1850.054)" fill="#20143b"/>
    <path id="Trazado_267" data-name="Trazado 267" d="M0,0H332.22V-116.448H0Z" transform="translate(1114 1873.897)" fill="none"/>
    <path id="Trazado_268" data-name="Trazado 268" d="M124.534-30.048h1.189v1.1h-1.189Zm0,1.1,0,.609h1.189v4.495h-1.189Z" transform="translate(1114 1873.897)" fill="#20143b"/>
    <path id="Trazado_269" data-name="Trazado 269" d="M0,0,1.358.165a.465.465,0,0,0,.157.326.894.894,0,0,0,.534.127,1.386,1.386,0,0,0,.7-.139.58.58,0,0,0,.237-.3,1.8,1.8,0,0,0,.055-.546v-.656A1.609,1.609,0,0,1,1.693-.3,1.657,1.657,0,0,1,.258-1.062,2.61,2.61,0,0,1-.156-2.569,2.476,2.476,0,0,1,.387-4.3a1.757,1.757,0,0,1,1.353-.6,1.645,1.645,0,0,1,1.375.732v-.63H4.229V-.758A4.076,4.076,0,0,1,4.1.432a1.486,1.486,0,0,1-.369.618A1.64,1.64,0,0,1,3.1,1.4a3.318,3.318,0,0,1-1,.127A2.591,2.591,0,0,1,.474,1.137,1.229,1.229,0,0,1,0,.144ZM1.063-2.637A1.622,1.622,0,0,0,1.34-1.589a.853.853,0,0,0,.683.332A.947.947,0,0,0,2.76-1.6a1.485,1.485,0,0,0,.3-1.009,1.573,1.573,0,0,0-.288-1.037.912.912,0,0,0-.728-.339.877.877,0,0,0-.7.332,1.56,1.56,0,0,0-.277,1.014" transform="translate(1240.832 1850.351)" fill="#20143b"/>
    <path id="Trazado_270" data-name="Trazado 270" d="M0,0A2.429,2.429,0,0,1,.292-1.147a2,2,0,0,1,.827-.846,2.455,2.455,0,0,1,1.2-.293,2.243,2.243,0,0,1,1.672.663A2.288,2.288,0,0,1,4.639.051a2.319,2.319,0,0,1-.658,1.691,2.228,2.228,0,0,1-1.658.671,2.614,2.614,0,0,1-1.178-.28,1.915,1.915,0,0,1-.853-.819A2.723,2.723,0,0,1,0,0M1.219.064a1.486,1.486,0,0,0,.317,1.024,1.009,1.009,0,0,0,.783.355A1,1,0,0,0,3.1,1.088,1.512,1.512,0,0,0,3.415.055,1.486,1.486,0,0,0,3.1-.961a1,1,0,0,0-.781-.355,1.009,1.009,0,0,0-.783.355A1.491,1.491,0,0,0,1.219.064" transform="translate(1245.963 1847.743)" fill="#20143b"/>
    <path id="Trazado_271" data-name="Trazado 271" d="M0,0,1.193-.182A.878.878,0,0,0,1.5.345a1.046,1.046,0,0,0,.652.18,1.176,1.176,0,0,0,.694-.17A.377.377,0,0,0,3.005.038.309.309,0,0,0,2.92-.186a.939.939,0,0,0-.4-.157A6.43,6.43,0,0,1,.7-.923,1.157,1.157,0,0,1,.165-1.934a1.247,1.247,0,0,1,.461-.982,2.156,2.156,0,0,1,1.431-.4,2.5,2.5,0,0,1,1.371.3,1.54,1.54,0,0,1,.618.889l-1.121.208a.7.7,0,0,0-.273-.4.994.994,0,0,0-.574-.14,1.3,1.3,0,0,0-.673.131.28.28,0,0,0-.135.241.262.262,0,0,0,.118.216A4.457,4.457,0,0,0,2.5-1.536a3.31,3.31,0,0,1,1.326.529A1.1,1.1,0,0,1,4.2-.123,1.361,1.361,0,0,1,3.682.94a2.288,2.288,0,0,1-1.528.444A2.5,2.5,0,0,1,.7,1.011,1.713,1.713,0,0,1,0,0" transform="translate(1251.114 1848.772)" fill="#20143b"/>
    <path id="Trazado_272" data-name="Trazado 272" d="M0,0Q.351-.753.5-1.156a8.559,8.559,0,0,0,.267-.927,9.754,9.754,0,0,0,.182-1A7.668,7.668,0,0,0,1-4.046,8.139,8.139,0,0,0,.787-5.953a12.568,12.568,0,0,0-.8-2.182H.8A7.761,7.761,0,0,1,1.792-6.2a6.272,6.272,0,0,1,.354,2.069,7.115,7.115,0,0,1-.28,1.9A7.968,7.968,0,0,1,.821,0Z" transform="translate(1256.024 1851.879)" fill="#20143b"/>
    <path id="Trazado_273" data-name="Trazado 273" d="M0,0H332.22V-116.448H0Z" transform="translate(1114 1873.897)" fill="none"/>
    <path id="Trazado_274" data-name="Trazado 274" d="M0,0V-.3H-327.788v-38.4H-.3V0H0V0H.3V-39.311h-328.7V.3H.3V0Z" transform="translate(1445.341 1800.273)" fill="#20143b"/>
    <path id="Trazado_275" data-name="Trazado 275" d="M150.9-92.824H331.34v-.607H150.9Z" transform="translate(1114 1873.897)" fill="#20143b"/>
    <path id="Trazado_276" data-name="Trazado 276" d="M62.148-43.628H331.341v-.606H62.148Z" transform="translate(1114 1873.897)" fill="#20143b"/>
    <path id="Trazado_277" data-name="Trazado 277" d="M150.592-14.8h.606v-97.829h-.606Z" transform="translate(1114 1873.897)" fill="#20143b"/>
    <path id="Trazado_278" data-name="Trazado 278" d="M61.845-14.8h.606v-58.82h-.606Z" transform="translate(1114 1873.897)" fill="#20143b"/>
    <path id="Trazado_279" data-name="Trazado 279" d="M168.258-73.624h.607v-19.5h-.607Z" transform="translate(1114 1873.897)" fill="#20143b"/>
    <path id="Trazado_280" data-name="Trazado 280" d="M186.121-73.624h.606v-19.5h-.606Z" transform="translate(1114 1873.897)" fill="#20143b"/>
    <path id="Trazado_281" data-name="Trazado 281" d="M203.984-14.8h.606V-93.127h-.606Z" transform="translate(1114 1873.897)" fill="#20143b"/>
    <path id="Trazado_282" data-name="Trazado 282" d="M221.847-14.8h.606V-93.127h-.606Z" transform="translate(1114 1873.897)" fill="#20143b"/>
    <path id="Trazado_283" data-name="Trazado 283" d="M239.709-14.8h.607V-93.127h-.607Z" transform="translate(1114 1873.897)" fill="#20143b"/>
    <path id="Trazado_284" data-name="Trazado 284" d="M257.572-73.624h.606v-19.5h-.606Z" transform="translate(1114 1873.897)" fill="#20143b"/>
    <path id="Trazado_285" data-name="Trazado 285" d="M275.435-73.624h.606v-19.5h-.606Z" transform="translate(1114 1873.897)" fill="#20143b"/>
    <path id="Trazado_286" data-name="Trazado 286" d="M293.3-14.8h.607V-93.127H293.3Z" transform="translate(1114 1873.897)" fill="#20143b"/>
    <path id="Trazado_287" data-name="Trazado 287" d="M311.161-14.8h.606V-93.127h-.606Z" transform="translate(1114 1873.897)" fill="#20143b"/>
    <path id="Trazado_288" data-name="Trazado 288" d="M0,0V-.3H-327.788V-58.518H-.3V0H0V0H.3V-59.124h-328.7V.3H.3V0Z" transform="translate(1445.341 1859.094)" fill="#20143b"/>
  </g>
</svg>
