<?xml version="1.0" encoding="utf-8"?>
<!-- Generator: Adobe Illustrator 16.0.0, SVG Export Plug-In . SVG Version: 6.00 Build 0)  -->
<!DOCTYPE svg PUBLIC "-//W3C//DTD SVG 1.1//EN" "http://www.w3.org/Graphics/SVG/1.1/DTD/svg11.dtd">
<svg version="1.1" id="Capa_1" xmlns="http://www.w3.org/2000/svg" xmlns:xlink="http://www.w3.org/1999/xlink" x="0px" y="0px"
	 width="451.103px" height="518.477px" viewBox="0 0 451.103 518.477" enable-background="new 0 0 451.103 518.477"
	 xml:space="preserve">
<g>
	<g opacity="0.9069">
		<path fill="#A7A7A7" d="M451.103,499.571c0,10.441-36.861,18.905-82.338,18.905s-82.34-8.464-82.34-18.905
			c0-10.445,36.863-18.915,82.34-18.915S451.103,489.126,451.103,499.571z"/>
	</g>
	<g>
		<path fill-rule="evenodd" clip-rule="evenodd" fill="#95C11F" d="M284.964,381.602c-11.885,5.398-23.453,11.156-35.42,15.931
			c-9.828,3.921-11.772,2.53-17.762-6.108c-13.076-18.84-31.088-29.093-54.187-29.629c-60.93-1.415-110.342-26.021-145.145-75.994
			C-24.726,203.705-2.232,99.803,67.777,45.367C149.536-18.205,263.106-1.889,322.89,82.563
			c44.756,63.224,40.923,138.837,5.572,195.017c-14.516,23.055-18.698,45.99-7.056,71.058c2.923,6.289-1.028,10.109-5.235,12.989
			C305.962,368.613,295.354,375.008,284.964,381.602z M247.8,312.695c69.792-37.938,95.582-125.25,57.676-195.248
			c-37.67-69.549-125.761-95.683-195.392-57.969c-69.848,37.85-95.818,126.097-57.688,196.051
			C90.34,325.166,177.796,350.738,247.8,312.695z"/>
		<path fill-rule="evenodd" clip-rule="evenodd" fill="#95C11F" d="M307.956,424.369c-10.209,5.535-20.405,11.07-30.614,16.598
			c-5.191,2.805-10.683,4.357-14.048-2.013c-3.123-5.915,0.896-9.717,5.809-12.378c20.605-11.244,41.247-22.438,61.902-33.581
			c4.924-2.667,10.283-3.952,13.549,1.895c3.503,6.295-0.804,10.054-5.982,12.864C328.368,413.301,318.165,418.836,307.956,424.369z
			"/>
		<path fill-rule="evenodd" clip-rule="evenodd" fill="#95C11F" d="M289.646,389.879c10.42-5.646,20.842-11.281,31.25-16.965
			c4.711-2.574,9.61-3.939,12.714,1.744c3.179,5.834-0.286,9.648-5.385,12.403c-20.842,11.287-41.684,22.587-62.5,33.911
			c-5.073,2.749-10.216,3.709-13.376-2.15c-3.328-6.17,1.16-9.373,6.033-12.01C268.821,401.197,279.224,395.525,289.646,389.879z"/>
		<path fill-rule="evenodd" clip-rule="evenodd" fill="#95C11F" d="M318.626,444.632c-3.402,1.851-6.668,4.817-10.233,5.217
			c-3.453,0.38-8.962-0.86-10.333-3.247c-1.322-2.318,0.299-8.564,2.667-10.328c6.37-4.699,13.574-8.613,20.991-11.405
			c2.805-1.06,8.888,0.817,10.196,3.179c1.31,2.381-0.474,7.848-2.68,10.434c-2.506,2.923-6.993,4.163-10.62,6.12
			C318.614,444.601,318.626,444.619,318.626,444.632z"/>
		<circle fill-rule="evenodd" clip-rule="evenodd" fill="#95C11F" cx="177.86" cy="183.288" r="161.487"/>
	</g>
	<g>
		<path fill="#F4AB7D" d="M315.142,273.802c-1.559,5.682-3.453,8.913-1.004,10.917c2.451,2.004,1.939,10.58,1.719,14.811
			c-0.225,4.234-13.191,0.895-13.191,0.895s0-11.92,2.117-27.179C307.568,273.245,315.142,273.802,315.142,273.802z"/>
		<path fill="#F4AB7D" d="M303.158,288.764c0.075,6.832-1.559,16.263-0.074,18.787c1.486,2.524,8.464,13.737,9.653,13.441
			c1.189-0.297,0.446-2.971,0.446-2.971c2.378,2.525,5.345,4.01,4.603-2.822c-1.93-4.752-3.268-6.682-3.268-7.869
			c3.715,5.494,4.01,8.316,5.496,8.168c1.486-0.15-1.338-7.131-3.27-10.1c-1.93-2.971,0.002-13.219-1.038-16.486
			C314.667,285.646,303.158,288.764,303.158,288.764z"/>
		<g>
			<g>
				<path fill="#D28657" d="M307.233,294.854c0.14-0.093,1.127,1.205,1.879,3.698c0.42,1.214,0.725,2.749,1.35,4.233
					c0.32,0.748,0.709,1.525,1.215,2.23c0.242,0.357,0.533,0.688,0.821,0.944c0.073,0.068,0.144,0.118,0.212,0.159
					c0.049,0.035,0.032,0.021,0.041,0.024c0.008,0,0.013-0.004,0.014-0.011c-0.035,0.178,0.117-0.456,0.1-0.98
					c0.002-0.539-0.028-1.108-0.089-1.688c-0.119-1.178-0.326-2.336-0.556-3.445c-0.117-0.553-0.244-1.096-0.379-1.623
					c-0.131-0.533-0.284-1.012-0.412-1.611c-0.459-2.315,0.018-4.279,0.135-5.822c0.175-1.559,0.014-2.753-0.318-3.537
					c-0.322-0.783-0.65-1.181-0.543-1.275c0.053-0.058,0.544,0.18,1.102,0.978c0.57,0.783,0.953,2.233,0.908,3.89
					c0.01,1.648-0.289,3.557,0.178,5.434c0.601,1.955,1.251,4.35,1.502,6.85c0.066,0.623,0.1,1.248,0.09,1.885
					c-0.006,0.318-0.035,0.648-0.086,0.988c-0.035,0.283-0.243,0.926-0.614,1.309c-0.38,0.283-0.866,0.383-1.327,0.24
					c-0.218-0.092-0.471-0.174-0.617-0.299c-0.142-0.094-0.268-0.193-0.371-0.295c-0.438-0.406-0.766-0.828-1.043-1.262
					c-0.566-0.855-0.95-1.731-1.26-2.578c-0.608-1.732-0.771-3.242-1.053-4.473C307.653,296.341,307.032,294.965,307.233,294.854z"
					/>
			</g>
		</g>
		<path fill="#F4AB7D" d="M402.367,350.998c0.774,24.777,0.021,121.959,1.956,130.863c1.938,8.906,15.1,25.939,12.39,29.812
			c-2.712,3.873-20.134-13.938-23.618-24.393c-3.483-10.454-14.711-127.379-14.711-127.379L402.367,350.998z"/>
		<path fill="#1F152A" d="M391.935,482.249c14.713,23.812,24.488,28.167,20.229,15.778c0,0,9.583,15.002,4.936,15.389
			c-3.236,0.27-12.68-6.088-19.588-16.518l0.23,4.031l-2.71-2.324c0,0-1.228-5.736-1.966-10.098
			C392.161,485.975,391.628,483.24,391.935,482.249z"/>
		<path fill="#F4AB7D" d="M355.71,354.482c0,15.1-1.161,121.087-2.033,123.701c-0.871,2.613-15.973,18.973-33.396,17.811
			c-4.646-1.162,16.263-15.488,20.618-21.877c1.453-21.778-9.002-108.602-10.164-123.41
			C329.575,335.898,355.71,354.482,355.71,354.482z"/>
		<path fill="#1F152A" d="M354.354,472.182c0.967,4.064,0.822,8.035-2.855,21.972c-1.309,0.679-2.905,0.581-2.905,0.581
			c-0.075-3.424,0.728-5.662,0.872-10.162c-10.453,7.84-12.051,13.211-25.505,13.356c-5.644,0.062-12.775,0.968,0-8.13
			C322.991,496.572,337.704,491.54,354.354,472.182z"/>
		<path fill="#3D2113" d="M326.259,109.08c6.969-6.39,16.844-8.518,30.394-4.066c13.55,4.452,22.457,0.967,30.2,0.581
			c7.741-0.387,19.164,1.354,23.809,2.129c13.552-8.711,1.549-62.335,0.775-66.787c-0.775-4.452-48.009-32.522-56.14-30.198
			c-8.132,2.322-16.067,0-18.972,3.483c-2.903,3.486,0.773,40.073-7.357,51.106C320.839,76.365,313.868,96.109,326.259,109.08z"/>
		<path fill="#682D12" d="M399.192,73.144c-0.775,11.615-18.537,39.226-1.5,50.454c1.162-6.969,4.646-13.744,12.777-10.453
			c8.131,3.29,17.42-0.389,20.132-4.842c12.003-20.906,4.065-35.619-3.29-45.299c-7.355-9.678-9.873-25.359-9.873-25.359
			l-15.487,18.004"/>
		<path fill="#682D12" d="M357.232,18.673c-8.71-15.099-35.812-6.58-34.069,6.776c1.742,13.359,12,25.361,0.771,38.137
			c-11.227,12.779-19.164,31.361-9.873,42.781c9.294,11.425,6.971,12.005,5.229,14.133c12.584-4.646,12.776-10.646,5.422-26.52
			c-7.357-15.875,13.928-32.479,13.742-50.141C338.261,25.256,344.651,19.643,357.232,18.673z"/>
		<path fill="#3E2512" d="M335.358,31.644c1.848,8.442,2.43,16.345,0.842,23.157c1.383-3.609,2.293-7.262,2.254-10.961
			c-0.162-15.592,4.312-22.053,13.188-24.299C342.173,17.435,332.819,20.035,335.358,31.644z"/>
		<path fill="#C6C3BB" d="M409.034,442.371c-6.193,3.291-19.938,2.13-24.198,0.388c-3.29-18.392-22.454-155.259-22.454-155.259
			s-5.035,148.479-5.229,151.577c-8.131,4.648-19.164,0.582-21.1-1.741c-2.131-15.874-6.195-100.469-7.356-117.699
			s2.903-56.916,3.872-70.467c0.967-13.55,6.969-36.007,6.969-36.007s21.391,3.679,45.298-0.193
			C397.419,231.36,409.228,430.755,409.034,442.371z"/>
		<path fill="#EDABB1" d="M393.835,126.389c-5.082-3.63-25.117-6.679-39.637,0c-12.341,9.291-7.84,10.6-7.113,10.744
			c0.725,0.145,48.929,5.228,48.929,5.228"/>
		<path fill="#F4AB7D" d="M387.882,86.898c-1.354,15.484-5.035,38.377,10.455,47.477c-5.809,22.648-42.253,27.489-42.253,27.489
			s-7.548-26.134-4.258-31.362c12.39-2.71,11.81-15.197,12.392-32.425C367.121,91.688,387.882,86.898,387.882,86.898z"/>
		<path fill="#D28657" fill-opacity="0.5" d="M361.548,122.452c2.384-5.824,2.327-14.284,2.67-24.375
			c2.903-6.39,23.664-11.179,23.664-11.179c-0.615,7.042-1.709,15.619-1.264,23.732
			C377.921,118.064,367.226,121.604,361.548,122.452z"/>
		<path fill="#1F152A" d="M395.026,135.471c-6.388,9.873-21.221,71.446-17.541,79.963c-24.585,0.969-37.428,0-37.428,0
			c-6.582-24.005-11.073-69.977,14.285-86.432c-1.935,10.453,0.58,21.246,3.486,22.989
			C366.347,149.861,392.316,133.148,395.026,135.471z"/>
		<path fill="#F4AB7D" d="M338.083,35.936c1.451,18.293,1.162,29.328-2.033,43.557c-1.453,6.389-0.58,15.68,21.779,28.748
			c3.338,1.598,37.312-6.389,41.812-34.266c4.641-28.729-4.645-51.687-22.066-55.172C360.151,15.318,339.534,17.352,338.083,35.936z
			"/>
		<path fill="#F4AB7D" d="M400.803,62.553c4.938-7.598,14.519-1.936,11.423,6.195c-3.207,8.418-11.13,9.438-15.341,5.082
			C397.659,67.635,400.803,62.553,400.803,62.553z"/>
		<g>
			<g>
				<g>
					<path fill="#010202" d="M372.781,68.604c-0.316-0.057-0.526-1.492,0.157-3.79c0.372-1.125,1.04-2.512,2.337-3.66
						c1.265-1.186,3.129-1.886,4.949-2.103c1.834-0.222,3.493-0.094,4.934,0.006c1.441,0.111,2.673,0.194,3.65,0.128
						c1.944-0.08,2.791-1.099,3.139-0.89c0.133,0.081,0.135,0.509-0.28,1.1c-0.394,0.595-1.302,1.281-2.503,1.619
						c-2.403,0.734-5.582,0.299-8.607,0.652c-1.505,0.192-2.78,0.625-3.732,1.359c-0.978,0.703-1.661,1.665-2.18,2.539
						C373.646,67.354,373.171,68.686,372.781,68.604z"/>
				</g>
			</g>
		</g>
		<path fill="#010202" d="M384.971,60.119c1.062,1.092,1.751,2.721,1.751,4.564c0,3.287-2.146,5.952-4.792,5.952
			s-4.79-2.665-4.79-5.952c0-1.773,0.636-3.348,1.627-4.438C380.833,60.156,382.901,60.123,384.971,60.119z"/>
		<g>
			<g>
				<path fill="#D28657" d="M361.41,80.754c-0.067,0.18-1.458,0.021-3.587-0.922c-0.524-0.268-1.104-0.57-1.668-1.113
					c-0.278-0.268-0.565-0.617-0.729-1.096c-0.196-0.479-0.129-1.068,0.038-1.546c0.396-0.925,1.052-1.503,1.675-2.058
					c0.709-0.585,1.115-0.9,1.422-1.566c0.598-1.267,0.57-2.883,0.502-4.283c-0.079-1.424-0.252-2.726-0.381-3.823
					c-0.273-2.193-0.403-3.579-0.178-3.63c0.213-0.047,0.738,1.243,1.309,3.418c0.275,1.091,0.572,2.398,0.743,3.91
					c0.134,1.494,0.306,3.26-0.532,5.12c-0.219,0.454-0.518,0.874-0.866,1.237c-0.388,0.37-0.705,0.6-0.993,0.836
					c-0.586,0.475-1.106,0.977-1.312,1.406c-0.424,0.688,0.672,1.645,1.535,2.184C360.208,79.945,361.501,80.518,361.41,80.754z"/>
			</g>
		</g>
		<path fill="#010202" d="M352.796,68.49c-0.684,1.473-1.777,2.438-3.02,2.438c-2.073,0-3.757-2.667-3.757-5.953
			c0-1.991,0.622-3.742,1.572-4.824C350.731,61.951,352.095,65.072,352.796,68.49z"/>
		<g>
			<path fill="#3D2113" d="M350.714,49.582c0.167-0.106-0.12-0.917-1.164-1.713c-1.017-0.797-2.762-1.455-4.74-1.392
				c-1.985,0.034-3.73,0.942-4.598,1.925c-0.879,0.996-0.992,1.829-0.822,1.906c0.225,0.123,0.695-0.447,1.579-1.039
				c0.884-0.586,2.255-1.13,3.896-1.166c1.63-0.053,3.115,0.321,4.098,0.755C349.962,49.276,350.519,49.732,350.714,49.582z"/>
		</g>
		<path fill="#E73F2C" d="M374.476,86.752c-5.516,9.295-21.299,25.075-21.006,3.968C354.729,90.142,374.476,86.752,374.476,86.752z"
			/>
		<path fill="#FFFFFF" d="M374.766,86.075c-7.452,2.129-18.292,0.192-24.681,0.192c4.838,3.776,6.193,12.584,7.646,12.777
			C362.376,99.045,369.829,92.463,374.766,86.075z"/>
		<path fill="#E73F2C" d="M374.282,85.979c-5.13,1.355-20.23-3.195-26.714-0.291C352.116,86.85,368.862,89.268,374.282,85.979z"/>
		<g>
			<g>
				<path fill="#D28657" d="M372.347,85.301c0.127-0.415,1.488-0.353,2.85,0.434c0.705,0.341,1.226,0.867,1.566,1.264
					c0.338,0.406,0.465,0.74,0.326,0.916c-0.307,0.371-1.428-0.07-2.675-0.752C373.173,86.439,372.201,85.743,372.347,85.301z"/>
			</g>
		</g>
		<g>
			<g>
				<g>
					<path fill="#010202" d="M352.817,68.385c-0.378,0.052-0.795-0.997-1.419-2.555c-0.623-1.518-1.557-3.719-3.348-4.311
						c-1.869-0.655-4.484,0.101-6.576-0.646c-1.064-0.366-1.711-1.18-1.881-1.719c-0.201-0.554-0.123-0.888,0.027-0.956
						c0.362-0.188,1.005,0.833,2.297,0.863c0.672,0.046,1.589-0.097,2.755-0.256c1.148-0.13,2.61-0.326,4.249,0.225
						c1.652,0.565,2.817,1.926,3.36,3.106c0.576,1.204,0.827,2.313,0.924,3.234C353.406,67.219,353.158,68.341,352.817,68.385z"/>
				</g>
			</g>
		</g>
		<path fill="#F39200" d="M384.688,348.094c11.904-0.291,40.219-1.307,46.461-16.116c-7.695-30.635-16.552-78.984-36.588-114.701
			c-2.47-7.403,11.761-25.843,16.986-41.523c5.082-17.277,8.617-34.989,8.229-35.571c-2.131-2.031-21.587-6.244-21.587-6.244
			s-22.795,14.52-25.408,35.427c-2.613,20.908,0.292,59.964,3.339,87.406C379.171,284.209,378.301,338.221,384.688,348.094z"/>
		<path fill="#D37D00" d="M393.642,126.244c5.615,4.453,11.496,6.576,11.445,7.188c-0.822,10.115-10.283,19.914-11.445,20.883
			c-6.969,1.548-14.131,4.065-14.131,4.065c8.516,5.129,6.775,5.611,6.775,5.611c-8.132,6.971-14.906,28.266-13.938,47.43
			c-5.033-32.133-9.776-42.299,19.744-78.595C394.622,129.717,393.642,126.244,393.642,126.244z"/>
		<path fill="#DF7E00" d="M333.243,142.311c-10.551,8.18-8.133,44.525-17.037,65.819c-8.903,21.295-16.454,61.368-16.454,65.626
			c7.745,6.582,17.425,4.647,20.134,1.55c8.131-22.457,16.067-63.691,18.391-77.242
			C334.886,178.221,333.243,142.311,333.243,142.311z"/>
		<path fill="#F39200" d="M340.55,200.146c6.357,21.224-4.791,115.426,4.211,145.044c-7.26,1.162-17.858-7.55-19.311-10.454
			c-1.451-2.903,5.809-110.344,8.712-128.057s-11.179-29.184-3.05-59.964c6.389-5.227,5.953-1.598,5.953-1.598
			S332.421,172.995,340.55,200.146z"/>
		<path fill="#D37D00" d="M357.683,125.082c-10.841,10.648-26.955,25.939-16.889,76.079c-10.649-18.391-13.357-44.524-13.357-44.524
			s5.224-5.615,6-5.615c-3.872-2.904-6.193-4.063-5.613-5.42C328.402,144.248,348.173,124.066,357.683,125.082z"/>
		<path fill="#DF7E00" d="M396.159,264.465c-3.631-3.341-8.422-9.147-8.422-9.147c-4.356,9.147-7.549,26.423-6.969,30.634
			c2.902,9.584,15.824,14.955,20.18,11.615c3.922-7.113,4.065-24.826,4.065-24.826S399.062,267.369,396.159,264.465z"/>
		<path fill="#DF7E00" d="M416.872,262.916c-4.164,1.064-15.193-7.261-13.356-12.003
			C407.192,248.688,419.101,251.976,416.872,262.916z"/>
		<path fill="#F4AB7D" d="M411.257,248.688c-4.936,5.951-5.664,10.551-11.035,8.904c-4.86-1.489-7.693,7.454-14.227,8.469
			c-2.179,1.016-0.096,4.017,1.258,3.728c1.355-0.291,8.614-3.582,8.614-3.582c3.632,5.227,9.146,6.533,9.146,6.533
			c7.261-5.953,13.504-16.552,13.504-16.552L411.257,248.688z"/>
		<path fill="#D37D00" d="M419.777,140.182c0.772,1.743,28.843,68.914,28.069,79.759c-0.774,10.84-22.648,36.586-30.975,42.976
			c-1.938-9.776-13.356-12.003-13.356-12.003c6.969-10.648,20.715-29.814,21.683-35.814c0.968-6.001-15.738-36.165-16.844-38.523
			C398.094,154.7,419.003,138.439,419.777,140.182z"/>
		<path fill="#DF7E00" d="M337.695,257.495c-0.196,5.808,0.386,25.167-0.776,27.683c-1.162,2.517-7.354,8.13-8.322,7.743
			c-0.969-0.388-0.58-26.328-0.58-26.328L337.695,257.495z"/>
		<g>
			<path fill="#DF7E00" d="M389.769,227.295c-0.111-0.019-0.127-0.435-0.059-1.181c0.034-0.375,0.089-0.829,0.164-1.359
				c0.09-0.521,0.232-1.104,0.381-1.753c0.581-2.602,1.729-6.082,3.191-9.845c2.925-7.533,6.245-13.222,6.632-13.012
				c0.405,0.213-2.22,6.145-5.117,13.604c-1.448,3.728-2.753,7.106-3.604,9.573c-0.223,0.615-0.425,1.171-0.604,1.66
				c-0.152,0.492-0.297,0.916-0.424,1.261C390.074,226.936,389.88,227.313,389.769,227.295z"/>
		</g>
		<path fill="#682D12" d="M352.974,20.031c2.518,13.163,4.453,26.325,18.392,30.584c13.938,4.261,27.683-0.193,27.101,2.904
			c-0.58,3.098-3.025,14.059,0.074,14.834c4.064-4.84,4.118-6.088,6.121-8.251c3.315-3.582,14.711-3.098,14.52-12.972
			c-0.193-9.872-4.066-29.812-12.003-31.36c-7.937-1.549-17.036-2.516-24.585-10.647c-7.551-8.129-29.039-7.744-35.428,9.679
			C349.876,13.252,352.78,18.093,352.974,20.031z"/>
		<g>
			<path fill="#3D2113" d="M370.507,49.004c0.163,0.199,1.026-0.346,2.508-0.809c1.482-0.468,3.628-0.755,6.035-0.554
				c4.832,0.382,8.588,1.983,8.785,1.556c0.23-0.355-3.405-2.75-8.665-3.178c-2.606-0.223-5.048,0.292-6.593,1.113
				C371.019,47.953,370.377,48.87,370.507,49.004z"/>
		</g>
	</g>
	<g>
		<g>
			<g>
				<path fill="#331842" d="M106.965,101.806h5.023l0.883,39.279h-6.79L106.965,101.806z M106.174,89.95h6.604v5.615h-6.604V89.95z"
					/>
				<path fill="#331842" d="M124.591,89.95h9.022c4.65,0,7.797,0.484,9.441,1.455c1.643,0.971,2.465,2.717,2.465,5.235v11.579
					c0,2.127-0.543,3.629-1.628,4.507c-1.086,0.879-3.008,1.41-5.767,1.595c2.945,0.139,4.991,0.647,6.139,1.525
					c1.146,0.879,1.721,2.404,1.721,4.576v13.971c0,2.52-0.822,4.265-2.465,5.235c-1.645,0.971-4.791,1.456-9.441,1.456h-9.487
					V89.95z M130.498,93.729v18.687h2.092c2.697,0,4.496-0.353,5.395-1.058c0.899-0.705,1.35-2.271,1.35-4.698v-7.106
					c0-2.449-0.45-4.033-1.35-4.749c-0.898-0.717-2.697-1.075-5.395-1.075H130.498z M130.498,116.228v21.078h2.186
					c2.852,0,4.735-0.352,5.65-1.057c0.914-0.705,1.371-2.259,1.371-4.663v-9.603c0-2.404-0.457-3.964-1.371-4.681
					c-0.915-0.716-2.799-1.075-5.65-1.075H130.498z"/>
				<path fill="#331842" d="M155.332,105.446h5.721v27.318c0,2.104,0.303,3.554,0.906,4.351c0.605,0.798,1.635,1.196,3.094,1.196
					c1.426,0,2.434-0.41,3.022-1.23s0.884-2.259,0.884-4.316v-27.318h5.812v35.639h-5.348l-0.465-2.184
					c-0.775,0.993-1.736,1.739-2.884,2.235c-1.147,0.497-2.496,0.745-4.046,0.745c-2.449,0-4.179-0.601-5.186-1.803
					c-1.008-1.201-1.512-3.305-1.512-6.309V105.446z"/>
				<path fill="#331842" d="M202.77,114.737v10.574h-13.534v7.522c0,2.127,0.279,3.571,0.837,4.333
					c0.559,0.764,1.551,1.145,2.977,1.145c1.364,0,2.326-0.393,2.884-1.179c0.558-0.785,0.837-2.219,0.837-4.299v-3.952h6v2.912
					c0,3.93-0.714,6.604-2.14,8.025c-1.427,1.422-3.953,2.133-7.581,2.133c-3.597,0-6.115-0.723-7.557-2.167
					s-2.163-4.131-2.163-8.061v-16.987c0-3.952,0.705-6.633,2.116-8.043c1.41-1.409,3.945-2.115,7.604-2.115
					c3.597,0,6.116,0.723,7.558,2.167C202.049,108.191,202.77,110.854,202.77,114.737z M196.77,113.663
					c0-2.104-0.279-3.537-0.837-4.299c-0.558-0.764-1.52-1.145-2.884-1.145c-1.395,0-2.379,0.404-2.953,1.213
					c-0.574,0.81-0.86,2.219-0.86,4.23v8.043h7.534V113.663z"/>
				<path fill="#331842" d="M230.766,112.761v28.324h-5.721v-27.422c0-2.034-0.301-3.45-0.906-4.247
					c-0.604-0.798-1.635-1.196-3.092-1.196c-1.428,0-2.45,0.41-3.07,1.23c-0.621,0.821-0.93,2.225-0.93,4.213v27.422h-5.721v-35.639
					h5.349l0.372,2.184c0.774-0.993,1.759-1.75,2.953-2.271c1.193-0.52,2.564-0.78,4.115-0.78c2.418,0,4.131,0.607,5.139,1.82
					C230.262,107.613,230.766,109.733,230.766,112.761z"/>
				<path fill="#331842" d="M88.688,153.843v9.604h4.371v3.605h-4.371v26.486c0,0.994,0.256,1.682,0.768,2.062
					c0.512,0.382,1.434,0.572,2.768,0.572h0.836v3.709c-0.341,0.023-0.689,0.041-1.046,0.053c-0.356,0.011-0.86,0.018-1.511,0.018
					c-2.916,0-4.9-0.526-5.953-1.578c-1.055-1.051-1.582-3.392-1.582-7.02v-24.303h-3.115v-3.605h3.115v-7.869L88.688,153.843z"/>
				<path fill="#331842" d="M112.22,162.649v4.333h-0.977c-2.45,0-4.186,0.457-5.208,1.369c-1.023,0.913-1.535,2.491-1.535,4.732
					v26.001h-5.721v-35.639h5.349l0.372,2.184c0.806-0.971,1.79-1.721,2.953-2.253c1.162-0.531,2.426-0.798,3.79-0.798
					c0.093,0,0.248,0.013,0.466,0.035C111.925,162.638,112.096,162.649,112.22,162.649z"/>
				<path fill="#331842" d="M135.008,171.767v27.318h-5.348l-0.372-2.184c-0.775,0.993-1.761,1.75-2.953,2.271
					c-1.194,0.52-2.565,0.78-4.116,0.78c-2.418,0-4.132-0.607-5.139-1.82c-1.008-1.214-1.512-3.334-1.512-6.361v-7.107
					c0-2.796,1.016-4.784,3.047-5.963c2.029-1.179,5.588-1.838,10.673-1.977v-5.061c0-2.15-0.272-3.594-0.813-4.334
					c-0.543-0.739-1.512-1.109-2.907-1.109c-1.333,0-2.286,0.341-2.86,1.022c-0.574,0.683-0.859,1.854-0.859,3.519v1.977h-5.721
					v-0.971c0-3.559,0.697-5.98,2.092-7.263c1.396-1.283,3.876-1.925,7.441-1.925c3.473,0,5.898,0.647,7.279,1.941
					C134.318,165.815,135.008,168.23,135.008,171.767z M129.242,180.19c-2.977,0.093-5,0.486-6.07,1.18
					c-1.069,0.693-1.604,1.941-1.604,3.744v5.72c0,2.127,0.279,3.571,0.836,4.333c0.559,0.764,1.551,1.145,2.977,1.145
					c1.396,0,2.396-0.41,3-1.23c0.605-0.82,0.907-2.236,0.907-4.247L129.242,180.19z"/>
				<path fill="#331842" d="M143.752,147.95h5.72v17.68c0.774-0.993,1.759-1.75,2.954-2.271c1.192-0.52,2.564-0.78,4.115-0.78
					c2.418,0,4.131,0.607,5.139,1.82c1.008,1.214,1.512,3.334,1.512,6.361v21.01c0,3.027-0.504,5.147-1.512,6.361
					c-1.008,1.213-2.721,1.82-5.139,1.82c-1.551,0-2.923-0.261-4.115-0.78c-1.195-0.521-2.18-1.277-2.954-2.271l-0.372,2.184h-5.348
					V147.95z M157.191,171.663c0-2.104-0.278-3.537-0.836-4.299c-0.559-0.764-1.551-1.145-2.977-1.145c-1.396,0-2.396,0.41-3,1.23
					c-0.604,0.821-0.907,2.225-0.907,4.213v19.171c0,2.034,0.294,3.455,0.884,4.265c0.589,0.809,1.597,1.213,3.023,1.213
					c1.426,0,2.418-0.381,2.977-1.145c0.558-0.762,0.836-2.206,0.836-4.333V171.663z"/>
				<path fill="#331842" d="M190.444,171.767v27.318h-5.349l-0.371-2.184c-0.775,0.993-1.761,1.75-2.953,2.271
					c-1.194,0.52-2.566,0.78-4.117,0.78c-2.418,0-4.131-0.607-5.139-1.82c-1.008-1.214-1.512-3.334-1.512-6.361v-7.107
					c0-2.796,1.016-4.784,3.047-5.963c2.03-1.179,5.588-1.838,10.674-1.977v-5.061c0-2.15-0.272-3.594-0.814-4.334
					c-0.543-0.739-1.512-1.109-2.906-1.109c-1.334,0-2.287,0.341-2.86,1.022c-0.574,0.683-0.86,1.854-0.86,3.519v1.977h-5.721
					v-0.971c0-3.559,0.697-5.98,2.093-7.263c1.396-1.283,3.876-1.925,7.441-1.925c3.472,0,5.898,0.647,7.278,1.941
					C189.754,165.815,190.444,168.23,190.444,171.767z M184.678,180.19c-2.977,0.093-5,0.486-6.069,1.18s-1.604,1.941-1.604,3.744
					v5.72c0,2.127,0.279,3.571,0.837,4.333c0.558,0.764,1.55,1.145,2.977,1.145c1.396,0,2.396-0.41,3-1.23s0.907-2.236,0.907-4.247
					L184.678,180.19z"/>
				<path fill="#331842" d="M199.188,163.446h5.721v41.047c0,3.605-0.535,5.951-1.605,7.037c-1.068,1.087-3.076,1.63-6.021,1.63
					c-0.651,0-1.156-0.012-1.512-0.034c-0.357-0.023-0.675-0.047-0.953-0.07v-3.674h0.836c1.334,0,2.256-0.197,2.768-0.59
					c0.512-0.394,0.768-1.098,0.768-2.115V163.446z M198.908,147.95h6.371v5.408h-6.371V147.95z"/>
				<path fill="#331842" d="M232.998,172.737v17.057c0,3.93-0.713,6.604-2.139,8.025c-1.428,1.422-3.953,2.133-7.582,2.133
					c-3.596,0-6.115-0.723-7.557-2.167s-2.162-4.131-2.162-8.061v-16.987c0-3.952,0.705-6.633,2.115-8.043
					c1.411-1.409,3.945-2.115,7.604-2.115c3.598,0,6.117,0.723,7.559,2.167C232.277,166.191,232.998,168.854,232.998,172.737z
					 M226.998,171.663c0-2.104-0.279-3.537-0.836-4.299c-0.559-0.764-1.52-1.145-2.885-1.145c-1.395,0-2.379,0.404-2.952,1.213
					c-0.574,0.81-0.86,2.219-0.86,4.23v19.171c0,2.127,0.279,3.571,0.837,4.333c0.558,0.764,1.55,1.145,2.976,1.145
					c1.365,0,2.326-0.393,2.885-1.179c0.557-0.785,0.836-2.219,0.836-4.299V171.663z"/>
				<path fill="#331842" d="M243.462,147.95h6.79l-0.884,39.278h-5.022L243.462,147.95z M243.555,193.469h6.604v5.616h-6.604
					V193.469z"/>
			</g>
		</g>
	</g>
	<polygon fill="#37A736" points="87.888,219.626 98.588,256.63 238.479,249.04 247.054,219.626 	"/>
	<g>
		<g>
			<path fill="#331842" d="M126.747,226.55h7.017v1.413h-2.463v16.404h-2.09v-16.404h-2.464V226.55z"/>
			<path fill="#331842" d="M135.92,226.55h5.703v1.413h-3.646v6.414h3.484v1.401h-3.484v7.176h3.744v1.413h-5.801V226.55z"/>
			<path fill="#331842" d="M144.687,226.55h3.144c1.621,0,2.717,0.169,3.289,0.507c0.573,0.339,0.859,0.946,0.859,1.824v4.034
				c0,0.741-0.189,1.265-0.566,1.571c-0.379,0.306-1.049,0.491-2.01,0.556c1.025,0.048,1.738,0.226,2.139,0.531
				c0.399,0.306,0.6,0.838,0.6,1.595v7.199h-2.188v-6.656c0-0.837-0.16-1.381-0.479-1.631c-0.318-0.249-0.975-0.374-1.969-0.374
				h-0.762v8.661h-2.058V226.55z M146.744,227.866v6.511h0.729c0.94,0,1.566-0.122,1.88-0.368c0.312-0.246,0.47-0.791,0.47-1.637
				v-2.477c0-0.854-0.157-1.405-0.47-1.655c-0.313-0.249-0.939-0.374-1.88-0.374H146.744z"/>
			<path fill="#331842" d="M155.738,226.55h3.581l2.317,16.404h0.162l2.269-16.404h3.484v17.817h-1.799v-16.477h-0.324
				l-2.333,16.477h-2.885l-2.415-16.477h-0.275v16.477h-1.782V226.55z"/>
			<path fill="#331842" d="M171.263,226.55h2.188v17.817h-2.188V226.55z"/>
			<path fill="#331842" d="M177.097,226.55h2.819l3.42,16.754h0.031l-0.307-16.754h1.863v17.817h-2.853l-3.387-16.525h-0.065
				l0.293,16.525h-1.815V226.55z"/>
			<path fill="#331842" d="M190.644,226.55h3.015l3.451,17.817h-2.221l-0.826-4.953h-3.922l-0.891,4.953h-2.172L190.644,226.55z
				 M192.07,227.866l-1.734,10.243h3.451l-1.62-10.243H192.07z"/>
			<path fill="#331842" d="M199.297,226.55h3.145c1.62,0,2.717,0.169,3.289,0.507c0.572,0.339,0.859,0.946,0.859,1.824v4.034
				c0,0.741-0.189,1.265-0.567,1.571c-0.378,0.306-1.048,0.491-2.01,0.556c1.026,0.048,1.739,0.226,2.14,0.531
				c0.398,0.306,0.6,0.838,0.6,1.595v7.199h-2.188v-6.656c0-0.837-0.16-1.381-0.479-1.631c-0.318-0.249-0.975-0.374-1.969-0.374
				h-0.762v8.661h-2.059V226.55z M201.355,227.866v6.511h0.729c0.94,0,1.566-0.122,1.881-0.368c0.312-0.246,0.469-0.791,0.469-1.637
				v-2.477c0-0.854-0.156-1.405-0.469-1.655c-0.314-0.249-0.94-0.374-1.881-0.374H201.355z"/>
		</g>
	</g>
	<g>
		<g>
			<path fill-rule="evenodd" clip-rule="evenodd" fill="#331842" d="M136.816,297.169c0.109-0.15,0.199-0.244,0.258-0.355
				c0.586-1.105,1.16-2.217,1.753-3.322c0.874-1.627,1.763-3.246,2.644-4.869c0.595-1.098,1.188-2.199,1.78-3.301
				c1.222-2.27,2.44-4.539,3.663-6.809c0.305-0.568,0.625-1.131,0.927-1.701c0.075-0.137,0.11-0.297,0.22-0.611
				c-7.806,1.805-15.465,3.574-23.258,5.373c0.215,0.225,0.276,0.318,0.362,0.373c2.024,1.303,4.05,2.604,6.079,3.902
				c0.326,0.209,0.309,0.518-0.05,0.787c-1.423,1.074-2.845,2.152-4.267,3.232c-0.944,0.717-1.889,1.438-2.835,2.154
				c-0.771,0.586-1.558,1.154-2.312,1.76c-0.543,0.436-1.02,0.959-1.576,1.371c-0.328,0.242-0.225,0.428-0.042,0.615
				c0.657,0.682,1.322,1.348,1.72,2.234c0.18,0.398,0.538,0.328,0.804,0.115c0.606-0.484,1.167-1.025,1.771-1.518
				c0.219-0.176,0.528-0.24,0.751-0.414c0.866-0.672,1.699-1.383,2.568-2.049c0.81-0.621,1.657-1.193,2.476-1.805
				c0.961-0.719,1.891-1.479,2.873-2.164c0.276-0.191,0.357-0.832,0.828-0.549c0.253,0.152,0.371,0.574,0.487,0.898
				c0.32,0.881,0.608,1.777,0.909,2.666c0.398,1.178,0.793,2.354,1.199,3.525C136.6,296.858,136.708,296.987,136.816,297.169z"/>
			<path fill-rule="evenodd" clip-rule="evenodd" fill="#331842" d="M143.209,263.72c0.02,0.105,0.025,0.219,0.062,0.32
				c1.097,3.143,2.197,6.287,3.296,9.43c0.174,0.496,0.504,0.291,0.827,0.207c0.374-0.1,0.395-0.301,0.279-0.629
				c-1.08-3.066-2.145-6.141-3.229-9.207c-0.064-0.182-0.248-0.428-0.402-0.449c-0.281-0.041-0.584,0.068-0.879,0.115
				C143.18,263.579,143.195,263.649,143.209,263.72z"/>
			<path fill-rule="evenodd" clip-rule="evenodd" fill="#331842" d="M150.925,268.665c-0.673,1.396-1.348,2.791-2.018,4.188
				c-0.156,0.328-0.409,0.65,0.114,0.936c0.471,0.254,0.693,0.039,0.877-0.338c0.256-0.537,0.487-1.084,0.75-1.617
				c1.095-2.205,2.197-4.406,3.297-6.609c0.074-0.15,0.145-0.303,0.214-0.455c0.188-0.412-0.03-0.609-0.376-0.783
				c-0.379-0.189-0.58-0.061-0.747,0.289C152.338,265.741,151.629,267.202,150.925,268.665
				C150.925,268.665,150.925,268.665,150.925,268.665z"/>
			<path fill-rule="evenodd" clip-rule="evenodd" fill="#331842" d="M155.692,273.653c0.339-0.023,0.595,0.01,0.816-0.062
				c1.24-0.414,2.466-0.879,3.714-1.275c0.547-0.174,0.357-0.486,0.273-0.828c-0.094-0.387-0.289-0.447-0.654-0.314
				c-1.371,0.496-2.787,0.887-4.119,1.471c-1.656,0.725-3.432,1.064-5.095,1.756c-0.407,0.17-0.501,0.357-0.372,0.76
				c0.125,0.393,0.27,0.547,0.716,0.383c1.381-0.518,2.782-0.977,4.166-1.482C155.366,273.976,155.547,273.763,155.692,273.653z"/>
			<path fill-rule="evenodd" clip-rule="evenodd" fill="#331842" d="M154.829,279.819c1.432,0.691,2.864,1.381,4.294,2.074
				c0.328,0.16,0.608,0.279,0.828-0.174c0.208-0.43,0.067-0.646-0.324-0.836c-2.868-1.375-5.729-2.76-8.593-4.141
				c-0.333-0.158-0.634-0.307-0.863,0.193c-0.235,0.508,0.043,0.662,0.412,0.838C152.002,278.448,153.414,279.136,154.829,279.819z"
				/>
			<path fill-rule="evenodd" clip-rule="evenodd" fill="#331842" d="M140.768,273.028c1.449,0.699,2.896,1.391,4.341,2.1
				c0.42,0.205,0.737,0.172,0.838-0.324c0.032-0.162-0.054-0.416-0.177-0.523c-0.221-0.193-0.504-0.316-0.771-0.447
				c-2.672-1.299-5.349-2.588-8.016-3.898c-0.419-0.205-0.607-0.066-0.781,0.303c-0.166,0.355-0.125,0.574,0.262,0.754
				c1.438,0.674,2.863,1.373,4.293,2.062C140.76,273.046,140.764,273.038,140.768,273.028z"/>
			<path fill-rule="evenodd" clip-rule="evenodd" fill="#331842" d="M152.887,288.044c-0.283-0.697-0.606-1.4-0.857-2.131
				c-0.334-0.965-0.606-1.953-0.921-2.926c-0.116-0.357-0.28-0.699-0.413-1.051c-0.236-0.627-0.479-1.25-0.689-1.885
				c-0.166-0.5-0.295-1.016-0.434-1.525c-0.092-0.342-0.262-0.52-0.648-0.4c-0.33,0.1-0.556,0.209-0.38,0.623
				c0.218,0.506,0.419,1.023,0.597,1.545c0.229,0.666,0.419,1.346,0.64,2.014c0.552,1.666,1.113,3.328,1.668,4.992
				c0.097,0.293,0.188,0.586,0.278,0.883c0.094,0.316,0.307,0.355,0.566,0.232C152.471,288.331,152.631,288.206,152.887,288.044z"/>
		</g>
		<g>
			<path fill="#331842" d="M145.852,309.307h-1.391v-0.93c0-0.271-0.015-0.439-0.045-0.506c-0.029-0.068-0.095-0.102-0.195-0.102
				c-0.115,0-0.188,0.041-0.219,0.123s-0.046,0.258-0.046,0.527v2.484c0,0.26,0.015,0.43,0.046,0.51
				c0.031,0.078,0.101,0.119,0.209,0.119c0.104,0,0.17-0.041,0.203-0.119c0.031-0.08,0.047-0.266,0.047-0.561v-0.672h1.391v0.209
				c0,0.553-0.039,0.945-0.117,1.178c-0.078,0.23-0.25,0.434-0.518,0.607c-0.268,0.176-0.598,0.262-0.99,0.262
				c-0.407,0-0.743-0.074-1.008-0.221c-0.264-0.148-0.439-0.352-0.525-0.613c-0.086-0.26-0.129-0.652-0.129-1.178v-1.562
				c0-0.385,0.014-0.674,0.04-0.867s0.105-0.379,0.236-0.557s0.313-0.318,0.545-0.422c0.232-0.102,0.499-0.152,0.802-0.152
				c0.409,0,0.748,0.078,1.014,0.236c0.267,0.158,0.441,0.357,0.525,0.594s0.125,0.604,0.125,1.104V309.307z"/>
			<path fill="#331842" d="M149.334,310.211h-1.728v0.949c0,0.197,0.015,0.326,0.043,0.383s0.084,0.086,0.165,0.086
				c0.102,0,0.17-0.039,0.203-0.115c0.035-0.074,0.052-0.223,0.052-0.439v-0.578h1.265v0.322c0,0.271-0.017,0.48-0.051,0.625
				c-0.034,0.146-0.113,0.301-0.239,0.467c-0.126,0.164-0.284,0.289-0.478,0.371s-0.435,0.123-0.725,0.123
				c-0.283,0-0.531-0.041-0.747-0.121c-0.216-0.082-0.384-0.193-0.504-0.336s-0.203-0.299-0.249-0.469
				c-0.047-0.17-0.07-0.42-0.07-0.746v-1.277c0-0.383,0.053-0.686,0.156-0.906c0.104-0.223,0.272-0.393,0.508-0.51
				c0.236-0.117,0.507-0.176,0.812-0.176c0.375,0,0.684,0.07,0.928,0.213c0.243,0.141,0.414,0.33,0.512,0.564
				s0.146,0.564,0.146,0.988V310.211z M147.996,309.498v-0.32c0-0.227-0.012-0.373-0.036-0.439s-0.073-0.1-0.148-0.1
				c-0.093,0-0.149,0.027-0.172,0.084s-0.033,0.207-0.033,0.455v0.32H147.996z"/>
			<path fill="#331842" d="M151.105,307.941l-0.053,0.576c0.193-0.412,0.475-0.631,0.842-0.654v1.541
				c-0.244,0-0.424,0.033-0.538,0.1s-0.185,0.158-0.212,0.275c-0.025,0.119-0.039,0.391-0.039,0.814v1.732h-1.335v-4.385H151.105z"
				/>
			<path fill="#331842" d="M153.721,307.357v0.689h0.361v0.693h-0.361v2.346c0,0.289,0.016,0.449,0.045,0.482
				c0.03,0.033,0.154,0.051,0.372,0.051v0.707H153.6c-0.305,0-0.521-0.014-0.651-0.039s-0.244-0.084-0.343-0.174
				c-0.1-0.092-0.162-0.197-0.186-0.314c-0.024-0.117-0.037-0.395-0.037-0.83v-2.229h-0.287v-0.693h0.287v-0.689H153.721z"/>
			<path fill="#331842" d="M155.75,306.977v0.697h-1.375v-0.697H155.75z M155.75,307.941v4.385h-1.375v-4.385H155.75z"/>
			<path fill="#331842" d="M157.931,306.977v0.678c-0.275,0-0.438,0.012-0.487,0.037c-0.05,0.025-0.074,0.098-0.074,0.217v0.139
				h0.562v0.693h-0.317v3.586h-1.334v-3.586h-0.275v-0.693h0.275c0-0.287,0.01-0.48,0.029-0.578c0.02-0.096,0.068-0.184,0.146-0.26
				c0.078-0.074,0.188-0.133,0.329-0.172c0.141-0.041,0.36-0.061,0.657-0.061H157.931z"/>
			<path fill="#331842" d="M159.559,306.977v0.697h-1.374v-0.697H159.559z M159.559,307.941v4.385h-1.374v-4.385H159.559z"/>
			<path fill="#331842" d="M162.988,309.598h-1.259v-0.506c0-0.176-0.015-0.297-0.043-0.359s-0.081-0.094-0.158-0.094
				s-0.129,0.027-0.155,0.082c-0.027,0.057-0.04,0.18-0.04,0.371v2.068c0,0.156,0.021,0.273,0.06,0.352s0.098,0.117,0.176,0.117
				c0.09,0,0.15-0.041,0.183-0.123c0.032-0.08,0.048-0.234,0.048-0.463v-0.521h1.189c-0.002,0.35-0.015,0.613-0.038,0.789
				c-0.022,0.174-0.097,0.354-0.222,0.537c-0.124,0.184-0.287,0.324-0.486,0.416c-0.201,0.094-0.449,0.141-0.744,0.141
				c-0.377,0-0.675-0.064-0.895-0.193c-0.221-0.129-0.377-0.309-0.468-0.541s-0.138-0.562-0.138-0.99v-1.244
				c0-0.373,0.038-0.654,0.113-0.844c0.074-0.189,0.234-0.357,0.479-0.506s0.542-0.223,0.893-0.223c0.348,0,0.645,0.072,0.892,0.221
				c0.247,0.146,0.411,0.334,0.492,0.559S162.988,309.186,162.988,309.598z"/>
			<path fill="#331842" d="M164.578,309.641h-1.253v-0.295c0-0.34,0.039-0.602,0.118-0.785c0.078-0.184,0.234-0.346,0.471-0.486
				c0.234-0.141,0.541-0.211,0.918-0.211c0.451,0,0.791,0.078,1.021,0.238s0.366,0.355,0.413,0.588s0.069,0.711,0.069,1.436v2.201
				h-1.298v-0.391c-0.082,0.156-0.188,0.273-0.316,0.352s-0.282,0.117-0.461,0.117c-0.232,0-0.447-0.064-0.643-0.195
				c-0.194-0.131-0.292-0.418-0.292-0.861v-0.359c0-0.328,0.052-0.553,0.155-0.672s0.36-0.258,0.77-0.416
				c0.438-0.172,0.674-0.287,0.704-0.346c0.03-0.061,0.046-0.182,0.046-0.363c0-0.23-0.017-0.379-0.051-0.449
				c-0.034-0.068-0.091-0.104-0.17-0.104c-0.091,0-0.146,0.029-0.169,0.088s-0.032,0.209-0.032,0.453V309.641z M165,310.24
				c-0.213,0.158-0.338,0.289-0.371,0.395c-0.034,0.105-0.051,0.258-0.051,0.455c0,0.227,0.014,0.373,0.044,0.439
				s0.089,0.1,0.177,0.1c0.084,0,0.139-0.025,0.164-0.078c0.025-0.051,0.037-0.188,0.037-0.408V310.24z"/>
			<path fill="#331842" d="M169.83,306.977v5.35h-1.334v-0.318c-0.129,0.133-0.263,0.232-0.404,0.297
				c-0.141,0.066-0.288,0.1-0.441,0.1c-0.208,0-0.387-0.055-0.539-0.162c-0.152-0.109-0.25-0.236-0.293-0.379
				s-0.064-0.377-0.064-0.701v-2.051c0-0.338,0.021-0.576,0.064-0.717s0.143-0.266,0.296-0.371c0.154-0.107,0.339-0.16,0.552-0.16
				c0.166,0,0.316,0.029,0.455,0.088c0.137,0.061,0.262,0.15,0.375,0.27v-1.244H169.83z M168.496,309.045
				c0-0.16-0.015-0.268-0.042-0.324c-0.027-0.055-0.082-0.082-0.163-0.082c-0.08,0-0.133,0.025-0.16,0.074s-0.042,0.16-0.042,0.332
				v2.148c0,0.178,0.013,0.295,0.04,0.352c0.026,0.055,0.076,0.084,0.152,0.084c0.086,0,0.143-0.031,0.172-0.094
				c0.027-0.062,0.043-0.217,0.043-0.461V309.045z"/>
			<path fill="#331842" d="M173.328,309.48v1.074c0,0.395-0.02,0.684-0.059,0.867c-0.04,0.184-0.125,0.355-0.255,0.516
				s-0.296,0.277-0.501,0.354c-0.203,0.076-0.438,0.113-0.701,0.113c-0.295,0-0.545-0.031-0.75-0.098
				c-0.205-0.064-0.364-0.162-0.478-0.293s-0.194-0.289-0.243-0.477c-0.048-0.186-0.072-0.465-0.072-0.836v-1.125
				c0-0.406,0.044-0.725,0.133-0.953c0.088-0.23,0.246-0.414,0.475-0.553c0.229-0.139,0.522-0.207,0.879-0.207
				c0.3,0,0.557,0.043,0.771,0.133s0.381,0.205,0.498,0.35c0.116,0.143,0.195,0.289,0.238,0.441S173.328,309.17,173.328,309.48z
				 M171.994,309.15c0-0.225-0.012-0.365-0.037-0.424c-0.023-0.059-0.075-0.088-0.154-0.088c-0.08,0-0.133,0.029-0.158,0.088
				c-0.027,0.059-0.041,0.199-0.041,0.424v1.979c0,0.207,0.014,0.344,0.041,0.406c0.025,0.062,0.078,0.094,0.154,0.094
				c0.08,0,0.132-0.029,0.157-0.086s0.038-0.182,0.038-0.371V309.15z"/>
			<path fill="#331842" d="M177.911,309.598h-1.259v-0.506c0-0.176-0.014-0.297-0.043-0.359c-0.028-0.062-0.082-0.094-0.158-0.094
				c-0.077,0-0.129,0.027-0.155,0.082c-0.026,0.057-0.04,0.18-0.04,0.371v2.068c0,0.156,0.02,0.273,0.06,0.352
				s0.099,0.117,0.175,0.117c0.091,0,0.152-0.041,0.184-0.123c0.032-0.08,0.048-0.234,0.048-0.463v-0.521h1.189
				c-0.002,0.35-0.015,0.613-0.038,0.789c-0.023,0.174-0.097,0.354-0.221,0.537c-0.125,0.184-0.287,0.324-0.488,0.416
				c-0.199,0.094-0.447,0.141-0.742,0.141c-0.377,0-0.676-0.064-0.896-0.193c-0.22-0.129-0.375-0.309-0.467-0.541
				s-0.137-0.562-0.137-0.99v-1.244c0-0.373,0.037-0.654,0.111-0.844c0.075-0.189,0.234-0.357,0.479-0.506s0.542-0.223,0.892-0.223
				c0.349,0,0.646,0.072,0.893,0.221c0.246,0.146,0.41,0.334,0.492,0.559S177.911,309.186,177.911,309.598z"/>
			<path fill="#331842" d="M181.327,309.48v1.074c0,0.395-0.02,0.684-0.06,0.867c-0.039,0.184-0.124,0.355-0.254,0.516
				c-0.131,0.16-0.297,0.277-0.501,0.354s-0.438,0.113-0.702,0.113c-0.295,0-0.545-0.031-0.75-0.098
				c-0.205-0.064-0.363-0.162-0.477-0.293s-0.195-0.289-0.243-0.477c-0.048-0.186-0.073-0.465-0.073-0.836v-1.125
				c0-0.406,0.045-0.725,0.133-0.953c0.088-0.23,0.246-0.414,0.476-0.553s0.522-0.207,0.879-0.207c0.3,0,0.557,0.043,0.771,0.133
				c0.215,0.09,0.381,0.205,0.498,0.35c0.117,0.143,0.196,0.289,0.239,0.441S181.327,309.17,181.327,309.48z M179.992,309.15
				c0-0.225-0.012-0.365-0.036-0.424s-0.075-0.088-0.155-0.088c-0.079,0-0.132,0.029-0.158,0.088
				c-0.027,0.059-0.04,0.199-0.04,0.424v1.979c0,0.207,0.013,0.344,0.04,0.406c0.026,0.062,0.078,0.094,0.155,0.094
				c0.079,0,0.132-0.029,0.157-0.086s0.037-0.182,0.037-0.371V309.15z"/>
			<path fill="#331842" d="M183.085,307.941l-0.023,0.418c0.104-0.166,0.228-0.291,0.37-0.373s0.307-0.123,0.489-0.123
				c0.356,0,0.638,0.164,0.843,0.496c0.111-0.166,0.238-0.291,0.379-0.373c0.142-0.082,0.298-0.123,0.47-0.123
				c0.227,0,0.415,0.055,0.563,0.164c0.148,0.111,0.244,0.246,0.285,0.404c0.042,0.16,0.062,0.42,0.062,0.779v3.115h-1.295v-2.857
				c0-0.375-0.012-0.607-0.037-0.695c-0.025-0.09-0.084-0.135-0.178-0.135s-0.155,0.045-0.183,0.133
				c-0.028,0.088-0.042,0.32-0.042,0.697v2.857h-1.295v-2.785c0-0.43-0.01-0.688-0.031-0.773c-0.021-0.086-0.078-0.129-0.174-0.129
				c-0.059,0-0.109,0.023-0.151,0.068s-0.065,0.1-0.069,0.164c-0.004,0.066-0.007,0.203-0.007,0.416v3.039h-1.295v-4.385H183.085z"
				/>
			<path fill="#331842" d="M188.341,307.941l-0.022,0.387c0.118-0.156,0.249-0.273,0.393-0.35c0.143-0.078,0.299-0.115,0.469-0.115
				c0.207,0,0.387,0.055,0.537,0.166s0.245,0.24,0.282,0.385c0.038,0.145,0.056,0.393,0.056,0.74V311c0,0.4-0.023,0.684-0.07,0.852
				s-0.145,0.303-0.291,0.402c-0.146,0.102-0.322,0.15-0.529,0.15c-0.166,0-0.318-0.037-0.46-0.115s-0.27-0.191-0.386-0.344v1.004
				h-1.336v-5.008H188.341z M188.721,309.217c0-0.271-0.01-0.436-0.029-0.492s-0.075-0.086-0.166-0.086
				c-0.088,0-0.145,0.033-0.17,0.1s-0.037,0.225-0.037,0.479v1.816c0,0.266,0.013,0.43,0.039,0.496s0.084,0.1,0.172,0.1
				c0.086,0,0.139-0.031,0.16-0.092s0.031-0.207,0.031-0.439V309.217z"/>
			<path fill="#331842" d="M193.518,310.211h-1.729v0.949c0,0.197,0.016,0.326,0.043,0.383c0.029,0.057,0.084,0.086,0.166,0.086
				c0.102,0,0.169-0.039,0.203-0.115c0.034-0.074,0.051-0.223,0.051-0.439v-0.578h1.266v0.322c0,0.271-0.018,0.48-0.051,0.625
				c-0.035,0.146-0.114,0.301-0.24,0.467c-0.125,0.164-0.284,0.289-0.477,0.371c-0.193,0.082-0.436,0.123-0.726,0.123
				c-0.282,0-0.53-0.041-0.747-0.121c-0.215-0.082-0.383-0.193-0.504-0.336c-0.119-0.143-0.203-0.299-0.249-0.469
				s-0.069-0.42-0.069-0.746v-1.277c0-0.383,0.052-0.686,0.155-0.906c0.104-0.223,0.272-0.393,0.509-0.51s0.506-0.176,0.812-0.176
				c0.375,0,0.684,0.07,0.927,0.213c0.243,0.141,0.414,0.33,0.513,0.564c0.098,0.234,0.146,0.564,0.146,0.988V310.211z
				 M192.18,309.498v-0.32c0-0.227-0.012-0.373-0.037-0.439c-0.023-0.066-0.073-0.1-0.148-0.1c-0.092,0-0.149,0.027-0.172,0.084
				c-0.021,0.057-0.033,0.207-0.033,0.455v0.32H192.18z"/>
			<path fill="#331842" d="M195.361,307.357v0.689h0.359v0.693h-0.359v2.346c0,0.289,0.015,0.449,0.045,0.482
				c0.029,0.033,0.152,0.051,0.371,0.051v0.707h-0.539c-0.303,0-0.521-0.014-0.65-0.039s-0.244-0.084-0.344-0.174
				c-0.099-0.092-0.16-0.197-0.185-0.314s-0.036-0.395-0.036-0.83v-2.229h-0.287v-0.693h0.287v-0.689H195.361z"/>
			<path fill="#331842" d="M199.035,309.48v1.074c0,0.395-0.02,0.684-0.061,0.867c-0.039,0.184-0.123,0.355-0.254,0.516
				c-0.13,0.16-0.297,0.277-0.5,0.354c-0.204,0.076-0.438,0.113-0.702,0.113c-0.296,0-0.546-0.031-0.75-0.098
				c-0.205-0.064-0.364-0.162-0.478-0.293s-0.194-0.289-0.242-0.477c-0.049-0.186-0.073-0.465-0.073-0.836v-1.125
				c0-0.406,0.044-0.725,0.132-0.953c0.088-0.23,0.247-0.414,0.477-0.553c0.229-0.139,0.521-0.207,0.879-0.207
				c0.299,0,0.557,0.043,0.771,0.133c0.215,0.09,0.381,0.205,0.497,0.35c0.117,0.143,0.197,0.289,0.24,0.441
				S199.035,309.17,199.035,309.48z M197.7,309.15c0-0.225-0.013-0.365-0.036-0.424c-0.024-0.059-0.076-0.088-0.156-0.088
				c-0.078,0-0.131,0.029-0.158,0.088c-0.026,0.059-0.039,0.199-0.039,0.424v1.979c0,0.207,0.013,0.344,0.039,0.406
				c0.027,0.062,0.078,0.094,0.156,0.094s0.131-0.029,0.156-0.086s0.038-0.182,0.038-0.371V309.15z"/>
		</g>
		<g>
			<path fill="#331842" d="M147.172,294.91v0.949h-1.209v-0.922c0-0.385-0.057-0.652-0.167-0.799
				c-0.111-0.148-0.309-0.223-0.591-0.223c-0.259,0-0.439,0.084-0.541,0.252c-0.104,0.168-0.154,0.521-0.154,1.059v6.141
				c0,0.551,0.055,0.91,0.163,1.076s0.307,0.248,0.595,0.248c0.247,0,0.424-0.078,0.533-0.234c0.107-0.158,0.162-0.424,0.162-0.801
				v-1.07h1.209v1.104c0,0.678-0.142,1.135-0.424,1.375c-0.283,0.24-0.789,0.359-1.516,0.359c-0.717,0-1.215-0.154-1.498-0.463
				c-0.283-0.311-0.424-0.887-0.424-1.729v-5.871c0-0.838,0.141-1.41,0.424-1.715s0.781-0.457,1.498-0.457
				c0.733,0,1.24,0.119,1.52,0.357C147.031,293.783,147.172,294.238,147.172,294.91z"/>
			<path fill="#331842" d="M148.669,293.338h1.146v9.131h2.066v0.787h-3.212V293.338z"/>
			<path fill="#331842" d="M152.99,293.338h1.218v9.918h-1.218V293.338z"/>
			<path fill="#331842" d="M160.045,294.91v0.949h-1.209v-0.922c0-0.385-0.057-0.652-0.167-0.799
				c-0.111-0.148-0.309-0.223-0.591-0.223c-0.259,0-0.439,0.084-0.541,0.252c-0.104,0.168-0.154,0.521-0.154,1.059v6.141
				c0,0.551,0.055,0.91,0.163,1.076s0.307,0.248,0.595,0.248c0.247,0,0.424-0.078,0.533-0.234c0.107-0.158,0.162-0.424,0.162-0.801
				v-1.07h1.209v1.104c0,0.678-0.142,1.135-0.424,1.375c-0.283,0.24-0.789,0.359-1.516,0.359c-0.717,0-1.215-0.154-1.498-0.463
				c-0.283-0.311-0.424-0.887-0.424-1.729v-5.871c0-0.838,0.141-1.41,0.424-1.715s0.781-0.457,1.498-0.457
				c0.733,0,1.24,0.119,1.52,0.357C159.904,293.783,160.045,294.238,160.045,294.91z"/>
			<path fill="#331842" d="M164.365,293.338h1.48c0.901,0,1.515,0.096,1.84,0.285c0.324,0.191,0.486,0.527,0.486,1.012v2.852
				c0,0.484-0.162,0.82-0.486,1.01c-0.325,0.188-0.938,0.281-1.84,0.281h-0.334v4.479h-1.146V293.338z M165.512,294.07v3.98h0.307
				c0.457,0,0.762-0.068,0.915-0.205s0.229-0.443,0.229-0.924v-1.721c0-0.48-0.076-0.789-0.229-0.926s-0.458-0.205-0.915-0.205
				H165.512z"/>
			<path fill="#331842" d="M170.301,293.338h1.678l1.922,9.918h-1.235l-0.46-2.756h-2.184l-0.496,2.756h-1.209L170.301,293.338z
				 M171.096,294.07l-0.966,5.703h1.921l-0.901-5.703H171.096z"/>
			<path fill="#331842" d="M175.119,293.338h1.75c0.901,0,1.512,0.094,1.83,0.281c0.319,0.189,0.479,0.527,0.479,1.016v2.246
				c0,0.412-0.105,0.705-0.315,0.875s-0.583,0.273-1.118,0.309c0.57,0.027,0.968,0.127,1.19,0.297
				c0.222,0.17,0.333,0.465,0.333,0.887v4.008h-1.217v-3.705c0-0.467-0.09-0.768-0.267-0.908c-0.177-0.139-0.543-0.207-1.097-0.207
				h-0.424v4.82h-1.145V293.338z M176.264,294.07v3.625h0.406c0.523,0,0.872-0.068,1.047-0.205c0.174-0.137,0.262-0.441,0.262-0.912
				v-1.377c0-0.477-0.088-0.783-0.262-0.922c-0.175-0.139-0.523-0.209-1.047-0.209H176.264z"/>
			<path fill="#331842" d="M182.398,293.338h1.678l1.922,9.918h-1.236l-0.46-2.756h-2.183l-0.496,2.756h-1.209L182.398,293.338z
				 M183.192,294.07l-0.966,5.703h1.922l-0.902-5.703H183.192z"/>
			<path fill="#331842" d="M189.281,293.338h1.164l1.236,8.93h0.126l1.163-8.93h1.092l-1.443,9.918h-1.786L189.281,293.338z"/>
			<path fill="#331842" d="M195.38,293.338h3.175v0.787h-2.029v3.57h1.939v0.779h-1.939v3.994h2.084v0.787h-3.229V293.338z"/>
			<path fill="#331842" d="M200.26,293.338h1.75c0.902,0,1.513,0.094,1.832,0.281c0.318,0.189,0.478,0.527,0.478,1.016v2.246
				c0,0.412-0.104,0.705-0.315,0.875s-0.584,0.273-1.119,0.309c0.572,0.027,0.969,0.127,1.191,0.297s0.334,0.465,0.334,0.887v4.008
				h-1.219v-3.705c0-0.467-0.088-0.768-0.266-0.908c-0.178-0.139-0.543-0.207-1.096-0.207h-0.424v4.82h-1.146V293.338z
				 M201.406,294.07v3.625h0.405c0.523,0,0.872-0.068,1.046-0.205c0.176-0.137,0.262-0.441,0.262-0.912v-1.377
				c0-0.477-0.086-0.783-0.262-0.922c-0.174-0.139-0.522-0.209-1.046-0.209H201.406z"/>
		</g>
	</g>
</g>
</svg>
