<?xml version="1.0" encoding="utf-8"?>
<!-- Generator: Adobe Illustrator 16.0.0, SVG Export Plug-In . SVG Version: 6.00 Build 0)  -->
<!DOCTYPE svg PUBLIC "-//W3C//DTD SVG 1.1//EN" "http://www.w3.org/Graphics/SVG/1.1/DTD/svg11.dtd">
<svg version="1.1" id="Capa_1" xmlns="http://www.w3.org/2000/svg" xmlns:xlink="http://www.w3.org/1999/xlink" x="0px" y="0px"
	 width="210.379px" height="48.91px" viewBox="0 0 210.379 48.91" enable-background="new 0 0 210.379 48.91" xml:space="preserve">
<polygon fill="#331842" points="0,0 14.143,48.91 199.045,38.878 210.379,0 "/>
<g>
	<path fill="#F2961C" d="M63.627,12.889v2.251h-2.849v-2.188c0-0.926-0.129-1.562-0.386-1.908c-0.257-0.346-0.714-0.519-1.371-0.519
		c-0.628,0-1.07,0.194-1.328,0.583c-0.257,0.389-0.385,1.077-0.385,2.067v1.149c0,0.479,0.089,0.972,0.268,1.478
		c0.178,0.506,0.439,0.981,0.781,1.429l3.556,4.678c0.601,0.788,1.035,1.53,1.307,2.228s0.407,1.419,0.407,2.164v1.597
		c0,2.043-0.347,3.422-1.039,4.135s-1.924,1.07-3.694,1.07c-1.729,0-2.932-0.288-3.609-0.862c-0.679-0.575-1.018-1.661-1.018-3.258
		v-2.618h2.87v2.539c0,0.958,0.129,1.607,0.386,1.947c0.257,0.341,0.729,0.511,1.414,0.511c0.699,0,1.181-0.193,1.445-0.582
		s0.396-1.243,0.396-2.562v-1.629c0-0.606-0.075-1.158-0.225-1.652c-0.15-0.495-0.368-0.945-0.653-1.35l-3.771-5.014
		c-0.528-0.67-0.932-1.309-1.21-1.916c-0.278-0.606-0.418-1.133-0.418-1.58v-1.373c0-1.831,0.34-3.105,1.018-3.824
		c0.679-0.719,1.846-1.078,3.502-1.078c1.742,0,2.945,0.282,3.609,0.847S63.627,11.292,63.627,12.889z"/>
	<path fill="#F2961C" d="M67.439,9.152h2.892v23.551h-2.892V9.152z"/>
	<path fill="#F2961C" d="M85.153,13.958v1.214h-2.849v-1.533c0-1.191-0.168-2.009-0.504-2.451c-0.335-0.441-0.917-0.662-1.745-0.662
		c-0.8,0-1.364,0.229-1.692,0.687s-0.492,1.267-0.492,2.427v14.546c0,1.245,0.179,2.086,0.538,2.522
		c0.358,0.437,0.997,0.654,1.915,0.654c0.272,0,0.574-0.018,0.904-0.056c0.33-0.037,0.688-0.093,1.076-0.167l0.021-8.271h-2.442
		v-1.74h5.27v11.177c-0.871,0.267-1.721,0.466-2.549,0.599s-1.664,0.2-2.506,0.2c-1.886,0-3.202-0.37-3.952-1.11
		c-0.75-0.739-1.125-2.104-1.125-4.095V13.958c0-1.979,0.371-3.334,1.114-4.063c0.742-0.729,2.063-1.094,3.963-1.094
		c1.885,0,3.198,0.359,3.94,1.078S85.153,11.957,85.153,13.958z"/>
	<path fill="#F2961C" d="M89.758,9.152h2.85v19.064c0,1.224,0.156,2.049,0.471,2.475s0.871,0.639,1.671,0.639
		c0.785,0,1.331-0.213,1.639-0.639c0.307-0.426,0.46-1.251,0.46-2.475V9.152h2.85v18.745c0,2.022-0.364,3.396-1.093,4.119
		s-2.028,1.086-3.898,1.086c-1.842,0-3.127-0.367-3.855-1.103c-0.729-0.734-1.093-2.102-1.093-4.103V9.152z"/>
	<path fill="#F2961C" d="M104.495,9.152h2.892v23.551h-2.892V9.152z"/>
	<path fill="#F2961C" d="M112.206,9.152h7.539v1.868h-4.819v8.479h4.605v1.852h-4.605v9.484h4.948v1.868h-7.668V9.152z"/>
	<path fill="#F2961C" d="M123.793,9.152h3.728l4.52,22.146h0.043l-0.407-22.146h2.463v23.551h-3.77l-4.477-21.843h-0.086
		l0.386,21.843h-2.399V9.152z"/>
	<path fill="#F2961C" d="M136.944,9.152h9.274v1.868h-3.255v21.683H140.2V11.021h-3.256V9.152z"/>
	<path fill="#F2961C" d="M149.068,9.152h7.539v1.868h-4.819v8.479h4.605v1.852h-4.605v9.484h4.948v1.868h-7.668V9.152z"/>
</g>
</svg>
