<?xml version="1.0" encoding="utf-8"?>
<!-- Generator: Adobe Illustrator 16.0.0, SVG Export Plug-In . SVG Version: 6.00 Build 0)  -->
<!DOCTYPE svg PUBLIC "-//W3C//DTD SVG 1.1//EN" "http://www.w3.org/Graphics/SVG/1.1/DTD/svg11.dtd">
<svg version="1.1" id="Capa_1" xmlns="http://www.w3.org/2000/svg" xmlns:xlink="http://www.w3.org/1999/xlink" x="0px" y="0px"
	 width="48.68px" height="206.119px" viewBox="0 0 48.68 206.119" enable-background="new 0 0 48.68 206.119" xml:space="preserve">
<g>
	<polygon fill="#F2961C" points="48.681,0 48.681,140.779 3.892,167.199 0.001,13.85 4.771,12.488 	"/>
	<polygon fill="#2C5A67" points="48.681,140.779 48.681,197.559 4.771,206.119 3.892,167.199 	"/>
	<g>
		<g>
			<path fill="#FFFFFF" d="M14.652,137.435v-2.575h20.975v2.575H14.652z"/>
			<path fill="#FFFFFF" d="M24.01,122.994h11.617v2.347H24.379c-0.834,0-1.414,0.124-1.742,0.371
				c-0.326,0.248-0.49,0.671-0.49,1.269c0,0.586,0.168,1.005,0.504,1.26c0.338,0.254,0.914,0.381,1.729,0.381h11.248v2.347H21.01
				v-2.193l0.895-0.153c-0.406-0.317-0.717-0.722-0.932-1.211c-0.213-0.489-0.318-1.052-0.318-1.688
				c0-0.992,0.248-1.694,0.746-2.107S22.768,122.994,24.01,122.994z"/>
			<path fill="#FFFFFF" d="M24.379,112.77h0.824v2.347h-0.824c-0.9,0-1.498,0.086-1.791,0.258c-0.295,0.171-0.441,0.486-0.441,0.943
				c0,0.407,0.135,0.696,0.404,0.868c0.271,0.172,0.729,0.258,1.373,0.258h0.582c0.314,0,0.621-0.079,0.926-0.238
				c0.303-0.159,0.625-0.417,0.967-0.772l2.814-2.843c0.322-0.317,0.654-0.562,0.996-0.734s0.664-0.258,0.967-0.258h1.393
				c1.262,0,2.146,0.277,2.652,0.83c0.508,0.554,0.762,1.491,0.762,2.813c0,1.374-0.266,2.327-0.797,2.861s-1.512,0.802-2.943,0.802
				H30.99v-2.327h1.252c0.93,0,1.535-0.093,1.82-0.277c0.285-0.184,0.426-0.512,0.426-0.982c0-0.482-0.141-0.826-0.426-1.029
				s-0.783-0.306-1.494-0.306h-0.553c-0.797,0-1.564,0.389-2.305,1.164c-0.027,0.025-0.047,0.044-0.057,0.057l-2.787,2.767
				c-0.293,0.292-0.586,0.502-0.875,0.629c-0.289,0.128-0.609,0.191-0.959,0.191H23.98c-1.203,0-2.059-0.271-2.566-0.812
				c-0.508-0.54-0.76-1.439-0.76-2.699c0-1.31,0.264-2.222,0.795-2.737C21.98,113.027,22.957,112.77,24.379,112.77z"/>
			<path fill="#FFFFFF" d="M17.07,107.104h3.939v-1.793h1.479v1.793h10.863c0.408,0,0.689-0.104,0.846-0.314
				s0.234-0.588,0.234-1.135v-0.344h1.521c0.01,0.14,0.018,0.283,0.021,0.429c0.006,0.146,0.008,0.354,0.008,0.62
				c0,1.195-0.217,2.01-0.646,2.442c-0.432,0.432-1.393,0.648-2.881,0.648h-9.967v1.277H21.01v-1.277h-3.229L17.07,107.104z"/>
			<path fill="#FFFFFF" d="M20.682,97.452h1.777v0.4c0,1.005,0.188,1.717,0.562,2.137c0.373,0.419,1.021,0.629,1.939,0.629h10.666
				v2.347H21.01v-2.193l0.895-0.153c-0.398-0.33-0.705-0.734-0.924-1.211s-0.326-0.995-0.326-1.555c0-0.038,0.004-0.102,0.014-0.19
				S20.682,97.503,20.682,97.452z"/>
			<path fill="#FFFFFF" d="M21.01,95.773v-2.347h11.203c0.863,0,1.459-0.124,1.785-0.372c0.328-0.248,0.49-0.67,0.49-1.269
				c0-0.584-0.168-0.998-0.504-1.239s-0.926-0.362-1.771-0.362H21.01V87.8h14.617v2.193l-0.896,0.191
				c0.408,0.317,0.713,0.712,0.918,1.183c0.203,0.471,0.305,1.023,0.305,1.659c0,1.005-0.246,1.714-0.738,2.127
				c-0.494,0.413-1.355,0.62-2.588,0.62H21.01z"/>
			<path fill="#FFFFFF" d="M24.82,76.984h0.938v2.461h-1.379c-0.957,0-1.568,0.085-1.834,0.257s-0.398,0.486-0.398,0.944
				s0.148,0.776,0.447,0.954s0.895,0.267,1.785,0.267h7.863c0.91,0,1.512-0.092,1.807-0.276c0.293-0.185,0.439-0.512,0.439-0.982
				c0-0.445-0.135-0.75-0.404-0.916c-0.27-0.165-0.885-0.247-1.842-0.247h-1.564v-2.461h1.139c1.611,0,2.709,0.271,3.291,0.811
				c0.584,0.541,0.875,1.491,0.875,2.852c0,1.349-0.299,2.293-0.896,2.833s-1.697,0.811-3.299,0.811H24.82
				c-1.621,0-2.721-0.267-3.299-0.801s-0.867-1.481-0.867-2.843c0-1.348,0.295-2.295,0.889-2.842
				C22.135,77.258,23.227,76.984,24.82,76.984z"/>
			<path fill="#FFFFFF" d="M24.82,66.665h0.938v2.461h-1.379c-0.957,0-1.568,0.085-1.834,0.257s-0.398,0.486-0.398,0.944
				s0.148,0.776,0.447,0.954s0.895,0.267,1.785,0.267h7.863c0.91,0,1.512-0.092,1.807-0.276c0.293-0.185,0.439-0.512,0.439-0.982
				c0-0.445-0.135-0.75-0.404-0.916c-0.27-0.165-0.885-0.247-1.842-0.247h-1.564v-2.461h1.139c1.611,0,2.709,0.271,3.291,0.811
				c0.584,0.541,0.875,1.491,0.875,2.852c0,1.349-0.299,2.293-0.896,2.833s-1.697,0.811-3.299,0.811H24.82
				c-1.621,0-2.721-0.267-3.299-0.801s-0.867-1.481-0.867-2.843c0-1.348,0.295-2.295,0.889-2.842
				C22.135,66.938,23.227,66.665,24.82,66.665z"/>
			<path fill="#FFFFFF" d="M14.652,63.688v-2.613h2.219v2.613H14.652z M21.01,63.574v-2.347h14.617v2.347H21.01z"/>
			<path fill="#FFFFFF" d="M24.82,49.706h6.996c1.611,0,2.709,0.293,3.291,0.878c0.584,0.585,0.875,1.621,0.875,3.109
				c0,1.475-0.297,2.508-0.889,3.1c-0.594,0.591-1.695,0.887-3.307,0.887H24.82c-1.621,0-2.721-0.289-3.299-0.868
				c-0.578-0.578-0.867-1.618-0.867-3.118c0-1.476,0.295-2.509,0.889-3.101C22.135,50.002,23.227,49.706,24.82,49.706z
				 M24.379,52.167c-0.863,0-1.451,0.114-1.764,0.343c-0.312,0.229-0.469,0.624-0.469,1.184c0,0.572,0.166,0.976,0.498,1.211
				s0.91,0.353,1.734,0.353h7.863c0.873,0,1.465-0.114,1.777-0.343c0.312-0.229,0.469-0.636,0.469-1.221
				c0-0.56-0.16-0.954-0.482-1.184c-0.322-0.229-0.91-0.343-1.764-0.343H24.379z"/>
			<path fill="#FFFFFF" d="M24.01,38.223h11.617v2.347H24.379c-0.834,0-1.414,0.124-1.742,0.371c-0.326,0.248-0.49,0.671-0.49,1.269
				c0,0.586,0.168,1.005,0.504,1.26c0.338,0.254,0.914,0.381,1.729,0.381h11.248v2.347H21.01v-2.193l0.895-0.153
				c-0.406-0.317-0.717-0.722-0.932-1.211c-0.213-0.489-0.318-1.052-0.318-1.688c0-0.992,0.248-1.694,0.746-2.107
				S22.768,38.223,24.01,38.223z"/>
			<path fill="#FFFFFF" d="M24.82,26.739h4.336v5.551h3.086c0.873,0,1.465-0.114,1.777-0.343c0.312-0.229,0.469-0.636,0.469-1.221
				c0-0.56-0.16-0.954-0.482-1.184c-0.322-0.229-0.91-0.343-1.764-0.343h-1.621v-2.461h1.195c1.611,0,2.709,0.293,3.291,0.878
				c0.584,0.585,0.875,1.621,0.875,3.109c0,1.475-0.297,2.508-0.889,3.1c-0.594,0.591-1.695,0.887-3.307,0.887H24.82
				c-1.621,0-2.721-0.289-3.299-0.868c-0.578-0.578-0.867-1.618-0.867-3.118c0-1.476,0.295-2.509,0.889-3.101
				C22.135,27.035,23.227,26.739,24.82,26.739z M24.379,29.2c-0.863,0-1.451,0.114-1.764,0.343
				c-0.312,0.229-0.469,0.624-0.469,1.184c0,0.572,0.166,0.976,0.498,1.211s0.91,0.353,1.734,0.353h3.299V29.2H24.379z"/>
			<path fill="#FFFFFF" d="M24.379,16.591h0.824v2.347h-0.824c-0.9,0-1.498,0.086-1.791,0.258c-0.295,0.171-0.441,0.486-0.441,0.943
				c0,0.407,0.135,0.696,0.404,0.868c0.271,0.172,0.729,0.258,1.373,0.258h0.582c0.314,0,0.621-0.079,0.926-0.238
				c0.303-0.159,0.625-0.417,0.967-0.772l2.814-2.843c0.322-0.317,0.654-0.562,0.996-0.734s0.664-0.258,0.967-0.258h1.393
				c1.262,0,2.146,0.277,2.652,0.83c0.508,0.554,0.762,1.491,0.762,2.813c0,1.374-0.266,2.327-0.797,2.861s-1.512,0.802-2.943,0.802
				H30.99v-2.327h1.252c0.93,0,1.535-0.093,1.82-0.277c0.285-0.184,0.426-0.512,0.426-0.982c0-0.482-0.141-0.826-0.426-1.029
				s-0.783-0.306-1.494-0.306h-0.553c-0.797,0-1.564,0.389-2.305,1.164c-0.027,0.025-0.047,0.044-0.057,0.057l-2.787,2.767
				c-0.293,0.292-0.586,0.502-0.875,0.629c-0.289,0.128-0.609,0.191-0.959,0.191H23.98c-1.203,0-2.059-0.271-2.566-0.812
				c-0.508-0.54-0.76-1.439-0.76-2.699c0-1.31,0.264-2.222,0.795-2.737C21.98,16.849,22.957,16.591,24.379,16.591z"/>
		</g>
	</g>
	<g>
		<path fill-rule="evenodd" clip-rule="evenodd" fill="#FFFFFF" d="M11.749,188.374c0.051-0.221,0.084-0.448,0.156-0.662
			c0.393-1.175,1.264-1.833,2.402-2.194c0.094-0.029,0.189-0.051,0.305-0.081c0-1.046,0-2.088,0-3.13
			c0-0.209-0.006-0.418,0.002-0.626c0.016-0.528,0.424-0.968,0.953-1.001c0.363-0.021,0.73-0.004,1.088-0.004
			c0.113-0.682,0.277-0.885,0.705-0.897c0.459-0.016,0.641,0.183,0.783,0.87c0.318,0,0.639,0,0.979,0
			c-0.111-0.513-0.068-0.991,0.357-1.312c0.223-0.168,0.533-0.308,0.805-0.31c4.949-0.018,9.895-0.016,14.842-0.012
			c0.77,0.001,1.334,0.685,1.201,1.438c-0.01,0.058-0.01,0.115-0.016,0.212c0.121,0,0.227,0,0.334,0c0.982,0,1.965-0.003,2.949,0
			c0.799,0.002,1.217,0.408,1.221,1.209c0.008,1.897,0.006,3.795,0,5.691c-0.004,0.807-0.416,1.21-1.219,1.212
			c-7.928,0-15.855,0-23.783-0.002c-0.803,0-1.199-0.408-1.201-1.216c0-0.179,0-0.357,0-0.537c-0.613,0.067-1.217,0.767-1.256,1.44
			c-0.051,0.921,0.523,1.666,1.518,1.937c0.76,0.206,1.533,0.284,2.324,0.27c1.053-0.016,2.113-0.073,3.152,0.048
			c2.156,0.249,3.906,1.307,5.285,2.972c0.375,0.45,0.24,0.894-0.354,1.303c-0.119,0-0.238,0-0.357,0
			c-0.139-0.124-0.277-0.248-0.418-0.371c-0.527-0.465-1.012-0.989-1.588-1.38c-1.363-0.926-2.918-1.146-4.537-1.129
			c-1.078,0.011-2.166,0.007-3.23-0.123c-1.299-0.157-2.328-0.847-2.961-2.009c-0.232-0.429-0.299-0.948-0.441-1.428
			C11.749,188.492,11.749,188.434,11.749,188.374z"/>
		<path fill-rule="evenodd" clip-rule="evenodd" fill="#FFFFFF" d="M25.819,161.129c0.287,0.067,0.584,0.107,0.859,0.207
			c1.652,0.605,2.705,1.758,2.994,3.503c0.291,1.761-0.34,3.196-1.754,4.277c-0.166,0.128-0.221,0.24-0.178,0.443
			c0.418,1.976,0.828,3.952,1.242,5.929c0.016,0.078,0.041,0.151,0.072,0.261c0.104,0,0.211,0,0.316,0
			c0.785,0,1.57-0.008,2.355,0.003c0.627,0.009,1.016,0.521,0.818,1.05c-0.057,0.152-0.141,0.235-0.326,0.235
			c-3-0.006-6.002-0.008-9,0c-0.273,0.001-0.344-0.154-0.377-0.36c-0.084-0.531,0.271-0.918,0.861-0.925
			c0.656-0.01,1.311-0.003,1.967-0.003c0.107,0,0.217,0,0.371,0c-0.119-0.566-0.227-1.104-0.338-1.644
			c-0.271-1.297-0.553-2.594-0.811-3.896c-0.041-0.205-0.123-0.269-0.314-0.299c-1.824-0.306-3.215-1.658-3.596-3.477
			c-0.521-2.485,1.172-4.892,3.688-5.251c0.047-0.006,0.09-0.035,0.135-0.055C25.144,161.129,25.481,161.129,25.819,161.129z
			 M28.075,165.365c-0.045-1.048-0.398-1.788-1.201-2.27c-0.393-0.234-0.742-0.154-0.951,0.191
			c-0.201,0.333-0.111,0.577,0.311,0.841c0.52,0.324,0.744,0.896,0.586,1.49c-0.027,0.096-0.061,0.19-0.072,0.288
			c-0.033,0.299,0.203,0.63,0.486,0.701c0.277,0.069,0.551-0.087,0.652-0.42C27.981,165.879,28.032,165.555,28.075,165.365z"/>
		<path fill-rule="evenodd" clip-rule="evenodd" fill="#FFFFFF" d="M27.704,178.651c-2.246,0-4.49,0-6.736,0
			c-0.301,0-0.355-0.063-0.328-0.367c0.045-0.479,0.41-0.844,0.891-0.887c0.1-0.01,0.197-0.012,0.297-0.012
			c3.926,0,7.848,0.002,11.771-0.003c0.408,0,0.773,0.066,1.008,0.438c0.064,0.1,0.117,0.211,0.145,0.324
			c0.094,0.421,0.021,0.506-0.402,0.506C32.134,178.651,29.919,178.651,27.704,178.651z"/>
	</g>
</g>
</svg>
