<?xml version="1.0" encoding="utf-8"?>
<!-- Generator: Adobe Illustrator 16.0.0, SVG Export Plug-In . SVG Version: 6.00 Build 0)  -->
<!DOCTYPE svg PUBLIC "-//W3C//DTD SVG 1.1//EN" "http://www.w3.org/Graphics/SVG/1.1/DTD/svg11.dtd">
<svg version="1.1" id="Capa_1" xmlns="http://www.w3.org/2000/svg" xmlns:xlink="http://www.w3.org/1999/xlink" x="0px" y="0px"
	 width="198.166px" height="37.004px" viewBox="0 0 198.166 37.004" enable-background="new 0 0 198.166 37.004"
	 xml:space="preserve">
<polygon fill="#0093AF" points="0,0 13.322,37.004 187.489,29.414 198.166,0 "/>
<g>
	<g>
		<path fill="#331842" d="M61.398,6.924h5.542v1.413h-3.484V14.8h3.354v1.401h-3.354v8.54h-2.058V6.924z"/>
		<path fill="#331842" d="M69.469,6.924h2.188v17.817h-2.188V6.924z"/>
		<path fill="#331842" d="M75.302,6.924h2.819l3.419,16.754h0.032L81.266,6.924h1.863v17.817h-2.852L76.89,8.216h-0.065
			l0.292,16.525h-1.815V6.924z"/>
		<path fill="#331842" d="M88.85,6.924h3.014l3.452,17.817h-2.22l-0.826-4.953h-3.922l-0.891,4.953h-2.171L88.85,6.924z
			 M90.276,8.24l-1.734,10.243h3.452L90.373,8.24H90.276z"/>
		<path fill="#331842" d="M97.503,6.924h2.057v16.404h3.712v1.413h-5.769V6.924z"/>
		<path fill="#331842" d="M105.266,6.924h2.188v17.817h-2.188V6.924z"/>
		<path fill="#331842" d="M109.867,6.924h6.434v1.558l-4.635,14.847h4.846v1.413h-6.871v-1.679l4.668-14.726h-4.441V6.924z"/>
		<path fill="#331842" d="M120.789,6.924h3.015l3.452,17.817h-2.221l-0.826-4.953h-3.922l-0.891,4.953h-2.172L120.789,6.924z
			 M122.216,8.24l-1.733,10.243h3.451L122.312,8.24H122.216z"/>
		<path fill="#331842" d="M129.443,6.924h3.144c1.62,0,2.717,0.169,3.29,0.507c0.572,0.339,0.858,0.946,0.858,1.824v4.034
			c0,0.741-0.188,1.265-0.567,1.571c-0.378,0.306-1.048,0.491-2.01,0.556c1.027,0.048,1.74,0.226,2.14,0.531s0.6,0.838,0.6,1.595
			v7.199h-2.188v-6.656c0-0.837-0.159-1.381-0.478-1.631c-0.319-0.249-0.976-0.374-1.97-0.374h-0.762v8.661h-2.058V6.924z
			 M131.501,8.24v6.511h0.729c0.939,0,1.566-0.122,1.88-0.368s0.47-0.791,0.47-1.637V10.27c0-0.854-0.156-1.405-0.47-1.655
			c-0.313-0.249-0.94-0.374-1.88-0.374H131.501z"/>
	</g>
</g>
</svg>
