<?xml version="1.0" encoding="utf-8"?>
<!-- Generator: Adobe Illustrator 16.0.0, SVG Export Plug-In . SVG Version: 6.00 Build 0)  -->
<!DOCTYPE svg PUBLIC "-//W3C//DTD SVG 1.1//EN" "http://www.w3.org/Graphics/SVG/1.1/DTD/svg11.dtd">
<svg version="1.1" id="Capa_1" xmlns="http://www.w3.org/2000/svg" xmlns:xlink="http://www.w3.org/1999/xlink" x="0px" y="0px"
	 width="32.997px" height="32.999px" viewBox="0 0 32.997 32.999" enable-background="new 0 0 32.997 32.999" xml:space="preserve">
<g>
	<g>
		<path fill="#E6332A" d="M16.499,30.999C8.504,30.999,2,24.494,2,16.499C2,8.504,8.504,2,16.499,2
			c7.994,0,14.498,6.504,14.498,14.499C30.997,24.494,24.493,30.999,16.499,30.999z"/>
		<g>
			<path fill="#FFFFFF" d="M16.499,4c6.902,0,12.498,5.597,12.498,12.499c0,6.904-5.596,12.5-12.498,12.5S4,23.403,4,16.499
				C4,9.597,9.597,4,16.499,4 M16.499,0C7.401,0,0,7.401,0,16.499c0,9.098,7.401,16.5,16.499,16.5s16.498-7.402,16.498-16.5
				C32.997,7.401,25.597,0,16.499,0L16.499,0z"/>
		</g>
	</g>
	<g>
		<g>
			<path fill="#FFFFFF" d="M15.723,9.828h1.575V23.23h-1.575V11.303c-0.303,0.2-0.604,0.369-0.907,0.506
				c-0.303,0.138-0.613,0.25-0.933,0.338v-1.306c0.361-0.131,0.695-0.281,1.002-0.45C15.19,10.222,15.471,10.034,15.723,9.828z"/>
		</g>
	</g>
</g>
</svg>
