<?xml version="1.0" encoding="utf-8"?>
<!-- Generator: Adobe Illustrator 16.0.0, SVG Export Plug-In . SVG Version: 6.00 Build 0)  -->
<!DOCTYPE svg PUBLIC "-//W3C//DTD SVG 1.1//EN" "http://www.w3.org/Graphics/SVG/1.1/DTD/svg11.dtd">
<svg version="1.1" id="Capa_1" xmlns="http://www.w3.org/2000/svg" xmlns:xlink="http://www.w3.org/1999/xlink" x="0px" y="0px"
	 width="32.998px" height="32.999px" viewBox="0 0 32.998 32.999" enable-background="new 0 0 32.998 32.999" xml:space="preserve">
<g>
	<g>
		<path fill="#A0C219" d="M16.5,30.999c-7.995,0-14.5-6.505-14.5-14.5C2,8.504,8.505,2,16.5,2c7.994,0,14.498,6.504,14.498,14.499
			C30.998,24.494,24.494,30.999,16.5,30.999z"/>
		<path fill="#FFFFFF" d="M16.5,4c6.902,0,12.498,5.597,12.498,12.499c0,6.903-5.596,12.5-12.498,12.5
			c-6.904,0-12.5-5.597-12.5-12.5C4,9.597,9.596,4,16.5,4 M16.5,0C7.401,0,0,7.401,0,16.499c0,9.098,7.401,16.5,16.5,16.5
			c9.097,0,16.498-7.402,16.498-16.5C32.998,7.401,25.597,0,16.5,0L16.5,0z"/>
	</g>
	<g>
		<g>
			<path fill="#FFFFFF" d="M15.976,9.828h2.256v8.903h1.36v0.939h-1.36v3.56h-1.5v-3.56H13.38v-1.193L15.976,9.828z M16.782,10.748
				l-2.092,7.983h2.041l0.201-7.983H16.782z"/>
		</g>
	</g>
</g>
</svg>
