<?xml version="1.0" encoding="utf-8"?>
<!-- Generator: Adobe Illustrator 16.0.0, SVG Export Plug-In . SVG Version: 6.00 Build 0)  -->
<!DOCTYPE svg PUBLIC "-//W3C//DTD SVG 1.1//EN" "http://www.w3.org/Graphics/SVG/1.1/DTD/svg11.dtd">
<svg version="1.1" id="Capa_1" xmlns="http://www.w3.org/2000/svg" xmlns:xlink="http://www.w3.org/1999/xlink" x="0px" y="0px"
	 width="32.997px" height="32.999px" viewBox="0 0 32.997 32.999" enable-background="new 0 0 32.997 32.999" xml:space="preserve">
<g>
	<g>
		<path fill="#A0C219" d="M16.499,30.999C8.504,30.999,2,24.494,2,16.499C2,8.504,8.504,2,16.499,2
			c7.994,0,14.498,6.504,14.498,14.499C30.997,24.494,24.493,30.999,16.499,30.999z"/>
		<path fill="#FFFFFF" d="M16.499,4c6.902,0,12.498,5.597,12.498,12.499c0,6.903-5.596,12.5-12.498,12.5
			C9.596,28.999,4,23.402,4,16.499C4,9.597,9.596,4,16.499,4 M16.499,0C7.401,0,0,7.401,0,16.499c0,9.098,7.401,16.5,16.499,16.5
			s16.498-7.402,16.498-16.5C32.997,7.401,25.597,0,16.499,0L16.499,0z"/>
	</g>
	<g>
		<g>
			<g>
				<path fill="#FFFFFF" d="M13.883,9.828h5.141v1.014h-3.591v4.499c0.26-0.188,0.523-0.324,0.787-0.408
					c0.266-0.085,0.574-0.127,0.927-0.127c0.722,0,1.236,0.151,1.544,0.455c0.306,0.304,0.459,0.825,0.459,1.564v3.672
					c0,1.159-0.195,1.943-0.586,2.353c-0.391,0.41-1.09,0.615-2.098,0.615c-1,0-1.701-0.213-2.104-0.639
					c-0.404-0.426-0.605-1.208-0.605-2.348v-0.921h1.625v1.137c0,0.67,0.08,1.132,0.24,1.386c0.159,0.254,0.432,0.38,0.818,0.38
					c0.395,0,0.674-0.128,0.838-0.385s0.246-0.717,0.246-1.381v-3.597c0-0.52-0.078-0.885-0.233-1.095s-0.422-0.314-0.8-0.314
					c-0.387,0-0.66,0.104-0.819,0.31c-0.159,0.207-0.239,0.573-0.239,1.1v0.244h-1.55V9.828z"/>
			</g>
		</g>
	</g>
</g>
</svg>
