<?xml version="1.0" encoding="utf-8"?>
<!-- Generator: Adobe Illustrator 16.0.0, SVG Export Plug-In . SVG Version: 6.00 Build 0)  -->
<!DOCTYPE svg PUBLIC "-//W3C//DTD SVG 1.1//EN" "http://www.w3.org/Graphics/SVG/1.1/DTD/svg11.dtd">
<svg version="1.1" id="Capa_1" xmlns="http://www.w3.org/2000/svg" xmlns:xlink="http://www.w3.org/1999/xlink" x="0px" y="0px"
	 width="32.998px" height="32.999px" viewBox="0 0 32.998 32.999" enable-background="new 0 0 32.998 32.999" xml:space="preserve">
<g>
	<g>
		<path fill="#A0C219" d="M16.499,30.999C8.504,30.999,2,24.494,2,16.499C2,8.504,8.504,2,16.499,2s14.499,6.504,14.499,14.499
			C30.998,24.494,24.494,30.999,16.499,30.999z"/>
		<path fill="#FFFFFF" d="M16.499,4c6.903,0,12.499,5.597,12.499,12.499c0,6.903-5.596,12.5-12.499,12.5
			C9.597,28.999,4,23.402,4,16.499C4,9.597,9.597,4,16.499,4 M16.499,0C7.401,0,0,7.401,0,16.499c0,9.098,7.401,16.5,16.499,16.5
			s16.499-7.402,16.499-16.5C32.998,7.401,25.597,0,16.499,0L16.499,0z"/>
	</g>
	<g>
		<g>
			<path fill="#FFFFFF" d="M13.292,9.828h5.557v1.437L16.24,23.23h-1.651l2.811-12.389h-4.107V9.828z"/>
		</g>
	</g>
</g>
</svg>
