<?xml version="1.0" encoding="utf-8"?>
<!-- Generator: Adobe Illustrator 16.0.0, SVG Export Plug-In . SVG Version: 6.00 Build 0)  -->
<!DOCTYPE svg PUBLIC "-//W3C//DTD SVG 1.1//EN" "http://www.w3.org/Graphics/SVG/1.1/DTD/svg11.dtd">
<svg version="1.1" id="Capa_1" xmlns="http://www.w3.org/2000/svg" xmlns:xlink="http://www.w3.org/1999/xlink" x="0px" y="0px"
	 width="451.102px" height="518.477px" viewBox="0 0 451.102 518.477" enable-background="new 0 0 451.102 518.477"
	 xml:space="preserve">
<g>
	<g opacity="0.9069">
		<path fill="#A7A7A7" d="M451.102,499.571c0,10.44-36.859,18.904-82.337,18.904s-82.341-8.464-82.341-18.904
			c0-10.445,36.863-18.915,82.341-18.915S451.102,489.126,451.102,499.571z"/>
	</g>
	<g>
		<path fill="#E74D23" d="M284.963,381.602c-11.885,5.398-23.453,11.156-35.42,15.932c-9.828,3.921-11.771,2.529-17.762-6.108
			c-13.076-18.84-31.088-29.093-54.187-29.629c-60.93-1.415-110.342-26.021-145.145-75.994
			C-24.726,203.705-2.232,99.803,67.777,45.367C149.536-18.205,263.106-1.889,322.89,82.563
			c44.756,63.224,40.923,138.837,5.571,195.017c-14.516,23.055-18.697,45.99-7.055,71.058c2.922,6.289-1.029,10.109-5.236,12.989
			C305.961,368.613,295.354,375.008,284.963,381.602z M247.799,312.695c69.793-37.938,95.582-125.25,57.677-195.248
			c-37.67-69.549-125.761-95.683-195.392-57.969c-69.848,37.85-95.818,126.097-57.688,196.051
			C90.34,325.166,177.796,350.738,247.799,312.695z"/>
		<path fill="#E74D23" d="M307.956,424.369c-10.209,5.535-20.404,11.07-30.613,16.598c-5.191,2.805-10.684,4.357-14.049-2.013
			c-3.123-5.915,0.896-9.717,5.81-12.378c20.604-11.244,41.247-22.438,61.901-33.581c4.925-2.667,10.283-3.952,13.55,1.895
			c3.503,6.295-0.804,10.055-5.982,12.864C328.368,413.301,318.165,418.836,307.956,424.369z"/>
		<path fill="#E74D23" d="M289.646,389.879c10.42-5.646,20.842-11.281,31.25-16.965c4.711-2.574,9.61-3.939,12.714,1.744
			c3.18,5.834-0.285,9.647-5.385,12.402c-20.842,11.287-41.684,22.588-62.5,33.911c-5.073,2.749-10.217,3.709-13.376-2.149
			c-3.328-6.17,1.159-9.373,6.032-12.011C268.821,401.197,279.224,395.525,289.646,389.879z"/>
		<path fill="#E74D23" d="M318.625,444.632c-3.401,1.852-6.668,4.817-10.232,5.217c-3.453,0.38-8.962-0.859-10.333-3.247
			c-1.322-2.317,0.299-8.563,2.667-10.327c6.37-4.699,13.574-8.613,20.99-11.405c2.806-1.061,8.889,0.816,10.197,3.179
			c1.31,2.381-0.475,7.848-2.681,10.435c-2.506,2.923-6.993,4.162-10.62,6.119C318.614,444.601,318.625,444.619,318.625,444.632z"/>
		<circle fill="#E74D23" cx="177.86" cy="183.288" r="161.487"/>
	</g>
	<g>
		<path fill="#F4AB7D" d="M315.142,273.802c-1.56,5.683-3.453,8.913-1.004,10.917c2.45,2.004,1.938,10.58,1.719,14.811
			c-0.226,4.234-13.19,0.896-13.19,0.896s0-11.92,2.117-27.179C307.568,273.245,315.142,273.802,315.142,273.802z"/>
		<path fill="#F4AB7D" d="M303.159,288.764c0.074,6.832-1.56,16.264-0.074,18.787c1.485,2.524,8.463,13.737,9.652,13.441
			c1.189-0.297,0.446-2.971,0.446-2.971c2.378,2.524,5.345,4.01,4.603-2.822c-1.93-4.752-3.268-6.683-3.268-7.869
			c3.715,5.494,4.01,8.316,5.496,8.168c1.486-0.15-1.338-7.131-3.27-10.1c-1.931-2.972,0.002-13.219-1.039-16.486
			C314.667,285.646,303.159,288.764,303.159,288.764z"/>
		<g>
			<g>
				<path fill="#D28657" d="M307.233,294.854c0.141-0.092,1.127,1.205,1.879,3.698c0.42,1.214,0.725,2.749,1.35,4.233
					c0.32,0.748,0.709,1.525,1.215,2.23c0.242,0.356,0.533,0.688,0.822,0.943c0.072,0.068,0.144,0.118,0.211,0.159
					c0.049,0.035,0.033,0.021,0.041,0.023c0.008,0,0.014-0.004,0.015-0.011c-0.035,0.178,0.116-0.456,0.101-0.98
					c0.002-0.539-0.029-1.107-0.09-1.688c-0.119-1.178-0.326-2.336-0.556-3.445c-0.117-0.553-0.244-1.096-0.38-1.623
					c-0.131-0.533-0.283-1.012-0.411-1.61c-0.459-2.315,0.019-4.279,0.135-5.822c0.175-1.56,0.015-2.753-0.317-3.537
					c-0.322-0.782-0.65-1.181-0.543-1.274c0.053-0.059,0.543,0.18,1.102,0.978c0.57,0.783,0.953,2.233,0.908,3.89
					c0.01,1.648-0.289,3.558,0.178,5.435c0.602,1.955,1.251,4.351,1.502,6.851c0.066,0.622,0.1,1.247,0.09,1.885
					c-0.006,0.317-0.035,0.647-0.086,0.987c-0.035,0.283-0.242,0.927-0.613,1.31c-0.381,0.282-0.867,0.383-1.328,0.239
					c-0.217-0.092-0.471-0.174-0.617-0.299c-0.141-0.094-0.268-0.192-0.37-0.295c-0.438-0.406-0.767-0.828-1.044-1.262
					c-0.565-0.854-0.949-1.731-1.26-2.578c-0.607-1.731-0.771-3.242-1.053-4.474C307.653,296.341,307.032,294.965,307.233,294.854z"
					/>
			</g>
		</g>
		<path fill="#F4AB7D" d="M402.368,350.998c0.773,24.777,0.02,121.959,1.955,130.863c1.938,8.905,15.1,25.938,12.391,29.812
			c-2.713,3.873-20.135-13.938-23.618-24.393c-3.483-10.454-14.712-127.379-14.712-127.379L402.368,350.998z"/>
		<path fill="#1F152A" d="M391.935,482.249c14.714,23.812,24.487,28.167,20.229,15.778c0,0,9.582,15.002,4.936,15.389
			c-3.236,0.27-12.68-6.088-19.588-16.518l0.23,4.03l-2.711-2.324c0,0-1.228-5.735-1.966-10.098
			C392.161,485.975,391.627,483.24,391.935,482.249z"/>
		<path fill="#F4AB7D" d="M355.709,354.482c0,15.1-1.16,121.087-2.033,123.7c-0.87,2.613-15.973,18.974-33.395,17.812
			c-4.646-1.162,16.262-15.488,20.617-21.877c1.453-21.778-9.002-108.603-10.164-123.41
			C329.575,335.898,355.709,354.482,355.709,354.482z"/>
		<path fill="#1F152A" d="M354.354,472.182c0.967,4.064,0.822,8.035-2.855,21.973c-1.309,0.679-2.904,0.581-2.904,0.581
			c-0.075-3.425,0.728-5.662,0.871-10.162c-10.452,7.84-12.051,13.211-25.504,13.355c-5.645,0.063-12.775,0.968,0-8.13
			C322.991,496.572,337.704,491.54,354.354,472.182z"/>
		<path fill="#3D2113" d="M326.258,109.08c6.97-6.39,16.845-8.518,30.395-4.066c13.551,4.452,22.457,0.967,30.2,0.581
			c7.741-0.387,19.163,1.354,23.81,2.129c13.551-8.711,1.549-62.335,0.775-66.787c-0.775-4.452-48.01-32.522-56.141-30.198
			c-8.133,2.322-16.067,0-18.973,3.483c-2.902,3.486,0.773,40.073-7.357,51.106C320.838,76.365,313.868,96.109,326.258,109.08z"/>
		<path fill="#682D12" d="M399.192,73.144c-0.775,11.615-18.537,39.226-1.5,50.454c1.162-6.969,4.646-13.744,12.777-10.453
			c8.131,3.29,17.42-0.389,20.131-4.842c12.004-20.906,4.066-35.619-3.289-45.299c-7.355-9.678-9.873-25.359-9.873-25.359
			l-15.486,18.004"/>
		<path fill="#682D12" d="M357.232,18.673c-8.71-15.099-35.812-6.58-34.069,6.776c1.742,13.359,12,25.361,0.771,38.137
			c-11.227,12.779-19.164,31.361-9.873,42.781c9.294,11.425,6.971,12.005,5.229,14.133c12.584-4.646,12.776-10.646,5.422-26.52
			c-7.356-15.875,13.929-32.479,13.742-50.141C338.26,25.256,344.651,19.643,357.232,18.673z"/>
		<path fill="#3E2512" d="M335.358,31.644c1.848,8.442,2.43,16.345,0.842,23.157c1.383-3.609,2.293-7.262,2.254-10.961
			c-0.162-15.592,4.313-22.053,13.188-24.299C342.172,17.435,332.819,20.035,335.358,31.644z"/>
		<path fill="#C6C3BB" d="M409.034,442.371c-6.193,3.291-19.938,2.13-24.197,0.388c-3.291-18.392-22.455-155.259-22.455-155.259
			s-5.034,148.479-5.229,151.577c-8.131,4.647-19.164,0.582-21.1-1.741c-2.131-15.874-6.195-100.469-7.356-117.699
			c-1.161-17.229,2.903-56.916,3.872-70.467c0.967-13.55,6.969-36.007,6.969-36.007s21.392,3.679,45.299-0.193
			C397.418,231.36,409.227,430.755,409.034,442.371z"/>
		<path fill="#EDABB1" d="M393.834,126.389c-5.082-3.63-25.117-6.679-39.637,0c-12.341,9.291-7.84,10.6-7.113,10.744
			c0.726,0.145,48.93,5.228,48.93,5.228"/>
		<path fill="#F4AB7D" d="M387.881,86.898c-1.354,15.484-5.034,38.377,10.455,47.477c-5.809,22.648-42.252,27.489-42.252,27.489
			s-7.549-26.134-4.258-31.362c12.389-2.71,11.809-15.197,12.391-32.425C367.122,91.688,387.881,86.898,387.881,86.898z"/>
		<path fill="#D28657" fill-opacity="0.5" d="M361.547,122.452c2.385-5.824,2.328-14.284,2.67-24.375
			c2.904-6.39,23.664-11.179,23.664-11.179c-0.614,7.042-1.709,15.619-1.264,23.732C377.92,118.064,367.226,121.604,361.547,122.452
			z"/>
		<path fill="#1F152A" d="M395.026,135.471c-6.388,9.873-21.221,71.446-17.541,79.963c-24.585,0.969-37.428,0-37.428,0
			c-6.582-24.005-11.073-69.977,14.285-86.432c-1.936,10.453,0.58,21.246,3.486,22.989
			C366.347,149.861,392.316,133.148,395.026,135.471z"/>
		<path fill="#F4AB7D" d="M338.083,35.936c1.451,18.293,1.162,29.328-2.033,43.557c-1.452,6.389-0.579,15.68,21.779,28.748
			c3.338,1.598,37.313-6.389,41.813-34.266c4.641-28.729-4.645-51.687-22.066-55.172C360.151,15.318,339.534,17.352,338.083,35.936z
			"/>
		<path fill="#F4AB7D" d="M400.803,62.553c4.938-7.598,14.52-1.936,11.422,6.195c-3.207,8.418-11.129,9.438-15.34,5.082
			C397.659,67.635,400.803,62.553,400.803,62.553z"/>
		<g>
			<g>
				<g>
					<path fill="#010202" d="M372.782,68.604c-0.316-0.057-0.527-1.492,0.156-3.79c0.372-1.125,1.04-2.512,2.337-3.66
						c1.265-1.186,3.129-1.886,4.949-2.103c1.834-0.222,3.493-0.094,4.935,0.006c1.44,0.111,2.672,0.194,3.649,0.128
						c1.944-0.08,2.791-1.099,3.14-0.89c0.133,0.081,0.135,0.509-0.281,1.1c-0.394,0.595-1.301,1.281-2.502,1.619
						c-2.403,0.734-5.582,0.299-8.607,0.652c-1.505,0.192-2.78,0.625-3.732,1.359c-0.978,0.703-1.66,1.665-2.18,2.539
						C373.646,67.354,373.17,68.686,372.782,68.604z"/>
				</g>
			</g>
		</g>
		<path fill="#010202" d="M384.971,60.119c1.063,1.092,1.751,2.721,1.751,4.564c0,3.287-2.146,5.952-4.792,5.952
			s-4.79-2.665-4.79-5.952c0-1.773,0.636-3.348,1.627-4.438C380.833,60.156,382.901,60.123,384.971,60.119z"/>
		<g>
			<g>
				<path fill="#D28657" d="M361.411,80.754c-0.068,0.18-1.459,0.021-3.588-0.922c-0.523-0.268-1.104-0.57-1.668-1.113
					c-0.277-0.268-0.564-0.617-0.729-1.096c-0.196-0.479-0.129-1.068,0.037-1.546c0.396-0.925,1.053-1.503,1.676-2.058
					c0.709-0.585,1.115-0.9,1.422-1.566c0.598-1.267,0.57-2.883,0.502-4.283c-0.079-1.424-0.252-2.726-0.381-3.823
					c-0.273-2.193-0.403-3.579-0.178-3.63c0.213-0.047,0.738,1.243,1.309,3.418c0.275,1.091,0.572,2.398,0.743,3.91
					c0.134,1.494,0.306,3.26-0.532,5.12c-0.219,0.454-0.518,0.874-0.865,1.237c-0.389,0.37-0.705,0.6-0.994,0.836
					c-0.586,0.475-1.105,0.977-1.312,1.406c-0.425,0.688,0.672,1.645,1.534,2.184C360.208,79.945,361.5,80.518,361.411,80.754z"/>
			</g>
		</g>
		<path fill="#010202" d="M352.795,68.49c-0.684,1.473-1.776,2.438-3.02,2.438c-2.072,0-3.757-2.667-3.757-5.953
			c0-1.991,0.622-3.742,1.571-4.824C350.731,61.951,352.095,65.072,352.795,68.49z"/>
		<g>
			<path fill="#3D2113" d="M350.713,49.582c0.168-0.106-0.119-0.917-1.164-1.713c-1.016-0.797-2.762-1.455-4.739-1.392
				c-1.985,0.034-3.729,0.942-4.599,1.925c-0.879,0.996-0.991,1.829-0.821,1.906c0.226,0.123,0.694-0.447,1.579-1.039
				c0.884-0.586,2.255-1.13,3.896-1.166c1.629-0.053,3.114,0.321,4.098,0.755C349.961,49.276,350.519,49.732,350.713,49.582z"/>
		</g>
		<path fill="#E73F2C" d="M374.476,86.752c-5.517,9.295-21.3,25.075-21.006,3.968C354.729,90.142,374.476,86.752,374.476,86.752z"/>
		<path fill="#FFFFFF" d="M374.766,86.075c-7.452,2.129-18.292,0.192-24.682,0.192c4.838,3.776,6.193,12.584,7.646,12.777
			C362.375,99.045,369.829,92.463,374.766,86.075z"/>
		<path fill="#E73F2C" d="M374.282,85.979c-5.13,1.355-20.23-3.195-26.714-0.291C352.116,86.85,368.862,89.268,374.282,85.979z"/>
		<g>
			<g>
				<path fill="#D28657" d="M372.347,85.301c0.127-0.415,1.487-0.353,2.85,0.434c0.705,0.341,1.226,0.867,1.566,1.264
					c0.338,0.406,0.465,0.74,0.325,0.916c-0.307,0.371-1.428-0.07-2.674-0.752C373.172,86.439,372.202,85.743,372.347,85.301z"/>
			</g>
		</g>
		<g>
			<g>
				<g>
					<path fill="#010202" d="M352.817,68.385c-0.378,0.052-0.795-0.997-1.419-2.555c-0.623-1.518-1.558-3.719-3.349-4.311
						c-1.868-0.655-4.483,0.101-6.575-0.646c-1.063-0.366-1.711-1.18-1.882-1.719c-0.2-0.554-0.122-0.888,0.027-0.956
						c0.362-0.188,1.006,0.833,2.297,0.863c0.672,0.046,1.59-0.097,2.756-0.256c1.147-0.13,2.609-0.326,4.248,0.225
						c1.652,0.565,2.817,1.926,3.36,3.106c0.576,1.204,0.827,2.313,0.925,3.234C353.407,67.219,353.159,68.341,352.817,68.385z"/>
				</g>
			</g>
		</g>
		<path fill="#F39200" d="M384.688,348.094c11.904-0.291,40.219-1.307,46.461-16.116c-7.695-30.635-16.553-78.983-36.588-114.701
			c-2.471-7.403,11.762-25.843,16.986-41.523c5.082-17.277,8.617-34.989,8.229-35.571c-2.131-2.031-21.586-6.244-21.586-6.244
			s-22.796,14.52-25.409,35.427c-2.612,20.908,0.292,59.964,3.339,87.406C379.17,284.209,378.301,338.221,384.688,348.094z"/>
		<path fill="#D37D00" d="M393.642,126.244c5.614,4.453,11.495,6.576,11.444,7.188c-0.822,10.115-10.282,19.914-11.444,20.883
			c-6.97,1.548-14.132,4.065-14.132,4.065c8.517,5.129,6.775,5.611,6.775,5.611c-8.132,6.971-14.906,28.266-13.938,47.43
			c-5.033-32.133-9.776-42.299,19.744-78.595C394.622,129.717,393.642,126.244,393.642,126.244z"/>
		<path fill="#DF7E00" d="M333.243,142.311c-10.551,8.18-8.133,44.525-17.037,65.819c-8.902,21.295-16.453,61.368-16.453,65.626
			c7.744,6.582,17.424,4.646,20.134,1.551c8.131-22.458,16.067-63.691,18.391-77.243
			C334.885,178.221,333.243,142.311,333.243,142.311z"/>
		<path fill="#F39200" d="M340.549,200.146c6.357,21.224-4.791,115.426,4.211,145.044c-7.26,1.161-17.857-7.551-19.311-10.454
			c-1.451-2.903,5.809-110.344,8.713-128.057c2.902-17.713-11.18-29.184-3.051-59.964c6.389-5.227,5.953-1.598,5.953-1.598
			S332.42,172.995,340.549,200.146z"/>
		<path fill="#D37D00" d="M357.683,125.082c-10.841,10.648-26.955,25.939-16.89,76.079c-10.648-18.391-13.356-44.524-13.356-44.524
			s5.224-5.615,6-5.615c-3.872-2.904-6.192-4.063-5.612-5.42C328.402,144.248,348.172,124.066,357.683,125.082z"/>
		<path fill="#DF7E00" d="M396.159,264.465c-3.631-3.341-8.422-9.147-8.422-9.147c-4.355,9.147-7.549,26.423-6.969,30.634
			c2.902,9.584,15.824,14.955,20.18,11.614c3.922-7.112,4.064-24.825,4.064-24.825S399.063,267.369,396.159,264.465z"/>
		<path fill="#DF7E00" d="M416.872,262.916c-4.164,1.064-15.193-7.261-13.355-12.003C407.192,248.688,419.1,251.976,416.872,262.916
			z"/>
		<path fill="#F4AB7D" d="M411.256,248.688c-4.936,5.951-5.664,10.551-11.035,8.904c-4.859-1.489-7.692,7.454-14.227,8.469
			c-2.179,1.017-0.096,4.018,1.258,3.729c1.355-0.291,8.615-3.582,8.615-3.582c3.631,5.227,9.145,6.533,9.145,6.533
			c7.262-5.953,13.504-16.552,13.504-16.552L411.256,248.688z"/>
		<path fill="#D37D00" d="M419.778,140.182c0.771,1.743,28.842,68.914,28.068,79.759c-0.773,10.84-22.648,36.586-30.975,42.976
			c-1.939-9.776-13.357-12.003-13.357-12.003c6.971-10.648,20.717-29.814,21.684-35.814c0.969-6.001-15.738-36.165-16.844-38.523
			C398.094,154.7,419.002,138.439,419.778,140.182z"/>
		<path fill="#DF7E00" d="M337.695,257.495c-0.196,5.808,0.386,25.167-0.776,27.683c-1.162,2.518-7.354,8.131-8.321,7.743
			c-0.97-0.388-0.58-26.328-0.58-26.328L337.695,257.495z"/>
		<g>
			<path fill="#DF7E00" d="M389.769,227.295c-0.11-0.019-0.127-0.435-0.06-1.181c0.035-0.375,0.09-0.829,0.164-1.359
				c0.09-0.521,0.232-1.104,0.381-1.753c0.582-2.602,1.729-6.082,3.191-9.845c2.926-7.533,6.246-13.222,6.633-13.012
				c0.404,0.213-2.221,6.145-5.117,13.604c-1.448,3.728-2.754,7.106-3.604,9.573c-0.224,0.615-0.425,1.171-0.604,1.66
				c-0.151,0.492-0.297,0.916-0.424,1.261C390.075,226.936,389.879,227.313,389.769,227.295z"/>
		</g>
		<path fill="#682D12" d="M352.974,20.031c2.519,13.163,4.452,26.325,18.392,30.584c13.938,4.261,27.684-0.193,27.102,2.904
			c-0.58,3.098-3.025,14.059,0.074,14.834c4.064-4.84,4.117-6.088,6.121-8.251c3.314-3.582,14.711-3.098,14.52-12.972
			c-0.193-9.872-4.066-29.812-12.004-31.36c-7.936-1.549-17.035-2.516-24.584-10.647c-7.551-8.129-29.039-7.744-35.428,9.679
			C349.875,13.252,352.78,18.093,352.974,20.031z"/>
		<g>
			<path fill="#3D2113" d="M370.506,49.004c0.164,0.199,1.027-0.346,2.509-0.809c1.481-0.468,3.628-0.755,6.034-0.554
				c4.832,0.382,8.589,1.983,8.785,1.556c0.23-0.355-3.404-2.75-8.664-3.178c-2.606-0.223-5.049,0.292-6.594,1.113
				C371.019,47.953,370.377,48.87,370.506,49.004z"/>
		</g>
	</g>
	<g>
		<g>
			<g>
				<path fill="#FFFFFF" d="M84.642,101.806h5.022l0.884,39.279h-6.79L84.642,101.806z M83.852,89.95h6.604v5.615h-6.604V89.95z"/>
				<path fill="#FFFFFF" d="M102.268,89.95h6.279v51.135h-6.279V89.95z"/>
				<path fill="#FFFFFF" d="M137.474,112.761v28.324h-5.72v-27.422c0-2.034-0.303-3.45-0.907-4.247
					c-0.604-0.798-1.636-1.196-3.093-1.196c-1.427,0-2.449,0.41-3.07,1.23c-0.62,0.821-0.93,2.225-0.93,4.213v27.422h-5.721v-35.639
					h5.35l0.371,2.184c0.775-0.993,1.76-1.75,2.953-2.271c1.193-0.52,2.565-0.78,4.116-0.78c2.419,0,4.132,0.607,5.14,1.82
					C136.969,107.613,137.474,109.733,137.474,112.761z"/>
				<path fill="#FFFFFF" d="M152.217,95.843v9.604h4.371v3.604h-4.371v26.486c0,0.994,0.256,1.682,0.768,2.062
					c0.511,0.382,1.434,0.572,2.767,0.572h0.837v3.709c-0.342,0.023-0.69,0.041-1.047,0.053c-0.356,0.011-0.859,0.018-1.511,0.018
					c-2.915,0-4.899-0.526-5.953-1.578c-1.054-1.051-1.581-3.392-1.581-7.02v-24.303h-3.116v-3.605h3.116v-7.869L152.217,95.843z"/>
				<path fill="#FFFFFF" d="M181.562,114.737v10.574h-13.534v7.522c0,2.127,0.279,3.571,0.837,4.333
					c0.559,0.764,1.551,1.145,2.977,1.145c1.364,0,2.326-0.393,2.884-1.179c0.558-0.785,0.837-2.219,0.837-4.299v-3.952h6v2.912
					c0,3.93-0.714,6.604-2.14,8.025c-1.427,1.422-3.953,2.133-7.581,2.133c-3.597,0-6.115-0.723-7.557-2.167
					c-1.442-1.444-2.163-4.131-2.163-8.061v-16.987c0-3.952,0.705-6.633,2.116-8.043c1.41-1.409,3.945-2.115,7.604-2.115
					c3.597,0,6.116,0.723,7.558,2.167C180.842,108.191,181.562,110.854,181.562,114.737z M175.562,113.663
					c0-2.104-0.279-3.537-0.837-4.299c-0.558-0.764-1.52-1.146-2.884-1.146c-1.395,0-2.379,0.404-2.953,1.213
					c-0.574,0.81-0.86,2.219-0.86,4.23v8.043h7.534V113.663L175.562,113.663z"/>
				<path fill="#FFFFFF" d="M209.559,112.761v28.324h-5.72v-27.422c0-2.034-0.302-3.45-0.907-4.247
					c-0.604-0.798-1.635-1.196-3.092-1.196c-1.428,0-2.45,0.41-3.07,1.23c-0.621,0.821-0.93,2.225-0.93,4.213v27.422h-5.721v-35.639
					h5.349l0.372,2.184c0.774-0.993,1.759-1.75,2.953-2.271c1.193-0.52,2.564-0.78,4.115-0.78c2.419,0,4.132,0.607,5.14,1.82
					C209.055,107.613,209.559,109.733,209.559,112.761z"/>
				<path fill="#FFFFFF" d="M224.302,95.843v9.604h4.373v3.604h-4.373v26.486c0,0.994,0.256,1.682,0.768,2.062
					c0.512,0.382,1.435,0.572,2.767,0.572h0.838v3.709c-0.342,0.023-0.689,0.041-1.047,0.053c-0.355,0.011-0.859,0.018-1.512,0.018
					c-2.914,0-4.899-0.526-5.952-1.578c-1.055-1.051-1.581-3.392-1.581-7.02v-24.303h-3.117v-3.605h3.117v-7.869L224.302,95.843z"/>
				<path fill="#FFFFFF" d="M253.09,113.767v27.318h-5.35l-0.371-2.184c-0.774,0.993-1.761,1.75-2.953,2.271
					c-1.193,0.52-2.565,0.78-4.115,0.78c-2.42,0-4.133-0.607-5.141-1.82c-1.008-1.214-1.511-3.334-1.511-6.361v-7.107
					c0-2.796,1.015-4.784,3.046-5.963c2.03-1.179,5.588-1.838,10.674-1.977v-5.061c0-2.15-0.271-3.594-0.813-4.334
					c-0.543-0.739-1.513-1.109-2.906-1.109c-1.334,0-2.287,0.341-2.86,1.022c-0.574,0.683-0.859,1.854-0.859,3.519v1.977h-5.721
					v-0.971c0-3.559,0.697-5.98,2.092-7.263c1.396-1.283,3.875-1.925,7.441-1.925c3.473,0,5.898,0.647,7.278,1.941
					C252.399,107.815,253.09,110.23,253.09,113.767z M247.323,122.19c-2.977,0.093-5,0.486-6.068,1.18
					c-1.069,0.694-1.604,1.941-1.604,3.744v5.72c0,2.127,0.279,3.571,0.837,4.333c0.559,0.764,1.551,1.145,2.977,1.145
					c1.396,0,2.396-0.41,3-1.23c0.604-0.82,0.906-2.236,0.906-4.247L247.323,122.19z"/>
				<path fill="#FFFFFF" d="M73.247,175.15h5.813v51.135h-5.348l-0.466-2.184c-0.775,1.017-1.743,1.779-2.906,2.287
					c-1.163,0.509-2.52,0.764-4.069,0.764c-2.389,0-4.093-0.607-5.116-1.82c-1.022-1.214-1.534-3.334-1.534-6.361v-21.01
					c0-3.027,0.512-5.147,1.534-6.361c1.023-1.213,2.728-1.82,5.116-1.82c1.55,0,2.914,0.261,4.092,0.78
					c1.179,0.521,2.14,1.277,2.884,2.271V175.15z M73.247,198.863c0-2.012-0.286-3.421-0.86-4.23
					c-0.574-0.809-1.558-1.213-2.953-1.213c-1.426,0-2.434,0.394-3.023,1.179c-0.589,0.786-0.883,2.207-0.883,4.265v19.171
					c0,2.08,0.294,3.514,0.883,4.299c0.59,0.786,1.598,1.179,3.023,1.179c1.396,0,2.379-0.404,2.953-1.213
					c0.574-0.81,0.86-2.23,0.86-4.265V198.863z"/>
				<path fill="#FFFFFF" d="M107.058,199.938v10.574H93.523v7.522c0,2.127,0.279,3.571,0.838,4.333
					c0.559,0.764,1.55,1.145,2.977,1.145c1.363,0,2.325-0.393,2.883-1.179c0.559-0.785,0.838-2.219,0.838-4.299v-3.952h5.999v2.912
					c0,3.93-0.714,6.604-2.14,8.025c-1.426,1.422-3.953,2.133-7.58,2.133c-3.598,0-6.115-0.723-7.558-2.167
					c-1.441-1.444-2.163-4.131-2.163-8.061v-16.987c0-3.952,0.705-6.633,2.117-8.043c1.41-1.409,3.944-2.115,7.604-2.115
					c3.596,0,6.115,0.723,7.557,2.167C106.337,193.392,107.058,196.055,107.058,199.938z M101.059,198.863
					c0-2.104-0.279-3.537-0.838-4.299c-0.558-0.764-1.52-1.145-2.883-1.145c-1.396,0-2.38,0.404-2.953,1.213
					c-0.574,0.81-0.861,2.219-0.861,4.23v8.043h7.535V198.863z"/>
				<path fill="#FFFFFF" d="M149.611,197.961v28.324h-5.721v-27.422c0-2.034-0.302-3.45-0.906-4.247
					c-0.605-0.798-1.636-1.196-3.093-1.196c-1.427,0-2.45,0.41-3.069,1.23c-0.621,0.821-0.931,2.225-0.931,4.213v27.422h-5.72
					v-35.639h5.348l0.372,2.184c0.774-0.993,1.759-1.75,2.954-2.271c1.192-0.52,2.564-0.78,4.115-0.78
					c2.418,0,4.131,0.607,5.139,1.82C149.107,192.813,149.611,194.934,149.611,197.961z"/>
				<path fill="#FFFFFF" d="M158.354,190.646h5.72v27.318c0,2.104,0.303,3.554,0.908,4.351c0.604,0.798,1.635,1.196,3.092,1.196
					c1.426,0,2.434-0.41,3.023-1.229c0.588-0.82,0.883-2.259,0.883-4.316v-27.318h5.814v35.639h-5.349l-0.466-2.184
					c-0.775,0.993-1.736,1.739-2.883,2.235c-1.147,0.497-2.496,0.745-4.046,0.745c-2.45,0-4.179-0.601-5.186-1.803
					c-1.008-1.201-1.512-3.305-1.512-6.309v-28.324H158.354z"/>
				<path fill="#FFFFFF" d="M205.791,199.938v10.574h-13.533v7.522c0,2.127,0.279,3.571,0.838,4.333
					c0.558,0.764,1.549,1.145,2.977,1.145c1.363,0,2.324-0.393,2.883-1.179c0.559-0.785,0.837-2.219,0.837-4.299v-3.952h5.999v2.912
					c0,3.93-0.713,6.604-2.139,8.025c-1.427,1.422-3.953,2.133-7.58,2.133c-3.598,0-6.116-0.723-7.559-2.167
					c-1.441-1.444-2.162-4.131-2.162-8.061v-16.987c0-3.952,0.705-6.633,2.116-8.043c1.411-1.409,3.944-2.115,7.604-2.115
					c3.596,0,6.115,0.723,7.557,2.167C205.07,193.392,205.791,196.055,205.791,199.938z M199.792,198.863
					c0-2.104-0.278-3.537-0.837-4.299c-0.559-0.764-1.52-1.145-2.883-1.145c-1.396,0-2.381,0.404-2.953,1.213
					c-0.574,0.81-0.861,2.219-0.861,4.23v8.043h7.534V198.863z"/>
				<path fill="#FFFFFF" d="M211.232,190.646h5.581l3.999,31.964h0.512l4.279-31.964h5.256l-5.814,35.639h-7.906L211.232,190.646z"
					/>
				<path fill="#FFFFFF" d="M255.879,199.938v17.057c0,3.93-0.713,6.604-2.139,8.025c-1.428,1.422-3.953,2.133-7.582,2.133
					c-3.597,0-6.115-0.723-7.557-2.167c-1.441-1.444-2.163-4.131-2.163-8.061v-16.987c0-3.952,0.705-6.633,2.116-8.043
					c1.41-1.409,3.945-2.115,7.604-2.115c3.598,0,6.116,0.723,7.559,2.167C255.159,193.392,255.879,196.055,255.879,199.938z
					 M249.879,198.863c0-2.104-0.278-3.537-0.836-4.299c-0.559-0.764-1.521-1.145-2.885-1.145c-1.395,0-2.38,0.404-2.953,1.213
					c-0.574,0.81-0.859,2.219-0.859,4.23v19.171c0,2.127,0.279,3.571,0.837,4.333c0.56,0.764,1.551,1.145,2.978,1.145
					c1.363,0,2.325-0.393,2.883-1.179c0.559-0.785,0.838-2.219,0.838-4.299v-19.17H249.879z"/>
				<path fill="#FFFFFF" d="M266.344,175.15h6.789l-0.883,39.278h-5.022L266.344,175.15z M266.437,220.669h6.604v5.616h-6.604
					V220.669z"/>
			</g>
		</g>
	</g>
	<g>
		<polygon fill="#5B1F00" points="158.425,291.506 167.899,324.071 291.758,317.391 299.351,291.506 		"/>
		<g>
			<g>
				<path fill="#FFFFFF" d="M200.802,300.086v1.499h-1.909v-1.456c0-0.616-0.086-1.04-0.257-1.271
					c-0.173-0.229-0.479-0.346-0.918-0.346c-0.422,0-0.718,0.131-0.891,0.389c-0.171,0.26-0.258,0.718-0.258,1.377v0.764
					c0,0.32,0.06,0.647,0.18,0.984c0.12,0.336,0.294,0.652,0.524,0.951l2.38,3.115c0.4,0.525,0.692,1.02,0.875,1.483
					c0.182,0.465,0.273,0.944,0.273,1.44v1.063c0,1.362-0.232,2.28-0.697,2.754c-0.463,0.476-1.288,0.713-2.475,0.713
					c-1.157,0-1.962-0.191-2.417-0.573c-0.455-0.384-0.682-1.105-0.682-2.17v-1.743h1.923v1.69c0,0.639,0.086,1.07,0.258,1.297
					c0.173,0.227,0.488,0.34,0.947,0.34c0.469,0,0.791-0.127,0.969-0.387c0.177-0.258,0.265-0.826,0.265-1.705v-1.084
					c0-0.404-0.051-0.771-0.15-1.1c-0.1-0.33-0.245-0.63-0.438-0.899l-2.525-3.338c-0.354-0.446-0.624-0.873-0.811-1.277
					c-0.187-0.403-0.28-0.753-0.28-1.05v-0.915c0-1.219,0.228-2.068,0.682-2.547c0.455-0.477,1.236-0.718,2.347-0.718
					c1.167,0,1.973,0.189,2.417,0.565C200.578,298.306,200.802,299.023,200.802,300.086z"/>
				<path fill="#FFFFFF" d="M203.356,297.6h1.938v15.68h-1.938V297.6z"/>
				<path fill="#FFFFFF" d="M215.221,300.799v0.808h-1.908v-1.021c0-0.794-0.112-1.338-0.338-1.633
					c-0.224-0.291-0.613-0.441-1.169-0.441c-0.535,0-0.913,0.154-1.133,0.457c-0.219,0.307-0.33,0.846-0.33,1.619v9.683
					c0,0.829,0.12,1.391,0.36,1.679c0.241,0.291,0.669,0.437,1.282,0.437c0.183,0,0.386-0.012,0.607-0.037
					c0.22-0.023,0.462-0.061,0.72-0.111l0.015-5.507h-1.636v-1.158h3.529v7.441c-0.583,0.177-1.153,0.309-1.707,0.399
					c-0.556,0.088-1.115,0.132-1.679,0.132c-1.263,0-2.146-0.245-2.648-0.739c-0.5-0.492-0.752-1.401-0.752-2.728v-9.279
					c0-1.318,0.248-2.22,0.746-2.706c0.497-0.485,1.382-0.729,2.654-0.729c1.263,0,2.143,0.239,2.64,0.716
					C214.972,298.561,215.221,299.466,215.221,300.799z"/>
				<path fill="#FFFFFF" d="M218.307,297.6h1.907v12.691c0,0.816,0.106,1.366,0.315,1.649c0.211,0.282,0.584,0.424,1.119,0.424
					c0.527,0,0.893-0.142,1.099-0.424c0.204-0.283,0.308-0.833,0.308-1.649V297.6h1.908v12.479c0,1.347-0.243,2.262-0.73,2.742
					c-0.488,0.482-1.359,0.724-2.611,0.724c-1.234,0-2.096-0.244-2.584-0.733c-0.487-0.489-0.73-1.401-0.73-2.732V297.6z"/>
				<path fill="#FFFFFF" d="M228.177,297.6h1.938v15.68h-1.938V297.6z"/>
				<path fill="#FFFFFF" d="M233.343,297.6h5.05v1.242h-3.228v5.646h3.085v1.233h-3.085v6.314h3.314v1.244h-5.137V297.6z"/>
				<path fill="#FFFFFF" d="M241.105,297.6h2.497l3.026,14.744h0.03l-0.274-14.744h1.649v15.68h-2.524l-3-14.543h-0.057
					l0.259,14.543h-1.606V297.6L241.105,297.6z"/>
				<path fill="#FFFFFF" d="M249.915,297.6h6.214v1.242h-2.181v14.438h-1.852v-14.438h-2.182V297.6z"/>
				<path fill="#FFFFFF" d="M258.037,297.6h5.05v1.242h-3.228v5.646h3.085v1.233h-3.085v6.314h3.314v1.244h-5.137V297.6z"/>
			</g>
		</g>
	</g>
</g>
<g>
	<polygon fill="#5B1F00" points="51.661,251.593 62.022,284.721 197.488,277.926 205.792,251.593 	"/>
	<g>
		<g>
			<path fill="#FFFFFF" d="M91.747,259.584h3.045c1.568,0,2.631,0.149,3.185,0.453c0.554,0.303,0.833,0.847,0.833,1.632v3.612
				c0,0.664-0.183,1.131-0.55,1.406c-0.366,0.273-1.015,0.438-1.946,0.497c0.993,0.043,1.684,0.201,2.072,0.476
				c0.385,0.272,0.581,0.75,0.581,1.428v6.444h-2.12v-5.959c0-0.749-0.154-1.235-0.463-1.46c-0.308-0.222-0.944-0.334-1.907-0.334
				h-0.738v7.753h-1.994L91.747,259.584L91.747,259.584z M93.74,260.76v5.828h0.706c0.911,0,1.517-0.109,1.822-0.328
				c0.302-0.22,0.454-0.708,0.454-1.466v-2.218c0-0.764-0.151-1.257-0.454-1.481c-0.304-0.222-0.911-0.335-1.822-0.335H93.74z"/>
			<path fill="#FFFFFF" d="M102.45,259.584h5.523v1.263h-3.531v5.741h3.374v1.256h-3.374v6.424h3.625v1.265h-5.618V259.584
				L102.45,259.584z"/>
			<path fill="#FFFFFF" d="M110.939,259.584h2.119v15.948h-2.119V259.584z"/>
			<path fill="#FFFFFF" d="M116.589,259.584h2.729l3.312,14.998h0.03l-0.298-14.998h1.805v15.948h-2.763l-3.28-14.794h-0.063
				l0.284,14.794h-1.758v-15.948H116.589z"/>
			<path fill="#FFFFFF" d="M127.746,259.584h2.118v15.948h-2.118V259.584z"/>
			<path fill="#FFFFFF" d="M140.018,262.113v1.524h-2.103v-1.48c0-0.62-0.098-1.05-0.292-1.288
				c-0.193-0.238-0.537-0.358-1.028-0.358c-0.451,0-0.764,0.136-0.943,0.407c-0.178,0.271-0.266,0.839-0.266,1.703v9.872
				c0,0.888,0.095,1.463,0.283,1.731c0.188,0.267,0.533,0.398,1.035,0.398c0.43,0,0.738-0.126,0.927-0.377
				c0.187-0.253,0.281-0.683,0.281-1.287v-1.721h2.103v1.772c0,1.089-0.245,1.825-0.737,2.212c-0.492,0.387-1.372,0.579-2.636,0.579
				c-1.246,0-2.115-0.248-2.605-0.747c-0.492-0.497-0.738-1.423-0.738-2.778v-9.441c0-1.348,0.246-2.266,0.738-2.757
				c0.492-0.49,1.359-0.736,2.605-0.736c1.276,0,2.158,0.193,2.644,0.574C139.771,260.299,140.018,261.029,140.018,262.113z"/>
			<path fill="#FFFFFF" d="M142.622,259.584h2.119v15.948h-2.119V259.584z"/>
			<path fill="#FFFFFF" d="M150.233,259.584h2.917l3.344,15.948h-2.149l-0.8-4.435h-3.798l-0.864,4.435h-2.102L150.233,259.584z
				 M151.613,260.76l-1.678,9.171h3.344l-1.57-9.171H151.613z"/>
			<path fill="#FFFFFF" d="M158.613,259.584h3.043c1.569,0,2.631,0.149,3.186,0.453c0.556,0.303,0.831,0.847,0.831,1.632v3.612
				c0,0.664-0.182,1.131-0.548,1.406c-0.366,0.273-1.015,0.438-1.946,0.497c0.993,0.043,1.684,0.201,2.072,0.476
				c0.388,0.272,0.58,0.75,0.58,1.428v6.444h-2.118v-5.959c0-0.749-0.154-1.235-0.463-1.46c-0.309-0.222-0.944-0.334-1.907-0.334
				h-0.738v7.753h-1.992v-15.948H158.613z M160.605,260.76v5.828h0.707c0.909,0,1.517-0.109,1.82-0.328
				c0.303-0.22,0.456-0.708,0.456-1.466v-2.218c0-0.764-0.152-1.257-0.456-1.481c-0.302-0.222-0.909-0.335-1.82-0.335H160.605z"/>
		</g>
	</g>
</g>
</svg>
