<?xml version="1.0" encoding="utf-8"?>
<!-- Generator: Adobe Illustrator 16.0.0, SVG Export Plug-In . SVG Version: 6.00 Build 0)  -->
<!DOCTYPE svg PUBLIC "-//W3C//DTD SVG 1.1//EN" "http://www.w3.org/Graphics/SVG/1.1/DTD/svg11.dtd">
<svg version="1.1" id="Capa_1" xmlns="http://www.w3.org/2000/svg" xmlns:xlink="http://www.w3.org/1999/xlink" x="0px" y="0px"
	 width="112.47px" height="144.191px" viewBox="0 0 112.47 144.191" enable-background="new 0 0 112.47 144.191"
	 xml:space="preserve">
<g>
	<path fill-rule="evenodd" clip-rule="evenodd" fill="#331842" d="M104.495,8.837c-4.23-0.721-8.459-1.4-12.57-2.08
		c-0.219-0.531-41.049-4.021-52.959-5.141c-7.111-0.68-14.23-1.371-21.361-1.609c-4.16-0.15-6.83,2.129-7.199,6.619
		c-1.279,15.76-2.619,31.52-3.93,47.27c-2.121,25.38-4.189,50.75-6.371,76.119c-0.58,6.689,1.141,8.59,7.82,9.051
		c16.6,1.129,33.17,2.68,49.77,3.709c12.262,0.76,24.551,0.961,36.82,1.41c3.59,0.141,5.66-1.699,6.311-5.09
		c7.84-40.908,10.781-115.248,11.381-119.417C113.226,12.597,111.415,10.017,104.495,8.837z M109.456,17.155
		c-1.191,14.59-2.26,29.191-3.301,43.791c-1.25,17.58-2.25,35.189-3.711,52.76c-0.6,7.27-2.219,14.449-3.119,21.709
		c-0.551,4.359-2.789,6.59-7.1,6.68c-4.811,0.09-9.621,0.02-14.439,0.02c0,0.141-36.121-2.859-54.182-4.488
		c-5.299-0.471-10.6-1.031-15.92-1.262c-4.379-0.18-5.648-2.219-5.289-6.42c1.6-18.229,2.971-36.479,4.49-54.719
		c1.82-21.718,3.73-43.429,5.559-65.138c0.58-6.891,2.4-8.602,9.641-7.961c10.439,0.92,20.859,2.01,31.27,3.16
		c16.852,1.859,33.682,3.971,50.541,5.66C108.155,11.376,109.806,12.896,109.456,17.155z"/>
	<path opacity="0.9" fill-rule="evenodd" clip-rule="evenodd" fill="#D1D1D1" d="M109.456,17.155
		c-1.191,14.59-2.26,29.191-3.301,43.791c-1.25,17.58-2.25,35.189-3.711,52.76c-0.6,7.27-2.219,14.449-3.119,21.709
		c-0.551,4.359-2.789,6.59-7.1,6.68c-4.811,0.09-9.621,0.02-14.439,0.02c0,0.141-36.121-2.859-54.182-4.488
		c-5.299-0.471-10.6-1.031-15.92-1.262c-4.379-0.18-5.648-2.219-5.289-6.42c1.6-18.229,2.971-36.479,4.49-54.719
		c1.82-21.718,3.73-43.429,5.559-65.138c0.58-6.891,2.4-8.602,9.641-7.961c10.439,0.92,20.859,2.01,31.27,3.16
		c16.852,1.859,33.682,3.971,50.541,5.66C108.155,11.376,109.806,12.896,109.456,17.155z"/>
	<g>
		<g>
			<path fill="#331842" d="M29.977,117.894l1.754,0.155l0.674,13.623l0.19,0.017l2.942-13.304l1.645,0.146l-3.494,14.756
				l-2.693-0.238L29.977,117.894z"/>
			<path fill="#331842" d="M38.481,123.21l1.673,0.147l-0.92,10.418l-1.673-0.147L38.481,123.21z M38.801,118.673l1.862,0.164
				l-0.14,1.58l-1.862-0.164L38.801,118.673z"/>
			<path fill="#331842" d="M47.256,126.406l-0.051,0.588l-1.672-0.147l0.051-0.588c0.057-0.642,0.033-1.073-0.07-1.293
				c-0.104-0.221-0.318-0.345-0.646-0.374c-0.29-0.025-0.505,0.053-0.644,0.233c-0.141,0.183-0.229,0.504-0.27,0.963l-0.037,0.416
				c-0.02,0.223,0.017,0.447,0.111,0.673c0.094,0.227,0.258,0.473,0.49,0.738l1.848,2.185c0.206,0.25,0.359,0.503,0.461,0.757
				c0.102,0.255,0.142,0.489,0.123,0.705l-0.088,0.993c-0.08,0.898-0.332,1.512-0.759,1.838c-0.426,0.327-1.11,0.447-2.053,0.364
				c-0.979-0.086-1.643-0.335-1.989-0.747c-0.348-0.412-0.476-1.128-0.386-2.148l0.079-0.892l1.658,0.146l-0.079,0.892
				c-0.058,0.662-0.03,1.101,0.083,1.315c0.113,0.214,0.338,0.336,0.674,0.365c0.344,0.03,0.598-0.05,0.76-0.238
				c0.163-0.19,0.268-0.539,0.312-1.046l0.035-0.396c0.049-0.567-0.179-1.139-0.686-1.715c-0.016-0.021-0.027-0.037-0.037-0.044
				l-1.796-2.161c-0.19-0.228-0.321-0.447-0.394-0.661c-0.072-0.215-0.098-0.448-0.075-0.698l0.065-0.749
				c0.076-0.857,0.323-1.45,0.74-1.777s1.074-0.451,1.972-0.372c0.934,0.082,1.567,0.328,1.901,0.738
				C47.224,124.68,47.346,125.392,47.256,126.406z"/>
			<path fill="#331842" d="M49.752,124.206l1.673,0.148l-0.705,7.986c-0.054,0.614-0.004,1.047,0.152,1.295
				c0.156,0.249,0.447,0.392,0.873,0.429c0.417,0.037,0.723-0.057,0.915-0.281c0.193-0.225,0.316-0.638,0.37-1.238l0.705-7.986
				l1.7,0.149l-0.92,10.418l-1.564-0.138l-0.079-0.649c-0.253,0.27-0.552,0.463-0.901,0.578c-0.348,0.115-0.748,0.154-1.201,0.113
				c-0.717-0.062-1.206-0.283-1.47-0.661c-0.263-0.376-0.356-1.005-0.278-1.883L49.752,124.206z"/>
			<path fill="#331842" d="M63.242,127.848l-0.705,7.986l-1.564-0.139l-0.052-0.646c-0.253,0.27-0.56,0.466-0.922,0.586
				c-0.362,0.121-0.771,0.162-1.224,0.122c-0.707-0.062-1.192-0.284-1.455-0.664c-0.264-0.381-0.355-1.014-0.277-1.898l0.184-2.078
				c0.071-0.817,0.42-1.372,1.044-1.665c0.624-0.292,1.681-0.393,3.171-0.302l0.131-1.479c0.056-0.628,0.014-1.059-0.126-1.288
				s-0.413-0.363-0.821-0.399c-0.39-0.034-0.678,0.041-0.862,0.226c-0.185,0.184-0.3,0.52-0.343,1.006l-0.051,0.578l-1.672-0.147
				l0.025-0.284c0.092-1.04,0.357-1.73,0.799-2.069s1.183-0.462,2.225-0.369c1.016,0.089,1.708,0.341,2.078,0.754
				C63.193,126.09,63.333,126.815,63.242,127.848z M61.338,130.162c-0.872-0.049-1.474,0.014-1.805,0.188
				c-0.33,0.176-0.519,0.526-0.564,1.052l-0.148,1.673c-0.055,0.622-0.011,1.053,0.133,1.29c0.145,0.236,0.424,0.374,0.841,0.41
				c0.408,0.036,0.711-0.058,0.909-0.281c0.197-0.225,0.322-0.631,0.374-1.219L61.338,130.162z"/>
			<path fill="#331842" d="M66.412,121.112l1.673,0.147l-1.32,14.948l-1.673-0.147L66.412,121.112z"/>
		</g>
	</g>
	<g>
		<path fill="#331842" d="M42.279,12.487l1.07,0.095c0.904,0.08,1.485,0.237,1.744,0.474c0.259,0.237,0.355,0.735,0.287,1.496
			l-0.383,4.338c-0.066,0.756-0.25,1.229-0.552,1.418s-0.899,0.244-1.794,0.165l-1.069-0.095L42.279,12.487z M43.14,13.15
			l-0.594,6.725l0.294,0.026c0.441,0.038,0.736,0.012,0.887-0.086c0.15-0.096,0.242-0.33,0.275-0.701l0.436-4.943
			c0.033-0.375-0.016-0.624-0.149-0.749s-0.419-0.207-0.854-0.245L43.14,13.15z"/>
		<path fill="#331842" d="M46.784,15.294l0.883,0.078l-0.485,5.5l-0.883-0.078L46.784,15.294z M46.952,12.9l0.983,0.087
			l-0.074,0.834l-0.982-0.087L46.952,12.9z"/>
		<path fill="#331842" d="M51.416,16.982l-0.027,0.31l-0.883-0.078l0.027-0.31c0.03-0.34,0.019-0.567-0.037-0.684
			c-0.055-0.116-0.168-0.182-0.34-0.197c-0.153-0.014-0.268,0.028-0.341,0.125c-0.073,0.095-0.121,0.265-0.143,0.508l-0.019,0.219
			c-0.011,0.117,0.009,0.236,0.059,0.354c0.049,0.12,0.136,0.25,0.258,0.39l0.977,1.155c0.109,0.131,0.189,0.264,0.243,0.397
			c0.054,0.135,0.075,0.259,0.065,0.373l-0.047,0.525c-0.042,0.474-0.176,0.797-0.4,0.97c-0.225,0.172-0.586,0.237-1.084,0.193
			c-0.517-0.046-0.867-0.178-1.051-0.396c-0.183-0.218-0.25-0.596-0.203-1.135l0.042-0.471l0.876,0.077l-0.042,0.471
			c-0.03,0.35-0.017,0.582,0.044,0.694c0.059,0.113,0.178,0.178,0.355,0.193c0.181,0.017,0.314-0.026,0.401-0.127
			c0.086-0.1,0.142-0.283,0.165-0.55l0.018-0.209c0.027-0.3-0.094-0.603-0.361-0.906c-0.008-0.012-0.016-0.019-0.02-0.023
			l-0.947-1.141c-0.102-0.12-0.17-0.236-0.208-0.349c-0.039-0.114-0.052-0.236-0.04-0.369l0.034-0.395
			c0.04-0.454,0.171-0.767,0.391-0.939s0.567-0.238,1.041-0.196c0.493,0.043,0.827,0.173,1.004,0.39
			C51.399,16.071,51.463,16.447,51.416,16.982z"/>
		<path fill="#331842" d="M55.328,17.494l-0.031,0.354l-0.926-0.082l0.045-0.519c0.032-0.361,0.021-0.594-0.035-0.699
			s-0.17-0.166-0.342-0.182c-0.173-0.015-0.298,0.031-0.374,0.138c-0.077,0.106-0.13,0.327-0.16,0.663l-0.261,2.958
			c-0.03,0.343-0.017,0.572,0.044,0.689c0.06,0.116,0.178,0.183,0.354,0.198c0.167,0.015,0.287-0.026,0.357-0.123
			c0.072-0.096,0.123-0.324,0.154-0.685l0.053-0.588l0.926,0.082l-0.037,0.428c-0.054,0.605-0.191,1.011-0.415,1.211
			c-0.223,0.202-0.59,0.281-1.102,0.235c-0.507-0.045-0.853-0.189-1.036-0.432s-0.249-0.666-0.195-1.269l0.231-2.622
			c0.054-0.609,0.19-1.015,0.411-1.214c0.22-0.2,0.586-0.277,1.098-0.232c0.508,0.045,0.854,0.188,1.04,0.429
			S55.381,16.895,55.328,17.494z"/>
		<path fill="#331842" d="M59.389,17.702l-0.372,4.216l-0.825-0.073l-0.027-0.342c-0.134,0.143-0.296,0.246-0.487,0.311
			c-0.191,0.063-0.407,0.086-0.646,0.064c-0.373-0.032-0.63-0.15-0.768-0.351c-0.14-0.202-0.188-0.535-0.147-1.002l0.097-1.098
			c0.039-0.432,0.222-0.725,0.552-0.879c0.329-0.154,0.888-0.208,1.674-0.16l0.069-0.78c0.029-0.333,0.007-0.56-0.066-0.68
			c-0.074-0.122-0.219-0.192-0.434-0.212c-0.206-0.018-0.357,0.021-0.455,0.119c-0.099,0.097-0.158,0.274-0.182,0.531l-0.026,0.305
			l-0.883-0.077l0.013-0.15c0.049-0.549,0.189-0.913,0.422-1.092c0.233-0.18,0.625-0.244,1.175-0.195
			c0.536,0.047,0.901,0.18,1.097,0.397C59.363,16.774,59.438,17.156,59.389,17.702z M58.385,18.922
			c-0.461-0.025-0.779,0.008-0.953,0.101c-0.176,0.093-0.274,0.277-0.299,0.556l-0.078,0.882c-0.029,0.328-0.006,0.556,0.07,0.681
			c0.075,0.126,0.224,0.198,0.443,0.218c0.216,0.019,0.376-0.031,0.48-0.149c0.104-0.118,0.17-0.333,0.197-0.644L58.385,18.922z"/>
		<path fill="#331842" d="M63.752,17.93l-0.286,3.243c-0.041,0.467-0.147,0.786-0.319,0.961c-0.172,0.173-0.445,0.244-0.818,0.212
			c-0.239-0.021-0.447-0.081-0.625-0.178c-0.177-0.098-0.318-0.227-0.424-0.391l-0.214,2.419l-0.883-0.078l0.669-7.582l0.826,0.073
			l0.027,0.342c0.133-0.143,0.295-0.246,0.486-0.311c0.191-0.063,0.406-0.085,0.646-0.063c0.373,0.032,0.629,0.149,0.768,0.35
			C63.744,17.129,63.793,17.462,63.752,17.93z M62.814,17.989c0.028-0.325,0.005-0.551-0.071-0.675
			c-0.075-0.127-0.224-0.199-0.443-0.219c-0.215-0.019-0.375,0.031-0.479,0.15c-0.105,0.117-0.17,0.33-0.197,0.638l-0.262,2.958
			c-0.027,0.314-0.002,0.537,0.078,0.671c0.08,0.132,0.23,0.209,0.45,0.228c0.22,0.02,0.378-0.025,0.475-0.136
			c0.097-0.109,0.159-0.329,0.188-0.657L62.814,17.989z"/>
		<path fill="#331842" d="M67.944,18.458l-0.372,4.216L66.746,22.6l-0.027-0.342c-0.133,0.143-0.295,0.245-0.486,0.311
			c-0.191,0.063-0.406,0.086-0.646,0.064c-0.373-0.033-0.629-0.15-0.768-0.352c-0.139-0.202-0.188-0.535-0.146-1.002l0.097-1.098
			c0.038-0.432,0.222-0.724,0.552-0.878c0.329-0.155,0.888-0.208,1.674-0.16l0.068-0.78c0.029-0.333,0.008-0.56-0.066-0.68
			c-0.073-0.122-0.218-0.193-0.433-0.212c-0.206-0.019-0.358,0.021-0.456,0.119c-0.098,0.097-0.158,0.274-0.18,0.531L65.9,18.427
			l-0.883-0.078l0.014-0.149c0.048-0.55,0.188-0.913,0.421-1.093c0.233-0.179,0.624-0.243,1.175-0.195
			c0.536,0.048,0.902,0.181,1.098,0.398C67.919,17.53,67.992,17.912,67.944,18.458z M66.939,19.678
			c-0.461-0.025-0.777,0.007-0.952,0.101c-0.175,0.093-0.274,0.277-0.299,0.556l-0.078,0.882c-0.028,0.328-0.005,0.556,0.07,0.681
			c0.075,0.126,0.224,0.197,0.443,0.217c0.215,0.02,0.376-0.03,0.479-0.148c0.105-0.118,0.17-0.333,0.197-0.644L66.939,19.678z"/>
		<path fill="#331842" d="M72.001,18.966L71.97,19.32l-0.927-0.082l0.046-0.519c0.032-0.361,0.021-0.594-0.036-0.699
			c-0.055-0.106-0.169-0.166-0.341-0.182c-0.173-0.016-0.298,0.031-0.374,0.138c-0.077,0.106-0.131,0.327-0.16,0.663l-0.262,2.958
			c-0.029,0.343-0.016,0.572,0.045,0.689c0.06,0.115,0.178,0.182,0.354,0.197c0.167,0.015,0.287-0.025,0.358-0.122
			c0.071-0.096,0.122-0.324,0.154-0.685l0.052-0.588l0.927,0.082l-0.038,0.428c-0.054,0.605-0.192,1.011-0.415,1.211
			c-0.223,0.202-0.59,0.28-1.102,0.235c-0.508-0.045-0.854-0.189-1.037-0.432c-0.183-0.243-0.248-0.666-0.195-1.269l0.232-2.622
			c0.054-0.609,0.191-1.015,0.41-1.215c0.221-0.199,0.587-0.276,1.1-0.231c0.506,0.045,0.854,0.188,1.039,0.429
			C71.986,17.946,72.054,18.368,72.001,18.966z"/>
		<path fill="#331842" d="M73.291,17.635l0.883,0.078l-0.486,5.5l-0.883-0.078L73.291,17.635z M73.459,15.241l0.982,0.087
			l-0.074,0.834l-0.982-0.087L73.459,15.241z"/>
		<path fill="#331842" d="M77.822,15.626l0.896,0.079l-0.697,7.891l-0.824-0.073l-0.043-0.343c-0.133,0.146-0.293,0.25-0.479,0.312
			c-0.187,0.063-0.399,0.085-0.638,0.063c-0.369-0.032-0.623-0.15-0.766-0.351c-0.141-0.202-0.191-0.536-0.15-1.003l0.287-3.243
			c0.041-0.468,0.148-0.786,0.323-0.961c0.175-0.173,0.446-0.243,0.814-0.211c0.239,0.021,0.446,0.08,0.621,0.176
			c0.175,0.098,0.313,0.227,0.414,0.391L77.822,15.626z M77.499,19.286c0.027-0.312,0.002-0.532-0.075-0.665
			c-0.078-0.133-0.225-0.209-0.439-0.229c-0.22-0.02-0.381,0.027-0.482,0.142c-0.102,0.113-0.166,0.328-0.194,0.646l-0.262,2.958
			c-0.028,0.321-0.003,0.546,0.078,0.676c0.08,0.129,0.23,0.203,0.45,0.223c0.215,0.02,0.373-0.029,0.473-0.146
			c0.1-0.118,0.163-0.333,0.19-0.647L77.499,19.286z"/>
		<path fill="#331842" d="M82.629,19.754l-0.372,4.216l-0.825-0.073l-0.027-0.342c-0.134,0.143-0.296,0.245-0.486,0.311
			c-0.192,0.063-0.407,0.086-0.646,0.064c-0.373-0.033-0.629-0.15-0.768-0.352c-0.139-0.202-0.188-0.535-0.147-1.002l0.097-1.098
			c0.039-0.432,0.223-0.724,0.552-0.878c0.329-0.155,0.888-0.208,1.674-0.16l0.069-0.78c0.029-0.333,0.008-0.56-0.066-0.68
			c-0.074-0.122-0.219-0.193-0.434-0.212c-0.206-0.019-0.357,0.021-0.455,0.119c-0.098,0.097-0.158,0.274-0.182,0.531l-0.026,0.305
			l-0.883-0.078l0.013-0.149c0.049-0.55,0.189-0.913,0.422-1.093c0.233-0.179,0.625-0.243,1.176-0.195
			c0.535,0.048,0.9,0.181,1.097,0.398C82.604,18.827,82.678,19.208,82.629,19.754z M81.625,20.975
			c-0.461-0.025-0.779,0.007-0.953,0.101c-0.175,0.093-0.273,0.277-0.299,0.556l-0.078,0.882c-0.028,0.328-0.006,0.556,0.07,0.681
			c0.076,0.126,0.224,0.197,0.444,0.217c0.215,0.02,0.375-0.03,0.479-0.148s0.17-0.333,0.197-0.644L81.625,20.975z"/>
		<path fill="#331842" d="M86.377,16.381l0.897,0.079l-0.696,7.891l-0.826-0.072l-0.041-0.344c-0.134,0.147-0.295,0.251-0.48,0.313
			s-0.398,0.085-0.639,0.063c-0.368-0.032-0.623-0.15-0.764-0.351c-0.143-0.203-0.191-0.536-0.15-1.003l0.286-3.243
			c0.041-0.468,0.148-0.787,0.323-0.961c0.175-0.173,0.445-0.243,0.814-0.211c0.239,0.021,0.446,0.08,0.621,0.176
			c0.175,0.098,0.312,0.227,0.414,0.39L86.377,16.381z M86.055,20.041c0.027-0.312,0.002-0.532-0.075-0.665
			s-0.225-0.209-0.439-0.228c-0.221-0.02-0.381,0.027-0.482,0.142c-0.102,0.113-0.167,0.328-0.195,0.646l-0.261,2.958
			c-0.029,0.321-0.002,0.546,0.078,0.676c0.08,0.129,0.229,0.203,0.45,0.223c0.215,0.019,0.373-0.03,0.472-0.146
			c0.1-0.118,0.164-0.333,0.191-0.647L86.055,20.041z"/>
	</g>
	<g>
		<path fill-rule="evenodd" clip-rule="evenodd" fill="#62A59B" d="M24.571,77.641c-0.059,0.586-0.584,1.016-1.172,0.953
			c-0.588-0.059-1.016-0.584-0.957-1.172l2.719-26.099h-0.004c0.133-1.977,0.707-3.482,1.498-4.523
			c0.613-0.805,1.361-1.34,2.16-1.615c0.834-0.285,1.707-0.281,2.525,0.004c0.816,0.285,1.566,0.846,2.152,1.678
			c0.342,0.48,0.229,1.148-0.256,1.492c-0.48,0.34-1.148,0.227-1.49-0.254c-0.32-0.457-0.707-0.756-1.113-0.896
			c-0.359-0.125-0.746-0.127-1.117,0c-0.404,0.139-0.803,0.436-1.152,0.895c-0.557,0.73-0.963,1.846-1.066,3.367l-0.004-0.002
			c0,0.014-0.002,0.025-0.002,0.039L24.571,77.641z"/>
		<path fill-rule="evenodd" clip-rule="evenodd" fill="#62A59B" d="M46.704,77.104c-0.602,0.268-1.305-0.006-1.57-0.607
			c-0.266-0.6,0.004-1.303,0.605-1.568c3.363-1.5,6.707-2.154,10.027-1.857c3.318,0.297,6.582,1.539,9.787,3.834
			c0.531,0.383,0.656,1.123,0.273,1.658c-0.381,0.535-1.123,0.658-1.658,0.275c-2.846-2.037-5.721-3.139-8.617-3.398
			C52.655,75.182,49.704,75.766,46.704,77.104"/>
		<path fill-rule="evenodd" clip-rule="evenodd" fill="#62A59B" d="M85.638,83.721c-0.057,0.586,0.375,1.109,0.963,1.164
			c0.586,0.059,1.109-0.371,1.166-0.959l2.482-26.123h0.004c0.26-1.964-0.006-3.554-0.578-4.73c-0.441-0.91-1.072-1.582-1.801-2.01
			c-0.76-0.443-1.617-0.613-2.475-0.494s-1.703,0.521-2.441,1.221c-0.432,0.404-0.449,1.082-0.043,1.512
			c0.404,0.43,1.082,0.451,1.514,0.047c0.402-0.385,0.842-0.602,1.266-0.66c0.377-0.053,0.758,0.023,1.096,0.221
			c0.369,0.217,0.701,0.584,0.953,1.104c0.402,0.826,0.58,2,0.383,3.511h0.002l-0.004,0.037L85.638,83.721z"/>
		<path fill-rule="evenodd" clip-rule="evenodd" fill="#3A887B" d="M36.839,61.04c8.047,0.801,13.92,7.977,13.119,16.023
			s-7.973,13.922-16.021,13.121c-8.047-0.801-13.922-7.975-13.121-16.021C21.618,66.116,28.792,60.239,36.839,61.04"/>
		<path fill-rule="evenodd" clip-rule="evenodd" fill="#3A887B" d="M77.011,65.038c8.049,0.803,13.924,7.979,13.123,16.025
			c-0.801,8.045-7.977,13.92-16.023,13.119s-13.922-7.975-13.121-16.021S68.966,64.237,77.011,65.038"/>
		<path fill-rule="evenodd" clip-rule="evenodd" fill="#4C4D4D" d="M36.472,64.717c-6.018-0.6-11.381,3.793-11.979,9.811
			c-0.6,6.02,3.791,11.379,9.811,11.979s11.381-3.791,11.98-9.809C46.882,70.68,42.491,65.317,36.472,64.717"/>
		<path fill-rule="evenodd" clip-rule="evenodd" fill="#4C4D4D" d="M76.646,68.715c-6.02-0.6-11.381,3.795-11.979,9.812
			c-0.6,6.018,3.791,11.379,9.809,11.979c6.021,0.598,11.383-3.791,11.982-9.811C87.058,74.678,82.667,69.315,76.646,68.715"/>
		<path fill-rule="evenodd" clip-rule="evenodd" fill="#363233" d="M42.325,84.084c4.68-3.832,5.365-10.73,1.533-15.41
			s-10.729-5.365-15.406-1.533L42.325,84.084z"/>
		<path fill-rule="evenodd" clip-rule="evenodd" fill="#363233" d="M82.499,88.083c4.678-3.832,5.365-10.729,1.533-15.41
			c-3.832-4.678-10.729-5.365-15.406-1.533L82.499,88.083z"/>
		<path fill-rule="evenodd" clip-rule="evenodd" fill="#363233" d="M41.173,84.909l-13.76-16.801
			c-0.398,0.424-0.766,0.881-1.094,1.365l13.301,16.24C40.159,85.489,40.679,85.217,41.173,84.909"/>
		<path fill-rule="evenodd" clip-rule="evenodd" fill="#363233" d="M81.313,88.905L67.556,72.104
			c-0.398,0.424-0.766,0.881-1.094,1.365l13.299,16.24C80.302,89.483,80.821,89.213,81.313,88.905"/>
	</g>
</g>
</svg>
