<?xml version="1.0" encoding="utf-8"?>
<!-- Generator: Adobe Illustrator 16.0.0, SVG Export Plug-In . SVG Version: 6.00 Build 0)  -->
<!DOCTYPE svg PUBLIC "-//W3C//DTD SVG 1.1//EN" "http://www.w3.org/Graphics/SVG/1.1/DTD/svg11.dtd">
<svg version="1.1" id="Capa_1" xmlns="http://www.w3.org/2000/svg" xmlns:xlink="http://www.w3.org/1999/xlink" x="0px" y="0px"
	 width="112.469px" height="144.193px" viewBox="0 0 112.469 144.193" enable-background="new 0 0 112.469 144.193"
	 xml:space="preserve">
<g>
	<path fill-rule="evenodd" clip-rule="evenodd" fill="#331842" d="M104.496,8.837c-4.23-0.721-8.461-1.4-12.57-2.08
		c-0.221-0.529-41.051-4.02-52.961-5.141c-7.109-0.68-14.229-1.369-21.359-1.609c-4.16-0.15-6.83,2.131-7.199,6.621
		c-1.281,15.758-2.621,31.518-3.93,47.268c-2.121,25.38-4.191,50.75-6.371,76.121c-0.58,6.689,1.141,8.59,7.82,9.049
		c16.6,1.131,33.17,2.68,49.77,3.711c12.26,0.76,24.551,0.959,36.82,1.41c3.59,0.139,5.66-1.701,6.311-5.09
		c7.84-40.91,10.779-115.25,11.379-119.419C113.225,12.597,111.416,10.017,104.496,8.837z M109.455,17.155
		c-1.189,14.59-2.26,29.191-3.299,43.791c-1.25,17.58-2.25,35.189-3.711,52.76c-0.6,7.27-2.219,14.449-3.119,21.711
		c-0.551,4.359-2.791,6.59-7.1,6.68c-4.811,0.09-9.621,0.02-14.441,0.02c0,0.141-36.119-2.859-54.18-4.49
		c-5.299-0.471-10.6-1.029-15.92-1.26c-4.379-0.18-5.65-2.221-5.289-6.42c1.6-18.23,2.969-36.48,4.49-54.721
		c1.818-21.718,3.729-43.429,5.559-65.138c0.58-6.891,2.4-8.6,9.641-7.959c10.439,0.92,20.859,2.01,31.27,3.158
		c16.85,1.861,33.68,3.971,50.541,5.66C108.156,11.376,109.805,12.896,109.455,17.155z"/>
	<path opacity="0.9" fill-rule="evenodd" clip-rule="evenodd" fill="#D1D1D1" d="M109.455,17.155
		c-1.189,14.59-2.26,29.191-3.299,43.791c-1.25,17.58-2.25,35.189-3.711,52.76c-0.6,7.27-2.219,14.449-3.119,21.711
		c-0.551,4.359-2.791,6.59-7.1,6.68c-4.811,0.09-9.621,0.02-14.441,0.02c0,0.141-36.119-2.859-54.18-4.49
		c-5.299-0.471-10.6-1.029-15.92-1.26c-4.379-0.18-5.65-2.221-5.289-6.42c1.6-18.23,2.969-36.48,4.49-54.721
		c1.818-21.718,3.729-43.429,5.559-65.138c0.58-6.891,2.4-8.6,9.641-7.959c10.439,0.92,20.859,2.01,31.27,3.158
		c16.85,1.861,33.68,3.971,50.541,5.66C108.156,11.376,109.805,12.896,109.455,17.155z"/>
	<g>
		<path fill="#331842" d="M42.279,12.486l1.07,0.095c0.904,0.08,1.485,0.237,1.744,0.474c0.259,0.237,0.355,0.735,0.287,1.496
			l-0.383,4.338c-0.066,0.756-0.25,1.229-0.552,1.418s-0.899,0.244-1.794,0.165l-1.069-0.095L42.279,12.486z M43.14,13.149
			l-0.594,6.725L42.84,19.9c0.441,0.038,0.736,0.012,0.887-0.086c0.15-0.096,0.242-0.33,0.275-0.701l0.436-4.943
			c0.033-0.375-0.016-0.624-0.149-0.749s-0.419-0.207-0.854-0.245L43.14,13.149z"/>
		<path fill="#331842" d="M46.784,15.293l0.883,0.078l-0.485,5.5l-0.883-0.078L46.784,15.293z M46.952,12.899l0.983,0.087
			l-0.074,0.834l-0.982-0.087L46.952,12.899z"/>
		<path fill="#331842" d="M51.416,16.981l-0.027,0.31l-0.883-0.078l0.027-0.31c0.03-0.34,0.019-0.567-0.037-0.684
			c-0.055-0.116-0.168-0.182-0.34-0.197c-0.153-0.014-0.268,0.028-0.341,0.125c-0.073,0.095-0.121,0.265-0.143,0.508l-0.019,0.219
			c-0.011,0.117,0.009,0.236,0.059,0.354c0.049,0.12,0.136,0.25,0.258,0.39l0.977,1.155c0.109,0.131,0.189,0.264,0.243,0.397
			c0.054,0.135,0.075,0.259,0.065,0.373l-0.047,0.525c-0.042,0.474-0.176,0.797-0.4,0.97c-0.225,0.172-0.586,0.237-1.084,0.193
			c-0.517-0.046-0.867-0.178-1.051-0.396c-0.183-0.218-0.25-0.596-0.203-1.135l0.042-0.471l0.876,0.077l-0.042,0.471
			c-0.03,0.35-0.017,0.582,0.044,0.694c0.059,0.113,0.178,0.178,0.355,0.193c0.181,0.017,0.314-0.026,0.401-0.127
			c0.086-0.1,0.142-0.283,0.165-0.55l0.018-0.209c0.027-0.3-0.094-0.603-0.361-0.906c-0.008-0.012-0.016-0.019-0.02-0.023
			l-0.947-1.141c-0.102-0.12-0.17-0.236-0.208-0.349c-0.039-0.114-0.052-0.236-0.04-0.369l0.034-0.395
			c0.04-0.454,0.171-0.767,0.391-0.939s0.567-0.238,1.041-0.196c0.493,0.043,0.827,0.173,1.004,0.39
			C51.399,16.07,51.463,16.446,51.416,16.981z"/>
		<path fill="#331842" d="M55.328,17.493l-0.031,0.354l-0.926-0.082l0.045-0.519c0.032-0.361,0.021-0.594-0.035-0.699
			s-0.17-0.166-0.342-0.182c-0.173-0.015-0.298,0.031-0.374,0.138c-0.077,0.106-0.13,0.327-0.16,0.663l-0.261,2.958
			c-0.03,0.343-0.017,0.572,0.044,0.689c0.06,0.116,0.178,0.183,0.354,0.198c0.167,0.015,0.287-0.026,0.357-0.123
			c0.072-0.096,0.123-0.324,0.154-0.685l0.053-0.588l0.926,0.082l-0.037,0.428c-0.054,0.605-0.191,1.011-0.415,1.211
			c-0.223,0.202-0.59,0.281-1.102,0.235c-0.507-0.045-0.853-0.189-1.036-0.432s-0.249-0.666-0.195-1.269l0.231-2.622
			c0.054-0.609,0.19-1.015,0.411-1.214c0.22-0.2,0.586-0.277,1.098-0.232c0.508,0.045,0.854,0.188,1.04,0.429
			S55.381,16.894,55.328,17.493z"/>
		<path fill="#331842" d="M59.389,17.701l-0.372,4.216l-0.825-0.073l-0.027-0.342c-0.134,0.143-0.296,0.246-0.487,0.311
			c-0.191,0.063-0.407,0.086-0.646,0.064c-0.373-0.032-0.63-0.15-0.768-0.351c-0.14-0.202-0.188-0.535-0.147-1.002l0.097-1.098
			c0.039-0.432,0.222-0.725,0.552-0.879c0.329-0.154,0.888-0.208,1.674-0.16l0.069-0.78c0.029-0.333,0.007-0.56-0.066-0.68
			c-0.074-0.122-0.219-0.192-0.434-0.212c-0.206-0.018-0.357,0.021-0.455,0.119c-0.099,0.097-0.158,0.274-0.182,0.531l-0.026,0.305
			l-0.883-0.077l0.013-0.15c0.049-0.549,0.189-0.913,0.422-1.092c0.233-0.18,0.625-0.244,1.175-0.195
			c0.536,0.047,0.901,0.18,1.097,0.397C59.363,16.773,59.438,17.155,59.389,17.701z M58.385,18.921
			c-0.461-0.025-0.779,0.008-0.953,0.101c-0.176,0.093-0.274,0.277-0.299,0.556l-0.078,0.882c-0.029,0.328-0.006,0.556,0.07,0.681
			c0.075,0.126,0.224,0.198,0.443,0.218c0.216,0.019,0.376-0.031,0.48-0.149c0.104-0.118,0.17-0.333,0.197-0.644L58.385,18.921z"/>
		<path fill="#331842" d="M63.752,17.929l-0.286,3.243c-0.041,0.467-0.147,0.786-0.319,0.961c-0.172,0.173-0.445,0.244-0.818,0.212
			c-0.239-0.021-0.447-0.081-0.625-0.178c-0.177-0.098-0.318-0.227-0.424-0.391l-0.214,2.419l-0.883-0.078l0.669-7.582l0.826,0.073
			l0.027,0.342c0.133-0.143,0.295-0.246,0.486-0.311c0.191-0.063,0.406-0.085,0.646-0.063c0.373,0.032,0.629,0.149,0.768,0.35
			C63.744,17.128,63.793,17.461,63.752,17.929z M62.814,17.988c0.028-0.325,0.005-0.551-0.071-0.675
			c-0.075-0.127-0.224-0.199-0.443-0.219c-0.215-0.019-0.375,0.031-0.479,0.15c-0.105,0.117-0.17,0.33-0.197,0.638l-0.262,2.958
			c-0.027,0.314-0.002,0.537,0.078,0.671c0.08,0.132,0.23,0.209,0.45,0.228c0.22,0.02,0.378-0.025,0.475-0.136
			c0.097-0.109,0.159-0.329,0.188-0.657L62.814,17.988z"/>
		<path fill="#331842" d="M67.944,18.457l-0.372,4.216l-0.826-0.073l-0.027-0.342c-0.133,0.143-0.295,0.245-0.486,0.311
			c-0.191,0.063-0.406,0.086-0.646,0.064c-0.373-0.033-0.629-0.15-0.768-0.352c-0.139-0.202-0.188-0.535-0.146-1.002l0.097-1.098
			c0.038-0.432,0.222-0.724,0.552-0.878c0.329-0.155,0.888-0.208,1.674-0.16l0.068-0.78c0.029-0.333,0.008-0.56-0.066-0.68
			c-0.073-0.122-0.218-0.193-0.433-0.212c-0.206-0.019-0.358,0.021-0.456,0.119c-0.098,0.097-0.158,0.274-0.18,0.531L65.9,18.426
			l-0.883-0.078l0.014-0.149c0.048-0.55,0.188-0.913,0.421-1.093c0.233-0.179,0.624-0.243,1.175-0.195
			c0.536,0.048,0.902,0.181,1.098,0.398C67.919,17.529,67.992,17.911,67.944,18.457z M66.939,19.677
			c-0.461-0.025-0.777,0.007-0.952,0.101c-0.175,0.093-0.274,0.277-0.299,0.556l-0.078,0.882c-0.028,0.328-0.005,0.556,0.07,0.681
			c0.075,0.126,0.224,0.197,0.443,0.217c0.215,0.02,0.376-0.03,0.479-0.148c0.105-0.118,0.17-0.333,0.197-0.644L66.939,19.677z"/>
		<path fill="#331842" d="M72.001,18.965l-0.031,0.354l-0.927-0.082l0.046-0.519c0.032-0.361,0.021-0.594-0.036-0.699
			c-0.055-0.106-0.169-0.166-0.341-0.182c-0.173-0.016-0.298,0.031-0.374,0.138c-0.077,0.106-0.131,0.327-0.16,0.663l-0.262,2.958
			c-0.029,0.343-0.016,0.572,0.045,0.689c0.06,0.115,0.178,0.182,0.354,0.197c0.167,0.015,0.287-0.025,0.358-0.122
			c0.071-0.096,0.122-0.324,0.154-0.685l0.052-0.588l0.927,0.082l-0.038,0.428c-0.054,0.605-0.192,1.011-0.415,1.211
			c-0.223,0.202-0.59,0.28-1.102,0.235c-0.508-0.045-0.854-0.189-1.037-0.432c-0.183-0.243-0.248-0.666-0.195-1.269l0.232-2.622
			c0.054-0.609,0.191-1.015,0.41-1.215c0.221-0.199,0.587-0.276,1.1-0.231c0.506,0.045,0.854,0.188,1.039,0.429
			C71.986,17.945,72.054,18.367,72.001,18.965z"/>
		<path fill="#331842" d="M73.291,17.634l0.883,0.078l-0.486,5.5l-0.883-0.078L73.291,17.634z M73.459,15.24l0.982,0.087
			l-0.074,0.834l-0.982-0.087L73.459,15.24z"/>
		<path fill="#331842" d="M77.822,15.625l0.896,0.079l-0.697,7.891l-0.824-0.073l-0.043-0.343c-0.133,0.146-0.293,0.25-0.479,0.312
			c-0.187,0.063-0.399,0.085-0.638,0.063c-0.369-0.032-0.623-0.15-0.766-0.351c-0.141-0.202-0.191-0.536-0.15-1.003l0.287-3.243
			c0.041-0.468,0.148-0.786,0.323-0.961c0.175-0.173,0.446-0.243,0.814-0.211c0.239,0.021,0.446,0.08,0.621,0.176
			c0.175,0.098,0.313,0.227,0.414,0.391L77.822,15.625z M77.499,19.285c0.027-0.312,0.002-0.532-0.075-0.665
			c-0.078-0.133-0.225-0.209-0.439-0.229c-0.22-0.02-0.381,0.027-0.482,0.142c-0.102,0.113-0.166,0.328-0.194,0.646l-0.262,2.958
			c-0.028,0.321-0.003,0.546,0.078,0.676c0.08,0.129,0.23,0.203,0.45,0.223c0.215,0.02,0.373-0.029,0.473-0.146
			c0.1-0.118,0.163-0.333,0.19-0.647L77.499,19.285z"/>
		<path fill="#331842" d="M82.629,19.753l-0.372,4.216l-0.825-0.073l-0.027-0.342c-0.134,0.143-0.296,0.245-0.486,0.311
			c-0.192,0.063-0.407,0.086-0.646,0.064c-0.373-0.033-0.629-0.15-0.768-0.352c-0.139-0.202-0.188-0.535-0.147-1.002l0.097-1.098
			c0.039-0.432,0.223-0.724,0.552-0.878c0.329-0.155,0.888-0.208,1.674-0.16l0.069-0.78c0.029-0.333,0.008-0.56-0.066-0.68
			c-0.074-0.122-0.219-0.193-0.434-0.212c-0.206-0.019-0.357,0.021-0.455,0.119c-0.098,0.097-0.158,0.274-0.182,0.531l-0.026,0.305
			l-0.883-0.078l0.013-0.149c0.049-0.55,0.189-0.913,0.422-1.093c0.233-0.179,0.625-0.243,1.176-0.195
			c0.535,0.048,0.9,0.181,1.097,0.398C82.604,18.826,82.678,19.208,82.629,19.753z M81.625,20.974
			c-0.461-0.025-0.779,0.007-0.953,0.101c-0.175,0.093-0.273,0.277-0.299,0.556l-0.078,0.882c-0.028,0.328-0.006,0.556,0.07,0.681
			c0.076,0.126,0.224,0.197,0.444,0.217c0.215,0.02,0.375-0.03,0.479-0.148s0.17-0.333,0.197-0.644L81.625,20.974z"/>
		<path fill="#331842" d="M86.377,16.38l0.897,0.079l-0.696,7.891l-0.826-0.072l-0.041-0.344c-0.134,0.147-0.295,0.251-0.48,0.313
			s-0.398,0.085-0.639,0.063c-0.368-0.032-0.623-0.15-0.764-0.351c-0.143-0.203-0.191-0.536-0.15-1.003l0.286-3.243
			c0.041-0.468,0.148-0.787,0.323-0.961c0.175-0.173,0.445-0.243,0.814-0.211c0.239,0.021,0.446,0.08,0.621,0.176
			c0.175,0.098,0.312,0.227,0.414,0.39L86.377,16.38z M86.055,20.04c0.027-0.312,0.002-0.532-0.075-0.665s-0.225-0.209-0.439-0.228
			c-0.221-0.02-0.381,0.027-0.482,0.142c-0.102,0.113-0.167,0.328-0.195,0.646l-0.261,2.958c-0.029,0.321-0.002,0.546,0.078,0.676
			c0.08,0.129,0.229,0.203,0.45,0.223c0.215,0.019,0.373-0.03,0.472-0.146c0.1-0.118,0.164-0.333,0.191-0.647L86.055,20.04z"/>
	</g>
	<path fill-rule="evenodd" clip-rule="evenodd" fill="#F5B176" d="M71.504,89.624l4.568,0.447c-0.375,1.369,0.225,2.465,0.965,3.932
		l-6.914-0.85C70.986,92.034,71.359,91.051,71.504,89.624"/>
	<path fill-rule="evenodd" clip-rule="evenodd" fill="#F5B176" d="M35.637,85.899l4.568,0.449c-0.375,1.367-0.262,2.676,0.477,4.141
		l-6.768-0.768C34.779,88.602,35.494,87.329,35.637,85.899"/>
	<path fill-rule="evenodd" clip-rule="evenodd" fill="#31756A" d="M60.738,88.192l-15.637-0.713
		c-0.529,3.275-0.977,6.525-1.355,9.738l12.902,1.266C58.32,95.829,60.791,90.565,60.738,88.192"/>
	<path fill-rule="evenodd" clip-rule="evenodd" fill="#31756A" d="M51.258,87.262l15.477,2.336c-0.117,3.318-0.312,6.592-0.57,9.816
		l-12.896-1.264C52.145,95.223,50.744,89.581,51.258,87.262"/>
	
		<rect x="55.446" y="46.377" transform="matrix(-0.9952 -0.0976 0.0976 -0.9952 114.0289 106.321)" fill-rule="evenodd" clip-rule="evenodd" fill="#F5B176" width="8.341" height="7.985"/>
	<path fill-rule="evenodd" clip-rule="evenodd" fill="#F5B176" d="M59.537,50.681c3.781,0.371,7.197-2.732,7.607-6.912
		c0.41-4.176-2.34-7.883-6.121-8.254c-3.777-0.371-7.195,2.732-7.605,6.908C53.008,46.603,55.758,50.31,59.537,50.681"/>
	<path fill-rule="evenodd" clip-rule="evenodd" fill="#623714" d="M62.912,37.485c0.521,0.094,1.271,0.482,1.883,1.107
		c1.793,1.83,2.213,4.129,1.863,6.311c-0.611,3.797,6.605-10.385-5.387-11.561l-1.389,3.455L62.912,37.485z"/>
	<path fill-rule="evenodd" clip-rule="evenodd" fill="#78471B" d="M61.016,39.634c-1.328-0.326-2.268-1.482-2.406-2.531
		c-0.529-0.008-1.07,0.215-1.791,0.709c-2.115,1.445-2.973,3.619-3.053,5.828c-0.137,3.844-4.463-11.471,7.529-10.295
		c2.289,0.486,2.586,2.062,1.859,4.201C62.07,37.296,60.441,38.804,61.016,39.634"/>
	<path fill-rule="evenodd" clip-rule="evenodd" fill="#E45351" d="M70.738,54.108c1.336,0.428,2.332,1.762,2.102,3.197
		l-5.598,34.854c-8.268,1.047-16.004,0.273-23.227-2.275l1.275-35.279c0.055-1.455,1.293-2.566,2.686-2.727l-0.004-0.002
		l6.975-0.297l4.479,0.439l0.053,0.004l4.479,0.439l6.785,1.645L70.738,54.108z"/>
	<path fill-rule="evenodd" clip-rule="evenodd" fill="#E33D3B" d="M55.225,50.136c2.965,0.973,5.547,1.197,8.695,0.852l0.344,1.57
		c-3.119,1.293-6.803,0.936-9.793-0.928L55.225,50.136z"/>
	<path fill-rule="evenodd" clip-rule="evenodd" fill="#E45351" d="M72.734,56.042c6.777,11.482,5.219,28.681,3.477,34.326
		l-4.855-0.457c0.115-4.879,1.275-15.508-2.34-21.246L72.734,56.042z"/>
	<path fill-rule="evenodd" clip-rule="evenodd" fill="#E45351" d="M45.518,53.374c-8.879,9.947-10.689,27.103-10.076,32.976
		l4.852,0.496c0.834-4.811,1.758-15.441,6.42-20.367L45.518,53.374z"/>
	<path fill-rule="evenodd" clip-rule="evenodd" fill="#F5B176" d="M33.559,89.422c-0.551,1.145-0.279,2.135,0.664,3.004
		c1.314,0.492,2.924,0.725,4.854,0.682c1-0.514,1.664-1.322,1.76-2.631C39.18,88.18,36.535,87.848,33.559,89.422"/>
	<path fill-rule="evenodd" clip-rule="evenodd" fill="#F5B176" d="M69.906,92.997c-0.551,1.143-0.281,2.135,0.664,3.004
		c1.312,0.49,2.924,0.723,4.854,0.68c1-0.512,1.662-1.32,1.76-2.629C75.525,91.752,72.883,91.42,69.906,92.997"/>
	<path fill-rule="evenodd" clip-rule="evenodd" fill="#78471B" d="M31.889,92.53l46.734,4.582c0.771,0.074,1.34,0.768,1.264,1.537
		l-0.455,4.645c-0.076,0.771-0.768,1.338-1.537,1.262l-46.736-4.58c-0.77-0.076-1.34-0.768-1.264-1.537l0.455-4.645
		C30.426,93.024,31.117,92.454,31.889,92.53"/>
	
		<rect x="31.635" y="102.274" transform="matrix(-0.9952 -0.0976 0.0976 -0.9952 98.8527 210.7775)" fill-rule="evenodd" clip-rule="evenodd" fill="#623714" width="45.889" height="1.395"/>
	<path fill-rule="evenodd" clip-rule="evenodd" fill="#78471B" d="M37.885,102.038L37.35,107.5
		c-0.086,0.865-0.863,1.502-1.727,1.416l-2.637-0.258c-0.865-0.084-1.502-0.859-1.416-1.725l0.535-5.463L37.885,102.038z"/>
	<path fill-rule="evenodd" clip-rule="evenodd" fill="#78471B" d="M76.605,105.833l-0.535,5.463
		c-0.084,0.865-0.861,1.502-1.727,1.418l-2.637-0.258c-0.865-0.086-1.502-0.861-1.416-1.727l0.535-5.463L76.605,105.833z"/>
	<path fill="#1E120D" d="M60.541,46.374l-1.406-0.137c0.018-0.203,0.027-0.326,0.031-0.369c0.045-0.457,0.156-0.824,0.336-1.104
		s0.514-0.582,1.002-0.904s0.783-0.537,0.881-0.643c0.154-0.168,0.242-0.359,0.264-0.574c0.029-0.303-0.066-0.572-0.285-0.812
		c-0.221-0.238-0.535-0.377-0.943-0.418c-0.393-0.037-0.732,0.041-1.02,0.24s-0.502,0.523-0.645,0.973l-1.408-0.316
		c0.105-0.654,0.441-1.186,1.006-1.596c0.566-0.406,1.271-0.57,2.117-0.486c0.889,0.088,1.574,0.389,2.055,0.906
		c0.48,0.516,0.689,1.084,0.629,1.699c-0.033,0.344-0.16,0.658-0.385,0.943c-0.223,0.287-0.676,0.662-1.359,1.125
		c-0.355,0.24-0.578,0.439-0.674,0.598C60.641,45.655,60.576,45.948,60.541,46.374 M59.082,46.772l1.549,0.152l-0.15,1.551
		l-1.551-0.152L59.082,46.772z"/>
	<g>
		<g>
			<path fill="#331842" d="M19.671,114.773l1.835,0.166l-1.354,14.946l-1.836-0.166L19.671,114.773z"/>
			<path fill="#331842" d="M29.357,122.373l-0.751,8.278l-1.672-0.151l0.727-8.015c0.054-0.595,0.003-1.016-0.153-1.265
				c-0.154-0.249-0.445-0.394-0.871-0.432c-0.418-0.038-0.727,0.055-0.93,0.278c-0.203,0.223-0.33,0.625-0.383,1.206l-0.727,8.015
				l-1.673-0.151l0.944-10.416l1.562,0.142l0.052,0.648c0.253-0.271,0.56-0.465,0.923-0.586c0.363-0.12,0.77-0.16,1.223-0.119
				c0.709,0.064,1.192,0.287,1.455,0.668C29.346,120.855,29.438,121.488,29.357,122.373z"/>
			<path fill="#331842" d="M34.113,117.819l-0.254,2.807l1.277,0.115l-0.095,1.054l-1.278-0.115l-0.701,7.741
				c-0.026,0.291,0.03,0.498,0.17,0.623c0.139,0.126,0.404,0.206,0.793,0.241l0.245,0.021l-0.099,1.084
				c-0.1-0.002-0.202-0.006-0.307-0.012c-0.105-0.007-0.252-0.018-0.442-0.035c-0.852-0.077-1.417-0.283-1.698-0.618
				c-0.279-0.336-0.372-1.034-0.275-2.095l0.643-7.103l-0.91-0.083l0.096-1.054l0.91,0.083l0.209-2.3L34.113,117.819z"/>
			<path fill="#331842" d="M42.191,124.119l-0.281,3.09l-3.955-0.358l-0.199,2.199c-0.057,0.621-0.014,1.051,0.13,1.289
				c0.143,0.237,0.423,0.375,0.84,0.413c0.398,0.036,0.689-0.054,0.874-0.269c0.184-0.214,0.303-0.626,0.358-1.234l0.104-1.154
				l1.754,0.158l-0.078,0.852c-0.104,1.148-0.383,1.911-0.838,2.288c-0.454,0.379-1.211,0.52-2.271,0.423
				c-1.051-0.095-1.769-0.373-2.152-0.833c-0.383-0.46-0.521-1.265-0.418-2.413l0.451-4.965c0.104-1.155,0.381-1.92,0.83-2.296
				c0.449-0.374,1.209-0.513,2.279-0.416c1.051,0.095,1.768,0.374,2.15,0.834C42.153,122.186,42.293,122.984,42.191,124.119z
				 M40.466,123.645c0.056-0.614,0.012-1.04-0.131-1.278c-0.144-0.237-0.414-0.374-0.812-0.41c-0.408-0.037-0.706,0.055-0.896,0.276
				s-0.311,0.625-0.363,1.213l-0.213,2.351l2.201,0.199L40.466,123.645z"/>
			<path fill="#331842" d="M45.348,117.1l1.672,0.151l-1.354,14.946l-1.673-0.152L45.348,117.1z"/>
			<path fill="#331842" d="M54.574,125.241l-0.281,3.091l-3.955-0.359l-0.199,2.199c-0.057,0.621-0.014,1.051,0.13,1.289
				c0.143,0.237,0.423,0.375,0.84,0.413c0.398,0.036,0.689-0.054,0.874-0.268c0.184-0.215,0.303-0.627,0.358-1.235l0.104-1.154
				l1.754,0.159l-0.078,0.851c-0.104,1.148-0.383,1.911-0.838,2.288c-0.454,0.379-1.211,0.52-2.271,0.423
				c-1.051-0.095-1.769-0.372-2.151-0.833c-0.384-0.46-0.522-1.265-0.419-2.413l0.451-4.965c0.104-1.155,0.381-1.92,0.83-2.295
				s1.209-0.514,2.279-0.417c1.051,0.095,1.768,0.374,2.15,0.834C54.536,123.308,54.676,124.106,54.574,125.241z M52.849,124.767
				c0.056-0.614,0.013-1.04-0.131-1.277c-0.144-0.238-0.414-0.375-0.812-0.411c-0.408-0.037-0.706,0.055-0.896,0.276
				s-0.311,0.625-0.363,1.213l-0.213,2.351l2.201,0.199L52.849,124.767z"/>
			<path fill="#331842" d="M62.227,125.934l-0.062,0.669l-1.753-0.159l0.089-0.982c0.062-0.682,0.04-1.123-0.065-1.324
				c-0.105-0.199-0.32-0.314-0.646-0.344c-0.326-0.03-0.562,0.056-0.709,0.257s-0.248,0.62-0.305,1.254l-0.508,5.604
				c-0.059,0.648-0.032,1.084,0.08,1.305c0.111,0.222,0.336,0.348,0.672,0.378c0.316,0.028,0.543-0.048,0.678-0.229
				c0.135-0.183,0.234-0.614,0.296-1.296l0.101-1.115l1.754,0.159l-0.074,0.811c-0.104,1.148-0.367,1.913-0.789,2.293
				c-0.424,0.381-1.119,0.527-2.089,0.439c-0.961-0.087-1.614-0.361-1.96-0.821c-0.348-0.461-0.469-1.262-0.365-2.403l0.449-4.965
				c0.105-1.155,0.366-1.921,0.785-2.299c0.417-0.378,1.111-0.522,2.08-0.435c0.961,0.087,1.617,0.359,1.969,0.816
				C62.205,124.003,62.328,124.799,62.227,125.934z"/>
			<path fill="#331842" d="M66.682,120.771l-0.254,2.806l1.277,0.116l-0.096,1.054l-1.277-0.116l-0.701,7.742
				c-0.027,0.29,0.029,0.498,0.169,0.623s0.403,0.205,0.794,0.24l0.244,0.022l-0.098,1.084c-0.1-0.002-0.203-0.007-0.307-0.013
				c-0.105-0.006-0.252-0.018-0.443-0.034c-0.852-0.078-1.418-0.284-1.697-0.619c-0.281-0.336-0.373-1.033-0.276-2.094l0.644-7.104
				l-0.911-0.082l0.095-1.054l0.912,0.082l0.209-2.3L66.682,120.771z"/>
			<path fill="#331842" d="M69.377,123.844l1.672,0.151l-0.723,7.984c-0.057,0.615-0.006,1.047,0.15,1.296
				c0.154,0.249,0.445,0.394,0.871,0.432c0.417,0.038,0.723-0.055,0.916-0.279s0.318-0.637,0.373-1.238l0.723-7.984l1.699,0.153
				l-0.943,10.417l-1.563-0.142l-0.077-0.651c-0.254,0.271-0.555,0.463-0.902,0.577c-0.35,0.115-0.75,0.152-1.202,0.111
				c-0.716-0.065-1.206-0.287-1.468-0.664c-0.264-0.378-0.355-1.006-0.275-1.884L69.377,123.844z"/>
			<path fill="#331842" d="M82.858,127.518l-0.724,7.984l-1.562-0.142l-0.051-0.648c-0.254,0.271-0.562,0.466-0.924,0.586
				c-0.363,0.12-0.771,0.16-1.225,0.119c-0.706-0.064-1.19-0.287-1.453-0.669c-0.262-0.381-0.354-1.015-0.273-1.898l0.189-2.078
				c0.073-0.817,0.422-1.371,1.047-1.662c0.625-0.29,1.684-0.389,3.172-0.294l0.135-1.479c0.057-0.629,0.016-1.058-0.123-1.288
				s-0.412-0.364-0.82-0.401c-0.391-0.035-0.678,0.039-0.863,0.223c-0.186,0.185-0.301,0.52-0.344,1.006l-0.053,0.578l-1.672-0.152
				l0.025-0.283c0.094-1.04,0.363-1.729,0.805-2.067s1.184-0.46,2.225-0.365c1.016,0.092,1.707,0.346,2.076,0.761
				C82.814,125.76,82.952,126.485,82.858,127.518z M80.949,129.828c-0.872-0.052-1.474,0.01-1.805,0.184
				c-0.33,0.175-0.52,0.525-0.568,1.052l-0.15,1.672c-0.057,0.622-0.014,1.051,0.129,1.289c0.144,0.237,0.424,0.375,0.84,0.413
				c0.408,0.037,0.711-0.056,0.909-0.28c0.198-0.224,0.325-0.63,0.378-1.217L80.949,129.828z"/>
			<path fill="#331842" d="M86.045,120.789l1.672,0.151l-1.354,14.945l-1.672-0.151L86.045,120.789z"/>
		</g>
	</g>
</g>
</svg>
