<?xml version="1.0" encoding="utf-8"?>
<!-- Generator: Adobe Illustrator 16.0.0, SVG Export Plug-In . SVG Version: 6.00 Build 0)  -->
<!DOCTYPE svg PUBLIC "-//W3C//DTD SVG 1.1//EN" "http://www.w3.org/Graphics/SVG/1.1/DTD/svg11.dtd">
<svg version="1.1" id="Capa_1" xmlns="http://www.w3.org/2000/svg" xmlns:xlink="http://www.w3.org/1999/xlink" x="0px" y="0px"
	 width="112.468px" height="144.193px" viewBox="0 0 112.468 144.193" enable-background="new 0 0 112.468 144.193"
	 xml:space="preserve">
<g>
	<path fill-rule="evenodd" clip-rule="evenodd" fill="#331842" d="M104.495,8.837c-4.23-0.721-8.461-1.4-12.57-2.08
		c-0.221-0.529-41.051-4.02-52.961-5.141c-7.109-0.68-14.229-1.369-21.359-1.609c-4.16-0.15-6.83,2.131-7.199,6.621
		c-1.281,15.758-2.621,31.518-3.93,47.268c-2.121,25.38-4.191,50.75-6.371,76.121c-0.58,6.689,1.141,8.59,7.82,9.049
		c16.6,1.131,33.17,2.68,49.77,3.711c12.26,0.76,24.551,0.959,36.82,1.41c3.59,0.139,5.66-1.701,6.311-5.09
		c7.84-40.91,10.779-115.25,11.379-119.419C113.224,12.597,111.415,10.017,104.495,8.837z M109.454,17.155
		c-1.189,14.59-2.26,29.191-3.299,43.791c-1.25,17.58-2.25,35.189-3.711,52.76c-0.6,7.27-2.219,14.449-3.119,21.711
		c-0.551,4.359-2.791,6.59-7.1,6.68c-4.811,0.09-9.621,0.02-14.441,0.02c0,0.141-36.119-2.859-54.18-4.49
		c-5.299-0.471-10.6-1.029-15.92-1.26c-4.379-0.18-5.65-2.221-5.289-6.42c1.6-18.23,2.969-36.48,4.49-54.721
		c1.818-21.718,3.729-43.429,5.559-65.138c0.58-6.891,2.4-8.6,9.641-7.959c10.439,0.92,20.859,2.01,31.27,3.158
		c16.85,1.861,33.68,3.971,50.541,5.66C108.155,11.376,109.804,12.896,109.454,17.155z"/>
	<path opacity="0.9" fill-rule="evenodd" clip-rule="evenodd" fill="#D1D1D1" d="M109.454,17.155
		c-1.189,14.59-2.26,29.191-3.299,43.791c-1.25,17.58-2.25,35.189-3.711,52.76c-0.6,7.27-2.219,14.449-3.119,21.711
		c-0.551,4.359-2.791,6.59-7.1,6.68c-4.811,0.09-9.621,0.02-14.441,0.02c0,0.141-36.119-2.859-54.18-4.49
		c-5.299-0.471-10.6-1.029-15.92-1.26c-4.379-0.18-5.65-2.221-5.289-6.42c1.6-18.23,2.969-36.48,4.49-54.721
		c1.818-21.718,3.729-43.429,5.559-65.138c0.58-6.891,2.4-8.6,9.641-7.959c10.439,0.92,20.859,2.01,31.27,3.158
		c16.85,1.861,33.68,3.971,50.541,5.66C108.155,11.376,109.804,12.896,109.454,17.155z"/>
	<g>
		<path fill="#331842" d="M42.279,12.487l1.069,0.095c0.904,0.08,1.486,0.237,1.745,0.474c0.259,0.237,0.354,0.735,0.287,1.496
			l-0.384,4.338c-0.066,0.756-0.25,1.229-0.551,1.418c-0.303,0.189-0.9,0.244-1.795,0.165l-1.068-0.095L42.279,12.487z M43.14,13.15
			l-0.594,6.725l0.294,0.026c0.44,0.038,0.735,0.012,0.886-0.086c0.151-0.096,0.242-0.33,0.275-0.701l0.437-4.943
			c0.033-0.375-0.017-0.624-0.149-0.749c-0.135-0.125-0.419-0.207-0.854-0.245L43.14,13.15z"/>
		<path fill="#331842" d="M46.784,15.294l0.883,0.078l-0.486,5.5l-0.883-0.078L46.784,15.294z M46.952,12.9l0.982,0.087
			l-0.073,0.834l-0.983-0.087L46.952,12.9z"/>
		<path fill="#331842" d="M51.415,16.982l-0.027,0.31l-0.883-0.078l0.027-0.31c0.031-0.34,0.02-0.567-0.037-0.684
			c-0.055-0.116-0.168-0.182-0.34-0.197c-0.152-0.014-0.267,0.028-0.34,0.125c-0.074,0.095-0.121,0.265-0.143,0.508l-0.02,0.219
			c-0.01,0.117,0.01,0.236,0.059,0.354c0.05,0.12,0.137,0.25,0.259,0.39l0.976,1.155c0.109,0.131,0.19,0.264,0.244,0.397
			c0.053,0.135,0.074,0.259,0.064,0.373l-0.047,0.525c-0.041,0.474-0.175,0.797-0.4,0.97c-0.225,0.172-0.586,0.237-1.083,0.193
			c-0.517-0.046-0.867-0.178-1.051-0.396c-0.183-0.218-0.251-0.596-0.204-1.135l0.043-0.471l0.875,0.077l-0.041,0.471
			c-0.031,0.35-0.018,0.582,0.043,0.694c0.06,0.113,0.178,0.178,0.355,0.193c0.182,0.017,0.315-0.026,0.402-0.127
			c0.086-0.1,0.141-0.283,0.164-0.55l0.019-0.209c0.026-0.3-0.095-0.603-0.362-0.906c-0.008-0.012-0.015-0.019-0.02-0.023
			l-0.947-1.141c-0.101-0.12-0.17-0.236-0.207-0.349c-0.039-0.114-0.053-0.236-0.041-0.369l0.035-0.395
			c0.039-0.454,0.17-0.767,0.391-0.939c0.22-0.173,0.566-0.238,1.041-0.196c0.492,0.043,0.826,0.173,1.004,0.39
			C51.399,16.071,51.463,16.447,51.415,16.982z"/>
		<path fill="#331842" d="M55.327,17.494l-0.031,0.354l-0.926-0.082l0.045-0.519c0.033-0.361,0.021-0.594-0.035-0.699
			c-0.055-0.105-0.17-0.166-0.342-0.182c-0.172-0.015-0.297,0.031-0.373,0.138c-0.078,0.106-0.131,0.327-0.16,0.663l-0.262,2.958
			c-0.029,0.343-0.016,0.572,0.045,0.689c0.059,0.116,0.178,0.183,0.354,0.198c0.168,0.015,0.287-0.026,0.358-0.123
			c0.071-0.096,0.122-0.324,0.154-0.685l0.052-0.588l0.927,0.082l-0.038,0.428c-0.053,0.605-0.191,1.011-0.414,1.211
			c-0.223,0.202-0.59,0.281-1.102,0.235c-0.508-0.045-0.854-0.189-1.037-0.432s-0.248-0.666-0.195-1.269l0.232-2.622
			c0.053-0.609,0.19-1.015,0.41-1.214c0.221-0.2,0.586-0.277,1.099-0.232c0.507,0.045,0.854,0.188,1.04,0.429
			C55.313,16.474,55.38,16.895,55.327,17.494z"/>
		<path fill="#331842" d="M59.389,17.702l-0.372,4.216l-0.826-0.073l-0.027-0.342c-0.133,0.143-0.295,0.246-0.486,0.311
			c-0.191,0.063-0.407,0.086-0.646,0.064c-0.373-0.032-0.629-0.15-0.768-0.351c-0.139-0.202-0.188-0.535-0.146-1.002l0.097-1.098
			c0.038-0.432,0.222-0.725,0.552-0.879c0.328-0.154,0.887-0.208,1.674-0.16l0.068-0.78c0.029-0.333,0.008-0.56-0.066-0.68
			c-0.074-0.122-0.219-0.192-0.434-0.212c-0.205-0.018-0.357,0.021-0.455,0.119c-0.098,0.097-0.158,0.274-0.181,0.531l-0.026,0.305
			l-0.883-0.077l0.013-0.15c0.048-0.549,0.188-0.913,0.421-1.092c0.234-0.18,0.625-0.244,1.176-0.195
			c0.535,0.047,0.901,0.18,1.097,0.397C59.362,16.774,59.437,17.156,59.389,17.702z M58.384,18.922
			c-0.461-0.025-0.778,0.008-0.953,0.101s-0.273,0.277-0.299,0.556l-0.078,0.882c-0.028,0.328-0.005,0.556,0.07,0.681
			c0.076,0.126,0.225,0.198,0.443,0.218c0.217,0.019,0.377-0.031,0.48-0.149c0.104-0.118,0.17-0.333,0.197-0.644L58.384,18.922z"/>
		<path fill="#331842" d="M63.752,17.93l-0.286,3.243c-0.041,0.467-0.148,0.786-0.32,0.961c-0.172,0.173-0.445,0.244-0.818,0.212
			c-0.238-0.021-0.447-0.081-0.624-0.178c-0.177-0.098-0.319-0.227-0.425-0.391l-0.213,2.419l-0.883-0.078l0.669-7.582l0.825,0.073
			l0.027,0.342c0.134-0.143,0.296-0.246,0.486-0.311c0.192-0.063,0.407-0.085,0.646-0.063c0.373,0.032,0.629,0.149,0.769,0.35
			C63.744,17.129,63.793,17.462,63.752,17.93z M62.813,17.989c0.029-0.325,0.006-0.551-0.07-0.675
			c-0.076-0.127-0.225-0.199-0.443-0.219c-0.215-0.019-0.375,0.031-0.48,0.15c-0.104,0.117-0.17,0.33-0.197,0.638l-0.262,2.958
			c-0.027,0.314-0.001,0.537,0.079,0.671c0.079,0.132,0.229,0.209,0.45,0.228c0.219,0.02,0.378-0.025,0.475-0.136
			c0.097-0.109,0.159-0.329,0.188-0.657L62.813,17.989z"/>
		<path fill="#331842" d="M67.944,18.458l-0.373,4.216L66.746,22.6l-0.028-0.342c-0.133,0.143-0.295,0.245-0.486,0.311
			c-0.191,0.063-0.406,0.086-0.646,0.064c-0.373-0.033-0.63-0.15-0.769-0.352c-0.139-0.202-0.188-0.535-0.146-1.002l0.098-1.098
			c0.037-0.432,0.221-0.724,0.551-0.878c0.33-0.155,0.889-0.208,1.674-0.16l0.068-0.78c0.03-0.333,0.008-0.56-0.066-0.68
			c-0.072-0.122-0.217-0.193-0.432-0.212c-0.207-0.019-0.358,0.021-0.457,0.119c-0.098,0.097-0.157,0.274-0.18,0.531l-0.027,0.305
			l-0.883-0.078L65.03,18.2c0.049-0.55,0.189-0.913,0.422-1.093c0.232-0.179,0.624-0.243,1.174-0.195
			c0.537,0.048,0.902,0.181,1.098,0.398C67.919,17.53,67.991,17.912,67.944,18.458z M66.938,19.678
			c-0.46-0.025-0.777,0.007-0.951,0.101c-0.176,0.093-0.275,0.277-0.299,0.556l-0.078,0.882c-0.029,0.328-0.006,0.556,0.07,0.681
			c0.074,0.126,0.223,0.197,0.443,0.217c0.215,0.02,0.375-0.03,0.479-0.148s0.17-0.333,0.197-0.644L66.938,19.678z"/>
		<path fill="#331842" d="M72.001,18.966L71.97,19.32l-0.927-0.082l0.046-0.519c0.031-0.361,0.02-0.594-0.036-0.699
			c-0.056-0.106-0.169-0.166-0.341-0.182c-0.174-0.016-0.299,0.031-0.375,0.138s-0.13,0.327-0.16,0.663l-0.261,2.958
			c-0.03,0.343-0.017,0.572,0.044,0.689c0.061,0.115,0.178,0.182,0.355,0.197c0.166,0.015,0.287-0.025,0.357-0.122
			c0.072-0.096,0.123-0.324,0.154-0.685l0.053-0.588l0.926,0.082l-0.037,0.428c-0.055,0.605-0.192,1.011-0.416,1.211
			c-0.223,0.202-0.59,0.28-1.102,0.235c-0.507-0.045-0.853-0.189-1.036-0.432c-0.183-0.243-0.249-0.666-0.195-1.269l0.231-2.622
			c0.055-0.609,0.191-1.015,0.411-1.215c0.22-0.199,0.587-0.276,1.099-0.231c0.507,0.045,0.854,0.188,1.039,0.429
			C71.986,17.946,72.054,18.368,72.001,18.966z"/>
		<path fill="#331842" d="M73.29,17.635l0.883,0.078l-0.486,5.5l-0.883-0.078L73.29,17.635z M73.458,15.241l0.982,0.087
			l-0.073,0.834l-0.983-0.087L73.458,15.241z"/>
		<path fill="#331842" d="M77.821,15.626l0.896,0.079l-0.696,7.891l-0.825-0.073l-0.042-0.343c-0.134,0.146-0.294,0.25-0.479,0.312
			c-0.187,0.063-0.399,0.085-0.639,0.063c-0.368-0.032-0.623-0.15-0.765-0.351c-0.142-0.202-0.191-0.536-0.15-1.003l0.286-3.243
			c0.041-0.468,0.148-0.786,0.324-0.961c0.174-0.173,0.445-0.243,0.814-0.211c0.238,0.021,0.445,0.08,0.621,0.176
			c0.174,0.098,0.312,0.227,0.414,0.391L77.821,15.626z M77.499,19.286c0.027-0.312,0.002-0.532-0.076-0.665
			c-0.077-0.133-0.225-0.209-0.439-0.229c-0.219-0.02-0.381,0.027-0.481,0.142c-0.103,0.113-0.167,0.328-0.194,0.646l-0.262,2.958
			c-0.029,0.321-0.003,0.546,0.078,0.676c0.08,0.129,0.23,0.203,0.449,0.223c0.215,0.02,0.373-0.029,0.473-0.146
			c0.1-0.118,0.164-0.333,0.191-0.647L77.499,19.286z"/>
		<path fill="#331842" d="M82.629,19.754l-0.372,4.216l-0.826-0.073l-0.027-0.342c-0.133,0.143-0.295,0.245-0.486,0.311
			c-0.191,0.063-0.406,0.086-0.646,0.064c-0.373-0.033-0.629-0.15-0.768-0.352c-0.139-0.202-0.188-0.535-0.146-1.002l0.097-1.098
			c0.038-0.432,0.222-0.724,0.552-0.878c0.329-0.155,0.887-0.208,1.674-0.16l0.068-0.78c0.029-0.333,0.008-0.56-0.066-0.68
			c-0.073-0.122-0.219-0.193-0.434-0.212c-0.205-0.019-0.357,0.021-0.455,0.119c-0.098,0.097-0.158,0.274-0.181,0.531l-0.026,0.305
			l-0.883-0.078l0.013-0.149c0.048-0.55,0.189-0.913,0.422-1.093c0.233-0.179,0.624-0.243,1.175-0.195
			c0.535,0.048,0.901,0.181,1.098,0.398C82.604,18.827,82.677,19.208,82.629,19.754z M81.624,20.975
			c-0.461-0.025-0.778,0.007-0.953,0.101c-0.174,0.093-0.273,0.277-0.298,0.556l-0.078,0.882c-0.028,0.328-0.006,0.556,0.069,0.681
			c0.076,0.126,0.225,0.197,0.445,0.217c0.215,0.02,0.375-0.03,0.479-0.148c0.105-0.118,0.17-0.333,0.197-0.644L81.624,20.975z"/>
		<path fill="#331842" d="M86.377,16.381l0.897,0.079l-0.697,7.891l-0.826-0.072l-0.041-0.344c-0.133,0.147-0.294,0.251-0.48,0.313
			c-0.186,0.062-0.398,0.085-0.639,0.063c-0.367-0.032-0.622-0.15-0.764-0.351c-0.142-0.203-0.191-0.536-0.15-1.003l0.287-3.243
			c0.041-0.468,0.148-0.787,0.322-0.961c0.176-0.173,0.446-0.243,0.814-0.211c0.24,0.021,0.447,0.08,0.621,0.176
			c0.176,0.098,0.313,0.227,0.414,0.39L86.377,16.381z M86.054,20.041c0.027-0.312,0.002-0.532-0.074-0.665
			c-0.078-0.133-0.225-0.209-0.439-0.228c-0.221-0.02-0.381,0.027-0.482,0.142c-0.102,0.113-0.168,0.328-0.195,0.646l-0.262,2.958
			c-0.028,0.321-0.002,0.546,0.078,0.676c0.08,0.129,0.23,0.203,0.451,0.223c0.215,0.019,0.373-0.03,0.472-0.146
			c0.1-0.118,0.163-0.333,0.19-0.647L86.054,20.041z"/>
	</g>
	<g>
		<g>
			<path fill="#331842" d="M20.429,94.85l2.228,0.213c1.358,0.131,2.269,0.363,2.729,0.697c0.463,0.333,0.658,0.865,0.588,1.595
				l-0.411,4.293c-0.069,0.73-0.362,1.213-0.88,1.449c-0.516,0.236-1.453,0.29-2.812,0.159l-0.502-0.048l-0.646,6.745l-1.726-0.165
				L20.429,94.85z M22.048,96.12l-0.574,5.995l0.461,0.044c0.688,0.066,1.158,0.008,1.408-0.177c0.252-0.183,0.411-0.636,0.48-1.359
				l0.248-2.592c0.07-0.723,0-1.197-0.213-1.426c-0.211-0.229-0.66-0.375-1.35-0.441L22.048,96.12z"/>
			<path fill="#331842" d="M32.575,103.005l-0.057,0.587l-1.671-0.16l0.057-0.587c0.062-0.642,0.04-1.072-0.061-1.294
				c-0.103-0.221-0.316-0.347-0.643-0.378c-0.29-0.028-0.505,0.049-0.646,0.229c-0.142,0.181-0.234,0.5-0.277,0.96l-0.04,0.415
				c-0.021,0.223,0.014,0.447,0.106,0.674c0.092,0.228,0.254,0.475,0.484,0.741l1.832,2.2c0.204,0.251,0.356,0.504,0.454,0.759
				c0.101,0.255,0.14,0.491,0.118,0.706l-0.095,0.993c-0.086,0.898-0.343,1.509-0.772,1.831c-0.429,0.324-1.113,0.44-2.055,0.351
				c-0.979-0.094-1.641-0.348-1.984-0.763s-0.468-1.131-0.37-2.151l0.085-0.891l1.658,0.158l-0.086,0.892
				c-0.062,0.661-0.039,1.1,0.073,1.315c0.112,0.215,0.335,0.339,0.671,0.37c0.344,0.033,0.598-0.044,0.764-0.232
				c0.162-0.189,0.27-0.537,0.318-1.043l0.038-0.395c0.054-0.567-0.17-1.141-0.672-1.721c-0.016-0.022-0.028-0.036-0.036-0.044
				l-1.78-2.175c-0.188-0.229-0.317-0.451-0.389-0.666c-0.071-0.214-0.095-0.446-0.071-0.695l0.072-0.75
				c0.082-0.857,0.334-1.448,0.753-1.772s1.077-0.443,1.976-0.357c0.932,0.089,1.562,0.341,1.895,0.754
				C32.556,101.28,32.673,101.993,32.575,103.005z"/>
			<path fill="#331842" d="M35.089,100.825l1.672,0.16l-0.998,10.411l-1.672-0.16L35.089,100.825z M35.441,96.29l1.861,0.178
				l-0.151,1.58L35.29,97.87L35.441,96.29z"/>
			<path fill="#331842" d="M44.229,104.44l-0.064,0.669l-1.752-0.168l0.094-0.983c0.064-0.682,0.047-1.123-0.059-1.323
				c-0.104-0.201-0.318-0.317-0.645-0.349s-0.562,0.054-0.711,0.254c-0.146,0.2-0.25,0.618-0.311,1.253l-0.537,5.601
				c-0.062,0.647-0.039,1.083,0.072,1.305s0.335,0.349,0.67,0.381c0.317,0.03,0.545-0.045,0.68-0.226
				c0.137-0.182,0.237-0.612,0.303-1.295l0.107-1.113l1.752,0.168l-0.078,0.81c-0.109,1.148-0.377,1.911-0.801,2.289
				c-0.425,0.379-1.123,0.521-2.092,0.429c-0.959-0.093-1.611-0.37-1.956-0.832c-0.344-0.462-0.462-1.264-0.353-2.405l0.477-4.962
				c0.111-1.154,0.376-1.919,0.795-2.295c0.42-0.375,1.115-0.517,2.084-0.424c0.961,0.092,1.615,0.368,1.964,0.827
				S44.339,103.306,44.229,104.44z"/>
			<path fill="#331842" d="M52.055,105.19l-0.478,4.982c-0.11,1.148-0.395,1.91-0.85,2.285c-0.457,0.375-1.215,0.512-2.273,0.41
				c-1.051-0.101-1.768-0.382-2.148-0.845c-0.381-0.462-0.516-1.267-0.406-2.415l0.477-4.963c0.111-1.154,0.392-1.917,0.844-2.29
				c0.451-0.372,1.211-0.507,2.281-0.404c1.051,0.101,1.766,0.383,2.146,0.845S52.163,104.056,52.055,105.19z M50.333,104.708
				c0.059-0.613,0.018-1.04-0.125-1.278c-0.141-0.239-0.411-0.377-0.81-0.415c-0.407-0.039-0.706,0.051-0.897,0.271
				c-0.189,0.221-0.312,0.624-0.369,1.211l-0.537,5.601c-0.06,0.621-0.018,1.052,0.123,1.289c0.142,0.239,0.421,0.378,0.838,0.418
				c0.398,0.038,0.69-0.05,0.875-0.263c0.185-0.214,0.307-0.625,0.365-1.233L50.333,104.708z"/>
			<path fill="#331842" d="M59.312,105.569l-0.057,0.588l-1.671-0.16l0.057-0.588c0.061-0.641,0.041-1.072-0.061-1.293
				s-0.316-0.348-0.643-0.379c-0.289-0.027-0.504,0.049-0.646,0.229c-0.141,0.181-0.232,0.5-0.277,0.96l-0.039,0.415
				c-0.021,0.223,0.014,0.447,0.107,0.675c0.092,0.227,0.254,0.474,0.484,0.74l1.83,2.2c0.205,0.251,0.357,0.504,0.456,0.759
				s0.138,0.491,0.118,0.706l-0.096,0.993c-0.086,0.898-0.343,1.509-0.771,1.832s-1.113,0.439-2.057,0.35
				c-0.979-0.094-1.639-0.348-1.983-0.763s-0.468-1.131-0.37-2.151l0.086-0.891l1.658,0.158l-0.086,0.892
				c-0.063,0.661-0.039,1.1,0.072,1.315c0.112,0.215,0.336,0.339,0.671,0.371c0.345,0.032,0.599-0.045,0.763-0.233
				c0.164-0.189,0.271-0.537,0.319-1.043l0.038-0.395c0.055-0.567-0.17-1.141-0.671-1.721c-0.017-0.022-0.028-0.036-0.037-0.044
				l-1.78-2.174c-0.188-0.229-0.318-0.451-0.389-0.666s-0.094-0.447-0.07-0.696l0.072-0.75c0.082-0.857,0.332-1.448,0.752-1.772
				s1.078-0.443,1.975-0.357c0.934,0.089,1.564,0.341,1.895,0.754C59.294,103.843,59.409,104.557,59.312,105.569z"/>
			<path fill="#331842" d="M67.19,106.641l-0.479,4.982c-0.109,1.148-0.393,1.91-0.85,2.285c-0.456,0.375-1.213,0.512-2.273,0.41
				c-1.051-0.101-1.767-0.382-2.146-0.844c-0.382-0.463-0.517-1.268-0.406-2.416l0.476-4.963c0.11-1.154,0.392-1.917,0.843-2.29
				c0.452-0.372,1.213-0.507,2.281-0.404c1.051,0.101,1.766,0.383,2.146,0.845S67.3,105.507,67.19,106.641z M65.469,106.159
				c0.059-0.613,0.017-1.04-0.125-1.278c-0.142-0.239-0.411-0.377-0.81-0.415c-0.407-0.039-0.707,0.051-0.897,0.271
				c-0.189,0.221-0.313,0.624-0.369,1.211l-0.537,5.601c-0.06,0.621-0.019,1.052,0.122,1.289c0.143,0.239,0.422,0.378,0.839,0.418
				c0.398,0.038,0.689-0.05,0.874-0.263c0.186-0.214,0.309-0.625,0.366-1.233L65.469,106.159z"/>
			<path fill="#331842" d="M74.839,107.375l-0.064,0.669l-1.752-0.168l0.095-0.983c0.065-0.682,0.046-1.123-0.06-1.323
				c-0.104-0.201-0.318-0.317-0.645-0.349s-0.562,0.054-0.711,0.254c-0.146,0.201-0.25,0.618-0.311,1.253l-0.537,5.601
				c-0.062,0.647-0.039,1.083,0.072,1.305c0.111,0.223,0.335,0.349,0.67,0.381c0.317,0.031,0.545-0.045,0.68-0.226
				c0.137-0.182,0.238-0.612,0.304-1.295l0.106-1.113l1.752,0.168l-0.078,0.81c-0.109,1.148-0.377,1.911-0.801,2.289
				c-0.425,0.379-1.123,0.521-2.092,0.429c-0.959-0.092-1.611-0.369-1.956-0.832c-0.344-0.462-0.462-1.264-0.353-2.404l0.477-4.963
				c0.111-1.154,0.376-1.919,0.795-2.295c0.42-0.375,1.115-0.517,2.084-0.424c0.961,0.093,1.615,0.368,1.964,0.828
				C74.827,105.444,74.948,106.241,74.839,107.375z"/>
			<path fill="#331842" d="M77.3,104.872l1.672,0.16l-0.998,10.411l-1.672-0.16L77.3,104.872z M77.652,100.336l1.862,0.179
				l-0.151,1.58l-1.862-0.179L77.652,100.336z"/>
			<path fill="#331842" d="M86.781,108.234l-0.765,7.98l-1.562-0.15l-0.048-0.648c-0.255,0.269-0.563,0.463-0.926,0.581
				c-0.363,0.118-0.772,0.155-1.224,0.112c-0.707-0.067-1.19-0.293-1.451-0.676c-0.262-0.382-0.348-1.017-0.264-1.9l0.199-2.076
				c0.078-0.817,0.431-1.369,1.058-1.656c0.626-0.288,1.683-0.381,3.173-0.278l0.142-1.479c0.06-0.627,0.021-1.057-0.117-1.288
				c-0.138-0.231-0.41-0.367-0.817-0.406c-0.39-0.037-0.678,0.036-0.865,0.219c-0.186,0.184-0.303,0.519-0.35,1.004l-0.055,0.577
				l-1.671-0.16l0.027-0.283c0.1-1.04,0.37-1.728,0.814-2.062c0.443-0.336,1.187-0.454,2.228-0.354
				c1.014,0.098,1.705,0.354,2.072,0.771C86.747,106.475,86.88,107.201,86.781,108.234z M84.86,110.533
				c-0.871-0.056-1.473,0.002-1.805,0.175c-0.332,0.172-0.523,0.521-0.574,1.049l-0.16,1.671c-0.06,0.621-0.02,1.051,0.123,1.289
				c0.142,0.238,0.421,0.378,0.838,0.418c0.407,0.039,0.711-0.053,0.91-0.275c0.199-0.224,0.328-0.628,0.384-1.216L84.86,110.533z"
				/>
			<path fill="#331842" d="M90.002,101.52l1.671,0.16l-1.432,14.939l-1.672-0.161L90.002,101.52z"/>
		</g>
	</g>
	<g>
		<g>
			<path fill="#331842" d="M29.764,114.603l1.305,0.125c-0.763,1.576-1.366,3.093-1.808,4.549s-0.73,2.891-0.865,4.302
				c-0.135,1.404-0.123,2.865,0.032,4.383c0.157,1.517,0.46,3.122,0.91,4.813l-1.305-0.125c-0.614-1.599-1.04-3.169-1.276-4.711
				c-0.235-1.542-0.282-3.053-0.141-4.531s0.475-2.954,1-4.427S28.856,116.049,29.764,114.603z"/>
			<path fill="#331842" d="M37.61,120.865c0.367-0.319,0.713-0.537,1.035-0.652s0.688-0.154,1.094-0.115
				c0.625,0.061,1.057,0.282,1.295,0.667c0.236,0.383,0.313,1.014,0.229,1.892l-0.793,8.273l-1.67-0.16l0.768-8.011
				c0.057-0.594,0.023-1.015-0.1-1.262c-0.123-0.246-0.355-0.386-0.699-0.419c-0.354-0.034-0.621,0.066-0.804,0.301
				c-0.183,0.235-0.301,0.633-0.354,1.192l-0.768,8.011l-1.672-0.16l0.769-8.011c0.057-0.594,0.026-1.015-0.091-1.261
				c-0.119-0.246-0.351-0.386-0.694-0.419c-0.353-0.033-0.622,0.066-0.804,0.301c-0.184,0.235-0.3,0.633-0.354,1.193l-0.768,8.011
				l-1.672-0.161l0.998-10.41l1.562,0.149l0.048,0.648c0.255-0.275,0.545-0.473,0.872-0.591c0.326-0.118,0.686-0.159,1.074-0.122
				c0.416,0.04,0.752,0.156,1.009,0.348C37.377,120.289,37.54,120.543,37.61,120.865z"/>
			<path fill="#331842" d="M49.387,124.017l-0.296,3.089l-3.953-0.379l-0.211,2.197c-0.06,0.621-0.02,1.051,0.123,1.289
				c0.142,0.239,0.421,0.378,0.838,0.418c0.398,0.038,0.689-0.05,0.875-0.264c0.185-0.214,0.307-0.625,0.364-1.232l0.11-1.154
				l1.754,0.168L48.909,129c-0.11,1.147-0.395,1.908-0.85,2.284c-0.457,0.375-1.215,0.512-2.273,0.41
				c-1.051-0.101-1.768-0.382-2.148-0.845c-0.381-0.462-0.516-1.268-0.405-2.415l0.476-4.963c0.111-1.154,0.392-1.917,0.844-2.29
				c0.451-0.372,1.211-0.507,2.281-0.404c1.051,0.101,1.766,0.383,2.146,0.845C49.359,122.084,49.495,122.883,49.387,124.017z
				 M47.664,123.535c0.059-0.614,0.018-1.041-0.124-1.279s-0.411-0.376-0.81-0.414c-0.407-0.039-0.706,0.051-0.897,0.271
				c-0.19,0.222-0.312,0.625-0.369,1.212l-0.226,2.35l2.2,0.211L47.664,123.535z"/>
			<path fill="#331842" d="M57.62,124.224l-0.793,8.273l-1.67-0.16l0.768-8.011c0.057-0.594,0.008-1.016-0.146-1.266
				s-0.444-0.396-0.87-0.436c-0.417-0.04-0.727,0.051-0.933,0.273c-0.203,0.222-0.332,0.623-0.388,1.204l-0.769,8.011l-1.672-0.16
				l0.998-10.411l1.562,0.149l0.049,0.648c0.254-0.268,0.562-0.462,0.926-0.58c0.363-0.118,0.771-0.156,1.225-0.112
				c0.707,0.067,1.189,0.293,1.449,0.675C57.616,122.706,57.706,123.339,57.62,124.224z"/>
			<path fill="#331842" d="M62.402,119.695l-0.269,2.805l1.275,0.123l-0.101,1.053l-1.276-0.122l-0.742,7.737
				c-0.027,0.291,0.027,0.499,0.165,0.624c0.14,0.126,0.404,0.207,0.794,0.245l0.244,0.023l-0.104,1.083
				c-0.101-0.003-0.203-0.008-0.308-0.014c-0.104-0.007-0.253-0.02-0.442-0.037c-0.852-0.082-1.416-0.291-1.695-0.628
				c-0.277-0.337-0.366-1.035-0.265-2.095l0.681-7.1l-0.91-0.088l0.102-1.053l0.91,0.087l0.22-2.299L62.402,119.695z"/>
			<path fill="#331842" d="M70.309,125.737l-0.765,7.98l-1.562-0.15l-0.048-0.648c-0.255,0.27-0.563,0.463-0.926,0.581
				c-0.363,0.119-0.772,0.156-1.224,0.113c-0.707-0.068-1.191-0.293-1.451-0.676c-0.262-0.383-0.348-1.017-0.264-1.901l0.199-2.076
				c0.078-0.816,0.43-1.369,1.058-1.656c0.626-0.287,1.683-0.381,3.173-0.278l0.142-1.479c0.06-0.628,0.021-1.058-0.117-1.289
				s-0.41-0.366-0.817-0.405c-0.39-0.037-0.678,0.036-0.865,0.219c-0.186,0.184-0.303,0.518-0.35,1.004l-0.055,0.577l-1.671-0.16
				l0.027-0.284c0.1-1.039,0.37-1.727,0.814-2.062c0.443-0.336,1.187-0.453,2.228-0.354c1.014,0.097,1.705,0.354,2.072,0.771
				S70.407,124.704,70.309,125.737z M68.388,128.036c-0.871-0.056-1.473,0.003-1.807,0.175c-0.33,0.173-0.522,0.522-0.573,1.049
				l-0.16,1.671c-0.06,0.621-0.019,1.051,0.124,1.289c0.142,0.239,0.42,0.378,0.837,0.418c0.407,0.039,0.712-0.053,0.911-0.275
				s0.328-0.628,0.384-1.215L68.388,128.036z"/>
			<path fill="#331842" d="M73.53,119.024l1.671,0.16l-1.433,14.938l-1.67-0.16L73.53,119.024z"/>
			<path fill="#331842" d="M77.193,119.151l1.331,0.127c0.615,1.593,1.04,3.161,1.276,4.706c0.235,1.546,0.282,3.058,0.141,4.536
				c-0.142,1.473-0.474,2.944-0.999,4.417s-1.241,2.936-2.148,4.388l-1.331-0.127c0.774-1.595,1.38-3.12,1.815-4.573
				c0.438-1.454,0.723-2.879,0.856-4.277c0.134-1.397,0.124-2.851-0.028-4.361C77.956,122.476,77.649,120.864,77.193,119.151z"/>
		</g>
	</g>
	<path fill="#AA4694" d="M93.581,67.17c-0.928-1.879-2.027-3.672-3.047-5.504c-0.516-0.922-0.383-1.684,0.01-2.742
		c0.463-1.258,0.264-2.843,0.064-4.246c-0.25-1.725-0.969-3.391-1.18-5.115c-0.352-2.893-0.828-5.758,0.535-8.662l-6.102-4.359
		c-4.549-1.502-9.082-3.061-13.621-4.602c-0.715-0.242-1.424-0.502-2.135-0.752l-3.648-0.408l-0.012-0.002l-2.602-0.293h-0.014
		l-3.637-0.408c-0.748,0.088-1.498,0.184-2.248,0.262c-4.766,0.498-9.531,1.018-14.301,1.473l-6.914,2.9
		c0.686,3.135-0.414,5.824-1.396,8.566c-0.584,1.639-1.654,3.102-2.281,4.729c-0.506,1.324-1.051,2.824-0.875,4.156
		c0.146,1.119,0.107,1.889-0.6,2.676c-1.398,1.561-2.867,3.066-4.188,4.691c-1.629,2.006-0.959,3.838,1.615,4.328
		c1.375,0.262,1.666,0.99,0.957,1.916c-1.303,1.697-0.422,3.574,0.082,4.875c0.602,1.549,0.654,2.732,0.229,4.197
		c-0.793,2.736,0.191,4.398,2.992,4.975c2.053,0.422,4.15,0.613,6.215,0.984c3.678,0.66,4.627,1.719,4.941,5.354
		c0.023,0.277,0.061,0.553,0.059,0.826c-0.016,1.422,0.666,2.293,1.918,2.994c3.918,2.195,7.867,2.762,11.838,2.383
		c3.785,1.248,7.76,1.57,12.068,0.295c1.377-0.406,2.234-1.105,2.533-2.494c0.059-0.27,0.156-0.527,0.238-0.793
		c1.111-3.475,2.271-4.299,6.006-4.127c2.094,0.096,4.182,0.371,6.277,0.414c2.857,0.059,4.188-1.346,4.02-4.188
		c-0.092-1.523,0.223-2.666,1.152-4.043c0.779-1.158,2.051-2.795,1.158-4.738c-0.486-1.059-0.043-1.703,1.357-1.656
		C93.665,71.125,94.728,69.485,93.581,67.17"/>
	<path fill="#31756A" d="M93.813,67.196c-0.928-1.877-2.027-3.672-3.049-5.504c-0.514-0.922-0.381-1.684,0.01-2.74
		c0.467-1.26,0.268-2.843,0.066-4.246c-0.25-1.727-0.971-3.393-1.178-5.115c-0.352-2.895-0.828-5.76,0.533-8.664l-6.102-4.359
		c-4.551-1.5-9.084-3.062-13.619-4.602c-0.717-0.24-1.426-0.5-2.135-0.752l-3.648-0.408l-0.014-0.002l-2.602-0.291l-0.012-0.002
		l-6.943,61.964c0.449-0.018,0.896-0.045,1.348-0.088c3.785,1.248,7.762,1.57,12.07,0.295c1.375-0.406,2.23-1.105,2.531-2.494
		c0.059-0.268,0.156-0.527,0.24-0.791c1.109-3.477,2.27-4.301,6.004-4.129c2.094,0.096,4.182,0.371,6.277,0.416
		c2.859,0.059,4.188-1.346,4.02-4.189c-0.092-1.523,0.223-2.664,1.154-4.043c0.777-1.158,2.049-2.793,1.156-4.736
		c-0.488-1.059-0.041-1.705,1.359-1.656C93.897,71.151,94.958,69.51,93.813,67.196"/>
</g>
</svg>
