<?xml version="1.0" encoding="utf-8"?>
<!-- Generator: Adobe Illustrator 16.0.0, SVG Export Plug-In . SVG Version: 6.00 Build 0)  -->
<!DOCTYPE svg PUBLIC "-//W3C//DTD SVG 1.1//EN" "http://www.w3.org/Graphics/SVG/1.1/DTD/svg11.dtd">
<svg version="1.1" id="Capa_1" xmlns="http://www.w3.org/2000/svg" xmlns:xlink="http://www.w3.org/1999/xlink" x="0px" y="0px"
	 width="112.469px" height="144.194px" viewBox="0 0 112.469 144.194" enable-background="new 0 0 112.469 144.194"
	 xml:space="preserve">
<g>
	<path fill-rule="evenodd" clip-rule="evenodd" fill="#331842" d="M104.496,8.837c-4.23-0.721-8.461-1.4-12.57-2.08
		c-0.221-0.529-41.051-4.02-52.961-5.141c-7.109-0.68-14.229-1.369-21.359-1.609c-4.16-0.15-6.83,2.131-7.199,6.621
		c-1.281,15.76-2.621,31.52-3.93,47.27c-2.121,25.379-4.191,50.75-6.371,76.119c-0.58,6.689,1.141,8.59,7.82,9.051
		c16.6,1.129,33.17,2.68,49.77,3.709c12.26,0.76,24.551,0.961,36.82,1.41c3.59,0.141,5.66-1.699,6.311-5.09
		c7.84-40.91,10.779-115.25,11.379-119.42C113.225,12.597,111.416,10.017,104.496,8.837z M109.455,17.157
		c-1.189,14.59-2.26,29.189-3.299,43.789c-1.25,17.58-2.25,35.191-3.711,52.76c-0.6,7.271-2.219,14.451-3.119,21.711
		c-0.551,4.359-2.791,6.59-7.1,6.68c-4.811,0.09-9.621,0.02-14.441,0.02c0,0.141-36.119-2.859-54.18-4.488
		c-5.299-0.471-10.6-1.031-15.92-1.262c-4.379-0.18-5.65-2.219-5.289-6.42c1.6-18.229,2.969-36.479,4.49-54.719
		c1.818-21.721,3.729-43.43,5.559-65.141c0.58-6.891,2.4-8.6,9.641-7.959c10.439,0.92,20.859,2.01,31.27,3.158
		c16.85,1.861,33.68,3.971,50.541,5.66C108.156,11.378,109.805,12.897,109.455,17.157z"/>
	<path opacity="0.9" fill-rule="evenodd" clip-rule="evenodd" fill="#D1D1D1" d="M109.455,17.157
		c-1.189,14.59-2.26,29.189-3.299,43.789c-1.25,17.58-2.25,35.191-3.711,52.76c-0.6,7.271-2.219,14.451-3.119,21.711
		c-0.551,4.359-2.791,6.59-7.1,6.68c-4.811,0.09-9.621,0.02-14.441,0.02c0,0.141-36.119-2.859-54.18-4.488
		c-5.299-0.471-10.6-1.031-15.92-1.262c-4.379-0.18-5.65-2.219-5.289-6.42c1.6-18.229,2.969-36.479,4.49-54.719
		c1.818-21.721,3.729-43.43,5.559-65.141c0.58-6.891,2.4-8.6,9.641-7.959c10.439,0.92,20.859,2.01,31.27,3.158
		c16.85,1.861,33.68,3.971,50.541,5.66C108.156,11.378,109.805,12.897,109.455,17.157z"/>
	<g>
		<g>
			<path fill="#331842" d="M28.446,118.145l2.529,0.224l1.575,15.203l-1.862-0.164l-0.327-4.216l-3.289-0.29l-1.115,4.088
				l-1.822-0.161L28.446,118.145z M29.545,119.355l-2.213,8.466l2.896,0.255l-0.601-8.714L29.545,119.355z"/>
			<path fill="#331842" d="M35.537,123.336l1.672,0.148l-0.705,7.986c-0.054,0.614-0.004,1.047,0.153,1.295
				c0.156,0.248,0.446,0.392,0.873,0.429c0.417,0.037,0.722-0.057,0.915-0.281s0.316-0.638,0.37-1.239l0.705-7.986l1.699,0.15
				l-0.92,10.418l-1.563-0.138l-0.08-0.649c-0.252,0.27-0.551,0.463-0.9,0.578c-0.348,0.115-0.748,0.153-1.201,0.113
				c-0.717-0.062-1.206-0.283-1.47-0.661c-0.264-0.376-0.356-1.005-0.279-1.883L35.537,123.336z"/>
			<path fill="#331842" d="M48.105,119.881l1.699,0.149l-1.32,14.948l-1.563-0.138l-0.079-0.649
				c-0.253,0.276-0.557,0.476-0.908,0.593c-0.354,0.118-0.758,0.157-1.21,0.117c-0.698-0.062-1.181-0.282-1.448-0.663
				s-0.363-1.015-0.285-1.899l0.543-6.143c0.078-0.884,0.282-1.491,0.613-1.818c0.33-0.329,0.844-0.462,1.542-0.4
				c0.452,0.04,0.845,0.15,1.177,0.333c0.33,0.183,0.592,0.429,0.783,0.738L48.105,119.881z M47.493,126.813
				c0.052-0.588,0.005-1.008-0.143-1.259s-0.424-0.395-0.831-0.431c-0.418-0.037-0.723,0.053-0.915,0.267s-0.315,0.623-0.368,1.224
				l-0.494,5.604c-0.055,0.608-0.006,1.034,0.146,1.279c0.151,0.245,0.437,0.386,0.854,0.423c0.408,0.036,0.705-0.057,0.895-0.278
				c0.188-0.222,0.309-0.63,0.361-1.225L47.493,126.813z"/>
			<path fill="#331842" d="M51.96,124.788l1.673,0.147l-0.92,10.418l-1.673-0.147L51.96,124.788z M52.279,120.25l1.862,0.165
				l-0.14,1.58l-1.862-0.165L52.279,120.25z"/>
			<path fill="#331842" d="M58.218,122.51l-0.248,2.808l1.278,0.112l-0.094,1.055l-1.277-0.113l-0.684,7.743
				c-0.025,0.29,0.031,0.498,0.17,0.622c0.141,0.126,0.404,0.205,0.795,0.239l0.244,0.022l-0.096,1.084
				c-0.1-0.004-0.202-0.007-0.307-0.013c-0.105-0.006-0.252-0.018-0.443-0.034c-0.852-0.075-1.418-0.28-1.698-0.615
				c-0.281-0.334-0.375-1.031-0.281-2.092l0.628-7.104l-0.912-0.081l0.094-1.054l0.91,0.081l0.203-2.301L58.218,122.51z"/>
			<path fill="#331842" d="M60.92,125.579l1.673,0.147l-0.92,10.418L60,135.997L60.92,125.579z M61.239,121.041l1.862,0.165
				l-0.14,1.58l-1.862-0.165L61.239,121.041z"/>
			<path fill="#331842" d="M64.265,125.874l1.632,0.145l0.344,9.447l0.149,0.013l2.076-9.233l1.536,0.136l-2.619,10.268
				l-2.311-0.204L64.265,125.874z"/>
			<path fill="#331842" d="M76.938,129.444l-0.706,7.986l-1.562-0.139l-0.053-0.646c-0.252,0.27-0.56,0.466-0.922,0.586
				c-0.361,0.121-0.77,0.162-1.224,0.122c-0.706-0.062-1.192-0.284-1.455-0.664c-0.263-0.381-0.355-1.014-0.277-1.898l0.184-2.078
				c0.071-0.817,0.42-1.372,1.044-1.665c0.624-0.292,1.682-0.393,3.172-0.303l0.131-1.479c0.055-0.629,0.013-1.059-0.127-1.288
				c-0.139-0.229-0.413-0.363-0.82-0.399c-0.391-0.034-0.678,0.041-0.863,0.226c-0.185,0.184-0.299,0.52-0.342,1.006l-0.051,0.578
				l-1.672-0.147l0.025-0.284c0.092-1.04,0.357-1.73,0.799-2.069c0.439-0.339,1.182-0.462,2.225-0.369
				c1.015,0.089,1.707,0.341,2.077,0.754C76.891,127.686,77.029,128.411,76.938,129.444z M75.035,131.757
				c-0.873-0.049-1.475,0.014-1.805,0.188c-0.33,0.176-0.52,0.526-0.565,1.052l-0.147,1.673c-0.055,0.622-0.012,1.053,0.133,1.29
				c0.144,0.236,0.424,0.374,0.84,0.41c0.408,0.036,0.711-0.058,0.909-0.282s0.323-0.631,0.374-1.219L75.035,131.757z"/>
		</g>
	</g>
	<g>
		<path fill="#331842" d="M42.28,12.487l1.069,0.095c0.904,0.08,1.486,0.237,1.745,0.474c0.259,0.237,0.354,0.735,0.287,1.496
			l-0.384,4.338c-0.066,0.756-0.25,1.229-0.551,1.418c-0.303,0.189-0.9,0.244-1.795,0.165l-1.068-0.095L42.28,12.487z M43.141,13.15
			l-0.594,6.725l0.294,0.026c0.44,0.038,0.735,0.012,0.886-0.086c0.151-0.096,0.242-0.33,0.275-0.701l0.437-4.943
			c0.033-0.375-0.017-0.624-0.149-0.749c-0.135-0.125-0.419-0.207-0.854-0.245L43.141,13.15z"/>
		<path fill="#331842" d="M46.785,15.294l0.883,0.078l-0.486,5.5l-0.883-0.078L46.785,15.294z M46.953,12.9l0.982,0.087
			l-0.073,0.834l-0.983-0.087L46.953,12.9z"/>
		<path fill="#331842" d="M51.416,16.982l-0.027,0.31l-0.883-0.078l0.027-0.31c0.031-0.34,0.02-0.567-0.037-0.684
			c-0.055-0.116-0.168-0.182-0.34-0.197c-0.152-0.014-0.267,0.028-0.34,0.125c-0.074,0.095-0.121,0.265-0.143,0.508l-0.02,0.219
			c-0.01,0.117,0.01,0.236,0.059,0.354c0.05,0.12,0.137,0.25,0.259,0.39l0.976,1.155c0.109,0.131,0.19,0.264,0.244,0.397
			c0.053,0.135,0.074,0.259,0.064,0.373l-0.047,0.525c-0.041,0.474-0.175,0.797-0.4,0.97c-0.225,0.172-0.586,0.237-1.083,0.193
			c-0.517-0.046-0.867-0.178-1.051-0.396c-0.183-0.218-0.251-0.596-0.204-1.135l0.043-0.471l0.875,0.077l-0.041,0.471
			c-0.031,0.35-0.018,0.582,0.043,0.694c0.06,0.113,0.178,0.178,0.355,0.193c0.182,0.017,0.315-0.026,0.402-0.127
			c0.086-0.1,0.141-0.283,0.164-0.55l0.019-0.209c0.026-0.3-0.095-0.603-0.362-0.906c-0.008-0.012-0.015-0.019-0.02-0.023
			l-0.947-1.141c-0.101-0.12-0.17-0.236-0.207-0.349c-0.039-0.114-0.053-0.236-0.041-0.369l0.035-0.395
			c0.039-0.454,0.17-0.767,0.391-0.939c0.22-0.173,0.566-0.238,1.041-0.196c0.492,0.043,0.826,0.173,1.004,0.39
			C51.4,16.071,51.464,16.447,51.416,16.982z"/>
		<path fill="#331842" d="M55.328,17.494l-0.031,0.354l-0.926-0.082l0.045-0.519c0.033-0.361,0.021-0.594-0.035-0.699
			c-0.055-0.105-0.17-0.166-0.342-0.182c-0.172-0.015-0.297,0.031-0.373,0.138c-0.078,0.106-0.131,0.327-0.16,0.663l-0.262,2.958
			c-0.029,0.343-0.016,0.572,0.045,0.689c0.059,0.116,0.178,0.183,0.354,0.198c0.168,0.015,0.287-0.026,0.358-0.123
			c0.071-0.096,0.122-0.324,0.154-0.685l0.052-0.588l0.927,0.082l-0.038,0.428c-0.053,0.605-0.191,1.011-0.414,1.211
			c-0.223,0.202-0.59,0.281-1.102,0.235c-0.508-0.045-0.854-0.189-1.037-0.432s-0.248-0.666-0.195-1.269l0.232-2.622
			c0.053-0.609,0.19-1.015,0.41-1.214c0.221-0.2,0.586-0.277,1.099-0.232c0.507,0.045,0.854,0.188,1.04,0.429
			C55.314,16.474,55.381,16.895,55.328,17.494z"/>
		<path fill="#331842" d="M59.39,17.702l-0.372,4.216l-0.826-0.073l-0.027-0.342c-0.133,0.143-0.295,0.246-0.486,0.311
			c-0.191,0.063-0.407,0.086-0.646,0.064c-0.373-0.032-0.629-0.15-0.768-0.351c-0.139-0.202-0.188-0.535-0.146-1.002l0.097-1.098
			c0.038-0.432,0.222-0.725,0.552-0.879c0.328-0.154,0.887-0.208,1.674-0.16l0.068-0.78c0.029-0.333,0.008-0.56-0.066-0.68
			c-0.074-0.122-0.219-0.192-0.434-0.212c-0.205-0.018-0.357,0.021-0.455,0.119c-0.098,0.097-0.158,0.274-0.181,0.531l-0.026,0.305
			l-0.883-0.077l0.013-0.15c0.048-0.549,0.188-0.913,0.421-1.092c0.234-0.18,0.625-0.244,1.176-0.195
			c0.535,0.047,0.901,0.18,1.097,0.397C59.363,16.774,59.438,17.156,59.39,17.702z M58.385,18.922
			c-0.461-0.025-0.778,0.008-0.953,0.101s-0.273,0.277-0.299,0.556l-0.078,0.882c-0.028,0.328-0.005,0.556,0.07,0.681
			c0.076,0.126,0.225,0.198,0.443,0.218c0.217,0.019,0.377-0.031,0.48-0.149c0.104-0.118,0.17-0.333,0.197-0.644L58.385,18.922z"/>
		<path fill="#331842" d="M63.753,17.93l-0.286,3.243c-0.041,0.467-0.148,0.786-0.32,0.961c-0.172,0.173-0.445,0.244-0.818,0.212
			c-0.238-0.021-0.447-0.081-0.624-0.178c-0.177-0.098-0.319-0.227-0.425-0.391l-0.213,2.419l-0.883-0.078l0.669-7.582l0.825,0.073
			l0.027,0.342c0.134-0.143,0.296-0.246,0.486-0.311c0.192-0.063,0.407-0.085,0.646-0.063c0.373,0.032,0.629,0.149,0.769,0.35
			C63.745,17.129,63.794,17.462,63.753,17.93z M62.814,17.989c0.029-0.325,0.006-0.551-0.07-0.675
			c-0.076-0.127-0.225-0.199-0.443-0.219c-0.215-0.019-0.375,0.031-0.48,0.15c-0.104,0.117-0.17,0.33-0.197,0.638l-0.262,2.958
			c-0.027,0.314-0.001,0.537,0.079,0.671c0.079,0.132,0.229,0.209,0.45,0.228c0.219,0.02,0.378-0.025,0.475-0.136
			c0.097-0.109,0.159-0.329,0.188-0.657L62.814,17.989z"/>
		<path fill="#331842" d="M67.945,18.458l-0.373,4.216L66.747,22.6l-0.028-0.342c-0.133,0.143-0.295,0.245-0.486,0.311
			c-0.191,0.063-0.406,0.086-0.646,0.064c-0.373-0.033-0.63-0.15-0.769-0.352c-0.139-0.202-0.188-0.535-0.146-1.002l0.098-1.098
			c0.037-0.432,0.221-0.724,0.551-0.878c0.33-0.155,0.889-0.208,1.674-0.16l0.068-0.78c0.03-0.333,0.008-0.56-0.066-0.68
			c-0.072-0.122-0.217-0.193-0.432-0.212c-0.207-0.019-0.358,0.021-0.457,0.119c-0.098,0.097-0.157,0.274-0.18,0.531L65.9,18.427
			l-0.883-0.078l0.014-0.149c0.049-0.55,0.189-0.913,0.422-1.093c0.232-0.179,0.624-0.243,1.174-0.195
			c0.537,0.048,0.902,0.181,1.098,0.398C67.92,17.53,67.992,17.912,67.945,18.458z M66.939,19.678
			c-0.46-0.025-0.777,0.007-0.951,0.101c-0.176,0.093-0.275,0.277-0.299,0.556l-0.078,0.882c-0.029,0.328-0.006,0.556,0.07,0.681
			c0.074,0.126,0.223,0.197,0.443,0.217c0.215,0.02,0.375-0.03,0.479-0.148s0.17-0.333,0.197-0.644L66.939,19.678z"/>
		<path fill="#331842" d="M72.002,18.966l-0.031,0.354l-0.927-0.082l0.046-0.519c0.031-0.361,0.02-0.594-0.036-0.699
			c-0.056-0.106-0.169-0.166-0.341-0.182c-0.174-0.016-0.299,0.031-0.375,0.138s-0.13,0.327-0.16,0.663l-0.261,2.958
			c-0.03,0.343-0.017,0.572,0.044,0.689c0.061,0.115,0.178,0.182,0.355,0.197c0.166,0.015,0.287-0.025,0.357-0.122
			c0.072-0.096,0.123-0.324,0.154-0.685l0.053-0.588l0.926,0.082l-0.037,0.428c-0.055,0.605-0.192,1.011-0.416,1.211
			c-0.223,0.202-0.59,0.28-1.102,0.235c-0.507-0.045-0.853-0.189-1.036-0.432c-0.183-0.243-0.249-0.666-0.195-1.269l0.231-2.622
			c0.055-0.609,0.191-1.015,0.411-1.215c0.22-0.199,0.587-0.276,1.099-0.231c0.507,0.045,0.854,0.188,1.039,0.429
			C71.987,17.946,72.055,18.368,72.002,18.966z"/>
		<path fill="#331842" d="M73.291,17.635l0.883,0.078l-0.486,5.5l-0.883-0.078L73.291,17.635z M73.459,15.241l0.982,0.087
			l-0.073,0.834l-0.983-0.087L73.459,15.241z"/>
		<path fill="#331842" d="M77.822,15.626l0.896,0.079l-0.696,7.891l-0.825-0.073l-0.042-0.343c-0.134,0.146-0.294,0.25-0.479,0.312
			c-0.187,0.063-0.399,0.085-0.639,0.063c-0.368-0.032-0.623-0.15-0.765-0.351c-0.142-0.202-0.191-0.536-0.15-1.003l0.286-3.243
			c0.041-0.468,0.148-0.786,0.324-0.961c0.174-0.173,0.445-0.243,0.814-0.211c0.238,0.021,0.445,0.08,0.621,0.176
			c0.174,0.098,0.312,0.227,0.414,0.391L77.822,15.626z M77.5,19.286c0.027-0.312,0.002-0.532-0.076-0.665
			c-0.077-0.133-0.225-0.209-0.439-0.229c-0.219-0.02-0.381,0.027-0.481,0.142c-0.103,0.113-0.167,0.328-0.194,0.646l-0.262,2.958
			c-0.029,0.321-0.003,0.546,0.078,0.676c0.08,0.129,0.23,0.203,0.449,0.223c0.215,0.02,0.373-0.029,0.473-0.146
			c0.1-0.118,0.164-0.333,0.191-0.647L77.5,19.286z"/>
		<path fill="#331842" d="M82.63,19.754l-0.372,4.216l-0.826-0.073l-0.027-0.342c-0.133,0.143-0.295,0.245-0.486,0.311
			c-0.191,0.063-0.406,0.086-0.646,0.064c-0.373-0.033-0.629-0.15-0.768-0.352c-0.139-0.202-0.188-0.535-0.146-1.002l0.097-1.098
			c0.038-0.432,0.222-0.724,0.552-0.878c0.329-0.155,0.887-0.208,1.674-0.16l0.068-0.78c0.029-0.333,0.008-0.56-0.066-0.68
			c-0.073-0.122-0.219-0.193-0.434-0.212c-0.205-0.019-0.357,0.021-0.455,0.119c-0.098,0.097-0.158,0.274-0.181,0.531l-0.026,0.305
			l-0.883-0.078l0.013-0.149c0.048-0.55,0.189-0.913,0.422-1.093c0.233-0.179,0.624-0.243,1.175-0.195
			c0.535,0.048,0.901,0.181,1.098,0.398C82.604,18.827,82.678,19.208,82.63,19.754z M81.625,20.975
			c-0.461-0.025-0.778,0.007-0.953,0.101c-0.174,0.093-0.273,0.277-0.298,0.556l-0.078,0.882c-0.028,0.328-0.006,0.556,0.069,0.681
			c0.076,0.126,0.225,0.197,0.445,0.217c0.215,0.02,0.375-0.03,0.479-0.148c0.105-0.118,0.17-0.333,0.197-0.644L81.625,20.975z"/>
		<path fill="#331842" d="M86.378,16.381l0.897,0.079l-0.697,7.891l-0.826-0.072l-0.041-0.344c-0.133,0.147-0.294,0.251-0.48,0.313
			c-0.186,0.062-0.398,0.085-0.639,0.063c-0.367-0.032-0.622-0.15-0.764-0.351c-0.142-0.203-0.191-0.536-0.15-1.003l0.287-3.243
			c0.041-0.468,0.148-0.787,0.322-0.961c0.176-0.173,0.446-0.243,0.814-0.211c0.24,0.021,0.447,0.08,0.621,0.176
			c0.176,0.098,0.313,0.227,0.414,0.39L86.378,16.381z M86.055,20.041c0.027-0.312,0.002-0.532-0.074-0.665
			c-0.078-0.133-0.225-0.209-0.439-0.228c-0.221-0.02-0.381,0.027-0.482,0.142c-0.102,0.113-0.168,0.328-0.195,0.646l-0.262,2.958
			c-0.028,0.321-0.002,0.546,0.078,0.676c0.08,0.129,0.23,0.203,0.451,0.223c0.215,0.019,0.373-0.03,0.472-0.146
			c0.1-0.118,0.163-0.333,0.19-0.647L86.055,20.041z"/>
	</g>
	<g>
		<path fill-rule="evenodd" clip-rule="evenodd" fill="#F29B60" d="M58.018,68.851c0.469,1.316-0.217,2.766-1.535,3.236
			c-0.266,0.094-0.539,0.143-0.807,0.148c0.412,0.08,0.807,0.264,1.148,0.553c1.066,0.9,1.201,2.498,0.299,3.564
			c-2.381,2.807-4.707,4.566-7.309,5.492c-0.535,0.193-1.078,0.348-1.631,0.465v0.002c-3.418,0.969-8.988,1.76-13.771,1.514
			c-4.094,0.16-6.779,2.029-8.785,4.73c-4.387-2.66-7.168-6.602-7.211-12.73c3.078-1.096,5.65-2.91,7.662-5.521
			c1.645-6.672,4.1-13.594,7.234-19.533c0.336-0.668,0.693-1.318,1.068-1.951c1.525-2.584,3.344-4.896,5.43-6.961
			c0.992-0.984,2.59-0.98,3.574,0.008c0.984,0.992,0.98,2.594-0.01,3.576c-1.775,1.76-3.33,3.736-4.639,5.949
			c-0.094,0.156-0.184,0.314-0.273,0.473c0.938-0.959,1.951-1.867,3.045-2.695c2.693-2.043,5.834-3.604,9.361-4.307
			c1.371-0.273,2.705,0.617,2.977,1.988c0.275,1.373-0.615,2.707-1.99,2.98c-2.754,0.551-5.201,1.766-7.299,3.355
			c-1.137,0.863-2.176,1.84-3.111,2.883c2.18-1.359,4.418-2.244,6.674-2.543c3.723-0.494,7.371,0.572,10.754,3.664
			c1.027,0.939,1.1,2.537,0.158,3.566c-0.939,1.027-2.537,1.098-3.564,0.158c-0.625-0.572-1.256-1.035-1.893-1.4
			c-1.578-0.902-3.193-1.193-4.801-0.979c-1.779,0.236-3.615,1.062-5.461,2.35c-0.496,0.348-0.994,0.73-1.49,1.143
			c0.506-0.236,1.004-0.439,1.49-0.615c2.703-0.965,5.201-1.053,7.42-0.361v0.002c2.266,0.705,4.15,2.191,5.588,4.354
			C56.992,66.423,57.559,67.573,58.018,68.851 M44.711,77.554c1.246,0.039,2.365-0.111,3.402-0.48
			c1.732-0.619,3.371-1.896,5.146-3.99c0.49-0.578,1.186-0.881,1.889-0.893c-0.85-0.166-1.592-0.764-1.904-1.637
			c-0.209-0.586-0.441-1.119-0.695-1.602c-0.145-0.266-0.293-0.52-0.449-0.752c-0.783-1.184-1.748-1.971-2.861-2.318l-0.01-0.004
			v0.004c-1.166-0.361-2.578-0.277-4.211,0.305c-0.414,0.148-0.84,0.326-1.275,0.535c-0.154,0.076-0.312,0.154-0.475,0.238
			C37.764,70.448,39.574,77.226,44.711,77.554"/>
		<path fill-rule="evenodd" clip-rule="evenodd" fill="#F29B60" d="M57.498,77.464c-0.471-1.318,0.219-2.768,1.535-3.238
			c0.266-0.096,0.539-0.141,0.807-0.146c-0.41-0.08-0.809-0.264-1.148-0.553c-1.066-0.9-1.199-2.496-0.297-3.564
			c2.379-2.807,4.705-4.566,7.305-5.492c0.537-0.191,1.08-0.348,1.633-0.465c3.416-0.971,8.986-1.762,13.77-1.514
			c4.094-0.162,6.781-2.031,8.787-4.732c4.385,2.66,7.166,6.604,7.209,12.729c-3.076,1.096-5.646,2.912-7.658,5.521
			c-1.646,6.674-4.102,13.596-7.236,19.537c-0.338,0.668-0.693,1.316-1.068,1.951c-1.523,2.582-3.344,4.893-5.432,6.959
			c-0.988,0.982-2.588,0.979-3.572-0.012c-0.986-0.988-0.98-2.588,0.008-3.572c1.779-1.762,3.332-3.736,4.639-5.951
			c0.092-0.156,0.184-0.314,0.273-0.473c-0.936,0.961-1.949,1.867-3.043,2.697c-2.691,2.045-5.832,3.605-9.359,4.305
			c-1.373,0.275-2.707-0.615-2.98-1.988s0.617-2.707,1.99-2.98c2.756-0.549,5.203-1.764,7.301-3.355
			c1.135-0.863,2.176-1.838,3.109-2.881c-2.178,1.359-4.416,2.242-6.672,2.543c-3.723,0.496-7.371-0.574-10.754-3.666
			c-1.031-0.939-1.102-2.535-0.16-3.564c0.941-1.027,2.537-1.098,3.566-0.158c0.621,0.572,1.256,1.037,1.893,1.4
			c1.58,0.9,3.193,1.191,4.801,0.979c1.779-0.236,3.615-1.062,5.459-2.35c0.496-0.348,0.994-0.73,1.492-1.141
			c-0.506,0.232-1.004,0.439-1.492,0.611c-2.703,0.967-5.201,1.055-7.418,0.365v-0.004c-2.266-0.707-4.152-2.189-5.586-4.352
			C58.523,79.892,57.955,78.739,57.498,77.464 M70.805,68.759c-1.248-0.037-2.365,0.111-3.4,0.48
			c-1.734,0.621-3.373,1.898-5.148,3.99c-0.492,0.58-1.186,0.883-1.889,0.895c0.85,0.166,1.594,0.762,1.904,1.639
			c0.207,0.584,0.439,1.117,0.695,1.598c0.145,0.27,0.291,0.52,0.449,0.754c0.783,1.182,1.75,1.971,2.861,2.318l0.008,0.002
			l0.004-0.002c1.162,0.361,2.578,0.277,4.209-0.305c0.414-0.148,0.838-0.326,1.271-0.535c0.158-0.074,0.32-0.156,0.477-0.238
			C77.752,75.868,75.941,69.091,70.805,68.759"/>
		<path fill-rule="evenodd" clip-rule="evenodd" fill="#E33D3B" d="M22.994,72.829c0.4,5.027,2.637,9.232,6.824,12.562
			c-1.637,0.891-2.959,2.156-4.08,3.666c-4.676-2.832-7.641-7.035-7.688-13.574C19.867,74.839,21.52,73.958,22.994,72.829"/>
		<path fill-rule="evenodd" clip-rule="evenodd" fill="#E33D3B" d="M92.537,73.62c-0.408-5.111-2.682-9.387-6.936-12.773
			c1.66-0.902,3.004-2.189,4.145-3.727c4.754,2.883,7.768,7.156,7.814,13.799C95.715,71.575,94.037,72.472,92.537,73.62"/>
		<path fill-rule="evenodd" clip-rule="evenodd" fill="#F5B176" d="M45.223,65.146c0.934,0,1.826,0.186,2.641,0.521
			c-0.854-0.02-1.807,0.148-2.846,0.52c-0.414,0.148-0.84,0.326-1.275,0.535c-0.154,0.076-0.312,0.154-0.475,0.238
			c-5.504,3.488-3.693,10.264,1.443,10.594c1.246,0.039,2.365-0.111,3.402-0.48c1.188-0.424,2.334-1.158,3.508-2.252
			c-1.059,2.486-3.527,4.23-6.398,4.23c-3.844,0-6.955-3.113-6.955-6.953S41.379,65.146,45.223,65.146"/>
		<path fill-rule="evenodd" clip-rule="evenodd" fill="#F5B176" d="M70.32,81.169c-0.934,0-1.828-0.184-2.645-0.52
			c0.857,0.02,1.809-0.148,2.85-0.52c0.414-0.15,0.838-0.326,1.271-0.537c0.156-0.074,0.316-0.154,0.475-0.238
			c5.506-3.486,3.693-10.264-1.441-10.594c-1.246-0.039-2.363,0.111-3.4,0.482c-1.189,0.422-2.336,1.156-3.51,2.252
			c1.061-2.488,3.525-4.232,6.4-4.232c3.84,0,6.953,3.113,6.953,6.953S74.16,81.169,70.32,81.169"/>
	</g>
</g>
</svg>
