<?xml version="1.0" encoding="utf-8"?>
<!-- Generator: Adobe Illustrator 16.0.0, SVG Export Plug-In . SVG Version: 6.00 Build 0)  -->
<!DOCTYPE svg PUBLIC "-//W3C//DTD SVG 1.1//EN" "http://www.w3.org/Graphics/SVG/1.1/DTD/svg11.dtd">
<svg version="1.1" id="Capa_1" xmlns="http://www.w3.org/2000/svg" xmlns:xlink="http://www.w3.org/1999/xlink" x="0px" y="0px"
	 width="383.956px" height="467.493px" viewBox="0 0 383.956 467.493" enable-background="new 0 0 383.956 467.493"
	 xml:space="preserve">
<g>
	<g>
		<path fill-rule="evenodd" clip-rule="evenodd" fill="#331842" d="M375.983,169.952c-4.23-0.721-8.461-1.401-12.57-2.081
			c-0.221-0.529-41.051-4.02-52.961-5.141c-7.109-0.68-14.229-1.369-21.359-1.609c-4.16-0.15-6.83,2.131-7.199,6.621
			c-1.281,15.759-2.621,31.519-3.93,47.269c-2.121,25.381-4.191,50.75-6.371,76.121c-0.58,6.689,1.141,8.59,7.82,9.049
			c16.6,1.131,33.17,2.68,49.77,3.711c12.26,0.76,24.551,0.959,36.82,1.41c3.59,0.139,5.66-1.701,6.311-5.09
			c7.84-40.91,10.779-115.25,11.379-119.42C384.712,173.712,382.903,171.132,375.983,169.952z M380.942,178.271
			c-1.189,14.59-2.26,29.191-3.299,43.791c-1.25,17.58-2.25,35.189-3.711,52.76c-0.6,7.27-2.219,14.449-3.119,21.711
			c-0.551,4.359-2.791,6.59-7.1,6.68c-4.811,0.09-9.621,0.02-14.441,0.02c0,0.141-36.119-2.859-54.18-4.49
			c-5.299-0.471-10.6-1.029-15.92-1.26c-4.379-0.18-5.65-2.221-5.289-6.42c1.6-18.23,2.969-36.48,4.49-54.721
			c1.818-21.719,3.729-43.43,5.559-65.139c0.58-6.892,2.4-8.601,9.641-7.96c10.439,0.92,20.859,2.01,31.27,3.158
			c16.85,1.861,33.68,3.972,50.541,5.661C379.644,172.491,381.292,174.011,380.942,178.271z"/>
		<path opacity="0.9" fill-rule="evenodd" clip-rule="evenodd" fill="#0093AF" d="M380.942,178.271
			c-1.189,14.59-2.26,29.191-3.299,43.791c-1.25,17.58-2.25,35.189-3.711,52.76c-0.6,7.27-2.219,14.449-3.119,21.711
			c-0.551,4.359-2.791,6.59-7.1,6.68c-4.811,0.09-9.621,0.02-14.441,0.02c0,0.141-36.119-2.859-54.18-4.49
			c-5.299-0.471-10.6-1.029-15.92-1.26c-4.379-0.18-5.65-2.221-5.289-6.42c1.6-18.23,2.969-36.48,4.49-54.721
			c1.818-21.719,3.729-43.43,5.559-65.139c0.58-6.892,2.4-8.601,9.641-7.96c10.439,0.92,20.859,2.01,31.27,3.158
			c16.85,1.861,33.68,3.972,50.541,5.661C379.644,172.491,381.292,174.011,380.942,178.271z"/>
	</g>
	<g>
		<path fill-rule="evenodd" clip-rule="evenodd" fill="#331842" d="M305.815,332.136c-4.23-0.721-8.459-1.402-12.57-2.082
			c-0.219-0.529-41.049-4.02-52.959-5.141c-7.111-0.68-14.23-1.369-21.361-1.609c-4.16-0.15-6.83,2.131-7.199,6.621
			c-1.279,15.76-2.619,31.52-3.93,47.27c-2.121,25.381-4.189,50.75-6.371,76.121c-0.58,6.689,1.141,8.59,7.82,9.049
			c16.6,1.131,33.17,2.68,49.77,3.711c12.262,0.76,24.551,0.959,36.82,1.41c3.59,0.139,5.66-1.701,6.311-5.09
			c7.84-40.91,10.781-115.25,11.381-119.42C314.546,335.896,312.735,333.315,305.815,332.136z M310.776,340.454
			c-1.191,14.59-2.26,29.191-3.301,43.791c-1.25,17.58-2.25,35.189-3.711,52.76c-0.6,7.27-2.219,14.449-3.119,21.711
			c-0.551,4.359-2.789,6.59-7.1,6.68c-4.811,0.09-9.621,0.02-14.439,0.02c0,0.141-36.121-2.859-54.182-4.49
			c-5.299-0.471-10.6-1.029-15.92-1.26c-4.379-0.18-5.648-2.221-5.289-6.42c1.6-18.23,2.971-36.48,4.49-54.721
			c1.82-21.719,3.73-43.43,5.559-65.139c0.58-6.893,2.4-8.602,9.641-7.961c10.439,0.92,20.859,2.01,31.27,3.158
			c16.852,1.861,33.682,3.973,50.541,5.662C309.476,334.675,311.126,336.194,310.776,340.454z"/>
		<path opacity="0.9" fill-rule="evenodd" clip-rule="evenodd" fill="#0093AF" d="M310.776,340.454
			c-1.191,14.59-2.26,29.191-3.301,43.791c-1.25,17.58-2.25,35.189-3.711,52.76c-0.6,7.27-2.219,14.449-3.119,21.711
			c-0.551,4.359-2.789,6.59-7.1,6.68c-4.811,0.09-9.621,0.02-14.439,0.02c0,0.141-36.121-2.859-54.182-4.49
			c-5.299-0.471-10.6-1.029-15.92-1.26c-4.379-0.18-5.648-2.221-5.289-6.42c1.6-18.23,2.971-36.48,4.49-54.721
			c1.82-21.719,3.73-43.43,5.559-65.139c0.58-6.893,2.4-8.602,9.641-7.961c10.439,0.92,20.859,2.01,31.27,3.158
			c16.852,1.861,33.682,3.973,50.541,5.662C309.476,334.675,311.126,336.194,310.776,340.454z"/>
	</g>
	<g>
		<path fill-rule="evenodd" clip-rule="evenodd" fill="#331842" d="M240.239,169.952c-4.23-0.721-8.461-1.401-12.57-2.081
			c-0.221-0.529-41.051-4.02-52.961-5.141c-7.109-0.68-14.229-1.369-21.359-1.609c-4.16-0.15-6.83,2.131-7.199,6.621
			c-1.281,15.759-2.621,31.519-3.93,47.269c-2.121,25.381-4.191,50.75-6.371,76.121c-0.58,6.689,1.141,8.59,7.82,9.049
			c16.6,1.131,33.17,2.68,49.77,3.711c12.26,0.76,24.551,0.959,36.82,1.41c3.59,0.139,5.66-1.701,6.311-5.09
			c7.84-40.91,10.779-115.25,11.379-119.42C248.968,173.712,247.159,171.132,240.239,169.952z M245.198,178.271
			c-1.189,14.59-2.26,29.191-3.299,43.791c-1.25,17.58-2.25,35.189-3.711,52.76c-0.6,7.27-2.219,14.449-3.119,21.711
			c-0.551,4.359-2.791,6.59-7.1,6.68c-4.811,0.09-9.621,0.02-14.441,0.02c0,0.141-36.119-2.859-54.18-4.49
			c-5.299-0.471-10.6-1.029-15.92-1.26c-4.379-0.18-5.65-2.221-5.289-6.42c1.6-18.23,2.969-36.48,4.49-54.721
			c1.818-21.719,3.729-43.43,5.559-65.139c0.58-6.892,2.4-8.601,9.641-7.96c10.439,0.92,20.859,2.01,31.27,3.158
			c16.85,1.861,33.68,3.972,50.541,5.661C243.899,172.491,245.548,174.011,245.198,178.271z"/>
		<path opacity="0.9" fill-rule="evenodd" clip-rule="evenodd" fill="#0093AF" d="M245.198,178.271
			c-1.189,14.59-2.26,29.191-3.299,43.791c-1.25,17.58-2.25,35.189-3.711,52.76c-0.6,7.27-2.219,14.449-3.119,21.711
			c-0.551,4.359-2.791,6.59-7.1,6.68c-4.811,0.09-9.621,0.02-14.441,0.02c0,0.141-36.119-2.859-54.18-4.49
			c-5.299-0.471-10.6-1.029-15.92-1.26c-4.379-0.18-5.65-2.221-5.289-6.42c1.6-18.23,2.969-36.48,4.49-54.721
			c1.818-21.719,3.729-43.43,5.559-65.139c0.58-6.892,2.4-8.601,9.641-7.96c10.439,0.92,20.859,2.01,31.27,3.158
			c16.85,1.861,33.68,3.972,50.541,5.661C243.899,172.491,245.548,174.011,245.198,178.271z"/>
	</g>
	<g>
		<path fill-rule="evenodd" clip-rule="evenodd" fill="#331842" d="M306.595,8.837c-4.23-0.721-8.461-1.4-12.57-2.08
			c-0.221-0.529-41.051-4.02-52.961-5.141c-7.109-0.68-14.229-1.369-21.359-1.609c-4.16-0.15-6.83,2.131-7.199,6.621
			c-1.281,15.76-2.621,31.52-3.93,47.27c-2.121,25.379-4.191,50.75-6.371,76.119c-0.58,6.689,1.141,8.59,7.82,9.051
			c16.6,1.129,33.17,2.68,49.77,3.709c12.26,0.76,24.551,0.961,36.82,1.41c3.59,0.141,5.66-1.699,6.311-5.09
			c7.84-40.91,10.779-115.25,11.379-119.42C315.323,12.597,313.515,10.017,306.595,8.837z M311.554,17.157
			c-1.189,14.59-2.26,29.189-3.299,43.789c-1.25,17.58-2.25,35.191-3.711,52.76c-0.6,7.271-2.219,14.451-3.119,21.711
			c-0.551,4.359-2.791,6.59-7.1,6.68c-4.811,0.09-9.621,0.02-14.441,0.02c0,0.141-36.119-2.859-54.18-4.488
			c-5.299-0.471-10.6-1.031-15.92-1.262c-4.379-0.18-5.65-2.219-5.289-6.42c1.6-18.229,2.969-36.479,4.49-54.719
			c1.818-21.721,3.729-43.43,5.559-65.141c0.58-6.891,2.4-8.6,9.641-7.959c10.439,0.92,20.859,2.01,31.27,3.158
			c16.85,1.861,33.68,3.971,50.541,5.66C310.255,11.378,311.903,12.897,311.554,17.157z"/>
		<path opacity="0.9" fill-rule="evenodd" clip-rule="evenodd" fill="#0093AF" d="M311.554,17.157
			c-1.189,14.59-2.26,29.189-3.299,43.789c-1.25,17.58-2.25,35.191-3.711,52.76c-0.6,7.271-2.219,14.451-3.119,21.711
			c-0.551,4.359-2.791,6.59-7.1,6.68c-4.811,0.09-9.621,0.02-14.441,0.02c0,0.141-36.119-2.859-54.18-4.488
			c-5.299-0.471-10.6-1.031-15.92-1.262c-4.379-0.18-5.65-2.219-5.289-6.42c1.6-18.229,2.969-36.479,4.49-54.719
			c1.818-21.721,3.729-43.43,5.559-65.141c0.58-6.891,2.4-8.6,9.641-7.959c10.439,0.92,20.859,2.01,31.27,3.158
			c16.85,1.861,33.68,3.971,50.541,5.66C310.255,11.378,311.903,12.897,311.554,17.157z"/>
	</g>
	<g>
		<path fill-rule="evenodd" clip-rule="evenodd" fill="#331842" d="M104.495,169.952c-4.23-0.721-8.459-1.4-12.57-2.08
			c-0.219-0.531-41.049-4.021-52.959-5.141c-7.111-0.68-14.23-1.371-21.361-1.609c-4.16-0.15-6.83,2.129-7.199,6.619
			c-1.279,15.76-2.619,31.52-3.93,47.27c-2.121,25.381-4.189,50.75-6.371,76.119c-0.58,6.689,1.141,8.59,7.82,9.051
			c16.6,1.129,33.17,2.68,49.77,3.709c12.262,0.76,24.551,0.961,36.82,1.41c3.59,0.141,5.66-1.699,6.311-5.09
			c7.84-40.908,10.781-115.248,11.381-119.418C113.226,173.712,111.415,171.132,104.495,169.952z M109.456,178.271
			c-1.191,14.59-2.26,29.191-3.301,43.791c-1.25,17.58-2.25,35.189-3.711,52.76c-0.6,7.27-2.219,14.449-3.119,21.709
			c-0.551,4.359-2.789,6.59-7.1,6.68c-4.811,0.09-9.621,0.02-14.439,0.02c0,0.141-36.121-2.859-54.182-4.488
			c-5.299-0.471-10.6-1.031-15.92-1.262c-4.379-0.18-5.648-2.219-5.289-6.42c1.6-18.229,2.971-36.479,4.49-54.719
			c1.82-21.719,3.73-43.43,5.559-65.139c0.58-6.891,2.4-8.602,9.641-7.961c10.439,0.92,20.859,2.01,31.27,3.16
			c16.852,1.859,33.682,3.971,50.541,5.66C108.155,172.491,109.806,174.011,109.456,178.271z"/>
		<path opacity="0.9" fill-rule="evenodd" clip-rule="evenodd" fill="#0093AF" d="M109.456,178.271
			c-1.191,14.59-2.26,29.191-3.301,43.791c-1.25,17.58-2.25,35.189-3.711,52.76c-0.6,7.27-2.219,14.449-3.119,21.709
			c-0.551,4.359-2.789,6.59-7.1,6.68c-4.811,0.09-9.621,0.02-14.439,0.02c0,0.141-36.121-2.859-54.182-4.488
			c-5.299-0.471-10.6-1.031-15.92-1.262c-4.379-0.18-5.648-2.219-5.289-6.42c1.6-18.229,2.971-36.479,4.49-54.719
			c1.82-21.719,3.73-43.43,5.559-65.139c0.58-6.891,2.4-8.602,9.641-7.961c10.439,0.92,20.859,2.01,31.27,3.16
			c16.852,1.859,33.682,3.971,50.541,5.66C108.155,172.491,109.806,174.011,109.456,178.271z"/>
	</g>
	<g>
		<path fill-rule="evenodd" clip-rule="evenodd" fill="#331842" d="M171.593,332.136c-4.23-0.721-8.461-1.402-12.57-2.082
			c-0.221-0.529-41.051-4.02-52.961-5.141c-7.109-0.68-14.229-1.369-21.359-1.609c-4.16-0.15-6.83,2.131-7.199,6.621
			c-1.281,15.76-2.621,31.52-3.93,47.27c-2.121,25.381-4.191,50.75-6.371,76.121c-0.58,6.689,1.141,8.59,7.82,9.049
			c16.6,1.131,33.17,2.68,49.77,3.711c12.26,0.76,24.551,0.959,36.82,1.41c3.59,0.139,5.66-1.701,6.311-5.09
			c7.84-40.91,10.779-115.25,11.379-119.42C180.321,335.896,178.513,333.315,171.593,332.136z M176.552,340.454
			c-1.189,14.59-2.26,29.191-3.299,43.791c-1.25,17.58-2.25,35.189-3.711,52.76c-0.6,7.27-2.219,14.449-3.119,21.711
			c-0.551,4.359-2.791,6.59-7.1,6.68c-4.811,0.09-9.621,0.02-14.441,0.02c0,0.141-36.119-2.859-54.18-4.49
			c-5.299-0.471-10.6-1.029-15.92-1.26c-4.379-0.18-5.65-2.221-5.289-6.42c1.6-18.23,2.969-36.48,4.49-54.721
			c1.818-21.719,3.729-43.43,5.559-65.139c0.58-6.893,2.4-8.602,9.641-7.961c10.439,0.92,20.859,2.01,31.27,3.158
			c16.85,1.861,33.68,3.973,50.541,5.662C175.253,334.675,176.901,336.194,176.552,340.454z"/>
		<path opacity="0.9" fill-rule="evenodd" clip-rule="evenodd" fill="#0093AF" d="M176.552,340.454
			c-1.189,14.59-2.26,29.191-3.299,43.791c-1.25,17.58-2.25,35.189-3.711,52.76c-0.6,7.27-2.219,14.449-3.119,21.711
			c-0.551,4.359-2.791,6.59-7.1,6.68c-4.811,0.09-9.621,0.02-14.441,0.02c0,0.141-36.119-2.859-54.18-4.49
			c-5.299-0.471-10.6-1.029-15.92-1.26c-4.379-0.18-5.65-2.221-5.289-6.42c1.6-18.23,2.969-36.48,4.49-54.721
			c1.818-21.719,3.729-43.43,5.559-65.139c0.58-6.893,2.4-8.602,9.641-7.961c10.439,0.92,20.859,2.01,31.27,3.158
			c16.85,1.861,33.68,3.973,50.541,5.662C175.253,334.675,176.901,336.194,176.552,340.454z"/>
	</g>
	<g>
		<path fill-rule="evenodd" clip-rule="evenodd" fill="#331842" d="M167.769,8.837c-4.229-0.721-8.459-1.4-12.57-2.08
			c-0.219-0.529-41.049-4.02-52.959-5.141c-7.109-0.68-14.23-1.369-21.359-1.609c-4.16-0.15-6.83,2.131-7.201,6.621
			c-1.279,15.76-2.619,31.52-3.93,47.27c-2.119,25.379-4.189,50.75-6.369,76.119c-0.58,6.689,1.139,8.59,7.818,9.051
			c16.602,1.129,33.172,2.68,49.771,3.709c12.26,0.76,24.549,0.961,36.82,1.41c3.59,0.141,5.658-1.699,6.309-5.09
			c7.84-40.91,10.781-115.25,11.381-119.42C176.499,12.597,174.688,10.017,167.769,8.837z M172.729,17.157
			c-1.191,14.59-2.26,29.189-3.301,43.789c-1.25,17.58-2.25,35.191-3.709,52.76c-0.6,7.271-2.221,14.451-3.121,21.711
			c-0.549,4.359-2.789,6.59-7.1,6.68c-4.811,0.09-9.619,0.02-14.439,0.02c0,0.141-36.121-2.859-54.18-4.488
			c-5.301-0.471-10.602-1.031-15.92-1.262c-4.381-0.18-5.65-2.219-5.291-6.42c1.6-18.229,2.971-36.479,4.49-54.719
			c1.82-21.721,3.73-43.43,5.561-65.141c0.58-6.891,2.4-8.6,9.639-7.959c10.441,0.92,20.861,2.01,31.271,3.158
			c16.85,1.861,33.68,3.971,50.539,5.66C171.429,11.378,173.079,12.897,172.729,17.157z"/>
		<path opacity="0.9" fill-rule="evenodd" clip-rule="evenodd" fill="#0093AF" d="M172.729,17.157
			c-1.191,14.59-2.26,29.189-3.301,43.789c-1.25,17.58-2.25,35.191-3.709,52.76c-0.6,7.271-2.221,14.451-3.121,21.711
			c-0.549,4.359-2.789,6.59-7.1,6.68c-4.811,0.09-9.619,0.02-14.439,0.02c0,0.141-36.121-2.859-54.18-4.488
			c-5.301-0.471-10.602-1.031-15.92-1.262c-4.381-0.18-5.65-2.219-5.291-6.42c1.6-18.229,2.971-36.479,4.49-54.719
			c1.82-21.721,3.73-43.43,5.561-65.141c0.58-6.891,2.4-8.6,9.639-7.959c10.441,0.92,20.861,2.01,31.271,3.158
			c16.85,1.861,33.68,3.971,50.539,5.66C171.429,11.378,173.079,12.897,172.729,17.157z"/>
	</g>
</g>
</svg>
