<?xml version="1.0" encoding="utf-8"?>
<!-- Generator: Adobe Illustrator 16.0.0, SVG Export Plug-In . SVG Version: 6.00 Build 0)  -->
<!DOCTYPE svg PUBLIC "-//W3C//DTD SVG 1.1//EN" "http://www.w3.org/Graphics/SVG/1.1/DTD/svg11.dtd">
<svg version="1.1" id="Capa_1" xmlns="http://www.w3.org/2000/svg" xmlns:xlink="http://www.w3.org/1999/xlink" x="0px" y="0px"
	 width="954.482px" height="323.797px" viewBox="0 0 954.482 323.797" enable-background="new 0 0 954.482 323.797"
	 xml:space="preserve">
<g>
	<g opacity="0.9">
		<path fill="#A0C219" d="M701.816,89.693c-2.463-3.546-5.113-7.249-8.363-11.688c0.771-1.364,1.586-2.708,2.445-4.121l0.158-0.261
			c0.406-0.667,0.832-1.322,1.258-1.979c0.941-1.448,1.914-2.945,2.75-4.612c1.109-2.206,1.074-4.562-0.098-6.464
			c-1.342-2.177-3.994-3.319-6.881-2.901c-0.848,0.122-1.545,0.354-2.174,0.574c-2.77,0.968-6.553,2.635-9.334,6.264
			c-0.02-0.026-0.039-0.053-0.059-0.078c-0.799-1.062-1.625-2.158-2.562-3.245c-2.012-2.318-4.148-2.805-5.586-2.805
			c-0.969,0-1.916,0.218-2.807,0.644l-0.211,0.101c-1.918,0.915-4.092,1.952-6.025,3.521c-1.688,1.376-2.727,3.253-2.928,5.285
			c-0.209,2.141,0.518,4.339,2.049,6.191c1.004,1.214,2.049,2.358,3.059,3.464c0.498,0.546,0.996,1.091,1.494,1.649l0.826,0.923
			c0.854,0.952,1.73,1.931,2.572,2.904c-0.83,1.112-1.676,2.213-2.521,3.314c-1.092,1.421-2.182,2.842-3.238,4.278
			c-1.824,2.473-2.203,5.037-1.055,7.008c0.896,1.563,2.473,2.723,4.725,3.458c0.633,0.199,1.312,0.301,2.021,0.301
			c1.123,0,2.135-0.258,2.812-0.482c2.297-0.777,5.434-2.051,8.18-4.529c0.605,0.96,1.211,1.972,1.828,3.054
			c2.574,4.516,6.361,5.547,9.086,5.617l0.355,0.001l0.473-0.046c0.443-0.034,1.115-0.086,1.879-0.289
			c4.689-1.25,6.85-4.161,7.836-6.386c1.789-4.042-0.668-7.059-1.594-8.194C702.059,90.007,701.928,89.854,701.816,89.693z"/>
		<path fill="#A0C219" d="M701.816,145.834c-2.463-3.546-5.113-7.249-8.363-11.688c0.771-1.364,1.586-2.708,2.445-4.121l0.158-0.261
			c0.406-0.667,0.832-1.322,1.258-1.979c0.941-1.448,1.914-2.945,2.75-4.612c1.109-2.206,1.074-4.562-0.098-6.464
			c-1.342-2.178-3.994-3.319-6.881-2.901c-0.848,0.122-1.545,0.354-2.174,0.574c-2.77,0.968-6.553,2.635-9.334,6.264
			c-0.02-0.026-0.039-0.053-0.059-0.078c-0.799-1.062-1.625-2.158-2.562-3.245c-2.012-2.318-4.148-2.805-5.586-2.805
			c-0.969,0-1.916,0.218-2.807,0.644l-0.211,0.101c-1.918,0.915-4.092,1.952-6.025,3.521c-1.688,1.376-2.727,3.253-2.928,5.285
			c-0.209,2.141,0.518,4.339,2.049,6.191c1.004,1.214,2.049,2.358,3.059,3.464c0.498,0.546,0.996,1.091,1.494,1.649l0.826,0.923
			c0.854,0.952,1.73,1.931,2.572,2.904c-0.83,1.112-1.676,2.213-2.521,3.314c-1.092,1.421-2.182,2.842-3.238,4.278
			c-1.824,2.473-2.203,5.037-1.055,7.008c0.896,1.563,2.473,2.723,4.725,3.458c0.633,0.199,1.312,0.301,2.021,0.301
			c1.123,0,2.135-0.258,2.812-0.482c2.297-0.777,5.434-2.051,8.18-4.529c0.605,0.96,1.211,1.972,1.828,3.054
			c2.574,4.516,6.361,5.547,9.086,5.617l0.355,0.001l0.473-0.046c0.443-0.034,1.115-0.086,1.879-0.289
			c4.689-1.25,6.85-4.161,7.836-6.386c1.789-4.042-0.668-7.059-1.594-8.194C702.059,146.147,701.928,145.994,701.816,145.834z"/>
		<path fill="#A0C219" d="M701.816,201.975c-2.463-3.546-5.113-7.249-8.363-11.688c0.771-1.364,1.586-2.708,2.445-4.121l0.158-0.261
			c0.406-0.667,0.832-1.322,1.258-1.979c0.941-1.448,1.914-2.945,2.75-4.612c1.109-2.206,1.074-4.562-0.098-6.464
			c-1.342-2.178-3.994-3.32-6.881-2.901c-0.848,0.122-1.545,0.354-2.174,0.574c-2.77,0.968-6.553,2.635-9.334,6.264
			c-0.02-0.026-0.039-0.053-0.059-0.078c-0.799-1.062-1.625-2.158-2.562-3.245c-2.012-2.318-4.148-2.805-5.586-2.805
			c-0.969,0-1.916,0.218-2.807,0.644l-0.211,0.101c-1.918,0.915-4.092,1.952-6.025,3.521c-1.688,1.376-2.727,3.253-2.928,5.285
			c-0.209,2.141,0.518,4.339,2.049,6.191c1.004,1.214,2.049,2.358,3.059,3.464c0.498,0.546,0.996,1.091,1.494,1.649l0.826,0.923
			c0.854,0.952,1.73,1.931,2.572,2.904c-0.83,1.112-1.676,2.213-2.521,3.314c-1.092,1.421-2.182,2.842-3.238,4.278
			c-1.824,2.473-2.203,5.037-1.055,7.008c0.896,1.563,2.473,2.723,4.725,3.458c0.633,0.199,1.312,0.301,2.021,0.301
			c1.123,0,2.135-0.258,2.812-0.482c2.297-0.777,5.434-2.051,8.18-4.529c0.605,0.96,1.211,1.972,1.828,3.054
			c2.574,4.516,6.361,5.547,9.086,5.617l0.355,0.001l0.473-0.046c0.443-0.034,1.115-0.086,1.879-0.289
			c4.689-1.25,6.85-4.161,7.836-6.386c1.789-4.042-0.668-7.059-1.594-8.194C702.059,202.288,701.928,202.135,701.816,201.975z"/>
		<path fill="#A0C219" d="M701.816,258.115c-2.463-3.546-5.113-7.249-8.363-11.688c0.771-1.364,1.586-2.708,2.445-4.121l0.158-0.261
			c0.406-0.667,0.832-1.322,1.258-1.979c0.941-1.448,1.914-2.945,2.75-4.612c1.109-2.206,1.074-4.562-0.098-6.464
			c-1.342-2.178-3.994-3.321-6.881-2.901c-0.848,0.122-1.545,0.354-2.174,0.574c-2.77,0.968-6.553,2.635-9.334,6.264
			c-0.02-0.026-0.039-0.053-0.059-0.078c-0.799-1.062-1.625-2.158-2.562-3.245c-2.012-2.318-4.148-2.805-5.586-2.805
			c-0.969,0-1.916,0.218-2.807,0.644l-0.211,0.101c-1.918,0.915-4.092,1.952-6.025,3.521c-1.688,1.376-2.727,3.253-2.928,5.285
			c-0.209,2.141,0.518,4.339,2.049,6.191c1.004,1.214,2.049,2.358,3.059,3.464c0.498,0.546,0.996,1.091,1.494,1.649l0.826,0.923
			c0.854,0.952,1.73,1.931,2.572,2.904c-0.83,1.112-1.676,2.213-2.521,3.314c-1.092,1.421-2.182,2.842-3.238,4.278
			c-1.824,2.473-2.203,5.037-1.055,7.008c0.896,1.563,2.473,2.723,4.725,3.458c0.633,0.199,1.312,0.301,2.021,0.301
			c1.123,0,2.135-0.258,2.812-0.482c2.297-0.777,5.434-2.051,8.18-4.529c0.605,0.96,1.211,1.972,1.828,3.054
			c2.574,4.516,6.361,5.547,9.086,5.617l0.355,0.001l0.473-0.046c0.443-0.034,1.115-0.086,1.879-0.289
			c4.689-1.25,6.85-4.161,7.836-6.386c1.789-4.042-0.668-7.059-1.594-8.194C702.059,258.429,701.928,258.275,701.816,258.115z"/>
		<path fill="#A0C219" d="M721.508,105.381c0.498,0.546,0.996,1.091,1.494,1.649l0.826,0.923c0.854,0.952,1.73,1.931,2.572,2.904
			c-0.83,1.112-1.676,2.213-2.521,3.314c-1.092,1.421-2.182,2.842-3.238,4.278c-1.824,2.473-2.203,5.037-1.055,7.008
			c0.896,1.563,2.473,2.723,4.725,3.458c0.633,0.199,1.312,0.301,2.021,0.301c1.123,0,2.135-0.258,2.812-0.482
			c2.297-0.777,5.434-2.051,8.18-4.529c0.605,0.96,1.211,1.972,1.828,3.054c2.574,4.516,6.361,5.547,9.086,5.617l0.355,0.001
			l0.473-0.046c0.443-0.034,1.115-0.086,1.879-0.289c4.689-1.25,6.85-4.161,7.836-6.386c1.789-4.042-0.668-7.059-1.594-8.194
			c-0.129-0.158-0.26-0.312-0.371-0.472c-2.463-3.546-5.113-7.249-8.363-11.688c0.771-1.364,1.586-2.708,2.445-4.121l0.158-0.261
			c0.406-0.667,0.832-1.322,1.258-1.979c0.941-1.448,1.914-2.945,2.75-4.612c1.109-2.206,1.074-4.562-0.098-6.464
			c-1.342-2.178-3.992-3.316-6.881-2.901c-0.848,0.122-1.545,0.354-2.174,0.574c-2.77,0.968-6.553,2.635-9.334,6.264
			c-0.02-0.026-0.039-0.053-0.059-0.078c-0.799-1.062-1.625-2.158-2.562-3.245c-2.012-2.318-4.148-2.805-5.586-2.805
			c-0.969,0-1.916,0.218-2.807,0.644l-0.211,0.101c-1.918,0.915-4.092,1.952-6.025,3.521c-1.688,1.376-2.727,3.253-2.928,5.285
			c-0.209,2.141,0.518,4.339,2.049,6.191C719.453,103.131,720.498,104.275,721.508,105.381z"/>
		<path fill="#A0C219" d="M756.816,178.357c-2.463-3.546-5.113-7.249-8.363-11.688c0.771-1.364,1.586-2.708,2.445-4.121l0.158-0.261
			c0.406-0.667,0.832-1.322,1.258-1.979c0.941-1.448,1.914-2.945,2.75-4.612c1.109-2.206,1.074-4.562-0.098-6.464
			c-1.342-2.177-3.992-3.319-6.881-2.901c-0.848,0.122-1.545,0.354-2.174,0.574c-2.77,0.968-6.553,2.635-9.334,6.264
			c-0.02-0.026-0.039-0.053-0.059-0.078c-0.799-1.062-1.625-2.158-2.562-3.245c-2.012-2.318-4.148-2.805-5.586-2.805
			c-0.969,0-1.916,0.218-2.807,0.644l-0.211,0.101c-1.918,0.915-4.092,1.952-6.025,3.521c-1.688,1.376-2.727,3.253-2.928,5.285
			c-0.209,2.141,0.518,4.339,2.049,6.191c1.004,1.214,2.049,2.358,3.059,3.464c0.498,0.546,0.996,1.091,1.494,1.649l0.826,0.923
			c0.854,0.952,1.73,1.931,2.572,2.904c-0.83,1.112-1.676,2.213-2.521,3.314c-1.092,1.421-2.182,2.842-3.238,4.278
			c-1.824,2.473-2.203,5.037-1.055,7.008c0.896,1.563,2.473,2.723,4.725,3.458c0.633,0.199,1.312,0.301,2.021,0.301
			c1.123,0,2.135-0.258,2.812-0.482c2.297-0.777,5.434-2.051,8.18-4.529c0.605,0.96,1.211,1.972,1.828,3.054
			c2.574,4.516,6.361,5.547,9.086,5.617l0.355,0.001l0.473-0.046c0.443-0.034,1.115-0.086,1.879-0.289
			c4.689-1.25,6.85-4.161,7.836-6.386c1.789-4.042-0.668-7.059-1.594-8.194C757.059,178.671,756.928,178.518,756.816,178.357z"/>
		<path fill="#A0C219" d="M756.816,233.961c-2.463-3.546-5.113-7.249-8.363-11.688c0.771-1.364,1.586-2.708,2.445-4.121l0.158-0.261
			c0.406-0.667,0.832-1.322,1.258-1.979c0.941-1.448,1.914-2.945,2.75-4.612c1.109-2.206,1.074-4.562-0.098-6.464
			c-1.342-2.178-3.992-3.316-6.881-2.901c-0.848,0.122-1.545,0.354-2.174,0.574c-2.77,0.968-6.553,2.635-9.334,6.264
			c-0.02-0.026-0.039-0.053-0.059-0.078c-0.799-1.062-1.625-2.158-2.562-3.245c-2.012-2.318-4.148-2.805-5.586-2.805
			c-0.969,0-1.916,0.218-2.807,0.644l-0.211,0.101c-1.918,0.915-4.092,1.952-6.025,3.521c-1.688,1.376-2.727,3.253-2.928,5.285
			c-0.209,2.141,0.518,4.339,2.049,6.191c1.004,1.214,2.049,2.358,3.059,3.464c0.498,0.546,0.996,1.091,1.494,1.649l0.826,0.923
			c0.854,0.952,1.73,1.931,2.572,2.904c-0.83,1.112-1.676,2.213-2.521,3.314c-1.092,1.421-2.182,2.842-3.238,4.278
			c-1.824,2.473-2.203,5.037-1.055,7.008c0.896,1.563,2.473,2.723,4.725,3.458c0.633,0.199,1.312,0.301,2.021,0.301
			c1.123,0,2.135-0.258,2.812-0.482c2.297-0.777,5.434-2.051,8.18-4.529c0.605,0.96,1.211,1.972,1.828,3.054
			c2.574,4.516,6.361,5.547,9.086,5.617l0.355,0.001l0.473-0.046c0.443-0.034,1.115-0.086,1.879-0.289
			c4.689-1.25,6.85-4.161,7.836-6.386c1.789-4.042-0.668-7.059-1.594-8.194C757.059,234.274,756.928,234.121,756.816,233.961z"/>
	</g>
	<g>
		
			<rect x="144.486" y="0.375" fill="#0093AF" stroke="#331842" stroke-width="0.75" stroke-miterlimit="10" width="447" height="39"/>
		
			<rect x="144.486" y="39.375" fill="none" stroke="#331842" stroke-width="0.75" stroke-miterlimit="10" width="447" height="40.578"/>
		
			<rect x="144.486" y="79.953" fill="none" stroke="#331842" stroke-width="0.75" stroke-miterlimit="10" width="447" height="40.578"/>
		
			<rect x="144.486" y="120.531" fill="none" stroke="#331842" stroke-width="0.75" stroke-miterlimit="10" width="447" height="40.578"/>
		
			<rect x="144.486" y="161.109" fill="none" stroke="#331842" stroke-width="0.75" stroke-miterlimit="10" width="447" height="40.578"/>
		
			<rect x="144.486" y="201.688" fill="none" stroke="#331842" stroke-width="0.75" stroke-miterlimit="10" width="447" height="40.578"/>
		
			<rect x="144.486" y="242.266" fill="none" stroke="#331842" stroke-width="0.75" stroke-miterlimit="10" width="447" height="40.578"/>
		
			<rect x="144.486" y="282.844" fill="none" stroke="#331842" stroke-width="0.75" stroke-miterlimit="10" width="447" height="40.578"/>
		<g>
			<g>
				<path fill="#F6F6F6" d="M174.129,22.559l3.363,1.066c-0.516,1.875-1.373,3.268-2.572,4.178s-2.721,1.365-4.564,1.365
					c-2.281,0-4.156-0.779-5.625-2.338s-2.203-3.689-2.203-6.393c0-2.859,0.738-5.08,2.215-6.662s3.418-2.373,5.824-2.373
					c2.102,0,3.809,0.621,5.121,1.863c0.781,0.734,1.367,1.789,1.758,3.164l-3.434,0.82c-0.203-0.891-0.627-1.594-1.271-2.109
					s-1.428-0.773-2.35-0.773c-1.273,0-2.307,0.457-3.1,1.371s-1.189,2.395-1.189,4.441c0,2.172,0.391,3.719,1.172,4.641
					s1.797,1.383,3.047,1.383c0.922,0,1.715-0.293,2.379-0.879S173.84,23.816,174.129,22.559z"/>
				<path fill="#F6F6F6" d="M180.445,28.875v-3.293h3.293v3.293H180.445z"/>
				<path fill="#F6F6F6" d="M204.797,22.559l3.363,1.066c-0.516,1.875-1.373,3.268-2.572,4.178s-2.721,1.365-4.564,1.365
					c-2.281,0-4.156-0.779-5.625-2.338s-2.203-3.689-2.203-6.393c0-2.859,0.738-5.08,2.215-6.662s3.418-2.373,5.824-2.373
					c2.102,0,3.809,0.621,5.121,1.863c0.781,0.734,1.367,1.789,1.758,3.164l-3.434,0.82c-0.203-0.891-0.627-1.594-1.271-2.109
					s-1.428-0.773-2.35-0.773c-1.273,0-2.307,0.457-3.1,1.371s-1.189,2.395-1.189,4.441c0,2.172,0.391,3.719,1.172,4.641
					s1.797,1.383,3.047,1.383c0.922,0,1.715-0.293,2.379-0.879S204.508,23.816,204.797,22.559z"/>
				<path fill="#F6F6F6" d="M226.629,28.875h-3.773l-1.5-3.902h-6.867l-1.418,3.902h-3.68l6.691-17.18h3.668L226.629,28.875z
					 M220.242,22.078l-2.367-6.375l-2.32,6.375H220.242z"/>
				<path fill="#F6F6F6" d="M230.555,28.875V14.602h-5.098v-2.906h13.652v2.906h-5.086v14.273H230.555z"/>
				<path fill="#F6F6F6" d="M241.348,28.875v-17.18h12.738v2.906h-9.27v3.809h8.625v2.895h-8.625v4.676h9.598v2.895H241.348z"/>
				<path fill="#F6F6F6" d="M265.348,22.559v-2.895h7.477v6.844c-0.727,0.703-1.779,1.322-3.158,1.857s-2.775,0.803-4.189,0.803
					c-1.797,0-3.363-0.377-4.699-1.131s-2.34-1.832-3.012-3.234s-1.008-2.928-1.008-4.576c0-1.789,0.375-3.379,1.125-4.77
					s1.848-2.457,3.293-3.199c1.102-0.57,2.473-0.855,4.113-0.855c2.133,0,3.799,0.447,4.998,1.342s1.971,2.131,2.314,3.709
					l-3.445,0.645c-0.242-0.844-0.697-1.51-1.365-1.998s-1.502-0.732-2.502-0.732c-1.516,0-2.721,0.48-3.615,1.441
					s-1.342,2.387-1.342,4.277c0,2.039,0.453,3.568,1.359,4.588s2.094,1.529,3.562,1.529c0.727,0,1.455-0.143,2.186-0.428
					s1.357-0.631,1.881-1.037v-2.18H265.348z"/>
				<path fill="#F6F6F6" d="M275.32,20.391c0-1.75,0.262-3.219,0.785-4.406c0.391-0.875,0.924-1.66,1.6-2.355
					s1.416-1.211,2.221-1.547c1.07-0.453,2.305-0.68,3.703-0.68c2.531,0,4.557,0.785,6.076,2.355s2.279,3.754,2.279,6.551
					c0,2.773-0.754,4.943-2.262,6.51s-3.523,2.35-6.047,2.35c-2.555,0-4.586-0.779-6.094-2.338S275.32,23.125,275.32,20.391z
					 M278.895,20.273c0,1.945,0.449,3.42,1.348,4.424s2.039,1.506,3.422,1.506s2.518-0.498,3.404-1.494s1.33-2.49,1.33-4.482
					c0-1.969-0.432-3.438-1.295-4.406s-2.01-1.453-3.439-1.453s-2.582,0.49-3.457,1.471S278.895,18.297,278.895,20.273z"/>
				<path fill="#F6F6F6" d="M294.703,28.875v-17.18h7.301c1.836,0,3.17,0.154,4.002,0.463s1.498,0.857,1.998,1.646
					s0.75,1.691,0.75,2.707c0,1.289-0.379,2.354-1.137,3.193s-1.891,1.369-3.398,1.588c0.75,0.438,1.369,0.918,1.857,1.441
					s1.146,1.453,1.975,2.789l2.098,3.352H306l-2.508-3.738c-0.891-1.336-1.5-2.178-1.828-2.525s-0.676-0.586-1.043-0.715
					s-0.949-0.193-1.746-0.193h-0.703v7.172H294.703z M298.172,18.961h2.566c1.664,0,2.703-0.07,3.117-0.211
					s0.738-0.383,0.973-0.727s0.352-0.773,0.352-1.289c0-0.578-0.154-1.045-0.463-1.4s-0.744-0.58-1.307-0.674
					c-0.281-0.039-1.125-0.059-2.531-0.059h-2.707V18.961z"/>
				<path fill="#F6F6F6" d="M311.52,10.711l1.617-3.504h3.691l-3.223,3.504H311.52z M311.918,28.875v-17.18h3.469v17.18H311.918z"/>
				<path fill="#F6F6F6" d="M334.184,28.875h-3.773l-1.5-3.902h-6.867l-1.418,3.902h-3.68l6.691-17.18h3.668L334.184,28.875z
					 M327.797,22.078l-2.367-6.375l-2.32,6.375H327.797z"/>
				<path fill="#F6F6F6" d="M341.789,11.695h6.34c1.43,0,2.52,0.109,3.27,0.328c1.008,0.297,1.871,0.824,2.59,1.582
					s1.266,1.686,1.641,2.783s0.562,2.451,0.562,4.061c0,1.414-0.176,2.633-0.527,3.656c-0.43,1.25-1.043,2.262-1.84,3.035
					c-0.602,0.586-1.414,1.043-2.438,1.371c-0.766,0.242-1.789,0.363-3.07,0.363h-6.527V11.695z M345.258,14.602V25.98h2.59
					c0.969,0,1.668-0.055,2.098-0.164c0.562-0.141,1.029-0.379,1.4-0.715s0.674-0.889,0.908-1.658s0.352-1.818,0.352-3.146
					s-0.117-2.348-0.352-3.059s-0.562-1.266-0.984-1.664s-0.957-0.668-1.605-0.809c-0.484-0.109-1.434-0.164-2.848-0.164H345.258z"
					/>
				<path fill="#F6F6F6" d="M359.133,28.875v-17.18h12.738v2.906h-9.27v3.809h8.625v2.895h-8.625v4.676h9.598v2.895H359.133z"/>
				<path fill="#F6F6F6" d="M381.797,11.695h6.34c1.43,0,2.52,0.109,3.27,0.328c1.008,0.297,1.871,0.824,2.59,1.582
					s1.266,1.686,1.641,2.783s0.562,2.451,0.562,4.061c0,1.414-0.176,2.633-0.527,3.656c-0.43,1.25-1.043,2.262-1.84,3.035
					c-0.602,0.586-1.414,1.043-2.438,1.371c-0.766,0.242-1.789,0.363-3.07,0.363h-6.527V11.695z M385.266,14.602V25.98h2.59
					c0.969,0,1.668-0.055,2.098-0.164c0.562-0.141,1.029-0.379,1.4-0.715s0.674-0.889,0.908-1.658s0.352-1.818,0.352-3.146
					s-0.117-2.348-0.352-3.059s-0.562-1.266-0.984-1.664s-0.957-0.668-1.605-0.809c-0.484-0.109-1.434-0.164-2.848-0.164H385.266z"
					/>
				<path fill="#F6F6F6" d="M399.035,28.875v-17.18h3.469v17.18H399.035z"/>
				<path fill="#F6F6F6" d="M404.93,23.285l3.375-0.328c0.203,1.133,0.615,1.965,1.236,2.496s1.459,0.797,2.514,0.797
					c1.117,0,1.959-0.236,2.525-0.709s0.85-1.025,0.85-1.658c0-0.406-0.119-0.752-0.357-1.037s-0.654-0.533-1.248-0.744
					c-0.406-0.141-1.332-0.391-2.777-0.75c-1.859-0.461-3.164-1.027-3.914-1.699c-1.055-0.945-1.582-2.098-1.582-3.457
					c0-0.875,0.248-1.693,0.744-2.455s1.211-1.342,2.145-1.74s2.061-0.598,3.381-0.598c2.156,0,3.779,0.473,4.869,1.418
					s1.662,2.207,1.717,3.785l-3.469,0.152c-0.148-0.883-0.467-1.518-0.955-1.904s-1.221-0.58-2.197-0.58
					c-1.008,0-1.797,0.207-2.367,0.621c-0.367,0.266-0.551,0.621-0.551,1.066c0,0.406,0.172,0.754,0.516,1.043
					c0.438,0.367,1.5,0.75,3.188,1.148s2.936,0.811,3.744,1.236s1.441,1.008,1.898,1.746s0.686,1.65,0.686,2.736
					c0,0.984-0.273,1.906-0.82,2.766s-1.32,1.498-2.32,1.916s-2.246,0.627-3.738,0.627c-2.172,0-3.84-0.502-5.004-1.506
					S405.156,25.207,404.93,23.285z"/>
				<path fill="#F6F6F6" d="M432.809,22.559l3.363,1.066c-0.516,1.875-1.373,3.268-2.572,4.178s-2.721,1.365-4.564,1.365
					c-2.281,0-4.156-0.779-5.625-2.338s-2.203-3.689-2.203-6.393c0-2.859,0.738-5.08,2.215-6.662s3.418-2.373,5.824-2.373
					c2.102,0,3.809,0.621,5.121,1.863c0.781,0.734,1.367,1.789,1.758,3.164l-3.434,0.82c-0.203-0.891-0.627-1.594-1.271-2.109
					s-1.428-0.773-2.35-0.773c-1.273,0-2.307,0.457-3.1,1.371s-1.189,2.395-1.189,4.441c0,2.172,0.391,3.719,1.172,4.641
					s1.797,1.383,3.047,1.383c0.922,0,1.715-0.293,2.379-0.879S432.52,23.816,432.809,22.559z"/>
				<path fill="#F6F6F6" d="M454.641,28.875h-3.773l-1.5-3.902H442.5l-1.418,3.902h-3.68l6.691-17.18h3.668L454.641,28.875z
					 M448.254,22.078l-2.367-6.375l-2.32,6.375H448.254z"/>
				<path fill="#F6F6F6" d="M456.48,28.875v-17.18h5.566c2.109,0,3.484,0.086,4.125,0.258c0.984,0.258,1.809,0.818,2.473,1.682
					s0.996,1.979,0.996,3.346c0,1.055-0.191,1.941-0.574,2.66s-0.869,1.283-1.459,1.693s-1.189,0.682-1.799,0.814
					c-0.828,0.164-2.027,0.246-3.598,0.246h-2.262v6.48H456.48z M459.949,14.602v4.875h1.898c1.367,0,2.281-0.09,2.742-0.27
					s0.822-0.461,1.084-0.844s0.393-0.828,0.393-1.336c0-0.625-0.184-1.141-0.551-1.547s-0.832-0.66-1.395-0.762
					c-0.414-0.078-1.246-0.117-2.496-0.117H459.949z"/>
				<path fill="#F6F6F6" d="M486.199,28.875h-3.773l-1.5-3.902h-6.867l-1.418,3.902h-3.68l6.691-17.18h3.668L486.199,28.875z
					 M479.812,22.078l-2.367-6.375l-2.32,6.375H479.812z"/>
				<path fill="#F6F6F6" d="M499.031,22.559l3.363,1.066c-0.516,1.875-1.373,3.268-2.572,4.178s-2.721,1.365-4.564,1.365
					c-2.281,0-4.156-0.779-5.625-2.338s-2.203-3.689-2.203-6.393c0-2.859,0.738-5.08,2.215-6.662s3.418-2.373,5.824-2.373
					c2.102,0,3.809,0.621,5.121,1.863c0.781,0.734,1.367,1.789,1.758,3.164l-3.434,0.82c-0.203-0.891-0.627-1.594-1.271-2.109
					s-1.428-0.773-2.35-0.773c-1.273,0-2.307,0.457-3.1,1.371s-1.189,2.395-1.189,4.441c0,2.172,0.391,3.719,1.172,4.641
					s1.797,1.383,3.047,1.383c0.922,0,1.715-0.293,2.379-0.879S498.742,23.816,499.031,22.559z"/>
				<path fill="#F6F6F6" d="M505.266,28.875v-17.18h3.469v17.18H505.266z"/>
				<path fill="#F6F6F6" d="M512.027,11.695h6.34c1.43,0,2.52,0.109,3.27,0.328c1.008,0.297,1.871,0.824,2.59,1.582
					s1.266,1.686,1.641,2.783s0.562,2.451,0.562,4.061c0,1.414-0.176,2.633-0.527,3.656c-0.43,1.25-1.043,2.262-1.84,3.035
					c-0.602,0.586-1.414,1.043-2.438,1.371c-0.766,0.242-1.789,0.363-3.07,0.363h-6.527V11.695z M515.496,14.602V25.98h2.59
					c0.969,0,1.668-0.055,2.098-0.164c0.562-0.141,1.029-0.379,1.4-0.715s0.674-0.889,0.908-1.658s0.352-1.818,0.352-3.146
					s-0.117-2.348-0.352-3.059s-0.562-1.266-0.984-1.664s-0.957-0.668-1.605-0.809c-0.484-0.109-1.434-0.164-2.848-0.164H515.496z"
					/>
				<path fill="#F6F6F6" d="M544.863,28.875h-3.773l-1.5-3.902h-6.867l-1.418,3.902h-3.68l6.691-17.18h3.668L544.863,28.875z
					 M538.477,22.078l-2.367-6.375l-2.32,6.375H538.477z"/>
				<path fill="#F6F6F6" d="M546.691,11.695h6.34c1.43,0,2.52,0.109,3.27,0.328c1.008,0.297,1.871,0.824,2.59,1.582
					s1.266,1.686,1.641,2.783s0.562,2.451,0.562,4.061c0,1.414-0.176,2.633-0.527,3.656c-0.43,1.25-1.043,2.262-1.84,3.035
					c-0.602,0.586-1.414,1.043-2.438,1.371c-0.766,0.242-1.789,0.363-3.07,0.363h-6.527V11.695z M550.16,14.602V25.98h2.59
					c0.969,0,1.668-0.055,2.098-0.164c0.562-0.141,1.029-0.379,1.4-0.715s0.674-0.889,0.908-1.658s0.352-1.818,0.352-3.146
					s-0.117-2.348-0.352-3.059s-0.562-1.266-0.984-1.664s-0.957-0.668-1.605-0.809c-0.484-0.109-1.434-0.164-2.848-0.164H550.16z"/>
			</g>
		</g>
		<g>
			<path fill="#331842" d="M201.031,65.405h-1.784v-6.723c-0.651,0.609-1.419,1.061-2.304,1.353v-1.618
				c0.466-0.152,0.972-0.441,1.517-0.867c0.547-0.425,0.921-0.921,1.124-1.488h1.447V65.405z"/>
			<path fill="#331842" d="M204.078,65.405v-1.783h1.783v1.783H204.078z"/>
			<path fill="#331842" d="M211.328,65.405V56.1h6.379v1.574h-4.5v2.202h3.885v1.574h-3.885v3.955H211.328z"/>
			<path fill="#331842" d="M219.109,57.839l0.876-1.898h2l-1.746,1.898H219.109z M219.243,65.405v-6.741h1.783v6.741H219.243z"/>
			<path fill="#331842" d="M222.227,63.481l1.79-0.272c0.076,0.347,0.23,0.61,0.464,0.79c0.232,0.18,0.559,0.27,0.977,0.27
				c0.462,0,0.809-0.084,1.041-0.254c0.157-0.118,0.235-0.276,0.235-0.476c0-0.136-0.042-0.247-0.127-0.337
				c-0.089-0.084-0.288-0.162-0.597-0.234c-1.438-0.317-2.351-0.607-2.736-0.869c-0.533-0.364-0.799-0.87-0.799-1.518
				c0-0.584,0.23-1.075,0.691-1.473s1.177-0.597,2.146-0.597c0.923,0,1.608,0.15,2.057,0.45c0.448,0.301,0.758,0.745,0.927,1.334
				l-1.682,0.311c-0.072-0.263-0.209-0.463-0.41-0.604c-0.201-0.139-0.487-0.209-0.859-0.209c-0.471,0-0.807,0.065-1.01,0.197
				c-0.136,0.093-0.203,0.213-0.203,0.361c0,0.127,0.06,0.234,0.178,0.324c0.161,0.118,0.716,0.285,1.666,0.501
				s1.613,0.48,1.99,0.794c0.372,0.316,0.559,0.759,0.559,1.326c0,0.618-0.258,1.148-0.774,1.594
				c-0.517,0.443-1.28,0.666-2.292,0.666c-0.918,0-1.645-0.187-2.18-0.559S222.392,64.121,222.227,63.481z"/>
			<path fill="#331842" d="M230.085,57.75V56.1h1.783v1.65H230.085z M230.085,65.405v-6.741h1.783v6.741H230.085z"/>
			<path fill="#331842" d="M239.574,60.657l-1.758,0.317c-0.06-0.352-0.193-0.616-0.403-0.794c-0.209-0.178-0.481-0.266-0.815-0.266
				c-0.444,0-0.799,0.153-1.063,0.46s-0.396,0.819-0.396,1.539c0,0.8,0.135,1.364,0.403,1.694s0.629,0.496,1.082,0.496
				c0.339,0,0.615-0.097,0.832-0.289c0.215-0.192,0.367-0.523,0.457-0.994l1.752,0.299c-0.183,0.804-0.531,1.411-1.048,1.822
				c-0.517,0.41-1.208,0.615-2.075,0.615c-0.986,0-1.772-0.311-2.358-0.934c-0.586-0.621-0.88-1.482-0.88-2.583
				c0-1.113,0.295-1.979,0.883-2.6s1.384-0.93,2.387-0.93c0.821,0,1.474,0.177,1.958,0.53S239.363,59.934,239.574,60.657z"/>
			<path fill="#331842" d="M242.259,60.721l-1.618-0.292c0.182-0.651,0.495-1.134,0.939-1.447s1.104-0.47,1.98-0.47
				c0.796,0,1.388,0.094,1.777,0.282s0.663,0.428,0.822,0.718c0.158,0.29,0.237,0.821,0.237,1.597l-0.019,2.082
				c0,0.592,0.028,1.029,0.086,1.311c0.057,0.281,0.164,0.583,0.32,0.904h-1.765c-0.047-0.118-0.104-0.294-0.172-0.527
				c-0.029-0.105-0.051-0.175-0.062-0.209c-0.305,0.296-0.631,0.519-0.979,0.666c-0.347,0.148-0.717,0.223-1.11,0.223
				c-0.694,0-1.241-0.188-1.641-0.564c-0.4-0.377-0.601-0.854-0.601-1.429c0-0.381,0.092-0.721,0.273-1.019
				c0.182-0.299,0.437-0.527,0.765-0.686c0.328-0.159,0.801-0.298,1.419-0.416c0.834-0.156,1.411-0.303,1.732-0.438v-0.178
				c0-0.344-0.084-0.588-0.254-0.733c-0.169-0.146-0.488-0.22-0.958-0.22c-0.317,0-0.565,0.062-0.743,0.188
				S242.369,60.407,242.259,60.721z M244.646,62.168c-0.229,0.076-0.59,0.167-1.085,0.272c-0.495,0.106-0.819,0.21-0.972,0.312
				c-0.232,0.165-0.349,0.374-0.349,0.628c0,0.25,0.093,0.466,0.279,0.648c0.187,0.182,0.423,0.272,0.711,0.272
				c0.321,0,0.628-0.105,0.921-0.317c0.215-0.161,0.357-0.357,0.425-0.59c0.047-0.152,0.069-0.442,0.069-0.87V62.168z"/>
			<path fill="#331842" d="M202.491,104.749v1.656h-6.252c0.067-0.626,0.271-1.22,0.609-1.78c0.338-0.561,1.007-1.305,2.006-2.231
				c0.804-0.749,1.297-1.257,1.479-1.523c0.245-0.368,0.368-0.732,0.368-1.092c0-0.397-0.106-0.703-0.32-0.917
				s-0.509-0.321-0.886-0.321c-0.372,0-0.669,0.112-0.889,0.337s-0.347,0.597-0.381,1.117l-1.777-0.178
				c0.105-0.981,0.438-1.687,0.996-2.114c0.559-0.427,1.258-0.641,2.096-0.641c0.918,0,1.64,0.248,2.164,0.742
				c0.524,0.496,0.787,1.111,0.787,1.848c0,0.419-0.075,0.817-0.226,1.196s-0.388,0.775-0.714,1.19
				c-0.216,0.275-0.605,0.671-1.168,1.188c-0.562,0.516-0.919,0.858-1.069,1.027c-0.15,0.17-0.272,0.335-0.365,0.496H202.491z"/>
			<path fill="#331842" d="M204.078,106.405v-1.783h1.783v1.783H204.078z"/>
			<path fill="#331842" d="M213.689,106.405l-3.326-9.306h2.037l2.355,6.888l2.278-6.888h1.993l-3.332,9.306H213.689z"/>
			<path fill="#331842" d="M219.738,98.75V97.1h1.783v1.65H219.738z M219.738,106.405v-6.741h1.783v6.741H219.738z"/>
			<path fill="#331842" d="M222.721,104.481l1.79-0.272c0.076,0.347,0.23,0.61,0.464,0.79c0.232,0.18,0.559,0.27,0.977,0.27
				c0.462,0,0.809-0.084,1.041-0.254c0.157-0.118,0.235-0.276,0.235-0.476c0-0.136-0.042-0.247-0.127-0.337
				c-0.089-0.084-0.288-0.162-0.597-0.234c-1.438-0.317-2.351-0.607-2.736-0.869c-0.533-0.364-0.799-0.87-0.799-1.518
				c0-0.584,0.23-1.075,0.691-1.473s1.177-0.597,2.146-0.597c0.923,0,1.608,0.15,2.057,0.45c0.448,0.301,0.758,0.745,0.927,1.334
				l-1.682,0.311c-0.072-0.263-0.209-0.463-0.41-0.604c-0.201-0.139-0.487-0.209-0.859-0.209c-0.471,0-0.807,0.065-1.01,0.197
				c-0.136,0.093-0.203,0.213-0.203,0.361c0,0.127,0.06,0.234,0.178,0.324c0.161,0.118,0.716,0.285,1.666,0.501
				s1.613,0.48,1.99,0.794c0.372,0.316,0.559,0.759,0.559,1.326c0,0.618-0.258,1.148-0.774,1.594
				c-0.517,0.443-1.28,0.666-2.292,0.666c-0.918,0-1.645-0.187-2.18-0.559S222.886,105.121,222.721,104.481z"/>
			<path fill="#331842" d="M235.017,106.405v-1.01c-0.245,0.36-0.568,0.644-0.968,0.852c-0.4,0.207-0.822,0.311-1.267,0.311
				c-0.453,0-0.859-0.1-1.219-0.299c-0.359-0.198-0.62-0.478-0.78-0.838c-0.161-0.359-0.242-0.856-0.242-1.491v-4.266h1.784v3.098
				c0,0.948,0.033,1.528,0.099,1.742s0.185,0.383,0.358,0.508s0.394,0.188,0.66,0.188c0.305,0,0.577-0.084,0.819-0.251
				c0.24-0.167,0.406-0.374,0.494-0.622c0.09-0.247,0.134-0.854,0.134-1.818v-2.844h1.784v6.741H235.017z"/>
			<path fill="#331842" d="M239.854,101.721l-1.618-0.292c0.182-0.651,0.495-1.134,0.939-1.447s1.104-0.47,1.98-0.47
				c0.796,0,1.388,0.094,1.777,0.282s0.663,0.428,0.822,0.718c0.158,0.29,0.237,0.821,0.237,1.597l-0.019,2.082
				c0,0.592,0.028,1.029,0.086,1.311c0.057,0.281,0.164,0.583,0.32,0.904h-1.765c-0.047-0.118-0.104-0.294-0.172-0.527
				c-0.029-0.105-0.051-0.175-0.062-0.209c-0.305,0.296-0.631,0.519-0.979,0.666c-0.347,0.148-0.717,0.223-1.11,0.223
				c-0.694,0-1.241-0.188-1.641-0.564c-0.4-0.377-0.601-0.854-0.601-1.429c0-0.381,0.092-0.721,0.273-1.019
				c0.182-0.299,0.437-0.527,0.765-0.686c0.328-0.159,0.801-0.298,1.419-0.416c0.834-0.156,1.411-0.303,1.732-0.438v-0.178
				c0-0.344-0.084-0.588-0.254-0.733c-0.169-0.146-0.488-0.22-0.958-0.22c-0.317,0-0.565,0.062-0.743,0.188
				S239.964,101.407,239.854,101.721z M242.24,103.168c-0.229,0.076-0.59,0.167-1.085,0.272c-0.495,0.106-0.819,0.21-0.972,0.312
				c-0.232,0.165-0.349,0.374-0.349,0.628c0,0.25,0.093,0.466,0.279,0.648c0.187,0.182,0.423,0.272,0.711,0.272
				c0.321,0,0.628-0.105,0.921-0.317c0.215-0.161,0.357-0.357,0.425-0.59c0.047-0.152,0.069-0.442,0.069-0.87V103.168z"/>
			<path fill="#331842" d="M245.751,106.405V97.1h1.783v9.306H245.751z"/>
			<path fill="#331842" d="M196.403,144.937l1.727-0.21c0.056,0.44,0.203,0.776,0.445,1.009c0.24,0.233,0.533,0.35,0.875,0.35
				c0.369,0,0.679-0.14,0.931-0.419s0.378-0.656,0.378-1.13c0-0.448-0.121-0.804-0.362-1.066s-0.535-0.394-0.882-0.394
				c-0.229,0-0.502,0.044-0.819,0.134l0.196-1.454c0.482,0.013,0.852-0.092,1.105-0.314c0.254-0.222,0.381-0.517,0.381-0.886
				c0-0.312-0.094-0.562-0.279-0.748c-0.187-0.187-0.435-0.279-0.743-0.279c-0.305,0-0.565,0.105-0.78,0.316
				c-0.217,0.212-0.348,0.521-0.395,0.928l-1.644-0.279c0.114-0.563,0.287-1.013,0.518-1.35c0.23-0.336,0.552-0.601,0.965-0.793
				c0.412-0.192,0.875-0.289,1.387-0.289c0.876,0,1.578,0.279,2.107,0.838c0.436,0.457,0.653,0.974,0.653,1.549
				c0,0.816-0.446,1.469-1.339,1.955c0.533,0.114,0.96,0.37,1.279,0.768c0.319,0.398,0.479,0.879,0.479,1.441
				c0,0.816-0.299,1.513-0.896,2.088c-0.597,0.576-1.339,0.863-2.228,0.863c-0.843,0-1.541-0.242-2.096-0.727
				C196.814,146.353,196.493,145.719,196.403,144.937z"/>
			<path fill="#331842" d="M204.078,147.405v-1.783h1.783v1.783H204.078z"/>
			<path fill="#331842" d="M219.225,147.405h-2.045l-0.812-2.113h-3.719l-0.769,2.113h-1.993l3.625-9.306h1.986L219.225,147.405z
				 M215.765,143.724l-1.282-3.453l-1.257,3.453H215.765z"/>
			<path fill="#331842" d="M224.645,147.405v-1.01c-0.245,0.36-0.568,0.644-0.968,0.852c-0.4,0.207-0.822,0.311-1.267,0.311
				c-0.453,0-0.859-0.1-1.219-0.299c-0.359-0.198-0.62-0.478-0.78-0.838c-0.161-0.359-0.242-0.856-0.242-1.491v-4.266h1.784v3.098
				c0,0.948,0.033,1.528,0.099,1.742s0.185,0.383,0.358,0.508s0.394,0.188,0.66,0.188c0.305,0,0.577-0.084,0.819-0.251
				c0.24-0.167,0.406-0.374,0.494-0.622c0.09-0.247,0.134-0.854,0.134-1.818v-2.844h1.784v6.741H224.645z"/>
			<path fill="#331842" d="M234.33,147.405h-1.656v-0.99c-0.275,0.385-0.6,0.672-0.975,0.86c-0.374,0.188-0.752,0.282-1.133,0.282
				c-0.774,0-1.438-0.312-1.99-0.937c-0.552-0.624-0.828-1.495-0.828-2.612c0-1.143,0.269-2.011,0.807-2.605
				c0.537-0.595,1.216-0.892,2.037-0.892c0.753,0,1.405,0.313,1.955,0.939V138.1h1.783V147.405z M229.57,143.889
				c0,0.72,0.099,1.24,0.298,1.562c0.288,0.466,0.689,0.698,1.206,0.698c0.41,0,0.76-0.175,1.047-0.523
				c0.288-0.35,0.432-0.871,0.432-1.565c0-0.773-0.139-1.331-0.418-1.672s-0.638-0.512-1.073-0.512
				c-0.423,0-0.777,0.169-1.063,0.505C229.713,142.718,229.57,143.22,229.57,143.889z"/>
			<path fill="#331842" d="M236.09,139.75v-1.65h1.783v1.65H236.09z M236.09,147.405v-6.741h1.783v6.741H236.09z"/>
			<path fill="#331842" d="M242.792,140.664v1.422h-1.219v2.717c0,0.55,0.012,0.871,0.035,0.962s0.076,0.166,0.158,0.225
				c0.083,0.06,0.184,0.09,0.302,0.09c0.165,0,0.404-0.058,0.717-0.172l0.152,1.384c-0.414,0.178-0.884,0.267-1.408,0.267
				c-0.322,0-0.612-0.054-0.87-0.162c-0.258-0.107-0.447-0.247-0.568-0.419c-0.12-0.171-0.204-0.403-0.251-0.694
				c-0.037-0.208-0.057-0.627-0.057-1.258v-2.938h-0.818v-1.422h0.818v-1.339l1.79-1.041v2.38H242.792z"/>
			<path fill="#331842" d="M244.031,139.75v-1.65h1.783v1.65H244.031z M244.031,147.405v-6.741h1.783v6.741H244.031z"/>
			<path fill="#331842" d="M249.496,147.405l-2.717-6.741h1.872l1.27,3.44l0.368,1.148c0.098-0.291,0.158-0.484,0.184-0.577
				c0.06-0.19,0.123-0.381,0.191-0.571l1.281-3.44h1.835l-2.679,6.741H249.496z"/>
			<path fill="#331842" d="M256.205,142.721l-1.618-0.292c0.182-0.651,0.495-1.134,0.939-1.447s1.104-0.47,1.98-0.47
				c0.796,0,1.388,0.094,1.777,0.282s0.663,0.428,0.822,0.718c0.158,0.29,0.237,0.821,0.237,1.597l-0.019,2.082
				c0,0.592,0.028,1.029,0.086,1.311c0.057,0.281,0.164,0.583,0.32,0.904h-1.765c-0.047-0.118-0.104-0.294-0.172-0.527
				c-0.029-0.105-0.051-0.175-0.062-0.209c-0.305,0.296-0.631,0.519-0.979,0.666c-0.347,0.148-0.717,0.223-1.11,0.223
				c-0.694,0-1.241-0.188-1.641-0.564c-0.4-0.377-0.601-0.854-0.601-1.429c0-0.381,0.092-0.721,0.273-1.019
				c0.182-0.299,0.437-0.527,0.765-0.686c0.328-0.159,0.801-0.298,1.419-0.416c0.834-0.156,1.411-0.303,1.732-0.438v-0.178
				c0-0.344-0.084-0.588-0.254-0.733c-0.169-0.146-0.488-0.22-0.958-0.22c-0.317,0-0.565,0.062-0.743,0.188
				S256.315,142.407,256.205,142.721z M258.592,144.168c-0.229,0.076-0.59,0.167-1.085,0.272c-0.495,0.106-0.819,0.21-0.972,0.312
				c-0.232,0.165-0.349,0.374-0.349,0.628c0,0.25,0.093,0.466,0.279,0.648c0.187,0.182,0.423,0.272,0.711,0.272
				c0.321,0,0.628-0.105,0.921-0.317c0.215-0.161,0.357-0.357,0.425-0.59c0.047-0.152,0.069-0.442,0.069-0.87V144.168z"/>
			<path fill="#331842" d="M199.965,188.405v-1.873h-3.809v-1.561l4.037-5.91h1.498v5.903h1.155v1.567h-1.155v1.873H199.965z
				 M199.965,184.965v-3.181l-2.14,3.181H199.965z"/>
			<path fill="#331842" d="M204.078,188.405v-1.783h1.783v1.783H204.078z"/>
			<path fill="#331842" d="M211.258,188.405V179.1h1.879v9.306H211.258z"/>
			<path fill="#331842" d="M221.045,188.405h-1.783v-3.44c0-0.728-0.038-1.198-0.114-1.412s-0.2-0.38-0.371-0.499
				c-0.172-0.118-0.378-0.178-0.619-0.178c-0.309,0-0.586,0.085-0.831,0.254c-0.246,0.17-0.414,0.395-0.505,0.674
				s-0.137,0.795-0.137,1.549v3.053H214.9v-6.741h1.657v0.99c0.588-0.762,1.329-1.143,2.222-1.143c0.394,0,0.753,0.071,1.079,0.213
				s0.572,0.322,0.739,0.542c0.167,0.221,0.284,0.471,0.35,0.75s0.098,0.679,0.098,1.199V188.405z"/>
			<path fill="#331842" d="M225.946,181.664v1.422h-1.219v2.717c0,0.55,0.012,0.871,0.035,0.962s0.076,0.166,0.158,0.225
				c0.083,0.06,0.184,0.09,0.302,0.09c0.165,0,0.404-0.058,0.717-0.172l0.152,1.384c-0.414,0.178-0.884,0.267-1.408,0.267
				c-0.322,0-0.612-0.054-0.87-0.162c-0.258-0.107-0.447-0.247-0.568-0.419c-0.12-0.171-0.204-0.403-0.251-0.694
				c-0.037-0.208-0.057-0.627-0.057-1.258v-2.938h-0.818v-1.422h0.818v-1.339l1.79-1.041v2.38H225.946z"/>
			<path fill="#331842" d="M231.087,186.26l1.777,0.298c-0.229,0.652-0.589,1.148-1.082,1.489s-1.11,0.511-1.851,0.511
				c-1.172,0-2.04-0.383-2.603-1.148c-0.444-0.614-0.667-1.389-0.667-2.324c0-1.117,0.293-1.991,0.877-2.624
				s1.322-0.949,2.215-0.949c1.003,0,1.794,0.331,2.374,0.993s0.856,1.677,0.831,3.044h-4.469c0.014,0.529,0.157,0.94,0.432,1.234
				c0.275,0.294,0.618,0.441,1.029,0.441c0.279,0,0.514-0.076,0.704-0.229S230.989,186.599,231.087,186.26z M231.188,184.457
				c-0.013-0.517-0.146-0.909-0.399-1.178s-0.563-0.403-0.928-0.403c-0.389,0-0.711,0.143-0.965,0.426s-0.378,0.669-0.374,1.155
				H231.188z"/>
			<path fill="#331842" d="M234.414,188.405V179.1h1.783v9.306H234.414z"/>
			<path fill="#331842" d="M241.929,186.26l1.777,0.298c-0.229,0.652-0.589,1.148-1.082,1.489s-1.11,0.511-1.851,0.511
				c-1.172,0-2.04-0.383-2.603-1.148c-0.444-0.614-0.667-1.389-0.667-2.324c0-1.117,0.293-1.991,0.877-2.624
				s1.322-0.949,2.215-0.949c1.003,0,1.794,0.331,2.374,0.993s0.856,1.677,0.831,3.044h-4.469c0.014,0.529,0.157,0.94,0.432,1.234
				c0.275,0.294,0.618,0.441,1.029,0.441c0.279,0,0.514-0.076,0.704-0.229S241.831,186.599,241.929,186.26z M242.03,184.457
				c-0.013-0.517-0.146-0.909-0.399-1.178s-0.563-0.403-0.928-0.403c-0.389,0-0.711,0.143-0.965,0.426s-0.378,0.669-0.374,1.155
				H242.03z"/>
			<path fill="#331842" d="M251.133,183.657l-1.758,0.317c-0.06-0.352-0.193-0.616-0.403-0.794
				c-0.209-0.178-0.481-0.266-0.815-0.266c-0.444,0-0.799,0.153-1.063,0.46s-0.396,0.819-0.396,1.539c0,0.8,0.135,1.364,0.403,1.694
				s0.629,0.496,1.082,0.496c0.339,0,0.615-0.097,0.832-0.289c0.215-0.192,0.367-0.523,0.457-0.994l1.752,0.299
				c-0.183,0.804-0.531,1.411-1.048,1.822c-0.517,0.41-1.208,0.615-2.075,0.615c-0.986,0-1.772-0.311-2.358-0.934
				c-0.586-0.621-0.88-1.482-0.88-2.583c0-1.113,0.295-1.979,0.883-2.6s1.384-0.93,2.387-0.93c0.821,0,1.474,0.177,1.958,0.53
				S250.922,182.934,251.133,183.657z"/>
			<path fill="#331842" d="M255.577,181.664v1.422h-1.219v2.717c0,0.55,0.012,0.871,0.035,0.962s0.076,0.166,0.158,0.225
				c0.083,0.06,0.184,0.09,0.302,0.09c0.165,0,0.404-0.058,0.717-0.172l0.152,1.384c-0.414,0.178-0.884,0.267-1.408,0.267
				c-0.322,0-0.612-0.054-0.87-0.162c-0.258-0.107-0.447-0.247-0.568-0.419c-0.12-0.171-0.204-0.403-0.251-0.694
				c-0.037-0.208-0.057-0.627-0.057-1.258v-2.938h-0.818v-1.422h0.818v-1.339l1.79-1.041v2.38H255.577z"/>
			<path fill="#331842" d="M261.251,188.405v-1.01c-0.245,0.36-0.568,0.644-0.968,0.852c-0.4,0.207-0.822,0.311-1.267,0.311
				c-0.453,0-0.859-0.1-1.219-0.299c-0.359-0.198-0.62-0.478-0.78-0.838c-0.161-0.359-0.242-0.856-0.242-1.491v-4.266h1.784v3.098
				c0,0.948,0.033,1.528,0.099,1.742s0.185,0.383,0.358,0.508s0.394,0.188,0.66,0.188c0.305,0,0.577-0.084,0.819-0.251
				c0.24-0.167,0.406-0.374,0.494-0.622c0.09-0.247,0.134-0.854,0.134-1.818v-2.844h1.784v6.741H261.251z"/>
			<path fill="#331842" d="M266.088,183.721l-1.618-0.292c0.182-0.651,0.495-1.134,0.939-1.447s1.104-0.47,1.98-0.47
				c0.796,0,1.388,0.094,1.777,0.282s0.663,0.428,0.822,0.718c0.158,0.29,0.237,0.821,0.237,1.597l-0.019,2.082
				c0,0.592,0.028,1.029,0.086,1.311c0.057,0.281,0.164,0.583,0.32,0.904h-1.765c-0.047-0.118-0.104-0.294-0.172-0.527
				c-0.029-0.105-0.051-0.175-0.062-0.209c-0.305,0.296-0.631,0.519-0.979,0.666c-0.347,0.148-0.717,0.223-1.11,0.223
				c-0.694,0-1.241-0.188-1.641-0.564c-0.4-0.377-0.601-0.854-0.601-1.429c0-0.381,0.092-0.721,0.273-1.019
				c0.182-0.299,0.437-0.527,0.765-0.686c0.328-0.159,0.801-0.298,1.419-0.416c0.834-0.156,1.411-0.303,1.732-0.438v-0.178
				c0-0.344-0.084-0.588-0.254-0.733c-0.169-0.146-0.488-0.22-0.958-0.22c-0.317,0-0.565,0.062-0.743,0.188
				S266.198,183.407,266.088,183.721z M268.475,185.168c-0.229,0.076-0.59,0.167-1.085,0.272c-0.495,0.106-0.819,0.21-0.972,0.312
				c-0.232,0.165-0.349,0.374-0.349,0.628c0,0.25,0.093,0.466,0.279,0.648c0.187,0.182,0.423,0.272,0.711,0.272
				c0.321,0,0.628-0.105,0.921-0.317c0.215-0.161,0.357-0.357,0.425-0.59c0.047-0.152,0.069-0.442,0.069-0.87V185.168z"/>
			<path fill="#331842" d="M271.986,188.405V179.1h1.783v9.306H271.986z"/>
			<path fill="#331842" d="M196.493,227.013l1.777-0.185c0.051,0.402,0.2,0.721,0.45,0.955c0.25,0.235,0.537,0.353,0.863,0.353
				c0.372,0,0.688-0.151,0.946-0.454c0.258-0.303,0.387-0.759,0.387-1.368c0-0.57-0.128-0.999-0.384-1.285
				c-0.256-0.285-0.59-0.428-1-0.428c-0.512,0-0.972,0.226-1.378,0.679l-1.447-0.21l0.914-4.843h4.717v1.669h-3.364l-0.279,1.581
				c0.397-0.199,0.804-0.298,1.219-0.298c0.791,0,1.462,0.287,2.013,0.863c0.55,0.575,0.824,1.322,0.824,2.24
				c0,0.766-0.222,1.449-0.666,2.051c-0.605,0.82-1.445,1.23-2.52,1.23c-0.859,0-1.56-0.23-2.102-0.691
				S196.599,227.791,196.493,227.013z"/>
			<path fill="#331842" d="M204.078,229.405v-1.783h1.783v1.783H204.078z"/>
			<path fill="#331842" d="M211.289,229.405V220.1h2.812l1.688,6.348l1.669-6.348h2.818v9.306h-1.745v-7.325l-1.847,7.325h-1.81
				l-1.841-7.325v7.325H211.289z"/>
			<path fill="#331842" d="M226.034,227.26l1.777,0.298c-0.229,0.652-0.589,1.148-1.082,1.489s-1.11,0.511-1.851,0.511
				c-1.172,0-2.04-0.383-2.603-1.148c-0.444-0.614-0.667-1.389-0.667-2.324c0-1.117,0.293-1.991,0.877-2.624
				s1.322-0.949,2.215-0.949c1.003,0,1.794,0.331,2.374,0.993s0.856,1.677,0.831,3.044h-4.469c0.014,0.529,0.157,0.94,0.432,1.234
				c0.275,0.294,0.618,0.441,1.029,0.441c0.279,0,0.514-0.076,0.704-0.229S225.937,227.599,226.034,227.26z M226.136,225.457
				c-0.013-0.517-0.146-0.909-0.399-1.178s-0.563-0.403-0.928-0.403c-0.389,0-0.711,0.143-0.965,0.426s-0.378,0.669-0.374,1.155
				H226.136z"/>
			<path fill="#331842" d="M235.492,229.405h-1.783v-3.44c0-0.728-0.038-1.198-0.114-1.412s-0.2-0.38-0.371-0.499
				c-0.172-0.118-0.378-0.178-0.619-0.178c-0.309,0-0.586,0.085-0.831,0.254c-0.246,0.17-0.414,0.395-0.505,0.674
				s-0.137,0.795-0.137,1.549v3.053h-1.784v-6.741h1.657v0.99c0.588-0.762,1.329-1.143,2.222-1.143c0.394,0,0.753,0.071,1.079,0.213
				s0.572,0.322,0.739,0.542c0.167,0.221,0.284,0.471,0.35,0.75s0.098,0.679,0.098,1.199V229.405z"/>
			<path fill="#331842" d="M240.394,222.664v1.422h-1.219v2.717c0,0.55,0.012,0.871,0.035,0.962s0.076,0.166,0.158,0.225
				c0.083,0.06,0.184,0.09,0.302,0.09c0.165,0,0.404-0.058,0.717-0.172l0.152,1.384c-0.414,0.178-0.884,0.267-1.408,0.267
				c-0.322,0-0.612-0.054-0.87-0.162c-0.258-0.107-0.447-0.247-0.568-0.419c-0.12-0.171-0.204-0.403-0.251-0.694
				c-0.037-0.208-0.057-0.627-0.057-1.258v-2.938h-0.818v-1.422h0.818v-1.339l1.79-1.041v2.38H240.394z"/>
			<path fill="#331842" d="M242.963,224.721l-1.618-0.292c0.182-0.651,0.495-1.134,0.939-1.447s1.104-0.47,1.98-0.47
				c0.796,0,1.388,0.094,1.777,0.282s0.663,0.428,0.822,0.718c0.158,0.29,0.237,0.821,0.237,1.597l-0.019,2.082
				c0,0.592,0.028,1.029,0.086,1.311c0.057,0.281,0.164,0.583,0.32,0.904h-1.765c-0.047-0.118-0.104-0.294-0.172-0.527
				c-0.029-0.105-0.051-0.175-0.062-0.209c-0.305,0.296-0.631,0.519-0.979,0.666c-0.347,0.148-0.717,0.223-1.11,0.223
				c-0.694,0-1.241-0.188-1.641-0.564c-0.4-0.377-0.601-0.854-0.601-1.429c0-0.381,0.092-0.721,0.273-1.019
				c0.182-0.299,0.437-0.527,0.765-0.686c0.328-0.159,0.801-0.298,1.419-0.416c0.834-0.156,1.411-0.303,1.732-0.438v-0.178
				c0-0.344-0.084-0.588-0.254-0.733c-0.169-0.146-0.488-0.22-0.958-0.22c-0.317,0-0.565,0.062-0.743,0.188
				S243.073,224.407,242.963,224.721z M245.35,226.168c-0.229,0.076-0.59,0.167-1.085,0.272c-0.495,0.106-0.819,0.21-0.972,0.312
				c-0.232,0.165-0.349,0.374-0.349,0.628c0,0.25,0.093,0.466,0.279,0.648c0.187,0.182,0.423,0.272,0.711,0.272
				c0.321,0,0.628-0.105,0.921-0.317c0.215-0.161,0.357-0.357,0.425-0.59c0.047-0.152,0.069-0.442,0.069-0.87V226.168z"/>
			<path fill="#331842" d="M248.861,229.405V220.1h1.783v9.306H248.861z"/>
			<path fill="#331842" d="M202.511,263.378l-1.727,0.191c-0.043-0.355-0.152-0.618-0.33-0.787c-0.178-0.17-0.409-0.254-0.692-0.254
				c-0.377,0-0.695,0.169-0.955,0.508c-0.261,0.338-0.425,1.043-0.492,2.113c0.444-0.524,0.997-0.787,1.657-0.787
				c0.744,0,1.382,0.283,1.913,0.851s0.797,1.299,0.797,2.196c0,0.952-0.279,1.716-0.838,2.291
				c-0.559,0.576-1.276,0.863-2.151,0.863c-0.939,0-1.712-0.364-2.317-1.095c-0.605-0.729-0.907-1.927-0.907-3.589
				c0-1.706,0.314-2.936,0.945-3.688s1.449-1.13,2.457-1.13c0.706,0,1.291,0.198,1.755,0.594
				C202.088,262.051,202.384,262.625,202.511,263.378z M198.467,267.27c0,0.58,0.134,1.027,0.399,1.343
				c0.268,0.315,0.572,0.473,0.914,0.473c0.33,0,0.605-0.129,0.826-0.387c0.22-0.259,0.33-0.682,0.33-1.27
				c0-0.605-0.119-1.049-0.355-1.33c-0.237-0.281-0.533-0.422-0.889-0.422c-0.344,0-0.633,0.134-0.87,0.402
				S198.467,266.745,198.467,267.27z"/>
			<path fill="#331842" d="M204.078,270.405v-1.783h1.783v1.783H204.078z"/>
			<path fill="#331842" d="M210.839,267.378l1.828-0.178c0.11,0.613,0.333,1.063,0.67,1.352c0.336,0.288,0.79,0.432,1.361,0.432
				c0.605,0,1.062-0.128,1.368-0.384s0.46-0.556,0.46-0.898c0-0.22-0.064-0.407-0.193-0.562s-0.354-0.289-0.677-0.403
				c-0.22-0.076-0.721-0.212-1.504-0.406c-1.007-0.25-1.714-0.557-2.12-0.921c-0.571-0.512-0.856-1.136-0.856-1.872
				c0-0.474,0.134-0.917,0.402-1.33c0.269-0.412,0.656-0.727,1.162-0.942s1.116-0.324,1.831-0.324c1.168,0,2.047,0.257,2.638,0.769
				c0.59,0.512,0.9,1.195,0.93,2.05l-1.879,0.083c-0.08-0.479-0.253-0.822-0.518-1.031c-0.265-0.21-0.661-0.314-1.189-0.314
				c-0.547,0-0.974,0.112-1.283,0.337c-0.198,0.144-0.298,0.336-0.298,0.577c0,0.22,0.093,0.408,0.279,0.565
				c0.237,0.198,0.812,0.406,1.727,0.621c0.914,0.217,1.59,0.439,2.028,0.67c0.438,0.23,0.78,0.546,1.028,0.946
				c0.247,0.399,0.371,0.894,0.371,1.481c0,0.533-0.148,1.033-0.444,1.498c-0.296,0.466-0.715,0.812-1.257,1.038
				s-1.217,0.34-2.024,0.34c-1.177,0-2.08-0.271-2.711-0.815S210.962,268.419,210.839,267.378z"/>
			<path fill="#331842" d="M219.56,266.939c0-0.593,0.146-1.166,0.438-1.72c0.291-0.555,0.705-0.979,1.24-1.27
				c0.535-0.293,1.133-0.438,1.793-0.438c1.021,0,1.856,0.331,2.508,0.993s0.978,1.499,0.978,2.511c0,1.02-0.329,1.865-0.987,2.536
				s-1.486,1.006-2.484,1.006c-0.618,0-1.208-0.14-1.769-0.419s-0.987-0.688-1.278-1.229
				C219.705,268.371,219.56,267.714,219.56,266.939z M221.388,267.034c0,0.669,0.159,1.182,0.476,1.537
				c0.318,0.355,0.709,0.533,1.175,0.533s0.855-0.178,1.171-0.533s0.473-0.872,0.473-1.549c0-0.66-0.157-1.168-0.473-1.523
				s-0.705-0.533-1.171-0.533s-0.856,0.178-1.175,0.533C221.547,265.854,221.388,266.366,221.388,267.034z"/>
			<path fill="#331842" d="M229.621,270.405h-1.783v-6.741h1.656v0.958c0.283-0.452,0.538-0.751,0.765-0.895
				s0.483-0.216,0.771-0.216c0.406,0,0.798,0.112,1.175,0.337l-0.553,1.555c-0.301-0.194-0.58-0.292-0.838-0.292
				c-0.25,0-0.461,0.068-0.635,0.206s-0.31,0.387-0.409,0.746s-0.149,1.113-0.149,2.26V270.405z"/>
			<path fill="#331842" d="M239.154,270.405h-1.656v-0.99c-0.275,0.385-0.6,0.672-0.975,0.86c-0.374,0.188-0.752,0.282-1.133,0.282
				c-0.774,0-1.438-0.312-1.99-0.937c-0.552-0.624-0.828-1.495-0.828-2.612c0-1.143,0.269-2.011,0.807-2.605
				c0.537-0.595,1.216-0.892,2.037-0.892c0.753,0,1.405,0.313,1.955,0.939V261.1h1.783V270.405z M234.395,266.889
				c0,0.72,0.099,1.24,0.298,1.562c0.288,0.466,0.689,0.698,1.206,0.698c0.41,0,0.76-0.175,1.047-0.523
				c0.288-0.35,0.432-0.871,0.432-1.565c0-0.773-0.139-1.331-0.418-1.672s-0.638-0.512-1.073-0.512
				c-0.423,0-0.777,0.169-1.063,0.505C234.537,265.718,234.395,266.22,234.395,266.889z"/>
			<path fill="#331842" d="M240.501,266.939c0-0.593,0.146-1.166,0.438-1.72c0.291-0.555,0.705-0.979,1.24-1.27
				c0.535-0.293,1.133-0.438,1.793-0.438c1.021,0,1.856,0.331,2.508,0.993s0.978,1.499,0.978,2.511c0,1.02-0.329,1.865-0.987,2.536
				s-1.486,1.006-2.484,1.006c-0.618,0-1.208-0.14-1.769-0.419s-0.987-0.688-1.278-1.229
				C240.646,268.371,240.501,267.714,240.501,266.939z M242.329,267.034c0,0.669,0.159,1.182,0.476,1.537
				c0.318,0.355,0.709,0.533,1.175,0.533s0.855-0.178,1.171-0.533s0.473-0.872,0.473-1.549c0-0.66-0.157-1.168-0.473-1.523
				s-0.705-0.533-1.171-0.533s-0.856,0.178-1.175,0.533C242.488,265.854,242.329,266.366,242.329,267.034z"/>
			<path fill="#331842" d="M254.822,266.983l1.821,0.578c-0.279,1.016-0.744,1.77-1.394,2.263s-1.474,0.739-2.473,0.739
				c-1.235,0-2.251-0.422-3.047-1.266c-0.795-0.845-1.193-1.999-1.193-3.463c0-1.549,0.4-2.752,1.2-3.608
				c0.8-0.857,1.852-1.286,3.155-1.286c1.138,0,2.062,0.337,2.773,1.01c0.423,0.397,0.74,0.969,0.952,1.714l-1.86,0.444
				c-0.109-0.482-0.339-0.863-0.688-1.143c-0.349-0.279-0.773-0.419-1.272-0.419c-0.689,0-1.249,0.247-1.679,0.743
				c-0.43,0.494-0.645,1.297-0.645,2.405c0,1.177,0.212,2.015,0.635,2.514s0.974,0.749,1.65,0.749c0.499,0,0.929-0.158,1.288-0.477
				C254.407,268.165,254.665,267.665,254.822,266.983z"/>
			<path fill="#331842" d="M262.146,268.26l1.777,0.298c-0.229,0.652-0.589,1.148-1.082,1.489s-1.11,0.511-1.851,0.511
				c-1.172,0-2.04-0.383-2.603-1.148c-0.444-0.614-0.667-1.389-0.667-2.324c0-1.117,0.293-1.991,0.877-2.624
				s1.322-0.949,2.215-0.949c1.003,0,1.794,0.331,2.374,0.993s0.856,1.677,0.831,3.044h-4.469c0.014,0.529,0.157,0.94,0.432,1.234
				c0.275,0.294,0.618,0.441,1.029,0.441c0.279,0,0.514-0.076,0.704-0.229S262.049,268.599,262.146,268.26z M262.248,266.457
				c-0.013-0.517-0.146-0.909-0.399-1.178s-0.563-0.403-0.928-0.403c-0.389,0-0.711,0.143-0.965,0.426s-0.378,0.669-0.374,1.155
				H262.248z"/>
			<path fill="#331842" d="M265.307,270.85l2.038,0.247c0.034,0.237,0.112,0.4,0.235,0.489c0.169,0.127,0.436,0.19,0.799,0.19
				c0.466,0,0.815-0.07,1.048-0.209c0.156-0.094,0.275-0.244,0.355-0.451c0.055-0.148,0.083-0.421,0.083-0.818v-0.984
				c-0.533,0.728-1.207,1.092-2.02,1.092c-0.905,0-1.622-0.383-2.151-1.148c-0.415-0.605-0.622-1.359-0.622-2.26
				c0-1.131,0.271-1.994,0.815-2.59c0.544-0.598,1.22-0.896,2.028-0.896c0.834,0,1.521,0.366,2.062,1.099v-0.946h1.67v6.05
				c0,0.795-0.065,1.39-0.197,1.783c-0.131,0.394-0.314,0.702-0.552,0.927s-0.554,0.399-0.949,0.526s-0.896,0.191-1.501,0.191
				c-1.143,0-1.953-0.196-2.432-0.588c-0.478-0.392-0.717-0.888-0.717-1.488C265.301,271.006,265.303,270.935,265.307,270.85z
				 M266.9,266.896c0,0.715,0.139,1.238,0.416,1.57s0.619,0.498,1.025,0.498c0.436,0,0.804-0.17,1.104-0.511
				c0.301-0.341,0.451-0.845,0.451-1.514c0-0.698-0.144-1.217-0.432-1.556c-0.288-0.338-0.651-0.508-1.092-0.508
				c-0.428,0-0.779,0.167-1.057,0.499S266.9,266.214,266.9,266.896z"/>
			<path fill="#331842" d="M277.851,270.405v-1.01c-0.245,0.36-0.568,0.644-0.968,0.852c-0.4,0.207-0.822,0.311-1.267,0.311
				c-0.453,0-0.859-0.1-1.219-0.299c-0.359-0.198-0.62-0.478-0.78-0.838c-0.161-0.359-0.242-0.856-0.242-1.491v-4.266h1.784v3.098
				c0,0.948,0.033,1.528,0.099,1.742s0.185,0.383,0.358,0.508s0.394,0.188,0.66,0.188c0.305,0,0.577-0.084,0.819-0.251
				c0.24-0.167,0.406-0.374,0.494-0.622c0.09-0.247,0.134-0.854,0.134-1.818v-2.844h1.784v6.741H277.851z"/>
			<path fill="#331842" d="M285.259,268.26l1.777,0.298c-0.229,0.652-0.589,1.148-1.082,1.489s-1.11,0.511-1.851,0.511
				c-1.172,0-2.04-0.383-2.603-1.148c-0.444-0.614-0.667-1.389-0.667-2.324c0-1.117,0.293-1.991,0.877-2.624
				s1.322-0.949,2.215-0.949c1.003,0,1.794,0.331,2.374,0.993s0.856,1.677,0.831,3.044h-4.469c0.014,0.529,0.157,0.94,0.432,1.234
				c0.275,0.294,0.618,0.441,1.029,0.441c0.279,0,0.514-0.076,0.704-0.229S285.161,268.599,285.259,268.26z M285.36,266.457
				c-0.013-0.517-0.146-0.909-0.399-1.178s-0.563-0.403-0.928-0.403c-0.389,0-0.711,0.143-0.965,0.426s-0.378,0.669-0.374,1.155
				H285.36z"/>
			<path fill="#331842" d="M290.292,270.405h-1.783v-6.741h1.656v0.958c0.283-0.452,0.538-0.751,0.765-0.895
				s0.483-0.216,0.771-0.216c0.406,0,0.798,0.112,1.175,0.337l-0.553,1.555c-0.301-0.194-0.58-0.292-0.838-0.292
				c-0.25,0-0.461,0.068-0.635,0.206s-0.31,0.387-0.409,0.746s-0.149,1.113-0.149,2.26V270.405z"/>
			<path fill="#331842" d="M294.977,265.721l-1.618-0.292c0.182-0.651,0.495-1.134,0.939-1.447s1.104-0.47,1.98-0.47
				c0.796,0,1.388,0.094,1.777,0.282s0.663,0.428,0.822,0.718c0.158,0.29,0.237,0.821,0.237,1.597l-0.019,2.082
				c0,0.592,0.028,1.029,0.086,1.311c0.057,0.281,0.164,0.583,0.32,0.904h-1.765c-0.047-0.118-0.104-0.294-0.172-0.527
				c-0.029-0.105-0.051-0.175-0.062-0.209c-0.305,0.296-0.631,0.519-0.979,0.666c-0.347,0.148-0.717,0.223-1.11,0.223
				c-0.694,0-1.241-0.188-1.641-0.564c-0.4-0.377-0.601-0.854-0.601-1.429c0-0.381,0.092-0.721,0.273-1.019
				c0.182-0.299,0.437-0.527,0.765-0.686c0.328-0.159,0.801-0.298,1.419-0.416c0.834-0.156,1.411-0.303,1.732-0.438v-0.178
				c0-0.344-0.084-0.588-0.254-0.733c-0.169-0.146-0.488-0.22-0.958-0.22c-0.317,0-0.565,0.062-0.743,0.188
				S295.087,265.407,294.977,265.721z M297.363,267.168c-0.229,0.076-0.59,0.167-1.085,0.272c-0.495,0.106-0.819,0.21-0.972,0.312
				c-0.232,0.165-0.349,0.374-0.349,0.628c0,0.25,0.093,0.466,0.279,0.648c0.187,0.182,0.423,0.272,0.711,0.272
				c0.321,0,0.628-0.105,0.921-0.317c0.215-0.161,0.357-0.357,0.425-0.59c0.047-0.152,0.069-0.442,0.069-0.87V267.168z"/>
			<path fill="#331842" d="M196.468,303.884v-1.657h6.1v1.295c-0.504,0.495-1.016,1.206-1.536,2.133s-0.917,1.912-1.19,2.955
				c-0.272,1.043-0.407,1.975-0.402,2.796h-1.721c0.029-1.286,0.295-2.599,0.797-3.936c0.501-1.337,1.171-2.533,2.009-3.586H196.468
				z"/>
			<path fill="#331842" d="M204.078,311.405v-1.783h1.783v1.783H204.078z"/>
			<path fill="#331842" d="M211.289,311.405V302.1h2.812l1.688,6.348l1.669-6.348h2.818v9.306h-1.745v-7.325l-1.847,7.325h-1.81
				l-1.841-7.325v7.325H211.289z"/>
			<path fill="#331842" d="M226.567,311.405v-1.01c-0.245,0.36-0.568,0.644-0.968,0.852c-0.4,0.207-0.822,0.311-1.267,0.311
				c-0.453,0-0.859-0.1-1.219-0.299c-0.359-0.198-0.62-0.478-0.78-0.838c-0.161-0.359-0.242-0.856-0.242-1.491v-4.266h1.784v3.098
				c0,0.948,0.033,1.528,0.099,1.742s0.185,0.383,0.358,0.508s0.394,0.188,0.66,0.188c0.305,0,0.577-0.084,0.819-0.251
				c0.24-0.167,0.406-0.374,0.494-0.622c0.09-0.247,0.134-0.854,0.134-1.818v-2.844h1.784v6.741H226.567z M224.257,303.839
				l0.876-1.898h2l-1.746,1.898H224.257z"/>
			<path fill="#331842" d="M230.072,311.405V302.1h1.783v9.306H230.072z"/>
			<path fill="#331842" d="M236.774,304.664v1.422h-1.219v2.717c0,0.55,0.012,0.871,0.035,0.962s0.076,0.166,0.158,0.225
				c0.083,0.06,0.184,0.09,0.302,0.09c0.165,0,0.404-0.058,0.717-0.172l0.152,1.384c-0.414,0.178-0.884,0.267-1.408,0.267
				c-0.322,0-0.612-0.054-0.87-0.162c-0.258-0.107-0.447-0.247-0.568-0.419c-0.12-0.171-0.204-0.403-0.251-0.694
				c-0.037-0.208-0.057-0.627-0.057-1.258v-2.938h-0.818v-1.422h0.818v-1.339l1.79-1.041v2.38H236.774z"/>
			<path fill="#331842" d="M238.014,303.75v-1.65h1.783v1.65H238.014z M238.014,311.405v-6.741h1.783v6.741H238.014z"/>
			<path fill="#331842" d="M241.574,304.664h1.662v0.99c0.217-0.339,0.508-0.613,0.877-0.825c0.367-0.212,0.776-0.317,1.225-0.317
				c0.783,0,1.447,0.307,1.993,0.921c0.546,0.613,0.819,1.468,0.819,2.564c0,1.125-0.275,2-0.826,2.624
				c-0.55,0.624-1.216,0.937-1.999,0.937c-0.372,0-0.71-0.074-1.013-0.223c-0.303-0.147-0.621-0.401-0.955-0.762v3.396h-1.783
				V304.664z M243.338,307.921c0,0.757,0.15,1.316,0.451,1.679c0.301,0.361,0.666,0.542,1.098,0.542c0.415,0,0.76-0.166,1.035-0.498
				s0.412-0.877,0.412-1.635c0-0.706-0.142-1.23-0.425-1.574c-0.283-0.342-0.635-0.514-1.054-0.514
				c-0.436,0-0.798,0.168-1.086,0.505C243.482,306.762,243.338,307.261,243.338,307.921z"/>
			<path fill="#331842" d="M249.566,311.405V302.1h1.783v9.306H249.566z"/>
			<path fill="#331842" d="M257.081,309.26l1.777,0.298c-0.229,0.652-0.589,1.148-1.082,1.489s-1.11,0.511-1.851,0.511
				c-1.172,0-2.04-0.383-2.603-1.148c-0.444-0.614-0.667-1.389-0.667-2.324c0-1.117,0.293-1.991,0.877-2.624
				s1.322-0.949,2.215-0.949c1.003,0,1.794,0.331,2.374,0.993s0.856,1.677,0.831,3.044h-4.469c0.014,0.529,0.157,0.94,0.432,1.234
				c0.275,0.294,0.618,0.441,1.029,0.441c0.279,0,0.514-0.076,0.704-0.229S256.983,309.599,257.081,309.26z M257.183,307.457
				c-0.013-0.517-0.146-0.909-0.399-1.178s-0.563-0.403-0.928-0.403c-0.389,0-0.711,0.143-0.965,0.426s-0.378,0.669-0.374,1.155
				H257.183z"/>
		</g>
		<g>
			<g>
				<path fill="#331842" d="M382.905,62.378l1.828-0.178c0.11,0.613,0.333,1.063,0.67,1.352c0.336,0.288,0.79,0.432,1.361,0.432
					c0.605,0,1.062-0.128,1.368-0.384s0.46-0.556,0.46-0.898c0-0.22-0.064-0.407-0.193-0.562s-0.354-0.289-0.677-0.403
					c-0.22-0.076-0.721-0.212-1.504-0.406c-1.007-0.25-1.714-0.557-2.12-0.921c-0.571-0.512-0.856-1.136-0.856-1.872
					c0-0.474,0.134-0.917,0.402-1.33c0.269-0.412,0.656-0.727,1.162-0.942s1.116-0.324,1.831-0.324c1.168,0,2.047,0.257,2.638,0.769
					c0.59,0.512,0.9,1.195,0.93,2.05l-1.879,0.083c-0.08-0.479-0.253-0.822-0.518-1.031c-0.265-0.21-0.661-0.314-1.189-0.314
					c-0.547,0-0.974,0.112-1.283,0.337c-0.198,0.144-0.298,0.336-0.298,0.577c0,0.22,0.093,0.408,0.279,0.565
					c0.237,0.198,0.812,0.406,1.727,0.621c0.914,0.217,1.59,0.439,2.028,0.67c0.438,0.23,0.78,0.546,1.028,0.946
					c0.247,0.399,0.371,0.894,0.371,1.481c0,0.533-0.148,1.033-0.444,1.498c-0.296,0.466-0.715,0.812-1.257,1.038
					s-1.217,0.34-2.024,0.34c-1.177,0-2.08-0.271-2.711-0.815S383.028,63.419,382.905,62.378z"/>
				<path fill="#331842" d="M391.995,65.405V56.1h1.879v9.306H391.995z"/>
				<path fill="#331842" d="M382.905,103.378l1.828-0.178c0.11,0.613,0.333,1.063,0.67,1.352c0.336,0.288,0.79,0.432,1.361,0.432
					c0.605,0,1.062-0.128,1.368-0.384s0.46-0.556,0.46-0.898c0-0.22-0.064-0.407-0.193-0.562s-0.354-0.289-0.677-0.403
					c-0.22-0.076-0.721-0.212-1.504-0.406c-1.007-0.25-1.714-0.557-2.12-0.921c-0.571-0.512-0.856-1.136-0.856-1.872
					c0-0.474,0.134-0.917,0.402-1.33c0.269-0.412,0.656-0.727,1.162-0.942s1.116-0.324,1.831-0.324c1.168,0,2.047,0.257,2.638,0.769
					c0.59,0.512,0.9,1.195,0.93,2.05l-1.879,0.083c-0.08-0.479-0.253-0.822-0.518-1.031c-0.265-0.21-0.661-0.314-1.189-0.314
					c-0.547,0-0.974,0.112-1.283,0.337c-0.198,0.144-0.298,0.336-0.298,0.577c0,0.22,0.093,0.408,0.279,0.565
					c0.237,0.198,0.812,0.406,1.727,0.621c0.914,0.217,1.59,0.439,2.028,0.67c0.438,0.23,0.78,0.546,1.028,0.946
					c0.247,0.399,0.371,0.894,0.371,1.481c0,0.533-0.148,1.033-0.444,1.498c-0.296,0.466-0.715,0.812-1.257,1.038
					s-1.217,0.34-2.024,0.34c-1.177,0-2.08-0.271-2.711-0.815S383.028,104.419,382.905,103.378z"/>
				<path fill="#331842" d="M391.995,106.405V97.1h1.879v9.306H391.995z"/>
				<path fill="#331842" d="M382.905,144.378l1.828-0.178c0.11,0.613,0.333,1.063,0.67,1.352c0.336,0.288,0.79,0.432,1.361,0.432
					c0.605,0,1.062-0.128,1.368-0.384s0.46-0.556,0.46-0.898c0-0.22-0.064-0.407-0.193-0.562s-0.354-0.289-0.677-0.403
					c-0.22-0.076-0.721-0.212-1.504-0.406c-1.007-0.25-1.714-0.557-2.12-0.921c-0.571-0.512-0.856-1.136-0.856-1.872
					c0-0.474,0.134-0.917,0.402-1.33c0.269-0.412,0.656-0.727,1.162-0.942s1.116-0.324,1.831-0.324c1.168,0,2.047,0.257,2.638,0.769
					c0.59,0.512,0.9,1.195,0.93,2.05l-1.879,0.083c-0.08-0.479-0.253-0.822-0.518-1.031c-0.265-0.21-0.661-0.314-1.189-0.314
					c-0.547,0-0.974,0.112-1.283,0.337c-0.198,0.144-0.298,0.336-0.298,0.577c0,0.22,0.093,0.408,0.279,0.565
					c0.237,0.198,0.812,0.406,1.727,0.621c0.914,0.217,1.59,0.439,2.028,0.67c0.438,0.23,0.78,0.546,1.028,0.946
					c0.247,0.399,0.371,0.894,0.371,1.481c0,0.533-0.148,1.033-0.444,1.498c-0.296,0.466-0.715,0.812-1.257,1.038
					s-1.217,0.34-2.024,0.34c-1.177,0-2.08-0.271-2.711-0.815S383.028,145.419,382.905,144.378z"/>
				<path fill="#331842" d="M391.995,147.405V138.1h1.879v9.306H391.995z"/>
				<path fill="#331842" d="M382.905,185.378l1.828-0.178c0.11,0.613,0.333,1.063,0.67,1.352c0.336,0.288,0.79,0.432,1.361,0.432
					c0.605,0,1.062-0.128,1.368-0.384s0.46-0.556,0.46-0.898c0-0.22-0.064-0.407-0.193-0.562s-0.354-0.289-0.677-0.403
					c-0.22-0.076-0.721-0.212-1.504-0.406c-1.007-0.25-1.714-0.557-2.12-0.921c-0.571-0.512-0.856-1.136-0.856-1.872
					c0-0.474,0.134-0.917,0.402-1.33c0.269-0.412,0.656-0.727,1.162-0.942s1.116-0.324,1.831-0.324c1.168,0,2.047,0.257,2.638,0.769
					c0.59,0.512,0.9,1.195,0.93,2.05l-1.879,0.083c-0.08-0.479-0.253-0.822-0.518-1.031c-0.265-0.21-0.661-0.314-1.189-0.314
					c-0.547,0-0.974,0.112-1.283,0.337c-0.198,0.144-0.298,0.336-0.298,0.577c0,0.22,0.093,0.408,0.279,0.565
					c0.237,0.198,0.812,0.406,1.727,0.621c0.914,0.217,1.59,0.439,2.028,0.67c0.438,0.23,0.78,0.546,1.028,0.946
					c0.247,0.399,0.371,0.894,0.371,1.481c0,0.533-0.148,1.033-0.444,1.498c-0.296,0.466-0.715,0.812-1.257,1.038
					s-1.217,0.34-2.024,0.34c-1.177,0-2.08-0.271-2.711-0.815S383.028,186.419,382.905,185.378z"/>
				<path fill="#331842" d="M391.995,188.405V179.1h1.879v9.306H391.995z"/>
				<path fill="#331842" d="M382.905,226.378l1.828-0.178c0.11,0.613,0.333,1.063,0.67,1.352c0.336,0.288,0.79,0.432,1.361,0.432
					c0.605,0,1.062-0.128,1.368-0.384s0.46-0.556,0.46-0.898c0-0.22-0.064-0.407-0.193-0.562s-0.354-0.289-0.677-0.403
					c-0.22-0.076-0.721-0.212-1.504-0.406c-1.007-0.25-1.714-0.557-2.12-0.921c-0.571-0.512-0.856-1.136-0.856-1.872
					c0-0.474,0.134-0.917,0.402-1.33c0.269-0.412,0.656-0.727,1.162-0.942s1.116-0.324,1.831-0.324c1.168,0,2.047,0.257,2.638,0.769
					c0.59,0.512,0.9,1.195,0.93,2.05l-1.879,0.083c-0.08-0.479-0.253-0.822-0.518-1.031c-0.265-0.21-0.661-0.314-1.189-0.314
					c-0.547,0-0.974,0.112-1.283,0.337c-0.198,0.144-0.298,0.336-0.298,0.577c0,0.22,0.093,0.408,0.279,0.565
					c0.237,0.198,0.812,0.406,1.727,0.621c0.914,0.217,1.59,0.439,2.028,0.67c0.438,0.23,0.78,0.546,1.028,0.946
					c0.247,0.399,0.371,0.894,0.371,1.481c0,0.533-0.148,1.033-0.444,1.498c-0.296,0.466-0.715,0.812-1.257,1.038
					s-1.217,0.34-2.024,0.34c-1.177,0-2.08-0.271-2.711-0.815S383.028,227.419,382.905,226.378z"/>
				<path fill="#331842" d="M391.995,229.405V220.1h1.879v9.306H391.995z"/>
				<path fill="#331842" d="M382.905,267.378l1.828-0.178c0.11,0.613,0.333,1.063,0.67,1.352c0.336,0.288,0.79,0.432,1.361,0.432
					c0.605,0,1.062-0.128,1.368-0.384s0.46-0.556,0.46-0.898c0-0.22-0.064-0.407-0.193-0.562s-0.354-0.289-0.677-0.403
					c-0.22-0.076-0.721-0.212-1.504-0.406c-1.007-0.25-1.714-0.557-2.12-0.921c-0.571-0.512-0.856-1.136-0.856-1.872
					c0-0.474,0.134-0.917,0.402-1.33c0.269-0.412,0.656-0.727,1.162-0.942s1.116-0.324,1.831-0.324c1.168,0,2.047,0.257,2.638,0.769
					c0.59,0.512,0.9,1.195,0.93,2.05l-1.879,0.083c-0.08-0.479-0.253-0.822-0.518-1.031c-0.265-0.21-0.661-0.314-1.189-0.314
					c-0.547,0-0.974,0.112-1.283,0.337c-0.198,0.144-0.298,0.336-0.298,0.577c0,0.22,0.093,0.408,0.279,0.565
					c0.237,0.198,0.812,0.406,1.727,0.621c0.914,0.217,1.59,0.439,2.028,0.67c0.438,0.23,0.78,0.546,1.028,0.946
					c0.247,0.399,0.371,0.894,0.371,1.481c0,0.533-0.148,1.033-0.444,1.498c-0.296,0.466-0.715,0.812-1.257,1.038
					s-1.217,0.34-2.024,0.34c-1.177,0-2.08-0.271-2.711-0.815S383.028,268.419,382.905,267.378z"/>
				<path fill="#331842" d="M391.995,270.405V261.1h1.879v9.306H391.995z"/>
				<path fill="#331842" d="M382.905,308.378l1.828-0.178c0.11,0.613,0.333,1.063,0.67,1.352c0.336,0.288,0.79,0.432,1.361,0.432
					c0.605,0,1.062-0.128,1.368-0.384s0.46-0.556,0.46-0.898c0-0.22-0.064-0.407-0.193-0.562s-0.354-0.289-0.677-0.403
					c-0.22-0.076-0.721-0.212-1.504-0.406c-1.007-0.25-1.714-0.557-2.12-0.921c-0.571-0.512-0.856-1.136-0.856-1.872
					c0-0.474,0.134-0.917,0.402-1.33c0.269-0.412,0.656-0.727,1.162-0.942s1.116-0.324,1.831-0.324c1.168,0,2.047,0.257,2.638,0.769
					c0.59,0.512,0.9,1.195,0.93,2.05l-1.879,0.083c-0.08-0.479-0.253-0.822-0.518-1.031c-0.265-0.21-0.661-0.314-1.189-0.314
					c-0.547,0-0.974,0.112-1.283,0.337c-0.198,0.144-0.298,0.336-0.298,0.577c0,0.22,0.093,0.408,0.279,0.565
					c0.237,0.198,0.812,0.406,1.727,0.621c0.914,0.217,1.59,0.439,2.028,0.67c0.438,0.23,0.78,0.546,1.028,0.946
					c0.247,0.399,0.371,0.894,0.371,1.481c0,0.533-0.148,1.033-0.444,1.498c-0.296,0.466-0.715,0.812-1.257,1.038
					s-1.217,0.34-2.024,0.34c-1.177,0-2.08-0.271-2.711-0.815S383.028,309.419,382.905,308.378z"/>
				<path fill="#331842" d="M391.995,311.405V302.1h1.879v9.306H391.995z"/>
			</g>
		</g>
		<g>
			<g>
				<path fill="#331842" d="M497.567,65.405V56.1h1.828l3.809,6.214V56.1h1.746v9.306h-1.886l-3.751-6.068v6.068H497.567z"/>
				<path fill="#331842" d="M506.555,60.81c0-0.948,0.143-1.743,0.426-2.387c0.212-0.474,0.5-0.899,0.866-1.275
					c0.366-0.377,0.768-0.656,1.203-0.838c0.58-0.246,1.248-0.369,2.006-0.369c1.371,0,2.468,0.426,3.291,1.276
					s1.235,2.033,1.235,3.548c0,1.503-0.409,2.678-1.226,3.526s-1.908,1.272-3.275,1.272c-1.384,0-2.484-0.422-3.301-1.266
					C506.964,63.453,506.555,62.291,506.555,60.81z M508.491,60.746c0,1.054,0.243,1.853,0.729,2.396
					c0.487,0.544,1.105,0.815,1.854,0.815c0.75,0,1.364-0.27,1.845-0.81c0.48-0.539,0.72-1.349,0.72-2.428
					c0-1.066-0.233-1.862-0.701-2.387s-1.088-0.787-1.863-0.787c-0.773,0-1.398,0.266-1.872,0.797S508.491,59.676,508.491,60.746z"
					/>
				<path fill="#331842" d="M497.567,106.405V97.1h1.828l3.809,6.214V97.1h1.746v9.306h-1.886l-3.751-6.068v6.068H497.567z"/>
				<path fill="#331842" d="M506.555,101.81c0-0.948,0.143-1.743,0.426-2.387c0.212-0.474,0.5-0.899,0.866-1.275
					c0.366-0.377,0.768-0.656,1.203-0.838c0.58-0.246,1.248-0.369,2.006-0.369c1.371,0,2.468,0.426,3.291,1.276
					s1.235,2.033,1.235,3.548c0,1.503-0.409,2.678-1.226,3.526s-1.908,1.272-3.275,1.272c-1.384,0-2.484-0.422-3.301-1.266
					C506.964,104.453,506.555,103.291,506.555,101.81z M508.491,101.746c0,1.054,0.243,1.853,0.729,2.396
					c0.487,0.544,1.105,0.815,1.854,0.815c0.75,0,1.364-0.27,1.845-0.81c0.48-0.539,0.72-1.349,0.72-2.428
					c0-1.066-0.233-1.862-0.701-2.387s-1.088-0.787-1.863-0.787c-0.773,0-1.398,0.266-1.872,0.797S508.491,100.676,508.491,101.746z
					"/>
				<path fill="#331842" d="M497.567,147.405V138.1h1.828l3.809,6.214V138.1h1.746v9.306h-1.886l-3.751-6.068v6.068H497.567z"/>
				<path fill="#331842" d="M506.555,142.81c0-0.948,0.143-1.743,0.426-2.387c0.212-0.474,0.5-0.899,0.866-1.275
					c0.366-0.377,0.768-0.656,1.203-0.838c0.58-0.246,1.248-0.369,2.006-0.369c1.371,0,2.468,0.426,3.291,1.276
					s1.235,2.033,1.235,3.548c0,1.503-0.409,2.678-1.226,3.526s-1.908,1.272-3.275,1.272c-1.384,0-2.484-0.422-3.301-1.266
					C506.964,145.453,506.555,144.291,506.555,142.81z M508.491,142.746c0,1.054,0.243,1.853,0.729,2.396
					c0.487,0.544,1.105,0.815,1.854,0.815c0.75,0,1.364-0.27,1.845-0.81c0.48-0.539,0.72-1.349,0.72-2.428
					c0-1.066-0.233-1.862-0.701-2.387s-1.088-0.787-1.863-0.787c-0.773,0-1.398,0.266-1.872,0.797S508.491,141.676,508.491,142.746z
					"/>
				<path fill="#331842" d="M497.567,188.405V179.1h1.828l3.809,6.214V179.1h1.746v9.306h-1.886l-3.751-6.068v6.068H497.567z"/>
				<path fill="#331842" d="M506.555,183.81c0-0.948,0.143-1.743,0.426-2.387c0.212-0.474,0.5-0.899,0.866-1.275
					c0.366-0.377,0.768-0.656,1.203-0.838c0.58-0.246,1.248-0.369,2.006-0.369c1.371,0,2.468,0.426,3.291,1.276
					s1.235,2.033,1.235,3.548c0,1.503-0.409,2.678-1.226,3.526s-1.908,1.272-3.275,1.272c-1.384,0-2.484-0.422-3.301-1.266
					C506.964,186.453,506.555,185.291,506.555,183.81z M508.491,183.746c0,1.054,0.243,1.853,0.729,2.396
					c0.487,0.544,1.105,0.815,1.854,0.815c0.75,0,1.364-0.27,1.845-0.81c0.48-0.539,0.72-1.349,0.72-2.428
					c0-1.066-0.233-1.862-0.701-2.387s-1.088-0.787-1.863-0.787c-0.773,0-1.398,0.266-1.872,0.797S508.491,182.676,508.491,183.746z
					"/>
				<path fill="#331842" d="M497.567,229.405V220.1h1.828l3.809,6.214V220.1h1.746v9.306h-1.886l-3.751-6.068v6.068H497.567z"/>
				<path fill="#331842" d="M506.555,224.81c0-0.948,0.143-1.743,0.426-2.387c0.212-0.474,0.5-0.899,0.866-1.275
					c0.366-0.377,0.768-0.656,1.203-0.838c0.58-0.246,1.248-0.369,2.006-0.369c1.371,0,2.468,0.426,3.291,1.276
					s1.235,2.033,1.235,3.548c0,1.503-0.409,2.678-1.226,3.526s-1.908,1.272-3.275,1.272c-1.384,0-2.484-0.422-3.301-1.266
					C506.964,227.453,506.555,226.291,506.555,224.81z M508.491,224.746c0,1.054,0.243,1.853,0.729,2.396
					c0.487,0.544,1.105,0.815,1.854,0.815c0.75,0,1.364-0.27,1.845-0.81c0.48-0.539,0.72-1.349,0.72-2.428
					c0-1.066-0.233-1.862-0.701-2.387s-1.088-0.787-1.863-0.787c-0.773,0-1.398,0.266-1.872,0.797S508.491,223.676,508.491,224.746z
					"/>
				<path fill="#331842" d="M497.567,270.405V261.1h1.828l3.809,6.214V261.1h1.746v9.306h-1.886l-3.751-6.068v6.068H497.567z"/>
				<path fill="#331842" d="M506.555,265.81c0-0.948,0.143-1.743,0.426-2.387c0.212-0.474,0.5-0.899,0.866-1.275
					c0.366-0.377,0.768-0.656,1.203-0.838c0.58-0.246,1.248-0.369,2.006-0.369c1.371,0,2.468,0.426,3.291,1.276
					s1.235,2.033,1.235,3.548c0,1.503-0.409,2.678-1.226,3.526s-1.908,1.272-3.275,1.272c-1.384,0-2.484-0.422-3.301-1.266
					C506.964,268.453,506.555,267.291,506.555,265.81z M508.491,265.746c0,1.054,0.243,1.853,0.729,2.396
					c0.487,0.544,1.105,0.815,1.854,0.815c0.75,0,1.364-0.27,1.845-0.81c0.48-0.539,0.72-1.349,0.72-2.428
					c0-1.066-0.233-1.862-0.701-2.387s-1.088-0.787-1.863-0.787c-0.773,0-1.398,0.266-1.872,0.797S508.491,264.676,508.491,265.746z
					"/>
				<path fill="#331842" d="M497.567,311.405V302.1h1.828l3.809,6.214V302.1h1.746v9.306h-1.886l-3.751-6.068v6.068H497.567z"/>
				<path fill="#331842" d="M506.555,306.81c0-0.948,0.143-1.743,0.426-2.387c0.212-0.474,0.5-0.899,0.866-1.275
					c0.366-0.377,0.768-0.656,1.203-0.838c0.58-0.246,1.248-0.369,2.006-0.369c1.371,0,2.468,0.426,3.291,1.276
					s1.235,2.033,1.235,3.548c0,1.503-0.409,2.678-1.226,3.526s-1.908,1.272-3.275,1.272c-1.384,0-2.484-0.422-3.301-1.266
					C506.964,309.453,506.555,308.291,506.555,306.81z M508.491,306.746c0,1.054,0.243,1.853,0.729,2.396
					c0.487,0.544,1.105,0.815,1.854,0.815c0.75,0,1.364-0.27,1.845-0.81c0.48-0.539,0.72-1.349,0.72-2.428
					c0-1.066-0.233-1.862-0.701-2.387s-1.088-0.787-1.863-0.787c-0.773,0-1.398,0.266-1.872,0.797S508.491,305.676,508.491,306.746z
					"/>
			</g>
		</g>
		
			<line fill="none" stroke="#331842" stroke-width="0.75" stroke-miterlimit="10" x1="359.486" y1="39.375" x2="359.486" y2="323.422"/>
		
			<line fill="none" stroke="#331842" stroke-width="0.75" stroke-miterlimit="10" x1="417.486" y1="39.375" x2="417.486" y2="323.422"/>
		
			<line fill="none" stroke="#331842" stroke-width="0.75" stroke-miterlimit="10" x1="475.486" y1="39.375" x2="475.486" y2="323.422"/>
		
			<line fill="none" stroke="#331842" stroke-width="0.75" stroke-miterlimit="10" x1="533.486" y1="39.375" x2="533.486" y2="323.422"/>
	</g>
	<path fill="#331842" d="M929.893,114.454c-13.572,0-24.584,11.011-24.584,24.59c0,13.574,11.012,24.584,24.584,24.584
		c13.578,0,24.59-11.01,24.59-24.584C954.482,125.465,943.471,114.454,929.893,114.454z M921,135.288
		c0-0.854,0.98-1.342,1.666-0.834l4.801,3.586c0.668,0.5,0.668,1.502,0,2.004l-4.801,3.584c-0.686,0.511-1.666,0.02-1.666-0.834
		V135.288z M943.854,140.044l-21.188,15.836c-0.686,0.521-1.666,0.029-1.666-0.833v-3.096c0-0.833,0.396-1.624,1.066-2.122
		l13.334-9.973c0.535-0.408,0.535-1.223,0-1.629l-13.334-9.973c-0.67-0.5-1.066-1.289-1.066-2.113v-3.104
		c0-0.864,0.98-1.355,1.666-0.838l21.188,15.84C944.52,138.54,944.52,139.542,943.854,140.044z"/>
	<path fill="#331842" d="M0,139.044c0,13.574,11.012,24.584,24.59,24.584c13.574,0,24.584-11.01,24.584-24.584
		c0-13.579-11.01-24.59-24.584-24.59C11.012,114.454,0,125.465,0,139.044z M33.484,142.794c0,0.854-0.982,1.345-1.668,0.834
		l-4.801-3.584c-0.668-0.502-0.668-1.504,0-2.004l4.801-3.586c0.686-0.508,1.668-0.02,1.668,0.834V142.794z M10.631,138.04
		l21.186-15.84c0.686-0.518,1.668-0.026,1.668,0.838v3.104c0,0.824-0.398,1.613-1.068,2.113l-13.334,9.973
		c-0.537,0.406-0.537,1.221,0,1.629l13.334,9.973c0.67,0.498,1.068,1.289,1.068,2.122v3.096c0,0.862-0.982,1.354-1.668,0.833
		l-21.186-15.836C9.961,139.542,9.961,138.54,10.631,138.04z"/>
</g>
</svg>
