<?xml version="1.0" encoding="utf-8"?>
<!-- Generator: Adobe Illustrator 16.0.0, SVG Export Plug-In . SVG Version: 6.00 Build 0)  -->
<!DOCTYPE svg PUBLIC "-//W3C//DTD SVG 1.1//EN" "http://www.w3.org/Graphics/SVG/1.1/DTD/svg11.dtd">
<svg version="1.1" id="Capa_1" xmlns="http://www.w3.org/2000/svg" xmlns:xlink="http://www.w3.org/1999/xlink" x="0px" y="0px"
	 width="21.906px" height="24.772px" viewBox="0 0 21.906 24.772" enable-background="new 0 0 21.906 24.772" xml:space="preserve">
<path fill-rule="evenodd" clip-rule="evenodd" fill="#0093AF" d="M17.688,24.772c-1.648-0.042-2.662-0.851-3.405-2.153
	c-0.708-1.24-1.459-2.46-2.271-3.634c-0.814-1.175-1.539-1.151-2.443-0.02c-1.349,1.688-3.184,2.621-5.169,3.294
	c-0.407,0.135-0.92,0.222-1.31,0.099c-0.525-0.172-1.151-0.469-1.401-0.904c-0.157-0.27,0.21-0.962,0.497-1.35
	c1.339-1.822,2.756-3.59,4.097-5.412c0.627-0.851,0.581-1.774-0.108-2.593c-0.859-1.017-1.756-2.001-2.641-2.992
	C2.582,8.038,1.587,7.003,0.677,5.901c-0.92-1.112-0.938-2.397,0.163-3.295c1.011-0.82,2.244-1.395,3.432-1.961
	c0.776-0.373,1.468,0.101,1.964,0.674c0.772,0.896,1.459,1.863,2.183,2.799C8.752,4.548,9.066,4.991,9.424,5.4
	c0.525,0.604,1.069,0.673,1.582-0.032c0.262-0.359,0.566-0.694,0.777-1.081c1.163-2.139,3.09-3.256,5.288-4.022
	c0.278-0.1,0.562-0.196,0.855-0.238c1.336-0.19,2.093,0.665,1.491,1.858c-0.703,1.403-1.643,2.688-2.464,4.034
	c-0.663,1.094-1.332,2.188-1.952,3.311c-0.471,0.856-0.369,1.668,0.23,2.484c1.871,2.549,3.72,5.11,5.521,7.705
	c0.561,0.807,1.535,1.53,0.994,2.753c-0.609,1.374-1.737,2.109-3.139,2.482C18.278,24.742,17.924,24.744,17.688,24.772z"/>
</svg>
