<?xml version="1.0" encoding="utf-8"?>
<!-- Generator: Adobe Illustrator 16.0.0, SVG Export Plug-In . SVG Version: 6.00 Build 0)  -->
<!DOCTYPE svg PUBLIC "-//W3C//DTD SVG 1.1//EN" "http://www.w3.org/Graphics/SVG/1.1/DTD/svg11.dtd">
<svg version="1.1" id="Capa_1" xmlns="http://www.w3.org/2000/svg" xmlns:xlink="http://www.w3.org/1999/xlink" x="0px" y="0px"
	 width="53.809px" height="23.258px" viewBox="0 0 53.809 23.258" enable-background="new 0 0 53.809 23.258" xml:space="preserve">
<g>
	<path fill="#331842" d="M12.199,22.422c0,0.279-0.096,0.487-0.285,0.627c-0.189,0.139-0.406,0.209-0.646,0.209
		s-0.455-0.07-0.646-0.209c-0.189-0.14-0.285-0.348-0.285-0.627v-11.21c-0.582,0.532-1.24,0.944-1.975,1.235
		c-0.736,0.291-1.496,0.437-2.281,0.437c-0.76,0-1.508-0.12-2.242-0.362c-0.734-0.241-1.387-0.622-1.957-1.144
		c-0.568-0.521-1.025-1.162-1.367-1.925S0,7.802,0,6.785C0,5.718,0.178,4.79,0.533,4.003C0.887,3.215,1.35,2.566,1.92,2.059
		s1.229-0.89,1.977-1.144c0.746-0.254,1.5-0.381,2.26-0.381C6.916,0.56,7.664,0.709,8.398,0.98c0.734,0.272,1.393,0.668,1.977,1.186
		V0.95c0-0.329,0.094-0.57,0.285-0.722C10.85,0.076,11.064,0,11.307,0c0.24,0,0.455,0.076,0.645,0.229
		c0.191,0.151,0.285,0.393,0.285,0.722L12.199,22.422z M6.023,11.098c1.01,0.025,1.936-0.26,2.781-0.854
		c0.844-0.596,1.355-1.45,1.531-2.565v-1.52C10.16,4.866,9.656,3.903,8.824,3.27C7.99,2.637,7.07,2.295,6.062,2.244
		c-0.531,0-1.047,0.089-1.551,0.266C4.006,2.688,3.559,2.96,3.168,3.327s-0.707,0.83-0.945,1.387
		C1.982,5.271,1.863,5.93,1.863,6.689c0,0.71,0.113,1.337,0.34,1.882s0.535,1.001,0.926,1.367c0.391,0.368,0.84,0.653,1.344,0.855
		C4.977,10.997,5.494,11.098,6.023,11.098z"/>
	<path fill="#331842" d="M15.314,12.162c0-2.559,0.398-4.706,1.197-6.441c0.797-1.734,1.799-3.04,3.002-3.914
		s2.514-1.323,3.932-1.349c1.42-0.025,2.73,0.38,3.934,1.216S29.59,3.789,30.4,5.512c0.811,1.724,1.229,3.876,1.254,6.46
		c0,1.368-0.158,2.692-0.475,3.971c-0.318,1.28-0.799,2.42-1.445,3.421c-0.645,1.001-1.463,1.817-2.449,2.45
		c-0.988,0.634-2.154,0.976-3.496,1.026c-1.496,0.051-2.781-0.209-3.857-0.779c-1.078-0.569-1.957-1.354-2.641-2.355
		c-0.686-1.001-1.186-2.153-1.502-3.458S15.314,13.581,15.314,12.162z M23.617,21.054c1.068,0,1.994-0.266,2.783-0.798
		c0.787-0.532,1.43-1.229,1.924-2.09c0.496-0.861,0.863-1.843,1.105-2.945c0.242-1.102,0.363-2.223,0.363-3.363
		c0-2.128-0.318-3.907-0.953-5.339c-0.637-1.431-1.424-2.495-2.363-3.191c-0.941-0.696-1.963-1.045-3.068-1.045
		s-2.121,0.36-3.049,1.083c-0.928,0.722-1.697,1.805-2.307,3.249c-0.609,1.443-0.902,3.229-0.877,5.357
		c0,1.115,0.102,2.224,0.305,3.325s0.547,2.077,1.029,2.926c0.482,0.85,1.137,1.539,1.963,2.071S22.348,21.079,23.617,21.054z"/>
	<path fill="#331842" d="M37.734,11.554c-0.709,0.025-1.324-0.076-1.844-0.304c-0.52-0.229-0.949-0.532-1.291-0.912
		s-0.596-0.817-0.76-1.312c-0.166-0.493-0.248-1.007-0.248-1.538c0-0.532,0.09-1.046,0.268-1.539
		c0.176-0.494,0.436-0.932,0.777-1.312c0.344-0.38,0.762-0.689,1.254-0.931c0.494-0.24,1.07-0.361,1.73-0.361
		c0.658,0,1.24,0.114,1.748,0.342c0.506,0.229,0.924,0.539,1.254,0.932c0.328,0.393,0.576,0.842,0.74,1.349s0.248,1.026,0.248,1.558
		c0,0.508-0.084,1.002-0.248,1.482c-0.164,0.481-0.412,0.912-0.74,1.292c-0.33,0.38-0.736,0.684-1.217,0.912
		C38.926,11.439,38.367,11.554,37.734,11.554z M37.773,9.996c0.76,0.025,1.328-0.229,1.709-0.76c0.381-0.532,0.57-1.115,0.57-1.748
		c0-0.659-0.203-1.255-0.607-1.786c-0.406-0.532-1.014-0.798-1.824-0.798c-0.76,0.025-1.338,0.304-1.73,0.836
		c-0.393,0.531-0.588,1.127-0.588,1.785c0.025,0.608,0.24,1.173,0.646,1.691C36.354,9.736,36.961,9.996,37.773,9.996z M47.045,0.914
		c0.127-0.305,0.309-0.487,0.551-0.551c0.24-0.063,0.469-0.044,0.684,0.057c0.215,0.102,0.387,0.266,0.514,0.494
		c0.127,0.228,0.127,0.469,0,0.722l-8.779,20.786c-0.127,0.254-0.303,0.399-0.531,0.437c-0.229,0.038-0.449,0.007-0.664-0.095
		c-0.217-0.101-0.381-0.253-0.494-0.456c-0.115-0.202-0.109-0.442,0.018-0.722L47.045,0.914z M49.932,19.04
		c-0.709,0.025-1.322-0.076-1.842-0.304c-0.52-0.229-0.951-0.538-1.293-0.932c-0.342-0.393-0.596-0.836-0.76-1.33
		s-0.246-1.007-0.246-1.539c0-0.531,0.088-1.045,0.266-1.539c0.178-0.493,0.438-0.931,0.779-1.311s0.76-0.69,1.254-0.931
		c0.494-0.241,1.07-0.361,1.729-0.361s1.24,0.12,1.748,0.361c0.506,0.24,0.924,0.551,1.254,0.931s0.576,0.823,0.74,1.33
		c0.166,0.507,0.248,1.025,0.248,1.558c0,0.507-0.082,1.001-0.248,1.482c-0.164,0.481-0.41,0.912-0.74,1.292
		s-0.734,0.69-1.215,0.931C51.123,18.92,50.566,19.04,49.932,19.04z M49.971,17.443c0.785,0.026,1.361-0.228,1.729-0.76
		s0.551-1.114,0.551-1.748c0-0.658-0.203-1.254-0.607-1.786c-0.406-0.531-1.014-0.798-1.824-0.798
		c-0.76,0.052-1.336,0.336-1.729,0.855s-0.59,1.108-0.59,1.767c0.025,0.608,0.24,1.172,0.646,1.691
		C48.551,17.185,49.16,17.443,49.971,17.443z"/>
</g>
</svg>
