<?xml version="1.0" encoding="utf-8"?>
<!-- Generator: Adobe Illustrator 16.0.0, SVG Export Plug-In . SVG Version: 6.00 Build 0)  -->
<!DOCTYPE svg PUBLIC "-//W3C//DTD SVG 1.1//EN" "http://www.w3.org/Graphics/SVG/1.1/DTD/svg11.dtd">
<svg version="1.1" id="Capa_1" xmlns="http://www.w3.org/2000/svg" xmlns:xlink="http://www.w3.org/1999/xlink" x="0px" y="0px"
	 width="51.262px" height="23.258px" viewBox="0 0 51.262 23.258" enable-background="new 0 0 51.262 23.258" xml:space="preserve">
<g>
	<path fill="#331842" d="M0,16.646c0-1.342,0.299-2.445,0.898-3.307c0.598-0.861,1.355-1.531,2.271-2.014
		c-0.891-0.43-1.629-1.064-2.215-1.9S0.076,7.539,0.076,6.271c0-1.443,0.33-2.627,0.99-3.553c0.66-0.924,1.492-1.602,2.496-2.033
		c1.004-0.43,2.09-0.619,3.258-0.568s2.256,0.316,3.258,0.797c1.004,0.482,1.848,1.172,2.535,2.07c0.686,0.9,1.041,1.984,1.066,3.25
		c0.025,1.217-0.271,2.242-0.889,3.078s-1.404,1.482-2.361,1.938c1.094,0.482,2.006,1.172,2.73,2.072
		c0.727,0.898,1.102,1.994,1.127,3.285c0,1.014-0.209,1.908-0.629,2.68c-0.422,0.773-0.975,1.426-1.662,1.957
		s-1.471,0.943-2.35,1.234c-0.879,0.293-1.777,0.438-2.693,0.438c-0.893,0.025-1.752-0.082-2.58-0.322
		c-0.826-0.24-1.564-0.621-2.215-1.141s-1.172-1.178-1.566-1.977C0.197,18.68,0,17.736,0,16.646z M12.426,16.836
		c0-0.963-0.254-1.779-0.76-2.451c-0.508-0.67-1.146-1.184-1.92-1.539c-0.771-0.354-1.607-0.557-2.508-0.607
		c-0.898-0.051-1.742,0.076-2.527,0.381c-0.785,0.303-1.443,0.777-1.975,1.424c-0.533,0.646-0.824,1.477-0.875,2.49
		c-0.051,0.76,0.07,1.424,0.361,1.994s0.684,1.045,1.178,1.426c0.494,0.379,1.059,0.658,1.691,0.836s1.293,0.266,1.977,0.266
		c0.658,0,1.311-0.088,1.957-0.266c0.645-0.178,1.221-0.451,1.729-0.818c0.506-0.367,0.912-0.811,1.217-1.33
		C12.273,18.123,12.426,17.52,12.426,16.836z M11.818,6.387c0-0.938-0.246-1.742-0.738-2.414c-0.492-0.67-1.098-1.189-1.816-1.557
		c-0.721-0.367-1.51-0.57-2.367-0.609C6.039,1.77,5.244,1.896,4.512,2.188S3.168,2.953,2.676,3.613
		C2.184,4.271,1.938,5.107,1.938,6.121c0,0.963,0.24,1.76,0.719,2.393c0.48,0.635,1.086,1.109,1.818,1.426
		c0.73,0.316,1.525,0.475,2.385,0.475c0.857,0,1.652-0.152,2.385-0.455c0.73-0.305,1.344-0.754,1.836-1.35
		S11.818,7.273,11.818,6.387z"/>
	<path fill="#331842" d="M28.348,22.422c0,0.279-0.094,0.488-0.285,0.627c-0.189,0.139-0.404,0.209-0.645,0.209
		c-0.242,0-0.457-0.07-0.646-0.209s-0.285-0.348-0.285-0.627V11.213c-0.584,0.531-1.242,0.943-1.977,1.234s-1.494,0.438-2.279,0.438
		c-0.76,0-1.508-0.121-2.242-0.363c-0.734-0.24-1.387-0.621-1.957-1.143s-1.025-1.162-1.367-1.926
		c-0.344-0.762-0.514-1.65-0.514-2.668c0-1.066,0.176-1.994,0.531-2.781c0.355-0.789,0.818-1.438,1.387-1.945
		c0.57-0.508,1.229-0.889,1.977-1.143s1.502-0.381,2.262-0.381c0.76,0.025,1.506,0.174,2.242,0.445
		c0.734,0.273,1.393,0.668,1.975,1.186V0.951c0-0.33,0.096-0.57,0.285-0.723C27,0.076,27.215,0,27.455,0s0.457,0.076,0.646,0.229
		s0.285,0.393,0.285,0.723L28.348,22.422z M22.174,11.098c1.008,0.025,1.936-0.26,2.779-0.854c0.846-0.596,1.355-1.451,1.533-2.566
		v-1.52c-0.178-1.291-0.682-2.254-1.514-2.889c-0.832-0.633-1.752-0.975-2.762-1.025c-0.529,0-1.047,0.09-1.551,0.266
		c-0.504,0.178-0.953,0.451-1.344,0.818s-0.705,0.83-0.945,1.387s-0.359,1.215-0.359,1.975c0,0.711,0.113,1.338,0.34,1.883
		c0.229,0.545,0.537,1,0.928,1.367s0.838,0.652,1.344,0.855C21.127,10.998,21.645,11.098,22.174,11.098z"/>
	<path fill="#331842" d="M35.188,11.555c-0.709,0.025-1.324-0.076-1.844-0.305s-0.949-0.531-1.291-0.912
		c-0.342-0.379-0.596-0.816-0.76-1.311c-0.166-0.494-0.248-1.008-0.248-1.539s0.09-1.045,0.268-1.539
		c0.176-0.494,0.436-0.932,0.777-1.311c0.344-0.381,0.762-0.689,1.254-0.932c0.494-0.24,1.07-0.361,1.73-0.361
		c0.658,0,1.24,0.115,1.748,0.342c0.506,0.229,0.924,0.539,1.254,0.932c0.328,0.393,0.576,0.842,0.74,1.35
		c0.164,0.506,0.248,1.025,0.248,1.557c0,0.508-0.084,1.002-0.248,1.482c-0.164,0.482-0.412,0.912-0.74,1.293
		c-0.33,0.379-0.736,0.684-1.217,0.912C36.379,11.439,35.82,11.555,35.188,11.555z M35.227,9.996c0.76,0.025,1.328-0.229,1.709-0.76
		s0.57-1.115,0.57-1.748c0-0.658-0.203-1.254-0.607-1.785c-0.406-0.533-1.014-0.799-1.824-0.799c-0.76,0.025-1.338,0.305-1.73,0.836
		s-0.588,1.127-0.588,1.785c0.025,0.609,0.24,1.174,0.646,1.691C33.807,9.736,34.414,9.996,35.227,9.996z M44.498,0.914
		c0.127-0.305,0.309-0.486,0.551-0.551c0.24-0.062,0.469-0.043,0.684,0.057c0.215,0.102,0.387,0.266,0.514,0.494
		s0.127,0.469,0,0.723l-8.779,20.785c-0.127,0.254-0.303,0.4-0.531,0.438s-0.449,0.006-0.664-0.096
		c-0.217-0.1-0.381-0.252-0.494-0.455c-0.115-0.203-0.109-0.443,0.018-0.723L44.498,0.914z M47.385,19.041
		c-0.709,0.025-1.322-0.076-1.842-0.305s-0.951-0.537-1.293-0.932c-0.342-0.393-0.596-0.836-0.76-1.33s-0.246-1.006-0.246-1.539
		c0-0.531,0.088-1.045,0.266-1.539c0.178-0.492,0.438-0.93,0.779-1.311c0.342-0.379,0.76-0.689,1.254-0.93
		c0.494-0.242,1.07-0.361,1.729-0.361s1.24,0.119,1.748,0.361c0.506,0.24,0.924,0.551,1.254,0.93c0.33,0.381,0.576,0.824,0.74,1.33
		c0.166,0.508,0.248,1.025,0.248,1.559c0,0.506-0.082,1-0.248,1.482c-0.164,0.48-0.41,0.912-0.74,1.291
		c-0.33,0.381-0.734,0.691-1.215,0.932C48.576,18.92,48.02,19.041,47.385,19.041z M47.424,17.443
		c0.785,0.027,1.361-0.227,1.729-0.76c0.367-0.531,0.551-1.113,0.551-1.748c0-0.658-0.203-1.254-0.607-1.785
		c-0.406-0.531-1.014-0.799-1.824-0.799c-0.76,0.053-1.336,0.336-1.729,0.855s-0.59,1.109-0.59,1.768
		c0.025,0.607,0.24,1.172,0.646,1.691C46.004,17.186,46.613,17.443,47.424,17.443z"/>
</g>
</svg>
