<?xml version="1.0" encoding="utf-8"?>
<!-- Generator: Adobe Illustrator 16.0.0, SVG Export Plug-In . SVG Version: 6.00 Build 0)  -->
<!DOCTYPE svg PUBLIC "-//W3C//DTD SVG 1.1//EN" "http://www.w3.org/Graphics/SVG/1.1/DTD/svg11.dtd">
<svg version="1.1" id="Capa_1" xmlns="http://www.w3.org/2000/svg" xmlns:xlink="http://www.w3.org/1999/xlink" x="0px" y="0px"
	 width="51.756px" height="22.812px" viewBox="0 0 51.756 22.812" enable-background="new 0 0 51.756 22.812" xml:space="preserve">
<g>
	<path fill="#331842" d="M0,16.537c0-1.342,0.299-2.443,0.898-3.305c0.598-0.861,1.355-1.533,2.271-2.014
		c-0.891-0.432-1.629-1.064-2.215-1.9S0.076,7.432,0.076,6.164c0-1.443,0.33-2.629,0.99-3.553c0.66-0.926,1.492-1.602,2.496-2.033
		c1.004-0.43,2.09-0.621,3.258-0.57s2.256,0.316,3.258,0.799c1.004,0.48,1.848,1.172,2.535,2.07c0.686,0.9,1.041,1.982,1.066,3.248
		c0.025,1.217-0.271,2.242-0.889,3.078s-1.404,1.482-2.361,1.939c1.094,0.48,2.006,1.172,2.73,2.07
		c0.727,0.9,1.102,1.994,1.127,3.287c0,1.014-0.209,1.906-0.629,2.68c-0.422,0.771-0.975,1.424-1.662,1.957
		c-0.688,0.531-1.471,0.943-2.35,1.234s-1.777,0.438-2.693,0.438c-0.893,0.023-1.752-0.082-2.58-0.324
		c-0.826-0.24-1.564-0.619-2.215-1.139s-1.172-1.18-1.566-1.977C0.197,18.57,0,17.627,0,16.537z M12.426,16.729
		c0-0.963-0.254-1.779-0.76-2.451c-0.508-0.672-1.146-1.184-1.92-1.539c-0.771-0.355-1.607-0.557-2.508-0.607
		C6.34,12.08,5.496,12.205,4.711,12.51s-1.443,0.779-1.975,1.426c-0.533,0.645-0.824,1.475-0.875,2.488
		c-0.051,0.76,0.07,1.426,0.361,1.994c0.291,0.57,0.684,1.047,1.178,1.426c0.494,0.381,1.059,0.66,1.691,0.836
		c0.633,0.178,1.293,0.266,1.977,0.266c0.658,0,1.311-0.088,1.957-0.266c0.645-0.176,1.221-0.449,1.729-0.816
		c0.506-0.367,0.912-0.811,1.217-1.33C12.273,18.014,12.426,17.412,12.426,16.729z M11.818,6.277c0-0.936-0.246-1.74-0.738-2.412
		S9.982,2.674,9.264,2.307c-0.721-0.367-1.51-0.57-2.367-0.607C6.039,1.66,5.244,1.787,4.512,2.078
		C3.779,2.371,3.168,2.846,2.676,3.504S1.938,4.998,1.938,6.012c0,0.963,0.24,1.762,0.719,2.395c0.48,0.633,1.086,1.107,1.818,1.424
		c0.73,0.318,1.525,0.477,2.385,0.477c0.857,0,1.652-0.152,2.385-0.457c0.73-0.303,1.344-0.754,1.836-1.35
		C11.572,7.906,11.818,7.164,11.818,6.277z"/>
	<path fill="#331842" d="M29.715,16.5c0,1.646-0.48,2.957-1.443,3.934c-0.963,0.975-2.154,1.646-3.572,2.014
		s-2.939,0.455-4.561,0.266s-3.115-0.627-4.482-1.311c-0.33-0.152-0.52-0.348-0.57-0.59c-0.051-0.24-0.02-0.461,0.094-0.664
		c0.115-0.203,0.285-0.355,0.514-0.457c0.229-0.1,0.457-0.088,0.684,0.039c0.686,0.355,1.445,0.627,2.281,0.816
		s1.678,0.299,2.527,0.322c0.848,0.025,1.672-0.043,2.469-0.209c0.799-0.164,1.508-0.424,2.129-0.777
		c0.619-0.355,1.121-0.805,1.5-1.35c0.381-0.545,0.57-1.197,0.57-1.957c0-1.418-0.791-2.496-2.375-3.23s-3.895-0.988-6.936-0.76
		c-0.455,0.051-0.771-0.012-0.949-0.189s-0.254-0.381-0.229-0.609c0.025-0.227,0.127-0.436,0.305-0.627
		c0.176-0.189,0.404-0.285,0.684-0.285c1.443,0,2.691-0.125,3.742-0.379c1.053-0.254,1.926-0.607,2.623-1.064
		c0.697-0.455,1.217-0.98,1.559-1.576s0.512-1.236,0.512-1.92c0-0.963-0.342-1.754-1.025-2.375C25.08,2.941,24.23,2.51,23.217,2.27
		s-2.096-0.291-3.248-0.152s-2.186,0.475-3.098,1.006c-0.227,0.129-0.436,0.141-0.627,0.039c-0.189-0.102-0.336-0.254-0.436-0.457
		c-0.102-0.201-0.129-0.418-0.076-0.645c0.049-0.229,0.189-0.418,0.418-0.57c1.215-0.684,2.539-1.115,3.971-1.293
		c1.43-0.176,2.773-0.082,4.027,0.285s2.312,1.014,3.172,1.939c0.861,0.924,1.305,2.146,1.332,3.666c0,1.09-0.305,2.084-0.912,2.982
		c-0.609,0.9-1.395,1.604-2.357,2.109c0.584,0.178,1.135,0.438,1.654,0.779c0.518,0.342,0.977,0.748,1.373,1.217
		s0.715,0.98,0.951,1.539C29.598,15.271,29.715,15.867,29.715,16.5z"/>
	<path fill="#331842" d="M35.682,11.445c-0.709,0.025-1.324-0.076-1.844-0.303c-0.52-0.229-0.949-0.533-1.291-0.912
		c-0.342-0.381-0.596-0.818-0.76-1.312c-0.166-0.492-0.248-1.006-0.248-1.537c0-0.533,0.09-1.047,0.268-1.539
		c0.176-0.494,0.436-0.932,0.777-1.312c0.344-0.379,0.762-0.689,1.254-0.93c0.494-0.24,1.07-0.361,1.73-0.361
		c0.658,0,1.24,0.113,1.748,0.342c0.506,0.229,0.924,0.539,1.254,0.932c0.328,0.393,0.576,0.842,0.74,1.348
		c0.164,0.508,0.248,1.027,0.248,1.559c0,0.508-0.084,1.002-0.248,1.482s-0.412,0.912-0.74,1.291
		c-0.33,0.381-0.736,0.684-1.217,0.912S36.314,11.445,35.682,11.445z M35.721,9.889c0.76,0.025,1.328-0.229,1.709-0.76
		C37.811,8.596,38,8.014,38,7.381c0-0.66-0.203-1.256-0.607-1.787c-0.406-0.531-1.014-0.797-1.824-0.797
		c-0.76,0.025-1.338,0.303-1.73,0.836C33.445,6.164,33.25,6.76,33.25,7.418c0.025,0.607,0.24,1.172,0.646,1.691
		C34.301,9.629,34.908,9.889,35.721,9.889z M44.992,0.807c0.127-0.305,0.309-0.488,0.551-0.551c0.24-0.064,0.469-0.045,0.684,0.057
		s0.387,0.266,0.514,0.494c0.127,0.227,0.127,0.469,0,0.721l-8.779,20.787c-0.127,0.254-0.303,0.398-0.531,0.436
		c-0.229,0.039-0.449,0.008-0.664-0.094c-0.217-0.102-0.381-0.254-0.494-0.457c-0.115-0.201-0.109-0.441,0.018-0.721L44.992,0.807z
		 M47.879,18.932c-0.709,0.025-1.322-0.076-1.842-0.303c-0.52-0.229-0.951-0.539-1.293-0.932s-0.596-0.836-0.76-1.33
		s-0.246-1.008-0.246-1.539s0.088-1.045,0.266-1.539s0.438-0.932,0.779-1.311c0.342-0.381,0.76-0.691,1.254-0.932
		s1.07-0.361,1.729-0.361s1.24,0.121,1.748,0.361c0.506,0.24,0.924,0.551,1.254,0.932c0.33,0.379,0.576,0.822,0.74,1.33
		c0.166,0.506,0.248,1.025,0.248,1.557c0,0.508-0.082,1.002-0.248,1.482c-0.164,0.482-0.41,0.912-0.74,1.293
		c-0.33,0.379-0.734,0.689-1.215,0.93C49.07,18.812,48.514,18.932,47.879,18.932z M47.918,17.336
		c0.785,0.025,1.361-0.229,1.729-0.76c0.367-0.533,0.551-1.115,0.551-1.748c0-0.658-0.203-1.254-0.607-1.787
		c-0.406-0.531-1.014-0.797-1.824-0.797c-0.76,0.051-1.336,0.336-1.729,0.855s-0.59,1.107-0.59,1.766
		c0.025,0.609,0.24,1.172,0.646,1.691C46.498,17.076,47.107,17.336,47.918,17.336z"/>
</g>
</svg>
