<?xml version="1.0" encoding="utf-8"?>
<!-- Generator: Adobe Illustrator 16.0.0, SVG Export Plug-In . SVG Version: 6.00 Build 0)  -->
<!DOCTYPE svg PUBLIC "-//W3C//DTD SVG 1.1//EN" "http://www.w3.org/Graphics/SVG/1.1/DTD/svg11.dtd">
<svg version="1.1" id="Capa_1" xmlns="http://www.w3.org/2000/svg" xmlns:xlink="http://www.w3.org/1999/xlink" x="0px" y="0px"
	 width="47.959px" height="23.258px" viewBox="0 0 47.959 23.258" enable-background="new 0 0 47.959 23.258" xml:space="preserve">
<g>
	<path fill="#331842" d="M3.766,0.458C3.943,0.205,4.152,0.065,4.393,0.04s0.463,0.013,0.666,0.114
		c0.201,0.102,0.348,0.26,0.436,0.475c0.09,0.216,0.057,0.45-0.094,0.703C4.842,2.295,4.367,3.226,3.975,4.125
		s-0.723,1.786-0.988,2.66S2.498,8.539,2.322,9.426c-0.178,0.887-0.33,1.799-0.457,2.736c0.658-0.633,1.393-1.165,2.205-1.597
		c0.811-0.43,1.658-0.684,2.545-0.76c0.912-0.05,1.717,0.038,2.414,0.267c0.695,0.228,1.297,0.557,1.805,0.987
		c0.506,0.432,0.912,0.938,1.215,1.521c0.305,0.583,0.52,1.19,0.646,1.824c0.178,0.938,0.172,1.899-0.02,2.888
		c-0.189,0.988-0.551,1.899-1.082,2.736c-0.531,0.836-1.229,1.532-2.09,2.09s-1.861,0.849-3.002,0.874
		c-1.268,0.05-2.324-0.171-3.174-0.665c-0.848-0.494-1.525-1.172-2.033-2.033c-0.506-0.861-0.854-1.862-1.045-3.002
		c-0.189-1.141-0.271-2.343-0.246-3.61c0.025-1.267,0.158-2.552,0.398-3.856s0.533-2.546,0.875-3.725
		C1.619,4.923,2.012,3.84,2.455,2.852C2.898,1.864,3.334,1.065,3.766,0.458z M6.387,21.13c0.785-0.025,1.477-0.215,2.072-0.57
		c0.594-0.354,1.088-0.811,1.482-1.368c0.393-0.557,0.676-1.171,0.854-1.843c0.178-0.671,0.242-1.336,0.191-1.995
		c-0.051-0.531-0.166-1.045-0.342-1.539c-0.178-0.493-0.451-0.918-0.818-1.272s-0.822-0.627-1.367-0.817
		c-0.545-0.189-1.197-0.247-1.957-0.171c-0.938,0.102-1.812,0.463-2.623,1.083c-0.811,0.621-1.469,1.387-1.975,2.299
		c0,0.912,0.082,1.748,0.246,2.508c0.164,0.761,0.432,1.42,0.799,1.977c0.367,0.558,0.828,0.982,1.387,1.272
		C4.893,20.984,5.576,21.13,6.387,21.13z"/>
	<path fill="#331842" d="M25.045,22.422c0,0.279-0.094,0.487-0.285,0.627c-0.189,0.139-0.404,0.209-0.645,0.209
		c-0.242,0-0.457-0.07-0.646-0.209c-0.189-0.14-0.285-0.348-0.285-0.627v-11.21c-0.584,0.532-1.242,0.944-1.977,1.235
		s-1.494,0.437-2.279,0.437c-0.76,0-1.508-0.12-2.242-0.362c-0.734-0.241-1.387-0.622-1.957-1.144
		c-0.57-0.521-1.025-1.162-1.367-1.925c-0.344-0.763-0.514-1.651-0.514-2.668c0-1.067,0.176-1.995,0.531-2.782
		c0.355-0.788,0.818-1.437,1.387-1.944c0.57-0.508,1.229-0.89,1.977-1.144s1.502-0.381,2.262-0.381
		c0.76,0.025,1.506,0.175,2.242,0.446c0.734,0.272,1.393,0.668,1.975,1.186V0.95c0-0.329,0.096-0.57,0.285-0.722
		C23.697,0.076,23.912,0,24.152,0s0.457,0.076,0.646,0.229c0.189,0.151,0.285,0.393,0.285,0.722L25.045,22.422z M18.871,11.098
		c1.008,0.025,1.936-0.26,2.779-0.854c0.846-0.596,1.355-1.45,1.533-2.565v-1.52c-0.178-1.292-0.682-2.255-1.514-2.889
		c-0.832-0.633-1.752-0.975-2.762-1.025c-0.529,0-1.047,0.089-1.551,0.266c-0.504,0.178-0.953,0.45-1.344,0.817
		s-0.705,0.83-0.945,1.387c-0.24,0.558-0.359,1.216-0.359,1.976c0,0.71,0.113,1.337,0.34,1.882c0.229,0.545,0.537,1.001,0.928,1.367
		c0.391,0.368,0.838,0.653,1.344,0.855C17.824,10.997,18.342,11.098,18.871,11.098z"/>
	<path fill="#331842" d="M31.887,11.554c-0.711,0.025-1.324-0.076-1.844-0.304c-0.52-0.229-0.949-0.532-1.293-0.912
		c-0.342-0.38-0.594-0.817-0.76-1.312c-0.164-0.493-0.246-1.007-0.246-1.538c0-0.532,0.088-1.046,0.266-1.539
		c0.178-0.494,0.438-0.932,0.779-1.312s0.76-0.689,1.254-0.931c0.494-0.24,1.07-0.361,1.729-0.361s1.242,0.114,1.748,0.342
		c0.506,0.229,0.926,0.539,1.254,0.932c0.33,0.393,0.576,0.842,0.742,1.349c0.164,0.507,0.246,1.026,0.246,1.558
		c0,0.508-0.082,1.002-0.246,1.482C35.35,9.489,35.104,9.92,34.773,10.3c-0.328,0.38-0.734,0.684-1.215,0.912
		C33.076,11.439,32.52,11.554,31.887,11.554z M31.924,9.996c0.76,0.025,1.33-0.229,1.711-0.76c0.379-0.532,0.568-1.115,0.568-1.748
		c0-0.659-0.203-1.255-0.607-1.786c-0.406-0.532-1.014-0.798-1.824-0.798c-0.76,0.025-1.336,0.304-1.729,0.836
		c-0.393,0.531-0.59,1.127-0.59,1.785c0.025,0.608,0.242,1.173,0.646,1.691C30.504,9.736,31.113,9.996,31.924,9.996z M41.195,0.914
		c0.127-0.305,0.311-0.487,0.551-0.551c0.242-0.063,0.469-0.044,0.686,0.057c0.215,0.102,0.385,0.266,0.512,0.494
		c0.127,0.228,0.127,0.469,0,0.722l-8.777,20.786c-0.127,0.254-0.305,0.399-0.531,0.437c-0.229,0.038-0.451,0.007-0.666-0.095
		c-0.215-0.101-0.379-0.253-0.494-0.456c-0.113-0.202-0.107-0.442,0.02-0.722L41.195,0.914z M44.084,19.04
		c-0.709,0.025-1.324-0.076-1.844-0.304c-0.52-0.229-0.949-0.538-1.291-0.932c-0.342-0.393-0.596-0.836-0.76-1.33
		c-0.166-0.494-0.248-1.007-0.248-1.539c0-0.531,0.09-1.045,0.266-1.539c0.178-0.493,0.438-0.931,0.779-1.311s0.76-0.69,1.254-0.931
		c0.494-0.241,1.07-0.361,1.73-0.361c0.658,0,1.24,0.12,1.748,0.361c0.506,0.24,0.924,0.551,1.254,0.931
		c0.328,0.38,0.574,0.823,0.74,1.33c0.164,0.507,0.246,1.025,0.246,1.558c0,0.507-0.082,1.001-0.246,1.482
		c-0.166,0.481-0.412,0.912-0.74,1.292c-0.33,0.38-0.736,0.69-1.217,0.931C45.273,18.92,44.717,19.04,44.084,19.04z M44.121,17.443
		c0.785,0.026,1.361-0.228,1.73-0.76c0.367-0.532,0.551-1.114,0.551-1.748c0-0.658-0.203-1.254-0.609-1.786
		c-0.404-0.531-1.012-0.798-1.822-0.798c-0.762,0.052-1.338,0.336-1.73,0.855s-0.588,1.108-0.588,1.767
		c0.025,0.608,0.24,1.172,0.646,1.691C42.703,17.185,43.311,17.443,44.121,17.443z"/>
</g>
</svg>
