<?xml version="1.0" encoding="utf-8"?>
<!-- Generator: Adobe Illustrator 16.0.0, SVG Export Plug-In . SVG Version: 6.00 Build 0)  -->
<!DOCTYPE svg PUBLIC "-//W3C//DTD SVG 1.1//EN" "http://www.w3.org/Graphics/SVG/1.1/DTD/svg11.dtd">
<svg version="1.1" id="Capa_1" xmlns="http://www.w3.org/2000/svg" xmlns:xlink="http://www.w3.org/1999/xlink" x="0px" y="0px"
	 width="53.279px" height="22.967px" viewBox="0 0 53.279 22.967" enable-background="new 0 0 53.279 22.967" xml:space="preserve">
<g>
	<path fill="#331842" d="M3.766,0.426c0.178-0.253,0.387-0.393,0.627-0.418s0.463,0.013,0.666,0.114
		c0.201,0.102,0.348,0.26,0.436,0.475C5.584,0.812,5.551,1.047,5.4,1.3C4.842,2.263,4.367,3.193,3.975,4.093
		s-0.723,1.786-0.988,2.66S2.498,8.507,2.322,9.394c-0.178,0.887-0.33,1.799-0.457,2.736c0.658-0.633,1.393-1.165,2.205-1.597
		c0.811-0.43,1.658-0.684,2.545-0.76c0.912-0.05,1.717,0.038,2.414,0.267c0.695,0.228,1.297,0.557,1.805,0.987
		c0.506,0.432,0.912,0.938,1.215,1.521c0.305,0.583,0.52,1.19,0.646,1.824c0.178,0.938,0.172,1.899-0.02,2.888
		c-0.189,0.988-0.551,1.899-1.082,2.736c-0.531,0.836-1.229,1.532-2.09,2.09s-1.861,0.849-3.002,0.874
		c-1.268,0.05-2.324-0.171-3.174-0.665c-0.848-0.494-1.525-1.172-2.033-2.033C0.789,19.4,0.441,18.399,0.25,17.26
		c-0.189-1.141-0.271-2.343-0.246-3.61c0.025-1.267,0.158-2.552,0.398-3.856s0.533-2.546,0.875-3.725
		c0.342-1.178,0.734-2.261,1.178-3.249C2.898,1.832,3.334,1.033,3.766,0.426z M6.387,21.098c0.785-0.025,1.477-0.215,2.072-0.57
		c0.594-0.354,1.088-0.811,1.482-1.368c0.393-0.557,0.676-1.171,0.854-1.843c0.178-0.671,0.242-1.336,0.191-1.995
		c-0.051-0.531-0.166-1.045-0.342-1.539c-0.178-0.493-0.451-0.918-0.818-1.272s-0.822-0.627-1.367-0.817
		c-0.545-0.189-1.197-0.247-1.957-0.171c-0.938,0.102-1.812,0.463-2.623,1.083c-0.811,0.621-1.469,1.387-1.975,2.299
		c0,0.912,0.082,1.748,0.246,2.508c0.164,0.761,0.432,1.42,0.799,1.977c0.367,0.558,0.828,0.982,1.387,1.272
		C4.893,20.952,5.576,21.098,6.387,21.098z"/>
	<path fill="#331842" d="M14.785,12.13c0-2.559,0.398-4.706,1.197-6.441c0.797-1.734,1.799-3.04,3.002-3.914
		s2.514-1.323,3.932-1.349c1.42-0.025,2.73,0.38,3.934,1.216s2.211,2.115,3.021,3.838c0.811,1.724,1.229,3.876,1.254,6.46
		c0,1.368-0.158,2.692-0.475,3.971c-0.318,1.28-0.799,2.42-1.445,3.421c-0.645,1.001-1.463,1.817-2.449,2.45
		c-0.988,0.634-2.154,0.976-3.496,1.026c-1.496,0.051-2.781-0.209-3.857-0.779c-1.078-0.569-1.957-1.354-2.641-2.355
		c-0.686-1.001-1.186-2.153-1.502-3.458S14.785,13.549,14.785,12.13z M23.088,21.021c1.068,0,1.994-0.266,2.783-0.798
		c0.787-0.532,1.43-1.229,1.924-2.09c0.496-0.861,0.863-1.843,1.105-2.945c0.242-1.102,0.363-2.223,0.363-3.363
		c0-2.128-0.318-3.907-0.953-5.339c-0.637-1.431-1.424-2.495-2.363-3.191c-0.941-0.696-1.963-1.045-3.068-1.045
		s-2.121,0.36-3.049,1.083c-0.928,0.722-1.697,1.805-2.307,3.249c-0.609,1.443-0.902,3.229-0.877,5.357
		c0,1.115,0.102,2.224,0.305,3.325s0.547,2.077,1.029,2.926c0.482,0.85,1.137,1.539,1.963,2.071S21.818,21.047,23.088,21.021z"/>
	<path fill="#331842" d="M37.205,11.521c-0.709,0.025-1.324-0.076-1.844-0.304c-0.52-0.229-0.949-0.532-1.291-0.912
		s-0.596-0.817-0.76-1.312c-0.166-0.493-0.248-1.007-0.248-1.538c0-0.532,0.09-1.046,0.268-1.539
		c0.176-0.494,0.436-0.932,0.777-1.312c0.344-0.38,0.762-0.689,1.254-0.931c0.494-0.24,1.07-0.361,1.73-0.361
		c0.658,0,1.24,0.114,1.748,0.342c0.506,0.229,0.924,0.539,1.254,0.932c0.328,0.393,0.576,0.842,0.74,1.349s0.248,1.026,0.248,1.558
		c0,0.508-0.084,1.002-0.248,1.482c-0.164,0.481-0.412,0.912-0.74,1.292c-0.33,0.38-0.736,0.684-1.217,0.912
		C38.396,11.407,37.838,11.521,37.205,11.521z M37.244,9.964c0.76,0.025,1.328-0.229,1.709-0.76c0.381-0.532,0.57-1.115,0.57-1.748
		c0-0.659-0.203-1.255-0.607-1.786c-0.406-0.532-1.014-0.798-1.824-0.798c-0.76,0.025-1.338,0.304-1.73,0.836
		c-0.393,0.531-0.588,1.127-0.588,1.785c0.025,0.608,0.24,1.173,0.646,1.691C35.824,9.704,36.432,9.964,37.244,9.964z M46.516,0.882
		c0.127-0.305,0.309-0.487,0.551-0.551c0.24-0.063,0.469-0.044,0.684,0.057c0.215,0.102,0.387,0.266,0.514,0.494
		c0.127,0.228,0.127,0.469,0,0.722L39.484,22.39c-0.127,0.254-0.303,0.399-0.531,0.437c-0.229,0.038-0.449,0.007-0.664-0.095
		c-0.217-0.101-0.381-0.253-0.494-0.456c-0.115-0.202-0.109-0.442,0.018-0.722L46.516,0.882z M49.402,19.008
		c-0.709,0.025-1.322-0.076-1.842-0.304c-0.52-0.229-0.951-0.538-1.293-0.932c-0.342-0.393-0.596-0.836-0.76-1.33
		s-0.246-1.007-0.246-1.539c0-0.531,0.088-1.045,0.266-1.539c0.178-0.493,0.438-0.931,0.779-1.311s0.76-0.69,1.254-0.931
		c0.494-0.241,1.07-0.361,1.729-0.361s1.24,0.12,1.748,0.361c0.506,0.24,0.924,0.551,1.254,0.931s0.576,0.823,0.74,1.33
		c0.166,0.507,0.248,1.025,0.248,1.558c0,0.507-0.082,1.001-0.248,1.482c-0.164,0.481-0.41,0.912-0.74,1.292
		s-0.734,0.69-1.215,0.931C50.594,18.888,50.037,19.008,49.402,19.008z M49.441,17.411c0.785,0.026,1.361-0.228,1.729-0.76
		s0.551-1.114,0.551-1.748c0-0.658-0.203-1.254-0.607-1.786c-0.406-0.531-1.014-0.798-1.824-0.798
		c-0.76,0.052-1.336,0.336-1.729,0.855s-0.59,1.108-0.59,1.767c0.025,0.608,0.24,1.172,0.646,1.691
		C48.021,17.152,48.631,17.411,49.441,17.411z"/>
</g>
</svg>
