<?xml version="1.0" encoding="utf-8"?>
<!-- Generator: Adobe Illustrator 16.0.0, SVG Export Plug-In . SVG Version: 6.00 Build 0)  -->
<!DOCTYPE svg PUBLIC "-//W3C//DTD SVG 1.1//EN" "http://www.w3.org/Graphics/SVG/1.1/DTD/svg11.dtd">
<svg version="1.1" id="Capa_1" xmlns="http://www.w3.org/2000/svg" xmlns:xlink="http://www.w3.org/1999/xlink" x="0px" y="0px"
	 width="27.258px" height="39px" viewBox="0 0 27.258 39" enable-background="new 0 0 27.258 39" xml:space="preserve">
<g>
	<rect fill="#A0C219" width="27.258" height="39"/>
	
		<path fill="#331842" stroke="#331842" stroke-width="2" stroke-linecap="round" stroke-linejoin="round" stroke-miterlimit="10" d="
		M15.092,12.587c0.016-0.215,0.088-0.375,0.213-0.475s0.262-0.15,0.412-0.15s0.283,0.051,0.4,0.15c0.115,0.1,0.182,0.26,0.199,0.475
		c0,0.617,0.004,1.205,0.012,1.764c0.01,0.559,0.018,1.111,0.025,1.662s0.021,1.113,0.037,1.688
		c0.018,0.574,0.025,1.188,0.025,1.838l0.951-0.025c0.199,0,0.34,0.062,0.424,0.188s0.125,0.268,0.125,0.426
		s-0.049,0.309-0.15,0.449c-0.1,0.143-0.24,0.213-0.424,0.213h-0.926l0.076,5.775c-0.051,0.184-0.135,0.316-0.25,0.398
		c-0.117,0.084-0.242,0.125-0.375,0.125c-0.135,0-0.26-0.041-0.375-0.125c-0.117-0.082-0.193-0.215-0.227-0.398l-0.074-5.775
		l-4.574,0.074c-0.512,0-0.844-0.111-0.996-0.338c-0.152-0.225-0.23-0.512-0.23-0.861l-0.049-7.1
		c0.016-0.217,0.088-0.379,0.215-0.488c0.129-0.107,0.264-0.162,0.408-0.162s0.281,0.055,0.41,0.162
		c0.127,0.109,0.199,0.271,0.217,0.488l0.049,7.074l4.551-0.1c0-0.666-0.008-1.283-0.025-1.85c-0.016-0.566-0.029-1.125-0.037-1.676
		s-0.018-1.1-0.025-1.65C15.096,13.813,15.092,13.222,15.092,12.587z"/>
</g>
</svg>
