<?xml version="1.0" encoding="utf-8"?>
<!-- Generator: Adobe Illustrator 16.0.0, SVG Export Plug-In . SVG Version: 6.00 Build 0)  -->
<!DOCTYPE svg PUBLIC "-//W3C//DTD SVG 1.1//EN" "http://www.w3.org/Graphics/SVG/1.1/DTD/svg11.dtd">
<svg version="1.1" id="Capa_1" xmlns="http://www.w3.org/2000/svg" xmlns:xlink="http://www.w3.org/1999/xlink" x="0px" y="0px"
	 width="27.259px" height="39px" viewBox="0 0 27.259 39" enable-background="new 0 0 27.259 39" xml:space="preserve">
<g>
	<rect fill="#A0C219" width="27.259" height="39"/>
	
		<path fill="#331842" stroke="#331842" stroke-width="2" stroke-linecap="round" stroke-linejoin="round" stroke-miterlimit="10" d="
		M18.449,22.815c0,1.084-0.316,1.945-0.951,2.588c-0.633,0.641-1.416,1.084-2.35,1.324c-0.934,0.242-1.934,0.301-3,0.176
		S10.1,26.491,9.199,26.04c-0.217-0.1-0.341-0.229-0.374-0.387s-0.014-0.305,0.062-0.438c0.075-0.133,0.188-0.234,0.338-0.301
		c0.148-0.066,0.299-0.059,0.449,0.025c0.449,0.234,0.949,0.412,1.5,0.537s1.103,0.197,1.662,0.213
		c0.559,0.018,1.1-0.029,1.626-0.137c0.524-0.109,0.991-0.279,1.398-0.514c0.409-0.232,0.738-0.529,0.988-0.887
		c0.25-0.359,0.376-0.787,0.376-1.287c0-0.934-0.521-1.643-1.563-2.125c-1.042-0.484-2.562-0.65-4.562-0.5
		c-0.301,0.033-0.509-0.01-0.624-0.125c-0.117-0.117-0.168-0.25-0.15-0.4c0.016-0.15,0.082-0.287,0.199-0.412
		s0.268-0.188,0.451-0.188c0.949,0,1.77-0.084,2.461-0.25c0.691-0.168,1.268-0.4,1.726-0.701c0.458-0.299,0.801-0.645,1.024-1.037
		c0.227-0.391,0.338-0.812,0.338-1.262c0-0.635-0.226-1.154-0.675-1.562c-0.451-0.408-1.009-0.691-1.675-0.852
		c-0.666-0.158-1.378-0.191-2.137-0.1c-0.761,0.092-1.438,0.312-2.04,0.662c-0.148,0.084-0.285,0.092-0.411,0.025
		c-0.124-0.066-0.222-0.166-0.288-0.299c-0.066-0.135-0.084-0.275-0.051-0.426s0.126-0.275,0.276-0.375
		c0.801-0.449,1.672-0.732,2.613-0.85c0.94-0.117,1.825-0.055,2.65,0.188c0.824,0.242,1.52,0.666,2.086,1.275
		c0.566,0.607,0.858,1.412,0.874,2.412c0,0.717-0.199,1.371-0.6,1.963s-0.916,1.053-1.549,1.387
		c0.383,0.117,0.745,0.287,1.087,0.512c0.342,0.227,0.644,0.492,0.904,0.801c0.262,0.309,0.47,0.646,0.624,1.012
		C18.372,22.007,18.449,22.399,18.449,22.815z"/>
</g>
</svg>
