<?xml version="1.0" encoding="utf-8"?>
<!-- Generator: Adobe Illustrator 16.0.0, SVG Export Plug-In . SVG Version: 6.00 Build 0)  -->
<!DOCTYPE svg PUBLIC "-//W3C//DTD SVG 1.1//EN" "http://www.w3.org/Graphics/SVG/1.1/DTD/svg11.dtd">
<svg version="1.1" id="Capa_1" xmlns="http://www.w3.org/2000/svg" xmlns:xlink="http://www.w3.org/1999/xlink" x="0px" y="0px"
	 width="27.258px" height="39px" viewBox="0 0 27.258 39" enable-background="new 0 0 27.258 39" xml:space="preserve">
<g>
	<rect fill="#A0C219" width="27.258" height="39"/>
	
		<path fill="#331842" stroke="#331842" stroke-width="2" stroke-linecap="round" stroke-linejoin="round" stroke-miterlimit="10" d="
		M10.496,19.848c-0.283,0-0.467-0.083-0.549-0.25c-0.117-0.083-0.176-0.226-0.176-0.425c-0.018-0.351-0.029-0.759-0.037-1.226
		c-0.01-0.466-0.018-0.954-0.025-1.462c-0.008-0.509-0.018-1.017-0.025-1.525c-0.008-0.508-0.012-0.971-0.012-1.388
		c0-0.5,0.107-0.804,0.324-0.912s0.533-0.171,0.951-0.188c0.766-0.033,1.637-0.062,2.611-0.088c0.975-0.024,1.896-0.021,2.764,0.013
		c0.215,0.033,0.369,0.117,0.461,0.25c0.092,0.134,0.129,0.271,0.113,0.412c-0.018,0.143-0.084,0.271-0.199,0.388
		c-0.117,0.117-0.285,0.175-0.5,0.175c-0.451-0.016-0.926-0.033-1.426-0.05s-0.988-0.028-1.463-0.037s-0.92-0.009-1.338,0
		c-0.416,0.009-0.773,0.021-1.074,0.037c-0.051,0.367-0.074,0.779-0.074,1.237c0,0.459,0.008,0.922,0.023,1.388
		c0.018,0.467,0.039,0.913,0.062,1.338c0.025,0.425,0.039,0.787,0.039,1.087c1.115-0.016,2.119,0.025,3.012,0.125
		c0.891,0.101,1.641,0.301,2.25,0.601c0.607,0.3,1.078,0.712,1.412,1.237s0.5,1.196,0.5,2.013c0,1.066-0.275,1.904-0.824,2.513
		c-0.551,0.608-1.25,1.029-2.1,1.262c-0.852,0.234-1.775,0.309-2.775,0.226s-1.951-0.283-2.85-0.601
		c-0.201-0.066-0.33-0.179-0.389-0.337s-0.062-0.312-0.012-0.463c0.049-0.149,0.145-0.267,0.287-0.35
		c0.141-0.083,0.305-0.083,0.488,0c0.416,0.184,0.879,0.329,1.387,0.438s1.029,0.167,1.562,0.175
		c0.533,0.009,1.045-0.033,1.537-0.125s0.93-0.25,1.312-0.475c0.383-0.226,0.688-0.521,0.912-0.888
		c0.227-0.366,0.33-0.809,0.312-1.325c-0.033-0.75-0.258-1.316-0.674-1.7c-0.418-0.383-0.941-0.658-1.576-0.825
		c-0.633-0.166-1.324-0.254-2.074-0.262C11.896,19.852,11.18,19.848,10.496,19.848z"/>
</g>
</svg>
