<?xml version="1.0" encoding="utf-8"?>
<!-- Generator: Adobe Illustrator 16.0.0, SVG Export Plug-In . SVG Version: 6.00 Build 0)  -->
<!DOCTYPE svg PUBLIC "-//W3C//DTD SVG 1.1//EN" "http://www.w3.org/Graphics/SVG/1.1/DTD/svg11.dtd">
<svg version="1.1" id="Capa_1" xmlns="http://www.w3.org/2000/svg" xmlns:xlink="http://www.w3.org/1999/xlink" x="0px" y="0px"
	 width="954.482px" height="345.767px" viewBox="0 0 954.482 345.767" enable-background="new 0 0 954.482 345.767"
	 xml:space="preserve">
<g>
	<g>
		
			<rect x="71.106" y="41.375" opacity="0.5" fill="#0093AF" stroke="#331842" stroke-width="0.75" stroke-miterlimit="10" width="824.752" height="39"/>
		
			<rect x="71.106" y="80.375" fill="none" stroke="#331842" stroke-width="0.75" stroke-miterlimit="10" width="27.257" height="39"/>
		
			<rect x="98.363" y="80.375" fill="none" stroke="#331842" stroke-width="0.75" stroke-miterlimit="10" width="27.256" height="39"/>
		
			<rect x="125.619" y="80.375" fill="none" stroke="#331842" stroke-width="0.75" stroke-miterlimit="10" width="27.258" height="39"/>
		
			<rect x="152.877" y="80.375" fill="none" stroke="#331842" stroke-width="0.75" stroke-miterlimit="10" width="27.256" height="39"/>
		
			<rect x="180.133" y="80.375" fill="none" stroke="#331842" stroke-width="0.75" stroke-miterlimit="10" width="27.257" height="39"/>
		
			<rect x="207.39" y="80.375" fill="none" stroke="#331842" stroke-width="0.75" stroke-miterlimit="10" width="27.257" height="39"/>
		
			<rect x="234.646" y="80.375" fill="none" stroke="#331842" stroke-width="0.75" stroke-miterlimit="10" width="27.256" height="39"/>
		
			<rect x="261.902" y="80.375" fill="none" stroke="#331842" stroke-width="0.75" stroke-miterlimit="10" width="27.258" height="39"/>
		
			<rect x="289.16" y="80.375" fill="#331842" stroke="#331842" stroke-width="0.75" stroke-miterlimit="10" width="27.256" height="39"/>
		
			<rect x="316.416" y="80.375" fill="#331842" stroke="#331842" stroke-width="0.75" stroke-miterlimit="10" width="27.257" height="39"/>
		
			<rect x="346.984" y="80.375" fill="none" stroke="#331842" stroke-width="0.75" stroke-miterlimit="10" width="27.258" height="39"/>
		
			<rect x="374.242" y="80.375" fill="none" stroke="#331842" stroke-width="0.75" stroke-miterlimit="10" width="27.256" height="39"/>
		
			<rect x="401.498" y="80.375" fill="none" stroke="#331842" stroke-width="0.75" stroke-miterlimit="10" width="27.257" height="39"/>
		
			<rect x="428.755" y="80.375" fill="none" stroke="#331842" stroke-width="0.75" stroke-miterlimit="10" width="27.257" height="39"/>
		
			<rect x="456.012" y="80.375" fill="none" stroke="#331842" stroke-width="0.75" stroke-miterlimit="10" width="27.256" height="39"/>
		
			<rect x="483.268" y="80.375" fill="none" stroke="#331842" stroke-width="0.75" stroke-miterlimit="10" width="27.258" height="39"/>
		
			<rect x="510.525" y="80.375" fill="none" stroke="#331842" stroke-width="0.75" stroke-miterlimit="10" width="27.256" height="39"/>
		
			<rect x="537.781" y="80.375" fill="none" stroke="#331842" stroke-width="0.75" stroke-miterlimit="10" width="27.257" height="39"/>
		
			<rect x="565.038" y="80.375" fill="#331842" stroke="#331842" stroke-width="0.75" stroke-miterlimit="10" width="27.257" height="39"/>
		
			<rect x="592.295" y="80.375" fill="#331842" stroke="#331842" stroke-width="0.75" stroke-miterlimit="10" width="27.256" height="39"/>
		
			<rect x="623.292" y="80.375" fill="none" stroke="#331842" stroke-width="0.75" stroke-miterlimit="10" width="27.257" height="39"/>
		
			<rect x="650.549" y="80.375" fill="none" stroke="#331842" stroke-width="0.75" stroke-miterlimit="10" width="27.256" height="39"/>
		
			<rect x="677.805" y="80.375" fill="none" stroke="#331842" stroke-width="0.75" stroke-miterlimit="10" width="27.258" height="39"/>
		
			<rect x="705.062" y="80.375" fill="none" stroke="#331842" stroke-width="0.75" stroke-miterlimit="10" width="27.256" height="39"/>
		
			<rect x="732.318" y="80.375" fill="none" stroke="#331842" stroke-width="0.75" stroke-miterlimit="10" width="27.257" height="39"/>
		
			<rect x="759.575" y="80.375" fill="none" stroke="#331842" stroke-width="0.75" stroke-miterlimit="10" width="27.257" height="39"/>
		
			<rect x="786.832" y="80.375" fill="none" stroke="#331842" stroke-width="0.75" stroke-miterlimit="10" width="27.256" height="39"/>
		
			<rect x="814.088" y="80.375" fill="none" stroke="#331842" stroke-width="0.75" stroke-miterlimit="10" width="27.258" height="39"/>
		
			<rect x="841.346" y="80.375" fill="#331842" stroke="#331842" stroke-width="0.75" stroke-miterlimit="10" width="27.256" height="39"/>
		
			<rect x="868.602" y="80.375" fill="#331842" stroke="#331842" stroke-width="0.75" stroke-miterlimit="10" width="27.257" height="39"/>
		
			<rect x="71.106" y="0.375" fill="#0093AF" stroke="#331842" stroke-width="0.75" stroke-miterlimit="10" width="824.752" height="39"/>
		
			<rect x="71.106" y="41.375" fill="none" stroke="#331842" stroke-width="0.75" stroke-miterlimit="10" width="824.752" height="39"/>
		<g>
			<g>
				<path fill="#331842" d="M384.945,65.147h-1.784v-6.723c-0.651,0.609-1.419,1.061-2.304,1.353v-1.618
					c0.466-0.152,0.972-0.441,1.517-0.867c0.547-0.425,0.921-0.921,1.124-1.488h1.447V65.147z"/>
				<path fill="#331842" d="M387.992,65.147v-1.783h1.783v1.783H387.992z"/>
				<path fill="#331842" d="M401.184,61.726l1.821,0.578c-0.279,1.016-0.744,1.77-1.394,2.263s-1.474,0.739-2.473,0.739
					c-1.235,0-2.251-0.422-3.047-1.266c-0.795-0.845-1.193-1.999-1.193-3.463c0-1.549,0.4-2.752,1.2-3.608
					c0.8-0.857,1.852-1.286,3.155-1.286c1.138,0,2.062,0.337,2.773,1.01c0.423,0.397,0.74,0.969,0.952,1.714l-1.86,0.444
					c-0.109-0.482-0.339-0.863-0.688-1.143c-0.349-0.279-0.773-0.419-1.272-0.419c-0.689,0-1.249,0.247-1.679,0.743
					c-0.43,0.494-0.645,1.297-0.645,2.405c0,1.177,0.212,2.015,0.635,2.514s0.974,0.749,1.65,0.749c0.499,0,0.929-0.158,1.288-0.477
					C400.769,62.907,401.026,62.407,401.184,61.726z"/>
				<path fill="#331842" d="M404.191,61.682c0-0.593,0.146-1.166,0.438-1.72c0.291-0.555,0.705-0.979,1.24-1.27
					c0.535-0.293,1.133-0.438,1.793-0.438c1.021,0,1.856,0.331,2.508,0.993s0.978,1.499,0.978,2.511c0,1.02-0.329,1.865-0.987,2.536
					s-1.486,1.006-2.484,1.006c-0.618,0-1.208-0.14-1.769-0.419s-0.987-0.688-1.278-1.229
					C404.337,63.113,404.191,62.456,404.191,61.682z M406.02,61.776c0,0.669,0.159,1.182,0.476,1.537
					c0.318,0.355,0.709,0.533,1.175,0.533s0.855-0.178,1.171-0.533s0.473-0.872,0.473-1.549c0-0.66-0.157-1.168-0.473-1.523
					s-0.705-0.533-1.171-0.533s-0.856,0.178-1.175,0.533C406.179,60.597,406.02,61.108,406.02,61.776z M406.769,57.581l0.876-1.898
					h1.999l-1.745,1.898H406.769z"/>
				<path fill="#331842" d="M418.727,65.147h-1.656v-0.99c-0.275,0.385-0.6,0.672-0.975,0.86c-0.374,0.188-0.752,0.282-1.133,0.282
					c-0.774,0-1.438-0.312-1.99-0.937c-0.552-0.624-0.828-1.495-0.828-2.612c0-1.143,0.269-2.011,0.807-2.605
					c0.537-0.595,1.216-0.892,2.037-0.892c0.753,0,1.405,0.313,1.955,0.939v-3.352h1.783V65.147z M413.967,61.631
					c0,0.72,0.099,1.24,0.298,1.562c0.288,0.466,0.689,0.698,1.206,0.698c0.41,0,0.76-0.175,1.047-0.523
					c0.288-0.35,0.432-0.871,0.432-1.565c0-0.773-0.139-1.331-0.418-1.672s-0.638-0.512-1.073-0.512
					c-0.423,0-0.777,0.169-1.063,0.505C414.109,60.46,413.967,60.962,413.967,61.631z"/>
				<path fill="#331842" d="M420.486,57.492v-1.65h1.783v1.65H420.486z M420.486,65.147v-6.741h1.783v6.741H420.486z"/>
				<path fill="#331842" d="M423.932,65.592l2.038,0.247c0.034,0.237,0.112,0.4,0.235,0.489c0.169,0.127,0.436,0.19,0.799,0.19
					c0.466,0,0.815-0.07,1.048-0.209c0.156-0.094,0.275-0.244,0.355-0.451c0.055-0.148,0.083-0.421,0.083-0.818v-0.984
					c-0.533,0.728-1.207,1.092-2.02,1.092c-0.905,0-1.622-0.383-2.151-1.148c-0.415-0.605-0.622-1.359-0.622-2.26
					c0-1.131,0.271-1.994,0.815-2.59c0.544-0.598,1.22-0.896,2.028-0.896c0.834,0,1.521,0.366,2.062,1.099v-0.946h1.67v6.05
					c0,0.795-0.065,1.39-0.197,1.783c-0.131,0.394-0.314,0.702-0.552,0.927s-0.554,0.399-0.949,0.526s-0.896,0.191-1.501,0.191
					c-1.143,0-1.953-0.196-2.432-0.588c-0.478-0.392-0.717-0.888-0.717-1.488C423.926,65.748,423.928,65.677,423.932,65.592z
					 M425.525,61.638c0,0.715,0.139,1.238,0.416,1.57s0.619,0.498,1.025,0.498c0.436,0,0.804-0.17,1.104-0.511
					c0.301-0.341,0.451-0.845,0.451-1.514c0-0.698-0.144-1.217-0.432-1.556c-0.288-0.338-0.651-0.508-1.092-0.508
					c-0.428,0-0.779,0.167-1.057,0.499S425.525,60.956,425.525,61.638z"/>
				<path fill="#331842" d="M431.626,61.682c0-0.593,0.146-1.166,0.438-1.72c0.291-0.555,0.705-0.979,1.24-1.27
					c0.535-0.293,1.133-0.438,1.793-0.438c1.021,0,1.856,0.331,2.508,0.993s0.978,1.499,0.978,2.511c0,1.02-0.329,1.865-0.987,2.536
					s-1.486,1.006-2.484,1.006c-0.618,0-1.208-0.14-1.769-0.419s-0.987-0.688-1.278-1.229
					C431.771,63.113,431.626,62.456,431.626,61.682z M433.454,61.776c0,0.669,0.159,1.182,0.476,1.537
					c0.318,0.355,0.709,0.533,1.175,0.533s0.855-0.178,1.171-0.533s0.473-0.872,0.473-1.549c0-0.66-0.157-1.168-0.473-1.523
					s-0.705-0.533-1.171-0.533s-0.856,0.178-1.175,0.533C433.613,60.597,433.454,61.108,433.454,61.776z"/>
				<path fill="#331842" d="M439.352,63.224l1.79-0.272c0.076,0.347,0.23,0.61,0.464,0.79c0.232,0.18,0.559,0.27,0.977,0.27
					c0.462,0,0.809-0.084,1.041-0.254c0.157-0.118,0.235-0.276,0.235-0.476c0-0.136-0.042-0.247-0.127-0.337
					c-0.089-0.084-0.288-0.162-0.597-0.234c-1.438-0.317-2.351-0.607-2.736-0.869c-0.533-0.364-0.799-0.87-0.799-1.518
					c0-0.584,0.23-1.075,0.691-1.473s1.177-0.597,2.146-0.597c0.923,0,1.608,0.15,2.057,0.45c0.448,0.301,0.758,0.745,0.927,1.334
					l-1.682,0.311c-0.072-0.263-0.209-0.463-0.41-0.604c-0.201-0.139-0.487-0.209-0.859-0.209c-0.471,0-0.807,0.065-1.01,0.197
					c-0.136,0.093-0.203,0.213-0.203,0.361c0,0.127,0.06,0.234,0.178,0.324c0.161,0.118,0.716,0.285,1.666,0.501
					s1.613,0.48,1.99,0.794c0.372,0.316,0.559,0.759,0.559,1.326c0,0.618-0.258,1.148-0.774,1.594
					c-0.517,0.443-1.28,0.666-2.292,0.666c-0.918,0-1.645-0.187-2.18-0.559S439.517,63.863,439.352,63.224z"/>
				<path fill="#331842" d="M450.848,65.147v-9.306h6.379v1.574h-4.5v2.202h3.885v1.574h-3.885v3.955H450.848z"/>
				<path fill="#331842" d="M463.199,65.147v-1.01c-0.245,0.36-0.568,0.644-0.968,0.852c-0.4,0.207-0.822,0.311-1.267,0.311
					c-0.453,0-0.859-0.1-1.219-0.299c-0.359-0.198-0.62-0.478-0.78-0.838c-0.161-0.359-0.242-0.856-0.242-1.491v-4.266h1.784v3.098
					c0,0.948,0.033,1.528,0.099,1.742s0.185,0.383,0.358,0.508s0.394,0.188,0.66,0.188c0.305,0,0.577-0.084,0.819-0.251
					c0.24-0.167,0.406-0.374,0.494-0.622c0.09-0.247,0.134-0.854,0.134-1.818v-2.844h1.784v6.741H463.199z"/>
				<path fill="#331842" d="M472.834,65.147h-1.783v-3.44c0-0.728-0.038-1.198-0.114-1.412s-0.2-0.38-0.371-0.499
					c-0.172-0.118-0.378-0.178-0.619-0.178c-0.309,0-0.586,0.085-0.831,0.254c-0.246,0.17-0.414,0.395-0.505,0.674
					s-0.137,0.795-0.137,1.549v3.053h-1.784v-6.741h1.657v0.99c0.588-0.762,1.329-1.143,2.222-1.143
					c0.394,0,0.753,0.071,1.079,0.213s0.572,0.322,0.739,0.542c0.167,0.221,0.284,0.471,0.35,0.75s0.098,0.679,0.098,1.199V65.147z"
					/>
				<path fill="#331842" d="M480.521,60.399l-1.758,0.317c-0.06-0.352-0.193-0.616-0.403-0.794
					c-0.209-0.178-0.481-0.266-0.815-0.266c-0.444,0-0.799,0.153-1.063,0.46s-0.396,0.819-0.396,1.539
					c0,0.8,0.135,1.364,0.403,1.694s0.629,0.496,1.082,0.496c0.339,0,0.615-0.097,0.832-0.289c0.215-0.192,0.367-0.523,0.457-0.994
					l1.752,0.299c-0.183,0.804-0.531,1.411-1.048,1.822c-0.517,0.41-1.208,0.615-2.075,0.615c-0.986,0-1.772-0.311-2.358-0.934
					c-0.586-0.621-0.88-1.482-0.88-2.583c0-1.113,0.295-1.979,0.883-2.6s1.384-0.93,2.387-0.93c0.821,0,1.474,0.177,1.958,0.53
					S480.311,59.676,480.521,60.399z"/>
				<path fill="#331842" d="M481.875,57.492v-1.65h1.783v1.65H481.875z M481.875,65.147v-6.741h1.783v6.741H481.875z"/>
				<path fill="#331842" d="M485.073,61.682c0-0.593,0.146-1.166,0.438-1.72c0.291-0.555,0.705-0.979,1.24-1.27
					c0.535-0.293,1.133-0.438,1.793-0.438c1.021,0,1.856,0.331,2.508,0.993s0.978,1.499,0.978,2.511c0,1.02-0.329,1.865-0.987,2.536
					s-1.486,1.006-2.484,1.006c-0.618,0-1.208-0.14-1.769-0.419s-0.987-0.688-1.278-1.229
					C485.219,63.113,485.073,62.456,485.073,61.682z M486.901,61.776c0,0.669,0.159,1.182,0.476,1.537
					c0.318,0.355,0.709,0.533,1.175,0.533s0.855-0.178,1.171-0.533s0.473-0.872,0.473-1.549c0-0.66-0.157-1.168-0.473-1.523
					s-0.705-0.533-1.171-0.533s-0.856,0.178-1.175,0.533C487.061,60.597,486.901,61.108,486.901,61.776z"/>
				<path fill="#331842" d="M499.559,65.147h-1.783v-3.44c0-0.728-0.038-1.198-0.114-1.412s-0.2-0.38-0.371-0.499
					c-0.172-0.118-0.378-0.178-0.619-0.178c-0.309,0-0.586,0.085-0.831,0.254c-0.246,0.17-0.414,0.395-0.505,0.674
					s-0.137,0.795-0.137,1.549v3.053h-1.784v-6.741h1.657v0.99c0.588-0.762,1.329-1.143,2.222-1.143
					c0.394,0,0.753,0.071,1.079,0.213s0.572,0.322,0.739,0.542c0.167,0.221,0.284,0.471,0.35,0.75s0.098,0.679,0.098,1.199V65.147z"
					/>
				<path fill="#331842" d="M505.271,63.002l1.777,0.298c-0.229,0.652-0.589,1.148-1.082,1.489s-1.11,0.511-1.851,0.511
					c-1.172,0-2.04-0.383-2.603-1.148c-0.444-0.614-0.667-1.389-0.667-2.324c0-1.117,0.293-1.991,0.877-2.624
					s1.322-0.949,2.215-0.949c1.003,0,1.794,0.331,2.374,0.993s0.856,1.677,0.831,3.044h-4.469c0.014,0.529,0.157,0.94,0.432,1.234
					c0.275,0.294,0.618,0.441,1.029,0.441c0.279,0,0.514-0.076,0.704-0.229S505.174,63.341,505.271,63.002z M505.373,61.199
					c-0.013-0.517-0.146-0.909-0.399-1.178s-0.563-0.403-0.928-0.403c-0.389,0-0.711,0.143-0.965,0.426s-0.378,0.669-0.374,1.155
					H505.373z"/>
				<path fill="#331842" d="M507.969,63.224l1.79-0.272c0.076,0.347,0.23,0.61,0.464,0.79c0.232,0.18,0.559,0.27,0.977,0.27
					c0.462,0,0.809-0.084,1.041-0.254c0.157-0.118,0.235-0.276,0.235-0.476c0-0.136-0.042-0.247-0.127-0.337
					c-0.089-0.084-0.288-0.162-0.597-0.234c-1.438-0.317-2.351-0.607-2.736-0.869c-0.533-0.364-0.799-0.87-0.799-1.518
					c0-0.584,0.23-1.075,0.691-1.473s1.177-0.597,2.146-0.597c0.923,0,1.608,0.15,2.057,0.45c0.448,0.301,0.758,0.745,0.927,1.334
					l-1.682,0.311c-0.072-0.263-0.209-0.463-0.41-0.604c-0.201-0.139-0.487-0.209-0.859-0.209c-0.471,0-0.807,0.065-1.01,0.197
					c-0.136,0.093-0.203,0.213-0.203,0.361c0,0.127,0.06,0.234,0.178,0.324c0.161,0.118,0.716,0.285,1.666,0.501
					s1.613,0.48,1.99,0.794c0.372,0.316,0.559,0.759,0.559,1.326c0,0.618-0.258,1.148-0.774,1.594
					c-0.517,0.443-1.28,0.666-2.292,0.666c-0.918,0-1.645-0.187-2.18-0.559S508.134,63.863,507.969,63.224z"/>
				<path fill="#331842" d="M525.406,61.726l1.821,0.578c-0.279,1.016-0.744,1.77-1.394,2.263s-1.474,0.739-2.473,0.739
					c-1.235,0-2.251-0.422-3.047-1.266c-0.795-0.845-1.193-1.999-1.193-3.463c0-1.549,0.4-2.752,1.2-3.608
					c0.8-0.857,1.852-1.286,3.155-1.286c1.138,0,2.062,0.337,2.773,1.01c0.423,0.397,0.74,0.969,0.952,1.714l-1.86,0.444
					c-0.109-0.482-0.339-0.863-0.688-1.143c-0.349-0.279-0.773-0.419-1.272-0.419c-0.689,0-1.249,0.247-1.679,0.743
					c-0.43,0.494-0.645,1.297-0.645,2.405c0,1.177,0.212,2.015,0.635,2.514s0.974,0.749,1.65,0.749c0.499,0,0.929-0.158,1.288-0.477
					C524.991,62.907,525.249,62.407,525.406,61.726z"/>
				<path fill="#331842" d="M528.415,61.682c0-0.593,0.146-1.166,0.438-1.72c0.291-0.555,0.705-0.979,1.24-1.27
					c0.535-0.293,1.133-0.438,1.793-0.438c1.021,0,1.856,0.331,2.508,0.993s0.978,1.499,0.978,2.511c0,1.02-0.329,1.865-0.987,2.536
					S532.898,65.3,531.9,65.3c-0.618,0-1.208-0.14-1.769-0.419s-0.987-0.688-1.278-1.229
					C528.561,63.113,528.415,62.456,528.415,61.682z M530.243,61.776c0,0.669,0.159,1.182,0.476,1.537
					c0.318,0.355,0.709,0.533,1.175,0.533s0.855-0.178,1.171-0.533s0.473-0.872,0.473-1.549c0-0.66-0.157-1.168-0.473-1.523
					s-0.705-0.533-1.171-0.533s-0.856,0.178-1.175,0.533C530.402,60.597,530.243,61.108,530.243,61.776z"/>
				<path fill="#331842" d="M538.477,65.147h-1.783v-6.741h1.656v0.958c0.283-0.452,0.538-0.751,0.765-0.895
					s0.483-0.216,0.771-0.216c0.406,0,0.798,0.112,1.175,0.337l-0.553,1.555c-0.301-0.194-0.58-0.292-0.838-0.292
					c-0.25,0-0.461,0.068-0.635,0.206s-0.31,0.387-0.409,0.746s-0.149,1.113-0.149,2.26V65.147z"/>
				<path fill="#331842" d="M541.777,58.406h1.662v0.99c0.217-0.339,0.508-0.613,0.877-0.825c0.367-0.212,0.776-0.317,1.225-0.317
					c0.783,0,1.447,0.307,1.993,0.921c0.546,0.613,0.819,1.468,0.819,2.564c0,1.125-0.275,2-0.826,2.624
					c-0.55,0.624-1.216,0.937-1.999,0.937c-0.372,0-0.71-0.074-1.013-0.223c-0.303-0.147-0.621-0.401-0.955-0.762v3.396h-1.783
					V58.406z M543.541,61.663c0,0.757,0.15,1.316,0.451,1.679c0.301,0.361,0.666,0.542,1.098,0.542c0.415,0,0.76-0.166,1.035-0.498
					s0.412-0.877,0.412-1.635c0-0.706-0.142-1.23-0.425-1.574c-0.283-0.342-0.635-0.514-1.054-0.514
					c-0.436,0-0.798,0.168-1.086,0.505C543.686,60.504,543.541,61.003,543.541,61.663z"/>
				<path fill="#331842" d="M549.356,61.682c0-0.593,0.146-1.166,0.438-1.72c0.291-0.555,0.705-0.979,1.24-1.27
					c0.535-0.293,1.133-0.438,1.793-0.438c1.021,0,1.856,0.331,2.508,0.993s0.978,1.499,0.978,2.511c0,1.02-0.329,1.865-0.987,2.536
					s-1.486,1.006-2.484,1.006c-0.618,0-1.208-0.14-1.769-0.419s-0.987-0.688-1.278-1.229
					C549.502,63.113,549.356,62.456,549.356,61.682z M551.185,61.776c0,0.669,0.159,1.182,0.476,1.537
					c0.318,0.355,0.709,0.533,1.175,0.533s0.855-0.178,1.171-0.533s0.473-0.872,0.473-1.549c0-0.66-0.157-1.168-0.473-1.523
					s-0.705-0.533-1.171-0.533s-0.856,0.178-1.175,0.533C551.344,60.597,551.185,61.108,551.185,61.776z"/>
				<path fill="#331842" d="M559.417,65.147h-1.783v-6.741h1.656v0.958c0.283-0.452,0.538-0.751,0.765-0.895
					s0.483-0.216,0.771-0.216c0.406,0,0.798,0.112,1.175,0.337l-0.553,1.555c-0.301-0.194-0.58-0.292-0.838-0.292
					c-0.25,0-0.461,0.068-0.635,0.206s-0.31,0.387-0.409,0.746s-0.149,1.113-0.149,2.26V65.147z"/>
				<path fill="#331842" d="M564.102,60.463l-1.618-0.292c0.182-0.651,0.495-1.134,0.939-1.447s1.104-0.47,1.98-0.47
					c0.796,0,1.388,0.094,1.777,0.282s0.663,0.428,0.822,0.718c0.158,0.29,0.237,0.821,0.237,1.597l-0.019,2.082
					c0,0.592,0.028,1.029,0.086,1.311c0.057,0.281,0.164,0.583,0.32,0.904h-1.765c-0.047-0.118-0.104-0.294-0.172-0.527
					c-0.029-0.105-0.051-0.175-0.062-0.209c-0.305,0.296-0.631,0.519-0.979,0.666c-0.347,0.148-0.717,0.223-1.11,0.223
					c-0.694,0-1.241-0.188-1.641-0.564c-0.4-0.377-0.601-0.854-0.601-1.429c0-0.381,0.092-0.721,0.273-1.019
					c0.182-0.299,0.437-0.527,0.765-0.686c0.328-0.159,0.801-0.298,1.419-0.416c0.834-0.156,1.411-0.303,1.732-0.438v-0.178
					c0-0.344-0.084-0.588-0.254-0.733c-0.169-0.146-0.488-0.22-0.958-0.22c-0.317,0-0.565,0.062-0.743,0.188
					S564.212,60.149,564.102,60.463z M566.488,61.91c-0.229,0.076-0.59,0.167-1.085,0.272c-0.495,0.106-0.819,0.21-0.972,0.312
					c-0.232,0.165-0.349,0.374-0.349,0.628c0,0.25,0.093,0.466,0.279,0.648c0.187,0.182,0.423,0.272,0.711,0.272
					c0.321,0,0.628-0.105,0.921-0.317c0.215-0.161,0.357-0.357,0.425-0.59c0.047-0.152,0.069-0.442,0.069-0.87V61.91z"/>
				<path fill="#331842" d="M569.999,65.147v-9.306h1.783v9.306H569.999z"/>
				<path fill="#331842" d="M577.515,63.002l1.777,0.298c-0.229,0.652-0.589,1.148-1.082,1.489s-1.11,0.511-1.851,0.511
					c-1.172,0-2.04-0.383-2.603-1.148c-0.444-0.614-0.667-1.389-0.667-2.324c0-1.117,0.293-1.991,0.877-2.624
					s1.322-0.949,2.215-0.949c1.003,0,1.794,0.331,2.374,0.993s0.856,1.677,0.831,3.044h-4.469c0.014,0.529,0.157,0.94,0.432,1.234
					c0.275,0.294,0.618,0.441,1.029,0.441c0.279,0,0.514-0.076,0.704-0.229S577.417,63.341,577.515,63.002z M577.616,61.199
					c-0.013-0.517-0.146-0.909-0.399-1.178s-0.563-0.403-0.928-0.403c-0.389,0-0.711,0.143-0.965,0.426s-0.378,0.669-0.374,1.155
					H577.616z"/>
				<path fill="#331842" d="M580.212,63.224l1.79-0.272c0.076,0.347,0.23,0.61,0.464,0.79c0.232,0.18,0.559,0.27,0.977,0.27
					c0.462,0,0.809-0.084,1.041-0.254c0.157-0.118,0.235-0.276,0.235-0.476c0-0.136-0.042-0.247-0.127-0.337
					c-0.089-0.084-0.288-0.162-0.597-0.234c-1.438-0.317-2.351-0.607-2.736-0.869c-0.533-0.364-0.799-0.87-0.799-1.518
					c0-0.584,0.23-1.075,0.691-1.473s1.177-0.597,2.146-0.597c0.923,0,1.608,0.15,2.057,0.45c0.448,0.301,0.758,0.745,0.927,1.334
					l-1.682,0.311c-0.072-0.263-0.209-0.463-0.41-0.604c-0.201-0.139-0.487-0.209-0.859-0.209c-0.471,0-0.807,0.065-1.01,0.197
					c-0.136,0.093-0.203,0.213-0.203,0.361c0,0.127,0.06,0.234,0.178,0.324c0.161,0.118,0.716,0.285,1.666,0.501
					s1.613,0.48,1.99,0.794c0.372,0.316,0.559,0.759,0.559,1.326c0,0.618-0.258,1.148-0.774,1.594
					c-0.517,0.443-1.28,0.666-2.292,0.666c-0.918,0-1.645-0.187-2.18-0.559S580.377,63.863,580.212,63.224z"/>
			</g>
		</g>
		
			<rect x="71.106" y="121.875" opacity="0.5" fill="#0093AF" stroke="#331842" stroke-width="0.75" stroke-miterlimit="10" width="824.752" height="39"/>
		
			<rect x="71.106" y="160.875" fill="none" stroke="#331842" stroke-width="0.75" stroke-miterlimit="10" width="27.257" height="39"/>
		
			<rect x="98.363" y="160.875" fill="none" stroke="#331842" stroke-width="0.75" stroke-miterlimit="10" width="27.256" height="39"/>
		
			<rect x="125.619" y="160.875" fill="none" stroke="#331842" stroke-width="0.75" stroke-miterlimit="10" width="27.258" height="39"/>
		
			<rect x="152.877" y="160.875" fill="none" stroke="#331842" stroke-width="0.75" stroke-miterlimit="10" width="27.256" height="39"/>
		
			<rect x="180.133" y="160.875" fill="none" stroke="#331842" stroke-width="0.75" stroke-miterlimit="10" width="27.257" height="39"/>
		
			<rect x="207.39" y="160.875" fill="none" stroke="#331842" stroke-width="0.75" stroke-miterlimit="10" width="27.257" height="39"/>
		
			<rect x="234.646" y="160.875" fill="none" stroke="#331842" stroke-width="0.75" stroke-miterlimit="10" width="27.256" height="39"/>
		
			<rect x="261.902" y="160.875" fill="none" stroke="#331842" stroke-width="0.75" stroke-miterlimit="10" width="27.258" height="39"/>
		
			<rect x="289.16" y="160.875" fill="none" stroke="#331842" stroke-width="0.75" stroke-miterlimit="10" width="27.256" height="39"/>
		
			<rect x="316.416" y="160.875" fill="none" stroke="#331842" stroke-width="0.75" stroke-miterlimit="10" width="27.257" height="39"/>
		
			<rect x="346.984" y="160.875" fill="none" stroke="#331842" stroke-width="0.75" stroke-miterlimit="10" width="27.258" height="39"/>
		
			<rect x="374.242" y="160.875" fill="none" stroke="#331842" stroke-width="0.75" stroke-miterlimit="10" width="27.256" height="39"/>
		
			<rect x="401.498" y="160.875" fill="none" stroke="#331842" stroke-width="0.75" stroke-miterlimit="10" width="27.257" height="39"/>
		
			<rect x="428.755" y="160.875" fill="none" stroke="#331842" stroke-width="0.75" stroke-miterlimit="10" width="27.257" height="39"/>
		
			<rect x="456.012" y="160.875" fill="none" stroke="#331842" stroke-width="0.75" stroke-miterlimit="10" width="27.256" height="39"/>
		
			<rect x="483.268" y="160.875" fill="none" stroke="#331842" stroke-width="0.75" stroke-miterlimit="10" width="27.258" height="39"/>
		
			<rect x="510.525" y="160.875" fill="none" stroke="#331842" stroke-width="0.75" stroke-miterlimit="10" width="27.256" height="39"/>
		
			<rect x="537.781" y="160.875" fill="none" stroke="#331842" stroke-width="0.75" stroke-miterlimit="10" width="27.257" height="39"/>
		
			<rect x="565.038" y="160.875" fill="none" stroke="#331842" stroke-width="0.75" stroke-miterlimit="10" width="27.257" height="39"/>
		
			<rect x="592.295" y="160.875" fill="none" stroke="#331842" stroke-width="0.75" stroke-miterlimit="10" width="27.256" height="39"/>
		
			<rect x="623.292" y="160.875" fill="none" stroke="#331842" stroke-width="0.75" stroke-miterlimit="10" width="27.257" height="39"/>
		
			<rect x="650.549" y="160.875" fill="none" stroke="#331842" stroke-width="0.75" stroke-miterlimit="10" width="27.256" height="39"/>
		
			<rect x="677.805" y="160.875" fill="none" stroke="#331842" stroke-width="0.75" stroke-miterlimit="10" width="27.258" height="39"/>
		
			<rect x="705.062" y="160.875" fill="none" stroke="#331842" stroke-width="0.75" stroke-miterlimit="10" width="27.256" height="39"/>
		
			<rect x="732.318" y="160.875" fill="none" stroke="#331842" stroke-width="0.75" stroke-miterlimit="10" width="27.257" height="39"/>
		
			<rect x="759.575" y="160.875" fill="none" stroke="#331842" stroke-width="0.75" stroke-miterlimit="10" width="27.257" height="39"/>
		
			<rect x="786.832" y="160.875" fill="none" stroke="#331842" stroke-width="0.75" stroke-miterlimit="10" width="27.256" height="39"/>
		
			<rect x="814.088" y="160.875" fill="none" stroke="#331842" stroke-width="0.75" stroke-miterlimit="10" width="27.258" height="39"/>
		
			<rect x="841.346" y="160.875" fill="none" stroke="#331842" stroke-width="0.75" stroke-miterlimit="10" width="27.256" height="39"/>
		
			<rect x="868.602" y="160.875" fill="none" stroke="#331842" stroke-width="0.75" stroke-miterlimit="10" width="27.257" height="39"/>
		
			<rect x="71.106" y="121.875" fill="none" stroke="#331842" stroke-width="0.75" stroke-miterlimit="10" width="824.752" height="39"/>
		
			<rect x="71.106" y="202.375" opacity="0.5" fill="#0093AF" stroke="#331842" stroke-width="0.75" stroke-miterlimit="10" width="824.752" height="39"/>
		
			<rect x="71.106" y="241.375" fill="none" stroke="#331842" stroke-width="0.75" stroke-miterlimit="10" width="27.257" height="39"/>
		
			<rect x="98.363" y="241.375" fill="none" stroke="#331842" stroke-width="0.75" stroke-miterlimit="10" width="27.256" height="39"/>
		
			<rect x="125.619" y="241.375" fill="none" stroke="#331842" stroke-width="0.75" stroke-miterlimit="10" width="27.258" height="39"/>
		
			<rect x="152.877" y="241.375" fill="none" stroke="#331842" stroke-width="0.75" stroke-miterlimit="10" width="27.256" height="39"/>
		
			<rect x="180.133" y="241.375" fill="none" stroke="#331842" stroke-width="0.75" stroke-miterlimit="10" width="27.257" height="39"/>
		
			<rect x="207.39" y="241.375" fill="none" stroke="#331842" stroke-width="0.75" stroke-miterlimit="10" width="27.257" height="39"/>
		
			<rect x="234.646" y="241.375" fill="none" stroke="#331842" stroke-width="0.75" stroke-miterlimit="10" width="27.256" height="39"/>
		
			<rect x="261.902" y="241.375" fill="none" stroke="#331842" stroke-width="0.75" stroke-miterlimit="10" width="27.258" height="39"/>
		
			<rect x="289.16" y="241.375" fill="#331842" stroke="#331842" stroke-width="0.75" stroke-miterlimit="10" width="27.256" height="39"/>
		
			<rect x="316.416" y="241.375" fill="#331842" stroke="#331842" stroke-width="0.75" stroke-miterlimit="10" width="27.257" height="39"/>
		
			<rect x="346.984" y="241.375" fill="none" stroke="#331842" stroke-width="0.75" stroke-miterlimit="10" width="27.258" height="39"/>
		
			<rect x="374.242" y="241.375" fill="none" stroke="#331842" stroke-width="0.75" stroke-miterlimit="10" width="27.256" height="39"/>
		
			<rect x="401.498" y="241.375" fill="none" stroke="#331842" stroke-width="0.75" stroke-miterlimit="10" width="27.257" height="39"/>
		
			<rect x="428.755" y="241.375" fill="none" stroke="#331842" stroke-width="0.75" stroke-miterlimit="10" width="27.257" height="39"/>
		
			<rect x="456.012" y="241.375" fill="none" stroke="#331842" stroke-width="0.75" stroke-miterlimit="10" width="27.256" height="39"/>
		
			<rect x="483.268" y="241.375" fill="none" stroke="#331842" stroke-width="0.75" stroke-miterlimit="10" width="27.258" height="39"/>
		
			<rect x="510.525" y="241.375" fill="none" stroke="#331842" stroke-width="0.75" stroke-miterlimit="10" width="27.256" height="39"/>
		
			<rect x="537.781" y="241.375" fill="none" stroke="#331842" stroke-width="0.75" stroke-miterlimit="10" width="27.257" height="39"/>
		
			<rect x="565.038" y="241.375" fill="#331842" stroke="#331842" stroke-width="0.75" stroke-miterlimit="10" width="27.257" height="39"/>
		
			<rect x="592.295" y="241.375" fill="#331842" stroke="#331842" stroke-width="0.75" stroke-miterlimit="10" width="27.256" height="39"/>
		
			<rect x="623.292" y="241.375" fill="none" stroke="#331842" stroke-width="0.75" stroke-miterlimit="10" width="27.257" height="39"/>
		
			<rect x="650.549" y="241.375" fill="none" stroke="#331842" stroke-width="0.75" stroke-miterlimit="10" width="27.256" height="39"/>
		
			<rect x="677.805" y="241.375" fill="none" stroke="#331842" stroke-width="0.75" stroke-miterlimit="10" width="27.258" height="39"/>
		
			<rect x="705.062" y="241.375" fill="none" stroke="#331842" stroke-width="0.75" stroke-miterlimit="10" width="27.256" height="39"/>
		
			<rect x="732.318" y="241.375" fill="none" stroke="#331842" stroke-width="0.75" stroke-miterlimit="10" width="27.257" height="39"/>
		
			<rect x="759.575" y="241.375" fill="none" stroke="#331842" stroke-width="0.75" stroke-miterlimit="10" width="27.257" height="39"/>
		
			<rect x="786.832" y="241.375" fill="none" stroke="#331842" stroke-width="0.75" stroke-miterlimit="10" width="27.256" height="39"/>
		
			<rect x="814.088" y="241.375" fill="none" stroke="#331842" stroke-width="0.75" stroke-miterlimit="10" width="27.258" height="39"/>
		
			<rect x="841.346" y="241.375" fill="#331842" stroke="#331842" stroke-width="0.75" stroke-miterlimit="10" width="27.256" height="39"/>
		
			<rect x="868.602" y="241.375" fill="#331842" stroke="#331842" stroke-width="0.75" stroke-miterlimit="10" width="27.257" height="39"/>
		
			<rect x="71.106" y="202.375" fill="none" stroke="#331842" stroke-width="0.75" stroke-miterlimit="10" width="824.752" height="39"/>
		<g>
			<g>
				<path fill="#331842" d="M382.784,146.157v1.656h-6.252c0.067-0.626,0.271-1.22,0.609-1.78c0.338-0.561,1.007-1.305,2.006-2.231
					c0.804-0.749,1.297-1.257,1.479-1.523c0.245-0.368,0.368-0.732,0.368-1.092c0-0.397-0.106-0.703-0.32-0.917
					s-0.509-0.321-0.886-0.321c-0.372,0-0.669,0.112-0.889,0.337s-0.347,0.597-0.381,1.117l-1.777-0.178
					c0.105-0.981,0.438-1.687,0.996-2.114c0.559-0.427,1.258-0.641,2.096-0.641c0.918,0,1.64,0.248,2.164,0.742
					c0.524,0.496,0.787,1.111,0.787,1.848c0,0.419-0.075,0.817-0.226,1.196s-0.388,0.775-0.714,1.19
					c-0.216,0.275-0.605,0.671-1.168,1.188c-0.562,0.516-0.919,0.858-1.069,1.027c-0.15,0.17-0.272,0.335-0.365,0.496H382.784z"/>
				<path fill="#331842" d="M384.371,147.813v-1.783h1.783v1.783H384.371z"/>
				<path fill="#331842" d="M397.562,144.392l1.821,0.578c-0.279,1.016-0.744,1.77-1.394,2.263s-1.474,0.739-2.473,0.739
					c-1.235,0-2.251-0.422-3.047-1.266c-0.795-0.845-1.193-1.999-1.193-3.463c0-1.549,0.4-2.752,1.2-3.608
					c0.8-0.857,1.852-1.286,3.155-1.286c1.138,0,2.062,0.337,2.773,1.01c0.423,0.397,0.74,0.969,0.952,1.714l-1.86,0.444
					c-0.109-0.482-0.339-0.863-0.688-1.143c-0.349-0.279-0.773-0.419-1.272-0.419c-0.689,0-1.249,0.247-1.679,0.743
					c-0.43,0.494-0.645,1.297-0.645,2.405c0,1.177,0.212,2.015,0.635,2.514s0.974,0.749,1.65,0.749c0.499,0,0.929-0.158,1.288-0.477
					C397.147,145.573,397.405,145.073,397.562,144.392z"/>
				<path fill="#331842" d="M400.57,144.348c0-0.593,0.146-1.166,0.438-1.72c0.291-0.555,0.705-0.979,1.24-1.27
					c0.535-0.293,1.133-0.438,1.793-0.438c1.021,0,1.856,0.331,2.508,0.993s0.978,1.499,0.978,2.511c0,1.02-0.329,1.865-0.987,2.536
					s-1.486,1.006-2.484,1.006c-0.618,0-1.208-0.14-1.769-0.419s-0.987-0.688-1.278-1.229
					C400.716,145.779,400.57,145.122,400.57,144.348z M402.398,144.442c0,0.669,0.159,1.182,0.476,1.537
					c0.318,0.355,0.709,0.533,1.175,0.533s0.855-0.178,1.171-0.533s0.473-0.872,0.473-1.549c0-0.66-0.157-1.168-0.473-1.523
					s-0.705-0.533-1.171-0.533s-0.856,0.178-1.175,0.533C402.558,143.263,402.398,143.774,402.398,144.442z M403.147,140.247
					l0.876-1.898h1.999l-1.745,1.898H403.147z"/>
				<path fill="#331842" d="M415.105,147.813h-1.656v-0.99c-0.275,0.385-0.6,0.672-0.975,0.86c-0.374,0.188-0.752,0.282-1.133,0.282
					c-0.774,0-1.438-0.312-1.99-0.937c-0.552-0.624-0.828-1.495-0.828-2.612c0-1.143,0.269-2.011,0.807-2.605
					c0.537-0.595,1.216-0.892,2.037-0.892c0.753,0,1.405,0.313,1.955,0.939v-3.352h1.783V147.813z M410.346,144.297
					c0,0.72,0.099,1.24,0.298,1.562c0.288,0.466,0.689,0.698,1.206,0.698c0.41,0,0.76-0.175,1.047-0.523
					c0.288-0.35,0.432-0.871,0.432-1.565c0-0.773-0.139-1.331-0.418-1.672s-0.638-0.512-1.073-0.512
					c-0.423,0-0.777,0.169-1.063,0.505C410.488,143.126,410.346,143.628,410.346,144.297z"/>
				<path fill="#331842" d="M416.865,140.158v-1.65h1.783v1.65H416.865z M416.865,147.813v-6.741h1.783v6.741H416.865z"/>
				<path fill="#331842" d="M420.311,148.258l2.038,0.247c0.034,0.237,0.112,0.4,0.235,0.489c0.169,0.127,0.436,0.19,0.799,0.19
					c0.466,0,0.815-0.07,1.048-0.209c0.156-0.094,0.275-0.244,0.355-0.451c0.055-0.148,0.083-0.421,0.083-0.818v-0.984
					c-0.533,0.728-1.207,1.092-2.02,1.092c-0.905,0-1.622-0.383-2.151-1.148c-0.415-0.605-0.622-1.359-0.622-2.26
					c0-1.131,0.271-1.994,0.815-2.59c0.544-0.598,1.22-0.896,2.028-0.896c0.834,0,1.521,0.366,2.062,1.099v-0.946h1.67v6.05
					c0,0.795-0.065,1.39-0.197,1.783c-0.131,0.394-0.314,0.702-0.552,0.927s-0.554,0.399-0.949,0.526s-0.896,0.191-1.501,0.191
					c-1.143,0-1.953-0.196-2.432-0.588c-0.478-0.392-0.717-0.888-0.717-1.488C420.305,148.414,420.307,148.343,420.311,148.258z
					 M421.904,144.304c0,0.715,0.139,1.238,0.416,1.57s0.619,0.498,1.025,0.498c0.436,0,0.804-0.17,1.104-0.511
					c0.301-0.341,0.451-0.845,0.451-1.514c0-0.698-0.144-1.217-0.432-1.556c-0.288-0.338-0.651-0.508-1.092-0.508
					c-0.428,0-0.779,0.167-1.057,0.499S421.904,143.622,421.904,144.304z"/>
				<path fill="#331842" d="M428.005,144.348c0-0.593,0.146-1.166,0.438-1.72c0.291-0.555,0.705-0.979,1.24-1.27
					c0.535-0.293,1.133-0.438,1.793-0.438c1.021,0,1.856,0.331,2.508,0.993s0.978,1.499,0.978,2.511c0,1.02-0.329,1.865-0.987,2.536
					s-1.486,1.006-2.484,1.006c-0.618,0-1.208-0.14-1.769-0.419s-0.987-0.688-1.278-1.229
					C428.15,145.779,428.005,145.122,428.005,144.348z M429.833,144.442c0,0.669,0.159,1.182,0.476,1.537
					c0.318,0.355,0.709,0.533,1.175,0.533s0.855-0.178,1.171-0.533s0.473-0.872,0.473-1.549c0-0.66-0.157-1.168-0.473-1.523
					s-0.705-0.533-1.171-0.533s-0.856,0.178-1.175,0.533C429.992,143.263,429.833,143.774,429.833,144.442z"/>
				<path fill="#331842" d="M435.73,145.89l1.79-0.272c0.076,0.347,0.23,0.61,0.464,0.79c0.232,0.18,0.559,0.27,0.977,0.27
					c0.462,0,0.809-0.084,1.041-0.254c0.157-0.118,0.235-0.276,0.235-0.476c0-0.136-0.042-0.247-0.127-0.337
					c-0.089-0.084-0.288-0.162-0.597-0.234c-1.438-0.317-2.351-0.607-2.736-0.869c-0.533-0.364-0.799-0.87-0.799-1.518
					c0-0.584,0.23-1.075,0.691-1.473s1.177-0.597,2.146-0.597c0.923,0,1.608,0.15,2.057,0.45c0.448,0.301,0.758,0.745,0.927,1.334
					l-1.682,0.311c-0.072-0.263-0.209-0.463-0.41-0.604c-0.201-0.139-0.487-0.209-0.859-0.209c-0.471,0-0.807,0.065-1.01,0.197
					c-0.136,0.093-0.203,0.213-0.203,0.361c0,0.127,0.06,0.234,0.178,0.324c0.161,0.118,0.716,0.285,1.666,0.501
					s1.613,0.48,1.99,0.794c0.372,0.316,0.559,0.759,0.559,1.326c0,0.618-0.258,1.148-0.774,1.594
					c-0.517,0.443-1.28,0.666-2.292,0.666c-0.918,0-1.645-0.187-2.18-0.559S435.896,146.529,435.73,145.89z"/>
				<path fill="#331842" d="M447.213,147.813v-9.306h6.9v1.574h-5.021v2.063h4.672v1.567h-4.672v2.532h5.199v1.568H447.213z"/>
				<path fill="#331842" d="M455.242,145.89l1.79-0.272c0.076,0.347,0.23,0.61,0.464,0.79c0.232,0.18,0.559,0.27,0.977,0.27
					c0.462,0,0.809-0.084,1.041-0.254c0.157-0.118,0.235-0.276,0.235-0.476c0-0.136-0.042-0.247-0.127-0.337
					c-0.089-0.084-0.288-0.162-0.597-0.234c-1.438-0.317-2.351-0.607-2.736-0.869c-0.533-0.364-0.799-0.87-0.799-1.518
					c0-0.584,0.23-1.075,0.691-1.473s1.177-0.597,2.146-0.597c0.923,0,1.608,0.15,2.057,0.45c0.448,0.301,0.758,0.745,0.927,1.334
					l-1.682,0.311c-0.072-0.263-0.209-0.463-0.41-0.604c-0.201-0.139-0.487-0.209-0.859-0.209c-0.471,0-0.807,0.065-1.01,0.197
					c-0.136,0.093-0.203,0.213-0.203,0.361c0,0.127,0.06,0.234,0.178,0.324c0.161,0.118,0.716,0.285,1.666,0.501
					s1.613,0.48,1.99,0.794c0.372,0.316,0.559,0.759,0.559,1.326c0,0.618-0.258,1.148-0.774,1.594
					c-0.517,0.443-1.28,0.666-2.292,0.666c-0.918,0-1.645-0.187-2.18-0.559S455.407,146.529,455.242,145.89z"/>
				<path fill="#331842" d="M466.192,141.072v1.422h-1.219v2.717c0,0.55,0.012,0.871,0.035,0.962s0.076,0.166,0.158,0.225
					c0.083,0.06,0.184,0.09,0.302,0.09c0.165,0,0.404-0.058,0.717-0.172l0.152,1.384c-0.414,0.178-0.884,0.267-1.408,0.267
					c-0.322,0-0.612-0.054-0.87-0.162c-0.258-0.107-0.447-0.247-0.568-0.419c-0.12-0.171-0.204-0.403-0.251-0.694
					c-0.037-0.208-0.057-0.627-0.057-1.258v-2.938h-0.818v-1.422h0.818v-1.339l1.79-1.041v2.38H466.192z"/>
				<path fill="#331842" d="M469.138,147.813h-1.783v-6.741h1.656v0.958c0.283-0.452,0.538-0.751,0.765-0.895
					s0.483-0.216,0.771-0.216c0.406,0,0.798,0.112,1.175,0.337l-0.553,1.555c-0.301-0.194-0.58-0.292-0.838-0.292
					c-0.25,0-0.461,0.068-0.635,0.206s-0.31,0.387-0.409,0.746s-0.149,1.113-0.149,2.26V147.813z"/>
				<path fill="#331842" d="M476.927,147.813v-1.01c-0.245,0.36-0.568,0.644-0.968,0.852c-0.4,0.207-0.822,0.311-1.267,0.311
					c-0.453,0-0.859-0.1-1.219-0.299c-0.359-0.198-0.62-0.478-0.78-0.838c-0.161-0.359-0.242-0.856-0.242-1.491v-4.266h1.784v3.098
					c0,0.948,0.033,1.528,0.099,1.742s0.185,0.383,0.358,0.508s0.394,0.188,0.66,0.188c0.305,0,0.577-0.084,0.819-0.251
					c0.24-0.167,0.406-0.374,0.494-0.622c0.09-0.247,0.134-0.854,0.134-1.818v-2.844h1.784v6.741H476.927z"/>
				<path fill="#331842" d="M486.308,143.065l-1.758,0.317c-0.06-0.352-0.193-0.616-0.403-0.794
					c-0.209-0.178-0.481-0.266-0.815-0.266c-0.444,0-0.799,0.153-1.063,0.46s-0.396,0.819-0.396,1.539
					c0,0.8,0.135,1.364,0.403,1.694s0.629,0.496,1.082,0.496c0.339,0,0.615-0.097,0.832-0.289c0.215-0.192,0.367-0.523,0.457-0.994
					l1.752,0.299c-0.183,0.804-0.531,1.411-1.048,1.822c-0.517,0.41-1.208,0.615-2.075,0.615c-0.986,0-1.772-0.311-2.358-0.934
					c-0.586-0.621-0.88-1.482-0.88-2.583c0-1.113,0.295-1.979,0.883-2.6s1.384-0.93,2.387-0.93c0.821,0,1.474,0.177,1.958,0.53
					S486.097,142.342,486.308,143.065z"/>
				<path fill="#331842" d="M490.751,141.072v1.422h-1.219v2.717c0,0.55,0.012,0.871,0.035,0.962s0.076,0.166,0.158,0.225
					c0.083,0.06,0.184,0.09,0.302,0.09c0.165,0,0.404-0.058,0.717-0.172l0.152,1.384c-0.414,0.178-0.884,0.267-1.408,0.267
					c-0.322,0-0.612-0.054-0.87-0.162c-0.258-0.107-0.447-0.247-0.568-0.419c-0.12-0.171-0.204-0.403-0.251-0.694
					c-0.037-0.208-0.057-0.627-0.057-1.258v-2.938h-0.818v-1.422h0.818v-1.339l1.79-1.041v2.38H490.751z"/>
				<path fill="#331842" d="M496.427,147.813v-1.01c-0.245,0.36-0.568,0.644-0.968,0.852c-0.4,0.207-0.822,0.311-1.267,0.311
					c-0.453,0-0.859-0.1-1.219-0.299c-0.359-0.198-0.62-0.478-0.78-0.838c-0.161-0.359-0.242-0.856-0.242-1.491v-4.266h1.784v3.098
					c0,0.948,0.033,1.528,0.099,1.742s0.185,0.383,0.358,0.508s0.394,0.188,0.66,0.188c0.305,0,0.577-0.084,0.819-0.251
					c0.24-0.167,0.406-0.374,0.494-0.622c0.09-0.247,0.134-0.854,0.134-1.818v-2.844h1.784v6.741H496.427z"/>
				<path fill="#331842" d="M501.638,147.813h-1.783v-6.741h1.656v0.958c0.283-0.452,0.538-0.751,0.765-0.895
					s0.483-0.216,0.771-0.216c0.406,0,0.798,0.112,1.175,0.337l-0.553,1.555c-0.301-0.194-0.58-0.292-0.838-0.292
					c-0.25,0-0.461,0.068-0.635,0.206s-0.31,0.387-0.409,0.746s-0.149,1.113-0.149,2.26V147.813z"/>
				<path fill="#331842" d="M506.322,143.129l-1.618-0.292c0.182-0.651,0.495-1.134,0.939-1.447s1.104-0.47,1.98-0.47
					c0.796,0,1.388,0.094,1.777,0.282s0.663,0.428,0.822,0.718c0.158,0.29,0.237,0.821,0.237,1.597l-0.019,2.082
					c0,0.592,0.028,1.029,0.086,1.311c0.057,0.281,0.164,0.583,0.32,0.904h-1.765c-0.047-0.118-0.104-0.294-0.172-0.527
					c-0.029-0.105-0.051-0.175-0.062-0.209c-0.305,0.296-0.631,0.519-0.979,0.666c-0.347,0.148-0.717,0.223-1.11,0.223
					c-0.694,0-1.241-0.188-1.641-0.564c-0.4-0.377-0.601-0.854-0.601-1.429c0-0.381,0.092-0.721,0.273-1.019
					c0.182-0.299,0.437-0.527,0.765-0.686c0.328-0.159,0.801-0.298,1.419-0.416c0.834-0.156,1.411-0.303,1.732-0.438v-0.178
					c0-0.344-0.084-0.588-0.254-0.733c-0.169-0.146-0.488-0.22-0.958-0.22c-0.317,0-0.565,0.062-0.743,0.188
					S506.433,142.815,506.322,143.129z M508.709,144.576c-0.229,0.076-0.59,0.167-1.085,0.272c-0.495,0.106-0.819,0.21-0.972,0.312
					c-0.232,0.165-0.349,0.374-0.349,0.628c0,0.25,0.093,0.466,0.279,0.648c0.187,0.182,0.423,0.272,0.711,0.272
					c0.321,0,0.628-0.105,0.921-0.317c0.215-0.161,0.357-0.357,0.425-0.59c0.047-0.152,0.069-0.442,0.069-0.87V144.576z"/>
				<path fill="#331842" d="M511.591,145.89l1.79-0.272c0.076,0.347,0.23,0.61,0.464,0.79c0.232,0.18,0.559,0.27,0.977,0.27
					c0.462,0,0.809-0.084,1.041-0.254c0.157-0.118,0.235-0.276,0.235-0.476c0-0.136-0.042-0.247-0.127-0.337
					c-0.089-0.084-0.288-0.162-0.597-0.234c-1.438-0.317-2.351-0.607-2.736-0.869c-0.533-0.364-0.799-0.87-0.799-1.518
					c0-0.584,0.23-1.075,0.691-1.473s1.177-0.597,2.146-0.597c0.923,0,1.608,0.15,2.057,0.45c0.448,0.301,0.758,0.745,0.927,1.334
					l-1.682,0.311c-0.072-0.263-0.209-0.463-0.41-0.604c-0.201-0.139-0.487-0.209-0.859-0.209c-0.471,0-0.807,0.065-1.01,0.197
					c-0.136,0.093-0.203,0.213-0.203,0.361c0,0.127,0.06,0.234,0.178,0.324c0.161,0.118,0.716,0.285,1.666,0.501
					s1.613,0.48,1.99,0.794c0.372,0.316,0.559,0.759,0.559,1.326c0,0.618-0.258,1.148-0.774,1.594
					c-0.517,0.443-1.28,0.666-2.292,0.666c-0.918,0-1.645-0.187-2.18-0.559S511.756,146.529,511.591,145.89z"/>
				<path fill="#331842" d="M529.028,144.392l1.821,0.578c-0.279,1.016-0.744,1.77-1.394,2.263s-1.474,0.739-2.473,0.739
					c-1.235,0-2.251-0.422-3.047-1.266c-0.795-0.845-1.193-1.999-1.193-3.463c0-1.549,0.4-2.752,1.2-3.608
					c0.8-0.857,1.852-1.286,3.155-1.286c1.138,0,2.062,0.337,2.773,1.01c0.423,0.397,0.74,0.969,0.952,1.714l-1.86,0.444
					c-0.109-0.482-0.339-0.863-0.688-1.143c-0.349-0.279-0.773-0.419-1.272-0.419c-0.689,0-1.249,0.247-1.679,0.743
					c-0.43,0.494-0.645,1.297-0.645,2.405c0,1.177,0.212,2.015,0.635,2.514s0.974,0.749,1.65,0.749c0.499,0,0.929-0.158,1.288-0.477
					C528.613,145.573,528.871,145.073,529.028,144.392z"/>
				<path fill="#331842" d="M532.036,144.348c0-0.593,0.146-1.166,0.438-1.72c0.291-0.555,0.705-0.979,1.24-1.27
					c0.535-0.293,1.133-0.438,1.793-0.438c1.021,0,1.856,0.331,2.508,0.993s0.978,1.499,0.978,2.511c0,1.02-0.329,1.865-0.987,2.536
					s-1.486,1.006-2.484,1.006c-0.618,0-1.208-0.14-1.769-0.419s-0.987-0.688-1.278-1.229
					C532.182,145.779,532.036,145.122,532.036,144.348z M533.864,144.442c0,0.669,0.159,1.182,0.476,1.537
					c0.318,0.355,0.709,0.533,1.175,0.533s0.855-0.178,1.171-0.533s0.473-0.872,0.473-1.549c0-0.66-0.157-1.168-0.473-1.523
					s-0.705-0.533-1.171-0.533s-0.856,0.178-1.175,0.533C534.023,143.263,533.864,143.774,533.864,144.442z"/>
				<path fill="#331842" d="M542.098,147.813h-1.783v-6.741h1.656v0.958c0.283-0.452,0.538-0.751,0.765-0.895
					s0.483-0.216,0.771-0.216c0.406,0,0.798,0.112,1.175,0.337l-0.553,1.555c-0.301-0.194-0.58-0.292-0.838-0.292
					c-0.25,0-0.461,0.068-0.635,0.206s-0.31,0.387-0.409,0.746s-0.149,1.113-0.149,2.26V147.813z"/>
				<path fill="#331842" d="M545.398,141.072h1.662v0.99c0.217-0.339,0.508-0.613,0.877-0.825c0.367-0.212,0.776-0.317,1.225-0.317
					c0.783,0,1.447,0.307,1.993,0.921c0.546,0.613,0.819,1.468,0.819,2.564c0,1.125-0.275,2-0.826,2.624
					c-0.55,0.624-1.216,0.937-1.999,0.937c-0.372,0-0.71-0.074-1.013-0.223c-0.303-0.147-0.621-0.401-0.955-0.762v3.396h-1.783
					V141.072z M547.162,144.329c0,0.757,0.15,1.316,0.451,1.679c0.301,0.361,0.666,0.542,1.098,0.542
					c0.415,0,0.76-0.166,1.035-0.498s0.412-0.877,0.412-1.635c0-0.706-0.142-1.23-0.425-1.574c-0.283-0.342-0.635-0.514-1.054-0.514
					c-0.436,0-0.798,0.168-1.086,0.505C547.307,143.17,547.162,143.669,547.162,144.329z"/>
				<path fill="#331842" d="M552.978,144.348c0-0.593,0.146-1.166,0.438-1.72c0.291-0.555,0.705-0.979,1.24-1.27
					c0.535-0.293,1.133-0.438,1.793-0.438c1.021,0,1.856,0.331,2.508,0.993s0.978,1.499,0.978,2.511c0,1.02-0.329,1.865-0.987,2.536
					s-1.486,1.006-2.484,1.006c-0.618,0-1.208-0.14-1.769-0.419s-0.987-0.688-1.278-1.229
					C553.123,145.779,552.978,145.122,552.978,144.348z M554.806,144.442c0,0.669,0.159,1.182,0.476,1.537
					c0.318,0.355,0.709,0.533,1.175,0.533s0.855-0.178,1.171-0.533s0.473-0.872,0.473-1.549c0-0.66-0.157-1.168-0.473-1.523
					s-0.705-0.533-1.171-0.533s-0.856,0.178-1.175,0.533C554.965,143.263,554.806,143.774,554.806,144.442z"/>
				<path fill="#331842" d="M563.039,147.813h-1.783v-6.741h1.656v0.958c0.283-0.452,0.538-0.751,0.765-0.895
					s0.483-0.216,0.771-0.216c0.406,0,0.798,0.112,1.175,0.337l-0.553,1.555c-0.301-0.194-0.58-0.292-0.838-0.292
					c-0.25,0-0.461,0.068-0.635,0.206s-0.31,0.387-0.409,0.746s-0.149,1.113-0.149,2.26V147.813z"/>
				<path fill="#331842" d="M567.723,143.129l-1.618-0.292c0.182-0.651,0.495-1.134,0.939-1.447s1.104-0.47,1.98-0.47
					c0.796,0,1.388,0.094,1.777,0.282s0.663,0.428,0.822,0.718c0.158,0.29,0.237,0.821,0.237,1.597l-0.019,2.082
					c0,0.592,0.028,1.029,0.086,1.311c0.057,0.281,0.164,0.583,0.32,0.904h-1.765c-0.047-0.118-0.104-0.294-0.172-0.527
					c-0.029-0.105-0.051-0.175-0.062-0.209c-0.305,0.296-0.631,0.519-0.979,0.666c-0.347,0.148-0.717,0.223-1.11,0.223
					c-0.694,0-1.241-0.188-1.641-0.564c-0.4-0.377-0.601-0.854-0.601-1.429c0-0.381,0.092-0.721,0.273-1.019
					c0.182-0.299,0.437-0.527,0.765-0.686c0.328-0.159,0.801-0.298,1.419-0.416c0.834-0.156,1.411-0.303,1.732-0.438v-0.178
					c0-0.344-0.084-0.588-0.254-0.733c-0.169-0.146-0.488-0.22-0.958-0.22c-0.317,0-0.565,0.062-0.743,0.188
					S567.833,142.815,567.723,143.129z M570.109,144.576c-0.229,0.076-0.59,0.167-1.085,0.272c-0.495,0.106-0.819,0.21-0.972,0.312
					c-0.232,0.165-0.349,0.374-0.349,0.628c0,0.25,0.093,0.466,0.279,0.648c0.187,0.182,0.423,0.272,0.711,0.272
					c0.321,0,0.628-0.105,0.921-0.317c0.215-0.161,0.357-0.357,0.425-0.59c0.047-0.152,0.069-0.442,0.069-0.87V144.576z"/>
				<path fill="#331842" d="M573.621,147.813v-9.306h1.783v9.306H573.621z"/>
				<path fill="#331842" d="M581.136,145.668l1.777,0.298c-0.229,0.652-0.589,1.148-1.082,1.489s-1.11,0.511-1.851,0.511
					c-1.172,0-2.04-0.383-2.603-1.148c-0.444-0.614-0.667-1.389-0.667-2.324c0-1.117,0.293-1.991,0.877-2.624
					s1.322-0.949,2.215-0.949c1.003,0,1.794,0.331,2.374,0.993s0.856,1.677,0.831,3.044h-4.469c0.014,0.529,0.157,0.94,0.432,1.234
					c0.275,0.294,0.618,0.441,1.029,0.441c0.279,0,0.514-0.076,0.704-0.229S581.038,146.007,581.136,145.668z M581.237,143.865
					c-0.013-0.517-0.146-0.909-0.399-1.178s-0.563-0.403-0.928-0.403c-0.389,0-0.711,0.143-0.965,0.426s-0.378,0.669-0.374,1.155
					H581.237z"/>
				<path fill="#331842" d="M583.834,145.89l1.79-0.272c0.076,0.347,0.23,0.61,0.464,0.79c0.232,0.18,0.559,0.27,0.977,0.27
					c0.462,0,0.809-0.084,1.041-0.254c0.157-0.118,0.235-0.276,0.235-0.476c0-0.136-0.042-0.247-0.127-0.337
					c-0.089-0.084-0.288-0.162-0.597-0.234c-1.438-0.317-2.351-0.607-2.736-0.869c-0.533-0.364-0.799-0.87-0.799-1.518
					c0-0.584,0.23-1.075,0.691-1.473s1.177-0.597,2.146-0.597c0.923,0,1.608,0.15,2.057,0.45c0.448,0.301,0.758,0.745,0.927,1.334
					l-1.682,0.311c-0.072-0.263-0.209-0.463-0.41-0.604c-0.201-0.139-0.487-0.209-0.859-0.209c-0.471,0-0.807,0.065-1.01,0.197
					c-0.136,0.093-0.203,0.213-0.203,0.361c0,0.127,0.06,0.234,0.178,0.324c0.161,0.118,0.716,0.285,1.666,0.501
					s1.613,0.48,1.99,0.794c0.372,0.316,0.559,0.759,0.559,1.326c0,0.618-0.258,1.148-0.774,1.594
					c-0.517,0.443-1.28,0.666-2.292,0.666c-0.918,0-1.645-0.187-2.18-0.559S583.999,146.529,583.834,145.89z"/>
			</g>
		</g>
		<g>
			<g>
				<path fill="#331842" d="M371.881,227.011l1.727-0.21c0.056,0.44,0.203,0.776,0.445,1.009c0.24,0.233,0.533,0.35,0.875,0.35
					c0.369,0,0.679-0.14,0.931-0.419s0.378-0.656,0.378-1.13c0-0.448-0.121-0.804-0.362-1.066s-0.535-0.394-0.882-0.394
					c-0.229,0-0.502,0.044-0.819,0.134l0.196-1.454c0.482,0.013,0.852-0.092,1.105-0.314c0.254-0.222,0.381-0.517,0.381-0.886
					c0-0.312-0.094-0.562-0.279-0.748c-0.187-0.187-0.435-0.279-0.743-0.279c-0.305,0-0.565,0.105-0.78,0.316
					c-0.217,0.212-0.348,0.521-0.395,0.928l-1.644-0.279c0.114-0.563,0.287-1.013,0.518-1.35c0.23-0.336,0.552-0.601,0.965-0.793
					c0.412-0.192,0.875-0.289,1.387-0.289c0.876,0,1.578,0.279,2.107,0.838c0.436,0.457,0.653,0.974,0.653,1.549
					c0,0.816-0.446,1.469-1.339,1.955c0.533,0.114,0.96,0.37,1.279,0.768c0.319,0.398,0.479,0.879,0.479,1.441
					c0,0.816-0.299,1.513-0.896,2.088c-0.597,0.576-1.339,0.863-2.228,0.863c-0.843,0-1.541-0.242-2.096-0.727
					C372.292,228.427,371.971,227.793,371.881,227.011z"/>
				<path fill="#331842" d="M379.556,229.479v-1.783h1.783v1.783H379.556z"/>
				<path fill="#331842" d="M392.747,226.058l1.821,0.578c-0.279,1.016-0.744,1.77-1.394,2.263s-1.474,0.739-2.473,0.739
					c-1.235,0-2.251-0.422-3.047-1.266c-0.795-0.845-1.193-1.999-1.193-3.463c0-1.549,0.4-2.752,1.2-3.608
					c0.8-0.857,1.852-1.286,3.155-1.286c1.138,0,2.062,0.337,2.773,1.01c0.423,0.397,0.74,0.969,0.952,1.714l-1.86,0.444
					c-0.109-0.482-0.339-0.863-0.688-1.143c-0.349-0.279-0.773-0.419-1.272-0.419c-0.689,0-1.249,0.247-1.679,0.743
					c-0.43,0.494-0.645,1.297-0.645,2.405c0,1.177,0.212,2.015,0.635,2.514s0.974,0.749,1.65,0.749c0.499,0,0.929-0.158,1.288-0.477
					C392.332,227.239,392.59,226.739,392.747,226.058z"/>
				<path fill="#331842" d="M395.755,226.014c0-0.593,0.146-1.166,0.438-1.72c0.291-0.555,0.705-0.979,1.24-1.27
					c0.535-0.293,1.133-0.438,1.793-0.438c1.021,0,1.856,0.331,2.508,0.993s0.978,1.499,0.978,2.511c0,1.02-0.329,1.865-0.987,2.536
					s-1.486,1.006-2.484,1.006c-0.618,0-1.208-0.14-1.769-0.419s-0.987-0.688-1.278-1.229
					C395.9,227.445,395.755,226.788,395.755,226.014z M397.583,226.108c0,0.669,0.159,1.182,0.476,1.537
					c0.318,0.355,0.709,0.533,1.175,0.533s0.855-0.178,1.171-0.533s0.473-0.872,0.473-1.549c0-0.66-0.157-1.168-0.473-1.523
					s-0.705-0.533-1.171-0.533s-0.856,0.178-1.175,0.533C397.742,224.929,397.583,225.44,397.583,226.108z M398.332,221.913
					l0.876-1.898h1.999l-1.745,1.898H398.332z"/>
				<path fill="#331842" d="M410.29,229.479h-1.656v-0.99c-0.275,0.385-0.6,0.672-0.975,0.86c-0.374,0.188-0.752,0.282-1.133,0.282
					c-0.774,0-1.438-0.312-1.99-0.937c-0.552-0.624-0.828-1.495-0.828-2.612c0-1.143,0.269-2.011,0.807-2.605
					c0.537-0.595,1.216-0.892,2.037-0.892c0.753,0,1.405,0.313,1.955,0.939v-3.352h1.783V229.479z M405.53,225.963
					c0,0.72,0.099,1.24,0.298,1.562c0.288,0.466,0.689,0.698,1.206,0.698c0.41,0,0.76-0.175,1.047-0.523
					c0.288-0.35,0.432-0.871,0.432-1.565c0-0.773-0.139-1.331-0.418-1.672s-0.638-0.512-1.073-0.512
					c-0.423,0-0.777,0.169-1.063,0.505C405.673,224.792,405.53,225.294,405.53,225.963z"/>
				<path fill="#331842" d="M412.05,221.824v-1.65h1.783v1.65H412.05z M412.05,229.479v-6.741h1.783v6.741H412.05z"/>
				<path fill="#331842" d="M415.495,229.924l2.038,0.247c0.034,0.237,0.112,0.4,0.235,0.489c0.169,0.127,0.436,0.19,0.799,0.19
					c0.466,0,0.815-0.07,1.048-0.209c0.156-0.094,0.275-0.244,0.355-0.451c0.055-0.148,0.083-0.421,0.083-0.818v-0.984
					c-0.533,0.728-1.207,1.092-2.02,1.092c-0.905,0-1.622-0.383-2.151-1.148c-0.415-0.605-0.622-1.359-0.622-2.26
					c0-1.131,0.271-1.994,0.815-2.59c0.544-0.598,1.22-0.896,2.028-0.896c0.834,0,1.521,0.366,2.062,1.099v-0.946h1.67v6.05
					c0,0.795-0.065,1.39-0.197,1.783c-0.131,0.394-0.314,0.702-0.552,0.927s-0.554,0.399-0.949,0.526s-0.896,0.191-1.501,0.191
					c-1.143,0-1.953-0.196-2.432-0.588c-0.478-0.392-0.717-0.888-0.717-1.488C415.489,230.08,415.491,230.009,415.495,229.924z
					 M417.089,225.97c0,0.715,0.139,1.238,0.416,1.57s0.619,0.498,1.025,0.498c0.436,0,0.804-0.17,1.104-0.511
					c0.301-0.341,0.451-0.845,0.451-1.514c0-0.698-0.144-1.217-0.432-1.556c-0.288-0.338-0.651-0.508-1.092-0.508
					c-0.428,0-0.779,0.167-1.057,0.499S417.089,225.288,417.089,225.97z"/>
				<path fill="#331842" d="M423.189,226.014c0-0.593,0.146-1.166,0.438-1.72c0.291-0.555,0.705-0.979,1.24-1.27
					c0.535-0.293,1.133-0.438,1.793-0.438c1.021,0,1.856,0.331,2.508,0.993s0.978,1.499,0.978,2.511c0,1.02-0.329,1.865-0.987,2.536
					s-1.486,1.006-2.484,1.006c-0.618,0-1.208-0.14-1.769-0.419s-0.987-0.688-1.278-1.229
					C423.335,227.445,423.189,226.788,423.189,226.014z M425.018,226.108c0,0.669,0.159,1.182,0.476,1.537
					c0.318,0.355,0.709,0.533,1.175,0.533s0.855-0.178,1.171-0.533s0.473-0.872,0.473-1.549c0-0.66-0.157-1.168-0.473-1.523
					s-0.705-0.533-1.171-0.533s-0.856,0.178-1.175,0.533C425.177,224.929,425.018,225.44,425.018,226.108z"/>
				<path fill="#331842" d="M430.915,227.556l1.79-0.272c0.076,0.347,0.23,0.61,0.464,0.79c0.232,0.18,0.559,0.27,0.977,0.27
					c0.462,0,0.809-0.084,1.041-0.254c0.157-0.118,0.235-0.276,0.235-0.476c0-0.136-0.042-0.247-0.127-0.337
					c-0.089-0.084-0.288-0.162-0.597-0.234c-1.438-0.317-2.351-0.607-2.736-0.869c-0.533-0.364-0.799-0.87-0.799-1.518
					c0-0.584,0.23-1.075,0.691-1.473s1.177-0.597,2.146-0.597c0.923,0,1.608,0.15,2.057,0.45c0.448,0.301,0.758,0.745,0.927,1.334
					l-1.682,0.311c-0.072-0.263-0.209-0.463-0.41-0.604c-0.201-0.139-0.487-0.209-0.859-0.209c-0.471,0-0.807,0.065-1.01,0.197
					c-0.136,0.093-0.203,0.213-0.203,0.361c0,0.127,0.06,0.234,0.178,0.324c0.161,0.118,0.716,0.285,1.666,0.501
					s1.613,0.48,1.99,0.794c0.372,0.316,0.559,0.759,0.559,1.326c0,0.618-0.258,1.148-0.774,1.594
					c-0.517,0.443-1.28,0.666-2.292,0.666c-0.918,0-1.645-0.187-2.18-0.559S431.08,228.195,430.915,227.556z"/>
				<path fill="#331842" d="M450.308,229.479h-2.045l-0.812-2.113h-3.719l-0.769,2.113h-1.993l3.625-9.306h1.986L450.308,229.479z
					 M446.848,225.798l-1.282-3.453l-1.257,3.453H446.848z"/>
				<path fill="#331842" d="M457.168,224.731l-1.758,0.317c-0.06-0.352-0.193-0.616-0.403-0.794
					c-0.209-0.178-0.481-0.266-0.815-0.266c-0.444,0-0.799,0.153-1.063,0.46s-0.396,0.819-0.396,1.539
					c0,0.8,0.135,1.364,0.403,1.694s0.629,0.496,1.082,0.496c0.339,0,0.615-0.097,0.832-0.289c0.215-0.192,0.367-0.523,0.457-0.994
					l1.752,0.299c-0.183,0.804-0.531,1.411-1.048,1.822c-0.517,0.41-1.208,0.615-2.075,0.615c-0.986,0-1.772-0.311-2.358-0.934
					c-0.586-0.621-0.88-1.482-0.88-2.583c0-1.113,0.295-1.979,0.883-2.6s1.384-0.93,2.387-0.93c0.821,0,1.474,0.177,1.958,0.53
					S456.957,224.008,457.168,224.731z"/>
				<path fill="#331842" d="M461.611,222.738v1.422h-1.219v2.717c0,0.55,0.012,0.871,0.035,0.962s0.076,0.166,0.158,0.225
					c0.083,0.06,0.184,0.09,0.302,0.09c0.165,0,0.404-0.058,0.717-0.172l0.152,1.384c-0.414,0.178-0.884,0.267-1.408,0.267
					c-0.322,0-0.612-0.054-0.87-0.162c-0.258-0.107-0.447-0.247-0.568-0.419c-0.12-0.171-0.204-0.403-0.251-0.694
					c-0.037-0.208-0.057-0.627-0.057-1.258v-2.938h-0.818v-1.422h0.818v-1.339l1.79-1.041v2.38H461.611z"/>
				<path fill="#331842" d="M462.851,221.824v-1.65h1.783v1.65H462.851z M462.851,229.479v-6.741h1.783v6.741H462.851z"/>
				<path fill="#331842" d="M468.315,229.479l-2.717-6.741h1.872l1.27,3.44l0.368,1.148c0.098-0.291,0.158-0.484,0.184-0.577
					c0.06-0.19,0.123-0.381,0.191-0.571l1.281-3.44h1.835l-2.679,6.741H468.315z"/>
				<path fill="#331842" d="M473.692,221.824v-1.65h1.783v1.65H473.692z M473.692,229.479v-6.741h1.783v6.741H473.692z"/>
				<path fill="#331842" d="M483.485,229.479h-1.656v-0.99c-0.275,0.385-0.6,0.672-0.975,0.86c-0.374,0.188-0.752,0.282-1.133,0.282
					c-0.774,0-1.438-0.312-1.99-0.937c-0.552-0.624-0.828-1.495-0.828-2.612c0-1.143,0.269-2.011,0.807-2.605
					c0.537-0.595,1.216-0.892,2.037-0.892c0.753,0,1.405,0.313,1.955,0.939v-3.352h1.783V229.479z M478.726,225.963
					c0,0.72,0.099,1.24,0.298,1.562c0.288,0.466,0.689,0.698,1.206,0.698c0.41,0,0.76-0.175,1.047-0.523
					c0.288-0.35,0.432-0.871,0.432-1.565c0-0.773-0.139-1.331-0.418-1.672s-0.638-0.512-1.073-0.512
					c-0.423,0-0.777,0.169-1.063,0.505C478.868,224.792,478.726,225.294,478.726,225.963z"/>
				<path fill="#331842" d="M486.577,224.795l-1.618-0.292c0.182-0.651,0.495-1.134,0.939-1.447s1.104-0.47,1.98-0.47
					c0.796,0,1.388,0.094,1.777,0.282s0.663,0.428,0.822,0.718c0.158,0.29,0.237,0.821,0.237,1.597l-0.019,2.082
					c0,0.592,0.028,1.029,0.086,1.311c0.057,0.281,0.164,0.583,0.32,0.904h-1.765c-0.047-0.118-0.104-0.294-0.172-0.527
					c-0.029-0.105-0.051-0.175-0.062-0.209c-0.305,0.296-0.631,0.519-0.979,0.666c-0.347,0.148-0.717,0.223-1.11,0.223
					c-0.694,0-1.241-0.188-1.641-0.564c-0.4-0.377-0.601-0.854-0.601-1.429c0-0.381,0.092-0.721,0.273-1.019
					c0.182-0.299,0.437-0.527,0.765-0.686c0.328-0.159,0.801-0.298,1.419-0.416c0.834-0.156,1.411-0.303,1.732-0.438v-0.178
					c0-0.344-0.084-0.588-0.254-0.733c-0.169-0.146-0.488-0.22-0.958-0.22c-0.317,0-0.565,0.062-0.743,0.188
					S486.688,224.481,486.577,224.795z M488.964,226.242c-0.229,0.076-0.59,0.167-1.085,0.272c-0.495,0.106-0.819,0.21-0.972,0.312
					c-0.232,0.165-0.349,0.374-0.349,0.628c0,0.25,0.093,0.466,0.279,0.648c0.187,0.182,0.423,0.272,0.711,0.272
					c0.321,0,0.628-0.105,0.921-0.317c0.215-0.161,0.357-0.357,0.425-0.59c0.047-0.152,0.069-0.442,0.069-0.87V226.242z"/>
				<path fill="#331842" d="M498.656,229.479H497v-0.99c-0.275,0.385-0.6,0.672-0.975,0.86c-0.374,0.188-0.752,0.282-1.133,0.282
					c-0.774,0-1.438-0.312-1.99-0.937c-0.552-0.624-0.828-1.495-0.828-2.612c0-1.143,0.269-2.011,0.807-2.605
					c0.537-0.595,1.216-0.892,2.037-0.892c0.753,0,1.405,0.313,1.955,0.939v-3.352h1.783V229.479z M493.896,225.963
					c0,0.72,0.099,1.24,0.298,1.562c0.288,0.466,0.689,0.698,1.206,0.698c0.41,0,0.76-0.175,1.047-0.523
					c0.288-0.35,0.432-0.871,0.432-1.565c0-0.773-0.139-1.331-0.418-1.672s-0.638-0.512-1.073-0.512
					c-0.423,0-0.777,0.169-1.063,0.505C494.039,224.792,493.896,225.294,493.896,225.963z"/>
				<path fill="#331842" d="M503.183,222.738h1.897l1.613,4.786l1.574-4.786h1.847l-2.38,6.487l-0.426,1.174
					c-0.156,0.395-0.306,0.694-0.447,0.902c-0.142,0.207-0.305,0.375-0.489,0.504c-0.184,0.129-0.41,0.229-0.679,0.302
					s-0.572,0.108-0.911,0.108c-0.343,0-0.679-0.036-1.009-0.108l-0.159-1.396c0.279,0.055,0.531,0.083,0.755,0.083
					c0.415,0,0.722-0.122,0.921-0.365s0.352-0.554,0.457-0.93L503.183,222.738z"/>
				<path fill="#331842" d="M514.881,229.479v-9.306h3.016c1.143,0,1.888,0.047,2.234,0.14c0.533,0.14,0.979,0.443,1.34,0.911
					c0.359,0.468,0.539,1.071,0.539,1.812c0,0.572-0.104,1.052-0.311,1.441c-0.208,0.39-0.472,0.695-0.791,0.917
					c-0.319,0.223-0.645,0.369-0.975,0.441c-0.448,0.089-1.098,0.134-1.948,0.134h-1.226v3.51H514.881z M516.76,221.748v2.641h1.029
					c0.74,0,1.235-0.049,1.484-0.146c0.25-0.098,0.446-0.25,0.588-0.457c0.142-0.208,0.213-0.449,0.213-0.725
					c0-0.338-0.1-0.617-0.299-0.838c-0.199-0.22-0.451-0.357-0.756-0.412c-0.224-0.042-0.675-0.063-1.352-0.063H516.76z"/>
				<path fill="#331842" d="M524.872,224.795l-1.618-0.292c0.182-0.651,0.495-1.134,0.939-1.447s1.104-0.47,1.98-0.47
					c0.796,0,1.388,0.094,1.777,0.282s0.663,0.428,0.822,0.718c0.158,0.29,0.237,0.821,0.237,1.597l-0.019,2.082
					c0,0.592,0.028,1.029,0.086,1.311c0.057,0.281,0.164,0.583,0.32,0.904h-1.765c-0.047-0.118-0.104-0.294-0.172-0.527
					c-0.029-0.105-0.051-0.175-0.062-0.209c-0.305,0.296-0.631,0.519-0.979,0.666c-0.347,0.148-0.717,0.223-1.11,0.223
					c-0.694,0-1.241-0.188-1.641-0.564c-0.4-0.377-0.601-0.854-0.601-1.429c0-0.381,0.092-0.721,0.273-1.019
					c0.182-0.299,0.437-0.527,0.765-0.686c0.328-0.159,0.801-0.298,1.419-0.416c0.834-0.156,1.411-0.303,1.732-0.438v-0.178
					c0-0.344-0.084-0.588-0.254-0.733c-0.169-0.146-0.488-0.22-0.958-0.22c-0.317,0-0.565,0.062-0.743,0.188
					S524.982,224.481,524.872,224.795z M527.259,226.242c-0.229,0.076-0.59,0.167-1.085,0.272c-0.495,0.106-0.819,0.21-0.972,0.312
					c-0.232,0.165-0.349,0.374-0.349,0.628c0,0.25,0.093,0.466,0.279,0.648c0.187,0.182,0.423,0.272,0.711,0.272
					c0.321,0,0.628-0.105,0.921-0.317c0.215-0.161,0.357-0.357,0.425-0.59c0.047-0.152,0.069-0.442,0.069-0.87V226.242z"/>
				<path fill="#331842" d="M532.478,229.479h-1.783v-6.741h1.656v0.958c0.283-0.452,0.538-0.751,0.765-0.895
					s0.483-0.216,0.771-0.216c0.406,0,0.798,0.112,1.175,0.337l-0.553,1.555c-0.301-0.194-0.58-0.292-0.838-0.292
					c-0.25,0-0.461,0.068-0.635,0.206s-0.31,0.387-0.409,0.746s-0.149,1.113-0.149,2.26V229.479z"/>
				<path fill="#331842" d="M538.92,222.738v1.422h-1.219v2.717c0,0.55,0.012,0.871,0.035,0.962s0.076,0.166,0.158,0.225
					c0.083,0.06,0.184,0.09,0.302,0.09c0.165,0,0.404-0.058,0.717-0.172l0.152,1.384c-0.414,0.178-0.884,0.267-1.408,0.267
					c-0.322,0-0.612-0.054-0.87-0.162c-0.258-0.107-0.447-0.247-0.568-0.419c-0.12-0.171-0.204-0.403-0.251-0.694
					c-0.037-0.208-0.057-0.627-0.057-1.258v-2.938h-0.818v-1.422h0.818v-1.339l1.79-1.041v2.38H538.92z"/>
				<path fill="#331842" d="M540.158,221.824v-1.65h1.783v1.65H540.158z M540.158,229.479v-6.741h1.783v6.741H540.158z"/>
				<path fill="#331842" d="M549.647,224.731l-1.758,0.317c-0.06-0.352-0.193-0.616-0.403-0.794
					c-0.209-0.178-0.481-0.266-0.815-0.266c-0.444,0-0.799,0.153-1.063,0.46s-0.396,0.819-0.396,1.539
					c0,0.8,0.135,1.364,0.403,1.694s0.629,0.496,1.082,0.496c0.339,0,0.615-0.097,0.832-0.289c0.215-0.192,0.367-0.523,0.457-0.994
					l1.752,0.299c-0.183,0.804-0.531,1.411-1.048,1.822c-0.517,0.41-1.208,0.615-2.075,0.615c-0.986,0-1.772-0.311-2.358-0.934
					c-0.586-0.621-0.88-1.482-0.88-2.583c0-1.113,0.295-1.979,0.883-2.6s1.384-0.93,2.387-0.93c0.821,0,1.474,0.177,1.958,0.53
					S549.437,224.008,549.647,224.731z"/>
				<path fill="#331842" d="M551,221.824v-1.65h1.783v1.65H551z M551,229.479v-6.741h1.783v6.741H551z"/>
				<path fill="#331842" d="M554.562,222.738h1.662v0.99c0.217-0.339,0.508-0.613,0.877-0.825c0.367-0.212,0.776-0.317,1.225-0.317
					c0.783,0,1.447,0.307,1.993,0.921c0.546,0.613,0.819,1.468,0.819,2.564c0,1.125-0.275,2-0.826,2.624
					c-0.55,0.624-1.216,0.937-1.999,0.937c-0.372,0-0.71-0.074-1.013-0.223c-0.303-0.147-0.621-0.401-0.955-0.762v3.396h-1.783
					V222.738z M556.325,225.995c0,0.757,0.15,1.316,0.451,1.679c0.301,0.361,0.666,0.542,1.098,0.542
					c0.415,0,0.76-0.166,1.035-0.498s0.412-0.877,0.412-1.635c0-0.706-0.142-1.23-0.425-1.574c-0.283-0.342-0.635-0.514-1.054-0.514
					c-0.436,0-0.798,0.168-1.086,0.505C556.47,224.836,556.325,225.335,556.325,225.995z"/>
				<path fill="#331842" d="M563.885,224.795l-1.618-0.292c0.182-0.651,0.495-1.134,0.939-1.447s1.104-0.47,1.98-0.47
					c0.796,0,1.388,0.094,1.777,0.282s0.663,0.428,0.822,0.718c0.158,0.29,0.237,0.821,0.237,1.597l-0.019,2.082
					c0,0.592,0.028,1.029,0.086,1.311c0.057,0.281,0.164,0.583,0.32,0.904h-1.765c-0.047-0.118-0.104-0.294-0.172-0.527
					c-0.029-0.105-0.051-0.175-0.062-0.209c-0.305,0.296-0.631,0.519-0.979,0.666c-0.347,0.148-0.717,0.223-1.11,0.223
					c-0.694,0-1.241-0.188-1.641-0.564c-0.4-0.377-0.601-0.854-0.601-1.429c0-0.381,0.092-0.721,0.273-1.019
					c0.182-0.299,0.437-0.527,0.765-0.686c0.328-0.159,0.801-0.298,1.419-0.416c0.834-0.156,1.411-0.303,1.732-0.438v-0.178
					c0-0.344-0.084-0.588-0.254-0.733c-0.169-0.146-0.488-0.22-0.958-0.22c-0.317,0-0.565,0.062-0.743,0.188
					S563.995,224.481,563.885,224.795z M566.271,226.242c-0.229,0.076-0.59,0.167-1.085,0.272c-0.495,0.106-0.819,0.21-0.972,0.312
					c-0.232,0.165-0.349,0.374-0.349,0.628c0,0.25,0.093,0.466,0.279,0.648c0.187,0.182,0.423,0.272,0.711,0.272
					c0.321,0,0.628-0.105,0.921-0.317c0.215-0.161,0.357-0.357,0.425-0.59c0.047-0.152,0.069-0.442,0.069-0.87V226.242z"/>
				<path fill="#331842" d="M575.659,224.731l-1.758,0.317c-0.06-0.352-0.193-0.616-0.403-0.794
					c-0.209-0.178-0.481-0.266-0.815-0.266c-0.444,0-0.799,0.153-1.063,0.46s-0.396,0.819-0.396,1.539
					c0,0.8,0.135,1.364,0.403,1.694s0.629,0.496,1.082,0.496c0.339,0,0.615-0.097,0.832-0.289c0.215-0.192,0.367-0.523,0.457-0.994
					l1.752,0.299c-0.183,0.804-0.531,1.411-1.048,1.822c-0.517,0.41-1.208,0.615-2.075,0.615c-0.986,0-1.772-0.311-2.358-0.934
					c-0.586-0.621-0.88-1.482-0.88-2.583c0-1.113,0.295-1.979,0.883-2.6s1.384-0.93,2.387-0.93c0.821,0,1.474,0.177,1.958,0.53
					S575.448,224.008,575.659,224.731z"/>
				<path fill="#331842" d="M577.013,221.824v-1.65h1.783v1.65H577.013z M577.013,229.479v-6.741h1.783v6.741H577.013z"/>
				<path fill="#331842" d="M580.211,226.014c0-0.593,0.146-1.166,0.438-1.72c0.291-0.555,0.705-0.979,1.24-1.27
					c0.535-0.293,1.133-0.438,1.793-0.438c1.021,0,1.856,0.331,2.508,0.993s0.978,1.499,0.978,2.511c0,1.02-0.329,1.865-0.987,2.536
					s-1.486,1.006-2.484,1.006c-0.618,0-1.208-0.14-1.769-0.419s-0.987-0.688-1.278-1.229
					C580.356,227.445,580.211,226.788,580.211,226.014z M582.039,226.108c0,0.669,0.159,1.182,0.476,1.537
					c0.318,0.355,0.709,0.533,1.175,0.533s0.855-0.178,1.171-0.533s0.473-0.872,0.473-1.549c0-0.66-0.157-1.168-0.473-1.523
					s-0.705-0.533-1.171-0.533s-0.856,0.178-1.175,0.533C582.198,224.929,582.039,225.44,582.039,226.108z M582.788,221.913
					l0.876-1.898h1.999l-1.745,1.898H582.788z"/>
				<path fill="#331842" d="M594.696,229.479h-1.783v-3.44c0-0.728-0.038-1.198-0.114-1.412s-0.2-0.38-0.371-0.499
					c-0.172-0.118-0.378-0.178-0.619-0.178c-0.309,0-0.586,0.085-0.831,0.254c-0.246,0.17-0.414,0.395-0.505,0.674
					s-0.137,0.795-0.137,1.549v3.053h-1.784v-6.741h1.657v0.99c0.588-0.762,1.329-1.143,2.222-1.143
					c0.394,0,0.753,0.071,1.079,0.213s0.572,0.322,0.739,0.542c0.167,0.221,0.284,0.471,0.35,0.75s0.098,0.679,0.098,1.199V229.479z
					"/>
			</g>
		</g>
		<g>
			<g>
				<path fill="#F6F6F6" d="M294.993,28.875v-17.18h12.738v2.906h-9.27v3.809h8.625v2.895h-8.625v4.676h9.598v2.895H294.993z"/>
				<path fill="#F6F6F6" d="M310.978,28.875v-3.293h3.293v3.293H310.978z"/>
				<path fill="#F6F6F6" d="M324.337,28.875v-17.18h5.566c2.109,0,3.484,0.086,4.125,0.258c0.984,0.258,1.809,0.818,2.473,1.682
					s0.996,1.979,0.996,3.346c0,1.055-0.191,1.941-0.574,2.66s-0.869,1.283-1.459,1.693s-1.189,0.682-1.799,0.814
					c-0.828,0.164-2.027,0.246-3.598,0.246h-2.262v6.48H324.337z M327.806,14.602v4.875h1.898c1.367,0,2.281-0.09,2.742-0.27
					s0.822-0.461,1.084-0.844s0.393-0.828,0.393-1.336c0-0.625-0.184-1.141-0.551-1.547s-0.832-0.66-1.395-0.762
					c-0.414-0.078-1.246-0.117-2.496-0.117H327.806z"/>
				<path fill="#F6F6F6" d="M340.345,28.875v-17.18h12.738v2.906h-9.27v3.809h8.625v2.895h-8.625v4.676h9.598v2.895H340.345z"/>
				<path fill="#F6F6F6" d="M356.364,28.875v-17.18h7.301c1.836,0,3.17,0.154,4.002,0.463s1.498,0.857,1.998,1.646
					s0.75,1.691,0.75,2.707c0,1.289-0.379,2.354-1.137,3.193s-1.891,1.369-3.398,1.588c0.75,0.438,1.369,0.918,1.857,1.441
					s1.146,1.453,1.975,2.789l2.098,3.352h-4.148l-2.508-3.738c-0.891-1.336-1.5-2.178-1.828-2.525s-0.676-0.586-1.043-0.715
					s-0.949-0.193-1.746-0.193h-0.703v7.172H356.364z M359.833,18.961h2.566c1.664,0,2.703-0.07,3.117-0.211
					s0.738-0.383,0.973-0.727s0.352-0.773,0.352-1.289c0-0.578-0.154-1.045-0.463-1.4s-0.744-0.58-1.307-0.674
					c-0.281-0.039-1.125-0.059-2.531-0.059h-2.707V18.961z"/>
				<path fill="#F6F6F6" d="M373.708,28.875v-17.18h11.777v2.906h-8.309v4.066h7.172v2.906h-7.172v7.301H373.708z"/>
				<path fill="#F6F6F6" d="M388.239,28.875v-17.18h3.469v17.18H388.239z"/>
				<path fill="#F6F6F6" d="M395.106,28.875V11.836h3.469V25.98h8.625v2.895H395.106z"/>
				<path fill="#F6F6F6" d="M415.896,11.695h6.34c1.43,0,2.52,0.109,3.27,0.328c1.008,0.297,1.871,0.824,2.59,1.582
					s1.266,1.686,1.641,2.783s0.562,2.451,0.562,4.061c0,1.414-0.176,2.633-0.527,3.656c-0.43,1.25-1.043,2.262-1.84,3.035
					c-0.602,0.586-1.414,1.043-2.438,1.371c-0.766,0.242-1.789,0.363-3.07,0.363h-6.527V11.695z M419.364,14.602V25.98h2.59
					c0.969,0,1.668-0.055,2.098-0.164c0.562-0.141,1.029-0.379,1.4-0.715s0.674-0.889,0.908-1.658s0.352-1.818,0.352-3.146
					s-0.117-2.348-0.352-3.059s-0.562-1.266-0.984-1.664s-0.957-0.668-1.605-0.809c-0.484-0.109-1.434-0.164-2.848-0.164H419.364z"
					/>
				<path fill="#F6F6F6" d="M433.239,28.875v-17.18h12.738v2.906h-9.27v3.809h8.625v2.895h-8.625v4.676h9.598v2.895H433.239z"/>
				<path fill="#F6F6F6" d="M455.938,28.875v-17.18h11.777v2.906h-8.309v4.066h7.172v2.906h-7.172v7.301H455.938z"/>
				<path fill="#F6F6F6" d="M470.552,11.695h3.469V21c0,1.477,0.043,2.434,0.129,2.871c0.148,0.703,0.502,1.268,1.061,1.693
					s1.322,0.639,2.291,0.639c0.984,0,1.727-0.201,2.227-0.604s0.801-0.896,0.902-1.482s0.152-1.559,0.152-2.918v-9.504h3.469v9.023
					c0,2.062-0.094,3.52-0.281,4.371s-0.533,1.57-1.037,2.156s-1.178,1.053-2.021,1.4s-1.945,0.521-3.305,0.521
					c-1.641,0-2.885-0.189-3.732-0.568s-1.518-0.871-2.01-1.477s-0.816-1.24-0.973-1.904c-0.227-0.984-0.34-2.438-0.34-4.359V11.695
					z"/>
				<path fill="#F6F6F6" d="M487.942,28.875v-17.18h3.375l7.031,11.473V11.695h3.223v17.18h-3.48l-6.926-11.203v11.203H487.942z"/>
				<path fill="#F6F6F6" d="M516.231,22.559l3.363,1.066c-0.516,1.875-1.373,3.268-2.572,4.178s-2.721,1.365-4.564,1.365
					c-2.281,0-4.156-0.779-5.625-2.338s-2.203-3.689-2.203-6.393c0-2.859,0.738-5.08,2.215-6.662s3.418-2.373,5.824-2.373
					c2.102,0,3.809,0.621,5.121,1.863c0.781,0.734,1.367,1.789,1.758,3.164l-3.434,0.82c-0.203-0.891-0.627-1.594-1.271-2.109
					s-1.428-0.773-2.35-0.773c-1.273,0-2.307,0.457-3.1,1.371s-1.189,2.395-1.189,4.441c0,2.172,0.391,3.719,1.172,4.641
					s1.797,1.383,3.047,1.383c0.922,0,1.715-0.293,2.379-0.879S515.942,23.816,516.231,22.559z"/>
				<path fill="#F6F6F6" d="M522.466,28.875v-17.18h3.469v17.18H522.466z"/>
				<path fill="#F6F6F6" d="M528.536,20.391c0-1.75,0.262-3.219,0.785-4.406c0.391-0.875,0.924-1.66,1.6-2.355
					s1.416-1.211,2.221-1.547c1.07-0.453,2.305-0.68,3.703-0.68c2.531,0,4.557,0.785,6.076,2.355s2.279,3.754,2.279,6.551
					c0,2.773-0.754,4.943-2.262,6.51s-3.523,2.35-6.047,2.35c-2.555,0-4.586-0.779-6.094-2.338S528.536,23.125,528.536,20.391z
					 M532.11,20.273c0,1.945,0.449,3.42,1.348,4.424s2.039,1.506,3.422,1.506s2.518-0.498,3.404-1.494s1.33-2.49,1.33-4.482
					c0-1.969-0.432-3.438-1.295-4.406s-2.01-1.453-3.439-1.453s-2.582,0.49-3.457,1.471S532.11,18.297,532.11,20.273z"/>
				<path fill="#F6F6F6" d="M547.942,28.875v-17.18h3.375l7.031,11.473V11.695h3.223v17.18h-3.48l-6.926-11.203v11.203H547.942z"/>
				<path fill="#F6F6F6" d="M580.731,28.875h-3.773l-1.5-3.902h-6.867l-1.418,3.902h-3.68l6.691-17.18h3.668L580.731,28.875z
					 M574.345,22.078l-2.367-6.375l-2.32,6.375H574.345z"/>
				<path fill="#F6F6F6" d="M582.524,28.875v-17.18h5.191l3.117,11.719l3.082-11.719h5.203v17.18h-3.223V15.352l-3.41,13.523h-3.34
					l-3.398-13.523v13.523H582.524z"/>
				<path fill="#F6F6F6" d="M602.458,28.875v-17.18h3.469v17.18H602.458z"/>
				<path fill="#F6F6F6" d="M609.231,28.875v-17.18h12.738v2.906h-9.27v3.809h8.625v2.895H612.7v4.676h9.598v2.895H609.231z"/>
				<path fill="#F6F6F6" d="M625.274,28.875v-17.18h3.375l7.031,11.473V11.695h3.223v17.18h-3.48l-6.926-11.203v11.203H625.274z"/>
				<path fill="#F6F6F6" d="M646.438,28.875V14.602h-5.098v-2.906h13.652v2.906h-5.086v14.273H646.438z"/>
				<path fill="#F6F6F6" d="M656.095,20.391c0-1.75,0.262-3.219,0.785-4.406c0.391-0.875,0.924-1.66,1.6-2.355
					s1.416-1.211,2.221-1.547c1.07-0.453,2.305-0.68,3.703-0.68c2.531,0,4.557,0.785,6.076,2.355s2.279,3.754,2.279,6.551
					c0,2.773-0.754,4.943-2.262,6.51s-3.523,2.35-6.047,2.35c-2.555,0-4.586-0.779-6.094-2.338S656.095,23.125,656.095,20.391z
					 M659.669,20.273c0,1.945,0.449,3.42,1.348,4.424s2.039,1.506,3.422,1.506s2.518-0.498,3.404-1.494s1.33-2.49,1.33-4.482
					c0-1.969-0.432-3.438-1.295-4.406s-2.01-1.453-3.439-1.453s-2.582,0.49-3.457,1.471S659.669,18.297,659.669,20.273z"/>
			</g>
		</g>
	</g>
	<rect x="53.396" y="306.767" fill="#A0C219" width="27.259" height="39"/>
	<rect x="89.52" y="306.767" fill="#A0C219" width="27.258" height="39"/>
	<rect x="124.925" y="306.767" fill="#A0C219" width="27.258" height="39"/>
	<rect x="160.977" y="306.767" fill="#A0C219" width="27.258" height="39"/>
	<rect x="197.18" y="306.767" fill="#A0C219" width="27.259" height="39"/>
	<rect x="232.695" y="306.767" fill="#A0C219" width="27.259" height="39"/>
	<rect x="267.547" y="306.767" fill="#A0C219" width="27.258" height="39"/>
	<rect x="304.51" y="306.767" fill="#A0C219" width="27.259" height="39"/>
	<rect x="339.914" y="306.767" fill="#A0C219" width="27.259" height="39"/>
	<rect x="376.305" y="306.767" fill="#A0C219" width="27.258" height="39"/>
	<rect x="411.54" y="306.767" fill="#A0C219" width="27.257" height="39"/>
	<rect x="447.435" y="306.767" fill="#A0C219" width="27.257" height="39"/>
	<rect x="484.691" y="306.767" fill="#A0C219" width="27.259" height="39"/>
	<rect x="521.074" y="306.767" fill="#A0C219" width="27.258" height="39"/>
	<rect x="556.924" y="306.767" fill="#A0C219" width="27.258" height="39"/>
	<rect x="592.82" y="306.767" fill="#A0C219" width="27.258" height="39"/>
	<rect x="628.771" y="306.767" fill="#A0C219" width="27.258" height="39"/>
	<rect x="666.18" y="306.767" fill="#A0C219" width="27.258" height="39"/>
	<rect x="702.302" y="306.767" fill="#A0C219" width="27.257" height="39"/>
	<rect x="737.707" y="306.767" fill="#A0C219" width="27.258" height="39"/>
	<rect x="773.759" y="306.767" fill="#A0C219" width="27.258" height="39"/>
	<rect x="809.963" y="306.767" fill="#A0C219" width="27.258" height="39"/>
	<rect x="845.479" y="306.767" fill="#A0C219" width="27.258" height="39"/>
	<rect x="880.328" y="306.767" fill="#A0C219" width="27.26" height="39"/>
	
		<path fill="#331842" stroke="#331842" stroke-width="2" stroke-linecap="round" stroke-linejoin="round" stroke-miterlimit="10" d="
		M80.584,93.214c0.016-0.216,0.086-0.379,0.211-0.487s0.26-0.162,0.4-0.162c0.143,0,0.275,0.054,0.4,0.162s0.195,0.271,0.213,0.487
		c0,1.15-0.004,2.284-0.014,3.4c-0.008,1.117,0.004,2.25,0.039,3.4c0.365-0.4,0.795-0.717,1.287-0.95
		c0.49-0.233,1.004-0.371,1.537-0.413c0.533-0.041,1.055,0.005,1.562,0.138c0.508,0.134,0.963,0.371,1.363,0.713
		c0.398,0.342,0.721,0.779,0.961,1.312c0.242,0.533,0.355,1.175,0.338,1.925c-0.033,0.967-0.291,1.75-0.775,2.35
		c-0.482,0.601-1.07,1.025-1.762,1.275s-1.422,0.325-2.188,0.225c-0.768-0.1-1.434-0.366-2-0.8l0.074,0.65
		c0.018,0.217-0.023,0.388-0.125,0.513c-0.1,0.125-0.221,0.199-0.361,0.225c-0.143,0.025-0.283-0.004-0.426-0.088
		c-0.141-0.083-0.236-0.225-0.287-0.425c-0.234-2.267-0.367-4.513-0.4-6.737S80.584,95.464,80.584,93.214z M87.658,102.64
		c0-0.584-0.133-1.079-0.4-1.488c-0.266-0.408-0.596-0.721-0.986-0.938c-0.393-0.216-0.826-0.328-1.301-0.337
		s-0.916,0.092-1.324,0.3c-0.41,0.209-0.764,0.525-1.062,0.95c-0.301,0.425-0.477,0.962-0.525,1.612
		c-0.051,0.617,0.059,1.129,0.324,1.537c0.268,0.409,0.609,0.709,1.025,0.9s0.871,0.283,1.363,0.275
		c0.49-0.009,0.949-0.121,1.375-0.338c0.424-0.217,0.783-0.529,1.074-0.938S87.658,103.256,87.658,102.64z"/>
	
		<path fill="#331842" stroke="#331842" stroke-width="2" stroke-linecap="round" stroke-linejoin="round" stroke-miterlimit="10" d="
		M82.473,182.862c0.25,0.25,0.617,0.445,1.1,0.588c0.484,0.141,0.967,0.203,1.451,0.188c0.482-0.018,0.908-0.117,1.273-0.301
		c0.367-0.184,0.551-0.475,0.551-0.875c0-0.367-0.121-0.65-0.363-0.85c-0.24-0.201-0.545-0.363-0.912-0.488
		s-0.766-0.232-1.199-0.324s-0.838-0.213-1.213-0.363s-0.699-0.35-0.975-0.6s-0.43-0.6-0.463-1.051
		c-0.033-0.465,0.033-0.875,0.199-1.225c0.168-0.35,0.396-0.645,0.688-0.887c0.293-0.242,0.625-0.426,1-0.551
		s0.764-0.203,1.164-0.236c0.566-0.033,1.1,0.062,1.6,0.287s0.883,0.529,1.15,0.912c0.1,0.15,0.133,0.297,0.1,0.438
		c-0.033,0.143-0.105,0.254-0.213,0.338c-0.109,0.084-0.238,0.117-0.387,0.1c-0.15-0.016-0.293-0.1-0.426-0.25
		c-0.217-0.232-0.5-0.412-0.85-0.537s-0.709-0.172-1.076-0.139c-0.467,0.051-0.875,0.197-1.225,0.438
		c-0.35,0.242-0.516,0.58-0.5,1.014c0,0.283,0.131,0.496,0.391,0.637c0.258,0.143,0.586,0.271,0.979,0.389
		c0.395,0.115,0.812,0.232,1.256,0.35s0.855,0.279,1.232,0.486c0.375,0.209,0.686,0.484,0.928,0.826
		c0.244,0.342,0.357,0.795,0.34,1.361c-0.016,0.451-0.154,0.834-0.414,1.15s-0.586,0.566-0.979,0.75s-0.832,0.309-1.318,0.375
		c-0.484,0.066-0.965,0.076-1.441,0.025c-0.479-0.051-0.922-0.154-1.33-0.312c-0.41-0.158-0.742-0.371-0.992-0.637
		c-0.15-0.15-0.217-0.316-0.199-0.5c0.016-0.184,0.078-0.338,0.188-0.463c0.107-0.125,0.244-0.201,0.412-0.225
		C82.164,182.675,82.322,182.729,82.473,182.862z"/>
	
		<path fill="#331842" stroke="#331842" stroke-width="2" stroke-linecap="round" stroke-linejoin="round" stroke-miterlimit="10" d="
		M87.601,254.162c0.016-0.216,0.084-0.379,0.199-0.487c0.117-0.108,0.25-0.162,0.4-0.162s0.287,0.054,0.411,0.162
		c0.126,0.108,0.198,0.271,0.214,0.487c-0.05,1.217-0.084,2.375-0.1,3.476c-0.018,1.1-0.021,2.191-0.013,3.274
		c0.009,1.084,0.021,2.18,0.038,3.288c0.016,1.108,0.033,2.271,0.049,3.487c-0.033,0.184-0.108,0.321-0.225,0.412
		c-0.117,0.092-0.247,0.138-0.387,0.138c-0.142,0-0.271-0.046-0.389-0.138c-0.115-0.091-0.191-0.229-0.225-0.412
		c0-0.184-0.004-0.366-0.013-0.55s-0.013-0.366-0.013-0.55c-0.533,0.517-1.178,0.858-1.938,1.024
		c-0.757,0.167-1.489,0.142-2.199-0.075c-0.708-0.216-1.323-0.629-1.85-1.237c-0.524-0.608-0.829-1.438-0.911-2.487
		c-0.051-1.166,0.166-2.104,0.648-2.812c0.484-0.708,1.088-1.195,1.812-1.463c0.728-0.266,1.489-0.32,2.29-0.162
		c0.799,0.158,1.49,0.529,2.073,1.112c-0.017-1.017-0.012-2.037,0.013-3.062C87.513,256.4,87.55,255.312,87.601,254.162z
		 M87.475,263.737c-0.017-0.75-0.178-1.37-0.487-1.862c-0.31-0.491-0.678-0.854-1.111-1.088c-0.434-0.232-0.901-0.337-1.401-0.312
		c-0.5,0.025-0.948,0.172-1.349,0.438c-0.4,0.268-0.721,0.654-0.964,1.163c-0.241,0.509-0.32,1.138-0.237,1.888
		c0.066,0.633,0.253,1.146,0.562,1.537s0.668,0.671,1.075,0.838c0.409,0.166,0.846,0.229,1.313,0.188
		c0.466-0.042,0.891-0.176,1.275-0.4c0.383-0.225,0.699-0.541,0.949-0.95C87.351,264.767,87.475,264.287,87.475,263.737z"/>
	
		<path fill="#331842" stroke="#331842" stroke-width="2" stroke-linecap="round" stroke-linejoin="round" stroke-miterlimit="10" d="
		M632.77,93.214c0.016-0.216,0.086-0.379,0.211-0.487s0.26-0.162,0.4-0.162c0.143,0,0.275,0.054,0.4,0.162s0.195,0.271,0.213,0.487
		c0,1.15-0.004,2.284-0.014,3.4c-0.008,1.117,0.004,2.25,0.039,3.4c0.365-0.4,0.795-0.717,1.287-0.95
		c0.49-0.233,1.004-0.371,1.537-0.413c0.533-0.041,1.055,0.005,1.562,0.138c0.508,0.134,0.963,0.371,1.363,0.713
		c0.398,0.342,0.721,0.779,0.961,1.312c0.242,0.533,0.355,1.175,0.338,1.925c-0.033,0.967-0.291,1.75-0.775,2.35
		c-0.482,0.601-1.07,1.025-1.762,1.275s-1.422,0.325-2.188,0.225c-0.768-0.1-1.434-0.366-2-0.8l0.074,0.65
		c0.018,0.217-0.023,0.388-0.125,0.513c-0.1,0.125-0.221,0.199-0.361,0.225c-0.143,0.025-0.283-0.004-0.426-0.088
		c-0.141-0.083-0.236-0.225-0.287-0.425c-0.234-2.267-0.367-4.513-0.4-6.737S632.77,95.464,632.77,93.214z M639.844,102.64
		c0-0.584-0.133-1.079-0.4-1.488c-0.266-0.408-0.596-0.721-0.986-0.938c-0.393-0.216-0.826-0.328-1.301-0.337
		s-0.916,0.092-1.324,0.3c-0.41,0.209-0.764,0.525-1.062,0.95c-0.301,0.425-0.477,0.962-0.525,1.612
		c-0.051,0.617,0.059,1.129,0.324,1.537c0.268,0.409,0.609,0.709,1.025,0.9s0.871,0.283,1.363,0.275
		c0.49-0.009,0.949-0.121,1.375-0.338c0.424-0.217,0.783-0.529,1.074-0.938S639.844,103.256,639.844,102.64z"/>
	
		<path fill="#331842" stroke="#331842" stroke-width="2" stroke-linecap="round" stroke-linejoin="round" stroke-miterlimit="10" d="
		M358.352,182.862c0.25,0.25,0.617,0.445,1.1,0.588c0.484,0.141,0.967,0.203,1.451,0.188c0.482-0.018,0.908-0.117,1.273-0.301
		c0.367-0.184,0.551-0.475,0.551-0.875c0-0.367-0.121-0.65-0.363-0.85c-0.24-0.201-0.545-0.363-0.912-0.488
		s-0.766-0.232-1.199-0.324s-0.838-0.213-1.213-0.363s-0.699-0.35-0.975-0.6s-0.43-0.6-0.463-1.051
		c-0.033-0.465,0.033-0.875,0.199-1.225c0.168-0.35,0.396-0.645,0.688-0.887c0.293-0.242,0.625-0.426,1-0.551
		s0.764-0.203,1.164-0.236c0.566-0.033,1.1,0.062,1.6,0.287s0.883,0.529,1.15,0.912c0.1,0.15,0.133,0.297,0.1,0.438
		c-0.033,0.143-0.105,0.254-0.213,0.338c-0.109,0.084-0.238,0.117-0.387,0.1c-0.15-0.016-0.293-0.1-0.426-0.25
		c-0.217-0.232-0.5-0.412-0.85-0.537s-0.709-0.172-1.076-0.139c-0.467,0.051-0.875,0.197-1.225,0.438
		c-0.35,0.242-0.516,0.58-0.5,1.014c0,0.283,0.131,0.496,0.391,0.637c0.258,0.143,0.586,0.271,0.979,0.389
		c0.395,0.115,0.812,0.232,1.256,0.35s0.855,0.279,1.232,0.486c0.375,0.209,0.686,0.484,0.928,0.826
		c0.244,0.342,0.357,0.795,0.34,1.361c-0.016,0.451-0.154,0.834-0.414,1.15s-0.586,0.566-0.979,0.75s-0.832,0.309-1.318,0.375
		c-0.484,0.066-0.965,0.076-1.441,0.025c-0.479-0.051-0.922-0.154-1.33-0.312c-0.41-0.158-0.742-0.371-0.992-0.637
		c-0.15-0.15-0.217-0.316-0.199-0.5c0.016-0.184,0.078-0.338,0.188-0.463c0.107-0.125,0.244-0.201,0.412-0.225
		C358.043,182.675,358.201,182.729,358.352,182.862z"/>
	
		<path fill="#331842" stroke="#331842" stroke-width="2" stroke-linecap="round" stroke-linejoin="round" stroke-miterlimit="10" d="
		M360.2,254.162c0.016-0.216,0.084-0.379,0.199-0.487c0.117-0.108,0.25-0.162,0.4-0.162s0.288,0.054,0.413,0.162
		s0.195,0.271,0.212,0.487c-0.048,1.217-0.084,2.375-0.1,3.476c-0.018,1.1-0.021,2.191-0.013,3.274
		c0.009,1.084,0.021,2.18,0.038,3.288c0.016,1.108,0.033,2.271,0.049,3.487c-0.033,0.184-0.107,0.321-0.225,0.412
		c-0.117,0.092-0.246,0.138-0.387,0.138c-0.143,0-0.271-0.046-0.389-0.138c-0.115-0.091-0.191-0.229-0.225-0.412
		c0-0.184-0.004-0.366-0.013-0.55s-0.013-0.366-0.013-0.55c-0.533,0.517-1.178,0.858-1.937,1.024
		c-0.759,0.167-1.491,0.142-2.2-0.075c-0.709-0.216-1.324-0.629-1.851-1.237c-0.524-0.608-0.829-1.438-0.911-2.487
		c-0.051-1.166,0.166-2.104,0.648-2.812c0.484-0.708,1.088-1.195,1.813-1.463c0.726-0.266,1.487-0.32,2.288-0.162
		c0.799,0.158,1.49,0.529,2.074,1.112c-0.018-1.017-0.013-2.037,0.013-3.062C360.111,256.4,360.149,255.312,360.2,254.162z
		 M360.075,263.737c-0.018-0.75-0.181-1.37-0.487-1.862c-0.31-0.491-0.68-0.854-1.113-1.088c-0.433-0.232-0.899-0.337-1.399-0.312
		c-0.5,0.025-0.948,0.172-1.35,0.438c-0.4,0.268-0.721,0.654-0.964,1.163c-0.241,0.509-0.319,1.138-0.237,1.888
		c0.066,0.633,0.254,1.146,0.563,1.537c0.307,0.392,0.667,0.671,1.074,0.838c0.409,0.166,0.847,0.229,1.312,0.188
		c0.468-0.042,0.892-0.176,1.276-0.4c0.383-0.225,0.699-0.541,0.949-0.95C359.95,264.767,360.075,264.287,360.075,263.737z"/>
	
		<path fill="#331842" stroke="#331842" stroke-width="2" stroke-linecap="round" stroke-linejoin="round" stroke-miterlimit="10" d="
		M356.463,93.214c0.016-0.216,0.086-0.379,0.211-0.487s0.26-0.162,0.4-0.162c0.143,0,0.275,0.054,0.4,0.162s0.195,0.271,0.213,0.487
		c0,1.15-0.004,2.284-0.014,3.4c-0.008,1.117,0.004,2.25,0.039,3.4c0.365-0.4,0.795-0.717,1.287-0.95
		c0.49-0.233,1.004-0.371,1.537-0.413c0.533-0.041,1.055,0.005,1.562,0.138c0.508,0.134,0.963,0.371,1.363,0.713
		c0.398,0.342,0.721,0.779,0.961,1.312c0.242,0.533,0.355,1.175,0.338,1.925c-0.033,0.967-0.291,1.75-0.775,2.35
		c-0.482,0.601-1.07,1.025-1.762,1.275s-1.422,0.325-2.188,0.225c-0.768-0.1-1.434-0.366-2-0.8l0.074,0.65
		c0.018,0.217-0.023,0.388-0.125,0.513c-0.1,0.125-0.221,0.199-0.361,0.225c-0.143,0.025-0.283-0.004-0.426-0.088
		c-0.141-0.083-0.236-0.225-0.287-0.425c-0.234-2.267-0.367-4.513-0.4-6.737S356.463,95.464,356.463,93.214z M363.537,102.64
		c0-0.584-0.133-1.079-0.4-1.488c-0.266-0.408-0.596-0.721-0.986-0.938c-0.393-0.216-0.826-0.328-1.301-0.337
		s-0.916,0.092-1.324,0.3c-0.41,0.209-0.764,0.525-1.062,0.95c-0.301,0.425-0.477,0.962-0.525,1.612
		c-0.051,0.617,0.059,1.129,0.324,1.537c0.268,0.409,0.609,0.709,1.025,0.9s0.871,0.283,1.363,0.275
		c0.49-0.009,0.949-0.121,1.375-0.338c0.424-0.217,0.783-0.529,1.074-0.938S363.537,103.256,363.537,102.64z"/>
	
		<path fill="#331842" stroke="#331842" stroke-width="2" stroke-linecap="round" stroke-linejoin="round" stroke-miterlimit="10" d="
		M633.172,182.862c0.25,0.25,0.617,0.445,1.1,0.588c0.484,0.141,0.967,0.203,1.451,0.188c0.482-0.018,0.908-0.117,1.273-0.301
		c0.367-0.184,0.551-0.475,0.551-0.875c0-0.367-0.121-0.65-0.363-0.85c-0.24-0.201-0.545-0.363-0.912-0.488
		s-0.766-0.232-1.199-0.324s-0.838-0.213-1.213-0.363s-0.699-0.35-0.975-0.6s-0.43-0.6-0.463-1.051
		c-0.033-0.465,0.033-0.875,0.199-1.225c0.168-0.35,0.396-0.645,0.688-0.887c0.293-0.242,0.625-0.426,1-0.551
		s0.764-0.203,1.164-0.236c0.566-0.033,1.1,0.062,1.6,0.287s0.883,0.529,1.15,0.912c0.1,0.15,0.133,0.297,0.1,0.438
		c-0.033,0.143-0.105,0.254-0.213,0.338c-0.109,0.084-0.238,0.117-0.387,0.1c-0.15-0.016-0.293-0.1-0.426-0.25
		c-0.217-0.232-0.5-0.412-0.85-0.537s-0.709-0.172-1.076-0.139c-0.467,0.051-0.875,0.197-1.225,0.438
		c-0.35,0.242-0.516,0.58-0.5,1.014c0,0.283,0.131,0.496,0.391,0.637c0.258,0.143,0.586,0.271,0.979,0.389
		c0.395,0.115,0.812,0.232,1.256,0.35s0.855,0.279,1.232,0.486c0.375,0.209,0.686,0.484,0.928,0.826
		c0.244,0.342,0.357,0.795,0.34,1.361c-0.016,0.451-0.154,0.834-0.414,1.15s-0.586,0.566-0.979,0.75s-0.832,0.309-1.318,0.375
		c-0.484,0.066-0.965,0.076-1.441,0.025c-0.479-0.051-0.922-0.154-1.33-0.312c-0.41-0.158-0.742-0.371-0.992-0.637
		c-0.15-0.15-0.217-0.316-0.199-0.5c0.016-0.184,0.078-0.338,0.188-0.463c0.107-0.125,0.244-0.201,0.412-0.225
		C632.863,182.675,633.021,182.729,633.172,182.862z"/>
	
		<path fill="#331842" stroke="#331842" stroke-width="2" stroke-linecap="round" stroke-linejoin="round" stroke-miterlimit="10" d="
		M638.301,254.162c0.016-0.216,0.084-0.379,0.199-0.487c0.117-0.108,0.25-0.162,0.4-0.162s0.287,0.054,0.412,0.162
		s0.197,0.271,0.213,0.487c-0.049,1.217-0.084,2.375-0.1,3.476c-0.018,1.1-0.021,2.191-0.012,3.274
		c0.008,1.084,0.02,2.18,0.037,3.288c0.016,1.108,0.033,2.271,0.049,3.487c-0.033,0.184-0.107,0.321-0.225,0.412
		c-0.117,0.092-0.246,0.138-0.387,0.138c-0.143,0-0.271-0.046-0.389-0.138c-0.115-0.091-0.191-0.229-0.225-0.412
		c0-0.184-0.004-0.366-0.012-0.55c-0.01-0.184-0.014-0.366-0.014-0.55c-0.533,0.517-1.178,0.858-1.938,1.024
		c-0.758,0.167-1.49,0.142-2.199-0.075c-0.709-0.216-1.324-0.629-1.85-1.237s-0.83-1.438-0.912-2.487
		c-0.051-1.166,0.166-2.104,0.648-2.812c0.484-0.708,1.088-1.195,1.812-1.463c0.727-0.266,1.488-0.32,2.289-0.162
		c0.799,0.158,1.49,0.529,2.074,1.112c-0.018-1.017-0.012-2.037,0.012-3.062C638.213,256.4,638.25,255.312,638.301,254.162z
		 M638.176,263.737c-0.018-0.75-0.18-1.37-0.488-1.862c-0.309-0.491-0.678-0.854-1.111-1.088c-0.434-0.232-0.9-0.337-1.4-0.312
		c-0.5,0.025-0.949,0.172-1.35,0.438c-0.4,0.268-0.721,0.654-0.963,1.163s-0.32,1.138-0.238,1.888
		c0.066,0.633,0.254,1.146,0.562,1.537s0.668,0.671,1.076,0.838c0.408,0.166,0.846,0.229,1.312,0.188
		c0.467-0.042,0.891-0.176,1.275-0.4c0.383-0.225,0.699-0.541,0.949-0.95C638.051,264.767,638.176,264.287,638.176,263.737z"/>
	<path fill="#331842" d="M929.893,84.282c-13.572,0-24.584,11.011-24.584,24.59c0,13.574,11.012,24.584,24.584,24.584
		c13.578,0,24.59-11.01,24.59-24.584C954.482,95.293,943.471,84.282,929.893,84.282z M921,105.116c0-0.854,0.98-1.342,1.666-0.834
		l4.801,3.586c0.668,0.5,0.668,1.502,0,2.004l-4.801,3.584c-0.686,0.511-1.666,0.02-1.666-0.834V105.116z M943.854,109.872
		l-21.188,15.836c-0.686,0.521-1.666,0.029-1.666-0.833v-3.096c0-0.833,0.396-1.624,1.066-2.122l13.334-9.973
		c0.537-0.408,0.537-1.223,0-1.629l-13.334-9.973c-0.67-0.5-1.066-1.289-1.066-2.113v-3.104c0-0.864,0.98-1.355,1.666-0.838
		l21.188,15.84C944.521,108.368,944.521,109.37,943.854,109.872z"/>
	<path fill="#331842" d="M0,108.872c0,13.574,11.012,24.584,24.59,24.584c13.574,0,24.584-11.01,24.584-24.584
		c0-13.579-11.01-24.59-24.584-24.59C11.012,84.282,0,95.293,0,108.872z M33.484,112.622c0,0.854-0.982,1.345-1.668,0.834
		l-4.801-3.584c-0.668-0.502-0.668-1.504,0-2.004l4.801-3.586c0.686-0.508,1.668-0.02,1.668,0.834V112.622z M10.631,107.868
		l21.186-15.84c0.686-0.518,1.668-0.026,1.668,0.838v3.104c0,0.824-0.398,1.613-1.068,2.113l-13.334,9.973
		c-0.537,0.406-0.537,1.221,0,1.629l13.334,9.973c0.67,0.498,1.068,1.289,1.068,2.122v3.096c0,0.862-0.982,1.354-1.668,0.833
		l-21.186-15.836C9.961,109.37,9.961,108.368,10.631,107.868z"/>
	<g>
		<g>
			<path fill="#331842" d="M246.089,100.564v-1.783h3.504v1.783H246.089z"/>
		</g>
	</g>
	<g>
		<g>
			<path fill="#331842" d="M246.089,182.643v-1.783h3.504v1.783H246.089z"/>
		</g>
	</g>
	<g>
		<g>
			<path fill="#331842" d="M246.089,262.643v-1.783h3.504v1.783H246.089z"/>
		</g>
	</g>
	<g>
		<g>
			<path fill="#331842" d="M521.562,100.564v-1.783h3.504v1.783H521.562z"/>
		</g>
	</g>
	<g>
		<g>
			<path fill="#331842" d="M521.562,182.643v-1.783h3.504v1.783H521.562z"/>
		</g>
	</g>
	<g>
		<g>
			<path fill="#331842" d="M521.562,262.643v-1.783h3.504v1.783H521.562z"/>
		</g>
	</g>
	<g>
		<g>
			<path fill="#331842" d="M799.273,100.564v-1.783h3.504v1.783H799.273z"/>
		</g>
	</g>
	<g>
		<g>
			<path fill="#331842" d="M799.273,182.643v-1.783h3.504v1.783H799.273z"/>
		</g>
	</g>
	<g>
		<g>
			<path fill="#331842" d="M799.273,262.643v-1.783h3.504v1.783H799.273z"/>
		</g>
	</g>
</g>
</svg>
