<?xml version="1.0" encoding="utf-8"?>
<!-- Generator: Adobe Illustrator 16.0.0, SVG Export Plug-In . SVG Version: 6.00 Build 0)  -->
<!DOCTYPE svg PUBLIC "-//W3C//DTD SVG 1.1//EN" "http://www.w3.org/Graphics/SVG/1.1/DTD/svg11.dtd">
<svg version="1.1" id="Capa_1" xmlns="http://www.w3.org/2000/svg" xmlns:xlink="http://www.w3.org/1999/xlink" x="0px" y="0px"
	 width="27.258px" height="39px" viewBox="0 0 27.258 39" enable-background="new 0 0 27.258 39" xml:space="preserve">
<g>
	<rect fill="#A0C219" width="27.258" height="39"/>
	
		<path fill="#331842" stroke="#331842" stroke-width="2" stroke-linecap="round" stroke-linejoin="round" stroke-miterlimit="10" d="
		M8.254,19.835c0-1.683,0.262-3.096,0.787-4.237s1.184-2,1.975-2.575c0.793-0.574,1.654-0.87,2.588-0.887s1.797,0.25,2.588,0.8
		s1.453,1.392,1.988,2.524c0.533,1.134,0.807,2.551,0.824,4.25c0,0.9-0.104,1.771-0.312,2.613s-0.525,1.592-0.949,2.25
		c-0.426,0.658-0.963,1.195-1.613,1.612s-1.416,0.642-2.301,0.675c-0.982,0.033-1.828-0.138-2.537-0.513s-1.287-0.892-1.736-1.55
		c-0.451-0.658-0.779-1.416-0.988-2.275C8.357,21.665,8.254,20.769,8.254,19.835z M13.717,25.686c0.701,0,1.312-0.175,1.83-0.525
		c0.518-0.35,0.941-0.808,1.266-1.375c0.326-0.566,0.568-1.212,0.729-1.938c0.158-0.725,0.238-1.462,0.238-2.212
		c0-1.4-0.209-2.571-0.627-3.513s-0.938-1.642-1.555-2.101c-0.619-0.458-1.291-0.688-2.02-0.688c-0.727,0-1.395,0.238-2.006,0.713
		c-0.609,0.475-1.115,1.188-1.518,2.138c-0.4,0.95-0.592,2.125-0.576,3.524c0,0.734,0.066,1.463,0.201,2.188
		c0.133,0.726,0.359,1.367,0.676,1.926c0.318,0.559,0.748,1.012,1.293,1.362C12.191,25.535,12.881,25.702,13.717,25.686z"/>
</g>
</svg>
