<?xml version="1.0" encoding="utf-8"?>
<!-- Generator: Adobe Illustrator 16.0.0, SVG Export Plug-In . SVG Version: 6.00 Build 0)  -->
<!DOCTYPE svg PUBLIC "-//W3C//DTD SVG 1.1//EN" "http://www.w3.org/Graphics/SVG/1.1/DTD/svg11.dtd">
<svg version="1.1" id="Capa_1" xmlns="http://www.w3.org/2000/svg" xmlns:xlink="http://www.w3.org/1999/xlink" x="0px" y="0px"
	 width="27.258px" height="39px" viewBox="0 0 27.258 39" enable-background="new 0 0 27.258 39" xml:space="preserve">
<g>
	<rect fill="#A0C219" width="27.258" height="39"/>
	
		<path fill="#331842" stroke="#331842" stroke-width="2" stroke-linecap="round" stroke-linejoin="round" stroke-miterlimit="10" d="
		M10.594,13.28c-0.199,0-0.354-0.054-0.463-0.162c-0.107-0.108-0.166-0.233-0.174-0.375c-0.01-0.142,0.037-0.271,0.137-0.388
		s0.258-0.184,0.475-0.2l6.1-0.05c0.283,0,0.471,0.134,0.562,0.399c0.092,0.268,0.096,0.534,0.014,0.801L13.293,26.38
		c-0.066,0.2-0.174,0.342-0.324,0.426c-0.15,0.083-0.301,0.107-0.449,0.074c-0.15-0.033-0.271-0.116-0.363-0.25
		c-0.092-0.133-0.096-0.308-0.012-0.524l3.898-12.9L10.594,13.28z"/>
</g>
</svg>
