<svg xmlns="http://www.w3.org/2000/svg" width="42.381" height="49.465" viewBox="0 0 42.381 49.465">
  <g id="Grupo_23" data-name="Grupo 23" transform="translate(-1368 -2514.464)">
    <path id="Trazado_172" data-name="Trazado 172" d="M0,0A4.075,4.075,0,0,0-.375-2.639a5.349,5.349,0,0,0,.786-.193,1.026,1.026,0,0,0,.637-1.026q0-10.541,0-21.076,0-2.76,0-5.514A1.134,1.134,0,0,0-.211-31.706H-34.583A1.166,1.166,0,0,0-35.9-30.385c0,1,0,2.009,0,3.012q0,11.607,0,23.217a2.569,2.569,0,0,0,.055.639,1.162,1.162,0,0,0,1.229.819q3.193,0,6.39,0h8.045a9.2,9.2,0,0,0-.419,1.33A9.019,9.019,0,0,0-20.6,0c-.041,0-.108.012-.173.012q-4.046,0-8.089.005c-1.949,0-3.9-.007-5.847,0a3.884,3.884,0,0,1-3.885-3.8c-.022-3.444,0-6.887,0-10.333,0-2.67-.007-5.34-.007-8.01q0-4.164,0-8.323a3.9,3.9,0,0,1,3.975-3.977q9.523,0,19.041,0,7.667,0,15.33,0a3.9,3.9,0,0,1,4,3.405,5.668,5.668,0,0,1,.029.875q0,13.138,0,26.281A3.918,3.918,0,0,1,.192,0C.15,0,.107,0,0,0" transform="translate(1406.609 2548.895)" fill="#20143b"/>
    <path id="Trazado_173" data-name="Trazado 173" d="M0,0C.162,0,.327,0,.489,0a1.991,1.991,0,0,0,1.3-.418c.3-.219.592-.439.894-.655a1.937,1.937,0,0,1,2.327.009c.285.2.571.412.852.625A2.131,2.131,0,0,0,7.252,0,10.055,10.055,0,0,1,8.54.022a1.855,1.855,0,0,1,1.628,1.343c.122.348.232.7.339,1.053a2.071,2.071,0,0,0,.823,1.119c.282.2.558.4.838.6a1.955,1.955,0,0,1,.746,2.276,7.085,7.085,0,0,1-.24.707,2.731,2.731,0,0,0,.049,2.148,2.789,2.789,0,0,1,.274,1.5,1.944,1.944,0,0,1-.749,1.246c-.309.234-.624.459-.94.678a2.011,2.011,0,0,0-.794,1.081c-.11.34-.215.686-.329,1.027A1.944,1.944,0,0,1,8.23,16.211c-.371,0-.739,0-1.109,0a1.9,1.9,0,0,0-1.16.368c-.311.225-.623.454-.934.682a1.937,1.937,0,0,1-2.349.022c-.306-.219-.609-.442-.914-.666A2.031,2.031,0,0,0,.514,16.2,10.654,10.654,0,0,1-.95,16.169a1.806,1.806,0,0,1-1.535-1.312c-.116-.341-.236-.68-.337-1.028a2.053,2.053,0,0,0-.842-1.161c-.289-.2-.573-.406-.856-.617a1.934,1.934,0,0,1-.718-2.238c.117-.367.238-.733.359-1.1a1.93,1.93,0,0,0,0-1.216c-.119-.358-.234-.717-.35-1.075A1.942,1.942,0,0,1-4.5,4.144c.3-.217.6-.437.9-.65a1.972,1.972,0,0,0,.759-1.042c.118-.367.236-.734.358-1.1A1.932,1.932,0,0,1-.643,0c.215,0,.428,0,.643,0ZM10.467,8.11A6.63,6.63,0,1,0,3.88,14.733,6.629,6.629,0,0,0,10.467,8.11" transform="translate(1392.494 2537.72)" fill="#20143b"/>
    <path id="Trazado_174" data-name="Trazado 174" d="M0,0C-2.128,0-4.258,0-6.386,0A2.028,2.028,0,0,1-8.409-1.48,2.045,2.045,0,0,1-6.4-4.075c1.933-.008,3.864,0,5.794,0q3.479,0,6.955,0a2.031,2.031,0,0,1,1.791.93A2.019,2.019,0,0,1,6.669-.027C5.85.034,5.021,0,4.2,0,2.8.006,1.4,0,0,0Z" transform="translate(1389.199 2526.599)" fill="#20143b"/>
    <path id="Trazado_175" data-name="Trazado 175" d="M0,0Q-6.388,0-12.775,0a1.2,1.2,0,0,1-.9-.3,1.022,1.022,0,0,1-.238-1.092.988.988,0,0,1,.9-.654,1.137,1.137,0,0,1,.155,0H12.871a1.018,1.018,0,0,1,1.06.687,1.007,1.007,0,0,1-.8,1.33A2.455,2.455,0,0,1,12.748,0H4.89Q2.444,0,0,0" transform="translate(1389.19 2535.007)" fill="#20143b"/>
    <path id="Trazado_176" data-name="Trazado 176" d="M0,0A3.5,3.5,0,0,0,2.136.389a2.12,2.12,0,0,1,1.6.5c.3.24.613.465.95.719C4.528,3,4.37,4.44,4.207,5.88,4.082,7,3.95,8.114,3.824,9.232c-.045.406-.238.5-.587.266C2.5,9.011,1.763,8.522,1.032,8.024A.416.416,0,0,0,.6,7.98C-.717,8.489-2.04,8.991-3.364,9.5c-.165.063-.358.155-.463-.03a.573.573,0,0,1,0-.445Q-2.017,4.711-.187.412C-.132.28-.069.151,0,0" transform="translate(1390.426 2554.305)" fill="#20143b"/>
    <path id="Trazado_177" data-name="Trazado 177" d="M0,0C.222.518.431,1,.638,1.492Q2.2,5.177,3.759,8.863a.627.627,0,0,1,.075.19c.006.143.041.326-.033.419-.056.069-.272.075-.389.03-.687-.243-1.365-.509-2.047-.769C.723,8.487.082,8.247-.556,7.991a.518.518,0,0,0-.544.065c-.715.49-1.44.967-2.163,1.443-.34.223-.529.129-.574-.267q-.35-3.107-.707-6.213c-.051-.434-.1-.869-.14-1.306A.271.271,0,0,1-4.6,1.5c.384-.276.77-.547,1.162-.811a1.681,1.681,0,0,1,1.019-.3c.257.012.516,0,.774,0A3.026,3.026,0,0,0,0,0" transform="translate(1402.248 2554.311)" fill="#20143b"/>
    <path id="Trazado_178" data-name="Trazado 178" d="M0,0A3.943,3.943,0,0,0-.791,1.832c-.024.148-.1.2-.265.2q-6.092-.012-12.183-.008a.986.986,0,0,1-1-1A.976.976,0,0,1-13.271.007C-11.95-.008-10.628,0-9.307,0Q-4.813,0-.319,0Z" transform="translate(1389.444 2537.642)" fill="#20143b"/>
    <path id="Trazado_179" data-name="Trazado 179" d="M0,0H2.381c.131,0,.259,0,.387,0a.492.492,0,0,1,.5.509q.009,1.019,0,2.036a.5.5,0,0,1-.565.528c-.806,0-1.612,0-2.42,0H0V5.7c0,.488-.181.661-.67.663q-.9,0-1.8,0c-.412,0-.606-.173-.607-.587-.009-.808-.011-1.615,0-2.42,0-.216-.061-.278-.273-.276-.788.011-1.578,0-2.369,0-.458,0-.64-.184-.64-.636q0-.918,0-1.83c0-.422.19-.608.614-.611.8,0,1.6-.01,2.394.006.222,0,.275-.071.272-.279-.01-.791,0-1.581,0-2.368,0-.463.178-.634.643-.636H-.611c.41,0,.6.183.607.6C0-1.894,0-1.1,0-.315Z" transform="translate(1397.876 2544.284)" fill="#20143b"/>
  </g>
</svg>
