<svg xmlns="http://www.w3.org/2000/svg" width="49.089" height="54.049" viewBox="0 0 49.089 54.049">
  <g id="Grupo_22" data-name="Grupo 22" transform="translate(-1106 -513.048)">
    <path id="Trazado_172" data-name="Trazado 172" d="M0,0A3.719,3.719,0,0,0-.342-2.4a4.9,4.9,0,0,0,.716-.176.937.937,0,0,0,.581-.937q0-9.6,0-19.2,0-2.511,0-5.023A1.033,1.033,0,0,0-.192-28.886H-31.507a1.061,1.061,0,0,0-1.193,1.2c-.005.914,0,1.831,0,2.746q0,10.575,0,21.15a2.3,2.3,0,0,0,.051.582,1.057,1.057,0,0,0,1.119.746q2.91,0,5.82,0h7.33a7.788,7.788,0,0,0-.378,1.211A7.945,7.945,0,0,0-18.772,0c-.036,0-.1.01-.156.01l-7.37,0c-1.779,0-3.553-.006-5.329,0a3.537,3.537,0,0,1-3.539-3.464c-.021-3.137,0-6.275,0-9.412,0-2.433-.007-4.868-.007-7.3q0-3.787,0-7.581a3.551,3.551,0,0,1,3.622-3.625H-.238a3.554,3.554,0,0,1,3.647,3.1,5.3,5.3,0,0,1,.026.8q0,11.97,0,23.944A3.569,3.569,0,0,1,.175,0C.136,0,.1,0,0,0" transform="translate(1141.175 544.419)" fill="#20143b"/>
    <path id="Trazado_173" data-name="Trazado 173" d="M0,0C.147,0,.295,0,.445,0a1.822,1.822,0,0,0,1.182-.38c.268-.2.54-.4.812-.6A1.766,1.766,0,0,1,4.561-.97c.261.188.522.377.776.571a1.95,1.95,0,0,0,1.27.4A9.162,9.162,0,0,1,7.779.021,1.692,1.692,0,0,1,9.264,1.245c.108.316.208.637.307.96a1.9,1.9,0,0,0,.75,1.018c.257.18.508.364.762.547a1.776,1.776,0,0,1,.681,2.073,6.221,6.221,0,0,1-.219.642,2.5,2.5,0,0,0,.046,1.959,2.542,2.542,0,0,1,.249,1.365,1.767,1.767,0,0,1-.686,1.137c-.279.21-.566.416-.854.617a1.834,1.834,0,0,0-.722.981c-.1.315-.2.628-.3.94A1.772,1.772,0,0,1,7.5,14.77c-.337,0-.674,0-1.011,0a1.707,1.707,0,0,0-1.053.335c-.287.207-.571.412-.855.619a1.757,1.757,0,0,1-2.138.023c-.281-.2-.557-.406-.835-.609a1.824,1.824,0,0,0-1.136-.369,9.7,9.7,0,0,1-1.334-.035,1.646,1.646,0,0,1-1.4-1.195c-.107-.31-.216-.619-.307-.936a1.879,1.879,0,0,0-.766-1.058c-.263-.184-.524-.369-.781-.562a1.764,1.764,0,0,1-.655-2.039c.106-.336.219-.669.325-1a1.73,1.73,0,0,0,0-1.106c-.106-.328-.213-.654-.318-.982A1.769,1.769,0,0,1-4.1,3.776c.271-.2.543-.4.818-.592a1.819,1.819,0,0,0,.693-.949c.106-.334.215-.669.322-1A1.762,1.762,0,0,1-.589,0C-.392,0-.2,0,0,0ZM9.534,7.388a6.041,6.041,0,1,0-6,6.036,6.036,6.036,0,0,0,6-6.036" transform="translate(1128.316 534.236)" fill="#20143b"/>
    <path id="Trazado_174" data-name="Trazado 174" d="M0,0Q-2.909,0-5.82,0A1.852,1.852,0,0,1-7.662-1.35,1.862,1.862,0,0,1-5.831-3.712c1.762-.007,3.521,0,5.279,0H5.783a1.852,1.852,0,0,1,1.633.847A1.841,1.841,0,0,1,6.076-.024C5.329.033,4.576,0,3.825,0H0Z" transform="translate(1125.313 524.106)" fill="#20143b"/>
    <path id="Trazado_175" data-name="Trazado 175" d="M0,0H-11.639a1.088,1.088,0,0,1-.822-.268.935.935,0,0,1-.218-.994.906.906,0,0,1,.823-.6c.046,0,.1,0,.141,0H11.727a.93.93,0,0,1,.967.628.915.915,0,0,1-.729,1.209A2.565,2.565,0,0,1,11.614,0H0Z" transform="translate(1125.303 531.766)" fill="#20143b"/>
    <path id="Trazado_176" data-name="Trazado 176" d="M0,0A3.613,3.613,0,0,0-.721,1.668c-.02.138-.093.186-.241.186q-5.552-.009-11.1-.006a.9.9,0,0,1-.912-.907.894.894,0,0,1,.879-.934C-10.887-.007-9.684,0-8.479,0H0Z" transform="translate(1125.537 534.165)" fill="#20143b"/>
    <path id="Trazado_177" data-name="Trazado 177" d="M0,0H2.172c.116,0,.233,0,.351,0a.449.449,0,0,1,.455.466c.009.619.007,1.235,0,1.855a.455.455,0,0,1-.512.477C1.731,2.805,1,2.8.26,2.805H0v.271c0,.7,0,1.409,0,2.113,0,.442-.161.6-.609.6H-2.253c-.377,0-.549-.16-.555-.536-.006-.735-.006-1.471.006-2.205,0-.2-.056-.253-.253-.252-.72.012-1.437.006-2.157.006-.416,0-.582-.168-.582-.58,0-.556,0-1.112,0-1.667,0-.383.173-.555.561-.556.727,0,1.454-.009,2.181,0,.2,0,.25-.062.247-.252-.009-.72,0-1.44,0-2.159.006-.421.165-.575.587-.575.554,0,1.11,0,1.664,0,.376,0,.55.163.555.539C0-1.726,0-1.006,0-.287,0-.2,0-.118,0,0" transform="translate(1133.217 540.218)" fill="#20143b"/>
    <path id="Trazado_178" data-name="Trazado 178" d="M0,0C-1.8-3.987-3.567-7.918-5.359-11.891c.055-.032.1-.056.136-.076,2.942-1.29,5.865-2.627,8.828-3.857a6.933,6.933,0,0,1,6.818.671c1.639,1.088,3.273,2.183,4.884,3.311A13.548,13.548,0,0,0,20.951-9.58c1.018.169,2.071.134,3.106.208,1.066.08,2.135.152,3.194.291A1.285,1.285,0,0,1,28.484-7.99a1.342,1.342,0,0,1-.8,1.7,6,6,0,0,1-2.234.618c-2.96.064-5.925.073-8.884,0a17.572,17.572,0,0,1-5.294-1.278c-.131-.046-.265-.087-.4-.133-.029.04-.056.082-.086.12.635.509,1.247,1.05,1.9,1.525A8.738,8.738,0,0,0,18.253-3.7c2.238-.082,4.481,0,6.722-.024a6.925,6.925,0,0,0,4.122-1.2,3.175,3.175,0,0,0,1.308-3.111,2.789,2.789,0,0,0-1.872-2.607,12.6,12.6,0,0,0-2.754-.557c-1.081-.107-2.175-.073-3.262-.107-.229-.007-.457-.047-.686-.072-.016-.054-.032-.1-.048-.156,1.942-1.067,3.85-2.2,5.834-3.181a2.745,2.745,0,0,1,3.67.879,1.706,1.706,0,0,0,.2.188A4.741,4.741,0,0,1,34.787-15a3.452,3.452,0,0,1,1.267.176,1.721,1.721,0,0,1,1.166,1.995c.678-.3,1.307-.607,1.959-.843a3.649,3.649,0,0,1,2.847-.047,2,2,0,0,1,.8,3.276,8.354,8.354,0,0,1-1.739,1.567Q32.269-3.074,23.41,2.672a6.17,6.17,0,0,1-4.134,1.1,9.652,9.652,0,0,1-3.308-1.087C13.08,1.212,10.2-.279,7.307-1.752a12.011,12.011,0,0,0-1.584-.677,2.506,2.506,0,0,0-2.134.211C2.5-1.579,1.442-.888.371-.219.265-.152.154-.09,0,0" transform="translate(1111.709 563.284)" fill="#20143b"/>
  </g>
</svg>
