<svg xmlns="http://www.w3.org/2000/svg" xmlns:xlink="http://www.w3.org/1999/xlink" width="39.615" height="43.178" viewBox="0 0 39.615 43.178">
  <defs>
    <clipPath id="clip-path">
      <path id="Trazado_73" data-name="Trazado 73" d="M0,0H39.615V-43.178H0Z" fill="none"/>
    </clipPath>
  </defs>
  <g id="Grupo_8" data-name="Grupo 8" transform="translate(0 43.178)">
    <g id="Grupo_7" data-name="Grupo 7" clip-path="url(#clip-path)">
      <g id="Grupo_2" data-name="Grupo 2" transform="translate(22.981 -0.112)">
        <path id="Trazado_68" data-name="Trazado 68" d="M0,0Q-5.523,0-11.043,0c-1.145,0-1.536-.227-1.755-1.094a1.161,1.161,0,0,1,.9-1.573,9.011,9.011,0,0,1,1.48-.05q10.379-.008,20.758-.008a3.309,3.309,0,0,0,3.442-2.359,4.164,4.164,0,0,0,.174-1.243q.013-9.467.006-18.931c0-.236-.009-.472-.009-.706a.581.581,0,0,0-.576-.645c-.311-.029-.627-.029-.94-.029-1.978,0-3.954-.015-5.93.006a5.382,5.382,0,0,1-5.125-3A1.168,1.168,0,0,0,.207-30.34c-1.618.023-3.235.021-4.853.013-.481,0-1.052.09-1.162-.636-.072-.476.364-.766,1.2-.776,1.39-.018,2.784,0,4.177-.007,1.071-.008,1.071-.017.986-1.184a1.326,1.326,0,0,1,0-.141c.019-.543-.252-.748-.746-.746-1.3.007-2.606.008-3.909-.011a3.323,3.323,0,0,1-1.189-.15c-.236-.094-.378-.441-.564-.676.228-.192.436-.515.683-.552a21.574,21.574,0,0,1,2.414-.167c.852-.025,1.707,0,2.561,0,.4,0,.723-.116.727-.612.009-1.224,0-2.448,0-3.671a.53.53,0,0,0-.595-.593c-.09,0-.179-.006-.269-.006-4.18,0-8.359-.024-12.537.014a3.092,3.092,0,0,0-3.081,3.225c-.016.377-.008.754-.008,1.13q0,8.053,0,16.1a9.9,9.9,0,0,1-.018,1.13,1.38,1.38,0,0,1-1.243,1.262,1.475,1.475,0,0,1-1.365-1.143,4.462,4.462,0,0,1-.03-.844c0-5.792-.011-11.585.006-17.376.009-3.673,2.418-6.261,5.9-6.287,4.807-.035,9.615.011,14.423-.022a2.579,2.579,0,0,1,2,.946q4.707,4.95,9.44,9.877c.861.9,1.676,1.842,2.579,2.688a2.819,2.819,0,0,1,.9,2.245c-.022,3.06-.007,6.123-.007,9.181,0,3.909.012,7.82,0,11.728A5.992,5.992,0,0,1,12.5-.314a6.73,6.73,0,0,1-1.988.243C7.009-.048,3.5-.06,0-.06Z" fill="#20143b"/>
      </g>
      <g id="Grupo_3" data-name="Grupo 3" transform="translate(0 -8.318)">
        <path id="Trazado_69" data-name="Trazado 69" d="M0,0C-.022-2.024,1.486-3.091,2.958-2.318A5.415,5.415,0,0,1,4.345-1.041,6.676,6.676,0,0,1,4.953.049c.09.161.207.3.311.453a2.87,2.87,0,0,0,.4-.512c.414-.887.841-1.769,1.2-2.679C7.949-5.419,9-8.162,10.076-10.9a4.255,4.255,0,0,1,.519-.983,1.878,1.878,0,0,1,2.741-.5,2.068,2.068,0,0,1,1.016,2.6c-.921,2.492-1.9,4.959-2.882,7.426C10.438.249,9.38,2.836,8.324,5.421c-.226.558-.483,1.105-.742,1.648a2.043,2.043,0,0,1-3.708.124c-.553-.909-1.12-1.811-1.649-2.738C1.606,3.369,1,2.27.434,1.154A8.406,8.406,0,0,1,0,0" fill="#20143b"/>
      </g>
      <g id="Grupo_4" data-name="Grupo 4" transform="translate(25.501 -18.885)">
        <path id="Trazado_70" data-name="Trazado 70" d="M0,0Q3.505,0,7.009,0c.314,0,.63.009.942.026a.53.53,0,0,1,.538.652,1.14,1.14,0,0,1-.494.7,1.708,1.708,0,0,1-.8.049q-7.008,0-14.015,0a2.48,2.48,0,0,1-.933-.056C-8,1.263-8.318.964-8.33.736A.976.976,0,0,1-7.8.062,2.3,2.3,0,0,1-6.873,0Q-3.436,0,0,0" fill="#20143b"/>
      </g>
      <g id="Grupo_5" data-name="Grupo 5" transform="translate(25.772 -15.237)">
        <path id="Trazado_71" data-name="Trazado 71" d="M0,0H6.6c.225,0,.448,0,.673,0,.466,0,.97.006.948.683-.018.614-.46.722-.958.719-1.122-.008-2.246,0-3.37,0q-5.456,0-10.917,0A3.611,3.611,0,0,1-8.2,1.262.79.79,0,0,1-8.566.616.822.822,0,0,1-8.077.063,3.789,3.789,0,0,1-7.009,0Q-3.5,0,0,0" fill="#20143b"/>
      </g>
      <g id="Grupo_6" data-name="Grupo 6" transform="translate(12.148 -30.446)">
        <path id="Trazado_72" data-name="Trazado 72" d="M0,0C-.446,0-.9.022-1.343,0c-.742-.048-.975-.24-1.017-1.013C-2.414-2-2.375-2.989-2.379-3.974a.906.906,0,0,1,.918-1c1.022-.038,2.05.009,3.075.057A.821.821,0,0,1,2.431-4c.007,1.032.005,2.066,0,3.1,0,.564-.271.879-.818.888S.538-.009,0-.009ZM.282-3.49c-1.267.023-1.326.075-1.3,1.129.019.882.081.937,1.071.927C1.067-1.441,1.1-1.487,1.08-2.678c-.017-.827-.017-.827-.8-.812" fill="#20143b"/>
      </g>
    </g>
  </g>
</svg>
