<svg xmlns="http://www.w3.org/2000/svg" xmlns:xlink="http://www.w3.org/1999/xlink" width="48.657" height="51.168" viewBox="0 0 48.657 51.168">
  <defs>
    <clipPath id="clip-path">
      <path id="Trazado_82" data-name="Trazado 82" d="M0,0H48.657V-51.168H0Z" fill="none"/>
    </clipPath>
  </defs>
  <g id="Grupo_19" data-name="Grupo 19" transform="translate(0 51.168)">
    <g id="Grupo_18" data-name="Grupo 18" clip-path="url(#clip-path)">
      <g id="Grupo_12" data-name="Grupo 12" transform="translate(0.424 -0.004)">
        <path id="Trazado_76" data-name="Trazado 76" d="M0,0A.157.157,0,0,0,.057,0c.29-.072.579-.147.869-.222L2.255-.568c.438-.115.882-.231,1.323-.344.235-.061.473-.124.712-.18a.07.07,0,0,1,.014,0,.2.2,0,0,1,.117.016A6.936,6.936,0,0,0,5.8-.563C6.06-.5,6.33-.45,6.6-.4c.079.013.111.02.126.047a7.2,7.2,0,0,0,.849.05,7.28,7.28,0,0,0,7.275-7.286,7.278,7.278,0,0,0-7.275-7.285A7.282,7.282,0,0,0,.553-9.5,7.6,7.6,0,0,0,.347-8.247,6.934,6.934,0,0,0,.366-6.9,7.146,7.146,0,0,0,.729-5.277c.1.283.226.551.344.827a.264.264,0,0,1,.024.17.012.012,0,0,1,0,.006L.738-2.906c-.076.29-.148.58-.22.868q-.2.78-.4,1.558c-.033.135-.069.268-.1.4C.007-.054,0-.031,0,0M4.169-4.127A4.868,4.868,0,0,1,2.7-7.986a4.968,4.968,0,0,1,4.957-4.652,4.982,4.982,0,0,1,4.971,4.847,4.983,4.983,0,0,1-4.971,5.1A4.858,4.858,0,0,1,4.169-4.127" fill="#20143b"/>
      </g>
      <g id="Grupo_13" data-name="Grupo 13" transform="translate(24.044 -21.998)">
        <path id="Trazado_77" data-name="Trazado 77" d="M0,0-.3.106C-.467.171-.641.23-.814.289c-.412.148-.837.3-1.267.485a12.291,12.291,0,0,0-4.411,3.3A12.4,12.4,0,0,0-8.717,7.913c-.093.249-.173.505-.247.754H-9.83a8.374,8.374,0,0,0-5.3-2.675l-.9-.045a8.369,8.369,0,0,0-5.316,1.9,4.2,4.2,0,0,1-1.75-1.383,4.6,4.6,0,0,1-.8-1.961,10.616,10.616,0,0,1,.519-5.445,11.015,11.015,0,0,1,1.991-3.436,10.95,10.95,0,0,1,3.95-2.955c.553-.245,1.134-.423,1.7-.636a.3.3,0,0,1,.009.047c-.206.284-.429.565-.619.864A5.174,5.174,0,0,0-17.154-4.8a.607.607,0,0,0-.01.088.747.747,0,0,1-.37.758c-.208.456-.684.61-1.022.92A6.307,6.307,0,0,0-20.094-.808a1.268,1.268,0,0,0-.054.318,2.251,2.251,0,0,1-.067.456,7.629,7.629,0,0,0-.444,2.969,6.414,6.414,0,0,0,.126,1.046A1.407,1.407,0,0,0-19.449,5.07c.11.031.209.095.318.122A2.8,2.8,0,0,0-17.6,5.183a.759.759,0,0,0,.446-.9.788.788,0,0,0-.79-.6c-.368,0-.734.017-1.1.04a.148.148,0,0,1-.175-.142c-.026-.179-.052-.353-.065-.531A6.688,6.688,0,0,1-18.9.387a.208.208,0,0,1,.084-.122,1.318,1.318,0,0,0,.491-.65,4.275,4.275,0,0,1,.992-1.338,1.057,1.057,0,0,1,1.57.017,4.726,4.726,0,0,1,1,1.375A3.144,3.144,0,0,0-14.431.1a.852.852,0,0,1,.126.2,6.36,6.36,0,0,1,.413,2.541c-.014.234-.024.461-.041.694-.007.147-.059.183-.23.173a5.851,5.851,0,0,0-1.235.027.732.732,0,0,0-.572.862.788.788,0,0,0,.749.672,4.01,4.01,0,0,0,.93-.011,2.523,2.523,0,0,0,1.282-.582,1.748,1.748,0,0,0,.462-1.131,8.218,8.218,0,0,0-.493-3.8.32.32,0,0,1-.014-.17.963.963,0,0,0-.1-.67,6.784,6.784,0,0,0-1.094-1.626,4.184,4.184,0,0,0-.966-.774,1.442,1.442,0,0,1-.268-.245c-.128-.136-.253-.266-.372-.406a.32.32,0,0,1-.1-.188A4.306,4.306,0,0,1-14.018-7.71c.157-.105.332-.272.492-.259.144.009.277.216.413.339q2.505,2.349,5.005,4.7c.3.284.606.566.919.864.285-.27.566-.531.847-.791.828-.775,1.658-1.555,2.485-2.329.687-.646,1.368-1.29,2.051-1.937a.145.145,0,0,0,.038-.033A10.863,10.863,0,0,0-.059-3.745,2.6,2.6,0,0,0-.771-1.789,2.687,2.687,0,0,0,0,0" fill="#20143b"/>
      </g>
      <g id="Grupo_14" data-name="Grupo 14" transform="translate(26.459 -41.19)">
        <path id="Trazado_78" data-name="Trazado 78" d="M0,0A10.92,10.92,0,0,0-4.58,7.852,9.577,9.577,0,0,1-9.621,9.278a9.632,9.632,0,0,1-9.6-9.644A9.626,9.626,0,0,1-9.65-9.978,9.622,9.622,0,0,1,0-.646C.011-.43.011-.213,0,0" fill="#20143b"/>
      </g>
      <g id="Grupo_15" data-name="Grupo 15" transform="translate(23.123 -32.261)">
        <path id="Trazado_79" data-name="Trazado 79" d="M0,0A9.63,9.63,0,0,1,9.572-9.616,9.627,9.627,0,0,1,19.226-.28,9.632,9.632,0,0,1,9.6,9.641,9.631,9.631,0,0,1,0,0" fill="#20143b"/>
      </g>
      <g id="Grupo_16" data-name="Grupo 16" transform="translate(32.274 -14.032)">
        <path id="Trazado_80" data-name="Trazado 80" d="M0,0C.693-.647,1.367-1.281,2.043-1.915q2.243-2.1,4.48-4.211a.466.466,0,0,1,.465-.131A11.593,11.593,0,0,1,15.375.489a11.669,11.669,0,0,1,1,4.432,2.94,2.94,0,0,1-1.156,2.418,10.577,10.577,0,0,1-3.511,1.909,27.017,27.017,0,0,1-6.1,1.386c-1.139.134-2.283.249-3.429.3A44.5,44.5,0,0,1-4,10.82a35.119,35.119,0,0,1-5.745-.959,15.494,15.494,0,0,1-4.807-1.994,4.223,4.223,0,0,1-1.682-1.882,3.594,3.594,0,0,1-.114-1.663,11.389,11.389,0,0,1,2.179-5.951A11.582,11.582,0,0,1-6.98-6.26a.436.436,0,0,1,.436.129Q-3.387-3.152-.216-.184C-.156-.129-.09-.077,0,0M9.162,2.605c0-.559,0-1.1,0-1.643,0-.315-.1-.413-.409-.416C8.36.54,7.963.54,7.569.542c-.686,0-.695.011-.695.69v1.39c-.586,0-1.137,0-1.685,0-.278,0-.375.1-.377.383,0,.5,0,.994,0,1.492,0,.3.1.393.392.4.486.01.972.01,1.459.033a.243.243,0,0,1,.173.164c.021.456.04.915.024,1.37-.014.369.087.509.459.513a2.6,2.6,0,0,0,.279,0c.488-.028.977-.061,1.464-.092a4.371,4.371,0,0,0,.1-1.486,4.838,4.838,0,0,0,0-.5h1.5c.528,0,.567-.04.562-.561,0-.394-.019-.791.005-1.185.023-.442-.093-.565-.541-.549-.494.015-.987,0-1.525,0" fill="#20143b"/>
      </g>
      <g id="Grupo_17" data-name="Grupo 17" transform="translate(8.083 -10.385)">
        <path id="Trazado_81" data-name="Trazado 81" d="M0,0H-.847C-.969,0-.969,0-.969.119V1.6c0,.149,0,.149-.142.149H-2.589c-.117,0-.123,0-.123.12v1.7c0,.117,0,.119.123.119l1.5,0c.125,0,.125,0,.125.124V5.32c0,.108,0,.11.115.11H.856c.107,0,.111,0,.111-.113V3.8c0-.108,0-.11.112-.11.5,0,1.013,0,1.519,0,.109,0,.111,0,.111-.111V1.859c0-.11,0-.111-.114-.111-.512,0-1.027,0-1.542,0-.074,0-.088-.025-.088-.092,0-.512,0-1.023,0-1.536C.967,0,.967,0,.846,0Z" fill="#20143b"/>
      </g>
    </g>
  </g>
</svg>
