<svg xmlns="http://www.w3.org/2000/svg" width="216.756" height="72.48" viewBox="0 0 216.756 72.48">
  <g id="Grupo_20" data-name="Grupo 20" transform="translate(-1131 -1742.48)">
    <path id="Trazado_83" data-name="Trazado 83" d="M0,0A5.229,5.229,0,0,1-5.317-5.1v-9.912A5.229,5.229,0,0,1,0-20.12H204.121a5.229,5.229,0,0,1,5.317,5.1V-5.1A5.229,5.229,0,0,1,204.121,0Z" transform="translate(1137.317 1763.6)" fill="none" stroke="#6071bb" stroke-width="2"/>
    <path id="Trazado_84" data-name="Trazado 84" d="M0,0H216.756V-72.48H0Z" transform="translate(1131 1814.96)" fill="none"/>
    <path id="Trazado_91" data-name="Trazado 91" d="M5.127-5H3.071v-.718a3.559,3.559,0,0,0-.059-.85.26.26,0,0,0-.278-.171.258.258,0,0,0-.259.146,2.385,2.385,0,0,0-.068.752v3.794a2.26,2.26,0,0,0,.068.7.266.266,0,0,0,.273.168.3.3,0,0,0,.305-.19A2.228,2.228,0,0,0,3.135-2.1v-.937H2.72v-1.2H5.127V0H3.835l-.19-.566a1.437,1.437,0,0,1-.53.549A1.5,1.5,0,0,1,2.36.166a1.964,1.964,0,0,1-.97-.251A1.856,1.856,0,0,1,.7-.708,1.972,1.972,0,0,1,.41-1.487,9.35,9.35,0,0,1,.352-2.71V-5.059A7.867,7.867,0,0,1,.474-6.7a1.688,1.688,0,0,1,.7-.94,2.456,2.456,0,0,1,1.5-.427,2.789,2.789,0,0,1,1.5.371,1.752,1.752,0,0,1,.776.881,4.668,4.668,0,0,1,.181,1.482Zm.8-2.91H9.351v1.582H7.979v1.5H9.263v1.5H7.979v1.738H9.487V0H5.923Zm8.745,0V0h-1.8L11.8-3.594V0H10.078V-7.905H11.8l1.152,3.56v-3.56Zm.825,0h3.428v1.582H17.549v1.5h1.284v1.5H17.549v1.738h1.509V0H15.493Zm4.155,0H21.1a11.125,11.125,0,0,1,1.97.112,1.356,1.356,0,0,1,.84.574,2.6,2.6,0,0,1,.325,1.472,2.3,2.3,0,0,1-.229,1.24,1.205,1.205,0,0,1-.9.381,1.544,1.544,0,0,1,.82.405,1.21,1.21,0,0,1,.261.466,7.365,7.365,0,0,1,.051,1.169V0H22.329V-2.627a1.812,1.812,0,0,0-.1-.786q-.1-.151-.525-.151V0H19.648ZM21.7-6.553v1.758a.9.9,0,0,0,.486-.1q.139-.1.139-.618v-.435a.659.659,0,0,0-.134-.493A.764.764,0,0,0,21.7-6.553Zm6.884-1.353L29.763,0h-2.1l-.11-1.421h-.735L26.693,0H24.568l1.049-7.905ZM27.5-2.822q-.156-1.343-.313-3.32-.314,2.271-.395,3.32Zm7.414-1.641H32.856V-5.837a2.461,2.461,0,0,0-.066-.748.283.283,0,0,0-.291-.149.3.3,0,0,0-.322.181,2.749,2.749,0,0,0-.068.781V-2.1a2.563,2.563,0,0,0,.068.752.292.292,0,0,0,.308.176.289.289,0,0,0,.3-.176,2.875,2.875,0,0,0,.071-.827v-.994h2.056v.308a6.077,6.077,0,0,1-.173,1.741,1.779,1.779,0,0,1-.767.9A2.625,2.625,0,0,1,32.51.166a3.029,3.029,0,0,1-1.489-.327,1.591,1.591,0,0,1-.776-.906,5.944,5.944,0,0,1-.19-1.741v-2.31A10.269,10.269,0,0,1,30.112-6.4a1.794,1.794,0,0,1,.349-.823,1.947,1.947,0,0,1,.806-.623,2.91,2.91,0,0,1,1.184-.227,2.9,2.9,0,0,1,1.5.351,1.684,1.684,0,0,1,.776.875,5.262,5.262,0,0,1,.186,1.631Zm2.793-3.442V0H35.649V-7.905Zm5.522,4.629q0,1.191-.056,1.687a1.89,1.89,0,0,1-.352.906,1.894,1.894,0,0,1-.8.63,2.906,2.906,0,0,1-1.172.22,2.978,2.978,0,0,1-1.14-.208A1.875,1.875,0,0,1,38.9-.664a1.871,1.871,0,0,1-.366-.9,16.692,16.692,0,0,1-.059-1.709V-4.629q0-1.191.056-1.687a1.89,1.89,0,0,1,.352-.906,1.894,1.894,0,0,1,.8-.63,2.906,2.906,0,0,1,1.172-.22,2.978,2.978,0,0,1,1.14.208,1.875,1.875,0,0,1,.813.623,1.871,1.871,0,0,1,.366.9,16.692,16.692,0,0,1,.059,1.709Zm-2.056-2.6a2.449,2.449,0,0,0-.061-.706.243.243,0,0,0-.251-.154.281.281,0,0,0-.247.125,1.764,1.764,0,0,0-.085.735v3.691a3.63,3.63,0,0,0,.056.85.245.245,0,0,0,.261.161.253.253,0,0,0,.269-.186,3.911,3.911,0,0,0,.059-.884Zm1.338-3.6L40.9-8.154h-.991l.859-1.323Zm6.074,1.572V0h-1.8L45.713-3.594V0H43.994V-7.905h1.719l1.152,3.56v-3.56Zm2.588,0H52.71a9.568,9.568,0,0,1,2.014.137,1.544,1.544,0,0,1,.8.449,1.422,1.422,0,0,1,.342.7,10.514,10.514,0,0,1,.068,1.506v2.769a6.431,6.431,0,0,1-.1,1.423,1.07,1.07,0,0,1-.349.562,1.452,1.452,0,0,1-.615.283,5.561,5.561,0,0,1-1.1.081H51.172Zm2.056,1.353v5.2q.444,0,.547-.178a2.61,2.61,0,0,0,.1-.969V-5.571a4.123,4.123,0,0,0-.034-.688.327.327,0,0,0-.156-.222A1.014,1.014,0,0,0,53.228-6.553ZM56.7-7.905h3.428v1.582H58.755v1.5h1.284v1.5H58.755v1.738h1.509V0H56.7Zm5.918,0h2.07a4.861,4.861,0,0,1,1.292.132,1.443,1.443,0,0,1,.679.381,1.308,1.308,0,0,1,.308.6,5.4,5.4,0,0,1,.081,1.1V-5a2.868,2.868,0,0,1-.156,1.1,1.07,1.07,0,0,1-.574.532,2.714,2.714,0,0,1-1.091.186h-.552V0H62.617Zm2.056,1.353v2.012q.088,0,.151,0a.475.475,0,0,0,.393-.139,1.023,1.023,0,0,0,.11-.579V-5.9a.762.762,0,0,0-.127-.527A.8.8,0,0,0,64.673-6.553Zm2.964-1.353h3.428v1.582H69.692v1.5h1.284v1.5H69.692v1.738H71.2V0H67.637Zm4.155,0h1.455a11.125,11.125,0,0,1,1.97.112,1.356,1.356,0,0,1,.84.574,2.6,2.6,0,0,1,.325,1.472,2.3,2.3,0,0,1-.229,1.24,1.205,1.205,0,0,1-.9.381,1.544,1.544,0,0,1,.82.405,1.21,1.21,0,0,1,.261.466,7.365,7.365,0,0,1,.051,1.169V0H74.473V-2.627a1.812,1.812,0,0,0-.1-.786q-.1-.151-.525-.151V0H71.792Zm2.056,1.353v1.758a.9.9,0,0,0,.486-.1q.139-.1.139-.618v-.435a.659.659,0,0,0-.134-.493A.764.764,0,0,0,73.848-6.553Zm3.33-1.353h3.481v1.582H79.233v1.5H80.5v1.5h-1.27V0H77.178Zm6.035,0V0H81.157V-7.905Zm2.881,0v6.323h1.25V0H84.038V-7.905Zm3.511,0h1.538a9.568,9.568,0,0,1,2.014.137,1.544,1.544,0,0,1,.8.449,1.422,1.422,0,0,1,.342.7,10.515,10.515,0,0,1,.068,1.506v2.769a6.43,6.43,0,0,1-.1,1.423,1.071,1.071,0,0,1-.349.562,1.452,1.452,0,0,1-.615.283A5.561,5.561,0,0,1,92.2,0H89.6ZM91.66-6.553v5.2q.444,0,.547-.178a2.61,2.61,0,0,0,.1-.969V-5.571a4.123,4.123,0,0,0-.034-.688.327.327,0,0,0-.156-.222A1.014,1.014,0,0,0,91.66-6.553Zm3.472-1.353H98.56v1.582H97.188v1.5h1.284v1.5H97.188v1.738H98.7V0H95.132Zm5.918,0h3.481v1.582h-1.426v1.5h1.27v1.5h-1.27V0H101.05Zm8.652,0v5.283a9.168,9.168,0,0,1-.059,1.262,1.713,1.713,0,0,1-.347.747,1.8,1.8,0,0,1-.759.581,2.858,2.858,0,0,1-1.111.2,3.125,3.125,0,0,1-1.25-.234,1.881,1.881,0,0,1-.811-.61,1.691,1.691,0,0,1-.317-.793Q105-1.89,105-3.228V-7.905h2.056v5.928a2.338,2.338,0,0,0,.056.662.22.22,0,0,0,.227.144.238.238,0,0,0,.251-.159,2.955,2.955,0,0,0,.056-.75V-7.905Zm5.386,0V0h-1.8l-1.069-3.594V0H110.5V-7.905h1.719l1.152,3.56v-3.56Zm5.625,3.442h-2.056V-5.837a2.461,2.461,0,0,0-.066-.748.283.283,0,0,0-.291-.149.3.3,0,0,0-.322.181,2.749,2.749,0,0,0-.068.781V-2.1a2.563,2.563,0,0,0,.068.752.292.292,0,0,0,.308.176.289.289,0,0,0,.3-.176,2.875,2.875,0,0,0,.071-.827v-.994h2.056v.308a6.077,6.077,0,0,1-.173,1.741,1.779,1.779,0,0,1-.767.9,2.625,2.625,0,0,1-1.462.386,3.029,3.029,0,0,1-1.489-.327,1.591,1.591,0,0,1-.776-.906,5.944,5.944,0,0,1-.19-1.741v-2.31a10.269,10.269,0,0,1,.059-1.282,1.794,1.794,0,0,1,.349-.823,1.947,1.947,0,0,1,.806-.623,2.91,2.91,0,0,1,1.184-.227,2.9,2.9,0,0,1,1.5.351,1.684,1.684,0,0,1,.776.875,5.262,5.262,0,0,1,.186,1.631Zm2.793-3.442V0H121.45V-7.905Zm5.522,4.629q0,1.191-.056,1.687a1.89,1.89,0,0,1-.352.906,1.894,1.894,0,0,1-.8.63,2.906,2.906,0,0,1-1.172.22,2.978,2.978,0,0,1-1.14-.208,1.875,1.875,0,0,1-.813-.623,1.871,1.871,0,0,1-.366-.9,16.692,16.692,0,0,1-.059-1.709V-4.629q0-1.191.056-1.687a1.89,1.89,0,0,1,.352-.906,1.893,1.893,0,0,1,.8-.63,2.906,2.906,0,0,1,1.172-.22,2.978,2.978,0,0,1,1.14.208,1.875,1.875,0,0,1,.813.623,1.871,1.871,0,0,1,.366.9,16.692,16.692,0,0,1,.059,1.709Zm-2.056-2.6a2.45,2.45,0,0,0-.061-.706.243.243,0,0,0-.251-.154.281.281,0,0,0-.247.125,1.764,1.764,0,0,0-.085.735v3.691a3.63,3.63,0,0,0,.056.85.245.245,0,0,0,.261.161.253.253,0,0,0,.269-.186,3.911,3.911,0,0,0,.059-.884Zm7.412-2.031V0h-1.8l-1.069-3.594V0h-1.719V-7.905h1.719l1.152,3.56v-3.56Zm4.379,0L139.939,0h-2.1l-.11-1.421h-.735L136.869,0h-2.125l1.049-7.905Zm-1.089,5.083q-.156-1.343-.313-3.32-.314,2.271-.395,3.32Zm8.957-5.083V0h-1.8l0-5.337L144.116,0h-1.274l-.754-5.215,0,5.215h-1.8V-7.905h2.66q.118.713.244,1.681l.292,2.011.472-3.691Zm2.881,0V0h-2.056V-7.905Zm.825,0h3.428v1.582h-1.372v1.5h1.284v1.5h-1.284v1.738H153.9V0h-3.564Zm8.745,0V0h-1.8l-1.069-3.594V0h-1.719V-7.905h1.719l1.152,3.56v-3.56Zm4.966,0v1.582h-1.221V0h-2.056V-6.323h-1.216V-7.905Zm5.166,4.629q0,1.191-.056,1.687a1.89,1.89,0,0,1-.352.906,1.894,1.894,0,0,1-.8.63,2.906,2.906,0,0,1-1.172.22,2.978,2.978,0,0,1-1.14-.208,1.875,1.875,0,0,1-.813-.623,1.871,1.871,0,0,1-.366-.9,16.692,16.692,0,0,1-.059-1.709V-4.629q0-1.191.056-1.687a1.89,1.89,0,0,1,.352-.906,1.894,1.894,0,0,1,.8-.63,2.906,2.906,0,0,1,1.172-.22,2.978,2.978,0,0,1,1.14.208,1.875,1.875,0,0,1,.813.623,1.871,1.871,0,0,1,.366.9,16.692,16.692,0,0,1,.059,1.709Zm-2.056-2.6a2.449,2.449,0,0,0-.061-.706.243.243,0,0,0-.251-.154.281.281,0,0,0-.247.125,1.765,1.765,0,0,0-.085.735v3.691a3.63,3.63,0,0,0,.056.85.245.245,0,0,0,.261.161.253.253,0,0,0,.269-.186,3.911,3.911,0,0,0,.059-.884Z" transform="translate(1151.167 1757.624)" fill="#42454a"/>
    <path id="Trazado_92" data-name="Trazado 92" d="M.56,0V-4.295h.568V0ZM2.13,0V-4.295H3.609a3.589,3.589,0,0,1,.765.062A1.455,1.455,0,0,1,5-3.926a1.747,1.747,0,0,1,.508.734,2.881,2.881,0,0,1,.168,1.021,3,3,0,0,1-.114.867,2.1,2.1,0,0,1-.293.625,1.556,1.556,0,0,1-.391.39,1.594,1.594,0,0,1-.513.215A2.926,2.926,0,0,1,3.68,0ZM2.7-.507h.917a2.225,2.225,0,0,0,.667-.079.954.954,0,0,0,.385-.223,1.355,1.355,0,0,0,.315-.543,2.657,2.657,0,0,0,.113-.828,2,2,0,0,0-.221-1.036A1.113,1.113,0,0,0,4.336-3.7,2.222,2.222,0,0,0,3.6-3.788H2.7ZM6.475,0V-4.295H9.58v.507H7.043v1.315H9.419v.5H7.043V-.507H9.68V0Zm3.984,0V-4.295h.583L13.3-.923V-4.295h.545V0H13.26L11-3.375V0Zm5.432,0V-3.788H14.476v-.507h3.4v.507H16.459V0ZM18.56,0V-4.295h.568V0Zm1.6,0V-4.295h2.9v.507H20.728v1.33h2.016v.507H20.728V0Zm3.732,0V-4.295h.568V0Zm4.635-1.506.568.144a1.913,1.913,0,0,1-.643,1.068,1.772,1.772,0,0,1-1.135.368,2.04,2.04,0,0,1-1.129-.283,1.765,1.765,0,0,1-.662-.819A2.922,2.922,0,0,1,25.3-2.18a2.531,2.531,0,0,1,.256-1.17,1.756,1.756,0,0,1,.729-.759,2.131,2.131,0,0,1,1.042-.259,1.761,1.761,0,0,1,1.084.328,1.7,1.7,0,0,1,.612.923l-.56.132a1.327,1.327,0,0,0-.434-.683,1.155,1.155,0,0,0-.715-.214,1.389,1.389,0,0,0-.828.237,1.253,1.253,0,0,0-.467.637,2.565,2.565,0,0,0-.135.825,2.621,2.621,0,0,0,.16.957,1.189,1.189,0,0,0,.5.611,1.393,1.393,0,0,0,.729.2,1.222,1.222,0,0,0,.809-.275A1.409,1.409,0,0,0,28.526-1.506ZM29.323,0l1.649-4.295h.612L33.343,0H32.7l-.5-1.3H30.4L29.927,0Zm1.239-1.764h1.456L31.57-2.953q-.205-.542-.3-.891a5.475,5.475,0,0,1-.231.82Zm6.3.258.568.144a1.913,1.913,0,0,1-.643,1.068,1.772,1.772,0,0,1-1.135.368,2.04,2.04,0,0,1-1.129-.283,1.765,1.765,0,0,1-.662-.819,2.922,2.922,0,0,1-.227-1.151,2.531,2.531,0,0,1,.256-1.17,1.756,1.756,0,0,1,.729-.759,2.131,2.131,0,0,1,1.042-.259,1.761,1.761,0,0,1,1.084.328,1.7,1.7,0,0,1,.612.923l-.56.132a1.327,1.327,0,0,0-.434-.683,1.155,1.155,0,0,0-.715-.214,1.389,1.389,0,0,0-.828.237,1.253,1.253,0,0,0-.467.637,2.565,2.565,0,0,0-.135.825,2.621,2.621,0,0,0,.16.957,1.189,1.189,0,0,0,.5.611,1.393,1.393,0,0,0,.729.2,1.222,1.222,0,0,0,.809-.275A1.409,1.409,0,0,0,36.861-1.506ZM38.227,0V-4.295h.568V0Zm1.4-2.092A2.334,2.334,0,0,1,40.2-3.766a1.952,1.952,0,0,1,1.482-.6,2.057,2.057,0,0,1,1.072.284,1.856,1.856,0,0,1,.728.792,2.574,2.574,0,0,1,.25,1.153,2.531,2.531,0,0,1-.264,1.169,1.8,1.8,0,0,1-.747.781,2.134,2.134,0,0,1-1.043.265A2.031,2.031,0,0,1,40.594-.22a1.885,1.885,0,0,1-.724-.8A2.424,2.424,0,0,1,39.624-2.092Zm.586.009A1.721,1.721,0,0,0,40.627-.86a1.373,1.373,0,0,0,1.047.447,1.371,1.371,0,0,0,1.056-.451,1.824,1.824,0,0,0,.415-1.28,2.2,2.2,0,0,0-.177-.916,1.362,1.362,0,0,0-.519-.606,1.406,1.406,0,0,0-.766-.215,1.453,1.453,0,0,0-1.039.415A1.852,1.852,0,0,0,40.21-2.083Zm1.107-2.476.39-.82H42.4l-.645.82ZM44.458,0V-4.295h.583L47.3-.923V-4.295h.545V0h-.583L45-3.375V0Z" transform="translate(1138.719 1784.671)" fill="#42454a"/>
    <path id="Trazado_93" data-name="Trazado 93" d="M.463,0V-4.295H1.942a3.589,3.589,0,0,1,.765.062,1.455,1.455,0,0,1,.63.308,1.747,1.747,0,0,1,.508.734,2.881,2.881,0,0,1,.168,1.021A3,3,0,0,1,3.9-1.3a2.1,2.1,0,0,1-.293.625,1.556,1.556,0,0,1-.391.39A1.594,1.594,0,0,1,2.7-.073,2.926,2.926,0,0,1,2.013,0Zm.568-.507h.917a2.225,2.225,0,0,0,.667-.079A.954.954,0,0,0,3-.809a1.355,1.355,0,0,0,.315-.543,2.657,2.657,0,0,0,.113-.828,2,2,0,0,0-.221-1.036A1.113,1.113,0,0,0,2.669-3.7a2.222,2.222,0,0,0-.735-.088h-.9ZM4.808,0V-4.295H7.913v.507H5.376v1.315H7.752v.5H5.376V-.507H8.013V0Zm5.657,0V-4.295h1.479a3.589,3.589,0,0,1,.765.062,1.455,1.455,0,0,1,.63.308,1.747,1.747,0,0,1,.508.734,2.881,2.881,0,0,1,.168,1.021A3,3,0,0,1,13.9-1.3a2.1,2.1,0,0,1-.293.625,1.556,1.556,0,0,1-.391.39,1.594,1.594,0,0,1-.513.215,2.926,2.926,0,0,1-.69.073Zm.568-.507h.917a2.225,2.225,0,0,0,.667-.079A.954.954,0,0,0,13-.809a1.355,1.355,0,0,0,.315-.543,2.657,2.657,0,0,0,.113-.828,2,2,0,0,0-.221-1.036,1.113,1.113,0,0,0-.538-.485,2.222,2.222,0,0,0-.735-.088h-.9ZM14.81,0V-4.295h3.105v.507H15.378v1.315h2.376v.5H15.378V-.507h2.637V0Zm4.02,0V-4.295h2.9v.507H19.4v1.33h2.016v.507H19.4V0Zm3.732,0V-4.295h.568V0ZM27.2-1.506l.568.144a1.913,1.913,0,0,1-.643,1.068,1.772,1.772,0,0,1-1.135.368,2.04,2.04,0,0,1-1.129-.283,1.765,1.765,0,0,1-.662-.819,2.922,2.922,0,0,1-.227-1.151,2.531,2.531,0,0,1,.256-1.17,1.756,1.756,0,0,1,.729-.759A2.131,2.131,0,0,1,26-4.368a1.761,1.761,0,0,1,1.084.328,1.7,1.7,0,0,1,.612.923l-.56.132a1.327,1.327,0,0,0-.434-.683,1.155,1.155,0,0,0-.715-.214,1.389,1.389,0,0,0-.828.237,1.253,1.253,0,0,0-.467.637,2.565,2.565,0,0,0-.135.825,2.621,2.621,0,0,0,.16.957,1.189,1.189,0,0,0,.5.611,1.393,1.393,0,0,0,.729.2,1.222,1.222,0,0,0,.809-.275A1.409,1.409,0,0,0,27.2-1.506ZM28.562,0V-4.295h.568V0Zm1.582,0V-4.295h3.105v.507H30.712v1.315h2.376v.5H30.712V-.507h2.637V0Zm3.984,0V-4.295h.583L36.967-.923V-4.295h.545V0h-.583L34.673-3.375V0Zm7.4-1.506.568.144a1.913,1.913,0,0,1-.643,1.068,1.772,1.772,0,0,1-1.135.368,2.04,2.04,0,0,1-1.129-.283,1.765,1.765,0,0,1-.662-.819A2.922,2.922,0,0,1,38.3-2.18a2.531,2.531,0,0,1,.256-1.17,1.756,1.756,0,0,1,.729-.759,2.131,2.131,0,0,1,1.042-.259,1.761,1.761,0,0,1,1.084.328,1.7,1.7,0,0,1,.612.923l-.56.132a1.327,1.327,0,0,0-.434-.683,1.155,1.155,0,0,0-.715-.214,1.389,1.389,0,0,0-.828.237,1.253,1.253,0,0,0-.467.637,2.565,2.565,0,0,0-.135.825,2.621,2.621,0,0,0,.16.957,1.189,1.189,0,0,0,.5.611,1.393,1.393,0,0,0,.729.2,1.222,1.222,0,0,0,.809-.275A1.409,1.409,0,0,0,41.531-1.506ZM42.9,0V-4.295h.568V0ZM44,0l1.649-4.295h.612L48.015,0h-.647l-.5-1.3h-1.8L44.6,0Zm1.239-1.764H46.69l-.448-1.189q-.205-.542-.3-.891a5.475,5.475,0,0,1-.231.82Zm3.041.384.536-.047a1.184,1.184,0,0,0,.177.529.968.968,0,0,0,.432.334,1.636,1.636,0,0,0,.659.127,1.58,1.58,0,0,0,.574-.1A.8.8,0,0,0,51.025-.8a.615.615,0,0,0,.122-.368.559.559,0,0,0-.117-.353.868.868,0,0,0-.387-.253,7.559,7.559,0,0,0-.765-.209,3.907,3.907,0,0,1-.829-.268,1.163,1.163,0,0,1-.458-.4.98.98,0,0,1-.151-.535,1.092,1.092,0,0,1,.185-.608,1.143,1.143,0,0,1,.539-.429,2.045,2.045,0,0,1,.788-.146,2.153,2.153,0,0,1,.842.154,1.215,1.215,0,0,1,.561.453,1.3,1.3,0,0,1,.211.677l-.545.041a.879.879,0,0,0-.3-.615,1.157,1.157,0,0,0-.749-.208,1.2,1.2,0,0,0-.751.189.567.567,0,0,0-.236.456.488.488,0,0,0,.167.381,2.263,2.263,0,0,0,.857.306,5.668,5.668,0,0,1,.951.274,1.3,1.3,0,0,1,.554.438,1.067,1.067,0,0,1,.179.611,1.168,1.168,0,0,1-.2.646,1.292,1.292,0,0,1-.564.472,1.965,1.965,0,0,1-.828.168,2.471,2.471,0,0,1-.977-.17,1.368,1.368,0,0,1-.618-.511A1.449,1.449,0,0,1,48.275-1.38Z" transform="translate(1136.758 1792.361)" fill="#42454a"/>
    <path id="Trazado_94" data-name="Trazado 94" d="M3.527-1.506l.568.144A1.913,1.913,0,0,1,3.453-.294,1.772,1.772,0,0,1,2.317.073,2.04,2.04,0,0,1,1.188-.209a1.765,1.765,0,0,1-.662-.819A2.922,2.922,0,0,1,.3-2.18,2.531,2.531,0,0,1,.555-3.35a1.756,1.756,0,0,1,.729-.759,2.131,2.131,0,0,1,1.042-.259A1.761,1.761,0,0,1,3.41-4.04a1.7,1.7,0,0,1,.612.923l-.56.132a1.327,1.327,0,0,0-.434-.683,1.155,1.155,0,0,0-.715-.214,1.389,1.389,0,0,0-.828.237,1.253,1.253,0,0,0-.467.637,2.565,2.565,0,0,0-.135.825,2.621,2.621,0,0,0,.16.957,1.189,1.189,0,0,0,.5.611,1.393,1.393,0,0,0,.729.2,1.222,1.222,0,0,0,.809-.275A1.409,1.409,0,0,0,3.527-1.506Zm1.1-.586A2.334,2.334,0,0,1,5.2-3.766a1.952,1.952,0,0,1,1.482-.6,2.057,2.057,0,0,1,1.072.284,1.856,1.856,0,0,1,.728.792,2.574,2.574,0,0,1,.25,1.153A2.531,2.531,0,0,1,8.467-.973a1.8,1.8,0,0,1-.747.781A2.134,2.134,0,0,1,6.677.073,2.031,2.031,0,0,1,5.593-.22a1.885,1.885,0,0,1-.724-.8A2.424,2.424,0,0,1,4.623-2.092Zm.586.009A1.721,1.721,0,0,0,5.626-.86a1.373,1.373,0,0,0,1.047.447A1.371,1.371,0,0,0,7.73-.864a1.824,1.824,0,0,0,.415-1.28,2.2,2.2,0,0,0-.177-.916,1.362,1.362,0,0,0-.519-.606,1.406,1.406,0,0,0-.766-.215,1.453,1.453,0,0,0-1.039.415A1.852,1.852,0,0,0,5.209-2.083ZM9.472,0V-4.295h1.9a2.534,2.534,0,0,1,.873.116.955.955,0,0,1,.478.409,1.219,1.219,0,0,1,.179.647,1.08,1.08,0,0,1-.3.771,1.5,1.5,0,0,1-.914.4,1.474,1.474,0,0,1,.343.214,2.953,2.953,0,0,1,.472.571L13.257,0h-.715l-.568-.894q-.249-.387-.41-.592a1.29,1.29,0,0,0-.289-.287.853.853,0,0,0-.259-.114,1.707,1.707,0,0,0-.316-.021H10.04V0Zm.568-2.4h1.222a1.832,1.832,0,0,0,.609-.081.648.648,0,0,0,.334-.258.7.7,0,0,0,.114-.385.64.64,0,0,0-.221-.5,1.035,1.035,0,0,0-.7-.2H10.04ZM13.8,0V-4.295h1.62a3.912,3.912,0,0,1,.653.041,1.294,1.294,0,0,1,.53.2,1.053,1.053,0,0,1,.344.415,1.316,1.316,0,0,1,.13.586,1.32,1.32,0,0,1-.349.927,1.672,1.672,0,0,1-1.26.379h-1.1V0Zm.568-2.253h1.11a1.178,1.178,0,0,0,.782-.205.731.731,0,0,0,.231-.577.776.776,0,0,0-.136-.461.637.637,0,0,0-.359-.253,2.428,2.428,0,0,0-.53-.038h-1.1Zm3.261.161A2.334,2.334,0,0,1,18.2-3.766a1.952,1.952,0,0,1,1.482-.6,2.057,2.057,0,0,1,1.072.284,1.856,1.856,0,0,1,.728.792,2.574,2.574,0,0,1,.25,1.153,2.531,2.531,0,0,1-.264,1.169,1.8,1.8,0,0,1-.747.781,2.134,2.134,0,0,1-1.043.265A2.031,2.031,0,0,1,18.595-.22a1.885,1.885,0,0,1-.724-.8A2.424,2.424,0,0,1,17.625-2.092Zm.586.009A1.721,1.721,0,0,0,18.628-.86a1.373,1.373,0,0,0,1.047.447,1.371,1.371,0,0,0,1.056-.451,1.824,1.824,0,0,0,.415-1.28,2.2,2.2,0,0,0-.177-.916,1.362,1.362,0,0,0-.519-.606,1.406,1.406,0,0,0-.766-.215,1.453,1.453,0,0,0-1.039.415A1.852,1.852,0,0,0,18.211-2.083ZM22.474,0V-4.295h1.9a2.534,2.534,0,0,1,.873.116.955.955,0,0,1,.478.409,1.219,1.219,0,0,1,.179.647,1.08,1.08,0,0,1-.3.771,1.5,1.5,0,0,1-.914.4,1.474,1.474,0,0,1,.343.214,2.953,2.953,0,0,1,.472.571L26.259,0h-.715l-.568-.894q-.249-.387-.41-.592a1.29,1.29,0,0,0-.289-.287.853.853,0,0,0-.259-.114,1.707,1.707,0,0,0-.316-.021h-.659V0Zm.568-2.4h1.222a1.832,1.832,0,0,0,.609-.081.648.648,0,0,0,.334-.258.7.7,0,0,0,.114-.385.64.64,0,0,0-.221-.5,1.035,1.035,0,0,0-.7-.2H23.042ZM26.326,0l1.649-4.295h.612L30.346,0H29.7l-.5-1.3H27.4L26.93,0Zm1.239-1.764h1.456l-.448-1.189q-.205-.542-.3-.891a5.475,5.475,0,0,1-.231.82ZM30.776,0V-4.295h.568V-.507H33.46V0Zm3.372,0V-4.295h3.105v.507H34.717v1.315h2.376v.5H34.717V-.507h2.637V0Zm3.8-1.38.536-.047a1.184,1.184,0,0,0,.177.529.968.968,0,0,0,.432.334,1.636,1.636,0,0,0,.659.127,1.58,1.58,0,0,0,.574-.1A.8.8,0,0,0,40.695-.8a.615.615,0,0,0,.122-.368.559.559,0,0,0-.117-.353.868.868,0,0,0-.387-.253,7.559,7.559,0,0,0-.765-.209,3.907,3.907,0,0,1-.829-.268,1.163,1.163,0,0,1-.458-.4.98.98,0,0,1-.151-.535,1.092,1.092,0,0,1,.185-.608,1.143,1.143,0,0,1,.539-.429,2.045,2.045,0,0,1,.788-.146,2.153,2.153,0,0,1,.842.154,1.215,1.215,0,0,1,.561.453,1.3,1.3,0,0,1,.211.677l-.545.041a.879.879,0,0,0-.3-.615,1.157,1.157,0,0,0-.749-.208,1.2,1.2,0,0,0-.751.189.567.567,0,0,0-.236.456.488.488,0,0,0,.167.381,2.263,2.263,0,0,0,.857.306,5.668,5.668,0,0,1,.951.274,1.3,1.3,0,0,1,.554.438,1.067,1.067,0,0,1,.179.611,1.168,1.168,0,0,1-.2.646A1.292,1.292,0,0,1,40.6-.1a1.965,1.965,0,0,1-.828.168A2.471,2.471,0,0,1,38.8-.1a1.368,1.368,0,0,1-.618-.511A1.449,1.449,0,0,1,37.945-1.38Z" transform="translate(1142.276 1800.052)" fill="#42454a"/>
    <path id="Trazado_85" data-name="Trazado 85" d="M0,0A5.265,5.265,0,0,1-5.265-5.235V-40.862A5.265,5.265,0,0,1,0-46.1H54.434A5.266,5.266,0,0,1,59.7-40.862V-5.235A5.266,5.266,0,0,1,54.434,0Z" transform="translate(1137.265 1813.96)" fill="none" stroke="#299cb1" stroke-width="2"/>
    <path id="Trazado_86" data-name="Trazado 86" d="M0,0H216.756V-72.48H0Z" transform="translate(1131 1814.96)" fill="none"/>
    <path id="Trazado_95" data-name="Trazado 95" d="M1.69,0,.026-4.295H.642l1.116,3.12q.135.375.226.7.1-.352.231-.7l1.16-3.12h.58L2.273,0ZM3.548,0,5.2-4.295H5.81L7.567,0H6.92l-.5-1.3h-1.8L4.151,0ZM4.787-1.764H6.243L5.795-2.953q-.205-.542-.3-.891a5.475,5.475,0,0,1-.231.82Z" transform="translate(1209.873 1777.23)" fill="#42454a"/>
    <path id="Trazado_96" data-name="Trazado 96" d="M.439,0V-4.295h.568V-.507H3.123V0ZM3.627-2.092A2.334,2.334,0,0,1,4.2-3.766a1.952,1.952,0,0,1,1.482-.6,2.057,2.057,0,0,1,1.072.284,1.856,1.856,0,0,1,.728.792,2.574,2.574,0,0,1,.25,1.153A2.531,2.531,0,0,1,7.471-.973a1.8,1.8,0,0,1-.747.781A2.134,2.134,0,0,1,5.681.073,2.031,2.031,0,0,1,4.6-.22a1.885,1.885,0,0,1-.724-.8A2.424,2.424,0,0,1,3.627-2.092Zm.586.009A1.721,1.721,0,0,0,4.63-.86a1.373,1.373,0,0,0,1.047.447A1.371,1.371,0,0,0,6.734-.864a1.824,1.824,0,0,0,.415-1.28,2.2,2.2,0,0,0-.177-.916,1.362,1.362,0,0,0-.519-.606,1.406,1.406,0,0,0-.766-.215,1.453,1.453,0,0,0-1.039.415A1.852,1.852,0,0,0,4.213-2.083ZM8.476,0V-4.295h1.9a2.534,2.534,0,0,1,.873.116.955.955,0,0,1,.478.409,1.219,1.219,0,0,1,.179.647,1.08,1.08,0,0,1-.3.771,1.5,1.5,0,0,1-.914.4,1.474,1.474,0,0,1,.343.214,2.953,2.953,0,0,1,.472.571L12.261,0h-.715l-.568-.894q-.249-.387-.41-.592a1.29,1.29,0,0,0-.289-.287.853.853,0,0,0-.259-.114A1.707,1.707,0,0,0,9.7-1.907H9.044V0Zm.568-2.4h1.222a1.832,1.832,0,0,0,.609-.081.648.648,0,0,0,.334-.258.7.7,0,0,0,.114-.385.64.64,0,0,0-.221-.5,1.035,1.035,0,0,0-.7-.2H9.044ZM12.328,0l1.649-4.295h.612L16.348,0H15.7l-.5-1.3H13.4L12.932,0Zm1.239-1.764h1.456l-.448-1.189q-.205-.542-.3-.891a5.475,5.475,0,0,1-.231.82Zm6.3.258.568.144a1.913,1.913,0,0,1-.643,1.068,1.772,1.772,0,0,1-1.135.368,2.04,2.04,0,0,1-1.129-.283,1.765,1.765,0,0,1-.662-.819,2.922,2.922,0,0,1-.227-1.151,2.531,2.531,0,0,1,.256-1.17,1.756,1.756,0,0,1,.729-.759,2.131,2.131,0,0,1,1.042-.259,1.761,1.761,0,0,1,1.084.328,1.7,1.7,0,0,1,.612.923l-.56.132a1.327,1.327,0,0,0-.434-.683,1.155,1.155,0,0,0-.715-.214,1.389,1.389,0,0,0-.828.237,1.253,1.253,0,0,0-.467.637,2.565,2.565,0,0,0-.135.825,2.621,2.621,0,0,0,.16.957,1.189,1.189,0,0,0,.5.611,1.393,1.393,0,0,0,.729.2,1.222,1.222,0,0,0,.809-.275A1.409,1.409,0,0,0,19.866-1.506ZM21.231,0V-4.295H21.8V0Zm1.4-2.092A2.334,2.334,0,0,1,23.2-3.766a1.952,1.952,0,0,1,1.482-.6,2.057,2.057,0,0,1,1.072.284,1.856,1.856,0,0,1,.728.792,2.574,2.574,0,0,1,.25,1.153,2.531,2.531,0,0,1-.264,1.169,1.8,1.8,0,0,1-.747.781,2.134,2.134,0,0,1-1.043.265A2.031,2.031,0,0,1,23.6-.22a1.885,1.885,0,0,1-.724-.8A2.424,2.424,0,0,1,22.629-2.092Zm.586.009A1.721,1.721,0,0,0,23.632-.86a1.373,1.373,0,0,0,1.047.447,1.371,1.371,0,0,0,1.056-.451,1.824,1.824,0,0,0,.415-1.28,2.2,2.2,0,0,0-.177-.916,1.362,1.362,0,0,0-.519-.606,1.406,1.406,0,0,0-.766-.215,1.453,1.453,0,0,0-1.039.415A1.852,1.852,0,0,0,23.215-2.083Zm1.107-2.476.39-.82H25.4l-.645.82ZM27.463,0V-4.295h.583L30.3-.923V-4.295h.545V0h-.583L28.008-3.375V0Zm6.006,0V-4.295h1.479a3.589,3.589,0,0,1,.765.062,1.455,1.455,0,0,1,.63.308,1.747,1.747,0,0,1,.508.734,2.881,2.881,0,0,1,.168,1.021,3,3,0,0,1-.114.867,2.1,2.1,0,0,1-.293.625,1.556,1.556,0,0,1-.391.39,1.594,1.594,0,0,1-.513.215,2.926,2.926,0,0,1-.69.073Zm.568-.507h.917a2.225,2.225,0,0,0,.667-.079.954.954,0,0,0,.385-.223,1.355,1.355,0,0,0,.315-.543,2.657,2.657,0,0,0,.113-.828,2,2,0,0,0-.221-1.036,1.113,1.113,0,0,0-.538-.485,2.222,2.222,0,0,0-.735-.088h-.9ZM37.813,0V-4.295h3.105v.507H38.382v1.315h2.376v.5H38.382V-.507h2.637V0Z" transform="translate(1217.941 1777.23)" fill="#42454a"/>
    <path id="Trazado_97" data-name="Trazado 97" d="M.439,0V-4.295h.568V-.507H3.123V0ZM3.9,0V-4.295h.568V0ZM5.449,0V-4.295H6.3L7.321-1.254q.141.425.205.636.073-.234.229-.688L8.783-4.295h.765V0H9V-3.595L7.752,0H7.239L6-3.656V0Zm5.112,0V-4.295h.568V0Zm2.663,0V-3.788H11.81v-.507h3.4v.507H13.793V0Z" transform="translate(1208.271 1784.92)" fill="#42454a"/>
    <path id="Trazado_98" data-name="Trazado 98" d="M-.009,0,1.641-4.295h.612L4.011,0H3.363l-.5-1.3h-1.8L.595,0ZM1.23-1.764H2.687L2.238-2.953q-.205-.542-.3-.891a5.475,5.475,0,0,1-.231.82Zm6.3.258.568.144A1.913,1.913,0,0,1,7.455-.294,1.772,1.772,0,0,1,6.319.073,2.04,2.04,0,0,1,5.19-.209a1.765,1.765,0,0,1-.662-.819A2.922,2.922,0,0,1,4.3-2.18a2.531,2.531,0,0,1,.256-1.17,1.756,1.756,0,0,1,.729-.759,2.131,2.131,0,0,1,1.042-.259,1.761,1.761,0,0,1,1.084.328,1.7,1.7,0,0,1,.612.923l-.56.132a1.327,1.327,0,0,0-.434-.683,1.155,1.155,0,0,0-.715-.214,1.389,1.389,0,0,0-.828.237,1.253,1.253,0,0,0-.467.637,2.565,2.565,0,0,0-.135.825,2.621,2.621,0,0,0,.16.957,1.189,1.189,0,0,0,.5.611,1.393,1.393,0,0,0,.729.2,1.222,1.222,0,0,0,.809-.275A1.409,1.409,0,0,0,7.529-1.506ZM8.895,0V-4.295h.568V0Zm1.4-2.092a2.334,2.334,0,0,1,.574-1.674,1.952,1.952,0,0,1,1.482-.6,2.057,2.057,0,0,1,1.072.284,1.856,1.856,0,0,1,.728.792,2.574,2.574,0,0,1,.25,1.153,2.531,2.531,0,0,1-.264,1.169,1.8,1.8,0,0,1-.747.781,2.134,2.134,0,0,1-1.043.265A2.031,2.031,0,0,1,11.262-.22a1.885,1.885,0,0,1-.724-.8A2.424,2.424,0,0,1,10.292-2.092Zm.586.009A1.721,1.721,0,0,0,11.3-.86a1.373,1.373,0,0,0,1.047.447A1.371,1.371,0,0,0,13.4-.864a1.824,1.824,0,0,0,.415-1.28,2.2,2.2,0,0,0-.177-.916,1.362,1.362,0,0,0-.519-.606,1.406,1.406,0,0,0-.766-.215,1.453,1.453,0,0,0-1.039.415A1.852,1.852,0,0,0,10.878-2.083ZM15.126,0V-4.295h.583L17.965-.923V-4.295h.545V0h-.583L15.671-3.375V0Zm4.351,0V-4.295h3.105v.507H20.045v1.315h2.376v.5H20.045V-.507h2.637V0Zm3.8-1.38.536-.047a1.184,1.184,0,0,0,.177.529.968.968,0,0,0,.432.334,1.636,1.636,0,0,0,.659.127,1.58,1.58,0,0,0,.574-.1A.8.8,0,0,0,26.023-.8a.615.615,0,0,0,.122-.368.559.559,0,0,0-.117-.353.868.868,0,0,0-.387-.253,7.559,7.559,0,0,0-.765-.209,3.907,3.907,0,0,1-.829-.268,1.163,1.163,0,0,1-.458-.4.98.98,0,0,1-.151-.535,1.092,1.092,0,0,1,.185-.608,1.143,1.143,0,0,1,.539-.429,2.045,2.045,0,0,1,.788-.146,2.153,2.153,0,0,1,.842.154,1.215,1.215,0,0,1,.561.453,1.3,1.3,0,0,1,.211.677l-.545.041a.879.879,0,0,0-.3-.615,1.157,1.157,0,0,0-.749-.208,1.2,1.2,0,0,0-.751.189.567.567,0,0,0-.236.456.488.488,0,0,0,.167.381,2.263,2.263,0,0,0,.857.306,5.668,5.668,0,0,1,.951.274,1.3,1.3,0,0,1,.554.438,1.067,1.067,0,0,1,.179.611,1.168,1.168,0,0,1-.2.646,1.292,1.292,0,0,1-.564.472A1.965,1.965,0,0,1,25.1.073a2.471,2.471,0,0,1-.977-.17,1.368,1.368,0,0,1-.618-.511A1.449,1.449,0,0,1,23.273-1.38ZM29.147,0V-4.295h3.105v.507H29.716v1.315h2.376v.5H29.716V-.507h2.637V0Zm3.984,0V-4.295h.583L35.971-.923V-4.295h.545V0h-.583L33.677-3.375V0Z" transform="translate(1224.17 1784.92)" fill="#42454a"/>
    <path id="Trazado_99" data-name="Trazado 99" d="M.439,0V-4.295h.568V-.507H3.123V0ZM3.328,0,4.978-4.295H5.59L7.348,0H6.7L6.2-1.3H4.4L3.932,0ZM4.567-1.764H6.023L5.575-2.953q-.205-.542-.3-.891a5.475,5.475,0,0,1-.231.82Zm3.041.384.536-.047A1.184,1.184,0,0,0,8.322-.9a.968.968,0,0,0,.432.334,1.636,1.636,0,0,0,.659.127,1.58,1.58,0,0,0,.574-.1A.8.8,0,0,0,10.358-.8a.615.615,0,0,0,.122-.368.559.559,0,0,0-.117-.353.868.868,0,0,0-.387-.253,7.559,7.559,0,0,0-.765-.209,3.907,3.907,0,0,1-.829-.268,1.163,1.163,0,0,1-.458-.4.98.98,0,0,1-.151-.535,1.092,1.092,0,0,1,.185-.608A1.143,1.143,0,0,1,8.5-4.222a2.045,2.045,0,0,1,.788-.146,2.153,2.153,0,0,1,.842.154,1.215,1.215,0,0,1,.561.453,1.3,1.3,0,0,1,.211.677l-.545.041a.879.879,0,0,0-.3-.615,1.157,1.157,0,0,0-.749-.208,1.2,1.2,0,0,0-.751.189.567.567,0,0,0-.236.456.488.488,0,0,0,.167.381,2.263,2.263,0,0,0,.857.306,5.668,5.668,0,0,1,.951.274,1.3,1.3,0,0,1,.554.438,1.067,1.067,0,0,1,.179.611,1.168,1.168,0,0,1-.2.646,1.292,1.292,0,0,1-.564.472,1.965,1.965,0,0,1-.828.168A2.471,2.471,0,0,1,8.462-.1a1.368,1.368,0,0,1-.618-.511A1.449,1.449,0,0,1,7.608-1.38Z" transform="translate(1204.938 1792.61)" fill="#42454a"/>
    <path id="Trazado_100" data-name="Trazado 100" d="M-.009,0,1.641-4.295h.612L4.011,0H3.363l-.5-1.3h-1.8L.595,0ZM1.23-1.764H2.687L2.238-2.953q-.205-.542-.3-.891a5.475,5.475,0,0,1-.231.82Zm6.3.258.568.144A1.913,1.913,0,0,1,7.455-.294,1.772,1.772,0,0,1,6.319.073,2.04,2.04,0,0,1,5.19-.209a1.765,1.765,0,0,1-.662-.819A2.922,2.922,0,0,1,4.3-2.18a2.531,2.531,0,0,1,.256-1.17,1.756,1.756,0,0,1,.729-.759,2.131,2.131,0,0,1,1.042-.259,1.761,1.761,0,0,1,1.084.328,1.7,1.7,0,0,1,.612.923l-.56.132a1.327,1.327,0,0,0-.434-.683,1.155,1.155,0,0,0-.715-.214,1.389,1.389,0,0,0-.828.237,1.253,1.253,0,0,0-.467.637,2.565,2.565,0,0,0-.135.825,2.621,2.621,0,0,0,.16.957,1.189,1.189,0,0,0,.5.611,1.393,1.393,0,0,0,.729.2,1.222,1.222,0,0,0,.809-.275A1.409,1.409,0,0,0,7.529-1.506ZM9.891,0V-3.788H8.476v-.507h3.4v.507H10.459V0ZM12.56,0V-4.295h.568V0Zm2.8,0L13.693-4.295h.615l1.116,3.12q.135.375.226.7.1-.352.231-.7l1.16-3.12h.58L15.94,0Zm2.871,0V-4.295H18.8V0ZM19.8,0V-4.295h1.479a3.589,3.589,0,0,1,.765.062,1.455,1.455,0,0,1,.63.308,1.747,1.747,0,0,1,.508.734,2.881,2.881,0,0,1,.168,1.021,3,3,0,0,1-.114.867,2.1,2.1,0,0,1-.293.625,1.556,1.556,0,0,1-.391.39,1.594,1.594,0,0,1-.513.215,2.926,2.926,0,0,1-.69.073Zm.568-.507h.917a2.225,2.225,0,0,0,.667-.079.954.954,0,0,0,.385-.223,1.355,1.355,0,0,0,.315-.543,2.657,2.657,0,0,0,.113-.828,2,2,0,0,0-.221-1.036A1.113,1.113,0,0,0,22-3.7a2.222,2.222,0,0,0-.735-.088h-.9ZM23.66,0,25.31-4.295h.612L27.68,0h-.647l-.5-1.3h-1.8L24.264,0ZM24.9-1.764h1.456l-.448-1.189q-.205-.542-.3-.891a5.475,5.475,0,0,1-.231.82ZM28.134,0V-4.295h1.479a3.589,3.589,0,0,1,.765.062,1.455,1.455,0,0,1,.63.308,1.747,1.747,0,0,1,.508.734,2.881,2.881,0,0,1,.168,1.021,3,3,0,0,1-.114.867,2.1,2.1,0,0,1-.293.625,1.556,1.556,0,0,1-.391.39,1.594,1.594,0,0,1-.513.215,2.926,2.926,0,0,1-.69.073ZM28.7-.507h.917a2.225,2.225,0,0,0,.667-.079.954.954,0,0,0,.385-.223,1.355,1.355,0,0,0,.315-.543A2.657,2.657,0,0,0,31.1-2.18a2,2,0,0,0-.221-1.036A1.113,1.113,0,0,0,30.34-3.7a2.222,2.222,0,0,0-.735-.088h-.9ZM32.479,0V-4.295h3.105v.507H33.047v1.315h2.376v.5H33.047V-.507h2.637V0Zm3.8-1.38.536-.047a1.184,1.184,0,0,0,.177.529.968.968,0,0,0,.432.334,1.636,1.636,0,0,0,.659.127,1.58,1.58,0,0,0,.574-.1A.8.8,0,0,0,39.025-.8a.615.615,0,0,0,.122-.368.559.559,0,0,0-.117-.353.868.868,0,0,0-.387-.253,7.559,7.559,0,0,0-.765-.209,3.907,3.907,0,0,1-.829-.268,1.163,1.163,0,0,1-.458-.4.98.98,0,0,1-.151-.535,1.092,1.092,0,0,1,.185-.608,1.143,1.143,0,0,1,.539-.429,2.045,2.045,0,0,1,.788-.146,2.153,2.153,0,0,1,.842.154,1.215,1.215,0,0,1,.561.453,1.3,1.3,0,0,1,.211.677l-.545.041a.879.879,0,0,0-.3-.615,1.157,1.157,0,0,0-.749-.208,1.2,1.2,0,0,0-.751.189.567.567,0,0,0-.236.456.488.488,0,0,0,.167.381,2.263,2.263,0,0,0,.857.306,5.668,5.668,0,0,1,.951.274,1.3,1.3,0,0,1,.554.438,1.067,1.067,0,0,1,.179.611,1.168,1.168,0,0,1-.2.646,1.292,1.292,0,0,1-.564.472,1.965,1.965,0,0,1-.828.168,2.471,2.471,0,0,1-.977-.17,1.368,1.368,0,0,1-.618-.511A1.449,1.449,0,0,1,36.275-1.38Z" transform="translate(1218.48 1792.61)" fill="#42454a"/>
    <path id="Trazado_101" data-name="Trazado 101" d="M3.231,0V-1.819L1.576-4.295h.691L3.114-3q.234.363.437.727.193-.337.469-.759l.832-1.263h.662L3.8-1.819V0Z" transform="translate(1261.211 1792.61)" fill="#42454a"/>
    <path id="Trazado_102" data-name="Trazado 102" d="M.472,0V-4.295h1.9a2.534,2.534,0,0,1,.873.116.955.955,0,0,1,.478.409,1.219,1.219,0,0,1,.179.647,1.08,1.08,0,0,1-.3.771,1.5,1.5,0,0,1-.914.4,1.474,1.474,0,0,1,.343.214,2.953,2.953,0,0,1,.472.571L4.257,0H3.542L2.974-.894q-.249-.387-.41-.592a1.29,1.29,0,0,0-.289-.287.853.853,0,0,0-.259-.114A1.707,1.707,0,0,0,1.7-1.907H1.04V0ZM1.04-2.4H2.262a1.832,1.832,0,0,0,.609-.081.648.648,0,0,0,.334-.258.7.7,0,0,0,.114-.385.64.64,0,0,0-.221-.5,1.035,1.035,0,0,0-.7-.2H1.04ZM4.808,0V-4.295H7.913v.507H5.376v1.315H7.752v.5H5.376V-.507H8.013V0ZM8.6-1.38l.536-.047A1.184,1.184,0,0,0,9.318-.9a.968.968,0,0,0,.432.334,1.636,1.636,0,0,0,.659.127,1.58,1.58,0,0,0,.574-.1A.8.8,0,0,0,11.354-.8a.615.615,0,0,0,.122-.368.559.559,0,0,0-.117-.353.868.868,0,0,0-.387-.253,7.559,7.559,0,0,0-.765-.209,3.907,3.907,0,0,1-.829-.268,1.163,1.163,0,0,1-.458-.4.98.98,0,0,1-.151-.535,1.092,1.092,0,0,1,.185-.608,1.143,1.143,0,0,1,.539-.429,2.045,2.045,0,0,1,.788-.146,2.153,2.153,0,0,1,.842.154,1.215,1.215,0,0,1,.561.453,1.3,1.3,0,0,1,.211.677l-.545.041a.879.879,0,0,0-.3-.615,1.157,1.157,0,0,0-.749-.208,1.2,1.2,0,0,0-.751.189.567.567,0,0,0-.236.456.488.488,0,0,0,.167.381,2.263,2.263,0,0,0,.857.306,5.668,5.668,0,0,1,.951.274,1.3,1.3,0,0,1,.554.438,1.067,1.067,0,0,1,.179.611,1.168,1.168,0,0,1-.2.646,1.292,1.292,0,0,1-.564.472,1.965,1.965,0,0,1-.828.168A2.471,2.471,0,0,1,9.458-.1,1.368,1.368,0,0,1,8.84-.608,1.449,1.449,0,0,1,8.6-1.38ZM13.893,0V-3.788H12.478v-.507h3.4v.507H14.461V0Zm2.581,0V-4.295h1.9a2.534,2.534,0,0,1,.873.116.955.955,0,0,1,.478.409,1.219,1.219,0,0,1,.179.647,1.08,1.08,0,0,1-.3.771,1.5,1.5,0,0,1-.914.4,1.474,1.474,0,0,1,.343.214,2.953,2.953,0,0,1,.472.571L20.259,0h-.715l-.568-.894q-.249-.387-.41-.592a1.29,1.29,0,0,0-.289-.287.853.853,0,0,0-.259-.114,1.707,1.707,0,0,0-.316-.021h-.659V0Zm.568-2.4h1.222a1.832,1.832,0,0,0,.609-.081.648.648,0,0,0,.334-.258.7.7,0,0,0,.114-.385.64.64,0,0,0-.221-.5,1.035,1.035,0,0,0-.7-.2H17.042ZM20.895,0V-4.295h.568V0Zm4.635-1.506.568.144a1.913,1.913,0,0,1-.643,1.068,1.772,1.772,0,0,1-1.135.368A2.04,2.04,0,0,1,23.19-.209a1.765,1.765,0,0,1-.662-.819A2.922,2.922,0,0,1,22.3-2.18a2.531,2.531,0,0,1,.256-1.17,1.756,1.756,0,0,1,.729-.759,2.131,2.131,0,0,1,1.042-.259,1.761,1.761,0,0,1,1.084.328,1.7,1.7,0,0,1,.612.923l-.56.132a1.327,1.327,0,0,0-.434-.683,1.155,1.155,0,0,0-.715-.214,1.389,1.389,0,0,0-.828.237,1.253,1.253,0,0,0-.467.637,2.565,2.565,0,0,0-.135.825,2.621,2.621,0,0,0,.16.957,1.189,1.189,0,0,0,.5.611,1.393,1.393,0,0,0,.729.2,1.222,1.222,0,0,0,.809-.275A1.409,1.409,0,0,0,25.529-1.506Zm4.333,0,.568.144a1.913,1.913,0,0,1-.643,1.068,1.772,1.772,0,0,1-1.135.368,2.04,2.04,0,0,1-1.129-.283,1.765,1.765,0,0,1-.662-.819,2.922,2.922,0,0,1-.227-1.151,2.531,2.531,0,0,1,.256-1.17,1.756,1.756,0,0,1,.729-.759,2.131,2.131,0,0,1,1.042-.259,1.761,1.761,0,0,1,1.084.328,1.7,1.7,0,0,1,.612.923l-.56.132a1.327,1.327,0,0,0-.434-.683,1.155,1.155,0,0,0-.715-.214,1.389,1.389,0,0,0-.828.237,1.253,1.253,0,0,0-.467.637,2.565,2.565,0,0,0-.135.825,2.621,2.621,0,0,0,.16.957,1.189,1.189,0,0,0,.5.611,1.393,1.393,0,0,0,.729.2,1.222,1.222,0,0,0,.809-.275A1.409,1.409,0,0,0,29.862-1.506ZM31.228,0V-4.295H31.8V0Zm1.4-2.092A2.334,2.334,0,0,1,33.2-3.766a1.952,1.952,0,0,1,1.482-.6,2.057,2.057,0,0,1,1.072.284,1.856,1.856,0,0,1,.728.792,2.574,2.574,0,0,1,.25,1.153,2.531,2.531,0,0,1-.264,1.169,1.8,1.8,0,0,1-.747.781,2.134,2.134,0,0,1-1.043.265A2.031,2.031,0,0,1,33.595-.22a1.885,1.885,0,0,1-.724-.8A2.424,2.424,0,0,1,32.625-2.092Zm.586.009A1.721,1.721,0,0,0,33.628-.86a1.373,1.373,0,0,0,1.047.447,1.371,1.371,0,0,0,1.056-.451,1.824,1.824,0,0,0,.415-1.28,2.2,2.2,0,0,0-.177-.916,1.362,1.362,0,0,0-.519-.606,1.406,1.406,0,0,0-.766-.215,1.453,1.453,0,0,0-1.039.415A1.852,1.852,0,0,0,33.211-2.083ZM37.459,0V-4.295h.583L40.3-.923V-4.295h.545V0H40.26L38-3.375V0ZM41.81,0V-4.295h3.105v.507H42.378v1.315h2.376v.5H42.378V-.507h2.637V0Zm3.8-1.38.536-.047A1.184,1.184,0,0,0,46.32-.9a.968.968,0,0,0,.432.334,1.636,1.636,0,0,0,.659.127,1.58,1.58,0,0,0,.574-.1A.8.8,0,0,0,48.356-.8a.615.615,0,0,0,.122-.368.559.559,0,0,0-.117-.353.868.868,0,0,0-.387-.253,7.559,7.559,0,0,0-.765-.209,3.907,3.907,0,0,1-.829-.268,1.163,1.163,0,0,1-.458-.4.98.98,0,0,1-.151-.535,1.092,1.092,0,0,1,.185-.608,1.143,1.143,0,0,1,.539-.429,2.045,2.045,0,0,1,.788-.146,2.153,2.153,0,0,1,.842.154,1.215,1.215,0,0,1,.561.453,1.3,1.3,0,0,1,.211.677l-.545.041a.879.879,0,0,0-.3-.615,1.157,1.157,0,0,0-.749-.208,1.2,1.2,0,0,0-.751.189.567.567,0,0,0-.236.456.488.488,0,0,0,.167.381,2.263,2.263,0,0,0,.857.306,5.668,5.668,0,0,1,.951.274,1.3,1.3,0,0,1,.554.438,1.067,1.067,0,0,1,.179.611,1.168,1.168,0,0,1-.2.646,1.292,1.292,0,0,1-.564.472,1.965,1.965,0,0,1-.828.168A2.471,2.471,0,0,1,46.46-.1a1.368,1.368,0,0,1-.618-.511A1.449,1.449,0,0,1,45.606-1.38ZM51.48,0V-4.295h3.105v.507H52.049v1.315h2.376v.5H52.049V-.507h2.637V0Zm3.984,0V-4.295h.583L58.3-.923V-4.295h.545V0h-.583L56.01-3.375V0Z" transform="translate(1204.298 1800.301)" fill="#42454a"/>
    <path id="Trazado_103" data-name="Trazado 103" d="M.439,0V-4.295h.568V-.507H3.123V0ZM3.328,0,4.978-4.295H5.59L7.348,0H6.7L6.2-1.3H4.4L3.932,0ZM4.567-1.764H6.023L5.575-2.953q-.205-.542-.3-.891a5.475,5.475,0,0,1-.231.82Z" transform="translate(1206.964 1807.991)" fill="#42454a"/>
    <path id="Trazado_104" data-name="Trazado 104" d="M2.13,0V-4.295H3.75a3.912,3.912,0,0,1,.653.041,1.294,1.294,0,0,1,.53.2,1.053,1.053,0,0,1,.344.415,1.316,1.316,0,0,1,.13.586,1.32,1.32,0,0,1-.349.927,1.672,1.672,0,0,1-1.26.379H2.7V0ZM2.7-2.253h1.11a1.178,1.178,0,0,0,.782-.205.731.731,0,0,0,.231-.577A.776.776,0,0,0,4.686-3.5a.637.637,0,0,0-.359-.253,2.428,2.428,0,0,0-.53-.038H2.7Z" transform="translate(1214.449 1807.991)" fill="#42454a"/>
    <path id="Trazado_105" data-name="Trazado 105" d="M-.009,0,1.641-4.295h.612L4.011,0H3.363l-.5-1.3h-1.8L.595,0ZM1.23-1.764H2.687L2.238-2.953q-.205-.542-.3-.891a5.475,5.475,0,0,1-.231.82ZM4.474,0V-4.295h1.9a2.534,2.534,0,0,1,.873.116.955.955,0,0,1,.478.409,1.219,1.219,0,0,1,.179.647,1.08,1.08,0,0,1-.3.771,1.5,1.5,0,0,1-.914.4,1.474,1.474,0,0,1,.343.214,2.953,2.953,0,0,1,.472.571L8.259,0H7.544L6.976-.894q-.249-.387-.41-.592a1.29,1.29,0,0,0-.289-.287.853.853,0,0,0-.259-.114A1.707,1.707,0,0,0,5.7-1.907H5.042V0Zm.568-2.4H6.264a1.832,1.832,0,0,0,.609-.081.648.648,0,0,0,.334-.258.7.7,0,0,0,.114-.385.64.64,0,0,0-.221-.5,1.035,1.035,0,0,0-.7-.2H5.042Z" transform="translate(1220.031 1807.991)" fill="#42454a"/>
    <path id="Trazado_106" data-name="Trazado 106" d="M1.556,0V-3.788H.141v-.507h3.4v.507H2.124V0ZM4.225,0V-4.295h.568V0ZM8.859-1.506l.568.144A1.913,1.913,0,0,1,8.785-.294,1.772,1.772,0,0,1,7.649.073,2.04,2.04,0,0,1,6.52-.209a1.765,1.765,0,0,1-.662-.819A2.922,2.922,0,0,1,5.631-2.18a2.531,2.531,0,0,1,.256-1.17,1.756,1.756,0,0,1,.729-.759,2.131,2.131,0,0,1,1.042-.259,1.761,1.761,0,0,1,1.084.328,1.7,1.7,0,0,1,.612.923l-.56.132a1.327,1.327,0,0,0-.434-.683,1.155,1.155,0,0,0-.715-.214,1.389,1.389,0,0,0-.828.237,1.253,1.253,0,0,0-.467.637,2.565,2.565,0,0,0-.135.825,2.621,2.621,0,0,0,.16.957,1.189,1.189,0,0,0,.5.611,1.393,1.393,0,0,0,.729.2,1.222,1.222,0,0,0,.809-.275A1.409,1.409,0,0,0,8.859-1.506ZM10.225,0V-4.295h.568V0Zm1.57,0V-4.295h1.62a3.912,3.912,0,0,1,.653.041,1.294,1.294,0,0,1,.53.2,1.053,1.053,0,0,1,.344.415,1.316,1.316,0,0,1,.13.586,1.32,1.32,0,0,1-.349.927,1.672,1.672,0,0,1-1.26.379h-1.1V0Zm.568-2.253h1.11a1.178,1.178,0,0,0,.782-.205.731.731,0,0,0,.231-.577.776.776,0,0,0-.136-.461.637.637,0,0,0-.359-.253,2.428,2.428,0,0,0-.53-.038h-1.1Z" transform="translate(1228.817 1807.991)" fill="#42454a"/>
    <path id="Trazado_107" data-name="Trazado 107" d="M-.009,0,1.641-4.295h.612L4.011,0H3.363l-.5-1.3h-1.8L.595,0ZM1.23-1.764H2.687L2.238-2.953q-.205-.542-.3-.891a5.475,5.475,0,0,1-.231.82Zm6.3.258.568.144A1.913,1.913,0,0,1,7.455-.294,1.772,1.772,0,0,1,6.319.073,2.04,2.04,0,0,1,5.19-.209a1.765,1.765,0,0,1-.662-.819A2.922,2.922,0,0,1,4.3-2.18a2.531,2.531,0,0,1,.256-1.17,1.756,1.756,0,0,1,.729-.759,2.131,2.131,0,0,1,1.042-.259,1.761,1.761,0,0,1,1.084.328,1.7,1.7,0,0,1,.612.923l-.56.132a1.327,1.327,0,0,0-.434-.683,1.155,1.155,0,0,0-.715-.214,1.389,1.389,0,0,0-.828.237,1.253,1.253,0,0,0-.467.637,2.565,2.565,0,0,0-.135.825,2.621,2.621,0,0,0,.16.957,1.189,1.189,0,0,0,.5.611,1.393,1.393,0,0,0,.729.2,1.222,1.222,0,0,0,.809-.275A1.409,1.409,0,0,0,7.529-1.506ZM8.895,0V-4.295h.568V0Zm1.4-2.092a2.334,2.334,0,0,1,.574-1.674,1.952,1.952,0,0,1,1.482-.6,2.057,2.057,0,0,1,1.072.284,1.856,1.856,0,0,1,.728.792,2.574,2.574,0,0,1,.25,1.153,2.531,2.531,0,0,1-.264,1.169,1.8,1.8,0,0,1-.747.781,2.134,2.134,0,0,1-1.043.265A2.031,2.031,0,0,1,11.262-.22a1.885,1.885,0,0,1-.724-.8A2.424,2.424,0,0,1,10.292-2.092Zm.586.009A1.721,1.721,0,0,0,11.3-.86a1.373,1.373,0,0,0,1.047.447A1.371,1.371,0,0,0,13.4-.864a1.824,1.824,0,0,0,.415-1.28,2.2,2.2,0,0,0-.177-.916,1.362,1.362,0,0,0-.519-.606,1.406,1.406,0,0,0-.766-.215,1.453,1.453,0,0,0-1.039.415A1.852,1.852,0,0,0,10.878-2.083Zm1.107-2.476.39-.82h.691l-.645.82ZM15.126,0V-4.295h.583L17.965-.923V-4.295h.545V0h-.583L15.671-3.375V0Z" transform="translate(1244.716 1807.991)" fill="#42454a"/>
    <path id="Trazado_87" data-name="Trazado 87" d="M0,0A5.269,5.269,0,0,1-5.271-5.235V-40.862A5.269,5.269,0,0,1,0-46.1H59.7a5.269,5.269,0,0,1,5.27,5.235V-5.235A5.269,5.269,0,0,1,59.7,0Z" transform="translate(1206.937 1813.96)" fill="none" stroke="#43b94a" stroke-width="2"/>
    <path id="Trazado_88" data-name="Trazado 88" d="M0,0H216.756V-72.48H0Z" transform="translate(1131 1814.96)" fill="none"/>
    <path id="Trazado_108" data-name="Trazado 108" d="M.27-1.38l.536-.047A1.184,1.184,0,0,0,.983-.9a.968.968,0,0,0,.432.334,1.636,1.636,0,0,0,.659.127,1.58,1.58,0,0,0,.574-.1A.8.8,0,0,0,3.019-.8a.615.615,0,0,0,.122-.368.559.559,0,0,0-.117-.353.868.868,0,0,0-.387-.253,7.559,7.559,0,0,0-.765-.209,3.907,3.907,0,0,1-.829-.268,1.163,1.163,0,0,1-.458-.4.98.98,0,0,1-.151-.535,1.092,1.092,0,0,1,.185-.608,1.143,1.143,0,0,1,.539-.429,2.045,2.045,0,0,1,.788-.146,2.153,2.153,0,0,1,.842.154,1.215,1.215,0,0,1,.561.453,1.3,1.3,0,0,1,.211.677l-.545.041a.879.879,0,0,0-.3-.615,1.157,1.157,0,0,0-.749-.208,1.2,1.2,0,0,0-.751.189.567.567,0,0,0-.236.456.488.488,0,0,0,.167.381,2.263,2.263,0,0,0,.857.306,5.668,5.668,0,0,1,.951.274,1.3,1.3,0,0,1,.554.438,1.067,1.067,0,0,1,.179.611,1.168,1.168,0,0,1-.2.646A1.292,1.292,0,0,1,2.928-.1,1.965,1.965,0,0,1,2.1.073,2.471,2.471,0,0,1,1.124-.1,1.368,1.368,0,0,1,.505-.608,1.449,1.449,0,0,1,.27-1.38Zm4.022-.712a2.334,2.334,0,0,1,.574-1.674,1.952,1.952,0,0,1,1.482-.6,2.057,2.057,0,0,1,1.072.284,1.856,1.856,0,0,1,.728.792A2.574,2.574,0,0,1,8.4-2.142,2.531,2.531,0,0,1,8.136-.973a1.8,1.8,0,0,1-.747.781A2.134,2.134,0,0,1,6.346.073,2.031,2.031,0,0,1,5.262-.22a1.885,1.885,0,0,1-.724-.8A2.424,2.424,0,0,1,4.292-2.092Zm.586.009A1.721,1.721,0,0,0,5.3-.86a1.373,1.373,0,0,0,1.047.447A1.371,1.371,0,0,0,7.4-.864a1.824,1.824,0,0,0,.415-1.28,2.2,2.2,0,0,0-.177-.916,1.362,1.362,0,0,0-.519-.606,1.406,1.406,0,0,0-.766-.215,1.453,1.453,0,0,0-1.039.415A1.852,1.852,0,0,0,4.878-2.083ZM9.108,0V-4.295h.568V-.507h2.115V0Zm3.457,0V-4.295h.568V0ZM17.2-1.506l.568.144a1.913,1.913,0,0,1-.643,1.068A1.772,1.772,0,0,1,15.99.073a2.04,2.04,0,0,1-1.129-.283,1.765,1.765,0,0,1-.662-.819,2.922,2.922,0,0,1-.227-1.151,2.531,2.531,0,0,1,.256-1.17,1.756,1.756,0,0,1,.729-.759A2.131,2.131,0,0,1,16-4.368a1.761,1.761,0,0,1,1.084.328,1.7,1.7,0,0,1,.612.923l-.56.132a1.327,1.327,0,0,0-.434-.683,1.155,1.155,0,0,0-.715-.214,1.389,1.389,0,0,0-.828.237,1.253,1.253,0,0,0-.467.637,2.565,2.565,0,0,0-.135.825,2.621,2.621,0,0,0,.16.957,1.189,1.189,0,0,0,.5.611,1.393,1.393,0,0,0,.729.2,1.222,1.222,0,0,0,.809-.275A1.409,1.409,0,0,0,17.2-1.506ZM18.565,0V-4.295h.568V0Zm2.663,0V-3.788H19.813v-.507h3.4v.507H21.8V0Zm5.391-4.295h.568v2.481a2.937,2.937,0,0,1-.146,1.028,1.255,1.255,0,0,1-.529.62,1.873,1.873,0,0,1-1,.239,2.062,2.062,0,0,1-.987-.208,1.187,1.187,0,0,1-.548-.6,2.869,2.869,0,0,1-.164-1.077V-4.295h.568v2.479a2.416,2.416,0,0,0,.1.825.79.79,0,0,0,.357.409,1.24,1.24,0,0,0,.62.144,1.184,1.184,0,0,0,.894-.284,1.637,1.637,0,0,0,.267-1.093ZM28.134,0V-4.295h1.479a3.589,3.589,0,0,1,.765.062,1.455,1.455,0,0,1,.63.308,1.747,1.747,0,0,1,.508.734,2.881,2.881,0,0,1,.168,1.021,3,3,0,0,1-.114.867,2.1,2.1,0,0,1-.293.625,1.556,1.556,0,0,1-.391.39,1.594,1.594,0,0,1-.513.215,2.926,2.926,0,0,1-.69.073ZM28.7-.507h.917a2.225,2.225,0,0,0,.667-.079.954.954,0,0,0,.385-.223,1.355,1.355,0,0,0,.315-.543A2.657,2.657,0,0,0,31.1-2.18a2,2,0,0,0-.221-1.036A1.113,1.113,0,0,0,30.34-3.7a2.222,2.222,0,0,0-.735-.088h-.9ZM34.134,0V-4.295h1.479a3.589,3.589,0,0,1,.765.062,1.455,1.455,0,0,1,.63.308,1.747,1.747,0,0,1,.508.734,2.881,2.881,0,0,1,.168,1.021,3,3,0,0,1-.114.867,2.1,2.1,0,0,1-.293.625,1.556,1.556,0,0,1-.391.39,1.594,1.594,0,0,1-.513.215,2.926,2.926,0,0,1-.69.073ZM34.7-.507h.917a2.225,2.225,0,0,0,.667-.079.954.954,0,0,0,.385-.223,1.355,1.355,0,0,0,.315-.543A2.657,2.657,0,0,0,37.1-2.18a2,2,0,0,0-.221-1.036A1.113,1.113,0,0,0,36.34-3.7a2.222,2.222,0,0,0-.735-.088h-.9ZM38.479,0V-4.295h3.105v.507H39.047v1.315h2.376v.5H39.047V-.507h2.637V0Z" transform="translate(1288.406 1777.23)" fill="#42454a"/>
    <path id="Trazado_109" data-name="Trazado 109" d="M.56,0V-4.295h.568V0ZM2.124,0V-4.295h.583L4.963-.923V-4.295h.545V0H4.925L2.669-3.375V0ZM6.492,0V-4.295h2.9v.507H7.061v1.33H9.076v.507H7.061V0ZM9.955-2.092a2.334,2.334,0,0,1,.574-1.674,1.952,1.952,0,0,1,1.482-.6,2.057,2.057,0,0,1,1.072.284,1.856,1.856,0,0,1,.728.792,2.574,2.574,0,0,1,.25,1.153A2.531,2.531,0,0,1,13.8-.973a1.8,1.8,0,0,1-.747.781,2.134,2.134,0,0,1-1.043.265A2.031,2.031,0,0,1,10.925-.22a1.885,1.885,0,0,1-.724-.8A2.424,2.424,0,0,1,9.955-2.092Zm.586.009A1.721,1.721,0,0,0,10.958-.86a1.373,1.373,0,0,0,1.047.447,1.371,1.371,0,0,0,1.056-.451,1.824,1.824,0,0,0,.415-1.28A2.2,2.2,0,0,0,13.3-3.06a1.362,1.362,0,0,0-.519-.606,1.406,1.406,0,0,0-.766-.215,1.453,1.453,0,0,0-1.039.415A1.852,1.852,0,0,0,10.541-2.083ZM14.8,0V-4.295h1.9a2.534,2.534,0,0,1,.873.116.955.955,0,0,1,.478.409,1.219,1.219,0,0,1,.179.647,1.08,1.08,0,0,1-.3.771,1.5,1.5,0,0,1-.914.4,1.474,1.474,0,0,1,.343.214,2.953,2.953,0,0,1,.472.571L18.589,0h-.715l-.568-.894q-.249-.387-.41-.592a1.29,1.29,0,0,0-.289-.287.853.853,0,0,0-.259-.114,1.707,1.707,0,0,0-.316-.021h-.659V0Zm.568-2.4h1.222A1.832,1.832,0,0,0,17.2-2.48a.648.648,0,0,0,.334-.258.7.7,0,0,0,.114-.385.64.64,0,0,0-.221-.5,1.035,1.035,0,0,0-.7-.2H15.372ZM19.11,0V-4.295h.855l1.017,3.041q.141.425.205.636.073-.234.229-.688l1.028-2.988h.765V0h-.548V-3.595L21.413,0H20.9L19.658-3.656V0Zm4.544,0L25.3-4.295h.612L27.674,0h-.647l-.5-1.3h-1.8L24.258,0Zm1.239-1.764H26.35L25.9-2.953q-.205-.542-.3-.891a5.475,5.475,0,0,1-.231.82Zm6.3.258.568.144a1.913,1.913,0,0,1-.643,1.068,1.772,1.772,0,0,1-1.135.368,2.04,2.04,0,0,1-1.129-.283,1.765,1.765,0,0,1-.662-.819,2.922,2.922,0,0,1-.227-1.151,2.531,2.531,0,0,1,.256-1.17,1.756,1.756,0,0,1,.729-.759,2.131,2.131,0,0,1,1.042-.259,1.761,1.761,0,0,1,1.084.328,1.7,1.7,0,0,1,.612.923l-.56.132a1.327,1.327,0,0,0-.434-.683,1.155,1.155,0,0,0-.715-.214,1.389,1.389,0,0,0-.828.237,1.253,1.253,0,0,0-.467.637,2.565,2.565,0,0,0-.135.825,2.621,2.621,0,0,0,.16.957,1.189,1.189,0,0,0,.5.611,1.393,1.393,0,0,0,.729.2,1.222,1.222,0,0,0,.809-.275A1.409,1.409,0,0,0,31.192-1.506ZM32.558,0V-4.295h.568V0Zm1.4-2.092a2.334,2.334,0,0,1,.574-1.674,1.952,1.952,0,0,1,1.482-.6,2.057,2.057,0,0,1,1.072.284,1.856,1.856,0,0,1,.728.792,2.574,2.574,0,0,1,.25,1.153A2.531,2.531,0,0,1,37.8-.973a1.8,1.8,0,0,1-.747.781,2.134,2.134,0,0,1-1.043.265A2.031,2.031,0,0,1,34.925-.22a1.885,1.885,0,0,1-.724-.8A2.424,2.424,0,0,1,33.955-2.092Zm.586.009A1.721,1.721,0,0,0,34.958-.86a1.373,1.373,0,0,0,1.047.447,1.371,1.371,0,0,0,1.056-.451,1.824,1.824,0,0,0,.415-1.28A2.2,2.2,0,0,0,37.3-3.06a1.362,1.362,0,0,0-.519-.606,1.406,1.406,0,0,0-.766-.215,1.453,1.453,0,0,0-1.039.415A1.852,1.852,0,0,0,34.541-2.083Zm1.107-2.476.39-.82h.691l-.645.82ZM38.789,0V-4.295h.583L41.628-.923V-4.295h.545V0H41.59L39.334-3.375V0Z" transform="translate(1288.054 1784.92)" fill="#42454a"/>
    <path id="Trazado_110" data-name="Trazado 110" d="M.27-1.38l.536-.047A1.184,1.184,0,0,0,.983-.9a.968.968,0,0,0,.432.334,1.636,1.636,0,0,0,.659.127,1.58,1.58,0,0,0,.574-.1A.8.8,0,0,0,3.019-.8a.615.615,0,0,0,.122-.368.559.559,0,0,0-.117-.353.868.868,0,0,0-.387-.253,7.559,7.559,0,0,0-.765-.209,3.907,3.907,0,0,1-.829-.268,1.163,1.163,0,0,1-.458-.4.98.98,0,0,1-.151-.535,1.092,1.092,0,0,1,.185-.608,1.143,1.143,0,0,1,.539-.429,2.045,2.045,0,0,1,.788-.146,2.153,2.153,0,0,1,.842.154,1.215,1.215,0,0,1,.561.453,1.3,1.3,0,0,1,.211.677l-.545.041a.879.879,0,0,0-.3-.615,1.157,1.157,0,0,0-.749-.208,1.2,1.2,0,0,0-.751.189.567.567,0,0,0-.236.456.488.488,0,0,0,.167.381,2.263,2.263,0,0,0,.857.306,5.668,5.668,0,0,1,.951.274,1.3,1.3,0,0,1,.554.438,1.067,1.067,0,0,1,.179.611,1.168,1.168,0,0,1-.2.646A1.292,1.292,0,0,1,2.928-.1,1.965,1.965,0,0,1,2.1.073,2.471,2.471,0,0,1,1.124-.1,1.368,1.368,0,0,1,.505-.608,1.449,1.449,0,0,1,.27-1.38Zm4.022-.712a2.334,2.334,0,0,1,.574-1.674,1.952,1.952,0,0,1,1.482-.6,2.057,2.057,0,0,1,1.072.284,1.856,1.856,0,0,1,.728.792A2.574,2.574,0,0,1,8.4-2.142,2.531,2.531,0,0,1,8.136-.973a1.8,1.8,0,0,1-.747.781A2.134,2.134,0,0,1,6.346.073,2.031,2.031,0,0,1,5.262-.22a1.885,1.885,0,0,1-.724-.8A2.424,2.424,0,0,1,4.292-2.092Zm.586.009A1.721,1.721,0,0,0,5.3-.86a1.373,1.373,0,0,0,1.047.447A1.371,1.371,0,0,0,7.4-.864a1.824,1.824,0,0,0,.415-1.28,2.2,2.2,0,0,0-.177-.916,1.362,1.362,0,0,0-.519-.606,1.406,1.406,0,0,0-.766-.215,1.453,1.453,0,0,0-1.039.415A1.852,1.852,0,0,0,4.878-2.083ZM9.108,0V-4.295H10.72a1.994,1.994,0,0,1,.79.13,1.015,1.015,0,0,1,.466.4,1.058,1.058,0,0,1,.168.567.974.974,0,0,1-.149.519,1.067,1.067,0,0,1-.451.393,1.122,1.122,0,0,1,.6.39,1.044,1.044,0,0,1,.209.65,1.255,1.255,0,0,1-.127.561,1.086,1.086,0,0,1-.315.4,1.314,1.314,0,0,1-.47.212A2.86,2.86,0,0,1,10.746,0Zm.568-2.49h.929a2.072,2.072,0,0,0,.542-.05.6.6,0,0,0,.327-.214.616.616,0,0,0,.11-.375.691.691,0,0,0-.1-.376.519.519,0,0,0-.293-.223,2.447,2.447,0,0,0-.653-.06H9.677Zm0,1.983h1.069a2.461,2.461,0,0,0,.387-.021.927.927,0,0,0,.328-.117.622.622,0,0,0,.217-.239.747.747,0,0,0,.085-.362.714.714,0,0,0-.123-.417.649.649,0,0,0-.341-.249,2.116,2.116,0,0,0-.628-.072H9.677ZM13.143,0V-4.295h1.9a2.534,2.534,0,0,1,.873.116.955.955,0,0,1,.478.409,1.219,1.219,0,0,1,.179.647,1.08,1.08,0,0,1-.3.771,1.5,1.5,0,0,1-.914.4,1.474,1.474,0,0,1,.343.214,2.953,2.953,0,0,1,.472.571L16.928,0h-.715l-.568-.894q-.249-.387-.41-.592a1.29,1.29,0,0,0-.289-.287.853.853,0,0,0-.259-.114,1.707,1.707,0,0,0-.316-.021h-.659V0Zm.568-2.4h1.222a1.832,1.832,0,0,0,.609-.081.648.648,0,0,0,.334-.258.7.7,0,0,0,.114-.385.64.64,0,0,0-.221-.5,1.035,1.035,0,0,0-.7-.2H13.711ZM17.479,0V-4.295h3.105v.507H18.047v1.315h2.376v.5H18.047V-.507h2.637V0Z" transform="translate(1281.517 1792.61)" fill="#42454a"/>
    <path id="Trazado_111" data-name="Trazado 111" d="M.492,0V-4.295h2.9v.507H1.061v1.33H3.076v.507H1.061V0ZM3.325,0,4.975-4.295h.612L7.345,0H6.7L6.2-1.3H4.4L3.929,0ZM4.564-1.764H6.021L5.572-2.953q-.205-.542-.3-.891a5.475,5.475,0,0,1-.231.82Z" transform="translate(1305.735 1792.61)" fill="#42454a"/>
    <path id="Trazado_112" data-name="Trazado 112" d="M3.527-1.506l.568.144A1.913,1.913,0,0,1,3.453-.294,1.772,1.772,0,0,1,2.317.073,2.04,2.04,0,0,1,1.188-.209a1.765,1.765,0,0,1-.662-.819A2.922,2.922,0,0,1,.3-2.18,2.531,2.531,0,0,1,.555-3.35a1.756,1.756,0,0,1,.729-.759,2.131,2.131,0,0,1,1.042-.259A1.761,1.761,0,0,1,3.41-4.04a1.7,1.7,0,0,1,.612.923l-.56.132a1.327,1.327,0,0,0-.434-.683,1.155,1.155,0,0,0-.715-.214,1.389,1.389,0,0,0-.828.237,1.253,1.253,0,0,0-.467.637,2.565,2.565,0,0,0-.135.825,2.621,2.621,0,0,0,.16.957,1.189,1.189,0,0,0,.5.611,1.393,1.393,0,0,0,.729.2,1.222,1.222,0,0,0,.809-.275A1.409,1.409,0,0,0,3.527-1.506ZM5.889,0V-3.788H4.474v-.507h3.4v.507H6.457V0Z" transform="translate(1313.566 1792.61)" fill="#42454a"/>
    <path id="Trazado_113" data-name="Trazado 113" d="M.29-2.092A2.334,2.334,0,0,1,.864-3.766a1.952,1.952,0,0,1,1.482-.6,2.057,2.057,0,0,1,1.072.284,1.856,1.856,0,0,1,.728.792A2.574,2.574,0,0,1,4.4-2.142,2.531,2.531,0,0,1,4.134-.973a1.8,1.8,0,0,1-.747.781A2.134,2.134,0,0,1,2.344.073,2.031,2.031,0,0,1,1.26-.22a1.885,1.885,0,0,1-.724-.8A2.424,2.424,0,0,1,.29-2.092Zm.586.009A1.721,1.721,0,0,0,1.293-.86a1.373,1.373,0,0,0,1.047.447A1.371,1.371,0,0,0,3.4-.864a1.824,1.824,0,0,0,.415-1.28,2.2,2.2,0,0,0-.177-.916,1.362,1.362,0,0,0-.519-.606,1.406,1.406,0,0,0-.766-.215,1.453,1.453,0,0,0-1.039.415A1.852,1.852,0,0,0,.876-2.083ZM5.139,0V-4.295h1.9a2.534,2.534,0,0,1,.873.116.955.955,0,0,1,.478.409,1.219,1.219,0,0,1,.179.647,1.08,1.08,0,0,1-.3.771,1.5,1.5,0,0,1-.914.4,1.474,1.474,0,0,1,.343.214,2.953,2.953,0,0,1,.472.571L8.924,0H8.209L7.641-.894q-.249-.387-.41-.592a1.29,1.29,0,0,0-.289-.287.853.853,0,0,0-.259-.114,1.707,1.707,0,0,0-.316-.021H5.707V0Zm.568-2.4H6.929a1.832,1.832,0,0,0,.609-.081.648.648,0,0,0,.334-.258.7.7,0,0,0,.114-.385.64.64,0,0,0-.221-.5,1.035,1.035,0,0,0-.7-.2H5.707ZM9.475,0V-4.295H12.58v.507H10.043v1.315h2.376v.5H10.043V-.507H12.68V0Zm3.8-1.38.536-.047a1.184,1.184,0,0,0,.177.529.968.968,0,0,0,.432.334,1.636,1.636,0,0,0,.659.127,1.58,1.58,0,0,0,.574-.1A.8.8,0,0,0,16.021-.8a.615.615,0,0,0,.122-.368.559.559,0,0,0-.117-.353.868.868,0,0,0-.387-.253,7.559,7.559,0,0,0-.765-.209,3.907,3.907,0,0,1-.829-.268,1.163,1.163,0,0,1-.458-.4.98.98,0,0,1-.151-.535,1.092,1.092,0,0,1,.185-.608,1.143,1.143,0,0,1,.539-.429,2.045,2.045,0,0,1,.788-.146,2.153,2.153,0,0,1,.842.154,1.215,1.215,0,0,1,.561.453,1.3,1.3,0,0,1,.211.677l-.545.041a.879.879,0,0,0-.3-.615,1.157,1.157,0,0,0-.749-.208,1.2,1.2,0,0,0-.751.189.567.567,0,0,0-.236.456.488.488,0,0,0,.167.381,2.263,2.263,0,0,0,.857.306,5.668,5.668,0,0,1,.951.274,1.3,1.3,0,0,1,.554.438,1.067,1.067,0,0,1,.179.611,1.168,1.168,0,0,1-.2.646A1.292,1.292,0,0,1,15.93-.1,1.965,1.965,0,0,1,15.1.073a2.471,2.471,0,0,1-.977-.17,1.368,1.368,0,0,1-.618-.511A1.449,1.449,0,0,1,13.271-1.38Z" transform="translate(1321.993 1792.61)" fill="#42454a"/>
    <path id="Trazado_114" data-name="Trazado 114" d="M-.009,0,1.641-4.295h.612L4.011,0H3.363l-.5-1.3h-1.8L.595,0ZM1.23-1.764H2.687L2.238-2.953q-.205-.542-.3-.891a5.475,5.475,0,0,1-.231.82ZM4.447,0V-4.295H5.3L6.319-1.254q.141.425.205.636.073-.234.229-.688L7.781-4.295h.765V0H8V-3.595L6.75,0H6.237L5-3.656V0ZM9.439,0V-4.295h1.611a1.994,1.994,0,0,1,.79.13,1.015,1.015,0,0,1,.466.4,1.058,1.058,0,0,1,.168.567.974.974,0,0,1-.149.519,1.067,1.067,0,0,1-.451.393,1.122,1.122,0,0,1,.6.39,1.044,1.044,0,0,1,.209.65,1.255,1.255,0,0,1-.127.561,1.086,1.086,0,0,1-.315.4,1.314,1.314,0,0,1-.47.212A2.86,2.86,0,0,1,11.077,0Zm.568-2.49h.929a2.072,2.072,0,0,0,.542-.05.6.6,0,0,0,.327-.214.616.616,0,0,0,.11-.375.691.691,0,0,0-.1-.376.519.519,0,0,0-.293-.223,2.447,2.447,0,0,0-.653-.06h-.858Zm0,1.983h1.069a2.461,2.461,0,0,0,.387-.021.927.927,0,0,0,.328-.117.622.622,0,0,0,.217-.239.747.747,0,0,0,.085-.362.714.714,0,0,0-.123-.417.649.649,0,0,0-.341-.249A2.116,2.116,0,0,0,11-1.983h-.993ZM13.562,0V-4.295h.568V0Zm1.582,0V-4.295h3.105v.507H15.712v1.315h2.376v.5H15.712V-.507h2.637V0Zm3.984,0V-4.295h.583L21.967-.923V-4.295h.545V0h-.583L19.673-3.375V0Z" transform="translate(1285.728 1800.301)" fill="#42454a"/>
    <path id="Trazado_115" data-name="Trazado 115" d="M1.556,0V-3.788H.141v-.507h3.4v.507H2.124V0ZM3.211,0,4.86-4.295h.612L7.23,0H6.583l-.5-1.3h-1.8L3.814,0ZM4.45-1.764H5.906L5.458-2.953q-.205-.542-.3-.891a5.475,5.475,0,0,1-.231.82Z" transform="translate(1310.298 1800.301)" fill="#42454a"/>
    <path id="Trazado_116" data-name="Trazado 116" d="M.439,0V-4.295h.568V-.507H3.123V0ZM3.812,0V-4.295H6.917v.507H4.38v1.315H6.756v.5H4.38V-.507H7.017V0Zm3.8-1.38.536-.047A1.184,1.184,0,0,0,8.322-.9a.968.968,0,0,0,.432.334,1.636,1.636,0,0,0,.659.127,1.58,1.58,0,0,0,.574-.1A.8.8,0,0,0,10.358-.8a.615.615,0,0,0,.122-.368.559.559,0,0,0-.117-.353.868.868,0,0,0-.387-.253,7.559,7.559,0,0,0-.765-.209,3.907,3.907,0,0,1-.829-.268,1.163,1.163,0,0,1-.458-.4.98.98,0,0,1-.151-.535,1.092,1.092,0,0,1,.185-.608A1.143,1.143,0,0,1,8.5-4.222a2.045,2.045,0,0,1,.788-.146,2.153,2.153,0,0,1,.842.154,1.215,1.215,0,0,1,.561.453,1.3,1.3,0,0,1,.211.677l-.545.041a.879.879,0,0,0-.3-.615,1.157,1.157,0,0,0-.749-.208,1.2,1.2,0,0,0-.751.189.567.567,0,0,0-.236.456.488.488,0,0,0,.167.381,2.263,2.263,0,0,0,.857.306,5.668,5.668,0,0,1,.951.274,1.3,1.3,0,0,1,.554.438,1.067,1.067,0,0,1,.179.611,1.168,1.168,0,0,1-.2.646,1.292,1.292,0,0,1-.564.472,1.965,1.965,0,0,1-.828.168A2.471,2.471,0,0,1,8.462-.1a1.368,1.368,0,0,1-.618-.511A1.449,1.449,0,0,1,7.608-1.38Z" transform="translate(1318.007 1800.301)" fill="#42454a"/>
    <path id="Trazado_117" data-name="Trazado 117" d="M1.673,0V-1.819L.018-4.295H.709L1.556-3q.234.363.437.727.193-.337.469-.759l.832-1.263h.662L2.241-1.819V0Z" transform="translate(1331.785 1800.301)" fill="#42454a"/>
    <path id="Trazado_118" data-name="Trazado 118" d="M.463,0V-4.295h1.62a3.912,3.912,0,0,1,.653.041,1.294,1.294,0,0,1,.53.2,1.053,1.053,0,0,1,.344.415,1.316,1.316,0,0,1,.13.586,1.32,1.32,0,0,1-.349.927,1.672,1.672,0,0,1-1.26.379h-1.1V0Zm.568-2.253h1.11a1.178,1.178,0,0,0,.782-.205.731.731,0,0,0,.231-.577A.776.776,0,0,0,3.019-3.5.637.637,0,0,0,2.66-3.75a2.428,2.428,0,0,0-.53-.038h-1.1ZM4.477,0V-4.295H7.582v.507H5.045v1.315H7.421v.5H5.045V-.507H7.682V0Zm4,0V-4.295h1.9a2.534,2.534,0,0,1,.873.116.955.955,0,0,1,.478.409,1.219,1.219,0,0,1,.179.647,1.08,1.08,0,0,1-.3.771,1.5,1.5,0,0,1-.914.4,1.474,1.474,0,0,1,.343.214,2.953,2.953,0,0,1,.472.571L12.261,0h-.715l-.568-.894q-.249-.387-.41-.592a1.29,1.29,0,0,0-.289-.287.853.853,0,0,0-.259-.114A1.707,1.707,0,0,0,9.7-1.907H9.044V0Zm.568-2.4h1.222a1.832,1.832,0,0,0,.609-.081.648.648,0,0,0,.334-.258.7.7,0,0,0,.114-.385.64.64,0,0,0-.221-.5,1.035,1.035,0,0,0-.7-.2H9.044Zm3.563,1.02.536-.047A1.184,1.184,0,0,0,13.32-.9a.968.968,0,0,0,.432.334,1.636,1.636,0,0,0,.659.127,1.58,1.58,0,0,0,.574-.1A.8.8,0,0,0,15.356-.8a.615.615,0,0,0,.122-.368.559.559,0,0,0-.117-.353.868.868,0,0,0-.387-.253,7.559,7.559,0,0,0-.765-.209,3.907,3.907,0,0,1-.829-.268,1.163,1.163,0,0,1-.458-.4.98.98,0,0,1-.151-.535,1.092,1.092,0,0,1,.185-.608,1.143,1.143,0,0,1,.539-.429,2.045,2.045,0,0,1,.788-.146,2.153,2.153,0,0,1,.842.154,1.215,1.215,0,0,1,.561.453,1.3,1.3,0,0,1,.211.677l-.545.041a.879.879,0,0,0-.3-.615,1.157,1.157,0,0,0-.749-.208,1.2,1.2,0,0,0-.751.189.567.567,0,0,0-.236.456.488.488,0,0,0,.167.381,2.263,2.263,0,0,0,.857.306,5.668,5.668,0,0,1,.951.274,1.3,1.3,0,0,1,.554.438,1.067,1.067,0,0,1,.179.611,1.168,1.168,0,0,1-.2.646,1.292,1.292,0,0,1-.564.472,1.965,1.965,0,0,1-.828.168A2.471,2.471,0,0,1,13.46-.1a1.368,1.368,0,0,1-.618-.511A1.449,1.449,0,0,1,12.606-1.38Zm4.022-.712A2.334,2.334,0,0,1,17.2-3.766a1.952,1.952,0,0,1,1.482-.6,2.057,2.057,0,0,1,1.072.284,1.856,1.856,0,0,1,.728.792,2.574,2.574,0,0,1,.25,1.153,2.531,2.531,0,0,1-.264,1.169,1.8,1.8,0,0,1-.747.781,2.134,2.134,0,0,1-1.043.265A2.031,2.031,0,0,1,17.6-.22a1.885,1.885,0,0,1-.724-.8A2.424,2.424,0,0,1,16.629-2.092Zm.586.009A1.721,1.721,0,0,0,17.632-.86a1.373,1.373,0,0,0,1.047.447,1.371,1.371,0,0,0,1.056-.451,1.824,1.824,0,0,0,.415-1.28,2.2,2.2,0,0,0-.177-.916,1.362,1.362,0,0,0-.519-.606,1.406,1.406,0,0,0-.766-.215,1.453,1.453,0,0,0-1.039.415A1.852,1.852,0,0,0,17.215-2.083ZM21.463,0V-4.295h.583L24.3-.923V-4.295h.545V0h-.583L22.008-3.375V0ZM25.33,0l1.649-4.295h.612L29.35,0H28.7l-.5-1.3h-1.8L25.934,0Zm1.239-1.764h1.456l-.448-1.189q-.205-.542-.3-.891a5.475,5.475,0,0,1-.231.82ZM29.78,0V-4.295h.568V-.507h2.115V0Zm3.372,0V-4.295h3.105v.507H33.721v1.315H36.1v.5H33.721V-.507h2.637V0Zm3.8-1.38.536-.047a1.184,1.184,0,0,0,.177.529.968.968,0,0,0,.432.334,1.636,1.636,0,0,0,.659.127,1.58,1.58,0,0,0,.574-.1A.8.8,0,0,0,39.7-.8a.615.615,0,0,0,.122-.368.559.559,0,0,0-.117-.353.868.868,0,0,0-.387-.253,7.559,7.559,0,0,0-.765-.209,3.907,3.907,0,0,1-.829-.268,1.163,1.163,0,0,1-.458-.4.98.98,0,0,1-.151-.535,1.092,1.092,0,0,1,.185-.608,1.143,1.143,0,0,1,.539-.429,2.045,2.045,0,0,1,.788-.146,2.153,2.153,0,0,1,.842.154,1.215,1.215,0,0,1,.561.453,1.3,1.3,0,0,1,.211.677l-.545.041a.879.879,0,0,0-.3-.615,1.157,1.157,0,0,0-.749-.208,1.2,1.2,0,0,0-.751.189.567.567,0,0,0-.236.456.488.488,0,0,0,.167.381,2.263,2.263,0,0,0,.857.306,5.668,5.668,0,0,1,.951.274,1.3,1.3,0,0,1,.554.438,1.067,1.067,0,0,1,.179.611,1.168,1.168,0,0,1-.2.646,1.292,1.292,0,0,1-.564.472,1.965,1.965,0,0,1-.828.168A2.471,2.471,0,0,1,37.8-.1a1.368,1.368,0,0,1-.618-.511A1.449,1.449,0,0,1,36.949-1.38Z" transform="translate(1289.111 1807.991)" fill="#42454a"/>
    <path id="Trazado_89" data-name="Trazado 89" d="M0,0A5.269,5.269,0,0,1-5.271-5.235V-40.862A5.269,5.269,0,0,1,0-46.1H59.7a5.269,5.269,0,0,1,5.27,5.235V-5.235A5.269,5.269,0,0,1,59.7,0Z" transform="translate(1281.789 1813.96)" fill="none" stroke="#ff9333" stroke-width="2"/>
    <path id="Trazado_90" data-name="Trazado 90" d="M0,0H216.756V-72.48H0Z" transform="translate(1131 1814.96)" fill="none"/>
  </g>
</svg>
