<svg xmlns="http://www.w3.org/2000/svg" width="221.122" height="41.086" viewBox="0 0 221.122 41.086">
  <g id="Grupo_41" data-name="Grupo 41" transform="translate(-1132 -2478.086)">
    <path id="Trazado_202" data-name="Trazado 202" d="M0,0V-8.681H1.705l3.553,5.8v-5.8H6.887V0H5.128l-3.5-5.661V0Z" transform="translate(1158.614 2490.702)" fill="#20143b"/>
    <path id="Trazado_203" data-name="Trazado 203" d="M0,0H-1.664V-6.271A5.728,5.728,0,0,1-3.813-5.01V-6.52A4.817,4.817,0,0,0-2.4-7.328,3.076,3.076,0,0,0-1.35-8.717H0Z" transform="translate(1171.244 2490.702)" fill="#20143b"/>
    <path id="Trazado_204" data-name="Trazado 204" d="M0,0H221.122V-41.086H0Z" transform="translate(1132 2519.172)" fill="none"/>
    <path id="Trazado_205" data-name="Trazado 205" d="M0,0V-8.681H1.705l3.553,5.8v-5.8H6.887V0H5.128l-3.5-5.661V0Z" transform="translate(1225.114 2490.702)" fill="#20143b"/>
    <path id="Trazado_206" data-name="Trazado 206" d="M0,0V1.545H-5.833A4.031,4.031,0,0,1-5.265-.116,11.08,11.08,0,0,1-3.393-2.2,11.762,11.762,0,0,0-2.014-3.618,1.825,1.825,0,0,0-1.67-4.637a1.161,1.161,0,0,0-.3-.856,1.116,1.116,0,0,0-.826-.3,1.108,1.108,0,0,0-.829.314,1.616,1.616,0,0,0-.355,1.042L-5.638-4.6a2.721,2.721,0,0,1,.93-1.972,3.121,3.121,0,0,1,1.954-.6,2.828,2.828,0,0,1,2.02.692A2.276,2.276,0,0,1,0-4.755,3,3,0,0,1-.21-3.639a4.571,4.571,0,0,1-.666,1.11,10.633,10.633,0,0,1-1.09,1.108q-.787.723-1,.959A2.9,2.9,0,0,0-3.305,0Z" transform="translate(1239.106 2489.157)" fill="#20143b"/>
    <path id="Trazado_207" data-name="Trazado 207" d="M0,0H221.122V-41.086H0Z" transform="translate(1132 2519.172)" fill="none"/>
    <path id="Trazado_208" data-name="Trazado 208" d="M0,0V-8.681H1.705l3.553,5.8v-5.8H6.887V0H5.128l-3.5-5.661V0Z" transform="translate(1275.704 2490.702)" fill="#20143b"/>
    <path id="Trazado_209" data-name="Trazado 209" d="M0,0,1.61-.195a1.529,1.529,0,0,0,.415.941,1.134,1.134,0,0,0,.818.326A1.121,1.121,0,0,0,3.71.681,1.52,1.52,0,0,0,4.062-.373a1.417,1.417,0,0,0-.337-1A1.078,1.078,0,0,0,2.9-1.735a2.9,2.9,0,0,0-.763.125l.183-1.357A1.458,1.458,0,0,0,3.352-3.26a1.041,1.041,0,0,0,.355-.826.945.945,0,0,0-.261-.7.938.938,0,0,0-.692-.26,1.007,1.007,0,0,0-.729.3,1.391,1.391,0,0,0-.367.865L.124-4.145A3.437,3.437,0,0,1,.606-5.4a2.189,2.189,0,0,1,.9-.741A3.032,3.032,0,0,1,2.8-6.413a2.583,2.583,0,0,1,1.966.782,2.038,2.038,0,0,1,.61,1.444,2.043,2.043,0,0,1-1.25,1.824,2.022,2.022,0,0,1,1.193.717A2.079,2.079,0,0,1,5.768-.3a2.609,2.609,0,0,1-.835,1.948,2.876,2.876,0,0,1-2.079.806A2.865,2.865,0,0,1,.9,1.774,2.667,2.667,0,0,1,0,0" transform="translate(1284.018 2488.398)" fill="#20143b"/>
    <path id="Trazado_210" data-name="Trazado 210" d="M0,0,1.7.539A3.816,3.816,0,0,1,.4,2.65a3.707,3.707,0,0,1-2.306.69A3.735,3.735,0,0,1-4.749,2.159,4.524,4.524,0,0,1-5.862-1.072,4.744,4.744,0,0,1-4.743-4.438,3.835,3.835,0,0,1-1.8-5.637,3.614,3.614,0,0,1,.788-4.7a3.418,3.418,0,0,1,.888,1.6l-1.735.414A1.845,1.845,0,0,0-.7-3.749a1.846,1.846,0,0,0-1.188-.39,1.974,1.974,0,0,0-1.566.693,3.4,3.4,0,0,0-.6,2.244,3.647,3.647,0,0,0,.592,2.345,1.923,1.923,0,0,0,1.54.7A1.752,1.752,0,0,0-.722,1.4,2.579,2.579,0,0,0,0,0" transform="translate(1343.363 2487.51)" fill="#20143b"/>
    <path id="Trazado_211" data-name="Trazado 211" d="M220.747-20.924H.375V-40.711H220.747ZM67.215-40.711V-.56M33.466-21.441v20.8m66.5-20.8v20.8m33.5-40.369V-.375m35.75-40.633V-.375m26.5-40.633V-.375m25.031,0H.375V-21.441H220.747Z" transform="translate(1132 2519.172)" fill="none" stroke="#20143b" stroke-width="0.75"/>
    <path id="Trazado_212" data-name="Trazado 212" d="M0,0H-.777V-6.821H.061v2.433a1.656,1.656,0,0,1,1.353-.665,2.061,2.061,0,0,1,.863.184,1.767,1.767,0,0,1,.67.516,2.484,2.484,0,0,1,.412.8,3.284,3.284,0,0,1,.149,1A2.819,2.819,0,0,1,2.88-.582,1.962,1.962,0,0,1,1.373.112,1.574,1.574,0,0,1,0-.619ZM-.009-2.508A2.566,2.566,0,0,0,.232-1.224,1.207,1.207,0,0,0,1.3-.577a1.2,1.2,0,0,0,.949-.477,2.164,2.164,0,0,0,.4-1.421A2.21,2.21,0,0,0,2.269-3.9a1.17,1.17,0,0,0-.929-.46,1.2,1.2,0,0,0-.949.477,2.092,2.092,0,0,0-.4,1.379" transform="translate(1150.96 2510.733)" fill="#20143b"/>
    <path id="Trazado_213" data-name="Trazado 213" d="M0,0V.805H-4.509a1.492,1.492,0,0,1,.1-.582,3.083,3.083,0,0,1,.552-.907,8.681,8.681,0,0,1,1.1-1.033,9.246,9.246,0,0,0,1.5-1.445A1.724,1.724,0,0,0-.87-4.169a1.117,1.117,0,0,0-.356-.84,1.282,1.282,0,0,0-.928-.342,1.307,1.307,0,0,0-.968.363,1.372,1.372,0,0,0-.367,1l-.862-.088a2.126,2.126,0,0,1,.666-1.468,2.268,2.268,0,0,1,1.549-.505A2.164,2.164,0,0,1-.581-5.5,1.79,1.79,0,0,1-.009-4.15a2.034,2.034,0,0,1-.168.8,3.112,3.112,0,0,1-.555.833,13.733,13.733,0,0,1-1.291,1.2q-.755.632-.968.858A2.771,2.771,0,0,0-3.346,0Z" transform="translate(1185.363 2509.928)" fill="#20143b"/>
    <path id="Trazado_214" data-name="Trazado 214" d="M0,0H-.837V-5.337a4.358,4.358,0,0,1-.794.577,5.527,5.527,0,0,1-.882.433v-.81a5.06,5.06,0,0,0,1.229-.8,3.172,3.172,0,0,0,.745-.912H0Z" transform="translate(1216.992 2510.733)" fill="#20143b"/>
    <path id="Trazado_215" data-name="Trazado 215" d="M0,0A6.234,6.234,0,0,1,.249-1.947,2.424,2.424,0,0,1,.988-3.085a1.892,1.892,0,0,1,1.236-.4,2.026,2.026,0,0,1,.964.221,1.843,1.843,0,0,1,.683.638A3.421,3.421,0,0,1,4.3-1.612,6.811,6.811,0,0,1,4.448,0,6.232,6.232,0,0,1,4.2,1.937a2.421,2.421,0,0,1-.737,1.141,1.891,1.891,0,0,1-1.24.4A1.868,1.868,0,0,1,.675,2.773,4.494,4.494,0,0,1,0,0M.86,0a4.271,4.271,0,0,0,.394,2.235,1.158,1.158,0,0,0,.97.557,1.159,1.159,0,0,0,.97-.559A4.277,4.277,0,0,0,3.587,0a4.277,4.277,0,0,0-.393-2.238,1.165,1.165,0,0,0-.979-.554,1.074,1.074,0,0,0-.922.489A4.327,4.327,0,0,0,.86,0" transform="translate(1246.838 2507.369)" fill="#20143b"/>
    <path id="Trazado_216" data-name="Trazado 216" d="M0,0A6.234,6.234,0,0,1,.249-1.947,2.424,2.424,0,0,1,.988-3.085a1.892,1.892,0,0,1,1.236-.4,2.026,2.026,0,0,1,.964.221,1.843,1.843,0,0,1,.683.638A3.421,3.421,0,0,1,4.3-1.612,6.811,6.811,0,0,1,4.448,0,6.232,6.232,0,0,1,4.2,1.937a2.421,2.421,0,0,1-.737,1.141,1.891,1.891,0,0,1-1.24.4A1.868,1.868,0,0,1,.675,2.773,4.494,4.494,0,0,1,0,0M.86,0a4.271,4.271,0,0,0,.394,2.235,1.158,1.158,0,0,0,.97.557,1.159,1.159,0,0,0,.97-.559A4.277,4.277,0,0,0,3.587,0a4.277,4.277,0,0,0-.393-2.238,1.165,1.165,0,0,0-.979-.554,1.074,1.074,0,0,0-.922.489A4.327,4.327,0,0,0,.86,0" transform="translate(1280.527 2507.369)" fill="#20143b"/>
    <path id="Trazado_217" data-name="Trazado 217" d="M0,0,.837-.111A1.849,1.849,0,0,0,1.328.914a1.212,1.212,0,0,0,.845.314,1.355,1.355,0,0,0,1-.409A1.383,1.383,0,0,0,3.578-.195,1.287,1.287,0,0,0,3.2-1.147a1.3,1.3,0,0,0-.959-.375,2.418,2.418,0,0,0-.591.094l.093-.736a1.152,1.152,0,0,0,.136.01,1.726,1.726,0,0,0,.963-.279.956.956,0,0,0,.428-.861,1.017,1.017,0,0,0-.312-.763,1.108,1.108,0,0,0-.805-.3,1.138,1.138,0,0,0-.814.307,1.538,1.538,0,0,0-.419.921L.083-3.28a2.163,2.163,0,0,1,.7-1.305,2.02,2.02,0,0,1,1.355-.463,2.238,2.238,0,0,1,1.028.239,1.738,1.738,0,0,1,.719.654,1.679,1.679,0,0,1,.249.88,1.443,1.443,0,0,1-.237.805,1.625,1.625,0,0,1-.7.576,1.59,1.59,0,0,1,.941.579,1.776,1.776,0,0,1,.335,1.1A2.015,2.015,0,0,1,3.815,1.3a2.29,2.29,0,0,1-1.647.621A2.139,2.139,0,0,1,.677,1.387,2.068,2.068,0,0,1,0,0" transform="translate(1339.056 2508.932)" fill="#20143b"/>
    <path id="Trazado_218" data-name="Trazado 218" d="M0,0H221.122V-41.086H0Z" transform="translate(1132 2519.172)" fill="none"/>
    <path id="Trazado_219" data-name="Trazado 219" d="M181.348-32.449h3.268v1.664h-3.268Z" transform="translate(1132 2519.172)" fill="#20143b"/>
    <path id="Trazado_220" data-name="Trazado 220" d="M181.348-10.085h3.268v1.664h-3.268Z" transform="translate(1132 2519.172)" fill="#20143b"/>
  </g>
</svg>
