<svg xmlns="http://www.w3.org/2000/svg" width="335.496" height="110.693" viewBox="0 0 335.496 110.693">
  <g id="Grupo_30" data-name="Grupo 30" transform="translate(-1258 -2407.693)">
    <path id="Trazado_134" data-name="Trazado 134" d="M7.055-3.012l1.137.287A3.826,3.826,0,0,1,6.905-.589,3.544,3.544,0,0,1,4.635.146,4.08,4.08,0,0,1,2.376-.419,3.531,3.531,0,0,1,1.052-2.057,5.843,5.843,0,0,1,.6-4.359,5.062,5.062,0,0,1,1.11-6.7,3.513,3.513,0,0,1,2.569-8.218a4.263,4.263,0,0,1,2.083-.519A3.521,3.521,0,0,1,6.82-8.08,3.408,3.408,0,0,1,8.045-6.234l-1.119.264a2.655,2.655,0,0,0-.867-1.365,2.311,2.311,0,0,0-1.43-.428,2.777,2.777,0,0,0-1.655.475,2.506,2.506,0,0,0-.935,1.274,5.131,5.131,0,0,0-.27,1.649,5.242,5.242,0,0,0,.319,1.913A2.379,2.379,0,0,0,3.082-1.23a2.785,2.785,0,0,0,1.459.4,2.445,2.445,0,0,0,1.617-.551A2.819,2.819,0,0,0,7.055-3.012Zm2.01-.1a3.207,3.207,0,0,1,.961-2.561,2.9,2.9,0,0,1,1.957-.691,2.792,2.792,0,0,1,2.1.841A3.2,3.2,0,0,1,14.895-3.2a4.117,4.117,0,0,1-.36,1.89A2.551,2.551,0,0,1,13.485-.24a3.054,3.054,0,0,1-1.5.381A2.8,2.8,0,0,1,9.87-.7,3.347,3.347,0,0,1,9.064-3.111Zm1.084,0a2.65,2.65,0,0,0,.521,1.79,1.672,1.672,0,0,0,1.313.595,1.662,1.662,0,0,0,1.307-.6,2.713,2.713,0,0,0,.521-1.822A2.571,2.571,0,0,0,13.286-4.9a1.668,1.668,0,0,0-1.3-.595A1.675,1.675,0,0,0,10.67-4.9,2.639,2.639,0,0,0,10.148-3.111ZM16.131,0V-6.223h.943v.873a2.218,2.218,0,0,1,.779-.735,2.189,2.189,0,0,1,1.107-.278,2.047,2.047,0,0,1,1.134.287,1.537,1.537,0,0,1,.624.8,2.234,2.234,0,0,1,1.922-1.09,1.894,1.894,0,0,1,1.424.513,2.191,2.191,0,0,1,.5,1.579V0H23.514V-3.92a2.886,2.886,0,0,0-.1-.911.883.883,0,0,0-.372-.448,1.161,1.161,0,0,0-.633-.17,1.473,1.473,0,0,0-1.09.437,1.923,1.923,0,0,0-.434,1.4V0H19.828V-4.043A1.779,1.779,0,0,0,19.57-5.1a.976.976,0,0,0-.844-.352,1.533,1.533,0,0,0-.823.234,1.329,1.329,0,0,0-.548.686,3.859,3.859,0,0,0-.17,1.3V0Zm10,2.385V-6.223h.961v.809a2.369,2.369,0,0,1,.768-.712,2.109,2.109,0,0,1,1.037-.237,2.459,2.459,0,0,1,1.406.41,2.517,2.517,0,0,1,.92,1.157,4.225,4.225,0,0,1,.311,1.638,4.16,4.16,0,0,1-.343,1.72,2.584,2.584,0,0,1-1,1.172,2.558,2.558,0,0,1-1.374.407,1.985,1.985,0,0,1-.946-.223,2.155,2.155,0,0,1-.688-.562V2.385Zm.955-5.461A2.707,2.707,0,0,0,27.568-1.3a1.491,1.491,0,0,0,1.178.574,1.525,1.525,0,0,0,1.2-.595,2.822,2.822,0,0,0,.5-1.843,2.749,2.749,0,0,0-.489-1.781,1.473,1.473,0,0,0-1.169-.592,1.519,1.519,0,0,0-1.192.63A2.818,2.818,0,0,0,27.082-3.076Zm5.326-.035a3.207,3.207,0,0,1,.961-2.561,2.9,2.9,0,0,1,1.957-.691,2.792,2.792,0,0,1,2.1.841A3.2,3.2,0,0,1,38.238-3.2a4.117,4.117,0,0,1-.36,1.89A2.551,2.551,0,0,1,36.829-.24a3.054,3.054,0,0,1-1.5.381A2.8,2.8,0,0,1,33.214-.7,3.347,3.347,0,0,1,32.408-3.111Zm1.084,0a2.65,2.65,0,0,0,.521,1.79,1.672,1.672,0,0,0,1.313.595,1.662,1.662,0,0,0,1.307-.6,2.713,2.713,0,0,0,.521-1.822A2.571,2.571,0,0,0,36.63-4.9a1.668,1.668,0,0,0-1.3-.595,1.675,1.675,0,0,0-1.312.592A2.639,2.639,0,0,0,33.492-3.111ZM39.475,0V-6.223h.949v.885A2.237,2.237,0,0,1,42.4-6.363a2.6,2.6,0,0,1,1.034.2,1.627,1.627,0,0,1,.706.53,2.035,2.035,0,0,1,.328.779,6.039,6.039,0,0,1,.059,1.025V0H43.477V-3.785a2.841,2.841,0,0,0-.123-.964,1.014,1.014,0,0,0-.437-.51,1.389,1.389,0,0,0-.735-.19,1.709,1.709,0,0,0-1.163.428A2.11,2.11,0,0,0,40.529-3.4V0ZM50.408-2l1.09.135a2.659,2.659,0,0,1-.955,1.482,2.871,2.871,0,0,1-1.781.527A2.846,2.846,0,0,1,46.6-.7a3.285,3.285,0,0,1-.8-2.358A3.438,3.438,0,0,1,46.605-5.5a2.737,2.737,0,0,1,2.1-.867,2.66,2.66,0,0,1,2.039.85,3.376,3.376,0,0,1,.791,2.391q0,.094-.006.281H46.887a2.391,2.391,0,0,0,.58,1.57,1.727,1.727,0,0,0,1.3.545,1.614,1.614,0,0,0,.99-.3A2.023,2.023,0,0,0,50.408-2ZM46.945-3.709H50.42a2.108,2.108,0,0,0-.4-1.178A1.616,1.616,0,0,0,48.715-5.5a1.675,1.675,0,0,0-1.222.486A1.925,1.925,0,0,0,46.945-3.709ZM52.822,0V-6.223h.949v.885a2.237,2.237,0,0,1,1.98-1.025,2.6,2.6,0,0,1,1.034.2,1.627,1.627,0,0,1,.706.53,2.035,2.035,0,0,1,.328.779,6.039,6.039,0,0,1,.059,1.025V0H56.824V-3.785a2.841,2.841,0,0,0-.123-.964,1.014,1.014,0,0,0-.437-.51,1.389,1.389,0,0,0-.735-.19,1.709,1.709,0,0,0-1.163.428A2.11,2.11,0,0,0,53.877-3.4V0ZM61.8-.943l.152.932a3.912,3.912,0,0,1-.8.094A1.8,1.8,0,0,1,60.264-.1a1.017,1.017,0,0,1-.445-.478,3.776,3.776,0,0,1-.129-1.245V-5.4h-.773v-.82h.773V-7.764L60.738-8.4v2.174H61.8v.82H60.738v3.639a1.838,1.838,0,0,0,.056.58.439.439,0,0,0,.182.205.7.7,0,0,0,.36.076A3.431,3.431,0,0,0,61.8-.943ZM67.09-2l1.09.135a2.659,2.659,0,0,1-.955,1.482,2.871,2.871,0,0,1-1.781.527A2.846,2.846,0,0,1,63.278-.7a3.285,3.285,0,0,1-.8-2.358A3.438,3.438,0,0,1,63.287-5.5a2.737,2.737,0,0,1,2.1-.867,2.66,2.66,0,0,1,2.039.85,3.376,3.376,0,0,1,.791,2.391q0,.094-.006.281H63.568a2.391,2.391,0,0,0,.58,1.57,1.727,1.727,0,0,0,1.3.545,1.614,1.614,0,0,0,.99-.3A2.023,2.023,0,0,0,67.09-2ZM63.627-3.709H67.1a2.108,2.108,0,0,0-.4-1.178A1.616,1.616,0,0,0,65.4-5.5a1.675,1.675,0,0,0-1.222.486A1.925,1.925,0,0,0,63.627-3.709ZM76.875,0V-.785a1.935,1.935,0,0,1-1.74.926,2.44,2.44,0,0,1-1.368-.41A2.7,2.7,0,0,1,72.8-1.415a3.959,3.959,0,0,1-.343-1.69,4.424,4.424,0,0,1,.311-1.69A2.449,2.449,0,0,1,73.7-5.959a2.491,2.491,0,0,1,1.389-.4,2.075,2.075,0,0,1,1,.237,2.1,2.1,0,0,1,.715.618V-8.59h1.049V0ZM73.541-3.105a2.7,2.7,0,0,0,.5,1.787,1.519,1.519,0,0,0,1.189.592,1.492,1.492,0,0,0,1.175-.565,2.607,2.607,0,0,0,.483-1.726A2.926,2.926,0,0,0,76.4-4.893a1.514,1.514,0,0,0-1.213-.6,1.461,1.461,0,0,0-1.175.574A2.834,2.834,0,0,0,73.541-3.105ZM83.771-2l1.09.135a2.659,2.659,0,0,1-.955,1.482,2.871,2.871,0,0,1-1.781.527A2.846,2.846,0,0,1,79.96-.7a3.285,3.285,0,0,1-.8-2.358A3.438,3.438,0,0,1,79.969-5.5a2.737,2.737,0,0,1,2.1-.867,2.66,2.66,0,0,1,2.039.85A3.376,3.376,0,0,1,84.9-3.123q0,.094-.006.281H80.25a2.391,2.391,0,0,0,.58,1.57,1.727,1.727,0,0,0,1.3.545,1.614,1.614,0,0,0,.99-.3A2.023,2.023,0,0,0,83.771-2ZM80.309-3.709h3.475a2.108,2.108,0,0,0-.4-1.178A1.616,1.616,0,0,0,82.078-5.5a1.675,1.675,0,0,0-1.222.486A1.925,1.925,0,0,0,80.309-3.709ZM89.771,0V-5.4H88.84v-.82h.932v-.662a2.9,2.9,0,0,1,.111-.932,1.349,1.349,0,0,1,.536-.665,1.932,1.932,0,0,1,1.075-.255,5.163,5.163,0,0,1,.984.105l-.158.92A3.539,3.539,0,0,0,91.7-7.77a.924.924,0,0,0-.68.205,1.112,1.112,0,0,0-.2.768v.574h1.213v.82H90.82V0Zm7.16,0V-.914A2.278,2.278,0,0,1,94.957.141,2.516,2.516,0,0,1,93.929-.07,1.694,1.694,0,0,1,93.22-.6a1.987,1.987,0,0,1-.325-.782,5.356,5.356,0,0,1-.064-.984V-6.223h1.055v3.451a6.15,6.15,0,0,0,.064,1.113A1.1,1.1,0,0,0,94.371-1a1.307,1.307,0,0,0,.8.237,1.736,1.736,0,0,0,.891-.243,1.352,1.352,0,0,0,.589-.662,3.322,3.322,0,0,0,.173-1.216V-6.223h1.055V0Zm2.6,0V-6.223h.949v.885a2.237,2.237,0,0,1,1.98-1.025,2.6,2.6,0,0,1,1.034.2,1.627,1.627,0,0,1,.706.53,2.035,2.035,0,0,1,.328.779,6.039,6.039,0,0,1,.059,1.025V0h-1.055V-3.785a2.841,2.841,0,0,0-.123-.964,1.014,1.014,0,0,0-.437-.51,1.389,1.389,0,0,0-.735-.19,1.709,1.709,0,0,0-1.163.428,2.11,2.11,0,0,0-.489,1.623V0Zm10.734-2.279,1.037.135a2.69,2.69,0,0,1-.87,1.679,2.535,2.535,0,0,1-1.72.606,2.672,2.672,0,0,1-2.054-.835,3.388,3.388,0,0,1-.776-2.394,4.331,4.331,0,0,1,.334-1.764,2.329,2.329,0,0,1,1.017-1.134,3.016,3.016,0,0,1,1.485-.378,2.582,2.582,0,0,1,1.658.513,2.351,2.351,0,0,1,.826,1.456l-1.025.158a1.7,1.7,0,0,0-.519-.943,1.342,1.342,0,0,0-.9-.316,1.637,1.637,0,0,0-1.295.571,2.712,2.712,0,0,0-.5,1.808,2.8,2.8,0,0,0,.48,1.822,1.564,1.564,0,0,0,1.254.568,1.478,1.478,0,0,0,1.037-.381A1.89,1.89,0,0,0,110.262-2.279Zm1.945-5.1V-8.59h1.055v1.213Zm0,7.377V-6.223h1.055V0Zm2.268-3.111a3.207,3.207,0,0,1,.961-2.561,2.9,2.9,0,0,1,1.957-.691,2.792,2.792,0,0,1,2.1.841A3.2,3.2,0,0,1,120.3-3.2a4.117,4.117,0,0,1-.36,1.89A2.551,2.551,0,0,1,118.9-.24a3.054,3.054,0,0,1-1.5.381A2.8,2.8,0,0,1,115.28-.7,3.347,3.347,0,0,1,114.475-3.111Zm1.084,0a2.65,2.65,0,0,0,.521,1.79,1.672,1.672,0,0,0,1.313.595,1.662,1.662,0,0,0,1.307-.6,2.713,2.713,0,0,0,.521-1.822A2.571,2.571,0,0,0,118.7-4.9a1.668,1.668,0,0,0-1.3-.595,1.675,1.675,0,0,0-1.312.592A2.639,2.639,0,0,0,115.559-3.111ZM121.541,0V-6.223h.949v.885a2.237,2.237,0,0,1,1.98-1.025,2.6,2.6,0,0,1,1.034.2,1.627,1.627,0,0,1,.706.53,2.035,2.035,0,0,1,.328.779,6.039,6.039,0,0,1,.059,1.025V0h-1.055V-3.785a2.841,2.841,0,0,0-.123-.964,1.014,1.014,0,0,0-.437-.51,1.389,1.389,0,0,0-.735-.19,1.709,1.709,0,0,0-1.163.428A2.11,2.11,0,0,0,122.6-3.4V0Zm10.934-2,1.09.135a2.659,2.659,0,0,1-.955,1.482,2.871,2.871,0,0,1-1.781.527A2.846,2.846,0,0,1,128.663-.7a3.285,3.285,0,0,1-.8-2.358,3.438,3.438,0,0,1,.809-2.437,2.737,2.737,0,0,1,2.1-.867,2.66,2.66,0,0,1,2.039.85,3.376,3.376,0,0,1,.791,2.391q0,.094-.006.281h-4.641a2.391,2.391,0,0,0,.58,1.57,1.727,1.727,0,0,0,1.3.545,1.614,1.614,0,0,0,.99-.3A2.023,2.023,0,0,0,132.475-2Zm-3.463-1.705h3.475a2.108,2.108,0,0,0-.4-1.178,1.616,1.616,0,0,0-1.307-.609,1.675,1.675,0,0,0-1.222.486A1.925,1.925,0,0,0,129.012-3.709Zm5.455,1.852,1.043-.164a1.458,1.458,0,0,0,.489.961,1.705,1.705,0,0,0,1.122.334,1.648,1.648,0,0,0,1.078-.3.885.885,0,0,0,.352-.694.641.641,0,0,0-.311-.562,4.574,4.574,0,0,0-1.078-.357,9.838,9.838,0,0,1-1.608-.507,1.558,1.558,0,0,1-.68-.592,1.568,1.568,0,0,1-.231-.835,1.6,1.6,0,0,1,.19-.771,1.708,1.708,0,0,1,.519-.589,2.174,2.174,0,0,1,.671-.308,3.19,3.19,0,0,1,.911-.126,3.6,3.6,0,0,1,1.286.211,1.749,1.749,0,0,1,.817.571,2.232,2.232,0,0,1,.363.964l-1.031.141a1.128,1.128,0,0,0-.407-.75,1.489,1.489,0,0,0-.952-.27,1.724,1.724,0,0,0-1.037.24.7.7,0,0,0-.311.563.582.582,0,0,0,.129.369.93.93,0,0,0,.4.281q.158.059.932.27a12.969,12.969,0,0,1,1.562.489,1.584,1.584,0,0,1,.694.554,1.546,1.546,0,0,1,.252.9,1.771,1.771,0,0,1-.308.993,1.988,1.988,0,0,1-.888.721,3.231,3.231,0,0,1-1.312.255,2.924,2.924,0,0,1-1.849-.5A2.343,2.343,0,0,1,134.467-1.857Zm13.816-.422,1.037.135a2.69,2.69,0,0,1-.87,1.679,2.535,2.535,0,0,1-1.72.606,2.672,2.672,0,0,1-2.054-.835,3.388,3.388,0,0,1-.776-2.394,4.331,4.331,0,0,1,.334-1.764,2.329,2.329,0,0,1,1.017-1.134,3.016,3.016,0,0,1,1.485-.378,2.582,2.582,0,0,1,1.658.513,2.351,2.351,0,0,1,.826,1.456l-1.025.158a1.7,1.7,0,0,0-.519-.943,1.342,1.342,0,0,0-.9-.316,1.637,1.637,0,0,0-1.295.571,2.712,2.712,0,0,0-.5,1.808,2.8,2.8,0,0,0,.48,1.822,1.564,1.564,0,0,0,1.254.568,1.478,1.478,0,0,0,1.037-.381A1.89,1.89,0,0,0,148.283-2.279Zm1.547-.832a3.207,3.207,0,0,1,.961-2.561,2.9,2.9,0,0,1,1.957-.691,2.792,2.792,0,0,1,2.1.841A3.2,3.2,0,0,1,155.66-3.2a4.117,4.117,0,0,1-.36,1.89A2.551,2.551,0,0,1,154.251-.24a3.054,3.054,0,0,1-1.5.381A2.8,2.8,0,0,1,150.636-.7,3.347,3.347,0,0,1,149.83-3.111Zm1.084,0a2.65,2.65,0,0,0,.521,1.79,1.672,1.672,0,0,0,1.313.595,1.662,1.662,0,0,0,1.307-.6,2.713,2.713,0,0,0,.521-1.822,2.571,2.571,0,0,0-.524-1.749,1.668,1.668,0,0,0-1.3-.595,1.675,1.675,0,0,0-1.312.592A2.639,2.639,0,0,0,150.914-3.111ZM156.885,0V-6.223h.949v.943a2.574,2.574,0,0,1,.671-.873,1.171,1.171,0,0,1,.677-.211,2.057,2.057,0,0,1,1.084.34l-.363.979a1.509,1.509,0,0,0-.773-.229,1,1,0,0,0-.621.208,1.127,1.127,0,0,0-.393.577,4.108,4.108,0,0,0-.176,1.23V0Zm4.008,2.385V-6.223h.961v.809a2.369,2.369,0,0,1,.768-.712,2.109,2.109,0,0,1,1.037-.237,2.459,2.459,0,0,1,1.406.41,2.517,2.517,0,0,1,.92,1.157,4.225,4.225,0,0,1,.311,1.638,4.16,4.16,0,0,1-.343,1.72,2.584,2.584,0,0,1-1,1.172,2.558,2.558,0,0,1-1.374.407,1.985,1.985,0,0,1-.946-.223,2.155,2.155,0,0,1-.688-.562V2.385Zm.955-5.461a2.707,2.707,0,0,0,.486,1.775,1.491,1.491,0,0,0,1.178.574,1.525,1.525,0,0,0,1.2-.595,2.822,2.822,0,0,0,.5-1.843,2.749,2.749,0,0,0-.489-1.781,1.473,1.473,0,0,0-1.169-.592,1.519,1.519,0,0,0-1.192.63A2.818,2.818,0,0,0,161.848-3.076Zm5.326-.035a3.207,3.207,0,0,1,.961-2.561,2.9,2.9,0,0,1,1.957-.691,2.792,2.792,0,0,1,2.1.841A3.2,3.2,0,0,1,173-3.2a4.117,4.117,0,0,1-.36,1.89A2.551,2.551,0,0,1,171.595-.24a3.054,3.054,0,0,1-1.5.381A2.8,2.8,0,0,1,167.979-.7,3.347,3.347,0,0,1,167.174-3.111Zm1.084,0a2.65,2.65,0,0,0,.521,1.79,1.672,1.672,0,0,0,1.313.595,1.662,1.662,0,0,0,1.307-.6,2.713,2.713,0,0,0,.521-1.822A2.571,2.571,0,0,0,171.4-4.9a1.668,1.668,0,0,0-1.3-.595,1.675,1.675,0,0,0-1.312.592A2.639,2.639,0,0,0,168.258-3.111ZM174.229,0V-6.223h.949v.943a2.574,2.574,0,0,1,.671-.873,1.171,1.171,0,0,1,.677-.211,2.057,2.057,0,0,1,1.084.34l-.363.979a1.509,1.509,0,0,0-.773-.229,1,1,0,0,0-.621.208,1.127,1.127,0,0,0-.393.577,4.108,4.108,0,0,0-.176,1.23V0ZM182.3-.768a3.927,3.927,0,0,1-1.128.7,3.259,3.259,0,0,1-1.163.205,2.262,2.262,0,0,1-1.576-.5,1.654,1.654,0,0,1-.551-1.28,1.7,1.7,0,0,1,.208-.835,1.722,1.722,0,0,1,.545-.606,2.562,2.562,0,0,1,.759-.346,7.536,7.536,0,0,1,.938-.158,9.64,9.64,0,0,0,1.881-.363q.006-.217.006-.275a1.164,1.164,0,0,0-.3-.908,1.765,1.765,0,0,0-1.2-.357,1.863,1.863,0,0,0-1.1.261,1.593,1.593,0,0,0-.524.923l-1.031-.141a2.555,2.555,0,0,1,.463-1.069,2.029,2.029,0,0,1,.932-.627,4.155,4.155,0,0,1,1.412-.22,3.738,3.738,0,0,1,1.295.188,1.706,1.706,0,0,1,.732.472,1.659,1.659,0,0,1,.328.718,5.938,5.938,0,0,1,.053.973v1.406a14.926,14.926,0,0,0,.067,1.86,2.347,2.347,0,0,0,.267.747h-1.1A2.236,2.236,0,0,1,182.3-.768Zm-.088-2.355a7.738,7.738,0,0,1-1.723.4,3.985,3.985,0,0,0-.92.211.917.917,0,0,0-.416.343.9.9,0,0,0-.146.5.9.9,0,0,0,.319.7,1.374,1.374,0,0,0,.935.281,2.175,2.175,0,0,0,1.084-.267,1.642,1.642,0,0,0,.7-.729,2.548,2.548,0,0,0,.17-1.055ZM184.887,0V-8.59h1.055V0Zm6.949-2,1.09.135a2.659,2.659,0,0,1-.955,1.482,2.871,2.871,0,0,1-1.781.527A2.846,2.846,0,0,1,188.024-.7a3.285,3.285,0,0,1-.8-2.358,3.438,3.438,0,0,1,.809-2.437,2.737,2.737,0,0,1,2.1-.867,2.66,2.66,0,0,1,2.039.85,3.376,3.376,0,0,1,.791,2.391q0,.094-.006.281h-4.641a2.391,2.391,0,0,0,.58,1.57,1.727,1.727,0,0,0,1.3.545,1.614,1.614,0,0,0,.99-.3A2.023,2.023,0,0,0,191.836-2Zm-3.463-1.705h3.475a2.108,2.108,0,0,0-.4-1.178,1.616,1.616,0,0,0-1.307-.609,1.675,1.675,0,0,0-1.222.486A1.925,1.925,0,0,0,188.373-3.709Zm5.455,1.852,1.043-.164a1.458,1.458,0,0,0,.489.961,1.705,1.705,0,0,0,1.122.334,1.648,1.648,0,0,0,1.078-.3.885.885,0,0,0,.352-.694.641.641,0,0,0-.311-.562,4.574,4.574,0,0,0-1.078-.357,9.838,9.838,0,0,1-1.608-.507,1.558,1.558,0,0,1-.68-.592A1.568,1.568,0,0,1,194-4.57a1.6,1.6,0,0,1,.19-.771,1.708,1.708,0,0,1,.519-.589,2.174,2.174,0,0,1,.671-.308,3.19,3.19,0,0,1,.911-.126,3.6,3.6,0,0,1,1.286.211,1.749,1.749,0,0,1,.817.571,2.232,2.232,0,0,1,.363.964l-1.031.141a1.128,1.128,0,0,0-.407-.75,1.489,1.489,0,0,0-.952-.27,1.724,1.724,0,0,0-1.037.24.7.7,0,0,0-.311.563.582.582,0,0,0,.129.369.93.93,0,0,0,.4.281q.158.059.932.27a12.969,12.969,0,0,1,1.562.489,1.584,1.584,0,0,1,.694.554,1.546,1.546,0,0,1,.252.9,1.771,1.771,0,0,1-.308.993,1.988,1.988,0,0,1-.888.721,3.231,3.231,0,0,1-1.312.255,2.924,2.924,0,0,1-1.849-.5A2.343,2.343,0,0,1,193.828-1.857Z" transform="translate(1311.695 2423.432)" fill="#20143b"/>
    <path id="Trazado_135" data-name="Trazado 135" d="M.926,0V-8.59H3.885a7.177,7.177,0,0,1,1.529.123,2.909,2.909,0,0,1,1.26.615A3.5,3.5,0,0,1,7.69-6.384a5.762,5.762,0,0,1,.337,2.042A6,6,0,0,1,7.8-2.607a4.208,4.208,0,0,1-.586,1.251,3.113,3.113,0,0,1-.782.779,3.188,3.188,0,0,1-1.025.431A5.852,5.852,0,0,1,4.025,0ZM2.063-1.014H3.9a4.451,4.451,0,0,0,1.333-.158A1.907,1.907,0,0,0,6-1.617,2.71,2.71,0,0,0,6.63-2.7a5.314,5.314,0,0,0,.226-1.655,4,4,0,0,0-.442-2.071A2.226,2.226,0,0,0,5.338-7.4a4.444,4.444,0,0,0-1.471-.176h-1.8Zm7-2.1a3.207,3.207,0,0,1,.961-2.561,2.9,2.9,0,0,1,1.957-.691,2.792,2.792,0,0,1,2.1.841A3.2,3.2,0,0,1,14.895-3.2a4.117,4.117,0,0,1-.36,1.89A2.551,2.551,0,0,1,13.485-.24a3.054,3.054,0,0,1-1.5.381A2.8,2.8,0,0,1,9.87-.7,3.347,3.347,0,0,1,9.064-3.111Zm1.084,0a2.65,2.65,0,0,0,.521,1.79,1.672,1.672,0,0,0,1.313.595,1.662,1.662,0,0,0,1.307-.6,2.713,2.713,0,0,0,.521-1.822A2.571,2.571,0,0,0,13.286-4.9a1.668,1.668,0,0,0-1.3-.595A1.675,1.675,0,0,0,10.67-4.9,2.639,2.639,0,0,0,10.148-3.111ZM16.131,0V-6.223h.943v.873a2.218,2.218,0,0,1,.779-.735,2.189,2.189,0,0,1,1.107-.278,2.047,2.047,0,0,1,1.134.287,1.537,1.537,0,0,1,.624.8,2.234,2.234,0,0,1,1.922-1.09,1.894,1.894,0,0,1,1.424.513,2.191,2.191,0,0,1,.5,1.579V0H23.514V-3.92a2.886,2.886,0,0,0-.1-.911.883.883,0,0,0-.372-.448,1.161,1.161,0,0,0-.633-.17,1.473,1.473,0,0,0-1.09.437,1.923,1.923,0,0,0-.434,1.4V0H19.828V-4.043A1.779,1.779,0,0,0,19.57-5.1a.976.976,0,0,0-.844-.352,1.533,1.533,0,0,0-.823.234,1.329,1.329,0,0,0-.548.686,3.859,3.859,0,0,0-.17,1.3V0Zm10-7.377V-8.59h1.055v1.213Zm0,7.377V-6.223h1.055V0Zm2.66,0V-6.223h.949v.885a2.237,2.237,0,0,1,1.98-1.025,2.6,2.6,0,0,1,1.034.2,1.627,1.627,0,0,1,.706.53,2.035,2.035,0,0,1,.328.779,6.039,6.039,0,0,1,.059,1.025V0H32.795V-3.785a2.841,2.841,0,0,0-.123-.964,1.014,1.014,0,0,0-.437-.51,1.389,1.389,0,0,0-.735-.19,1.709,1.709,0,0,0-1.163.428A2.11,2.11,0,0,0,29.848-3.4V0Zm6.68-7.377V-8.59h1.055v1.213Zm0,7.377V-6.223h1.055V0ZM37.74-3.111A3.207,3.207,0,0,1,38.7-5.672a2.9,2.9,0,0,1,1.957-.691,2.792,2.792,0,0,1,2.1.841A3.2,3.2,0,0,1,43.57-3.2a4.117,4.117,0,0,1-.36,1.89A2.551,2.551,0,0,1,42.161-.24a3.054,3.054,0,0,1-1.5.381A2.8,2.8,0,0,1,38.546-.7,3.347,3.347,0,0,1,37.74-3.111Zm1.084,0a2.65,2.65,0,0,0,.521,1.79,1.672,1.672,0,0,0,1.313.595,1.662,1.662,0,0,0,1.307-.6,2.713,2.713,0,0,0,.521-1.822A2.571,2.571,0,0,0,41.962-4.9a1.668,1.668,0,0,0-1.3-.595,1.675,1.675,0,0,0-1.312.592A2.639,2.639,0,0,0,38.824-3.111ZM52.178,0V-.785a1.935,1.935,0,0,1-1.74.926,2.44,2.44,0,0,1-1.368-.41A2.7,2.7,0,0,1,48.1-1.415a3.959,3.959,0,0,1-.343-1.69A4.424,4.424,0,0,1,48.07-4.8,2.449,2.449,0,0,1,49-5.959a2.491,2.491,0,0,1,1.389-.4,2.075,2.075,0,0,1,1,.237,2.1,2.1,0,0,1,.715.618V-8.59h1.049V0ZM48.844-3.105a2.7,2.7,0,0,0,.5,1.787,1.519,1.519,0,0,0,1.189.592,1.492,1.492,0,0,0,1.175-.565A2.607,2.607,0,0,0,52.2-3.018,2.926,2.926,0,0,0,51.7-4.893a1.514,1.514,0,0,0-1.213-.6,1.461,1.461,0,0,0-1.175.574A2.834,2.834,0,0,0,48.844-3.105ZM59.074-2l1.09.135a2.659,2.659,0,0,1-.955,1.482,2.871,2.871,0,0,1-1.781.527A2.846,2.846,0,0,1,55.263-.7a3.285,3.285,0,0,1-.8-2.358A3.438,3.438,0,0,1,55.271-5.5a2.737,2.737,0,0,1,2.1-.867,2.66,2.66,0,0,1,2.039.85A3.376,3.376,0,0,1,60.2-3.123q0,.094-.006.281H55.553a2.391,2.391,0,0,0,.58,1.57,1.727,1.727,0,0,0,1.3.545,1.614,1.614,0,0,0,.99-.3A2.023,2.023,0,0,0,59.074-2ZM55.611-3.709h3.475a2.108,2.108,0,0,0-.4-1.178A1.616,1.616,0,0,0,57.381-5.5a1.675,1.675,0,0,0-1.222.486A1.925,1.925,0,0,0,55.611-3.709ZM65.074,0V-5.4h-.932v-.82h.932v-.662a2.9,2.9,0,0,1,.111-.932,1.349,1.349,0,0,1,.536-.665A1.932,1.932,0,0,1,66.8-8.736a5.163,5.163,0,0,1,.984.105l-.158.92A3.539,3.539,0,0,0,67-7.77a.924.924,0,0,0-.68.205,1.112,1.112,0,0,0-.2.768v.574h1.213v.82H66.123V0Zm7.16,0V-.914A2.278,2.278,0,0,1,70.26.141,2.516,2.516,0,0,1,69.231-.07a1.694,1.694,0,0,1-.709-.53,1.987,1.987,0,0,1-.325-.782,5.356,5.356,0,0,1-.064-.984V-6.223h1.055v3.451a6.15,6.15,0,0,0,.064,1.113A1.1,1.1,0,0,0,69.674-1a1.307,1.307,0,0,0,.8.237,1.736,1.736,0,0,0,.891-.243,1.352,1.352,0,0,0,.589-.662,3.322,3.322,0,0,0,.173-1.216V-6.223h1.055V0Zm2.6,0V-6.223h.949v.885a2.237,2.237,0,0,1,1.98-1.025,2.6,2.6,0,0,1,1.034.2,1.627,1.627,0,0,1,.706.53,2.035,2.035,0,0,1,.328.779,6.039,6.039,0,0,1,.059,1.025V0H78.832V-3.785a2.841,2.841,0,0,0-.123-.964,1.014,1.014,0,0,0-.437-.51,1.389,1.389,0,0,0-.735-.19,1.709,1.709,0,0,0-1.163.428A2.11,2.11,0,0,0,75.885-3.4V0ZM85.564-2.279l1.037.135a2.69,2.69,0,0,1-.87,1.679,2.535,2.535,0,0,1-1.72.606,2.672,2.672,0,0,1-2.054-.835,3.388,3.388,0,0,1-.776-2.394,4.331,4.331,0,0,1,.334-1.764,2.329,2.329,0,0,1,1.017-1.134,3.016,3.016,0,0,1,1.485-.378,2.582,2.582,0,0,1,1.658.513A2.351,2.351,0,0,1,86.5-4.395l-1.025.158a1.7,1.7,0,0,0-.519-.943,1.342,1.342,0,0,0-.9-.316,1.637,1.637,0,0,0-1.295.571,2.712,2.712,0,0,0-.5,1.808,2.8,2.8,0,0,0,.48,1.822A1.564,1.564,0,0,0,84-.727a1.478,1.478,0,0,0,1.037-.381A1.89,1.89,0,0,0,85.564-2.279Zm1.945-5.1V-8.59h1.055v1.213ZM87.51,0V-6.223h1.055V0Zm2.268-3.111a3.207,3.207,0,0,1,.961-2.561A2.9,2.9,0,0,1,92.7-6.363a2.792,2.792,0,0,1,2.1.841A3.2,3.2,0,0,1,95.607-3.2a4.117,4.117,0,0,1-.36,1.89A2.551,2.551,0,0,1,94.2-.24a3.054,3.054,0,0,1-1.5.381A2.8,2.8,0,0,1,90.583-.7,3.347,3.347,0,0,1,89.777-3.111Zm1.084,0a2.65,2.65,0,0,0,.521,1.79A1.672,1.672,0,0,0,92.7-.727,1.662,1.662,0,0,0,94-1.324a2.713,2.713,0,0,0,.521-1.822A2.571,2.571,0,0,0,94-4.9a1.668,1.668,0,0,0-1.3-.595,1.675,1.675,0,0,0-1.312.592A2.639,2.639,0,0,0,90.861-3.111ZM96.844,0V-6.223h.949v.885a2.237,2.237,0,0,1,1.98-1.025,2.6,2.6,0,0,1,1.034.2,1.627,1.627,0,0,1,.706.53,2.035,2.035,0,0,1,.328.779,6.039,6.039,0,0,1,.059,1.025V0h-1.055V-3.785a2.841,2.841,0,0,0-.123-.964,1.014,1.014,0,0,0-.437-.51,1.389,1.389,0,0,0-.735-.19,1.709,1.709,0,0,0-1.163.428A2.11,2.11,0,0,0,97.9-3.4V0Zm10.934-2,1.09.135a2.659,2.659,0,0,1-.955,1.482,2.871,2.871,0,0,1-1.781.527A2.846,2.846,0,0,1,103.966-.7a3.285,3.285,0,0,1-.8-2.358,3.438,3.438,0,0,1,.809-2.437,2.737,2.737,0,0,1,2.1-.867,2.66,2.66,0,0,1,2.039.85,3.376,3.376,0,0,1,.791,2.391q0,.094-.006.281h-4.641a2.391,2.391,0,0,0,.58,1.57,1.727,1.727,0,0,0,1.3.545,1.614,1.614,0,0,0,.99-.3A2.023,2.023,0,0,0,107.777-2Zm-3.463-1.705h3.475a2.108,2.108,0,0,0-.4-1.178,1.616,1.616,0,0,0-1.307-.609,1.675,1.675,0,0,0-1.222.486A1.925,1.925,0,0,0,104.314-3.709Zm5.455,1.852,1.043-.164a1.458,1.458,0,0,0,.489.961,1.705,1.705,0,0,0,1.122.334,1.648,1.648,0,0,0,1.078-.3.885.885,0,0,0,.352-.694.641.641,0,0,0-.311-.562,4.574,4.574,0,0,0-1.078-.357,9.838,9.838,0,0,1-1.608-.507,1.558,1.558,0,0,1-.68-.592,1.568,1.568,0,0,1-.231-.835,1.6,1.6,0,0,1,.19-.771,1.708,1.708,0,0,1,.519-.589,2.174,2.174,0,0,1,.671-.308,3.19,3.19,0,0,1,.911-.126,3.6,3.6,0,0,1,1.286.211,1.749,1.749,0,0,1,.817.571,2.232,2.232,0,0,1,.363.964l-1.031.141a1.128,1.128,0,0,0-.407-.75,1.489,1.489,0,0,0-.952-.27,1.724,1.724,0,0,0-1.037.24.7.7,0,0,0-.311.563.582.582,0,0,0,.129.369.93.93,0,0,0,.4.281q.158.059.932.27a12.969,12.969,0,0,1,1.562.489,1.584,1.584,0,0,1,.694.554,1.546,1.546,0,0,1,.252.9,1.771,1.771,0,0,1-.308.993,1.988,1.988,0,0,1-.888.721,3.231,3.231,0,0,1-1.312.255,2.924,2.924,0,0,1-1.849-.5A2.343,2.343,0,0,1,109.77-1.857ZM119.525,0V-6.223h.949v.885a2.237,2.237,0,0,1,1.98-1.025,2.6,2.6,0,0,1,1.034.2,1.627,1.627,0,0,1,.706.53,2.035,2.035,0,0,1,.328.779,6.039,6.039,0,0,1,.059,1.025V0h-1.055V-3.785a2.841,2.841,0,0,0-.123-.964,1.014,1.014,0,0,0-.437-.51,1.389,1.389,0,0,0-.735-.19,1.709,1.709,0,0,0-1.163.428A2.11,2.11,0,0,0,120.58-3.4V0Zm10.934-2,1.09.135a2.659,2.659,0,0,1-.955,1.482,2.871,2.871,0,0,1-1.781.527A2.846,2.846,0,0,1,126.647-.7a3.285,3.285,0,0,1-.8-2.358,3.438,3.438,0,0,1,.809-2.437,2.737,2.737,0,0,1,2.1-.867,2.66,2.66,0,0,1,2.039.85,3.376,3.376,0,0,1,.791,2.391q0,.094-.006.281h-4.641a2.391,2.391,0,0,0,.58,1.57,1.727,1.727,0,0,0,1.3.545,1.614,1.614,0,0,0,.99-.3A2.023,2.023,0,0,0,130.459-2ZM127-3.709h3.475a2.108,2.108,0,0,0-.4-1.178,1.616,1.616,0,0,0-1.307-.609,1.675,1.675,0,0,0-1.222.486A1.925,1.925,0,0,0,127-3.709ZM136.951,0V-.914A2.278,2.278,0,0,1,134.977.141a2.516,2.516,0,0,1-1.028-.211,1.694,1.694,0,0,1-.709-.53,1.987,1.987,0,0,1-.325-.782,5.356,5.356,0,0,1-.064-.984V-6.223H133.9v3.451a6.15,6.15,0,0,0,.064,1.113,1.1,1.1,0,0,0,.422.653,1.307,1.307,0,0,0,.8.237,1.736,1.736,0,0,0,.891-.243,1.352,1.352,0,0,0,.589-.662,3.322,3.322,0,0,0,.173-1.216V-6.223h1.055V0Zm2.584,0V-6.223h.949v.943a2.574,2.574,0,0,1,.671-.873,1.171,1.171,0,0,1,.677-.211,2.057,2.057,0,0,1,1.084.34l-.363.979a1.509,1.509,0,0,0-.773-.229,1,1,0,0,0-.621.208,1.127,1.127,0,0,0-.393.577,4.108,4.108,0,0,0-.176,1.23V0Zm3.615-3.111a3.207,3.207,0,0,1,.961-2.561,2.9,2.9,0,0,1,1.957-.691,2.792,2.792,0,0,1,2.1.841A3.2,3.2,0,0,1,148.98-3.2a4.117,4.117,0,0,1-.36,1.89A2.551,2.551,0,0,1,147.571-.24a3.054,3.054,0,0,1-1.5.381A2.8,2.8,0,0,1,143.956-.7,3.347,3.347,0,0,1,143.15-3.111Zm1.084,0a2.65,2.65,0,0,0,.521,1.79,1.672,1.672,0,0,0,1.313.595,1.662,1.662,0,0,0,1.307-.6,2.713,2.713,0,0,0,.521-1.822,2.571,2.571,0,0,0-.524-1.749,1.668,1.668,0,0,0-1.3-.595,1.675,1.675,0,0,0-1.312.592A2.639,2.639,0,0,0,144.234-3.111ZM150.217,0V-6.223h.943v.873a2.218,2.218,0,0,1,.779-.735,2.189,2.189,0,0,1,1.107-.278,2.047,2.047,0,0,1,1.134.287,1.537,1.537,0,0,1,.624.8,2.234,2.234,0,0,1,1.922-1.09,1.894,1.894,0,0,1,1.424.513,2.191,2.191,0,0,1,.5,1.579V0H157.6V-3.92a2.886,2.886,0,0,0-.1-.911.883.883,0,0,0-.372-.448,1.161,1.161,0,0,0-.633-.17,1.473,1.473,0,0,0-1.09.437,1.923,1.923,0,0,0-.434,1.4V0h-1.055V-4.043a1.779,1.779,0,0,0-.258-1.055.976.976,0,0,0-.844-.352,1.533,1.533,0,0,0-.823.234,1.329,1.329,0,0,0-.548.686,3.859,3.859,0,0,0-.17,1.3V0Zm14.074,0V-.914A2.278,2.278,0,0,1,162.316.141a2.516,2.516,0,0,1-1.028-.211,1.694,1.694,0,0,1-.709-.53,1.987,1.987,0,0,1-.325-.782,5.356,5.356,0,0,1-.064-.984V-6.223h1.055v3.451a6.15,6.15,0,0,0,.064,1.113A1.1,1.1,0,0,0,161.73-1a1.307,1.307,0,0,0,.8.237,1.736,1.736,0,0,0,.891-.243,1.352,1.352,0,0,0,.589-.662,3.322,3.322,0,0,0,.173-1.216V-6.223h1.055V0Zm2.174-1.857,1.043-.164a1.458,1.458,0,0,0,.489.961,1.705,1.705,0,0,0,1.122.334,1.648,1.648,0,0,0,1.078-.3.885.885,0,0,0,.352-.694.641.641,0,0,0-.311-.562,4.574,4.574,0,0,0-1.078-.357,9.838,9.838,0,0,1-1.608-.507,1.558,1.558,0,0,1-.68-.592,1.568,1.568,0,0,1-.231-.835,1.6,1.6,0,0,1,.19-.771,1.708,1.708,0,0,1,.519-.589,2.174,2.174,0,0,1,.671-.308,3.19,3.19,0,0,1,.911-.126,3.6,3.6,0,0,1,1.286.211,1.749,1.749,0,0,1,.817.571,2.232,2.232,0,0,1,.363.964l-1.031.141a1.128,1.128,0,0,0-.407-.75,1.489,1.489,0,0,0-.952-.27,1.724,1.724,0,0,0-1.037.24.7.7,0,0,0-.311.563.582.582,0,0,0,.129.369.93.93,0,0,0,.4.281q.158.059.932.27a12.969,12.969,0,0,1,1.562.489,1.584,1.584,0,0,1,.694.554,1.546,1.546,0,0,1,.252.9,1.771,1.771,0,0,1-.308.993,1.988,1.988,0,0,1-.888.721,3.231,3.231,0,0,1-1.312.255,2.924,2.924,0,0,1-1.849-.5A2.343,2.343,0,0,1,166.465-1.857Zm10.482-.422,1.037.135a2.69,2.69,0,0,1-.87,1.679,2.535,2.535,0,0,1-1.72.606,2.672,2.672,0,0,1-2.054-.835,3.388,3.388,0,0,1-.776-2.394,4.331,4.331,0,0,1,.334-1.764,2.329,2.329,0,0,1,1.017-1.134,3.016,3.016,0,0,1,1.485-.378,2.582,2.582,0,0,1,1.658.513,2.351,2.351,0,0,1,.826,1.456l-1.025.158a1.7,1.7,0,0,0-.519-.943,1.342,1.342,0,0,0-.9-.316,1.637,1.637,0,0,0-1.295.571,2.712,2.712,0,0,0-.5,1.808,2.8,2.8,0,0,0,.48,1.822,1.564,1.564,0,0,0,1.254.568,1.478,1.478,0,0,0,1.037-.381A1.89,1.89,0,0,0,176.947-2.279ZM182.965,0V-.914A2.278,2.278,0,0,1,180.99.141a2.516,2.516,0,0,1-1.028-.211,1.694,1.694,0,0,1-.709-.53,1.987,1.987,0,0,1-.325-.782,5.356,5.356,0,0,1-.064-.984V-6.223h1.055v3.451a6.15,6.15,0,0,0,.064,1.113A1.1,1.1,0,0,0,180.4-1a1.307,1.307,0,0,0,.8.237,1.736,1.736,0,0,0,.891-.243,1.352,1.352,0,0,0,.589-.662,3.322,3.322,0,0,0,.173-1.216V-6.223h1.055V0Zm2.572,0V-8.59h1.055V0Zm2.3-3.111a3.207,3.207,0,0,1,.961-2.561,2.9,2.9,0,0,1,1.957-.691,2.792,2.792,0,0,1,2.1.841,3.2,3.2,0,0,1,.814,2.323,4.117,4.117,0,0,1-.36,1.89A2.551,2.551,0,0,1,192.255-.24a3.054,3.054,0,0,1-1.5.381A2.8,2.8,0,0,1,188.64-.7,3.347,3.347,0,0,1,187.834-3.111Zm1.084,0a2.65,2.65,0,0,0,.521,1.79,1.672,1.672,0,0,0,1.313.595,1.662,1.662,0,0,0,1.307-.6,2.713,2.713,0,0,0,.521-1.822,2.571,2.571,0,0,0-.524-1.749,1.668,1.668,0,0,0-1.3-.595,1.675,1.675,0,0,0-1.312.592A2.639,2.639,0,0,0,188.918-3.111ZM199.16-2l1.09.135a2.659,2.659,0,0,1-.955,1.482,2.871,2.871,0,0,1-1.781.527A2.846,2.846,0,0,1,195.349-.7a3.285,3.285,0,0,1-.8-2.358,3.438,3.438,0,0,1,.809-2.437,2.737,2.737,0,0,1,2.1-.867,2.66,2.66,0,0,1,2.039.85,3.376,3.376,0,0,1,.791,2.391q0,.094-.006.281h-4.641a2.391,2.391,0,0,0,.58,1.57,1.727,1.727,0,0,0,1.3.545,1.614,1.614,0,0,0,.99-.3A2.023,2.023,0,0,0,199.16-2ZM195.7-3.709h3.475a2.108,2.108,0,0,0-.4-1.178,1.616,1.616,0,0,0-1.307-.609,1.675,1.675,0,0,0-1.222.486A1.925,1.925,0,0,0,195.7-3.709Zm5.455,1.852,1.043-.164a1.458,1.458,0,0,0,.489.961,1.705,1.705,0,0,0,1.122.334,1.648,1.648,0,0,0,1.078-.3.885.885,0,0,0,.352-.694.641.641,0,0,0-.311-.562,4.574,4.574,0,0,0-1.078-.357,9.838,9.838,0,0,1-1.608-.507,1.558,1.558,0,0,1-.68-.592,1.568,1.568,0,0,1-.231-.835,1.6,1.6,0,0,1,.19-.771,1.708,1.708,0,0,1,.519-.589,2.174,2.174,0,0,1,.671-.308,3.19,3.19,0,0,1,.911-.126,3.6,3.6,0,0,1,1.286.211,1.749,1.749,0,0,1,.817.571,2.232,2.232,0,0,1,.363.964l-1.031.141a1.128,1.128,0,0,0-.407-.75,1.489,1.489,0,0,0-.952-.27,1.724,1.724,0,0,0-1.037.24.7.7,0,0,0-.311.563.582.582,0,0,0,.129.369.93.93,0,0,0,.4.281q.158.059.932.27a12.969,12.969,0,0,1,1.562.489,1.584,1.584,0,0,1,.694.554,1.546,1.546,0,0,1,.252.9,1.771,1.771,0,0,1-.308.993,1.988,1.988,0,0,1-.888.721,3.231,3.231,0,0,1-1.312.255,2.924,2.924,0,0,1-1.849-.5A2.343,2.343,0,0,1,201.152-1.857Zm10.389,4.242V-.662a1.887,1.887,0,0,1-.688.574,2.021,2.021,0,0,1-.94.229A2.487,2.487,0,0,1,208-.744a3.484,3.484,0,0,1-.8-2.426,4.159,4.159,0,0,1,.325-1.682,2.426,2.426,0,0,1,.943-1.128,2.522,2.522,0,0,1,1.356-.384,2.084,2.084,0,0,1,1.816.973v-.832h.949V2.385Zm-3.252-5.514a2.75,2.75,0,0,0,.5,1.8,1.528,1.528,0,0,0,1.207.6,1.478,1.478,0,0,0,1.16-.571,2.631,2.631,0,0,0,.486-1.737,2.9,2.9,0,0,0-.513-1.869,1.52,1.52,0,0,0-1.2-.627,1.453,1.453,0,0,0-1.163.583A2.847,2.847,0,0,0,208.289-3.129ZM218.326,0V-.914A2.278,2.278,0,0,1,216.352.141a2.516,2.516,0,0,1-1.028-.211,1.694,1.694,0,0,1-.709-.53,1.987,1.987,0,0,1-.325-.782,5.356,5.356,0,0,1-.064-.984V-6.223h1.055v3.451a6.15,6.15,0,0,0,.064,1.113,1.1,1.1,0,0,0,.422.653,1.307,1.307,0,0,0,.8.237,1.736,1.736,0,0,0,.891-.243,1.352,1.352,0,0,0,.589-.662,3.322,3.322,0,0,0,.173-1.216V-6.223h1.055V0Zm6.855-2,1.09.135a2.659,2.659,0,0,1-.955,1.482,2.871,2.871,0,0,1-1.781.527A2.846,2.846,0,0,1,221.37-.7a3.285,3.285,0,0,1-.8-2.358,3.438,3.438,0,0,1,.809-2.437,2.737,2.737,0,0,1,2.1-.867,2.66,2.66,0,0,1,2.039.85,3.376,3.376,0,0,1,.791,2.391q0,.094-.006.281H221.66a2.391,2.391,0,0,0,.58,1.57,1.727,1.727,0,0,0,1.3.545,1.614,1.614,0,0,0,.99-.3A2.023,2.023,0,0,0,225.182-2Zm-3.463-1.705h3.475a2.108,2.108,0,0,0-.4-1.178,1.616,1.616,0,0,0-1.307-.609,1.675,1.675,0,0,0-1.222.486A1.925,1.925,0,0,0,221.719-3.709ZM227.572,0V-8.59h1.055V0Zm6.949-2,1.09.135a2.659,2.659,0,0,1-.955,1.482,2.871,2.871,0,0,1-1.781.527A2.846,2.846,0,0,1,230.71-.7a3.285,3.285,0,0,1-.8-2.358,3.438,3.438,0,0,1,.809-2.437,2.737,2.737,0,0,1,2.1-.867,2.66,2.66,0,0,1,2.039.85,3.376,3.376,0,0,1,.791,2.391q0,.094-.006.281H231a2.391,2.391,0,0,0,.58,1.57,1.727,1.727,0,0,0,1.3.545,1.614,1.614,0,0,0,.99-.3A2.023,2.023,0,0,0,234.521-2Zm-3.463-1.705h3.475a2.108,2.108,0,0,0-.4-1.178,1.616,1.616,0,0,0-1.307-.609,1.675,1.675,0,0,0-1.222.486A1.925,1.925,0,0,0,231.059-3.709ZM232.2-7l.779-1.641h1.383L233.068-7Zm7.043,6.053.152.932a3.912,3.912,0,0,1-.8.094A1.8,1.8,0,0,1,237.7-.1a1.017,1.017,0,0,1-.445-.478,3.776,3.776,0,0,1-.129-1.245V-5.4h-.773v-.82h.773V-7.764l1.049-.633v2.174h1.061v.82h-1.061v3.639a1.838,1.838,0,0,0,.056.58.439.439,0,0,0,.182.205.7.7,0,0,0,.36.076A3.431,3.431,0,0,0,239.238-.943Zm1.037-6.434V-8.59h1.055v1.213Zm0,7.377V-6.223h1.055V0ZM247-2.279l1.037.135a2.69,2.69,0,0,1-.87,1.679,2.535,2.535,0,0,1-1.72.606,2.672,2.672,0,0,1-2.054-.835,3.388,3.388,0,0,1-.776-2.394,4.331,4.331,0,0,1,.334-1.764,2.329,2.329,0,0,1,1.017-1.134,3.016,3.016,0,0,1,1.485-.378,2.582,2.582,0,0,1,1.658.513,2.351,2.351,0,0,1,.826,1.456l-1.025.158a1.7,1.7,0,0,0-.519-.943,1.342,1.342,0,0,0-.9-.316,1.637,1.637,0,0,0-1.295.571,2.712,2.712,0,0,0-.5,1.808,2.8,2.8,0,0,0,.48,1.822,1.564,1.564,0,0,0,1.254.568,1.478,1.478,0,0,0,1.037-.381A1.89,1.89,0,0,0,247-2.279Zm6,1.512a3.927,3.927,0,0,1-1.128.7,3.259,3.259,0,0,1-1.163.205,2.262,2.262,0,0,1-1.576-.5,1.654,1.654,0,0,1-.551-1.28,1.7,1.7,0,0,1,.208-.835,1.722,1.722,0,0,1,.545-.606,2.562,2.562,0,0,1,.759-.346,7.536,7.536,0,0,1,.938-.158,9.64,9.64,0,0,0,1.881-.363q.006-.217.006-.275a1.164,1.164,0,0,0-.3-.908,1.765,1.765,0,0,0-1.2-.357,1.863,1.863,0,0,0-1.1.261,1.593,1.593,0,0,0-.524.923l-1.031-.141a2.555,2.555,0,0,1,.463-1.069,2.029,2.029,0,0,1,.932-.627,4.155,4.155,0,0,1,1.412-.22,3.738,3.738,0,0,1,1.295.188,1.706,1.706,0,0,1,.732.472,1.659,1.659,0,0,1,.328.718,5.938,5.938,0,0,1,.053.973v1.406a14.926,14.926,0,0,0,.067,1.86,2.347,2.347,0,0,0,.267.747h-1.1A2.236,2.236,0,0,1,253-.768Zm-.088-2.355a7.738,7.738,0,0,1-1.723.4,3.985,3.985,0,0,0-.92.211.917.917,0,0,0-.416.343.9.9,0,0,0-.146.5.9.9,0,0,0,.319.7,1.374,1.374,0,0,0,.935.281,2.175,2.175,0,0,0,1.084-.267,1.642,1.642,0,0,0,.7-.729,2.548,2.548,0,0,0,.17-1.055Zm2.279,1.266,1.043-.164a1.458,1.458,0,0,0,.489.961,1.705,1.705,0,0,0,1.122.334,1.648,1.648,0,0,0,1.078-.3.885.885,0,0,0,.352-.694.641.641,0,0,0-.311-.562,4.574,4.574,0,0,0-1.078-.357,9.838,9.838,0,0,1-1.608-.507,1.558,1.558,0,0,1-.68-.592,1.568,1.568,0,0,1-.231-.835,1.6,1.6,0,0,1,.19-.771,1.708,1.708,0,0,1,.519-.589,2.174,2.174,0,0,1,.671-.308,3.19,3.19,0,0,1,.911-.126,3.6,3.6,0,0,1,1.286.211,1.749,1.749,0,0,1,.817.571,2.232,2.232,0,0,1,.363.964l-1.031.141a1.128,1.128,0,0,0-.407-.75,1.489,1.489,0,0,0-.952-.27,1.724,1.724,0,0,0-1.037.24.7.7,0,0,0-.311.563.582.582,0,0,0,.129.369.93.93,0,0,0,.4.281q.158.059.932.27a12.969,12.969,0,0,1,1.562.489,1.584,1.584,0,0,1,.694.554,1.546,1.546,0,0,1,.252.9,1.771,1.771,0,0,1-.308.993,1.988,1.988,0,0,1-.888.721,3.231,3.231,0,0,1-1.312.255A2.924,2.924,0,0,1,256-.363,2.343,2.343,0,0,1,255.188-1.857ZM264.9,2.4l-.117-.99a2.35,2.35,0,0,0,.6.094,1.158,1.158,0,0,0,.563-.117.958.958,0,0,0,.346-.328,5.174,5.174,0,0,0,.322-.785q.029-.088.094-.258l-2.361-6.234h1.137l1.295,3.6q.252.686.451,1.441a14.191,14.191,0,0,1,.434-1.418l1.33-3.627h1.055L267.68.105a12.421,12.421,0,0,1-.592,1.412,2.083,2.083,0,0,1-.645.765,1.522,1.522,0,0,1-.867.243A2.112,2.112,0,0,1,264.9,2.4Z" transform="translate(1311.695 2452.232)" fill="#20143b"/>
    <path id="Trazado_136" data-name="Trazado 136" d="M.779,0V-6.223h.949v.943A2.574,2.574,0,0,1,2.4-6.152a1.171,1.171,0,0,1,.677-.211,2.057,2.057,0,0,1,1.084.34L3.8-5.045a1.509,1.509,0,0,0-.773-.229,1,1,0,0,0-.621.208,1.127,1.127,0,0,0-.393.577,4.108,4.108,0,0,0-.176,1.23V0ZM9.047-2l1.09.135A2.659,2.659,0,0,1,9.182-.387,2.871,2.871,0,0,1,7.4.141,2.846,2.846,0,0,1,5.235-.7a3.285,3.285,0,0,1-.8-2.358A3.438,3.438,0,0,1,5.244-5.5a2.737,2.737,0,0,1,2.1-.867,2.66,2.66,0,0,1,2.039.85,3.376,3.376,0,0,1,.791,2.391q0,.094-.006.281H5.525a2.391,2.391,0,0,0,.58,1.57,1.727,1.727,0,0,0,1.3.545,1.614,1.614,0,0,0,.99-.3A2.023,2.023,0,0,0,9.047-2ZM5.584-3.709H9.059a2.108,2.108,0,0,0-.4-1.178A1.616,1.616,0,0,0,7.354-5.5a1.675,1.675,0,0,0-1.222.486A1.925,1.925,0,0,0,5.584-3.709ZM11.438,0V-8.59h1.055V0Zm6.75-.768a3.927,3.927,0,0,1-1.128.7A3.259,3.259,0,0,1,15.9.141a2.262,2.262,0,0,1-1.576-.5,1.654,1.654,0,0,1-.551-1.28,1.7,1.7,0,0,1,.208-.835,1.722,1.722,0,0,1,.545-.606,2.562,2.562,0,0,1,.759-.346,7.536,7.536,0,0,1,.938-.158A9.64,9.64,0,0,0,18.1-3.949q.006-.217.006-.275a1.164,1.164,0,0,0-.3-.908,1.765,1.765,0,0,0-1.2-.357,1.863,1.863,0,0,0-1.1.261,1.593,1.593,0,0,0-.524.923l-1.031-.141a2.555,2.555,0,0,1,.463-1.069,2.029,2.029,0,0,1,.932-.627,4.155,4.155,0,0,1,1.412-.22,3.738,3.738,0,0,1,1.295.188,1.706,1.706,0,0,1,.732.472,1.659,1.659,0,0,1,.328.718,5.938,5.938,0,0,1,.053.973v1.406a14.926,14.926,0,0,0,.067,1.86A2.347,2.347,0,0,0,19.5,0H18.4A2.236,2.236,0,0,1,18.188-.768ZM18.1-3.123a7.738,7.738,0,0,1-1.723.4,3.985,3.985,0,0,0-.92.211.917.917,0,0,0-.416.343.9.9,0,0,0-.146.5.9.9,0,0,0,.319.7,1.374,1.374,0,0,0,.935.281,2.175,2.175,0,0,0,1.084-.267,1.642,1.642,0,0,0,.7-.729,2.548,2.548,0,0,0,.17-1.055Zm6.762.844,1.037.135a2.69,2.69,0,0,1-.87,1.679,2.535,2.535,0,0,1-1.72.606,2.672,2.672,0,0,1-2.054-.835,3.388,3.388,0,0,1-.776-2.394,4.331,4.331,0,0,1,.334-1.764,2.329,2.329,0,0,1,1.017-1.134,3.016,3.016,0,0,1,1.485-.378,2.582,2.582,0,0,1,1.658.513A2.351,2.351,0,0,1,25.8-4.395l-1.025.158a1.7,1.7,0,0,0-.519-.943,1.342,1.342,0,0,0-.9-.316,1.637,1.637,0,0,0-1.295.571,2.712,2.712,0,0,0-.5,1.808,2.8,2.8,0,0,0,.48,1.822A1.564,1.564,0,0,0,23.3-.727a1.478,1.478,0,0,0,1.037-.381A1.89,1.89,0,0,0,24.861-2.279Zm1.945-5.1V-8.59h1.055v1.213Zm0,7.377V-6.223h1.055V0Zm2.268-3.111a3.207,3.207,0,0,1,.961-2.561,2.9,2.9,0,0,1,1.957-.691,2.792,2.792,0,0,1,2.1.841A3.2,3.2,0,0,1,34.9-3.2a4.117,4.117,0,0,1-.36,1.89A2.551,2.551,0,0,1,33.5-.24a3.054,3.054,0,0,1-1.5.381A2.8,2.8,0,0,1,29.88-.7,3.347,3.347,0,0,1,29.074-3.111Zm1.084,0a2.65,2.65,0,0,0,.521,1.79,1.672,1.672,0,0,0,1.313.595,1.662,1.662,0,0,0,1.307-.6,2.713,2.713,0,0,0,.521-1.822A2.571,2.571,0,0,0,33.3-4.9a1.668,1.668,0,0,0-1.3-.595A1.675,1.675,0,0,0,30.68-4.9,2.639,2.639,0,0,0,30.158-3.111ZM36.141,0V-6.223h.949v.885a2.237,2.237,0,0,1,1.98-1.025,2.6,2.6,0,0,1,1.034.2,1.627,1.627,0,0,1,.706.53,2.035,2.035,0,0,1,.328.779A6.039,6.039,0,0,1,41.2-3.826V0H40.143V-3.785a2.841,2.841,0,0,0-.123-.964,1.014,1.014,0,0,0-.437-.51,1.389,1.389,0,0,0-.735-.19,1.709,1.709,0,0,0-1.163.428A2.11,2.11,0,0,0,37.2-3.4V0ZM46.875-.768a3.927,3.927,0,0,1-1.128.7,3.259,3.259,0,0,1-1.163.205,2.262,2.262,0,0,1-1.576-.5,1.654,1.654,0,0,1-.551-1.28,1.7,1.7,0,0,1,.208-.835,1.722,1.722,0,0,1,.545-.606,2.562,2.562,0,0,1,.759-.346,7.536,7.536,0,0,1,.938-.158,9.64,9.64,0,0,0,1.881-.363q.006-.217.006-.275a1.164,1.164,0,0,0-.3-.908,1.765,1.765,0,0,0-1.2-.357,1.863,1.863,0,0,0-1.1.261,1.593,1.593,0,0,0-.524.923l-1.031-.141A2.555,2.555,0,0,1,43.1-5.517a2.029,2.029,0,0,1,.932-.627,4.155,4.155,0,0,1,1.412-.22,3.738,3.738,0,0,1,1.295.188,1.706,1.706,0,0,1,.732.472,1.659,1.659,0,0,1,.328.718,5.938,5.938,0,0,1,.053.973v1.406a14.926,14.926,0,0,0,.067,1.86A2.347,2.347,0,0,0,48.188,0h-1.1A2.236,2.236,0,0,1,46.875-.768Zm-.088-2.355a7.738,7.738,0,0,1-1.723.4,3.985,3.985,0,0,0-.92.211.917.917,0,0,0-.416.343.9.9,0,0,0-.146.5.9.9,0,0,0,.319.7,1.374,1.374,0,0,0,.935.281A2.175,2.175,0,0,0,45.92-.952a1.642,1.642,0,0,0,.7-.729,2.548,2.548,0,0,0,.17-1.055ZM53.525,0V-.785a1.935,1.935,0,0,1-1.74.926,2.44,2.44,0,0,1-1.368-.41,2.7,2.7,0,0,1-.967-1.146,3.959,3.959,0,0,1-.343-1.69,4.424,4.424,0,0,1,.311-1.69,2.449,2.449,0,0,1,.932-1.163,2.491,2.491,0,0,1,1.389-.4,2.075,2.075,0,0,1,1,.237,2.1,2.1,0,0,1,.715.618V-8.59H54.5V0ZM50.191-3.105a2.7,2.7,0,0,0,.5,1.787,1.519,1.519,0,0,0,1.189.592,1.492,1.492,0,0,0,1.175-.565,2.607,2.607,0,0,0,.483-1.726,2.926,2.926,0,0,0-.492-1.875,1.514,1.514,0,0,0-1.213-.6,1.461,1.461,0,0,0-1.175.574A2.834,2.834,0,0,0,50.191-3.105ZM60.223-.768a3.927,3.927,0,0,1-1.128.7,3.259,3.259,0,0,1-1.163.205,2.262,2.262,0,0,1-1.576-.5,1.654,1.654,0,0,1-.551-1.28,1.7,1.7,0,0,1,.208-.835,1.722,1.722,0,0,1,.545-.606,2.562,2.562,0,0,1,.759-.346,7.536,7.536,0,0,1,.938-.158,9.64,9.64,0,0,0,1.881-.363q.006-.217.006-.275a1.164,1.164,0,0,0-.3-.908,1.765,1.765,0,0,0-1.2-.357,1.863,1.863,0,0,0-1.1.261,1.593,1.593,0,0,0-.524.923l-1.031-.141a2.555,2.555,0,0,1,.463-1.069,2.029,2.029,0,0,1,.932-.627,4.155,4.155,0,0,1,1.412-.22,3.738,3.738,0,0,1,1.295.188,1.706,1.706,0,0,1,.732.472,1.659,1.659,0,0,1,.328.718,5.938,5.938,0,0,1,.053.973v1.406a14.926,14.926,0,0,0,.067,1.86A2.347,2.347,0,0,0,61.535,0h-1.1A2.236,2.236,0,0,1,60.223-.768Zm-.088-2.355a7.738,7.738,0,0,1-1.723.4,3.985,3.985,0,0,0-.92.211.917.917,0,0,0-.416.343.9.9,0,0,0-.146.5.9.9,0,0,0,.319.7,1.374,1.374,0,0,0,.935.281,2.175,2.175,0,0,0,1.084-.267,1.642,1.642,0,0,0,.7-.729,2.548,2.548,0,0,0,.17-1.055Zm2.279,1.266,1.043-.164a1.458,1.458,0,0,0,.489.961,1.705,1.705,0,0,0,1.122.334,1.648,1.648,0,0,0,1.078-.3.885.885,0,0,0,.352-.694.641.641,0,0,0-.311-.562,4.574,4.574,0,0,0-1.078-.357A9.838,9.838,0,0,1,63.5-3.144a1.558,1.558,0,0,1-.68-.592,1.568,1.568,0,0,1-.231-.835,1.6,1.6,0,0,1,.19-.771A1.708,1.708,0,0,1,63.3-5.93a2.174,2.174,0,0,1,.671-.308,3.19,3.19,0,0,1,.911-.126,3.6,3.6,0,0,1,1.286.211,1.749,1.749,0,0,1,.817.571,2.232,2.232,0,0,1,.363.964l-1.031.141a1.128,1.128,0,0,0-.407-.75,1.489,1.489,0,0,0-.952-.27,1.724,1.724,0,0,0-1.037.24.7.7,0,0,0-.311.563.582.582,0,0,0,.129.369.93.93,0,0,0,.4.281q.158.059.932.27a12.969,12.969,0,0,1,1.562.489,1.584,1.584,0,0,1,.694.554,1.546,1.546,0,0,1,.252.9,1.771,1.771,0,0,1-.308.993,1.988,1.988,0,0,1-.888.721,3.231,3.231,0,0,1-1.312.255,2.924,2.924,0,0,1-1.849-.5A2.343,2.343,0,0,1,62.414-1.857ZM76.23-2.279l1.037.135A2.69,2.69,0,0,1,76.4-.466a2.535,2.535,0,0,1-1.72.606,2.672,2.672,0,0,1-2.054-.835,3.388,3.388,0,0,1-.776-2.394,4.331,4.331,0,0,1,.334-1.764A2.329,2.329,0,0,1,73.2-5.985a3.016,3.016,0,0,1,1.485-.378,2.582,2.582,0,0,1,1.658.513,2.351,2.351,0,0,1,.826,1.456l-1.025.158a1.7,1.7,0,0,0-.519-.943,1.342,1.342,0,0,0-.9-.316,1.637,1.637,0,0,0-1.295.571,2.712,2.712,0,0,0-.5,1.808,2.8,2.8,0,0,0,.48,1.822,1.564,1.564,0,0,0,1.254.568A1.478,1.478,0,0,0,75.7-1.107,1.89,1.89,0,0,0,76.23-2.279Zm1.547-.832a3.207,3.207,0,0,1,.961-2.561A2.9,2.9,0,0,1,80.7-6.363a2.792,2.792,0,0,1,2.1.841A3.2,3.2,0,0,1,83.607-3.2a4.117,4.117,0,0,1-.36,1.89A2.551,2.551,0,0,1,82.2-.24a3.054,3.054,0,0,1-1.5.381A2.8,2.8,0,0,1,78.583-.7,3.347,3.347,0,0,1,77.777-3.111Zm1.084,0a2.65,2.65,0,0,0,.521,1.79A1.672,1.672,0,0,0,80.7-.727,1.662,1.662,0,0,0,82-1.324a2.713,2.713,0,0,0,.521-1.822A2.571,2.571,0,0,0,82-4.9a1.668,1.668,0,0,0-1.3-.595,1.675,1.675,0,0,0-1.312.592A2.639,2.639,0,0,0,78.861-3.111ZM84.844,0V-6.223h.949v.885a2.237,2.237,0,0,1,1.98-1.025,2.6,2.6,0,0,1,1.034.2,1.627,1.627,0,0,1,.706.53,2.035,2.035,0,0,1,.328.779A6.039,6.039,0,0,1,89.9-3.826V0H88.846V-3.785a2.841,2.841,0,0,0-.123-.964,1.014,1.014,0,0,0-.437-.51,1.389,1.389,0,0,0-.735-.19,1.709,1.709,0,0,0-1.163.428A2.11,2.11,0,0,0,85.9-3.4V0ZM99.111-2l1.09.135a2.659,2.659,0,0,1-.955,1.482,2.871,2.871,0,0,1-1.781.527A2.846,2.846,0,0,1,95.3-.7a3.285,3.285,0,0,1-.8-2.358A3.438,3.438,0,0,1,95.309-5.5a2.737,2.737,0,0,1,2.1-.867,2.66,2.66,0,0,1,2.039.85,3.376,3.376,0,0,1,.791,2.391q0,.094-.006.281H95.59a2.391,2.391,0,0,0,.58,1.57,1.727,1.727,0,0,0,1.3.545,1.614,1.614,0,0,0,.99-.3A2.023,2.023,0,0,0,99.111-2ZM95.648-3.709h3.475a2.108,2.108,0,0,0-.4-1.178A1.616,1.616,0,0,0,97.418-5.5,1.675,1.675,0,0,0,96.2-5.01,1.925,1.925,0,0,0,95.648-3.709ZM101.5,0V-8.59h1.055V0Zm6.023,0V-6.223h.943v.873a2.218,2.218,0,0,1,.779-.735,2.189,2.189,0,0,1,1.107-.278,2.047,2.047,0,0,1,1.134.287,1.537,1.537,0,0,1,.624.8,2.234,2.234,0,0,1,1.922-1.09,1.894,1.894,0,0,1,1.424.513,2.191,2.191,0,0,1,.5,1.579V0h-1.049V-3.92a2.886,2.886,0,0,0-.1-.911.883.883,0,0,0-.372-.448,1.161,1.161,0,0,0-.633-.17,1.473,1.473,0,0,0-1.09.437,1.923,1.923,0,0,0-.434,1.4V0h-1.055V-4.043a1.779,1.779,0,0,0-.258-1.055.976.976,0,0,0-.844-.352,1.533,1.533,0,0,0-.823.234,1.329,1.329,0,0,0-.548.686,3.859,3.859,0,0,0-.17,1.3V0Zm9.6-3.111a3.207,3.207,0,0,1,.961-2.561,2.9,2.9,0,0,1,1.957-.691,2.792,2.792,0,0,1,2.1.841,3.2,3.2,0,0,1,.814,2.323,4.117,4.117,0,0,1-.36,1.89A2.551,2.551,0,0,1,121.55-.24a3.054,3.054,0,0,1-1.5.381A2.8,2.8,0,0,1,117.935-.7,3.347,3.347,0,0,1,117.129-3.111Zm1.084,0a2.65,2.65,0,0,0,.521,1.79,1.672,1.672,0,0,0,1.313.595,1.662,1.662,0,0,0,1.307-.6,2.713,2.713,0,0,0,.521-1.822,2.571,2.571,0,0,0-.524-1.749,1.668,1.668,0,0,0-1.3-.595,1.675,1.675,0,0,0-1.312.592A2.639,2.639,0,0,0,118.213-3.111ZM125.924,0l-2.367-6.223h1.113L126.006-2.5q.217.6.4,1.254.141-.492.393-1.184l1.383-3.8h1.084L126.908,0ZM130.2-7.377V-8.59h1.055v1.213ZM130.2,0V-6.223h1.055V0Zm2.66,0V-6.223h.943v.873a2.218,2.218,0,0,1,.779-.735,2.189,2.189,0,0,1,1.107-.278,2.047,2.047,0,0,1,1.134.287,1.537,1.537,0,0,1,.624.8,2.234,2.234,0,0,1,1.922-1.09,1.894,1.894,0,0,1,1.424.513,2.191,2.191,0,0,1,.5,1.579V0h-1.049V-3.92a2.886,2.886,0,0,0-.1-.911.883.883,0,0,0-.372-.448,1.161,1.161,0,0,0-.633-.17,1.473,1.473,0,0,0-1.09.437,1.923,1.923,0,0,0-.434,1.4V0h-1.055V-4.043A1.779,1.779,0,0,0,136.3-5.1a.976.976,0,0,0-.844-.352,1.533,1.533,0,0,0-.823.234,1.329,1.329,0,0,0-.548.686,3.859,3.859,0,0,0-.17,1.3V0Zm10-7.377V-8.59h1.055v1.213Zm0,7.377V-6.223h1.055V0Zm6.92-2,1.09.135a2.659,2.659,0,0,1-.955,1.482,2.871,2.871,0,0,1-1.781.527A2.846,2.846,0,0,1,145.972-.7a3.285,3.285,0,0,1-.8-2.358A3.438,3.438,0,0,1,145.98-5.5a2.737,2.737,0,0,1,2.1-.867,2.66,2.66,0,0,1,2.039.85,3.376,3.376,0,0,1,.791,2.391q0,.094-.006.281h-4.641a2.391,2.391,0,0,0,.58,1.57,1.727,1.727,0,0,0,1.3.545,1.614,1.614,0,0,0,.99-.3A2.023,2.023,0,0,0,149.783-2ZM146.32-3.709h3.475a2.108,2.108,0,0,0-.4-1.178A1.616,1.616,0,0,0,148.09-5.5a1.675,1.675,0,0,0-1.222.486A1.925,1.925,0,0,0,146.32-3.709ZM152.2,0V-6.223h.949v.885a2.237,2.237,0,0,1,1.98-1.025,2.6,2.6,0,0,1,1.034.2,1.627,1.627,0,0,1,.706.53,2.035,2.035,0,0,1,.328.779,6.039,6.039,0,0,1,.059,1.025V0H156.2V-3.785a2.841,2.841,0,0,0-.123-.964,1.014,1.014,0,0,0-.437-.51,1.389,1.389,0,0,0-.735-.19,1.709,1.709,0,0,0-1.163.428,2.11,2.11,0,0,0-.489,1.623V0Zm8.977-.943.152.932a3.912,3.912,0,0,1-.8.094,1.8,1.8,0,0,1-.891-.182,1.017,1.017,0,0,1-.445-.478,3.776,3.776,0,0,1-.129-1.245V-5.4h-.773v-.82h.773V-7.764l1.049-.633v2.174h1.061v.82h-1.061v3.639a1.838,1.838,0,0,0,.056.58.439.439,0,0,0,.182.205.7.7,0,0,0,.36.076A3.431,3.431,0,0,0,161.174-.943Zm.639-2.168a3.207,3.207,0,0,1,.961-2.561,2.9,2.9,0,0,1,1.957-.691,2.792,2.792,0,0,1,2.1.841,3.2,3.2,0,0,1,.814,2.323,4.117,4.117,0,0,1-.36,1.89A2.551,2.551,0,0,1,166.233-.24a3.054,3.054,0,0,1-1.5.381A2.8,2.8,0,0,1,162.618-.7,3.347,3.347,0,0,1,161.813-3.111Zm1.084,0a2.65,2.65,0,0,0,.521,1.79,1.672,1.672,0,0,0,1.313.595,1.662,1.662,0,0,0,1.307-.6,2.713,2.713,0,0,0,.521-1.822,2.571,2.571,0,0,0-.524-1.749,1.668,1.668,0,0,0-1.3-.595,1.675,1.675,0,0,0-1.312.592A2.639,2.639,0,0,0,162.9-3.111Zm11.332,5.637a10.544,10.544,0,0,1-1.477-2.578,8.01,8.01,0,0,1-.6-3.059,7.963,7.963,0,0,1,.451-2.672,11.231,11.231,0,0,1,1.629-2.953h.756q-.709,1.219-.937,1.74a9.507,9.507,0,0,0-.562,1.688,9.8,9.8,0,0,0-.252,2.2,10.574,10.574,0,0,0,1.752,5.631ZM176.332,0V-8.59H177.5l4.512,6.744V-8.59h1.09V0h-1.166l-4.512-6.75V0Zm8.549-7.377V-8.59h1.055v1.213Zm0,7.377V-6.223h1.055V0Zm4.389,0L186.9-6.223h1.113L189.352-2.5q.217.6.4,1.254.141-.492.393-1.184l1.383-3.8h1.084L190.254,0ZM197.8-2l1.09.135a2.659,2.659,0,0,1-.955,1.482,2.871,2.871,0,0,1-1.781.527A2.846,2.846,0,0,1,193.989-.7a3.285,3.285,0,0,1-.8-2.358A3.438,3.438,0,0,1,194-5.5a2.737,2.737,0,0,1,2.1-.867,2.66,2.66,0,0,1,2.039.85,3.376,3.376,0,0,1,.791,2.391q0,.094-.006.281h-4.641a2.391,2.391,0,0,0,.58,1.57,1.727,1.727,0,0,0,1.3.545,1.614,1.614,0,0,0,.99-.3A2.023,2.023,0,0,0,197.8-2Zm-3.463-1.705h3.475a2.108,2.108,0,0,0-.4-1.178,1.616,1.616,0,0,0-1.307-.609,1.675,1.675,0,0,0-1.222.486A1.925,1.925,0,0,0,194.338-3.709ZM200.191,0V-8.59h1.055V0Zm9.7,0H208.84V-6.721a5.451,5.451,0,0,1-1,.727,7.082,7.082,0,0,1-1.11.545v-1.02a6.369,6.369,0,0,0,1.547-1.008,3.964,3.964,0,0,0,.938-1.148h.68Z" transform="translate(1311.695 2466.632)" fill="#20143b"/>
    <path id="Trazado_137" data-name="Trazado 137" d="M1.482,2.525H.727A10.574,10.574,0,0,0,2.479-3.105a9.623,9.623,0,0,0-.252-2.186A9.186,9.186,0,0,0,1.67-6.979,19.8,19.8,0,0,0,.727-8.736h.756A11.231,11.231,0,0,1,3.111-5.783a7.963,7.963,0,0,1,.451,2.672A7.977,7.977,0,0,1,2.956-.053,10.73,10.73,0,0,1,1.482,2.525Z" transform="translate(1523.639 2466.632)" fill="#20143b"/>
    <path id="Trazado_138" data-name="Trazado 138" d="M.885,0V-8.59H6.773v1.453H2.619V-5.1H6.205V-3.65H2.619V0Zm11.4,0V-.932a2.4,2.4,0,0,1-.894.785,2.5,2.5,0,0,1-1.169.287A2.286,2.286,0,0,1,9.1-.135a1.626,1.626,0,0,1-.721-.773,3.451,3.451,0,0,1-.223-1.377V-6.223H9.8v2.859a7.929,7.929,0,0,0,.091,1.608.877.877,0,0,0,.331.469,1.017,1.017,0,0,0,.609.173,1.3,1.3,0,0,0,.756-.231,1.177,1.177,0,0,0,.457-.574A6.665,6.665,0,0,0,12.17-3.6V-6.223h1.646V0Zm8.895,0H19.535V-3.176a4.908,4.908,0,0,0-.105-1.3.914.914,0,0,0-.343-.46.98.98,0,0,0-.571-.164,1.32,1.32,0,0,0-.768.234,1.181,1.181,0,0,0-.466.621,5.369,5.369,0,0,0-.126,1.43V0H15.51V-6.223h1.529v.914A2.492,2.492,0,0,1,19.09-6.363a2.47,2.47,0,0,1,1,.2,1.669,1.669,0,0,1,.683.5,1.815,1.815,0,0,1,.322.691,5.143,5.143,0,0,1,.091,1.107Zm7.1-4.383-1.623.293a1.178,1.178,0,0,0-.372-.732,1.124,1.124,0,0,0-.753-.246,1.23,1.23,0,0,0-.981.425,2.177,2.177,0,0,0-.366,1.421,2.518,2.518,0,0,0,.372,1.564,1.222,1.222,0,0,0,1,.457,1.11,1.11,0,0,0,.768-.267,1.6,1.6,0,0,0,.422-.917l1.617.275a2.87,2.87,0,0,1-.967,1.682,2.993,2.993,0,0,1-1.916.568A2.849,2.849,0,0,1,23.3-.721a3.339,3.339,0,0,1-.812-2.385A3.347,3.347,0,0,1,23.3-5.5a2.893,2.893,0,0,1,2.2-.858,3.006,3.006,0,0,1,1.808.489A2.711,2.711,0,0,1,28.277-4.383Zm1.248-2.684V-8.59h1.646v1.523Zm0,7.066V-6.223h1.646V0Zm2.953-3.2a3.366,3.366,0,0,1,.4-1.588,2.775,2.775,0,0,1,1.146-1.172,3.4,3.4,0,0,1,1.655-.4A3.107,3.107,0,0,1,38-5.446a3.168,3.168,0,0,1,.9,2.317,3.206,3.206,0,0,1-.911,2.341A3.08,3.08,0,0,1,35.7.141a3.613,3.613,0,0,1-1.632-.387A2.653,2.653,0,0,1,32.883-1.38,3.778,3.778,0,0,1,32.479-3.2Zm1.688.088a2.062,2.062,0,0,0,.439,1.418,1.4,1.4,0,0,0,1.084.492,1.387,1.387,0,0,0,1.081-.492,2.09,2.09,0,0,0,.437-1.43,2.052,2.052,0,0,0-.437-1.406,1.387,1.387,0,0,0-1.081-.492,1.4,1.4,0,0,0-1.084.492A2.062,2.062,0,0,0,34.166-3.111ZM45.85,0H44.2V-3.176a4.908,4.908,0,0,0-.105-1.3.914.914,0,0,0-.343-.46.98.98,0,0,0-.571-.164,1.32,1.32,0,0,0-.768.234,1.181,1.181,0,0,0-.466.621,5.369,5.369,0,0,0-.126,1.43V0H40.178V-6.223h1.529v.914a2.492,2.492,0,0,1,2.051-1.055,2.47,2.47,0,0,1,1,.2,1.669,1.669,0,0,1,.683.5,1.815,1.815,0,0,1,.322.691,5.143,5.143,0,0,1,.091,1.107Zm5.273-1.98,1.641.275a2.691,2.691,0,0,1-1,1.374,2.935,2.935,0,0,1-1.708.472,2.784,2.784,0,0,1-2.4-1.061,3.563,3.563,0,0,1-.615-2.145,3.436,3.436,0,0,1,.809-2.423,2.663,2.663,0,0,1,2.045-.876,2.762,2.762,0,0,1,2.191.917,4.057,4.057,0,0,1,.768,2.81H48.727a1.666,1.666,0,0,0,.4,1.14,1.246,1.246,0,0,0,.949.407,1.008,1.008,0,0,0,.65-.211A1.3,1.3,0,0,0,51.123-1.98Zm.094-1.664a1.585,1.585,0,0,0-.369-1.087,1.133,1.133,0,0,0-.855-.372,1.144,1.144,0,0,0-.891.393,1.519,1.519,0,0,0-.346,1.066Zm2.4,1.869,1.652-.252a1.211,1.211,0,0,0,.428.729,1.445,1.445,0,0,0,.9.249,1.629,1.629,0,0,0,.961-.234.523.523,0,0,0,.217-.439.432.432,0,0,0-.117-.311,1.312,1.312,0,0,0-.551-.217,8.882,8.882,0,0,1-2.525-.8,1.6,1.6,0,0,1-.738-1.4,1.726,1.726,0,0,1,.639-1.359,2.982,2.982,0,0,1,1.98-.551,3.455,3.455,0,0,1,1.9.416,2.126,2.126,0,0,1,.855,1.23l-1.553.287a.96.96,0,0,0-.378-.557,1.382,1.382,0,0,0-.794-.193A1.789,1.789,0,0,0,55.559-5a.39.39,0,0,0-.187.334.364.364,0,0,0,.164.3,6.177,6.177,0,0,0,1.538.463,4.579,4.579,0,0,1,1.837.732,1.522,1.522,0,0,1,.516,1.225,1.88,1.88,0,0,1-.715,1.471A3.164,3.164,0,0,1,56.6.141a3.471,3.471,0,0,1-2.013-.516A2.376,2.376,0,0,1,53.613-1.775ZM65.777,0H64.131V-6.223H65.66v.885a2.659,2.659,0,0,1,.706-.826,1.3,1.3,0,0,1,.712-.2,2.09,2.09,0,0,1,1.084.311l-.51,1.436a1.445,1.445,0,0,0-.773-.27.914.914,0,0,0-.586.19,1.3,1.3,0,0,0-.378.688,9.781,9.781,0,0,0-.138,2.086Zm6.7-1.98,1.641.275a2.691,2.691,0,0,1-1,1.374,2.935,2.935,0,0,1-1.708.472,2.784,2.784,0,0,1-2.4-1.061,3.563,3.563,0,0,1-.615-2.145A3.436,3.436,0,0,1,69.2-5.487a2.663,2.663,0,0,1,2.045-.876,2.762,2.762,0,0,1,2.191.917,4.057,4.057,0,0,1,.768,2.81H70.078a1.666,1.666,0,0,0,.4,1.14,1.246,1.246,0,0,0,.949.407,1.008,1.008,0,0,0,.65-.211A1.3,1.3,0,0,0,72.475-1.98Zm.094-1.664A1.585,1.585,0,0,0,72.2-4.731a1.133,1.133,0,0,0-.855-.372,1.144,1.144,0,0,0-.891.393,1.519,1.519,0,0,0-.346,1.066ZM75.545,0V-8.59h1.646V0Zm4.564-4.324-1.494-.27a2.327,2.327,0,0,1,.867-1.336,3.173,3.173,0,0,1,1.828-.434,3.94,3.94,0,0,1,1.641.261,1.636,1.636,0,0,1,.759.662,3.4,3.4,0,0,1,.22,1.474l-.018,1.922a6.672,6.672,0,0,0,.079,1.21,3.532,3.532,0,0,0,.3.835H82.658q-.064-.164-.158-.486-.041-.146-.059-.193a2.968,2.968,0,0,1-.9.615,2.584,2.584,0,0,1-1.025.205A2.12,2.12,0,0,1,79-.381,1.733,1.733,0,0,1,78.445-1.7a1.77,1.77,0,0,1,.252-.94,1.646,1.646,0,0,1,.706-.633,5.518,5.518,0,0,1,1.31-.384,8.971,8.971,0,0,0,1.6-.4v-.164a.853.853,0,0,0-.234-.677,1.4,1.4,0,0,0-.885-.2,1.178,1.178,0,0,0-.686.173A1.2,1.2,0,0,0,80.109-4.324Zm2.2,1.336a10.292,10.292,0,0,1-1,.252,3.018,3.018,0,0,0-.9.287.687.687,0,0,0-.322.58.808.808,0,0,0,.258.6.9.9,0,0,0,.656.252,1.426,1.426,0,0,0,.85-.293,1.031,1.031,0,0,0,.393-.545,3.251,3.251,0,0,0,.064-.8Zm8.666-1.395-1.623.293a1.178,1.178,0,0,0-.372-.732,1.124,1.124,0,0,0-.753-.246,1.23,1.23,0,0,0-.981.425,2.177,2.177,0,0,0-.366,1.421,2.518,2.518,0,0,0,.372,1.564,1.222,1.222,0,0,0,1,.457,1.11,1.11,0,0,0,.768-.267,1.6,1.6,0,0,0,.422-.917l1.617.275a2.87,2.87,0,0,1-.967,1.682,2.993,2.993,0,0,1-1.916.568A2.849,2.849,0,0,1,86-.721a3.339,3.339,0,0,1-.812-2.385A3.347,3.347,0,0,1,86-5.5a2.893,2.893,0,0,1,2.2-.858,3.006,3.006,0,0,1,1.808.489A2.711,2.711,0,0,1,90.979-4.383Zm1.248-2.684V-8.59h1.646v1.523Zm0,7.066V-6.223h1.646V0ZM95.18-3.2a3.366,3.366,0,0,1,.4-1.588,2.775,2.775,0,0,1,1.146-1.172,3.4,3.4,0,0,1,1.655-.4,3.107,3.107,0,0,1,2.314.917,3.168,3.168,0,0,1,.9,2.317,3.206,3.206,0,0,1-.911,2.341A3.08,3.08,0,0,1,98.4.141a3.613,3.613,0,0,1-1.632-.387A2.653,2.653,0,0,1,95.584-1.38,3.778,3.778,0,0,1,95.18-3.2Zm1.688.088a2.062,2.062,0,0,0,.439,1.418,1.4,1.4,0,0,0,1.084.492,1.387,1.387,0,0,0,1.081-.492,2.09,2.09,0,0,0,.437-1.43,2.052,2.052,0,0,0-.437-1.406,1.387,1.387,0,0,0-1.081-.492,1.4,1.4,0,0,0-1.084.492A2.062,2.062,0,0,0,96.867-3.111ZM108.551,0H106.9V-3.176a4.908,4.908,0,0,0-.105-1.3.914.914,0,0,0-.343-.46.98.98,0,0,0-.571-.164,1.32,1.32,0,0,0-.768.234,1.181,1.181,0,0,0-.466.621,5.369,5.369,0,0,0-.126,1.43V0h-1.646V-6.223h1.529v.914a2.492,2.492,0,0,1,2.051-1.055,2.47,2.47,0,0,1,1,.2,1.669,1.669,0,0,1,.683.5,1.815,1.815,0,0,1,.322.691,5.143,5.143,0,0,1,.091,1.107Zm2.9-4.324-1.494-.27a2.327,2.327,0,0,1,.867-1.336,3.173,3.173,0,0,1,1.828-.434,3.94,3.94,0,0,1,1.641.261,1.636,1.636,0,0,1,.759.662,3.4,3.4,0,0,1,.22,1.474l-.018,1.922a6.672,6.672,0,0,0,.079,1.21,3.532,3.532,0,0,0,.3.835H114q-.064-.164-.158-.486-.041-.146-.059-.193a2.968,2.968,0,0,1-.9.615,2.584,2.584,0,0,1-1.025.205,2.12,2.12,0,0,1-1.515-.521,1.733,1.733,0,0,1-.554-1.318,1.77,1.77,0,0,1,.252-.94,1.646,1.646,0,0,1,.706-.633,5.518,5.518,0,0,1,1.31-.384,8.971,8.971,0,0,0,1.6-.4v-.164a.853.853,0,0,0-.234-.677,1.4,1.4,0,0,0-.885-.2,1.178,1.178,0,0,0-.686.173A1.2,1.2,0,0,0,111.451-4.324Zm2.2,1.336a10.292,10.292,0,0,1-1,.252,3.018,3.018,0,0,0-.9.287.687.687,0,0,0-.322.58.808.808,0,0,0,.258.6.9.9,0,0,0,.656.252,1.426,1.426,0,0,0,.85-.293,1.031,1.031,0,0,0,.393-.545,3.251,3.251,0,0,0,.064-.8ZM122.6,0h-1.529V-.914a2.471,2.471,0,0,1-.9.794,2.308,2.308,0,0,1-1.046.261,2.37,2.37,0,0,1-1.837-.864,3.516,3.516,0,0,1-.765-2.411,3.474,3.474,0,0,1,.744-2.405,2.426,2.426,0,0,1,1.881-.823,2.33,2.33,0,0,1,1.8.867V-8.59H122.6Zm-4.395-3.246a2.849,2.849,0,0,0,.275,1.441,1.244,1.244,0,0,0,1.113.645,1.212,1.212,0,0,0,.967-.483,2.231,2.231,0,0,0,.4-1.444,2.442,2.442,0,0,0-.387-1.544,1.224,1.224,0,0,0-.99-.472,1.237,1.237,0,0,0-.981.466A2.1,2.1,0,0,0,118.207-3.246Zm7.248-1.078-1.494-.27a2.327,2.327,0,0,1,.867-1.336,3.173,3.173,0,0,1,1.828-.434A3.94,3.94,0,0,1,128.3-6.1a1.636,1.636,0,0,1,.759.662,3.4,3.4,0,0,1,.22,1.474l-.018,1.922a6.672,6.672,0,0,0,.079,1.21,3.532,3.532,0,0,0,.3.835H128q-.064-.164-.158-.486-.041-.146-.059-.193a2.968,2.968,0,0,1-.9.615,2.584,2.584,0,0,1-1.025.205,2.12,2.12,0,0,1-1.515-.521,1.733,1.733,0,0,1-.554-1.318,1.77,1.77,0,0,1,.252-.94,1.646,1.646,0,0,1,.706-.633,5.518,5.518,0,0,1,1.31-.384,8.971,8.971,0,0,0,1.6-.4v-.164a.853.853,0,0,0-.234-.677,1.4,1.4,0,0,0-.885-.2,1.178,1.178,0,0,0-.686.173A1.2,1.2,0,0,0,125.455-4.324Zm2.2,1.336a10.292,10.292,0,0,1-1,.252,3.018,3.018,0,0,0-.9.287.687.687,0,0,0-.322.58.808.808,0,0,0,.258.6.9.9,0,0,0,.656.252,1.426,1.426,0,0,0,.85-.293,1.031,1.031,0,0,0,.393-.545,3.251,3.251,0,0,0,.064-.8Zm2.66,1.213,1.652-.252a1.211,1.211,0,0,0,.428.729,1.445,1.445,0,0,0,.9.249,1.629,1.629,0,0,0,.961-.234.523.523,0,0,0,.217-.439.432.432,0,0,0-.117-.311,1.312,1.312,0,0,0-.551-.217,8.882,8.882,0,0,1-2.525-.8,1.6,1.6,0,0,1-.738-1.4,1.726,1.726,0,0,1,.639-1.359,2.982,2.982,0,0,1,1.98-.551,3.455,3.455,0,0,1,1.9.416,2.126,2.126,0,0,1,.855,1.23l-1.553.287a.96.96,0,0,0-.378-.557,1.382,1.382,0,0,0-.794-.193,1.789,1.789,0,0,0-.932.182.39.39,0,0,0-.187.334.364.364,0,0,0,.164.3,6.177,6.177,0,0,0,1.538.463,4.579,4.579,0,0,1,1.837.732,1.522,1.522,0,0,1,.516,1.225,1.88,1.88,0,0,1-.715,1.471A3.164,3.164,0,0,1,133.3.141a3.471,3.471,0,0,1-2.013-.516A2.376,2.376,0,0,1,130.318-1.775Zm16.014-2.607-1.623.293a1.178,1.178,0,0,0-.372-.732,1.124,1.124,0,0,0-.753-.246,1.23,1.23,0,0,0-.981.425,2.177,2.177,0,0,0-.366,1.421,2.518,2.518,0,0,0,.372,1.564,1.222,1.222,0,0,0,1,.457,1.11,1.11,0,0,0,.768-.267,1.6,1.6,0,0,0,.422-.917l1.617.275a2.87,2.87,0,0,1-.967,1.682,2.993,2.993,0,0,1-1.916.568,2.849,2.849,0,0,1-2.177-.861,3.339,3.339,0,0,1-.812-2.385,3.347,3.347,0,0,1,.814-2.4,2.893,2.893,0,0,1,2.2-.858,3.006,3.006,0,0,1,1.808.489A2.711,2.711,0,0,1,146.332-4.383ZM147.2-3.2a3.366,3.366,0,0,1,.4-1.588,2.775,2.775,0,0,1,1.146-1.172,3.4,3.4,0,0,1,1.655-.4,3.107,3.107,0,0,1,2.314.917,3.168,3.168,0,0,1,.9,2.317,3.206,3.206,0,0,1-.911,2.341,3.08,3.08,0,0,1-2.294.929,3.613,3.613,0,0,1-1.632-.387A2.653,2.653,0,0,1,147.6-1.38,3.778,3.778,0,0,1,147.2-3.2Zm1.688.088a2.062,2.062,0,0,0,.439,1.418,1.4,1.4,0,0,0,1.084.492,1.387,1.387,0,0,0,1.081-.492,2.09,2.09,0,0,0,.437-1.43,2.052,2.052,0,0,0-.437-1.406,1.387,1.387,0,0,0-1.081-.492,1.4,1.4,0,0,0-1.084.492A2.062,2.062,0,0,0,148.887-3.111ZM160.57,0h-1.646V-3.176a4.908,4.908,0,0,0-.105-1.3.914.914,0,0,0-.343-.46A.98.98,0,0,0,157.9-5.1a1.32,1.32,0,0,0-.768.234,1.181,1.181,0,0,0-.466.621,5.369,5.369,0,0,0-.126,1.43V0H154.9V-6.223h1.529v.914a2.492,2.492,0,0,1,2.051-1.055,2.47,2.47,0,0,1,1,.2,1.669,1.669,0,0,1,.683.5,1.815,1.815,0,0,1,.322.691,5.143,5.143,0,0,1,.091,1.107Zm8.607-1.98,1.641.275a2.691,2.691,0,0,1-1,1.374,2.935,2.935,0,0,1-1.708.472,2.784,2.784,0,0,1-2.4-1.061,3.563,3.563,0,0,1-.615-2.145,3.436,3.436,0,0,1,.809-2.423,2.663,2.663,0,0,1,2.045-.876,2.762,2.762,0,0,1,2.191.917,4.057,4.057,0,0,1,.768,2.81h-4.125a1.666,1.666,0,0,0,.4,1.14,1.246,1.246,0,0,0,.949.407,1.008,1.008,0,0,0,.65-.211A1.3,1.3,0,0,0,169.178-1.98Zm.094-1.664a1.585,1.585,0,0,0-.369-1.087,1.133,1.133,0,0,0-.855-.372,1.144,1.144,0,0,0-.891.393,1.519,1.519,0,0,0-.346,1.066ZM172.248,0V-8.59h1.646V0Zm6.621-6.223H180.4v.914a2.3,2.3,0,0,1,.809-.762,2.229,2.229,0,0,1,1.131-.293,2.372,2.372,0,0,1,1.84.85,3.439,3.439,0,0,1,.756,2.367,3.543,3.543,0,0,1-.762,2.423,2.373,2.373,0,0,1-1.846.864,2.1,2.1,0,0,1-.935-.205,3.15,3.15,0,0,1-.882-.7V2.367h-1.646ZM180.5-3.217a2.4,2.4,0,0,0,.416,1.55,1.273,1.273,0,0,0,1.014.5,1.19,1.19,0,0,0,.955-.46,2.37,2.37,0,0,0,.381-1.509,2.249,2.249,0,0,0-.393-1.453,1.214,1.214,0,0,0-.973-.475,1.263,1.263,0,0,0-1,.466A2.073,2.073,0,0,0,180.5-3.217Zm6.979-1.107-1.494-.27a2.327,2.327,0,0,1,.867-1.336,3.173,3.173,0,0,1,1.828-.434,3.94,3.94,0,0,1,1.641.261,1.636,1.636,0,0,1,.759.662,3.4,3.4,0,0,1,.22,1.474l-.018,1.922a6.672,6.672,0,0,0,.079,1.21,3.532,3.532,0,0,0,.3.835h-1.629q-.064-.164-.158-.486-.041-.146-.059-.193a2.968,2.968,0,0,1-.9.615,2.584,2.584,0,0,1-1.025.205,2.12,2.12,0,0,1-1.515-.521,1.733,1.733,0,0,1-.554-1.318,1.77,1.77,0,0,1,.252-.94,1.646,1.646,0,0,1,.706-.633,5.518,5.518,0,0,1,1.31-.384,8.971,8.971,0,0,0,1.6-.4v-.164a.853.853,0,0,0-.234-.677,1.4,1.4,0,0,0-.885-.2,1.178,1.178,0,0,0-.686.173A1.2,1.2,0,0,0,187.477-4.324Zm2.2,1.336a10.292,10.292,0,0,1-1,.252,3.018,3.018,0,0,0-.9.287.687.687,0,0,0-.322.58.808.808,0,0,0,.258.6.9.9,0,0,0,.656.252,1.426,1.426,0,0,0,.85-.293,1.031,1.031,0,0,0,.393-.545,3.251,3.251,0,0,0,.064-.8Zm6.094-3.234V-4.91h-1.125V-2.4a6.237,6.237,0,0,0,.032.888.362.362,0,0,0,.146.208.465.465,0,0,0,.278.082,2.13,2.13,0,0,0,.662-.158l.141,1.277a3.273,3.273,0,0,1-1.3.246,2.063,2.063,0,0,1-.8-.149A1.172,1.172,0,0,1,193.28-.4a1.526,1.526,0,0,1-.231-.642A7.981,7.981,0,0,1,193-2.2V-4.91h-.756V-6.223H193V-7.459l1.652-.961v2.2ZM198.492,0h-1.646V-6.223h1.529v.885a2.659,2.659,0,0,1,.706-.826,1.3,1.3,0,0,1,.712-.2,2.09,2.09,0,0,1,1.084.311l-.51,1.436a1.445,1.445,0,0,0-.773-.27.914.914,0,0,0-.586.19,1.3,1.3,0,0,0-.378.688,9.781,9.781,0,0,0-.138,2.086Zm2.713-3.2a3.366,3.366,0,0,1,.4-1.588,2.775,2.775,0,0,1,1.146-1.172,3.4,3.4,0,0,1,1.655-.4,3.107,3.107,0,0,1,2.314.917,3.168,3.168,0,0,1,.9,2.317,3.206,3.206,0,0,1-.911,2.341,3.08,3.08,0,0,1-2.294.929,3.613,3.613,0,0,1-1.632-.387,2.653,2.653,0,0,1-1.181-1.134A3.778,3.778,0,0,1,201.205-3.2Zm1.688.088a2.062,2.062,0,0,0,.439,1.418,1.4,1.4,0,0,0,1.084.492,1.387,1.387,0,0,0,1.081-.492,2.09,2.09,0,0,0,.437-1.43,2.052,2.052,0,0,0-.437-1.406,1.387,1.387,0,0,0-1.081-.492,1.4,1.4,0,0,0-1.084.492A2.062,2.062,0,0,0,202.893-3.111Zm.691-3.873.809-1.752h1.846l-1.611,1.752ZM214.576,0H212.93V-3.176a4.908,4.908,0,0,0-.105-1.3.914.914,0,0,0-.343-.46.98.98,0,0,0-.571-.164,1.32,1.32,0,0,0-.768.234,1.181,1.181,0,0,0-.466.621,5.369,5.369,0,0,0-.126,1.43V0H208.9V-6.223h1.529v.914a2.492,2.492,0,0,1,2.051-1.055,2.47,2.47,0,0,1,1,.2,1.669,1.669,0,0,1,.683.5,1.815,1.815,0,0,1,.322.691,5.143,5.143,0,0,1,.091,1.107Zm10.711,0h-1.529V-.914a2.471,2.471,0,0,1-.9.794,2.308,2.308,0,0,1-1.046.261,2.37,2.37,0,0,1-1.837-.864,3.516,3.516,0,0,1-.765-2.411,3.474,3.474,0,0,1,.744-2.405,2.426,2.426,0,0,1,1.881-.823,2.33,2.33,0,0,1,1.8.867V-8.59h1.646Zm-4.395-3.246a2.849,2.849,0,0,0,.275,1.441,1.244,1.244,0,0,0,1.113.645,1.212,1.212,0,0,0,.967-.483,2.231,2.231,0,0,0,.4-1.444,2.442,2.442,0,0,0-.387-1.544,1.224,1.224,0,0,0-.99-.472,1.237,1.237,0,0,0-.981.466A2.1,2.1,0,0,0,220.893-3.246Zm9.621,1.266,1.641.275a2.691,2.691,0,0,1-1,1.374,2.935,2.935,0,0,1-1.708.472,2.784,2.784,0,0,1-2.4-1.061,3.563,3.563,0,0,1-.615-2.145,3.436,3.436,0,0,1,.809-2.423,2.663,2.663,0,0,1,2.045-.876,2.762,2.762,0,0,1,2.191.917,4.057,4.057,0,0,1,.768,2.81h-4.125a1.666,1.666,0,0,0,.4,1.14,1.246,1.246,0,0,0,.949.407,1.008,1.008,0,0,0,.65-.211A1.3,1.3,0,0,0,230.514-1.98Zm.094-1.664a1.585,1.585,0,0,0-.369-1.087,1.133,1.133,0,0,0-.855-.372,1.144,1.144,0,0,0-.891.393,1.519,1.519,0,0,0-.346,1.066ZM236.918,0V-8.59h1.646V0Zm4.564-4.324-1.494-.27a2.327,2.327,0,0,1,.867-1.336,3.173,3.173,0,0,1,1.828-.434,3.94,3.94,0,0,1,1.641.261,1.636,1.636,0,0,1,.759.662,3.4,3.4,0,0,1,.22,1.474l-.018,1.922a6.672,6.672,0,0,0,.079,1.21,3.532,3.532,0,0,0,.3.835h-1.629q-.064-.164-.158-.486-.041-.146-.059-.193a2.968,2.968,0,0,1-.9.615,2.584,2.584,0,0,1-1.025.205,2.12,2.12,0,0,1-1.515-.521,1.733,1.733,0,0,1-.554-1.318,1.77,1.77,0,0,1,.252-.94,1.646,1.646,0,0,1,.706-.633,5.518,5.518,0,0,1,1.31-.384,8.971,8.971,0,0,0,1.6-.4v-.164a.853.853,0,0,0-.234-.677,1.4,1.4,0,0,0-.885-.2,1.178,1.178,0,0,0-.686.173A1.2,1.2,0,0,0,241.482-4.324Zm2.2,1.336a10.292,10.292,0,0,1-1,.252,3.018,3.018,0,0,0-.9.287.687.687,0,0,0-.322.58.808.808,0,0,0,.258.6.9.9,0,0,0,.656.252,1.426,1.426,0,0,0,.85-.293,1.031,1.031,0,0,0,.393-.545,3.251,3.251,0,0,0,.064-.8Z" transform="translate(1311.695 2495.432)" fill="#20143b"/>
    <path id="Trazado_139" data-name="Trazado 139" transform="translate(1557.647 2495.432)" fill="#20143b"/>
    <path id="Trazado_140" data-name="Trazado 140" d="M.738-6.223H2.256v.85A2.442,2.442,0,0,1,4.2-6.363a2.089,2.089,0,0,1,1.037.246,1.891,1.891,0,0,1,.721.744,2.875,2.875,0,0,1,.885-.744,2.171,2.171,0,0,1,1.014-.246,2.258,2.258,0,0,1,1.16.278,1.705,1.705,0,0,1,.709.817,3.546,3.546,0,0,1,.17,1.289V0H8.244V-3.557a2.646,2.646,0,0,0-.17-1.2.78.78,0,0,0-.7-.352,1.122,1.122,0,0,0-.65.211,1.17,1.17,0,0,0-.439.618,4.448,4.448,0,0,0-.135,1.286V0H4.5V-3.41a4.73,4.73,0,0,0-.088-1.172.748.748,0,0,0-.272-.393.861.861,0,0,0-.5-.129,1.2,1.2,0,0,0-.686.205,1.125,1.125,0,0,0-.437.592,4.4,4.4,0,0,0-.132,1.283V0H.738Zm12.023,1.9-1.494-.27a2.327,2.327,0,0,1,.867-1.336,3.173,3.173,0,0,1,1.828-.434A3.94,3.94,0,0,1,15.6-6.1a1.636,1.636,0,0,1,.759.662,3.4,3.4,0,0,1,.22,1.474l-.018,1.922a6.672,6.672,0,0,0,.079,1.21,3.532,3.532,0,0,0,.3.835H15.311q-.064-.164-.158-.486-.041-.146-.059-.193a2.968,2.968,0,0,1-.9.615,2.584,2.584,0,0,1-1.025.205,2.12,2.12,0,0,1-1.515-.521A1.733,1.733,0,0,1,11.1-1.7a1.77,1.77,0,0,1,.252-.94,1.646,1.646,0,0,1,.706-.633,5.518,5.518,0,0,1,1.31-.384,8.971,8.971,0,0,0,1.6-.4v-.164A.853.853,0,0,0,14.73-4.9a1.4,1.4,0,0,0-.885-.2,1.178,1.178,0,0,0-.686.173A1.2,1.2,0,0,0,12.762-4.324Zm2.2,1.336a10.292,10.292,0,0,1-1,.252,3.018,3.018,0,0,0-.9.287.687.687,0,0,0-.322.58.808.808,0,0,0,.258.6.9.9,0,0,0,.656.252,1.426,1.426,0,0,0,.85-.293,1.031,1.031,0,0,0,.393-.545,3.251,3.251,0,0,0,.064-.8ZM19.781,0H18.135V-6.223h1.529v.885a2.659,2.659,0,0,1,.706-.826,1.3,1.3,0,0,1,.712-.2,2.09,2.09,0,0,1,1.084.311l-.51,1.436a1.445,1.445,0,0,0-.773-.27.914.914,0,0,0-.586.19,1.3,1.3,0,0,0-.378.688,9.781,9.781,0,0,0-.138,2.086ZM28.3-4.383l-1.623.293a1.178,1.178,0,0,0-.372-.732,1.124,1.124,0,0,0-.753-.246,1.23,1.23,0,0,0-.981.425,2.177,2.177,0,0,0-.366,1.421,2.518,2.518,0,0,0,.372,1.564,1.222,1.222,0,0,0,1,.457,1.11,1.11,0,0,0,.768-.267,1.6,1.6,0,0,0,.422-.917l1.617.275a2.87,2.87,0,0,1-.967,1.682A2.993,2.993,0,0,1,25.5.141a2.849,2.849,0,0,1-2.177-.861,3.339,3.339,0,0,1-.812-2.385,3.347,3.347,0,0,1,.814-2.4,2.893,2.893,0,0,1,2.2-.858,3.006,3.006,0,0,1,1.808.489A2.711,2.711,0,0,1,28.3-4.383ZM31.189-8.59v3.158a2.428,2.428,0,0,1,1.9-.932,2.419,2.419,0,0,1,1.025.211,1.676,1.676,0,0,1,.688.539,1.954,1.954,0,0,1,.316.727,6.5,6.5,0,0,1,.085,1.236V0H33.563V-3.287a4.867,4.867,0,0,0-.094-1.242.815.815,0,0,0-.331-.419,1.065,1.065,0,0,0-.595-.155,1.364,1.364,0,0,0-.732.2,1.149,1.149,0,0,0-.472.6,3.587,3.587,0,0,0-.149,1.187V0H29.543V-8.59Zm6.92,4.266-1.494-.27a2.327,2.327,0,0,1,.867-1.336,3.173,3.173,0,0,1,1.828-.434,3.94,3.94,0,0,1,1.641.261,1.636,1.636,0,0,1,.759.662,3.4,3.4,0,0,1,.22,1.474l-.018,1.922a6.672,6.672,0,0,0,.079,1.21,3.532,3.532,0,0,0,.3.835H40.658q-.064-.164-.158-.486-.041-.146-.059-.193a2.968,2.968,0,0,1-.9.615,2.584,2.584,0,0,1-1.025.205A2.12,2.12,0,0,1,37-.381,1.733,1.733,0,0,1,36.445-1.7a1.77,1.77,0,0,1,.252-.94,1.646,1.646,0,0,1,.706-.633,5.518,5.518,0,0,1,1.31-.384,8.971,8.971,0,0,0,1.6-.4v-.164a.853.853,0,0,0-.234-.677,1.4,1.4,0,0,0-.885-.2,1.178,1.178,0,0,0-.686.173A1.2,1.2,0,0,0,38.109-4.324Zm2.2,1.336a10.292,10.292,0,0,1-1,.252,3.018,3.018,0,0,0-.9.287.687.687,0,0,0-.322.58.808.808,0,0,0,.258.6.9.9,0,0,0,.656.252,1.426,1.426,0,0,0,.85-.293,1.031,1.031,0,0,0,.393-.545,3.251,3.251,0,0,0,.064-.8Z" transform="translate(1311.695 2509.832)" fill="#20143b"/>
    <path id="Trazado_141" data-name="Trazado 141" d="M2.807,2.525A10.544,10.544,0,0,1,1.33-.053a8.01,8.01,0,0,1-.6-3.059,7.963,7.963,0,0,1,.451-2.672A11.231,11.231,0,0,1,2.807-8.736h.756Q2.854-7.518,2.625-7a9.507,9.507,0,0,0-.562,1.688,9.8,9.8,0,0,0-.252,2.2A10.574,10.574,0,0,0,3.563,2.525ZM4.91,0V-8.59H6.076l4.512,6.744V-8.59h1.09V0H10.512L6-6.75V0Zm8.549-7.377V-8.59h1.055v1.213Zm0,7.377V-6.223h1.055V0Zm4.389,0L15.48-6.223h1.113L17.93-2.5q.217.6.4,1.254.141-.492.393-1.184l1.383-3.8h1.084L18.832,0Zm8.531-2,1.09.135a2.659,2.659,0,0,1-.955,1.482,2.871,2.871,0,0,1-1.781.527A2.846,2.846,0,0,1,22.567-.7a3.285,3.285,0,0,1-.8-2.358A3.438,3.438,0,0,1,22.576-5.5a2.737,2.737,0,0,1,2.1-.867,2.66,2.66,0,0,1,2.039.85A3.376,3.376,0,0,1,27.5-3.123q0,.094-.006.281H22.857a2.391,2.391,0,0,0,.58,1.57,1.727,1.727,0,0,0,1.3.545,1.614,1.614,0,0,0,.99-.3A2.023,2.023,0,0,0,26.379-2ZM22.916-3.709h3.475a2.108,2.108,0,0,0-.4-1.178A1.616,1.616,0,0,0,24.686-5.5a1.675,1.675,0,0,0-1.222.486A1.925,1.925,0,0,0,22.916-3.709ZM28.77,0V-8.59h1.055V0ZM40.043-1.014V0H34.365a1.866,1.866,0,0,1,.123-.732,3.875,3.875,0,0,1,.694-1.143,10.878,10.878,0,0,1,1.38-1.3A11.7,11.7,0,0,0,38.455-5a2.178,2.178,0,0,0,.492-1.269A1.409,1.409,0,0,0,38.5-7.321a1.617,1.617,0,0,0-1.169-.431,1.647,1.647,0,0,0-1.219.457,1.729,1.729,0,0,0-.463,1.266l-1.084-.111A2.668,2.668,0,0,1,35.4-7.989a2.858,2.858,0,0,1,1.951-.636,2.723,2.723,0,0,1,1.957.686,2.251,2.251,0,0,1,.721,1.7,2.577,2.577,0,0,1-.211,1.014,3.934,3.934,0,0,1-.7,1.049,17.058,17.058,0,0,1-1.626,1.512q-.949.8-1.219,1.081a3.468,3.468,0,0,0-.445.571Z" transform="translate(1357.715 2509.832)" fill="#20143b"/>
    <path id="Trazado_142" data-name="Trazado 142" d="M1.482,2.525H.727A10.574,10.574,0,0,0,2.479-3.105a9.623,9.623,0,0,0-.252-2.186A9.186,9.186,0,0,0,1.67-6.979,19.8,19.8,0,0,0,.727-8.736h.756A11.231,11.231,0,0,1,3.111-5.783a7.963,7.963,0,0,1,.451,2.672A7.977,7.977,0,0,1,2.956-.053,10.73,10.73,0,0,1,1.482,2.525Z" transform="translate(1398.371 2509.832)" fill="#20143b"/>
    <path id="Trazado_143" data-name="Trazado 143" d="M1.764,0H.785V-8.59H1.84v3.064a2.087,2.087,0,0,1,1.705-.838,2.611,2.611,0,0,1,1.087.231,2.22,2.22,0,0,1,.844.65,3.144,3.144,0,0,1,.519,1.011,4.167,4.167,0,0,1,.188,1.266A3.555,3.555,0,0,1,5.391-.732a2.474,2.474,0,0,1-1.9.873,1.981,1.981,0,0,1-1.729-.92ZM1.752-3.158a3.23,3.23,0,0,0,.3,1.617A1.519,1.519,0,0,0,3.4-.727a1.517,1.517,0,0,0,1.2-.6,2.729,2.729,0,0,0,.5-1.79,2.776,2.776,0,0,0-.483-1.8A1.472,1.472,0,0,0,3.451-5.5a1.517,1.517,0,0,0-1.2.6A2.637,2.637,0,0,0,1.752-3.158Z" transform="translate(1267.703 2424.428)" fill="#20143b"/>
    <path id="Trazado_144" data-name="Trazado 144" d="M1.764,0H.785V-8.59H1.84v3.064a2.087,2.087,0,0,1,1.705-.838,2.611,2.611,0,0,1,1.087.231,2.22,2.22,0,0,1,.844.65,3.144,3.144,0,0,1,.519,1.011,4.167,4.167,0,0,1,.188,1.266A3.555,3.555,0,0,1,5.391-.732a2.474,2.474,0,0,1-1.9.873,1.981,1.981,0,0,1-1.729-.92ZM1.752-3.158a3.23,3.23,0,0,0,.3,1.617A1.519,1.519,0,0,0,3.4-.727a1.517,1.517,0,0,0,1.2-.6,2.729,2.729,0,0,0,.5-1.79,2.776,2.776,0,0,0-.483-1.8A1.472,1.472,0,0,0,3.451-5.5a1.517,1.517,0,0,0-1.2.6A2.637,2.637,0,0,0,1.752-3.158Zm5.49-4.307V-8.479H12.8v.82a11.718,11.718,0,0,0-1.626,2.32A14.132,14.132,0,0,0,9.932-2.361,11.063,11.063,0,0,0,9.527,0H8.443a10.526,10.526,0,0,1,.4-2.449A12.861,12.861,0,0,1,9.935-5.218a11.868,11.868,0,0,1,1.515-2.247Z" transform="translate(1267.703 2453.228)" fill="#20143b"/>
    <path id="Trazado_145" data-name="Trazado 145" d="M1.764,0H.785V-8.59H1.84v3.064a2.087,2.087,0,0,1,1.705-.838,2.611,2.611,0,0,1,1.087.231,2.22,2.22,0,0,1,.844.65,3.144,3.144,0,0,1,.519,1.011,4.167,4.167,0,0,1,.188,1.266A3.555,3.555,0,0,1,5.391-.732a2.474,2.474,0,0,1-1.9.873,1.981,1.981,0,0,1-1.729-.92ZM1.752-3.158a3.23,3.23,0,0,0,.3,1.617A1.519,1.519,0,0,0,3.4-.727a1.517,1.517,0,0,0,1.2-.6,2.729,2.729,0,0,0,.5-1.79,2.776,2.776,0,0,0-.483-1.8A1.472,1.472,0,0,0,3.451-5.5a1.517,1.517,0,0,0-1.2.6A2.637,2.637,0,0,0,1.752-3.158Zm5.49-4.307V-8.479H12.8v.82a11.718,11.718,0,0,0-1.626,2.32A14.132,14.132,0,0,0,9.932-2.361,11.063,11.063,0,0,0,9.527,0H8.443a10.526,10.526,0,0,1,.4-2.449A12.861,12.861,0,0,1,9.935-5.218a11.868,11.868,0,0,1,1.515-2.247Zm6.674,0V-8.479h5.561v.82a11.718,11.718,0,0,0-1.626,2.32,14.132,14.132,0,0,0-1.245,2.977A11.063,11.063,0,0,0,16.2,0H15.117a10.526,10.526,0,0,1,.4-2.449,12.861,12.861,0,0,1,1.093-2.769,11.868,11.868,0,0,1,1.515-2.247Zm6.6,3.229a7.86,7.86,0,0,1,.313-2.452,3.05,3.05,0,0,1,.932-1.433,2.382,2.382,0,0,1,1.556-.5,2.538,2.538,0,0,1,1.213.278,2.319,2.319,0,0,1,.861.8,4.306,4.306,0,0,1,.533,1.277,8.487,8.487,0,0,1,.193,2.03,7.882,7.882,0,0,1-.311,2.44A3.051,3.051,0,0,1,24.882-.36,2.382,2.382,0,0,1,23.32.146a2.357,2.357,0,0,1-1.951-.891A5.661,5.661,0,0,1,20.52-4.236Zm1.084,0a5.386,5.386,0,0,0,.5,2.815,1.459,1.459,0,0,0,1.222.7,1.458,1.458,0,0,0,1.222-.7,5.388,5.388,0,0,0,.5-2.812,5.384,5.384,0,0,0-.5-2.818,1.47,1.47,0,0,0-1.233-.7,1.351,1.351,0,0,0-1.16.615A5.448,5.448,0,0,0,21.6-4.236Z" transform="translate(1267.703 2496.428)" fill="#20143b"/>
    <g id="Grupo_22" data-name="Grupo 22" transform="translate(1590.486 2517.886)">
      <path id="Trazado_125" data-name="Trazado 125" d="M0,0H-330.479" fill="none" stroke="#20143b" stroke-width="1" stroke-dasharray="1.007 2.007"/>
    </g>
    <g id="Grupo_23" data-name="Grupo 23" transform="translate(1258.5 2515.404)">
      <path id="Trazado_126" data-name="Trazado 126" d="M0,0V-105.72" fill="none" stroke="#20143b" stroke-width="1" stroke-dasharray="0.982 1.982"/>
    </g>
    <g id="Grupo_24" data-name="Grupo 24" transform="translate(1261.01 2408.193)">
      <path id="Trazado_127" data-name="Trazado 127" d="M0,0H330.479" fill="none" stroke="#20143b" stroke-width="1" stroke-dasharray="1.007 2.007"/>
    </g>
    <g id="Grupo_25" data-name="Grupo 25" transform="translate(1592.996 2410.675)">
      <path id="Trazado_128" data-name="Trazado 128" d="M0,0V105.72" fill="none" stroke="#20143b" stroke-width="1" stroke-dasharray="0.982 1.982"/>
    </g>
    <g id="Grupo_26" data-name="Grupo 26" transform="translate(1259.003 2517.886)">
      <path id="Trazado_129" data-name="Trazado 129" d="M0,0H-.5V-.5m0-108.693v-.5H0m333.489,0h.5v.5m0,108.693V0h-.5" fill="none" stroke="#20143b" stroke-width="1"/>
    </g>
    <g id="Grupo_27" data-name="Grupo 27" transform="translate(1258.5 2432.553)">
      <path id="Trazado_130" data-name="Trazado 130" d="M0,0H334.5" fill="none" stroke="#20143b" stroke-width="1" stroke-dasharray="1.002 2.002"/>
    </g>
    <g id="Grupo_28" data-name="Grupo 28" transform="translate(1258.5 2476.553)">
      <path id="Trazado_131" data-name="Trazado 131" d="M0,0H334.5" fill="none" stroke="#20143b" stroke-width="1" stroke-dasharray="1.002 2.002"/>
    </g>
    <g id="Grupo_29" data-name="Grupo 29" transform="translate(1305.027 2408.193)">
      <path id="Trazado_132" data-name="Trazado 132" d="M0,0V109.693" fill="none" stroke="#20143b" stroke-width="1" stroke-dasharray="1.01 2.01"/>
    </g>
    <path id="Trazado_133" data-name="Trazado 133" d="M0,0H335.5V-110.693H0Z" transform="translate(1258 2518.386)" fill="none"/>
  </g>
</svg>
