<svg xmlns="http://www.w3.org/2000/svg" width="332.221" height="93.37" viewBox="0 0 332.221 93.37">
  <g id="Grupo_23" data-name="Grupo 23" transform="translate(-1072 -2400.37)">
    <path id="Trazado_172" data-name="Trazado 172" d="M235.868-49.25H169.946v21.962h65.922Z" transform="translate(1072 2493.74)" fill="#299cb1"/>
    <path id="Trazado_173" data-name="Trazado 173" d="M331.858-49.25H256.066v21.962h75.792Z" transform="translate(1072 2493.74)" fill="#299cb1"/>
    <path id="Trazado_174" data-name="Trazado 174" d="M.363-27.288H144V-50.166H.363Z" transform="translate(1072 2493.74)" fill="#299cb1"/>
    <path id="Trazado_190" data-name="Trazado 190" d="M.65-6.442H3.028a4.643,4.643,0,0,1,1.226.123,2.154,2.154,0,0,1,.971.593A2.815,2.815,0,0,1,5.84-4.682,4.754,4.754,0,0,1,6.051-3.16a4.234,4.234,0,0,1-.2,1.371A2.84,2.84,0,0,1,5.164-.65a2.287,2.287,0,0,1-.914.514A3.935,3.935,0,0,1,3.1,0H.65Zm1.3,1.09v4.267h.971a3.544,3.544,0,0,0,.787-.062,1.2,1.2,0,0,0,.525-.268,1.364,1.364,0,0,0,.341-.622,4.2,4.2,0,0,0,.132-1.18,3.849,3.849,0,0,0-.132-1.147,1.474,1.474,0,0,0-.369-.624,1.238,1.238,0,0,0-.6-.3,5.9,5.9,0,0,0-1.068-.062ZM6.891-3.182a4.1,4.1,0,0,1,.294-1.652,3.032,3.032,0,0,1,.6-.883,2.508,2.508,0,0,1,.833-.58,3.537,3.537,0,0,1,1.389-.255,3.025,3.025,0,0,1,2.279.883,3.385,3.385,0,0,1,.855,2.457,3.374,3.374,0,0,1-.848,2.441A3,3,0,0,1,10.024.11,3.032,3.032,0,0,1,7.739-.767,3.327,3.327,0,0,1,6.891-3.182Zm1.34-.044a2.414,2.414,0,0,0,.505,1.659A1.647,1.647,0,0,0,10.02-1a1.632,1.632,0,0,0,1.277-.56,2.462,2.462,0,0,0,.5-1.681A2.422,2.422,0,0,0,11.309-4.9a1.643,1.643,0,0,0-1.29-.545,1.654,1.654,0,0,0-1.3.552A2.434,2.434,0,0,0,8.231-3.226ZM14.137,0V-6.442h1.947l1.169,4.395,1.156-4.395H20.36V0H19.151V-5.071L17.873,0H16.62L15.346-5.071V0Zm7.475,0V-6.442h1.3V0Zm2.553,0V-6.442h1.266l2.637,4.3v-4.3h1.208V0H27.971l-2.6-4.2V0Zm6.447,0V-6.442h1.3V0Zm2.276-3.182a4.1,4.1,0,0,1,.294-1.652,3.032,3.032,0,0,1,.6-.883,2.508,2.508,0,0,1,.833-.58A3.537,3.537,0,0,1,36-6.552a3.025,3.025,0,0,1,2.279.883,3.385,3.385,0,0,1,.855,2.457A3.374,3.374,0,0,1,38.29-.771,3,3,0,0,1,36.022.11a3.032,3.032,0,0,1-2.285-.877A3.327,3.327,0,0,1,32.889-3.182Zm1.34-.044a2.414,2.414,0,0,0,.505,1.659A1.647,1.647,0,0,0,36.018-1a1.632,1.632,0,0,0,1.277-.56,2.462,2.462,0,0,0,.5-1.681A2.422,2.422,0,0,0,37.307-4.9a1.643,1.643,0,0,0-1.29-.545,1.654,1.654,0,0,0-1.3.552A2.434,2.434,0,0,0,34.229-3.226ZM39.823-2.1l1.266-.123a1.544,1.544,0,0,0,.464.936,1.4,1.4,0,0,0,.943.3,1.449,1.449,0,0,0,.947-.266.791.791,0,0,0,.319-.622.586.586,0,0,0-.134-.389,1.071,1.071,0,0,0-.468-.279q-.229-.079-1.042-.281a3.533,3.533,0,0,1-1.468-.637,1.676,1.676,0,0,1-.593-1.3,1.656,1.656,0,0,1,.279-.921,1.747,1.747,0,0,1,.8-.653,3.223,3.223,0,0,1,1.268-.224,2.719,2.719,0,0,1,1.826.532A1.877,1.877,0,0,1,44.877-4.6l-1.3.057a1.1,1.1,0,0,0-.358-.714,1.311,1.311,0,0,0-.824-.218,1.486,1.486,0,0,0-.888.233.469.469,0,0,0-.207.4.5.5,0,0,0,.193.391,3.42,3.42,0,0,0,1.2.431,6.308,6.308,0,0,1,1.4.464A1.81,1.81,0,0,1,44.8-2.9a1.915,1.915,0,0,1,.257,1.026,1.9,1.9,0,0,1-.308,1.037,1.844,1.844,0,0,1-.87.719,3.649,3.649,0,0,1-1.4.235A2.791,2.791,0,0,1,40.605-.45,2.456,2.456,0,0,1,39.823-2.1Z" transform="translate(1116.721 2425.889)" fill="#20143b"/>
    <path id="Trazado_191" data-name="Trazado 191" d="M4.777-2.369l1.261.4A2.829,2.829,0,0,1,5.073-.4,2.751,2.751,0,0,1,3.362.11,2.771,2.771,0,0,1,1.252-.767a3.355,3.355,0,0,1-.826-2.4,3.522,3.522,0,0,1,.831-2.5,2.848,2.848,0,0,1,2.184-.89,2.68,2.68,0,0,1,1.92.7,2.541,2.541,0,0,1,.659,1.187l-1.288.308a1.366,1.366,0,0,0-.477-.791,1.366,1.366,0,0,0-.881-.29,1.466,1.466,0,0,0-1.162.514,2.52,2.52,0,0,0-.446,1.666,2.7,2.7,0,0,0,.439,1.74A1.427,1.427,0,0,0,3.349-1a1.3,1.3,0,0,0,.892-.33A1.914,1.914,0,0,0,4.777-2.369Zm2.114-.813a4.1,4.1,0,0,1,.294-1.652,3.032,3.032,0,0,1,.6-.883,2.508,2.508,0,0,1,.833-.58,3.537,3.537,0,0,1,1.389-.255,3.025,3.025,0,0,1,2.279.883,3.385,3.385,0,0,1,.855,2.457,3.374,3.374,0,0,1-.848,2.441A3,3,0,0,1,10.024.11,3.032,3.032,0,0,1,7.739-.767,3.327,3.327,0,0,1,6.891-3.182Zm1.34-.044a2.414,2.414,0,0,0,.505,1.659A1.647,1.647,0,0,0,10.02-1a1.632,1.632,0,0,0,1.277-.56,2.462,2.462,0,0,0,.5-1.681A2.422,2.422,0,0,0,11.309-4.9a1.643,1.643,0,0,0-1.29-.545,1.654,1.654,0,0,0-1.3.552A2.434,2.434,0,0,0,8.231-3.226ZM14.15-6.442h2.377a4.643,4.643,0,0,1,1.226.123,2.154,2.154,0,0,1,.971.593,2.815,2.815,0,0,1,.615,1.044,4.754,4.754,0,0,1,.211,1.523,4.234,4.234,0,0,1-.2,1.371,2.84,2.84,0,0,1-.69,1.138,2.287,2.287,0,0,1-.914.514A3.935,3.935,0,0,1,16.6,0H14.15Zm1.3,1.09v4.267h.971a3.544,3.544,0,0,0,.787-.062,1.2,1.2,0,0,0,.525-.268,1.364,1.364,0,0,0,.341-.622,4.2,4.2,0,0,0,.132-1.18,3.849,3.849,0,0,0-.132-1.147,1.474,1.474,0,0,0-.369-.624,1.238,1.238,0,0,0-.6-.3,5.9,5.9,0,0,0-1.068-.062ZM20.615,0V-6.442h1.3V0Zm2.549,0V-6.442H27.58v1.09H24.464v1.525h2.689v1.09H24.464V0Zm5.449,0V-6.442h1.3V0Zm6.662-2.369,1.261.4A2.829,2.829,0,0,1,35.572-.4,2.751,2.751,0,0,1,33.86.11,2.771,2.771,0,0,1,31.75-.767a3.355,3.355,0,0,1-.826-2.4,3.522,3.522,0,0,1,.831-2.5,2.848,2.848,0,0,1,2.184-.89,2.68,2.68,0,0,1,1.92.7,2.541,2.541,0,0,1,.659,1.187l-1.288.308a1.366,1.366,0,0,0-.477-.791,1.366,1.366,0,0,0-.881-.29,1.466,1.466,0,0,0-1.162.514,2.52,2.52,0,0,0-.446,1.666,2.7,2.7,0,0,0,.439,1.74A1.427,1.427,0,0,0,33.847-1a1.3,1.3,0,0,0,.892-.33A1.914,1.914,0,0,0,35.275-2.369ZM43.462,0H42.047l-.562-1.463H38.909L38.377,0H37l2.509-6.442h1.375Zm-2.4-2.549-.888-2.391-.87,2.391Zm7.207.18,1.261.4A2.829,2.829,0,0,1,48.571-.4,2.751,2.751,0,0,1,46.859.11,2.771,2.771,0,0,1,44.75-.767a3.355,3.355,0,0,1-.826-2.4,3.522,3.522,0,0,1,.831-2.5,2.848,2.848,0,0,1,2.184-.89,2.68,2.68,0,0,1,1.92.7,2.541,2.541,0,0,1,.659,1.187l-1.288.308a1.366,1.366,0,0,0-.477-.791,1.366,1.366,0,0,0-.881-.29,1.466,1.466,0,0,0-1.162.514,2.52,2.52,0,0,0-.446,1.666,2.7,2.7,0,0,0,.439,1.74A1.427,1.427,0,0,0,46.846-1a1.3,1.3,0,0,0,.892-.33A1.914,1.914,0,0,0,48.274-2.369ZM50.612,0V-6.442h1.3V0Zm2.276-3.182a4.1,4.1,0,0,1,.294-1.652,3.032,3.032,0,0,1,.6-.883,2.508,2.508,0,0,1,.833-.58A3.537,3.537,0,0,1,56-6.552a3.025,3.025,0,0,1,2.279.883,3.385,3.385,0,0,1,.855,2.457,3.374,3.374,0,0,1-.848,2.441A3,3,0,0,1,56.021.11a3.032,3.032,0,0,1-2.285-.877A3.327,3.327,0,0,1,52.888-3.182Zm1.34-.044a2.414,2.414,0,0,0,.505,1.659A1.647,1.647,0,0,0,56.017-1a1.632,1.632,0,0,0,1.277-.56,2.462,2.462,0,0,0,.5-1.681A2.422,2.422,0,0,0,57.307-4.9a1.643,1.643,0,0,0-1.29-.545,1.654,1.654,0,0,0-1.3.552A2.434,2.434,0,0,0,54.229-3.226Zm.984-3.586.606-1.314H57.2L56-6.812ZM60.166,0V-6.442h1.266l2.637,4.3v-4.3h1.208V0H63.971l-2.6-4.2V0Z" transform="translate(1288.586 2414.335)" fill="#20143b"/>
    <path id="Trazado_192" data-name="Trazado 192" d="M.668,0V-6.442H1.934L4.57-2.14v-4.3H5.779V0H4.474l-2.6-4.2V0Zm9.374,0H8.807V-4.654a4.257,4.257,0,0,1-1.6.936V-4.838a3.571,3.571,0,0,0,1.05-.6A2.279,2.279,0,0,0,9.04-6.469h1Z" transform="translate(1223.239 2436.987)" fill="#20143b"/>
    <path id="Trazado_193" data-name="Trazado 193" d="M.211-1.332,1.45-1.521a.908.908,0,0,0,.321.547,1.084,1.084,0,0,0,.677.187,1.222,1.222,0,0,0,.721-.176.392.392,0,0,0,.163-.33.324.324,0,0,0-.088-.233.984.984,0,0,0-.413-.163,6.662,6.662,0,0,1-1.894-.6A1.2,1.2,0,0,1,.382-3.34a1.294,1.294,0,0,1,.479-1.02,2.237,2.237,0,0,1,1.485-.413,2.591,2.591,0,0,1,1.424.312,1.6,1.6,0,0,1,.642.923l-1.165.215a.72.72,0,0,0-.283-.417,1.036,1.036,0,0,0-.6-.145,1.342,1.342,0,0,0-.7.136.293.293,0,0,0-.141.25.273.273,0,0,0,.123.224,4.633,4.633,0,0,0,1.154.347,3.434,3.434,0,0,1,1.378.549,1.142,1.142,0,0,1,.387.918,1.41,1.41,0,0,1-.536,1.1A2.373,2.373,0,0,1,2.448.105,2.6,2.6,0,0,1,.938-.281,1.782,1.782,0,0,1,.211-1.332ZM5.388-5.208V-6.354H9.611v.9A6.645,6.645,0,0,0,8.547-3.981a8.61,8.61,0,0,0-.824,2.046A7.586,7.586,0,0,0,7.444,0H6.253A8.278,8.278,0,0,1,6.8-2.725,9.079,9.079,0,0,1,8.2-5.208Z" transform="translate(1223.239 2457.862)" fill="#20143b"/>
    <path id="Trazado_194" data-name="Trazado 194" d="M.211-1.332,1.45-1.521a.908.908,0,0,0,.321.547,1.084,1.084,0,0,0,.677.187,1.222,1.222,0,0,0,.721-.176.392.392,0,0,0,.163-.33.324.324,0,0,0-.088-.233.984.984,0,0,0-.413-.163,6.662,6.662,0,0,1-1.894-.6A1.2,1.2,0,0,1,.382-3.34a1.294,1.294,0,0,1,.479-1.02,2.237,2.237,0,0,1,1.485-.413,2.591,2.591,0,0,1,1.424.312,1.6,1.6,0,0,1,.642.923l-1.165.215a.72.72,0,0,0-.283-.417,1.036,1.036,0,0,0-.6-.145,1.342,1.342,0,0,0-.7.136.293.293,0,0,0-.141.25.273.273,0,0,0,.123.224,4.633,4.633,0,0,0,1.154.347,3.434,3.434,0,0,1,1.378.549,1.142,1.142,0,0,1,.387.918,1.41,1.41,0,0,1-.536,1.1A2.373,2.373,0,0,1,2.448.105,2.6,2.6,0,0,1,.938-.281,1.782,1.782,0,0,1,.211-1.332ZM6.447-3.476a1.44,1.44,0,0,1-.7-.556,1.453,1.453,0,0,1-.218-.776A1.56,1.56,0,0,1,6.036-6a2.017,2.017,0,0,1,1.43-.47A2.02,2.02,0,0,1,8.892-6,1.553,1.553,0,0,1,9.4-4.808a1.4,1.4,0,0,1-.233.8,1.474,1.474,0,0,1-.655.534,1.726,1.726,0,0,1,.815.628,1.663,1.663,0,0,1,.279.954,1.941,1.941,0,0,1-.569,1.45A2.069,2.069,0,0,1,7.523.114,2.289,2.289,0,0,1,6.06-.347a1.8,1.8,0,0,1-.69-1.494,1.848,1.848,0,0,1,.259-.96A1.67,1.67,0,0,1,6.447-3.476ZM6.7-4.72a.773.773,0,0,0,.209.576.756.756,0,0,0,.556.207.765.765,0,0,0,.563-.209.776.776,0,0,0,.211-.578.751.751,0,0,0-.209-.556.746.746,0,0,0-.552-.209.766.766,0,0,0-.567.211A.754.754,0,0,0,6.7-4.72ZM6.587-1.96a1.134,1.134,0,0,0,.261.8A.848.848,0,0,0,7.5-.879a.82.82,0,0,0,.633-.275,1.138,1.138,0,0,0,.25-.793,1.027,1.027,0,0,0-.255-.727.843.843,0,0,0-.646-.275.772.772,0,0,0-.675.312A1.144,1.144,0,0,0,6.587-1.96Z" transform="translate(1223.239 2479.883)" fill="#20143b"/>
    <path id="Trazado_195" data-name="Trazado 195" d="M.668,0V-6.442H1.934L4.57-2.14v-4.3H5.779V0H4.474l-2.6-4.2V0ZM11.052-1.147V0H6.724a2.981,2.981,0,0,1,.422-1.233A8.2,8.2,0,0,1,8.534-2.777,8.735,8.735,0,0,0,9.558-3.832a1.359,1.359,0,0,0,.255-.756.859.859,0,0,0-.222-.635.828.828,0,0,0-.613-.222.823.823,0,0,0-.615.233,1.2,1.2,0,0,0-.264.773l-1.23-.123a2.017,2.017,0,0,1,.69-1.463,2.317,2.317,0,0,1,1.45-.444,2.1,2.1,0,0,1,1.5.514,1.686,1.686,0,0,1,.545,1.279,2.226,2.226,0,0,1-.156.828,3.369,3.369,0,0,1-.494.824,7.911,7.911,0,0,1-.809.822q-.584.536-.74.712a2.132,2.132,0,0,0-.253.343Z" transform="translate(1256.363 2436.987)" fill="#20143b"/>
    <path id="Trazado_196" data-name="Trazado 196" d="M.668,0V-6.442H1.934L4.57-2.14v-4.3H5.779V0H4.474l-2.6-4.2V0Zm6.17-1.709,1.2-.145a1.132,1.132,0,0,0,.308.7.841.841,0,0,0,.606.242.833.833,0,0,0,.644-.29,1.124,1.124,0,0,0,.261-.782,1.049,1.049,0,0,0-.25-.738A.8.8,0,0,0,8.991-3a2.154,2.154,0,0,0-.567.092l.136-1.006a1.082,1.082,0,0,0,.765-.218.774.774,0,0,0,.264-.613A.7.7,0,0,0,9.4-5.26a.7.7,0,0,0-.514-.193.744.744,0,0,0-.541.22,1.032,1.032,0,0,0-.272.642L6.93-4.786a2.544,2.544,0,0,1,.358-.934,1.617,1.617,0,0,1,.668-.549,2.244,2.244,0,0,1,.96-.2,1.915,1.915,0,0,1,1.459.58,1.514,1.514,0,0,1,.453,1.072A1.517,1.517,0,0,1,9.9-3.463a1.5,1.5,0,0,1,.885.532,1.543,1.543,0,0,1,.332,1A1.935,1.935,0,0,1,10.5-.488a2.134,2.134,0,0,1-1.542.6,2.124,2.124,0,0,1-1.45-.5A1.977,1.977,0,0,1,6.838-1.709Z" transform="translate(1288.586 2436.987)" fill="#20143b"/>
    <path id="Trazado_197" data-name="Trazado 197" d="M.505-1.718V-2.953H2.931v1.235Z" transform="translate(1316.034 2436.987)" fill="#20143b"/>
    <path id="Trazado_198" data-name="Trazado 198" d="M.505-1.718V-2.953H2.931v1.235Z" transform="translate(1316.034 2457.862)" fill="#20143b"/>
    <path id="Trazado_199" data-name="Trazado 199" d="M.505-1.718V-2.953H2.931v1.235Z" transform="translate(1316.034 2477.378)" fill="#20143b"/>
    <path id="Trazado_200" data-name="Trazado 200" d="M4.777-2.369l1.261.4A2.829,2.829,0,0,1,5.073-.4,2.751,2.751,0,0,1,3.362.11,2.771,2.771,0,0,1,1.252-.767a3.355,3.355,0,0,1-.826-2.4,3.522,3.522,0,0,1,.831-2.5,2.848,2.848,0,0,1,2.184-.89,2.68,2.68,0,0,1,1.92.7,2.541,2.541,0,0,1,.659,1.187l-1.288.308a1.366,1.366,0,0,0-.477-.791,1.366,1.366,0,0,0-.881-.29,1.466,1.466,0,0,0-1.162.514,2.52,2.52,0,0,0-.446,1.666,2.7,2.7,0,0,0,.439,1.74A1.427,1.427,0,0,0,3.349-1a1.3,1.3,0,0,0,.892-.33A1.914,1.914,0,0,0,4.777-2.369Zm2.276-2.3H8.191v.637a1.831,1.831,0,0,1,1.455-.743,1.567,1.567,0,0,1,.778.185,1.418,1.418,0,0,1,.541.558,2.156,2.156,0,0,1,.664-.558,1.628,1.628,0,0,1,.76-.185,1.693,1.693,0,0,1,.87.209,1.279,1.279,0,0,1,.532.613,2.659,2.659,0,0,1,.127.967V0H12.683V-2.667a1.985,1.985,0,0,0-.127-.9.585.585,0,0,0-.527-.264.842.842,0,0,0-.488.158.878.878,0,0,0-.33.464,3.336,3.336,0,0,0-.1.965V0H9.875V-2.558a3.548,3.548,0,0,0-.066-.879.561.561,0,0,0-.2-.294.646.646,0,0,0-.376-.1.9.9,0,0,0-.514.154.844.844,0,0,0-.327.444,3.3,3.3,0,0,0-.1.962V0H7.053Z" transform="translate(1335.064 2436.987)" fill="#20143b"/>
    <path id="Trazado_201" data-name="Trazado 201" d="M4.777-2.369l1.261.4A2.829,2.829,0,0,1,5.073-.4,2.751,2.751,0,0,1,3.362.11,2.771,2.771,0,0,1,1.252-.767a3.355,3.355,0,0,1-.826-2.4,3.522,3.522,0,0,1,.831-2.5,2.848,2.848,0,0,1,2.184-.89,2.68,2.68,0,0,1,1.92.7,2.541,2.541,0,0,1,.659,1.187l-1.288.308a1.366,1.366,0,0,0-.477-.791,1.366,1.366,0,0,0-.881-.29,1.466,1.466,0,0,0-1.162.514,2.52,2.52,0,0,0-.446,1.666,2.7,2.7,0,0,0,.439,1.74A1.427,1.427,0,0,0,3.349-1a1.3,1.3,0,0,0,.892-.33A1.914,1.914,0,0,0,4.777-2.369ZM11.391,0H10.156V-2.382a3.681,3.681,0,0,0-.079-.978A.686.686,0,0,0,9.82-3.7a.735.735,0,0,0-.428-.123.99.99,0,0,0-.576.176.886.886,0,0,0-.349.466,4.026,4.026,0,0,0-.094,1.072V0H7.137V-4.667H8.284v.686a1.869,1.869,0,0,1,1.538-.791,1.853,1.853,0,0,1,.747.147,1.252,1.252,0,0,1,.512.376,1.361,1.361,0,0,1,.242.519,3.857,3.857,0,0,1,.068.831Z" transform="translate(1359.683 2436.987)" fill="#20143b"/>
    <path id="Trazado_202" data-name="Trazado 202" d="M4.777-2.369l1.261.4A2.829,2.829,0,0,1,5.073-.4,2.751,2.751,0,0,1,3.362.11,2.771,2.771,0,0,1,1.252-.767a3.355,3.355,0,0,1-.826-2.4,3.522,3.522,0,0,1,.831-2.5,2.848,2.848,0,0,1,2.184-.89,2.68,2.68,0,0,1,1.92.7,2.541,2.541,0,0,1,.659,1.187l-1.288.308a1.366,1.366,0,0,0-.477-.791,1.366,1.366,0,0,0-.881-.29,1.466,1.466,0,0,0-1.162.514,2.52,2.52,0,0,0-.446,1.666,2.7,2.7,0,0,0,.439,1.74A1.427,1.427,0,0,0,3.349-1a1.3,1.3,0,0,0,.892-.33A1.914,1.914,0,0,0,4.777-2.369ZM7.146,0V-6.442H8.38V0Z" transform="translate(1384.313 2436.987)" fill="#20143b"/>
    <path id="Trazado_175" data-name="Trazado 175" d="M0,0H332.22V-93.37H0Z" transform="translate(1072 2493.74)" fill="none"/>
    <path id="Trazado_176" data-name="Trazado 176" d="M0,0V44.435H332.221v-.371h-.363v0h.363V0ZM.725.742H331.494v42.95H.725Z" transform="translate(1072 2400.37)" fill="#20143b"/>
    <path id="Trazado_177" data-name="Trazado 177" d="M144-70.781H331.858v-.743H144Z" transform="translate(1072 2493.74)" fill="#20143b"/>
    <path id="Trazado_178" data-name="Trazado 178" d="M.363-26.917h331.5v-.742H.363Z" transform="translate(1072 2493.74)" fill="#20143b"/>
    <path id="Trazado_179" data-name="Trazado 179" d="M143.637-.371h.725V-93h-.725Z" transform="translate(1072 2493.74)" fill="#20143b"/>
    <path id="Trazado_180" data-name="Trazado 180" d="M169.582-.242h.725v-70.91h-.725Z" transform="translate(1072 2493.74)" fill="#20143b"/>
    <path id="Trazado_181" data-name="Trazado 181" d="M189.14-.242h.725V-49.306h-.725Z" transform="translate(1072 2493.74)" fill="#20143b"/>
    <path id="Trazado_182" data-name="Trazado 182" d="M209.469-.242h.725v-70.91h-.725Z" transform="translate(1072 2493.74)" fill="#20143b"/>
    <path id="Trazado_183" data-name="Trazado 183" d="M235.506-.242h.725v-70.91h-.725Z" transform="translate(1072 2493.74)" fill="#20143b"/>
    <path id="Trazado_184" data-name="Trazado 184" d="M255.7-.242h.725v-70.91H255.7Z" transform="translate(1072 2493.74)" fill="#20143b"/>
    <path id="Trazado_185" data-name="Trazado 185" d="M282.554-.242h.725v-70.91h-.725Z" transform="translate(1072 2493.74)" fill="#20143b"/>
    <path id="Trazado_186" data-name="Trazado 186" d="M307.471-.242h.725v-70.91h-.725Z" transform="translate(1072 2493.74)" fill="#20143b"/>
    <path id="Trazado_187" data-name="Trazado 187" d="M0,0V49.677H332.221v-.37h-.363v0h.363V0ZM.725.743H331.494V48.935H.725Z" transform="translate(1072 2444.063)" fill="#20143b"/>
    <path id="Trazado_203" data-name="Trazado 203" d="M.379-4.977v-.676H4.086v.547A7.812,7.812,0,0,0,3-3.559a9.421,9.421,0,0,0-.83,1.984A7.376,7.376,0,0,0,1.9,0H1.18a7.017,7.017,0,0,1,.266-1.633,8.574,8.574,0,0,1,.729-1.846,7.912,7.912,0,0,1,1.01-1.5ZM5.176,0V-.8h.8V0ZM9.527,0V-5.727h4.141v.676H10.285V-3.3h3.168v.672H10.285V-.676H13.8V0Zm4.949-1.238.7-.109a.972.972,0,0,0,.326.641,1.137,1.137,0,0,0,.748.223,1.1,1.1,0,0,0,.719-.2.59.59,0,0,0,.234-.463.427.427,0,0,0-.207-.375,3.049,3.049,0,0,0-.719-.238A6.559,6.559,0,0,1,15.2-2.1a1.039,1.039,0,0,1-.453-.395,1.045,1.045,0,0,1-.154-.557,1.068,1.068,0,0,1,.127-.514,1.138,1.138,0,0,1,.346-.393,1.449,1.449,0,0,1,.447-.205,2.127,2.127,0,0,1,.607-.084,2.4,2.4,0,0,1,.857.141,1.166,1.166,0,0,1,.545.381,1.488,1.488,0,0,1,.242.643l-.687.094a.752.752,0,0,0-.271-.5.993.993,0,0,0-.635-.18,1.15,1.15,0,0,0-.691.16.466.466,0,0,0-.207.375.388.388,0,0,0,.086.246.62.62,0,0,0,.27.188q.105.039.621.18a8.646,8.646,0,0,1,1.041.326,1.056,1.056,0,0,1,.463.369,1.03,1.03,0,0,1,.168.6,1.18,1.18,0,0,1-.205.662,1.325,1.325,0,0,1-.592.48,2.154,2.154,0,0,1-.875.17,1.949,1.949,0,0,1-1.232-.336A1.562,1.562,0,0,1,14.477-1.238Zm5.816.609.1.621a2.608,2.608,0,0,1-.531.063,1.2,1.2,0,0,1-.594-.121.678.678,0,0,1-.3-.318,2.517,2.517,0,0,1-.086-.83V-3.6h-.516v-.547h.516V-5.176l.7-.422v1.449h.707V-3.6h-.707v2.426a1.225,1.225,0,0,0,.037.387.293.293,0,0,0,.121.137.468.468,0,0,0,.24.051A2.287,2.287,0,0,0,20.293-.629Zm.68.629V-4.148h.633v.629a1.716,1.716,0,0,1,.447-.582.781.781,0,0,1,.451-.141,1.371,1.371,0,0,1,.723.227l-.242.652a1.006,1.006,0,0,0-.516-.152.67.67,0,0,0-.414.139.751.751,0,0,0-.262.385,2.739,2.739,0,0,0-.117.82V0Zm5.391,0V-.609a1.518,1.518,0,0,1-1.316.7,1.678,1.678,0,0,1-.686-.141A1.129,1.129,0,0,1,23.889-.4a1.325,1.325,0,0,1-.217-.521,3.57,3.57,0,0,1-.043-.656v-2.57h.7v2.3a4.1,4.1,0,0,0,.043.742.733.733,0,0,0,.281.436.871.871,0,0,0,.531.158,1.157,1.157,0,0,0,.594-.162.9.9,0,0,0,.393-.441,2.215,2.215,0,0,0,.115-.811V-4.148h.7V0ZM30.8-1.52l.691.09a1.793,1.793,0,0,1-.58,1.119,1.69,1.69,0,0,1-1.146.4A1.781,1.781,0,0,1,28.4-.463a2.258,2.258,0,0,1-.518-1.6A2.888,2.888,0,0,1,28.1-3.234a1.552,1.552,0,0,1,.678-.756,2.011,2.011,0,0,1,.99-.252,1.721,1.721,0,0,1,1.105.342,1.567,1.567,0,0,1,.551.971l-.684.105a1.135,1.135,0,0,0-.346-.629.9.9,0,0,0-.6-.211,1.091,1.091,0,0,0-.863.381A1.808,1.808,0,0,0,28.6-2.078a1.869,1.869,0,0,0,.32,1.215,1.042,1.042,0,0,0,.836.379.985.985,0,0,0,.691-.254A1.26,1.26,0,0,0,30.8-1.52Zm2.828.891.1.621A2.608,2.608,0,0,1,33.2.055a1.2,1.2,0,0,1-.594-.121.678.678,0,0,1-.3-.318,2.517,2.517,0,0,1-.086-.83V-3.6h-.516v-.547h.516V-5.176l.7-.422v1.449h.707V-3.6h-.707v2.426a1.225,1.225,0,0,0,.037.387.293.293,0,0,0,.121.137.468.468,0,0,0,.24.051A2.287,2.287,0,0,0,33.629-.629ZM37.035,0V-.609a1.518,1.518,0,0,1-1.316.7,1.678,1.678,0,0,1-.686-.141A1.129,1.129,0,0,1,34.561-.4a1.325,1.325,0,0,1-.217-.521,3.57,3.57,0,0,1-.043-.656v-2.57H35v2.3a4.1,4.1,0,0,0,.043.742.733.733,0,0,0,.281.436.871.871,0,0,0,.531.158,1.157,1.157,0,0,0,.594-.162.9.9,0,0,0,.393-.441,2.215,2.215,0,0,0,.115-.811V-4.148h.7V0Zm1.723,0V-4.148h.633v.629a1.716,1.716,0,0,1,.447-.582.781.781,0,0,1,.451-.141,1.371,1.371,0,0,1,.723.227l-.242.652a1.006,1.006,0,0,0-.516-.152.67.67,0,0,0-.414.139.751.751,0,0,0-.262.385,2.739,2.739,0,0,0-.117.82V0Zm5.379-.512a2.618,2.618,0,0,1-.752.469,2.173,2.173,0,0,1-.775.137A1.508,1.508,0,0,1,41.559-.24a1.1,1.1,0,0,1-.367-.854,1.135,1.135,0,0,1,.139-.557,1.148,1.148,0,0,1,.363-.4,1.708,1.708,0,0,1,.506-.23,5.024,5.024,0,0,1,.625-.105,6.427,6.427,0,0,0,1.254-.242q0-.145,0-.184a.776.776,0,0,0-.2-.605,1.177,1.177,0,0,0-.8-.238,1.242,1.242,0,0,0-.732.174,1.062,1.062,0,0,0-.35.615l-.687-.094a1.7,1.7,0,0,1,.309-.713,1.353,1.353,0,0,1,.621-.418,2.77,2.77,0,0,1,.941-.146,2.492,2.492,0,0,1,.863.125,1.137,1.137,0,0,1,.488.314,1.106,1.106,0,0,1,.219.479,3.959,3.959,0,0,1,.035.648v.938A9.95,9.95,0,0,0,44.834-.5a1.565,1.565,0,0,0,.178.5h-.734A1.491,1.491,0,0,1,44.137-.512Zm-.059-1.57a5.159,5.159,0,0,1-1.148.266,2.656,2.656,0,0,0-.613.141.611.611,0,0,0-.277.229.6.6,0,0,0-.1.334.6.6,0,0,0,.213.469.916.916,0,0,0,.623.188A1.45,1.45,0,0,0,43.5-.635a1.094,1.094,0,0,0,.465-.486,1.7,1.7,0,0,0,.113-.7Zm1.52.844.7-.109a.972.972,0,0,0,.326.641,1.137,1.137,0,0,0,.748.223,1.1,1.1,0,0,0,.719-.2.59.59,0,0,0,.234-.463.427.427,0,0,0-.207-.375,3.049,3.049,0,0,0-.719-.238A6.559,6.559,0,0,1,46.322-2.1a1.039,1.039,0,0,1-.453-.395,1.045,1.045,0,0,1-.154-.557,1.068,1.068,0,0,1,.127-.514,1.138,1.138,0,0,1,.346-.393,1.449,1.449,0,0,1,.447-.205,2.127,2.127,0,0,1,.607-.084A2.4,2.4,0,0,1,48.1-4.1a1.166,1.166,0,0,1,.545.381,1.488,1.488,0,0,1,.242.643l-.687.094a.752.752,0,0,0-.271-.5.993.993,0,0,0-.635-.18,1.15,1.15,0,0,0-.691.16.466.466,0,0,0-.207.375.388.388,0,0,0,.086.246.62.62,0,0,0,.27.188q.105.039.621.18a8.646,8.646,0,0,1,1.041.326,1.056,1.056,0,0,1,.463.369,1.03,1.03,0,0,1,.168.6,1.18,1.18,0,0,1-.205.662,1.325,1.325,0,0,1-.592.48,2.154,2.154,0,0,1-.875.17,1.949,1.949,0,0,1-1.232-.336A1.562,1.562,0,0,1,45.6-1.238ZM52.094,0V-4.148h.633v.629a1.716,1.716,0,0,1,.447-.582.781.781,0,0,1,.451-.141,1.371,1.371,0,0,1,.723.227l-.242.652a1.006,1.006,0,0,0-.516-.152.67.67,0,0,0-.414.139.751.751,0,0,0-.262.385,2.739,2.739,0,0,0-.117.82V0Zm5.512-1.336.727.09a1.773,1.773,0,0,1-.637.988,1.914,1.914,0,0,1-1.187.352,1.9,1.9,0,0,1-1.443-.561,2.19,2.19,0,0,1-.533-1.572,2.292,2.292,0,0,1,.539-1.625,1.825,1.825,0,0,1,1.4-.578,1.774,1.774,0,0,1,1.359.566,2.25,2.25,0,0,1,.527,1.594q0,.063,0,.188H55.258a1.594,1.594,0,0,0,.387,1.047,1.151,1.151,0,0,0,.867.363,1.076,1.076,0,0,0,.66-.2A1.348,1.348,0,0,0,57.605-1.336ZM55.3-2.473h2.316a1.405,1.405,0,0,0-.266-.785,1.078,1.078,0,0,0-.871-.406,1.117,1.117,0,0,0-.814.324A1.283,1.283,0,0,0,55.3-2.473ZM59.2,0V-5.727h.7V0Zm4.5-.512a2.618,2.618,0,0,1-.752.469,2.173,2.173,0,0,1-.775.137A1.508,1.508,0,0,1,61.121-.24a1.1,1.1,0,0,1-.367-.854,1.135,1.135,0,0,1,.139-.557,1.148,1.148,0,0,1,.363-.4,1.708,1.708,0,0,1,.506-.23,5.024,5.024,0,0,1,.625-.105,6.427,6.427,0,0,0,1.254-.242q0-.145,0-.184a.776.776,0,0,0-.2-.605,1.177,1.177,0,0,0-.8-.238,1.242,1.242,0,0,0-.732.174,1.062,1.062,0,0,0-.35.615l-.687-.094a1.7,1.7,0,0,1,.309-.713A1.353,1.353,0,0,1,61.8-4.1a2.77,2.77,0,0,1,.941-.146,2.492,2.492,0,0,1,.863.125A1.137,1.137,0,0,1,64.1-3.8a1.106,1.106,0,0,1,.219.479,3.959,3.959,0,0,1,.035.648v.938A9.951,9.951,0,0,0,64.4-.5a1.565,1.565,0,0,0,.178.5H63.84A1.491,1.491,0,0,1,63.7-.512Zm-.059-1.57a5.159,5.159,0,0,1-1.148.266,2.656,2.656,0,0,0-.613.141.611.611,0,0,0-.277.229.6.6,0,0,0-.1.334.6.6,0,0,0,.213.469.916.916,0,0,0,.623.188,1.45,1.45,0,0,0,.723-.178,1.094,1.094,0,0,0,.465-.486,1.7,1.7,0,0,0,.113-.7Zm4.508.563.691.09a1.793,1.793,0,0,1-.58,1.119,1.69,1.69,0,0,1-1.146.4,1.781,1.781,0,0,1-1.369-.557,2.258,2.258,0,0,1-.518-1.6,2.888,2.888,0,0,1,.223-1.176,1.552,1.552,0,0,1,.678-.756,2.011,2.011,0,0,1,.99-.252,1.721,1.721,0,0,1,1.105.342,1.567,1.567,0,0,1,.551.971l-.684.105a1.135,1.135,0,0,0-.346-.629.9.9,0,0,0-.6-.211,1.091,1.091,0,0,0-.863.381,1.808,1.808,0,0,0-.332,1.205,1.869,1.869,0,0,0,.32,1.215,1.042,1.042,0,0,0,.836.379A.985.985,0,0,0,67.8-.738,1.26,1.26,0,0,0,68.148-1.52Zm1.3-3.4v-.809h.7v.809Zm0,4.918V-4.148h.7V0Zm1.512-2.074A2.138,2.138,0,0,1,71.6-3.781a1.93,1.93,0,0,1,1.3-.461,1.861,1.861,0,0,1,1.4.561,2.133,2.133,0,0,1,.543,1.549,2.744,2.744,0,0,1-.24,1.26,1.7,1.7,0,0,1-.7.713,2.036,2.036,0,0,1-1,.254,1.865,1.865,0,0,1-1.408-.559A2.231,2.231,0,0,1,70.957-2.074Zm.723,0a1.767,1.767,0,0,0,.348,1.193,1.114,1.114,0,0,0,.875.4,1.108,1.108,0,0,0,.871-.4A1.809,1.809,0,0,0,74.121-2.1a1.714,1.714,0,0,0-.35-1.166,1.112,1.112,0,0,0-.869-.4,1.117,1.117,0,0,0-.875.395A1.759,1.759,0,0,0,71.68-2.074ZM75.668,0V-4.148H76.3v.59a1.491,1.491,0,0,1,1.32-.684,1.732,1.732,0,0,1,.689.135,1.084,1.084,0,0,1,.471.354,1.357,1.357,0,0,1,.219.52,4.026,4.026,0,0,1,.039.684V0h-.7V-2.523a1.894,1.894,0,0,0-.082-.643.676.676,0,0,0-.291-.34.926.926,0,0,0-.49-.127,1.139,1.139,0,0,0-.775.285,1.407,1.407,0,0,0-.326,1.082V0Zm7.156-.512a2.618,2.618,0,0,1-.752.469A2.173,2.173,0,0,1,81.3.094,1.508,1.508,0,0,1,80.246-.24a1.1,1.1,0,0,1-.367-.854,1.135,1.135,0,0,1,.139-.557,1.148,1.148,0,0,1,.363-.4,1.708,1.708,0,0,1,.506-.23,5.024,5.024,0,0,1,.625-.105,6.427,6.427,0,0,0,1.254-.242q0-.145,0-.184a.776.776,0,0,0-.2-.605,1.177,1.177,0,0,0-.8-.238,1.242,1.242,0,0,0-.732.174,1.062,1.062,0,0,0-.35.615L80-2.965a1.7,1.7,0,0,1,.309-.713A1.353,1.353,0,0,1,80.93-4.1a2.77,2.77,0,0,1,.941-.146,2.492,2.492,0,0,1,.863.125,1.137,1.137,0,0,1,.488.314,1.106,1.106,0,0,1,.219.479,3.959,3.959,0,0,1,.035.648v.938A9.951,9.951,0,0,0,83.521-.5,1.565,1.565,0,0,0,83.7,0h-.734A1.491,1.491,0,0,1,82.824-.512Zm-.059-1.57a5.159,5.159,0,0,1-1.148.266A2.656,2.656,0,0,0,81-1.676a.611.611,0,0,0-.277.229.6.6,0,0,0-.1.334.6.6,0,0,0,.213.469.916.916,0,0,0,.623.188,1.45,1.45,0,0,0,.723-.178,1.094,1.094,0,0,0,.465-.486,1.7,1.7,0,0,0,.113-.7ZM87.258,0V-.523A1.29,1.29,0,0,1,86.1.094a1.627,1.627,0,0,1-.912-.273,1.8,1.8,0,0,1-.645-.764,2.639,2.639,0,0,1-.229-1.127A2.95,2.95,0,0,1,84.52-3.2a1.633,1.633,0,0,1,.621-.775,1.661,1.661,0,0,1,.926-.27,1.383,1.383,0,0,1,.668.158,1.4,1.4,0,0,1,.477.412V-5.727h.7V0ZM85.035-2.07a1.8,1.8,0,0,0,.336,1.191,1.013,1.013,0,0,0,.793.395.994.994,0,0,0,.783-.377,1.738,1.738,0,0,0,.322-1.15,1.951,1.951,0,0,0-.328-1.25,1.009,1.009,0,0,0-.809-.4.974.974,0,0,0-.783.383A1.889,1.889,0,0,0,85.035-2.07ZM91.723-.512a2.618,2.618,0,0,1-.752.469A2.173,2.173,0,0,1,90.2.094,1.508,1.508,0,0,1,89.145-.24a1.1,1.1,0,0,1-.367-.854,1.135,1.135,0,0,1,.139-.557,1.148,1.148,0,0,1,.363-.4,1.708,1.708,0,0,1,.506-.23,5.024,5.024,0,0,1,.625-.105,6.427,6.427,0,0,0,1.254-.242q0-.145,0-.184a.776.776,0,0,0-.2-.605,1.177,1.177,0,0,0-.8-.238,1.242,1.242,0,0,0-.732.174,1.062,1.062,0,0,0-.35.615L88.9-2.965a1.7,1.7,0,0,1,.309-.713,1.353,1.353,0,0,1,.621-.418,2.77,2.77,0,0,1,.941-.146,2.492,2.492,0,0,1,.863.125,1.137,1.137,0,0,1,.488.314,1.106,1.106,0,0,1,.219.479,3.959,3.959,0,0,1,.035.648v.938A9.951,9.951,0,0,0,92.42-.5,1.565,1.565,0,0,0,92.6,0h-.734A1.491,1.491,0,0,1,91.723-.512Zm-.059-1.57a5.159,5.159,0,0,1-1.148.266,2.656,2.656,0,0,0-.613.141.611.611,0,0,0-.277.229.6.6,0,0,0-.1.334.6.6,0,0,0,.213.469.916.916,0,0,0,.623.188,1.45,1.45,0,0,0,.723-.178,1.094,1.094,0,0,0,.465-.486,1.7,1.7,0,0,0,.113-.7Zm1.52.844.7-.109a.972.972,0,0,0,.326.641,1.137,1.137,0,0,0,.748.223,1.1,1.1,0,0,0,.719-.2.59.59,0,0,0,.234-.463A.427.427,0,0,0,95.7-1.52a3.049,3.049,0,0,0-.719-.238A6.559,6.559,0,0,1,93.908-2.1a1.039,1.039,0,0,1-.453-.395,1.045,1.045,0,0,1-.154-.557,1.068,1.068,0,0,1,.127-.514,1.138,1.138,0,0,1,.346-.393,1.449,1.449,0,0,1,.447-.205,2.127,2.127,0,0,1,.607-.084,2.4,2.4,0,0,1,.857.141,1.166,1.166,0,0,1,.545.381,1.488,1.488,0,0,1,.242.643l-.687.094a.752.752,0,0,0-.271-.5.993.993,0,0,0-.635-.18,1.15,1.15,0,0,0-.691.16.466.466,0,0,0-.207.375.388.388,0,0,0,.086.246.62.62,0,0,0,.27.188q.105.039.621.18A8.646,8.646,0,0,1,96-2.189a1.056,1.056,0,0,1,.463.369,1.03,1.03,0,0,1,.168.6,1.18,1.18,0,0,1-.205.662,1.325,1.325,0,0,1-.592.48,2.154,2.154,0,0,1-.875.17,1.949,1.949,0,0,1-1.232-.336A1.562,1.562,0,0,1,93.184-1.238Zm9.211-.281.691.09a1.793,1.793,0,0,1-.58,1.119,1.69,1.69,0,0,1-1.146.4A1.781,1.781,0,0,1,99.99-.463a2.258,2.258,0,0,1-.518-1.6A2.888,2.888,0,0,1,99.7-3.234a1.552,1.552,0,0,1,.678-.756,2.011,2.011,0,0,1,.99-.252,1.721,1.721,0,0,1,1.105.342,1.567,1.567,0,0,1,.551.971l-.684.105a1.135,1.135,0,0,0-.346-.629.9.9,0,0,0-.6-.211,1.091,1.091,0,0,0-.863.381,1.808,1.808,0,0,0-.332,1.205,1.869,1.869,0,0,0,.32,1.215,1.042,1.042,0,0,0,.836.379.985.985,0,0,0,.691-.254A1.26,1.26,0,0,0,102.395-1.52Zm1.031-.555a2.138,2.138,0,0,1,.641-1.707,1.93,1.93,0,0,1,1.3-.461,1.861,1.861,0,0,1,1.4.561,2.133,2.133,0,0,1,.543,1.549,2.744,2.744,0,0,1-.24,1.26,1.7,1.7,0,0,1-.7.713,2.036,2.036,0,0,1-1,.254,1.865,1.865,0,0,1-1.408-.559A2.231,2.231,0,0,1,103.426-2.074Zm.723,0A1.767,1.767,0,0,0,104.5-.881a1.114,1.114,0,0,0,.875.4,1.108,1.108,0,0,0,.871-.4A1.809,1.809,0,0,0,106.59-2.1a1.714,1.714,0,0,0-.35-1.166,1.112,1.112,0,0,0-.869-.4,1.117,1.117,0,0,0-.875.395A1.759,1.759,0,0,0,104.148-2.074ZM108.137,0V-4.148h.633v.59a1.491,1.491,0,0,1,1.32-.684,1.732,1.732,0,0,1,.689.135,1.084,1.084,0,0,1,.471.354,1.357,1.357,0,0,1,.219.52,4.026,4.026,0,0,1,.039.684V0h-.7V-2.523a1.894,1.894,0,0,0-.082-.643.676.676,0,0,0-.291-.34.926.926,0,0,0-.49-.127,1.139,1.139,0,0,0-.775.285,1.407,1.407,0,0,0-.326,1.082V0Zm9.512-1.336.727.09a1.773,1.773,0,0,1-.637.988,1.914,1.914,0,0,1-1.187.352,1.9,1.9,0,0,1-1.443-.561,2.19,2.19,0,0,1-.533-1.572,2.292,2.292,0,0,1,.539-1.625,1.825,1.825,0,0,1,1.4-.578,1.774,1.774,0,0,1,1.359.566,2.25,2.25,0,0,1,.527,1.594q0,.063,0,.188H115.3a1.594,1.594,0,0,0,.387,1.047,1.151,1.151,0,0,0,.867.363,1.076,1.076,0,0,0,.66-.2A1.348,1.348,0,0,0,117.648-1.336ZM115.34-2.473h2.316a1.405,1.405,0,0,0-.266-.785,1.078,1.078,0,0,0-.871-.406,1.117,1.117,0,0,0-.814.324A1.283,1.283,0,0,0,115.34-2.473ZM119.242,0V-5.727h.7V0Z" transform="translate(1088.254 2453.263)" fill="#20143b"/>
    <path id="Trazado_188" data-name="Trazado 188" d="M0,0H332.22V-93.37H0Z" transform="translate(1072 2493.74)" fill="none"/>
    <path id="Trazado_204" data-name="Trazado 204" transform="translate(1208.461 2453.311)" fill="#20143b"/>
    <path id="Trazado_205" data-name="Trazado 205" d="M.527,0V-4.148h.629v.582a1.479,1.479,0,0,1,.52-.49,1.46,1.46,0,0,1,.738-.186,1.365,1.365,0,0,1,.756.191,1.024,1.024,0,0,1,.416.535,1.489,1.489,0,0,1,1.281-.727,1.263,1.263,0,0,1,.949.342,1.461,1.461,0,0,1,.332,1.053V0h-.7V-2.613a1.924,1.924,0,0,0-.068-.607.588.588,0,0,0-.248-.3.774.774,0,0,0-.422-.113.982.982,0,0,0-.727.291A1.282,1.282,0,0,0,3.7-2.41V0h-.7V-2.7a1.186,1.186,0,0,0-.172-.7.651.651,0,0,0-.562-.234,1.022,1.022,0,0,0-.549.156.886.886,0,0,0-.365.457,2.573,2.573,0,0,0-.113.867V0Zm6.4-2.074A2.138,2.138,0,0,1,7.57-3.781a1.93,1.93,0,0,1,1.3-.461,1.861,1.861,0,0,1,1.4.561,2.133,2.133,0,0,1,.543,1.549,2.744,2.744,0,0,1-.24,1.26,1.7,1.7,0,0,1-.7.713,2.036,2.036,0,0,1-1,.254A1.865,1.865,0,0,1,7.467-.465,2.231,2.231,0,0,1,6.93-2.074Zm.723,0A1.767,1.767,0,0,0,8-.881a1.114,1.114,0,0,0,.875.4,1.108,1.108,0,0,0,.871-.4A1.809,1.809,0,0,0,10.094-2.1a1.714,1.714,0,0,0-.35-1.166,1.112,1.112,0,0,0-.869-.4A1.117,1.117,0,0,0,8-3.266,1.759,1.759,0,0,0,7.652-2.074ZM12.793,0,11.215-4.148h.742l.891,2.484q.145.4.266.836.094-.328.262-.789L14.3-4.148h.723L13.449,0Zm2.852-4.918v-.809h.7v.809Zm0,4.918V-4.148h.7V0Zm1.773,0V-4.148h.629v.582a1.479,1.479,0,0,1,.52-.49,1.46,1.46,0,0,1,.738-.186,1.365,1.365,0,0,1,.756.191,1.024,1.024,0,0,1,.416.535,1.489,1.489,0,0,1,1.281-.727,1.263,1.263,0,0,1,.949.342,1.461,1.461,0,0,1,.332,1.053V0h-.7V-2.613a1.924,1.924,0,0,0-.068-.607.588.588,0,0,0-.248-.3.774.774,0,0,0-.422-.113.982.982,0,0,0-.727.291,1.282,1.282,0,0,0-.289.932V0h-.7V-2.7a1.186,1.186,0,0,0-.172-.7.651.651,0,0,0-.562-.234,1.022,1.022,0,0,0-.549.156.886.886,0,0,0-.365.457,2.573,2.573,0,0,0-.113.867V0Zm6.668-4.918v-.809h.7v.809Zm0,4.918V-4.148h.7V0ZM28.7-1.336l.727.09a1.773,1.773,0,0,1-.637.988A1.914,1.914,0,0,1,27.6.094a1.9,1.9,0,0,1-1.443-.561,2.19,2.19,0,0,1-.533-1.572,2.292,2.292,0,0,1,.539-1.625,1.825,1.825,0,0,1,1.4-.578,1.774,1.774,0,0,1,1.359.566,2.25,2.25,0,0,1,.527,1.594q0,.063,0,.188H26.352a1.594,1.594,0,0,0,.387,1.047,1.151,1.151,0,0,0,.867.363,1.076,1.076,0,0,0,.66-.2A1.348,1.348,0,0,0,28.7-1.336ZM26.391-2.473h2.316a1.405,1.405,0,0,0-.266-.785,1.078,1.078,0,0,0-.871-.406,1.117,1.117,0,0,0-.814.324A1.283,1.283,0,0,0,26.391-2.473ZM30.309,0V-4.148h.633v.59a1.491,1.491,0,0,1,1.32-.684,1.732,1.732,0,0,1,.689.135,1.084,1.084,0,0,1,.471.354,1.357,1.357,0,0,1,.219.52,4.026,4.026,0,0,1,.039.684V0h-.7V-2.523a1.894,1.894,0,0,0-.082-.643.676.676,0,0,0-.291-.34.926.926,0,0,0-.49-.127,1.139,1.139,0,0,0-.775.285,1.407,1.407,0,0,0-.326,1.082V0Zm5.984-.629.1.621a2.608,2.608,0,0,1-.531.063,1.2,1.2,0,0,1-.594-.121.678.678,0,0,1-.3-.318,2.517,2.517,0,0,1-.086-.83V-3.6h-.516v-.547h.516V-5.176l.7-.422v1.449h.707V-3.6h-.707v2.426a1.225,1.225,0,0,0,.037.387.293.293,0,0,0,.121.137.468.468,0,0,0,.24.051A2.287,2.287,0,0,0,36.293-.629Zm.426-1.445a2.138,2.138,0,0,1,.641-1.707,1.93,1.93,0,0,1,1.3-.461,1.861,1.861,0,0,1,1.4.561,2.133,2.133,0,0,1,.543,1.549,2.744,2.744,0,0,1-.24,1.26,1.7,1.7,0,0,1-.7.713,2.036,2.036,0,0,1-1,.254,1.865,1.865,0,0,1-1.408-.559A2.231,2.231,0,0,1,36.719-2.074Zm.723,0a1.767,1.767,0,0,0,.348,1.193,1.114,1.114,0,0,0,.875.4,1.108,1.108,0,0,0,.871-.4A1.809,1.809,0,0,0,39.883-2.1a1.714,1.714,0,0,0-.35-1.166,1.112,1.112,0,0,0-.869-.4,1.117,1.117,0,0,0-.875.395A1.759,1.759,0,0,0,37.441-2.074ZM45,1.684a7.029,7.029,0,0,1-.984-1.719,5.34,5.34,0,0,1-.4-2.039,5.309,5.309,0,0,1,.3-1.781A7.488,7.488,0,0,1,45-5.824h.5q-.473.813-.625,1.16A6.338,6.338,0,0,0,44.5-3.539a6.534,6.534,0,0,0-.168,1.469A7.049,7.049,0,0,0,45.5,1.684Zm1.039-2.922.7-.109a.972.972,0,0,0,.326.641,1.137,1.137,0,0,0,.748.223,1.1,1.1,0,0,0,.719-.2.59.59,0,0,0,.234-.463.427.427,0,0,0-.207-.375,3.049,3.049,0,0,0-.719-.238A6.559,6.559,0,0,1,46.76-2.1a1.039,1.039,0,0,1-.453-.395,1.045,1.045,0,0,1-.154-.557,1.068,1.068,0,0,1,.127-.514,1.138,1.138,0,0,1,.346-.393,1.449,1.449,0,0,1,.447-.205,2.127,2.127,0,0,1,.607-.084,2.4,2.4,0,0,1,.857.141,1.166,1.166,0,0,1,.545.381,1.488,1.488,0,0,1,.242.643l-.687.094a.752.752,0,0,0-.271-.5.993.993,0,0,0-.635-.18,1.15,1.15,0,0,0-.691.16.466.466,0,0,0-.207.375.388.388,0,0,0,.086.246.62.62,0,0,0,.27.188q.105.039.621.18a8.646,8.646,0,0,1,1.041.326,1.056,1.056,0,0,1,.463.369,1.03,1.03,0,0,1,.168.6,1.18,1.18,0,0,1-.205.662,1.325,1.325,0,0,1-.592.48,2.154,2.154,0,0,1-.875.17,1.949,1.949,0,0,1-1.232-.336A1.562,1.562,0,0,1,46.035-1.238Zm4.133-3.738v-.676h3.707v.547a7.812,7.812,0,0,0-1.084,1.547,9.421,9.421,0,0,0-.83,1.984A7.376,7.376,0,0,0,51.691,0h-.723a7.018,7.018,0,0,1,.266-1.633,8.574,8.574,0,0,1,.729-1.846,7.912,7.912,0,0,1,1.01-1.5ZM57.219,0h-.7V-4.48A3.634,3.634,0,0,1,55.85-4a4.721,4.721,0,0,1-.74.363v-.68a4.246,4.246,0,0,0,1.031-.672,2.643,2.643,0,0,0,.625-.766h.453Zm1.8-2.824a5.24,5.24,0,0,1,.209-1.635,2.033,2.033,0,0,1,.621-.955,1.588,1.588,0,0,1,1.037-.336,1.692,1.692,0,0,1,.809.186,1.546,1.546,0,0,1,.574.535,2.871,2.871,0,0,1,.355.852,5.658,5.658,0,0,1,.129,1.354A5.255,5.255,0,0,1,62.547-1.2a2.034,2.034,0,0,1-.619.957A1.588,1.588,0,0,1,60.887.1a1.571,1.571,0,0,1-1.3-.594A3.774,3.774,0,0,1,59.02-2.824Zm.723,0a3.591,3.591,0,0,0,.33,1.877.973.973,0,0,0,.814.467A.972.972,0,0,0,61.7-.949a3.592,3.592,0,0,0,.33-1.875A3.59,3.59,0,0,0,61.7-4.7a.98.98,0,0,0-.822-.465.9.9,0,0,0-.773.41A3.632,3.632,0,0,0,59.742-2.824Zm3.648,1.105v-.707h2.16v.707ZM66.18-4.977v-.676h3.707v.547A7.812,7.812,0,0,0,68.8-3.559a9.421,9.421,0,0,0-.83,1.984A7.376,7.376,0,0,0,67.7,0H66.98a7.017,7.017,0,0,1,.266-1.633,8.574,8.574,0,0,1,.729-1.846,7.912,7.912,0,0,1,1.01-1.5Zm4.508,3.652.676-.062a1.174,1.174,0,0,0,.328.691.9.9,0,0,0,.621.215,1.072,1.072,0,0,0,.568-.148,1.214,1.214,0,0,0,.4-.4,2.33,2.33,0,0,0,.262-.67,3.53,3.53,0,0,0,.105-.859q0-.047,0-.141a1.61,1.61,0,0,1-.576.545,1.566,1.566,0,0,1-.791.209,1.6,1.6,0,0,1-1.2-.516,1.887,1.887,0,0,1-.492-1.359,1.932,1.932,0,0,1,.514-1.4,1.716,1.716,0,0,1,1.287-.531,1.836,1.836,0,0,1,1.021.3,1.879,1.879,0,0,1,.7.857,4.223,4.223,0,0,1,.24,1.611,5.215,5.215,0,0,1-.238,1.748,2.047,2.047,0,0,1-.709.99A1.835,1.835,0,0,1,72.3.1a1.6,1.6,0,0,1-1.1-.373A1.6,1.6,0,0,1,70.688-1.324Zm2.879-2.527a1.377,1.377,0,0,0-.322-.961,1.01,1.01,0,0,0-.775-.355,1.07,1.07,0,0,0-.816.383,1.419,1.419,0,0,0-.348.992,1.226,1.226,0,0,0,.33.889,1.087,1.087,0,0,0,.814.342,1.042,1.042,0,0,0,.8-.342A1.346,1.346,0,0,0,73.566-3.852Zm1.57,2.527.676-.062a1.174,1.174,0,0,0,.328.691.9.9,0,0,0,.621.215,1.072,1.072,0,0,0,.568-.148,1.214,1.214,0,0,0,.4-.4,2.33,2.33,0,0,0,.262-.67,3.53,3.53,0,0,0,.105-.859q0-.047,0-.141a1.61,1.61,0,0,1-.576.545,1.566,1.566,0,0,1-.791.209,1.6,1.6,0,0,1-1.2-.516,1.887,1.887,0,0,1-.492-1.359,1.932,1.932,0,0,1,.514-1.4,1.716,1.716,0,0,1,1.287-.531,1.836,1.836,0,0,1,1.021.3,1.879,1.879,0,0,1,.7.857A4.223,4.223,0,0,1,78.8-2.98a5.215,5.215,0,0,1-.238,1.748,2.047,2.047,0,0,1-.709.99,1.835,1.835,0,0,1-1.1.34,1.6,1.6,0,0,1-1.1-.373A1.6,1.6,0,0,1,75.137-1.324Zm2.879-2.527a1.377,1.377,0,0,0-.322-.961,1.01,1.01,0,0,0-.775-.355,1.07,1.07,0,0,0-.816.383,1.419,1.419,0,0,0-.348.992,1.226,1.226,0,0,0,.33.889,1.087,1.087,0,0,0,.814.342,1.042,1.042,0,0,0,.8-.342A1.346,1.346,0,0,0,78.016-3.852Zm2.121,5.535h-.5A7.049,7.049,0,0,0,80.8-2.07a6.416,6.416,0,0,0-.168-1.457,6.124,6.124,0,0,0-.371-1.125,13.2,13.2,0,0,0-.629-1.172h.5a7.487,7.487,0,0,1,1.086,1.969,5.309,5.309,0,0,1,.3,1.781,5.318,5.318,0,0,1-.4,2.039A7.153,7.153,0,0,1,80.137,1.684Z" transform="translate(1107.506 2463.035)" fill="#20143b"/>
    <path id="Trazado_206" data-name="Trazado 206" d="M1.414-3.105a1.324,1.324,0,0,1-.648-.457,1.2,1.2,0,0,1-.211-.711A1.39,1.39,0,0,1,1-5.324,1.666,1.666,0,0,1,2.2-5.75a1.677,1.677,0,0,1,1.207.436,1.41,1.41,0,0,1,.457,1.061,1.168,1.168,0,0,1-.209.693,1.318,1.318,0,0,1-.635.455,1.54,1.54,0,0,1,.8.555,1.523,1.523,0,0,1,.275.914A1.645,1.645,0,0,1,3.578-.4,1.889,1.889,0,0,1,2.211.1,1.885,1.885,0,0,1,.844-.4a1.67,1.67,0,0,1-.52-1.252,1.513,1.513,0,0,1,.283-.936A1.418,1.418,0,0,1,1.414-3.105ZM1.273-4.3a.892.892,0,0,0,.262.664.927.927,0,0,0,.68.258.909.909,0,0,0,.666-.256.846.846,0,0,0,.26-.627.877.877,0,0,0-.268-.65.911.911,0,0,0-.666-.264.92.92,0,0,0-.668.258A.83.83,0,0,0,1.273-4.3ZM1.047-1.652a1.272,1.272,0,0,0,.143.582,1.006,1.006,0,0,0,.424.436,1.239,1.239,0,0,0,.605.154A1.135,1.135,0,0,0,3.051-.8a1.11,1.11,0,0,0,.328-.824,1.128,1.128,0,0,0-.338-.84A1.158,1.158,0,0,0,2.2-2.8a1.111,1.111,0,0,0-.822.328A1.116,1.116,0,0,0,1.047-1.652ZM5.176,0V-.8h.8V0ZM9.512,0V-5.727h2.16a5.216,5.216,0,0,1,.871.055,1.726,1.726,0,0,1,.707.268,1.4,1.4,0,0,1,.459.553,1.754,1.754,0,0,1,.174.781,1.76,1.76,0,0,1-.465,1.236,2.23,2.23,0,0,1-1.68.506H10.27V0Zm.758-3h1.48a1.57,1.57,0,0,0,1.043-.273.974.974,0,0,0,.309-.77,1.035,1.035,0,0,0-.182-.615A.849.849,0,0,0,12.441-5a3.238,3.238,0,0,0-.707-.051H10.27Zm4.492-1.914v-.809h.7v.809Zm0,4.918V-4.148h.7V0Zm4.613-1.336.727.09a1.773,1.773,0,0,1-.637.988,1.914,1.914,0,0,1-1.187.352,1.9,1.9,0,0,1-1.443-.561A2.19,2.19,0,0,1,16.3-2.039a2.292,2.292,0,0,1,.539-1.625,1.825,1.825,0,0,1,1.4-.578,1.774,1.774,0,0,1,1.359.566,2.25,2.25,0,0,1,.527,1.594q0,.063,0,.188H17.027a1.594,1.594,0,0,0,.387,1.047,1.151,1.151,0,0,0,.867.363,1.076,1.076,0,0,0,.66-.2A1.348,1.348,0,0,0,19.375-1.336ZM17.066-2.473h2.316a1.405,1.405,0,0,0-.266-.785,1.078,1.078,0,0,0-.871-.406,1.117,1.117,0,0,0-.814.324A1.283,1.283,0,0,0,17.066-2.473ZM20.969,0V-5.727h.7V0Zm3.984,1.6-.078-.66a1.567,1.567,0,0,0,.4.063.772.772,0,0,0,.375-.078A.639.639,0,0,0,25.883.7,3.449,3.449,0,0,0,26.1.18q.02-.059.063-.172L24.586-4.148h.758l.863,2.4q.168.457.3.961A9.46,9.46,0,0,1,26.8-1.73l.887-2.418h.7L26.809.07a8.281,8.281,0,0,1-.395.941,1.389,1.389,0,0,1-.43.51,1.015,1.015,0,0,1-.578.162A1.408,1.408,0,0,1,24.953,1.6Zm9.094-2.934.727.09a1.773,1.773,0,0,1-.637.988,1.914,1.914,0,0,1-1.187.352,1.9,1.9,0,0,1-1.443-.561,2.19,2.19,0,0,1-.533-1.572,2.292,2.292,0,0,1,.539-1.625,1.825,1.825,0,0,1,1.4-.578,1.774,1.774,0,0,1,1.359.566A2.25,2.25,0,0,1,34.8-2.082q0,.063,0,.188H31.7a1.594,1.594,0,0,0,.387,1.047,1.151,1.151,0,0,0,.867.363,1.076,1.076,0,0,0,.66-.2A1.348,1.348,0,0,0,34.047-1.336ZM31.738-2.473h2.316a1.405,1.405,0,0,0-.266-.785,1.078,1.078,0,0,0-.871-.406,1.117,1.117,0,0,0-.814.324A1.283,1.283,0,0,0,31.738-2.473Zm3.637,1.234.7-.109a.972.972,0,0,0,.326.641,1.137,1.137,0,0,0,.748.223,1.1,1.1,0,0,0,.719-.2.59.59,0,0,0,.234-.463.427.427,0,0,0-.207-.375,3.049,3.049,0,0,0-.719-.238A6.559,6.559,0,0,1,36.1-2.1a1.039,1.039,0,0,1-.453-.395,1.045,1.045,0,0,1-.154-.557,1.068,1.068,0,0,1,.127-.514,1.138,1.138,0,0,1,.346-.393,1.449,1.449,0,0,1,.447-.205,2.127,2.127,0,0,1,.607-.084,2.4,2.4,0,0,1,.857.141,1.166,1.166,0,0,1,.545.381,1.488,1.488,0,0,1,.242.643l-.687.094a.752.752,0,0,0-.271-.5.993.993,0,0,0-.635-.18,1.15,1.15,0,0,0-.691.16.466.466,0,0,0-.207.375.388.388,0,0,0,.086.246.62.62,0,0,0,.27.188q.105.039.621.18a8.646,8.646,0,0,1,1.041.326,1.056,1.056,0,0,1,.463.369,1.03,1.03,0,0,1,.168.6,1.18,1.18,0,0,1-.205.662,1.325,1.325,0,0,1-.592.48,2.154,2.154,0,0,1-.875.17,1.949,1.949,0,0,1-1.232-.336A1.562,1.562,0,0,1,35.375-1.238Zm5.816.609.1.621a2.608,2.608,0,0,1-.531.063,1.2,1.2,0,0,1-.594-.121.678.678,0,0,1-.3-.318,2.517,2.517,0,0,1-.086-.83V-3.6H39.27v-.547h.516V-5.176l.7-.422v1.449h.707V-3.6h-.707v2.426a1.225,1.225,0,0,0,.037.387.293.293,0,0,0,.121.137.468.468,0,0,0,.24.051A2.287,2.287,0,0,0,41.191-.629Zm.68.629V-4.148H42.5v.629a1.716,1.716,0,0,1,.447-.582.781.781,0,0,1,.451-.141,1.371,1.371,0,0,1,.723.227l-.242.652a1.006,1.006,0,0,0-.516-.152.67.67,0,0,0-.414.139.751.751,0,0,0-.262.385,2.739,2.739,0,0,0-.117.82V0Zm5.391,0V-.609a1.518,1.518,0,0,1-1.316.7,1.678,1.678,0,0,1-.686-.141A1.129,1.129,0,0,1,44.787-.4a1.325,1.325,0,0,1-.217-.521,3.57,3.57,0,0,1-.043-.656v-2.57h.7v2.3a4.1,4.1,0,0,0,.043.742.733.733,0,0,0,.281.436.871.871,0,0,0,.531.158,1.157,1.157,0,0,0,.594-.162.9.9,0,0,0,.393-.441,2.215,2.215,0,0,0,.115-.811V-4.148h.7V0ZM51.7-1.52l.691.09a1.793,1.793,0,0,1-.58,1.119,1.69,1.69,0,0,1-1.146.4,1.781,1.781,0,0,1-1.369-.557,2.258,2.258,0,0,1-.518-1.6A2.888,2.888,0,0,1,49-3.234a1.552,1.552,0,0,1,.678-.756,2.011,2.011,0,0,1,.99-.252,1.721,1.721,0,0,1,1.105.342,1.567,1.567,0,0,1,.551.971l-.684.105a1.135,1.135,0,0,0-.346-.629.9.9,0,0,0-.6-.211,1.091,1.091,0,0,0-.863.381A1.808,1.808,0,0,0,49.5-2.078a1.869,1.869,0,0,0,.32,1.215,1.042,1.042,0,0,0,.836.379.985.985,0,0,0,.691-.254A1.26,1.26,0,0,0,51.7-1.52Zm2.828.891.1.621A2.608,2.608,0,0,1,54.1.055,1.2,1.2,0,0,1,53.5-.066a.678.678,0,0,1-.3-.318,2.517,2.517,0,0,1-.086-.83V-3.6h-.516v-.547h.516V-5.176l.7-.422v1.449h.707V-3.6H53.82v2.426a1.225,1.225,0,0,0,.037.387.293.293,0,0,0,.121.137.468.468,0,0,0,.24.051A2.287,2.287,0,0,0,54.527-.629ZM57.934,0V-.609a1.518,1.518,0,0,1-1.316.7,1.678,1.678,0,0,1-.686-.141A1.129,1.129,0,0,1,55.459-.4a1.325,1.325,0,0,1-.217-.521,3.57,3.57,0,0,1-.043-.656v-2.57h.7v2.3a4.1,4.1,0,0,0,.043.742.733.733,0,0,0,.281.436.871.871,0,0,0,.531.158,1.157,1.157,0,0,0,.594-.162.9.9,0,0,0,.393-.441,2.215,2.215,0,0,0,.115-.811V-4.148h.7V0Zm1.723,0V-4.148h.633v.629a1.716,1.716,0,0,1,.447-.582.781.781,0,0,1,.451-.141,1.371,1.371,0,0,1,.723.227l-.242.652a1.006,1.006,0,0,0-.516-.152.67.67,0,0,0-.414.139.751.751,0,0,0-.262.385,2.739,2.739,0,0,0-.117.82V0Zm5.379-.512a2.618,2.618,0,0,1-.752.469,2.173,2.173,0,0,1-.775.137A1.508,1.508,0,0,1,62.457-.24a1.1,1.1,0,0,1-.367-.854,1.135,1.135,0,0,1,.139-.557,1.148,1.148,0,0,1,.363-.4,1.708,1.708,0,0,1,.506-.23,5.024,5.024,0,0,1,.625-.105,6.427,6.427,0,0,0,1.254-.242q0-.145,0-.184a.776.776,0,0,0-.2-.605,1.177,1.177,0,0,0-.8-.238,1.242,1.242,0,0,0-.732.174,1.062,1.062,0,0,0-.35.615l-.687-.094a1.7,1.7,0,0,1,.309-.713,1.353,1.353,0,0,1,.621-.418,2.77,2.77,0,0,1,.941-.146,2.492,2.492,0,0,1,.863.125,1.137,1.137,0,0,1,.488.314,1.106,1.106,0,0,1,.219.479,3.959,3.959,0,0,1,.035.648v.938A9.951,9.951,0,0,0,65.732-.5a1.565,1.565,0,0,0,.178.5h-.734A1.491,1.491,0,0,1,65.035-.512Zm-.059-1.57a5.159,5.159,0,0,1-1.148.266,2.656,2.656,0,0,0-.613.141.611.611,0,0,0-.277.229.6.6,0,0,0-.1.334.6.6,0,0,0,.213.469.916.916,0,0,0,.623.188A1.45,1.45,0,0,0,64.4-.635a1.094,1.094,0,0,0,.465-.486,1.7,1.7,0,0,0,.113-.7Zm1.52.844.7-.109a.972.972,0,0,0,.326.641,1.137,1.137,0,0,0,.748.223,1.1,1.1,0,0,0,.719-.2.59.59,0,0,0,.234-.463.427.427,0,0,0-.207-.375,3.049,3.049,0,0,0-.719-.238A6.559,6.559,0,0,1,67.221-2.1a1.039,1.039,0,0,1-.453-.395,1.045,1.045,0,0,1-.154-.557,1.068,1.068,0,0,1,.127-.514,1.138,1.138,0,0,1,.346-.393,1.449,1.449,0,0,1,.447-.205,2.127,2.127,0,0,1,.607-.084A2.4,2.4,0,0,1,69-4.1a1.166,1.166,0,0,1,.545.381,1.488,1.488,0,0,1,.242.643l-.687.094a.752.752,0,0,0-.271-.5.993.993,0,0,0-.635-.18,1.15,1.15,0,0,0-.691.16.466.466,0,0,0-.207.375.388.388,0,0,0,.086.246.62.62,0,0,0,.27.188q.105.039.621.18a8.646,8.646,0,0,1,1.041.326,1.056,1.056,0,0,1,.463.369,1.03,1.03,0,0,1,.168.6,1.18,1.18,0,0,1-.205.662,1.325,1.325,0,0,1-.592.48,2.154,2.154,0,0,1-.875.17,1.949,1.949,0,0,1-1.232-.336A1.562,1.562,0,0,1,66.5-1.238ZM72.992,0V-4.148h.633v.629a1.716,1.716,0,0,1,.447-.582.781.781,0,0,1,.451-.141,1.371,1.371,0,0,1,.723.227L75-3.363a1.006,1.006,0,0,0-.516-.152.67.67,0,0,0-.414.139.751.751,0,0,0-.262.385,2.739,2.739,0,0,0-.117.82V0ZM78.5-1.336l.727.09a1.773,1.773,0,0,1-.637.988,1.914,1.914,0,0,1-1.187.352,1.9,1.9,0,0,1-1.443-.561,2.19,2.19,0,0,1-.533-1.572,2.292,2.292,0,0,1,.539-1.625,1.825,1.825,0,0,1,1.4-.578,1.774,1.774,0,0,1,1.359.566,2.25,2.25,0,0,1,.527,1.594q0,.063,0,.188H76.156a1.594,1.594,0,0,0,.387,1.047,1.151,1.151,0,0,0,.867.363,1.076,1.076,0,0,0,.66-.2A1.348,1.348,0,0,0,78.5-1.336ZM76.2-2.473h2.316a1.405,1.405,0,0,0-.266-.785,1.078,1.078,0,0,0-.871-.406,1.117,1.117,0,0,0-.814.324A1.283,1.283,0,0,0,76.2-2.473ZM80.1,0V-5.727h.7V0Zm4.5-.512a2.618,2.618,0,0,1-.752.469,2.173,2.173,0,0,1-.775.137A1.508,1.508,0,0,1,82.02-.24a1.1,1.1,0,0,1-.367-.854,1.135,1.135,0,0,1,.139-.557,1.148,1.148,0,0,1,.363-.4,1.708,1.708,0,0,1,.506-.23,5.024,5.024,0,0,1,.625-.105,6.427,6.427,0,0,0,1.254-.242q0-.145,0-.184a.776.776,0,0,0-.2-.605,1.177,1.177,0,0,0-.8-.238,1.242,1.242,0,0,0-.732.174,1.062,1.062,0,0,0-.35.615l-.687-.094a1.7,1.7,0,0,1,.309-.713A1.353,1.353,0,0,1,82.7-4.1a2.77,2.77,0,0,1,.941-.146,2.492,2.492,0,0,1,.863.125A1.137,1.137,0,0,1,85-3.8a1.106,1.106,0,0,1,.219.479,3.959,3.959,0,0,1,.035.648v.938A9.951,9.951,0,0,0,85.295-.5a1.565,1.565,0,0,0,.178.5h-.734A1.491,1.491,0,0,1,84.6-.512Zm-.059-1.57a5.159,5.159,0,0,1-1.148.266,2.656,2.656,0,0,0-.613.141.611.611,0,0,0-.277.229.6.6,0,0,0-.1.334.6.6,0,0,0,.213.469.916.916,0,0,0,.623.188,1.45,1.45,0,0,0,.723-.178,1.094,1.094,0,0,0,.465-.486,1.7,1.7,0,0,0,.113-.7Zm4.508.563.691.09a1.793,1.793,0,0,1-.58,1.119,1.69,1.69,0,0,1-1.146.4,1.781,1.781,0,0,1-1.369-.557,2.258,2.258,0,0,1-.518-1.6,2.888,2.888,0,0,1,.223-1.176,1.552,1.552,0,0,1,.678-.756,2.011,2.011,0,0,1,.99-.252,1.721,1.721,0,0,1,1.105.342,1.567,1.567,0,0,1,.551.971l-.684.105a1.135,1.135,0,0,0-.346-.629.9.9,0,0,0-.6-.211,1.091,1.091,0,0,0-.863.381,1.808,1.808,0,0,0-.332,1.205,1.869,1.869,0,0,0,.32,1.215A1.042,1.042,0,0,0,88-.484.985.985,0,0,0,88.7-.738,1.26,1.26,0,0,0,89.047-1.52Zm1.3-3.4v-.809h.7v.809Zm0,4.918V-4.148h.7V0Zm1.512-2.074A2.138,2.138,0,0,1,92.5-3.781a1.93,1.93,0,0,1,1.3-.461,1.861,1.861,0,0,1,1.4.561,2.133,2.133,0,0,1,.543,1.549,2.744,2.744,0,0,1-.24,1.26,1.7,1.7,0,0,1-.7.713,2.036,2.036,0,0,1-1,.254,1.865,1.865,0,0,1-1.408-.559A2.231,2.231,0,0,1,91.855-2.074Zm.723,0a1.767,1.767,0,0,0,.348,1.193,1.114,1.114,0,0,0,.875.4,1.108,1.108,0,0,0,.871-.4A1.809,1.809,0,0,0,95.02-2.1a1.714,1.714,0,0,0-.35-1.166,1.112,1.112,0,0,0-.869-.4,1.117,1.117,0,0,0-.875.395A1.759,1.759,0,0,0,92.578-2.074ZM96.566,0V-4.148H97.2v.59a1.491,1.491,0,0,1,1.32-.684,1.732,1.732,0,0,1,.689.135,1.084,1.084,0,0,1,.471.354,1.357,1.357,0,0,1,.219.52,4.026,4.026,0,0,1,.039.684V0h-.7V-2.523a1.894,1.894,0,0,0-.082-.643.676.676,0,0,0-.291-.34.926.926,0,0,0-.49-.127,1.139,1.139,0,0,0-.775.285,1.407,1.407,0,0,0-.326,1.082V0Zm7.156-.512a2.618,2.618,0,0,1-.752.469,2.173,2.173,0,0,1-.775.137,1.508,1.508,0,0,1-1.051-.334,1.1,1.1,0,0,1-.367-.854,1.135,1.135,0,0,1,.139-.557,1.148,1.148,0,0,1,.363-.4,1.708,1.708,0,0,1,.506-.23,5.024,5.024,0,0,1,.625-.105,6.427,6.427,0,0,0,1.254-.242q0-.145,0-.184a.776.776,0,0,0-.2-.605,1.177,1.177,0,0,0-.8-.238,1.242,1.242,0,0,0-.732.174,1.062,1.062,0,0,0-.35.615l-.687-.094a1.7,1.7,0,0,1,.309-.713,1.353,1.353,0,0,1,.621-.418,2.77,2.77,0,0,1,.941-.146,2.492,2.492,0,0,1,.863.125,1.137,1.137,0,0,1,.488.314,1.106,1.106,0,0,1,.219.479,3.959,3.959,0,0,1,.035.648v.938A9.951,9.951,0,0,0,104.42-.5a1.565,1.565,0,0,0,.178.5h-.734A1.491,1.491,0,0,1,103.723-.512Zm-.059-1.57a5.159,5.159,0,0,1-1.148.266,2.656,2.656,0,0,0-.613.141.611.611,0,0,0-.277.229.6.6,0,0,0-.1.334.6.6,0,0,0,.213.469.916.916,0,0,0,.623.188,1.45,1.45,0,0,0,.723-.178,1.094,1.094,0,0,0,.465-.486,1.7,1.7,0,0,0,.113-.7ZM108.156,0V-.523A1.29,1.29,0,0,1,107,.094a1.627,1.627,0,0,1-.912-.273,1.8,1.8,0,0,1-.645-.764,2.639,2.639,0,0,1-.229-1.127,2.95,2.95,0,0,1,.207-1.127,1.633,1.633,0,0,1,.621-.775,1.661,1.661,0,0,1,.926-.27,1.383,1.383,0,0,1,.668.158,1.4,1.4,0,0,1,.477.412V-5.727h.7V0Zm-2.223-2.07a1.8,1.8,0,0,0,.336,1.191,1.013,1.013,0,0,0,.793.395.994.994,0,0,0,.783-.377,1.738,1.738,0,0,0,.322-1.15,1.951,1.951,0,0,0-.328-1.25,1.009,1.009,0,0,0-.809-.4.974.974,0,0,0-.783.383A1.889,1.889,0,0,0,105.934-2.07Zm6.688,1.559a2.618,2.618,0,0,1-.752.469,2.173,2.173,0,0,1-.775.137,1.508,1.508,0,0,1-1.051-.334,1.1,1.1,0,0,1-.367-.854,1.135,1.135,0,0,1,.139-.557,1.148,1.148,0,0,1,.363-.4,1.708,1.708,0,0,1,.506-.23,5.024,5.024,0,0,1,.625-.105,6.427,6.427,0,0,0,1.254-.242q0-.145,0-.184a.776.776,0,0,0-.2-.605,1.177,1.177,0,0,0-.8-.238,1.242,1.242,0,0,0-.732.174,1.062,1.062,0,0,0-.35.615l-.687-.094a1.7,1.7,0,0,1,.309-.713,1.353,1.353,0,0,1,.621-.418,2.77,2.77,0,0,1,.941-.146,2.492,2.492,0,0,1,.863.125,1.137,1.137,0,0,1,.488.314,1.106,1.106,0,0,1,.219.479,3.959,3.959,0,0,1,.035.648v.938a9.951,9.951,0,0,0,.045,1.24,1.565,1.565,0,0,0,.178.5h-.734A1.491,1.491,0,0,1,112.621-.512Zm-.059-1.57a5.159,5.159,0,0,1-1.148.266,2.656,2.656,0,0,0-.613.141.611.611,0,0,0-.277.229.6.6,0,0,0-.1.334.6.6,0,0,0,.213.469.916.916,0,0,0,.623.188,1.45,1.45,0,0,0,.723-.178,1.094,1.094,0,0,0,.465-.486,1.7,1.7,0,0,0,.113-.7Zm1.52.844.7-.109a.972.972,0,0,0,.326.641,1.137,1.137,0,0,0,.748.223,1.1,1.1,0,0,0,.719-.2.59.59,0,0,0,.234-.463.427.427,0,0,0-.207-.375,3.049,3.049,0,0,0-.719-.238,6.559,6.559,0,0,1-1.072-.338,1.039,1.039,0,0,1-.453-.395,1.045,1.045,0,0,1-.154-.557,1.068,1.068,0,0,1,.127-.514,1.138,1.138,0,0,1,.346-.393,1.449,1.449,0,0,1,.447-.205,2.127,2.127,0,0,1,.607-.084,2.4,2.4,0,0,1,.857.141,1.166,1.166,0,0,1,.545.381,1.488,1.488,0,0,1,.242.643l-.687.094a.752.752,0,0,0-.271-.5.993.993,0,0,0-.635-.18,1.15,1.15,0,0,0-.691.16.466.466,0,0,0-.207.375.388.388,0,0,0,.086.246.62.62,0,0,0,.27.188q.105.039.621.18a8.646,8.646,0,0,1,1.041.326,1.056,1.056,0,0,1,.463.369,1.03,1.03,0,0,1,.168.6,1.18,1.18,0,0,1-.205.662,1.325,1.325,0,0,1-.592.48,2.154,2.154,0,0,1-.875.17,1.949,1.949,0,0,1-1.232-.336A1.562,1.562,0,0,1,114.082-1.238Z" transform="translate(1084.571 2478.036)" fill="#20143b"/>
    <path id="Trazado_207" data-name="Trazado 207" d="M1.871,1.684A7.029,7.029,0,0,1,.887-.035a5.34,5.34,0,0,1-.4-2.039,5.309,5.309,0,0,1,.3-1.781A7.487,7.487,0,0,1,1.871-5.824h.5q-.473.813-.625,1.16a6.338,6.338,0,0,0-.375,1.125A6.534,6.534,0,0,0,1.207-2.07,7.049,7.049,0,0,0,2.375,1.684ZM2.91-1.238l.7-.109a.972.972,0,0,0,.326.641,1.137,1.137,0,0,0,.748.223,1.1,1.1,0,0,0,.719-.2.59.59,0,0,0,.234-.463.427.427,0,0,0-.207-.375,3.049,3.049,0,0,0-.719-.238A6.559,6.559,0,0,1,3.635-2.1a1.039,1.039,0,0,1-.453-.395,1.045,1.045,0,0,1-.154-.557,1.068,1.068,0,0,1,.127-.514A1.138,1.138,0,0,1,3.5-3.953a1.449,1.449,0,0,1,.447-.205,2.127,2.127,0,0,1,.607-.084,2.4,2.4,0,0,1,.857.141,1.166,1.166,0,0,1,.545.381,1.488,1.488,0,0,1,.242.643l-.687.094a.752.752,0,0,0-.271-.5.993.993,0,0,0-.635-.18,1.15,1.15,0,0,0-.691.16.466.466,0,0,0-.207.375.388.388,0,0,0,.086.246.62.62,0,0,0,.27.188q.105.039.621.18a8.646,8.646,0,0,1,1.041.326,1.056,1.056,0,0,1,.463.369,1.03,1.03,0,0,1,.168.6,1.18,1.18,0,0,1-.205.662,1.325,1.325,0,0,1-.592.48,2.154,2.154,0,0,1-.875.17A1.949,1.949,0,0,1,3.451-.242,1.562,1.562,0,0,1,2.91-1.238ZM8.078-3.105a1.324,1.324,0,0,1-.648-.457,1.2,1.2,0,0,1-.211-.711,1.39,1.39,0,0,1,.449-1.051,1.666,1.666,0,0,1,1.2-.426,1.677,1.677,0,0,1,1.207.436,1.41,1.41,0,0,1,.457,1.061,1.168,1.168,0,0,1-.209.693,1.318,1.318,0,0,1-.635.455,1.54,1.54,0,0,1,.8.555,1.523,1.523,0,0,1,.275.914A1.645,1.645,0,0,1,10.242-.4,1.889,1.889,0,0,1,8.875.1,1.885,1.885,0,0,1,7.508-.4a1.67,1.67,0,0,1-.52-1.252,1.513,1.513,0,0,1,.283-.936A1.418,1.418,0,0,1,8.078-3.105ZM7.938-4.3a.892.892,0,0,0,.262.664.927.927,0,0,0,.68.258.909.909,0,0,0,.666-.256.846.846,0,0,0,.26-.627.877.877,0,0,0-.268-.65.911.911,0,0,0-.666-.264.92.92,0,0,0-.668.258A.83.83,0,0,0,7.938-4.3ZM7.711-1.652a1.272,1.272,0,0,0,.143.582,1.006,1.006,0,0,0,.424.436,1.239,1.239,0,0,0,.605.154A1.135,1.135,0,0,0,9.715-.8a1.11,1.11,0,0,0,.328-.824,1.128,1.128,0,0,0-.338-.84A1.158,1.158,0,0,0,8.859-2.8a1.111,1.111,0,0,0-.822.328A1.116,1.116,0,0,0,7.711-1.652ZM14.094,0h-.7V-4.48A3.634,3.634,0,0,1,12.725-4a4.721,4.721,0,0,1-.74.363v-.68a4.246,4.246,0,0,0,1.031-.672,2.643,2.643,0,0,0,.625-.766h.453Zm1.8-2.824A5.24,5.24,0,0,1,16.1-4.459a2.033,2.033,0,0,1,.621-.955,1.588,1.588,0,0,1,1.037-.336,1.692,1.692,0,0,1,.809.186,1.546,1.546,0,0,1,.574.535,2.871,2.871,0,0,1,.355.852,5.658,5.658,0,0,1,.129,1.354A5.255,5.255,0,0,1,19.422-1.2,2.034,2.034,0,0,1,18.8-.24,1.588,1.588,0,0,1,17.762.1a1.571,1.571,0,0,1-1.3-.594A3.774,3.774,0,0,1,15.895-2.824Zm.723,0a3.591,3.591,0,0,0,.33,1.877.973.973,0,0,0,.814.467.972.972,0,0,0,.814-.469,3.592,3.592,0,0,0,.33-1.875,3.59,3.59,0,0,0-.33-1.879.98.98,0,0,0-.822-.465.9.9,0,0,0-.773.41A3.632,3.632,0,0,0,16.617-2.824Zm3.648,1.105v-.707h2.16v.707ZM24.09-3.105a1.324,1.324,0,0,1-.648-.457,1.2,1.2,0,0,1-.211-.711,1.39,1.39,0,0,1,.449-1.051,1.666,1.666,0,0,1,1.2-.426,1.677,1.677,0,0,1,1.207.436,1.41,1.41,0,0,1,.457,1.061,1.168,1.168,0,0,1-.209.693,1.318,1.318,0,0,1-.635.455,1.54,1.54,0,0,1,.8.555,1.523,1.523,0,0,1,.275.914A1.645,1.645,0,0,1,26.254-.4a1.889,1.889,0,0,1-1.367.5A1.885,1.885,0,0,1,23.52-.4,1.67,1.67,0,0,1,23-1.656a1.513,1.513,0,0,1,.283-.936A1.418,1.418,0,0,1,24.09-3.105ZM23.949-4.3a.892.892,0,0,0,.262.664.927.927,0,0,0,.68.258.909.909,0,0,0,.666-.256.846.846,0,0,0,.26-.627.877.877,0,0,0-.268-.65.911.911,0,0,0-.666-.264.92.92,0,0,0-.668.258A.83.83,0,0,0,23.949-4.3Zm-.227,2.645a1.272,1.272,0,0,0,.143.582,1.006,1.006,0,0,0,.424.436,1.239,1.239,0,0,0,.605.154A1.135,1.135,0,0,0,25.727-.8a1.11,1.11,0,0,0,.328-.824,1.128,1.128,0,0,0-.338-.84,1.158,1.158,0,0,0-.846-.332,1.111,1.111,0,0,0-.822.328A1.116,1.116,0,0,0,23.723-1.652Zm3.84.328.676-.062a1.174,1.174,0,0,0,.328.691.9.9,0,0,0,.621.215,1.072,1.072,0,0,0,.568-.148,1.214,1.214,0,0,0,.4-.4,2.33,2.33,0,0,0,.262-.67,3.53,3.53,0,0,0,.105-.859q0-.047,0-.141a1.61,1.61,0,0,1-.576.545,1.566,1.566,0,0,1-.791.209,1.6,1.6,0,0,1-1.2-.516,1.887,1.887,0,0,1-.492-1.359,1.932,1.932,0,0,1,.514-1.4,1.716,1.716,0,0,1,1.287-.531,1.836,1.836,0,0,1,1.021.3,1.879,1.879,0,0,1,.7.857,4.223,4.223,0,0,1,.24,1.611,5.215,5.215,0,0,1-.238,1.748,2.047,2.047,0,0,1-.709.99,1.835,1.835,0,0,1-1.1.34,1.6,1.6,0,0,1-1.1-.373A1.6,1.6,0,0,1,27.563-1.324Zm2.879-2.527a1.377,1.377,0,0,0-.322-.961,1.01,1.01,0,0,0-.775-.355,1.07,1.07,0,0,0-.816.383,1.419,1.419,0,0,0-.348.992,1.226,1.226,0,0,0,.33.889,1.087,1.087,0,0,0,.814.342,1.042,1.042,0,0,0,.8-.342A1.346,1.346,0,0,0,30.441-3.852Zm1.57,2.527.676-.062a1.174,1.174,0,0,0,.328.691.9.9,0,0,0,.621.215,1.072,1.072,0,0,0,.568-.148,1.214,1.214,0,0,0,.4-.4,2.33,2.33,0,0,0,.262-.67,3.53,3.53,0,0,0,.105-.859q0-.047,0-.141a1.611,1.611,0,0,1-.576.545,1.566,1.566,0,0,1-.791.209,1.6,1.6,0,0,1-1.2-.516,1.887,1.887,0,0,1-.492-1.359,1.932,1.932,0,0,1,.514-1.4,1.716,1.716,0,0,1,1.287-.531,1.836,1.836,0,0,1,1.021.3,1.879,1.879,0,0,1,.7.857,4.223,4.223,0,0,1,.24,1.611,5.215,5.215,0,0,1-.238,1.748,2.047,2.047,0,0,1-.709.99,1.835,1.835,0,0,1-1.1.34,1.6,1.6,0,0,1-1.1-.373A1.6,1.6,0,0,1,32.012-1.324Zm2.879-2.527a1.377,1.377,0,0,0-.322-.961,1.01,1.01,0,0,0-.775-.355,1.07,1.07,0,0,0-.816.383,1.419,1.419,0,0,0-.348.992,1.226,1.226,0,0,0,.33.889,1.087,1.087,0,0,0,.814.342,1.042,1.042,0,0,0,.8-.342A1.346,1.346,0,0,0,34.891-3.852Zm2.121,5.535h-.5A7.049,7.049,0,0,0,37.676-2.07a6.415,6.415,0,0,0-.168-1.457,6.124,6.124,0,0,0-.371-1.125,13.2,13.2,0,0,0-.629-1.172h.5A7.488,7.488,0,0,1,38.1-3.855a5.309,5.309,0,0,1,.3,1.781,5.318,5.318,0,0,1-.4,2.039A7.153,7.153,0,0,1,37.012,1.684Z" transform="translate(1123.953 2487.809)" fill="#20143b"/>
    <path id="Trazado_189" data-name="Trazado 189" d="M0,0H332.22V-93.37H0Z" transform="translate(1072 2493.74)" fill="none"/>
    <path id="Trazado_208" data-name="Trazado 208" d="M4.33-6.5H1.22L.8-3.38a6.724,6.724,0,0,1,.9-.07c1.3,0,1.86.6,1.87,1.44A1.434,1.434,0,0,1,2.03-.6,2.911,2.911,0,0,1,.64-.96L.42-.29a3.182,3.182,0,0,0,1.62.4A2.255,2.255,0,0,0,4.46-2.11a1.853,1.853,0,0,0-.93-1.67,2.747,2.747,0,0,0-1.4-.35,3.475,3.475,0,0,0-.53.04l.25-1.67H4.33Z" transform="translate(1249.449 2458.437)" fill="#2b2e34"/>
    <path id="Trazado_209" data-name="Trazado 209" d="M2.62-6.61C1.3-6.61.36-5.41.36-3.23.38-1.08,1.24.11,2.51.11c1.44,0,2.26-1.22,2.26-3.43C4.77-5.39,3.99-6.61,2.62-6.61Zm-.05.68c.91,0,1.32,1.05,1.32,2.65,0,1.66-.43,2.71-1.33,2.71-.8,0-1.32-.96-1.32-2.65C1.24-4.99,1.8-5.93,2.57-5.93Z" transform="translate(1268.439 2458.437)" fill="#2b2e34"/>
    <path id="Trazado_210" data-name="Trazado 210" d="M2.36,0h.85V-6.5H2.46l-1.42.76.17.67,1.13-.61h.02Z" transform="translate(1290.269 2458.437)" fill="#2b2e34"/>
    <path id="Trazado_211" data-name="Trazado 211" d="M4,0V-1.77h.91v-.69H4V-6.5H3.05L.15-2.35v.58H3.17V0ZM1.04-2.46v-.02L2.63-4.69c.18-.3.34-.58.54-.96H3.2q-.03.51-.03,1.02v2.17Z" transform="translate(1338.459 2458.437)" fill="#2b2e34"/>
    <path id="Trazado_212" data-name="Trazado 212" d="M2.36,0h.85V-6.5H2.46l-1.42.76.17.67,1.13-.61h.02Z" transform="translate(1364.679 2458.437)" fill="#2b2e34"/>
    <path id="Trazado_213" data-name="Trazado 213" d="M2.36,0h.85V-6.5H2.46l-1.42.76.17.67,1.13-.61h.02Z" transform="translate(1386.649 2458.437)" fill="#2b2e34"/>
  </g>
</svg>
