<svg xmlns="http://www.w3.org/2000/svg" width="199" height="41" viewBox="0 0 199 41">
  <g id="Grupo_39" data-name="Grupo 39" transform="translate(-1189 -2235)">
    <path id="Trazado_125" data-name="Trazado 125" d="M0,0V-8.681H1.705l3.553,5.8v-5.8H6.887V0H5.128l-3.5-5.661V0Z" transform="translate(1215.614 2248.702)" fill="#20143b"/>
    <path id="Trazado_128" data-name="Trazado 128" d="M0,0V-8.681H1.705l3.553,5.8v-5.8H6.887V0H5.128l-3.5-5.661V0Z" transform="translate(1282.114 2248.702)" fill="#20143b"/>
    <path id="Trazado_131" data-name="Trazado 131" d="M0,0V-8.681H1.705l3.553,5.8v-5.8H6.887V0H5.128l-3.5-5.661V0Z" transform="translate(1345.704 2248.702)" fill="#20143b"/>
    <path id="Trazado_150" data-name="Trazado 150" d="M0,0,1.61-.195a1.529,1.529,0,0,0,.415.941,1.134,1.134,0,0,0,.818.326A1.121,1.121,0,0,0,3.71.681,1.52,1.52,0,0,0,4.062-.373a1.417,1.417,0,0,0-.337-1A1.078,1.078,0,0,0,2.9-1.735a2.9,2.9,0,0,0-.763.125l.183-1.357A1.458,1.458,0,0,0,3.352-3.26a1.041,1.041,0,0,0,.355-.826.945.945,0,0,0-.261-.7.938.938,0,0,0-.692-.26,1.007,1.007,0,0,0-.729.3,1.391,1.391,0,0,0-.367.865L.124-4.145A3.437,3.437,0,0,1,.606-5.4a2.189,2.189,0,0,1,.9-.741A3.032,3.032,0,0,1,2.8-6.413a2.583,2.583,0,0,1,1.966.782,2.038,2.038,0,0,1,.61,1.444,2.043,2.043,0,0,1-1.25,1.824,2.022,2.022,0,0,1,1.193.717A2.079,2.079,0,0,1,5.768-.3a2.609,2.609,0,0,1-.835,1.948,2.876,2.876,0,0,1-2.079.806A2.865,2.865,0,0,1,.9,1.774,2.667,2.667,0,0,1,0,0" transform="translate(1354.018 2246.398)" fill="#20143b"/>
    <path id="Trazado_151" data-name="Trazado 151" d="M0,0H-.777V-6.821H.061v2.433a1.656,1.656,0,0,1,1.353-.665,2.061,2.061,0,0,1,.863.184,1.767,1.767,0,0,1,.67.516,2.484,2.484,0,0,1,.412.8,3.284,3.284,0,0,1,.149,1A2.819,2.819,0,0,1,2.88-.582,1.962,1.962,0,0,1,1.373.112,1.574,1.574,0,0,1,0-.619ZM-.009-2.508A2.566,2.566,0,0,0,.232-1.224,1.207,1.207,0,0,0,1.3-.577a1.2,1.2,0,0,0,.949-.477,2.164,2.164,0,0,0,.4-1.421A2.21,2.21,0,0,0,2.269-3.9a1.17,1.17,0,0,0-.929-.46,1.2,1.2,0,0,0-.949.477,2.092,2.092,0,0,0-.4,1.379" transform="translate(1203.96 2268.733)" fill="#20143b"/>
    <path id="Trazado_152" data-name="Trazado 152" d="M0,0V.805H-4.509a1.492,1.492,0,0,1,.1-.582,3.083,3.083,0,0,1,.552-.907,8.681,8.681,0,0,1,1.1-1.033,9.246,9.246,0,0,0,1.5-1.445A1.724,1.724,0,0,0-.87-4.169a1.117,1.117,0,0,0-.356-.84,1.282,1.282,0,0,0-.928-.342,1.307,1.307,0,0,0-.968.363,1.372,1.372,0,0,0-.367,1l-.862-.088a2.126,2.126,0,0,1,.666-1.468,2.268,2.268,0,0,1,1.549-.505A2.164,2.164,0,0,1-.581-5.5,1.79,1.79,0,0,1-.009-4.15a2.034,2.034,0,0,1-.168.8,3.112,3.112,0,0,1-.555.833,13.733,13.733,0,0,1-1.291,1.2q-.755.632-.968.858A2.771,2.771,0,0,0-3.346,0Z" transform="translate(1241.363 2267.928)" fill="#20143b"/>
    <path id="Trazado_153" data-name="Trazado 153" d="M0,0H-.837V-5.337a4.358,4.358,0,0,1-.794.577,5.527,5.527,0,0,1-.882.433v-.81a5.06,5.06,0,0,0,1.229-.8,3.172,3.172,0,0,0,.745-.912H0Z" transform="translate(1273.992 2268.733)" fill="#20143b"/>
    <path id="Trazado_148" data-name="Trazado 148" d="M0,0A6.234,6.234,0,0,1,.249-1.947,2.424,2.424,0,0,1,.988-3.085a1.892,1.892,0,0,1,1.236-.4,2.026,2.026,0,0,1,.964.221,1.843,1.843,0,0,1,.683.638A3.421,3.421,0,0,1,4.3-1.612,6.811,6.811,0,0,1,4.448,0,6.232,6.232,0,0,1,4.2,1.937a2.421,2.421,0,0,1-.737,1.141,1.891,1.891,0,0,1-1.24.4A1.868,1.868,0,0,1,.675,2.773,4.494,4.494,0,0,1,0,0M.86,0a4.271,4.271,0,0,0,.394,2.235,1.158,1.158,0,0,0,.97.557,1.159,1.159,0,0,0,.97-.559A4.277,4.277,0,0,0,3.587,0a4.277,4.277,0,0,0-.393-2.238,1.165,1.165,0,0,0-.979-.554,1.074,1.074,0,0,0-.922.489A4.327,4.327,0,0,0,.86,0" transform="translate(1303.838 2265.369)" fill="#20143b"/>
    <path id="Trazado_149" data-name="Trazado 149" d="M0,0A6.234,6.234,0,0,1,.249-1.947,2.424,2.424,0,0,1,.988-3.085a1.892,1.892,0,0,1,1.236-.4,2.026,2.026,0,0,1,.964.221,1.843,1.843,0,0,1,.683.638A3.421,3.421,0,0,1,4.3-1.612,6.811,6.811,0,0,1,4.448,0,6.232,6.232,0,0,1,4.2,1.937a2.421,2.421,0,0,1-.737,1.141,1.891,1.891,0,0,1-1.24.4A1.868,1.868,0,0,1,.675,2.773,4.494,4.494,0,0,1,0,0M.86,0a4.271,4.271,0,0,0,.394,2.235,1.158,1.158,0,0,0,.97.557,1.159,1.159,0,0,0,.97-.559A4.277,4.277,0,0,0,3.587,0a4.277,4.277,0,0,0-.393-2.238,1.165,1.165,0,0,0-.979-.554,1.074,1.074,0,0,0-.922.489A4.327,4.327,0,0,0,.86,0" transform="translate(1352.527 2265.369)" fill="#20143b"/>
    <g id="Trazado_155" data-name="Trazado 155" transform="translate(1189 2235)" fill="none">
      <path d="M0,0H199V41H0Z" stroke="none"/>
      <path d="M 1 1 L 1 40 L 198 40 L 198 1 L 1 1 M 0 0 L 199 0 L 199 41 L 0 41 L 0 0 Z" stroke="none" fill="#20143b"/>
    </g>
    <g id="Trazado_156" data-name="Trazado 156" transform="translate(1189 2235)" fill="none">
      <path d="M0,0H67V41H0Z" stroke="none"/>
      <path d="M 1 1 L 1 40 L 66 40 L 66 1 L 1 1 M 0 0 L 67 0 L 67 41 L 0 41 L 0 0 Z" stroke="none" fill="#20143b"/>
    </g>
    <g id="Trazado_157" data-name="Trazado 157" transform="translate(1255 2235)" fill="none">
      <path d="M0,0H67V41H0Z" stroke="none"/>
      <path d="M 1 1 L 1 40 L 66 40 L 66 1 L 1 1 M 0 0 L 67 0 L 67 41 L 0 41 L 0 0 Z" stroke="none" fill="#20143b"/>
    </g>
    <g id="Trazado_158" data-name="Trazado 158" transform="translate(1321 2235)" fill="none">
      <path d="M0,0H67V41H0Z" stroke="none"/>
      <path d="M 1 1 L 1 40 L 66 40 L 66 1 L 1 1 M 0 0 L 67 0 L 67 41 L 0 41 L 0 0 Z" stroke="none" fill="#20143b"/>
    </g>
    <g id="Trazado_159" data-name="Trazado 159" transform="translate(1255 2235)" fill="none">
      <path d="M0,0H67V21H0Z" stroke="none"/>
      <path d="M 1 1 L 1 20 L 66 20 L 66 1 L 1 1 M 0 0 L 67 0 L 67 21 L 0 21 L 0 0 Z" stroke="none" fill="#20143b"/>
    </g>
    <g id="Trazado_160" data-name="Trazado 160" transform="translate(1321 2235)" fill="none">
      <path d="M0,0H67V21H0Z" stroke="none"/>
      <path d="M 1 1 L 1 20 L 66 20 L 66 1 L 1 1 M 0 0 L 67 0 L 67 21 L 0 21 L 0 0 Z" stroke="none" fill="#20143b"/>
    </g>
    <g id="Trazado_161" data-name="Trazado 161" transform="translate(1189 2235)" fill="none">
      <path d="M0,0H67V21H0Z" stroke="none"/>
      <path d="M 1 1 L 1 20 L 66 20 L 66 1 L 1 1 M 0 0 L 67 0 L 67 21 L 0 21 L 0 0 Z" stroke="none" fill="#20143b"/>
    </g>
    <g id="Trazado_162" data-name="Trazado 162" transform="translate(1189 2255)" fill="none">
      <path d="M0,0H34V21H0Z" stroke="none"/>
      <path d="M 1 1 L 1 20 L 33 20 L 33 1 L 1 1 M 0 0 L 34 0 L 34 21 L 0 21 L 0 0 Z" stroke="none" fill="#20143b"/>
    </g>
    <g id="Trazado_163" data-name="Trazado 163" transform="translate(1255 2255)" fill="none">
      <path d="M0,0H34V21H0Z" stroke="none"/>
      <path d="M 1 1 L 1 20 L 33 20 L 33 1 L 1 1 M 0 0 L 34 0 L 34 21 L 0 21 L 0 0 Z" stroke="none" fill="#20143b"/>
    </g>
    <path id="Trazado_126" data-name="Trazado 126" d="M0,0H-1.664V-6.271A5.728,5.728,0,0,1-3.813-5.01V-6.52A4.817,4.817,0,0,0-2.4-7.328,3.076,3.076,0,0,0-1.35-8.717H0Z" transform="translate(1228.244 2248.702)" fill="#20143b"/>
    <path id="Trazado_154" data-name="Trazado 154" d="M0,0V1.545H-5.833A4.031,4.031,0,0,1-5.265-.116,11.08,11.08,0,0,1-3.393-2.2,11.762,11.762,0,0,0-2.014-3.618,1.825,1.825,0,0,0-1.67-4.637a1.161,1.161,0,0,0-.3-.856,1.116,1.116,0,0,0-.826-.3,1.108,1.108,0,0,0-.829.314,1.616,1.616,0,0,0-.355,1.042L-5.638-4.6a2.721,2.721,0,0,1,.93-1.972,3.121,3.121,0,0,1,1.954-.6,2.828,2.828,0,0,1,2.02.692A2.276,2.276,0,0,1,0-4.755,3,3,0,0,1-.21-3.639a4.571,4.571,0,0,1-.666,1.11,10.633,10.633,0,0,1-1.09,1.108q-.787.723-1,.959A2.9,2.9,0,0,0-3.305,0Z" transform="translate(1296.106 2247.157)" fill="#20143b"/>
  </g>
</svg>
