<svg xmlns="http://www.w3.org/2000/svg" width="270.047" height="65.548" viewBox="0 0 270.047 65.548">
  <g id="Grupo_23" data-name="Grupo 23" transform="translate(-1247 -2428.547)">
    <path id="Trazado_178" data-name="Trazado 178" d="M.946,0V-9.306H3.961a10.934,10.934,0,0,1,2.234.14,2.44,2.44,0,0,1,1.339.911,2.889,2.889,0,0,1,.54,1.812A3.036,3.036,0,0,1,7.763-5a2.552,2.552,0,0,1-.79.917A2.723,2.723,0,0,1,6-3.644,10.725,10.725,0,0,1,4.05-3.51H2.825V0ZM2.825-7.731v2.641H3.853a4.859,4.859,0,0,0,1.485-.146,1.234,1.234,0,0,0,.587-.457,1.251,1.251,0,0,0,.213-.724,1.2,1.2,0,0,0-.3-.838,1.3,1.3,0,0,0-.755-.413,9.031,9.031,0,0,0-1.352-.063ZM13.508-2.146l1.777.3A2.915,2.915,0,0,1,14.2-.359a3.179,3.179,0,0,1-1.85.511A3.016,3.016,0,0,1,9.75-1,3.86,3.86,0,0,1,9.083-3.32a3.722,3.722,0,0,1,.876-2.625,2.885,2.885,0,0,1,2.215-.949,2.992,2.992,0,0,1,2.374.993,4.4,4.4,0,0,1,.832,3.044H10.912a1.8,1.8,0,0,0,.432,1.235,1.35,1.35,0,0,0,1.028.441,1.092,1.092,0,0,0,.7-.229A1.411,1.411,0,0,0,13.508-2.146Zm.1-1.8a1.717,1.717,0,0,0-.4-1.177,1.227,1.227,0,0,0-.927-.4,1.239,1.239,0,0,0-.965.425,1.646,1.646,0,0,0-.375,1.155ZM18.542,0H16.758V-6.741h1.657v.958a2.881,2.881,0,0,1,.765-.9,1.407,1.407,0,0,1,.771-.216,2.264,2.264,0,0,1,1.174.336L20.573-5a1.565,1.565,0,0,0-.838-.292.99.99,0,0,0-.635.206,1.41,1.41,0,0,0-.409.746,10.6,10.6,0,0,0-.149,2.26Zm2.723-1.923,1.79-.273a1.312,1.312,0,0,0,.463.79,1.566,1.566,0,0,0,.978.27,1.765,1.765,0,0,0,1.041-.254.567.567,0,0,0,.235-.476.468.468,0,0,0-.127-.336,1.421,1.421,0,0,0-.6-.235,9.622,9.622,0,0,1-2.736-.87,1.737,1.737,0,0,1-.8-1.517A1.87,1.87,0,0,1,22.2-6.3a3.231,3.231,0,0,1,2.146-.6,3.743,3.743,0,0,1,2.057.451,2.3,2.3,0,0,1,.927,1.333L25.651-4.8a1.04,1.04,0,0,0-.409-.6,1.5,1.5,0,0,0-.86-.209,1.938,1.938,0,0,0-1.009.2.423.423,0,0,0-.2.362.394.394,0,0,0,.178.324,6.692,6.692,0,0,0,1.666.5A4.96,4.96,0,0,1,27-3.434a1.649,1.649,0,0,1,.559,1.327,2.036,2.036,0,0,1-.774,1.593A3.428,3.428,0,0,1,24.5.152a3.76,3.76,0,0,1-2.18-.559A2.574,2.574,0,0,1,21.265-1.923ZM28.71-3.466a3.647,3.647,0,0,1,.438-1.72,3.006,3.006,0,0,1,1.241-1.27,3.683,3.683,0,0,1,1.793-.438A3.366,3.366,0,0,1,34.69-5.9a3.432,3.432,0,0,1,.978,2.51A3.473,3.473,0,0,1,34.68-.854,3.336,3.336,0,0,1,32.2.152a3.915,3.915,0,0,1-1.768-.419,2.874,2.874,0,0,1-1.279-1.228A4.092,4.092,0,0,1,28.71-3.466Zm1.828.1a2.233,2.233,0,0,0,.476,1.536,1.513,1.513,0,0,0,1.174.533,1.5,1.5,0,0,0,1.171-.533,2.264,2.264,0,0,0,.473-1.549,2.223,2.223,0,0,0-.473-1.523,1.5,1.5,0,0,0-1.171-.533,1.513,1.513,0,0,0-1.174.533A2.233,2.233,0,0,0,30.539-3.371ZM43.2,0H41.412V-3.44A5.317,5.317,0,0,0,41.3-4.853a.991.991,0,0,0-.371-.5,1.061,1.061,0,0,0-.619-.178,1.43,1.43,0,0,0-.832.254,1.279,1.279,0,0,0-.5.673,5.816,5.816,0,0,0-.136,1.549V0H37.051V-6.741h1.657v.99A2.7,2.7,0,0,1,40.93-6.894a2.676,2.676,0,0,1,1.079.213,1.808,1.808,0,0,1,.74.543,1.966,1.966,0,0,1,.349.749,5.571,5.571,0,0,1,.1,1.2Zm3.142-4.685-1.619-.292a2.521,2.521,0,0,1,.939-1.447,3.438,3.438,0,0,1,1.98-.47,4.268,4.268,0,0,1,1.777.282,1.773,1.773,0,0,1,.822.717,3.678,3.678,0,0,1,.238,1.6l-.019,2.082A7.228,7.228,0,0,0,50.543-.9a3.826,3.826,0,0,0,.321.9H49.1q-.07-.178-.171-.527-.044-.159-.063-.209a3.216,3.216,0,0,1-.978.667,2.8,2.8,0,0,1-1.111.222,2.3,2.3,0,0,1-1.641-.565,1.878,1.878,0,0,1-.6-1.428,1.917,1.917,0,0,1,.273-1.019,1.783,1.783,0,0,1,.765-.686,5.978,5.978,0,0,1,1.419-.416A9.718,9.718,0,0,0,48.725-4.4v-.178a.924.924,0,0,0-.254-.733,1.522,1.522,0,0,0-.958-.219,1.276,1.276,0,0,0-.743.187A1.3,1.3,0,0,0,46.338-4.685Zm2.387,1.447a11.149,11.149,0,0,1-1.085.273,3.27,3.27,0,0,0-.971.311.744.744,0,0,0-.349.628.875.875,0,0,0,.279.647.975.975,0,0,0,.711.273,1.545,1.545,0,0,0,.92-.317,1.117,1.117,0,0,0,.425-.59,3.522,3.522,0,0,0,.07-.87Zm13-1.511-1.758.317a1.276,1.276,0,0,0-.4-.793,1.217,1.217,0,0,0-.816-.267,1.333,1.333,0,0,0-1.063.46,2.358,2.358,0,0,0-.4,1.539,2.728,2.728,0,0,0,.4,1.695,1.323,1.323,0,0,0,1.082.5A1.2,1.2,0,0,0,59.6-1.59a1.737,1.737,0,0,0,.457-.993l1.752.3A3.109,3.109,0,0,1,60.766-.463,3.242,3.242,0,0,1,58.69.152a3.086,3.086,0,0,1-2.358-.933,3.618,3.618,0,0,1-.879-2.583,3.626,3.626,0,0,1,.882-2.6,3.134,3.134,0,0,1,2.387-.93,3.256,3.256,0,0,1,1.958.53A2.936,2.936,0,0,1,61.725-4.748Zm.939,1.282a3.647,3.647,0,0,1,.438-1.72,3.006,3.006,0,0,1,1.241-1.27,3.683,3.683,0,0,1,1.793-.438,3.366,3.366,0,0,1,2.507.993,3.432,3.432,0,0,1,.978,2.51,3.473,3.473,0,0,1-.987,2.536A3.336,3.336,0,0,1,66.149.152a3.915,3.915,0,0,1-1.768-.419A2.874,2.874,0,0,1,63.1-1.495,4.092,4.092,0,0,1,62.664-3.466Zm1.828.1a2.233,2.233,0,0,0,.476,1.536,1.513,1.513,0,0,0,1.174.533,1.5,1.5,0,0,0,1.171-.533,2.264,2.264,0,0,0,.473-1.549,2.223,2.223,0,0,0-.473-1.523,1.5,1.5,0,0,0-1.171-.533,1.513,1.513,0,0,0-1.174.533A2.233,2.233,0,0,0,64.492-3.371ZM77.149,0H75.366V-3.44a5.317,5.317,0,0,0-.114-1.412.991.991,0,0,0-.371-.5,1.061,1.061,0,0,0-.619-.178,1.43,1.43,0,0,0-.832.254,1.279,1.279,0,0,0-.5.673,5.816,5.816,0,0,0-.136,1.549V0H71V-6.741h1.657v.99a2.7,2.7,0,0,1,2.222-1.143,2.676,2.676,0,0,1,1.079.213,1.808,1.808,0,0,1,.74.543,1.966,1.966,0,0,1,.349.749,5.571,5.571,0,0,1,.1,1.2Zm11.6,0H87.1V-.99a2.677,2.677,0,0,1-.974.86,2.5,2.5,0,0,1-1.133.282A2.568,2.568,0,0,1,83-.784,3.809,3.809,0,0,1,82.17-3.4,3.764,3.764,0,0,1,82.977-6a2.628,2.628,0,0,1,2.038-.892,2.524,2.524,0,0,1,1.955.939V-9.306h1.784ZM83.992-3.517a3.087,3.087,0,0,0,.3,1.562,1.348,1.348,0,0,0,1.206.7,1.313,1.313,0,0,0,1.047-.524,2.417,2.417,0,0,0,.432-1.565,2.645,2.645,0,0,0-.419-1.673,1.326,1.326,0,0,0-1.073-.511,1.34,1.34,0,0,0-1.063.5A2.28,2.28,0,0,0,83.992-3.517Zm6.519-4.139v-1.65h1.784v1.65Zm0,7.655V-6.741h1.784V0Zm2.831-6.741h.99v-.508a3.373,3.373,0,0,1,.181-1.27A1.43,1.43,0,0,1,95.18-9.2a2.557,2.557,0,0,1,1.228-.263,4.965,4.965,0,0,1,1.492.229l-.241,1.244a3.523,3.523,0,0,0-.819-.1.73.73,0,0,0-.555.181,1.048,1.048,0,0,0-.168.7v.476h1.333v1.4H96.116V0H94.333V-5.338h-.99Zm5.11-.914v-1.65h1.784v1.65Zm0,7.655V-6.741h1.784V0Zm9.49-4.748-1.758.317a1.276,1.276,0,0,0-.4-.793,1.217,1.217,0,0,0-.816-.267,1.333,1.333,0,0,0-1.063.46,2.358,2.358,0,0,0-.4,1.539,2.728,2.728,0,0,0,.4,1.695,1.323,1.323,0,0,0,1.082.5,1.2,1.2,0,0,0,.832-.289,1.737,1.737,0,0,0,.457-.993l1.752.3a3.109,3.109,0,0,1-1.047,1.822,3.242,3.242,0,0,1-2.076.616,3.086,3.086,0,0,1-2.358-.933,3.618,3.618,0,0,1-.879-2.583,3.626,3.626,0,0,1,.882-2.6,3.134,3.134,0,0,1,2.387-.93,3.256,3.256,0,0,1,1.958.53A2.936,2.936,0,0,1,107.942-4.748ZM113.731,0V-1.009a2.6,2.6,0,0,1-.968.851A2.714,2.714,0,0,1,111.5.152a2.476,2.476,0,0,1-1.219-.3,1.761,1.761,0,0,1-.781-.838,3.739,3.739,0,0,1-.241-1.492V-6.741h1.784v3.1a8.59,8.59,0,0,0,.1,1.742.95.95,0,0,0,.359.508,1.1,1.1,0,0,0,.66.187,1.4,1.4,0,0,0,.819-.251,1.275,1.275,0,0,0,.5-.622A7.221,7.221,0,0,0,113.6-3.9V-6.741h1.784V0Zm3.5,0V-9.306h1.784V0Zm6.7-6.741v1.422h-1.219V-2.6a6.757,6.757,0,0,0,.035.962.392.392,0,0,0,.159.225.5.5,0,0,0,.3.089,2.307,2.307,0,0,0,.717-.171l.152,1.384a3.546,3.546,0,0,1-1.409.267,2.235,2.235,0,0,1-.87-.162,1.269,1.269,0,0,1-.568-.419,1.654,1.654,0,0,1-.251-.7,8.646,8.646,0,0,1-.057-1.257V-5.319h-.819V-6.741h.819V-8.081l1.79-1.041v2.38Zm2.571,2.057-1.619-.292a2.521,2.521,0,0,1,.939-1.447,3.438,3.438,0,0,1,1.98-.47,4.268,4.268,0,0,1,1.777.282,1.773,1.773,0,0,1,.822.717,3.678,3.678,0,0,1,.238,1.6l-.019,2.082A7.228,7.228,0,0,0,130.714-.9a3.826,3.826,0,0,0,.321.9H129.27q-.07-.178-.171-.527-.044-.159-.063-.209a3.216,3.216,0,0,1-.978.667,2.8,2.8,0,0,1-1.111.222,2.3,2.3,0,0,1-1.641-.565,1.878,1.878,0,0,1-.6-1.428,1.917,1.917,0,0,1,.273-1.019,1.783,1.783,0,0,1,.765-.686,5.978,5.978,0,0,1,1.419-.416A9.718,9.718,0,0,0,128.9-4.4v-.178a.924.924,0,0,0-.254-.733,1.521,1.521,0,0,0-.958-.219,1.276,1.276,0,0,0-.743.187A1.3,1.3,0,0,0,126.509-4.685ZM128.9-3.237a11.149,11.149,0,0,1-1.085.273,3.27,3.27,0,0,0-.971.311.744.744,0,0,0-.349.628.875.875,0,0,0,.279.647.975.975,0,0,0,.711.273,1.545,1.545,0,0,0,.92-.317,1.117,1.117,0,0,0,.425-.59,3.522,3.522,0,0,0,.07-.87ZM138.588,0h-1.657V-.99a2.677,2.677,0,0,1-.974.86,2.5,2.5,0,0,1-1.133.282,2.568,2.568,0,0,1-1.99-.936,3.809,3.809,0,0,1-.828-2.612A3.764,3.764,0,0,1,132.812-6a2.628,2.628,0,0,1,2.038-.892,2.524,2.524,0,0,1,1.955.939V-9.306h1.784Zm-4.761-3.517a3.087,3.087,0,0,0,.3,1.562,1.348,1.348,0,0,0,1.206.7,1.313,1.313,0,0,0,1.047-.524,2.417,2.417,0,0,0,.432-1.565,2.645,2.645,0,0,0-.419-1.673,1.326,1.326,0,0,0-1.073-.511,1.34,1.34,0,0,0-1.063.5A2.28,2.28,0,0,0,133.828-3.517Zm9.5,1.593,1.79-.273a1.312,1.312,0,0,0,.463.79,1.566,1.566,0,0,0,.978.27A1.765,1.765,0,0,0,147.6-1.39a.567.567,0,0,0,.235-.476.468.468,0,0,0-.127-.336,1.421,1.421,0,0,0-.6-.235,9.622,9.622,0,0,1-2.736-.87,1.737,1.737,0,0,1-.8-1.517A1.87,1.87,0,0,1,144.27-6.3a3.231,3.231,0,0,1,2.146-.6,3.743,3.743,0,0,1,2.057.451A2.3,2.3,0,0,1,149.4-5.11l-1.682.311a1.04,1.04,0,0,0-.409-.6,1.5,1.5,0,0,0-.86-.209,1.938,1.938,0,0,0-1.009.2.423.423,0,0,0-.2.362.394.394,0,0,0,.178.324,6.692,6.692,0,0,0,1.666.5,4.96,4.96,0,0,1,1.99.793,1.649,1.649,0,0,1,.559,1.327,2.036,2.036,0,0,1-.774,1.593,3.428,3.428,0,0,1-2.292.667,3.76,3.76,0,0,1-2.18-.559A2.574,2.574,0,0,1,143.33-1.923Zm11.762-.222,1.777.3a2.915,2.915,0,0,1-1.082,1.489,3.179,3.179,0,0,1-1.85.511A3.016,3.016,0,0,1,151.334-1a3.86,3.86,0,0,1-.667-2.323,3.722,3.722,0,0,1,.876-2.625,2.885,2.885,0,0,1,2.215-.949,2.992,2.992,0,0,1,2.374.993,4.4,4.4,0,0,1,.832,3.044H152.5a1.8,1.8,0,0,0,.432,1.235,1.35,1.35,0,0,0,1.028.441,1.092,1.092,0,0,0,.7-.229A1.411,1.411,0,0,0,155.092-2.146Zm.1-1.8a1.717,1.717,0,0,0-.4-1.177,1.227,1.227,0,0,0-.927-.4,1.239,1.239,0,0,0-.965.425,1.646,1.646,0,0,0-.375,1.155ZM160.272,0l-2.717-6.741h1.873L160.7-3.3l.368,1.149q.146-.438.184-.578.089-.286.19-.571l1.282-3.44h1.834L161.878,0Zm9.28-2.146,1.777.3a2.915,2.915,0,0,1-1.082,1.489,3.179,3.179,0,0,1-1.85.511A3.016,3.016,0,0,1,165.794-1a3.86,3.86,0,0,1-.667-2.323A3.722,3.722,0,0,1,166-5.945a2.885,2.885,0,0,1,2.215-.949,2.992,2.992,0,0,1,2.374.993,4.4,4.4,0,0,1,.832,3.044h-4.469a1.8,1.8,0,0,0,.432,1.235,1.35,1.35,0,0,0,1.028.441,1.092,1.092,0,0,0,.7-.229A1.411,1.411,0,0,0,169.552-2.146Zm.1-1.8a1.717,1.717,0,0,0-.4-1.177,1.227,1.227,0,0,0-.927-.4,1.239,1.239,0,0,0-.965.425,1.646,1.646,0,0,0-.375,1.155ZM174.586,0H172.8V-6.741h1.657v.958a2.881,2.881,0,0,1,.765-.9A1.407,1.407,0,0,1,176-6.894a2.264,2.264,0,0,1,1.174.336L176.617-5a1.565,1.565,0,0,0-.838-.292.99.99,0,0,0-.635.206,1.41,1.41,0,0,0-.409.746,10.6,10.6,0,0,0-.149,2.26Zm4.685-4.685-1.619-.292a2.521,2.521,0,0,1,.939-1.447,3.438,3.438,0,0,1,1.98-.47,4.268,4.268,0,0,1,1.777.282,1.773,1.773,0,0,1,.822.717,3.678,3.678,0,0,1,.238,1.6l-.019,2.082A7.228,7.228,0,0,0,183.476-.9a3.826,3.826,0,0,0,.321.9h-1.765q-.07-.178-.171-.527-.044-.159-.063-.209a3.216,3.216,0,0,1-.978.667,2.8,2.8,0,0,1-1.111.222,2.3,2.3,0,0,1-1.641-.565,1.878,1.878,0,0,1-.6-1.428,1.917,1.917,0,0,1,.273-1.019,1.783,1.783,0,0,1,.765-.686,5.978,5.978,0,0,1,1.419-.416,9.718,9.718,0,0,0,1.733-.438v-.178a.924.924,0,0,0-.254-.733,1.521,1.521,0,0,0-.958-.219,1.276,1.276,0,0,0-.743.187A1.3,1.3,0,0,0,179.271-4.685Zm2.387,1.447a11.149,11.149,0,0,1-1.085.273,3.27,3.27,0,0,0-.971.311.744.744,0,0,0-.349.628.875.875,0,0,0,.279.647.975.975,0,0,0,.711.273,1.545,1.545,0,0,0,.92-.317,1.117,1.117,0,0,0,.425-.59,3.522,3.522,0,0,0,.07-.87Zm7.071-3.5h1.663v.99a2.489,2.489,0,0,1,.876-.825,2.415,2.415,0,0,1,1.225-.317,2.57,2.57,0,0,1,1.993.92,3.725,3.725,0,0,1,.819,2.564,3.838,3.838,0,0,1-.825,2.625,2.571,2.571,0,0,1-2,.936,2.272,2.272,0,0,1-1.012-.222,3.413,3.413,0,0,1-.955-.762v3.4h-1.784Zm1.765,3.256a2.6,2.6,0,0,0,.451,1.679,1.379,1.379,0,0,0,1.1.543,1.289,1.289,0,0,0,1.035-.5,2.567,2.567,0,0,0,.413-1.635,2.437,2.437,0,0,0-.425-1.574,1.316,1.316,0,0,0-1.054-.514,1.369,1.369,0,0,0-1.085.5A2.246,2.246,0,0,0,190.493-3.485Zm7.56-1.2-1.619-.292a2.521,2.521,0,0,1,.939-1.447,3.438,3.438,0,0,1,1.98-.47,4.268,4.268,0,0,1,1.777.282,1.773,1.773,0,0,1,.822.717,3.678,3.678,0,0,1,.238,1.6l-.019,2.082A7.228,7.228,0,0,0,202.259-.9a3.826,3.826,0,0,0,.321.9h-1.765q-.07-.178-.171-.527-.044-.159-.063-.209a3.216,3.216,0,0,1-.978.667,2.8,2.8,0,0,1-1.111.222,2.3,2.3,0,0,1-1.641-.565,1.878,1.878,0,0,1-.6-1.428,1.917,1.917,0,0,1,.273-1.019,1.783,1.783,0,0,1,.765-.686,5.978,5.978,0,0,1,1.419-.416A9.718,9.718,0,0,0,200.44-4.4v-.178a.924.924,0,0,0-.254-.733,1.521,1.521,0,0,0-.958-.219,1.276,1.276,0,0,0-.743.187A1.3,1.3,0,0,0,198.053-4.685Zm2.387,1.447a11.149,11.149,0,0,1-1.085.273,3.27,3.27,0,0,0-.971.311.744.744,0,0,0-.349.628.875.875,0,0,0,.279.647.975.975,0,0,0,.711.273,1.545,1.545,0,0,0,.92-.317,1.117,1.117,0,0,0,.425-.59,3.522,3.522,0,0,0,.07-.87ZM205.658,0h-1.784V-6.741h1.657v.958a2.881,2.881,0,0,1,.765-.9,1.407,1.407,0,0,1,.771-.216,2.264,2.264,0,0,1,1.174.336L207.689-5a1.565,1.565,0,0,0-.838-.292.99.99,0,0,0-.635.206,1.41,1.41,0,0,0-.409.746,10.6,10.6,0,0,0-.149,2.26Zm4.685-4.685-1.619-.292a2.521,2.521,0,0,1,.939-1.447,3.438,3.438,0,0,1,1.98-.47,4.268,4.268,0,0,1,1.777.282,1.773,1.773,0,0,1,.822.717,3.678,3.678,0,0,1,.238,1.6l-.019,2.082A7.228,7.228,0,0,0,214.548-.9a3.826,3.826,0,0,0,.321.9H213.1q-.07-.178-.171-.527-.044-.159-.063-.209a3.216,3.216,0,0,1-.978.667,2.8,2.8,0,0,1-1.111.222,2.3,2.3,0,0,1-1.641-.565,1.878,1.878,0,0,1-.6-1.428,1.917,1.917,0,0,1,.273-1.019,1.783,1.783,0,0,1,.765-.686A5.978,5.978,0,0,1,211-3.961a9.718,9.718,0,0,0,1.733-.438v-.178a.924.924,0,0,0-.254-.733,1.521,1.521,0,0,0-.958-.219,1.276,1.276,0,0,0-.743.187A1.3,1.3,0,0,0,210.342-4.685Zm2.387,1.447a11.149,11.149,0,0,1-1.085.273,3.27,3.27,0,0,0-.971.311.744.744,0,0,0-.349.628.875.875,0,0,0,.279.647.975.975,0,0,0,.711.273,1.545,1.545,0,0,0,.92-.317,1.117,1.117,0,0,0,.425-.59,3.522,3.522,0,0,0,.07-.87Z" transform="translate(1260.31 2449.036)" fill="#20143b"/>
    <path id="Trazado_179" data-name="Trazado 179" d="M7.116,0H5.459V-.99a2.677,2.677,0,0,1-.974.86A2.5,2.5,0,0,1,3.352.152a2.568,2.568,0,0,1-1.99-.936A3.809,3.809,0,0,1,.533-3.4,3.764,3.764,0,0,1,1.339-6a2.628,2.628,0,0,1,2.038-.892,2.524,2.524,0,0,1,1.955.939V-9.306H7.116ZM2.355-3.517a3.087,3.087,0,0,0,.3,1.562,1.348,1.348,0,0,0,1.206.7,1.313,1.313,0,0,0,1.047-.524,2.417,2.417,0,0,0,.432-1.565,2.645,2.645,0,0,0-.419-1.673,1.326,1.326,0,0,0-1.073-.511,1.34,1.34,0,0,0-1.063.5A2.28,2.28,0,0,0,2.355-3.517ZM12.778-2.146l1.777.3A2.915,2.915,0,0,1,13.473-.359a3.179,3.179,0,0,1-1.85.511A3.016,3.016,0,0,1,9.02-1,3.86,3.86,0,0,1,8.354-3.32a3.722,3.722,0,0,1,.876-2.625,2.885,2.885,0,0,1,2.215-.949,2.992,2.992,0,0,1,2.374.993,4.4,4.4,0,0,1,.832,3.044H10.182a1.8,1.8,0,0,0,.432,1.235,1.35,1.35,0,0,0,1.028.441,1.092,1.092,0,0,0,.7-.229A1.411,1.411,0,0,0,12.778-2.146Zm.1-1.8a1.717,1.717,0,0,0-.4-1.177,1.227,1.227,0,0,0-.927-.4,1.239,1.239,0,0,0-.965.425,1.646,1.646,0,0,0-.375,1.155Zm2.6,2.025,1.79-.273a1.312,1.312,0,0,0,.463.79,1.566,1.566,0,0,0,.978.27,1.765,1.765,0,0,0,1.041-.254.567.567,0,0,0,.235-.476.468.468,0,0,0-.127-.336,1.421,1.421,0,0,0-.6-.235,9.622,9.622,0,0,1-2.736-.87,1.737,1.737,0,0,1-.8-1.517A1.87,1.87,0,0,1,16.415-6.3a3.231,3.231,0,0,1,2.146-.6,3.743,3.743,0,0,1,2.057.451,2.3,2.3,0,0,1,.927,1.333L19.862-4.8a1.04,1.04,0,0,0-.409-.6,1.5,1.5,0,0,0-.86-.209,1.938,1.938,0,0,0-1.009.2.423.423,0,0,0-.2.362.394.394,0,0,0,.178.324,6.692,6.692,0,0,0,1.666.5,4.96,4.96,0,0,1,1.99.793,1.649,1.649,0,0,1,.559,1.327A2.036,2.036,0,0,1,21-.514a3.428,3.428,0,0,1-2.292.667,3.76,3.76,0,0,1-2.18-.559A2.574,2.574,0,0,1,15.476-1.923Zm7.808-4.818h1.663v.99a2.489,2.489,0,0,1,.876-.825,2.415,2.415,0,0,1,1.225-.317,2.57,2.57,0,0,1,1.993.92,3.725,3.725,0,0,1,.819,2.564,3.838,3.838,0,0,1-.825,2.625,2.571,2.571,0,0,1-2,.936A2.272,2.272,0,0,1,26.022-.07a3.413,3.413,0,0,1-.955-.762v3.4H23.283Zm1.765,3.256A2.6,2.6,0,0,0,25.5-1.806a1.379,1.379,0,0,0,1.1.543,1.289,1.289,0,0,0,1.035-.5A2.567,2.567,0,0,0,28.044-3.4a2.437,2.437,0,0,0-.425-1.574,1.316,1.316,0,0,0-1.054-.514,1.368,1.368,0,0,0-1.085.5A2.246,2.246,0,0,0,25.048-3.485ZM31.275,0V-9.306h1.784V0ZM36.22-4.685,34.6-4.977a2.521,2.521,0,0,1,.939-1.447,3.438,3.438,0,0,1,1.98-.47,4.268,4.268,0,0,1,1.777.282,1.773,1.773,0,0,1,.822.717,3.678,3.678,0,0,1,.238,1.6l-.019,2.082A7.228,7.228,0,0,0,40.425-.9a3.826,3.826,0,0,0,.321.9H38.981q-.07-.178-.171-.527-.044-.159-.063-.209a3.216,3.216,0,0,1-.978.667,2.8,2.8,0,0,1-1.111.222,2.3,2.3,0,0,1-1.641-.565,1.878,1.878,0,0,1-.6-1.428A1.917,1.917,0,0,1,34.69-2.86a1.783,1.783,0,0,1,.765-.686,5.978,5.978,0,0,1,1.419-.416A9.718,9.718,0,0,0,38.606-4.4v-.178a.924.924,0,0,0-.254-.733,1.522,1.522,0,0,0-.958-.219,1.276,1.276,0,0,0-.743.187A1.3,1.3,0,0,0,36.22-4.685Zm2.387,1.447a11.149,11.149,0,0,1-1.085.273,3.27,3.27,0,0,0-.971.311.744.744,0,0,0-.349.628.875.875,0,0,0,.279.647.975.975,0,0,0,.711.273,1.545,1.545,0,0,0,.92-.317,1.117,1.117,0,0,0,.425-.59,3.522,3.522,0,0,0,.07-.87ZM41.4,0V-1.39l2.526-2.9q.622-.711.92-1.009-.311.019-.819.025l-2.38.013V-6.741H47.22v1.263L44.643-2.507l-.908.984q.743-.044.92-.044h2.761V0Zm8.55-4.685-1.619-.292a2.521,2.521,0,0,1,.939-1.447,3.438,3.438,0,0,1,1.98-.47,4.268,4.268,0,0,1,1.777.282,1.773,1.773,0,0,1,.822.717,3.678,3.678,0,0,1,.238,1.6l-.019,2.082A7.228,7.228,0,0,0,54.155-.9a3.826,3.826,0,0,0,.321.9H52.711q-.07-.178-.171-.527-.044-.159-.063-.209A3.216,3.216,0,0,1,51.5-.07a2.8,2.8,0,0,1-1.111.222,2.3,2.3,0,0,1-1.641-.565,1.878,1.878,0,0,1-.6-1.428A1.917,1.917,0,0,1,48.42-2.86a1.783,1.783,0,0,1,.765-.686A5.978,5.978,0,0,1,50.6-3.961,9.718,9.718,0,0,0,52.336-4.4v-.178a.924.924,0,0,0-.254-.733,1.522,1.522,0,0,0-.958-.219,1.276,1.276,0,0,0-.743.187A1.3,1.3,0,0,0,49.95-4.685Zm2.387,1.447a11.149,11.149,0,0,1-1.085.273,3.27,3.27,0,0,0-.971.311.744.744,0,0,0-.349.628.875.875,0,0,0,.279.647.975.975,0,0,0,.711.273,1.545,1.545,0,0,0,.92-.317,1.117,1.117,0,0,0,.425-.59,3.522,3.522,0,0,0,.07-.87ZM57.554,0H55.771V-6.741h1.657v.958a2.881,2.881,0,0,1,.765-.9,1.407,1.407,0,0,1,.771-.216,2.264,2.264,0,0,1,1.174.336L59.585-5a1.565,1.565,0,0,0-.838-.292.99.99,0,0,0-.635.206,1.41,1.41,0,0,0-.409.746,10.6,10.6,0,0,0-.149,2.26Zm2.723-1.923,1.79-.273a1.312,1.312,0,0,0,.463.79,1.566,1.566,0,0,0,.978.27,1.765,1.765,0,0,0,1.041-.254.567.567,0,0,0,.235-.476.468.468,0,0,0-.127-.336,1.421,1.421,0,0,0-.6-.235,9.622,9.622,0,0,1-2.736-.87,1.737,1.737,0,0,1-.8-1.517A1.87,1.87,0,0,1,61.217-6.3a3.231,3.231,0,0,1,2.146-.6,3.743,3.743,0,0,1,2.057.451,2.3,2.3,0,0,1,.927,1.333L64.664-4.8a1.04,1.04,0,0,0-.409-.6,1.5,1.5,0,0,0-.86-.209,1.938,1.938,0,0,0-1.009.2.423.423,0,0,0-.2.362.394.394,0,0,0,.178.324,6.692,6.692,0,0,0,1.666.5,4.96,4.96,0,0,1,1.99.793,1.649,1.649,0,0,1,.559,1.327A2.036,2.036,0,0,1,65.8-.514a3.428,3.428,0,0,1-2.292.667,3.76,3.76,0,0,1-2.18-.559A2.574,2.574,0,0,1,60.277-1.923ZM72.04-2.146l1.777.3A2.915,2.915,0,0,1,72.735-.359a3.179,3.179,0,0,1-1.85.511A3.016,3.016,0,0,1,68.282-1a3.86,3.86,0,0,1-.667-2.323,3.722,3.722,0,0,1,.876-2.625,2.885,2.885,0,0,1,2.215-.949,2.992,2.992,0,0,1,2.374.993,4.4,4.4,0,0,1,.832,3.044H69.443a1.8,1.8,0,0,0,.432,1.235,1.35,1.35,0,0,0,1.028.441,1.092,1.092,0,0,0,.7-.229A1.411,1.411,0,0,0,72.04-2.146Zm.1-1.8a1.717,1.717,0,0,0-.4-1.177,1.227,1.227,0,0,0-.927-.4,1.239,1.239,0,0,0-.965.425,1.646,1.646,0,0,0-.375,1.155ZM78.2-6.741h.99v-.508a3.373,3.373,0,0,1,.181-1.27,1.43,1.43,0,0,1,.667-.682,2.557,2.557,0,0,1,1.228-.263,4.965,4.965,0,0,1,1.492.229l-.241,1.244a3.523,3.523,0,0,0-.819-.1.73.73,0,0,0-.555.181,1.048,1.048,0,0,0-.168.7v.476H82.3v1.4H80.971V0H79.187V-5.338H78.2ZM87.744,0V-1.009a2.6,2.6,0,0,1-.968.851,2.714,2.714,0,0,1-1.266.311,2.476,2.476,0,0,1-1.219-.3,1.761,1.761,0,0,1-.781-.838,3.739,3.739,0,0,1-.241-1.492V-6.741h1.784v3.1a8.59,8.59,0,0,0,.1,1.742.95.95,0,0,0,.359.508,1.1,1.1,0,0,0,.66.187,1.4,1.4,0,0,0,.819-.251,1.275,1.275,0,0,0,.5-.622A7.221,7.221,0,0,0,87.617-3.9V-6.741H89.4V0Zm7.408-2.146,1.777.3A2.915,2.915,0,0,1,95.846-.359,3.179,3.179,0,0,1,94,.152,3.016,3.016,0,0,1,91.394-1a3.86,3.86,0,0,1-.667-2.323A3.722,3.722,0,0,1,91.6-5.945a2.885,2.885,0,0,1,2.215-.949,2.992,2.992,0,0,1,2.374.993,4.4,4.4,0,0,1,.832,3.044H92.555a1.8,1.8,0,0,0,.432,1.235,1.35,1.35,0,0,0,1.028.441,1.092,1.092,0,0,0,.7-.229A1.411,1.411,0,0,0,95.151-2.146Zm.1-1.8a1.717,1.717,0,0,0-.4-1.177,1.227,1.227,0,0,0-.927-.4,1.239,1.239,0,0,0-.965.425,1.646,1.646,0,0,0-.375,1.155ZM100.185,0H98.4V-6.741h1.657v.958a2.881,2.881,0,0,1,.765-.9,1.407,1.407,0,0,1,.771-.216,2.264,2.264,0,0,1,1.174.336L102.216-5a1.565,1.565,0,0,0-.838-.292.99.99,0,0,0-.635.206,1.41,1.41,0,0,0-.409.746,10.6,10.6,0,0,0-.149,2.26Zm4.685-4.685-1.619-.292a2.521,2.521,0,0,1,.939-1.447,3.438,3.438,0,0,1,1.98-.47,4.268,4.268,0,0,1,1.777.282,1.773,1.773,0,0,1,.822.717,3.678,3.678,0,0,1,.238,1.6l-.019,2.082A7.228,7.228,0,0,0,109.075-.9a3.826,3.826,0,0,0,.321.9h-1.765q-.07-.178-.171-.527-.044-.159-.063-.209a3.216,3.216,0,0,1-.978.667,2.8,2.8,0,0,1-1.111.222,2.3,2.3,0,0,1-1.641-.565,1.878,1.878,0,0,1-.6-1.428,1.917,1.917,0,0,1,.273-1.019,1.783,1.783,0,0,1,.765-.686,5.978,5.978,0,0,1,1.419-.416,9.718,9.718,0,0,0,1.733-.438v-.178A.924.924,0,0,0,107-5.31a1.522,1.522,0,0,0-.958-.219,1.276,1.276,0,0,0-.743.187A1.3,1.3,0,0,0,104.87-4.685Zm2.387,1.447a11.149,11.149,0,0,1-1.085.273,3.27,3.27,0,0,0-.971.311.744.744,0,0,0-.349.628.875.875,0,0,0,.279.647.975.975,0,0,0,.711.273,1.545,1.545,0,0,0,.92-.317,1.117,1.117,0,0,0,.425-.59,3.522,3.522,0,0,0,.07-.87ZM120.561,0H118.9V-.99a2.677,2.677,0,0,1-.974.86A2.5,2.5,0,0,1,116.8.152a2.568,2.568,0,0,1-1.99-.936,3.809,3.809,0,0,1-.828-2.612A3.764,3.764,0,0,1,114.785-6a2.628,2.628,0,0,1,2.038-.892,2.524,2.524,0,0,1,1.955.939V-9.306h1.784ZM115.8-3.517a3.087,3.087,0,0,0,.3,1.562,1.348,1.348,0,0,0,1.206.7,1.313,1.313,0,0,0,1.047-.524,2.417,2.417,0,0,0,.432-1.565,2.645,2.645,0,0,0-.419-1.673,1.326,1.326,0,0,0-1.073-.511,1.34,1.34,0,0,0-1.063.5A2.28,2.28,0,0,0,115.8-3.517Zm10.423,1.371,1.777.3a2.915,2.915,0,0,1-1.082,1.489,3.179,3.179,0,0,1-1.85.511A3.016,3.016,0,0,1,122.465-1,3.86,3.86,0,0,1,121.8-3.32a3.722,3.722,0,0,1,.876-2.625,2.885,2.885,0,0,1,2.215-.949,2.992,2.992,0,0,1,2.374.993,4.4,4.4,0,0,1,.832,3.044h-4.469a1.8,1.8,0,0,0,.432,1.235,1.35,1.35,0,0,0,1.028.441,1.092,1.092,0,0,0,.7-.229A1.411,1.411,0,0,0,126.223-2.146Zm.1-1.8a1.717,1.717,0,0,0-.4-1.177,1.227,1.227,0,0,0-.927-.4,1.239,1.239,0,0,0-.965.425,1.646,1.646,0,0,0-.375,1.155Zm6.208,2.025,1.79-.273a1.312,1.312,0,0,0,.463.79,1.566,1.566,0,0,0,.978.27A1.765,1.765,0,0,0,136.8-1.39a.567.567,0,0,0,.235-.476.468.468,0,0,0-.127-.336,1.421,1.421,0,0,0-.6-.235,9.622,9.622,0,0,1-2.736-.87,1.737,1.737,0,0,1-.8-1.517,1.87,1.87,0,0,1,.692-1.473,3.231,3.231,0,0,1,2.146-.6,3.743,3.743,0,0,1,2.057.451A2.3,2.3,0,0,1,138.6-5.11l-1.682.311a1.04,1.04,0,0,0-.409-.6,1.5,1.5,0,0,0-.86-.209,1.938,1.938,0,0,0-1.009.2.423.423,0,0,0-.2.362.394.394,0,0,0,.178.324,6.692,6.692,0,0,0,1.666.5,4.96,4.96,0,0,1,1.99.793,1.649,1.649,0,0,1,.559,1.327,2.036,2.036,0,0,1-.774,1.593,3.428,3.428,0,0,1-2.292.667,3.76,3.76,0,0,1-2.18-.559A2.574,2.574,0,0,1,132.533-1.923ZM144.828,0V-1.009a2.6,2.6,0,0,1-.968.851,2.714,2.714,0,0,1-1.266.311,2.476,2.476,0,0,1-1.219-.3,1.761,1.761,0,0,1-.781-.838,3.739,3.739,0,0,1-.241-1.492V-6.741h1.784v3.1a8.59,8.59,0,0,0,.1,1.742.95.95,0,0,0,.359.508,1.1,1.1,0,0,0,.66.187,1.4,1.4,0,0,0,.819-.251,1.275,1.275,0,0,0,.5-.622A7.221,7.221,0,0,0,144.7-3.9V-6.741h1.784V0Zm8.893-9.306v3.421a2.631,2.631,0,0,1,2.063-1.009,2.62,2.62,0,0,1,1.111.229,1.815,1.815,0,0,1,.746.584,2.117,2.117,0,0,1,.343.787,7.037,7.037,0,0,1,.092,1.339V0h-1.784V-3.561a5.273,5.273,0,0,0-.1-1.346.883.883,0,0,0-.359-.454,1.153,1.153,0,0,0-.644-.168,1.478,1.478,0,0,0-.793.216,1.245,1.245,0,0,0-.511.651,3.886,3.886,0,0,0-.162,1.285V0h-1.784V-9.306Zm5.751,5.84a3.647,3.647,0,0,1,.438-1.72,3.006,3.006,0,0,1,1.241-1.27,3.683,3.683,0,0,1,1.793-.438,3.366,3.366,0,0,1,2.507.993,3.432,3.432,0,0,1,.978,2.51,3.473,3.473,0,0,1-.987,2.536A3.336,3.336,0,0,1,162.957.152a3.915,3.915,0,0,1-1.768-.419,2.874,2.874,0,0,1-1.279-1.228A4.092,4.092,0,0,1,159.472-3.466Zm1.828.1a2.233,2.233,0,0,0,.476,1.536,1.513,1.513,0,0,0,1.174.533,1.5,1.5,0,0,0,1.171-.533,2.264,2.264,0,0,0,.473-1.549,2.223,2.223,0,0,0-.473-1.523,1.5,1.5,0,0,0-1.171-.533,1.513,1.513,0,0,0-1.174.533A2.233,2.233,0,0,0,161.3-3.371Zm6.36,3.815L169.7.692a.7.7,0,0,0,.235.489,1.341,1.341,0,0,0,.8.19,2.077,2.077,0,0,0,1.047-.209.863.863,0,0,0,.355-.451,2.708,2.708,0,0,0,.083-.819v-.984A2.414,2.414,0,0,1,170.2,0a2.485,2.485,0,0,1-2.152-1.149,3.905,3.905,0,0,1-.622-2.26A3.717,3.717,0,0,1,168.241-6a2.632,2.632,0,0,1,2.028-.9,2.469,2.469,0,0,1,2.063,1.1v-.946H174V-.692a6.027,6.027,0,0,1-.2,1.784,2.21,2.21,0,0,1-.552.927,2.443,2.443,0,0,1-.949.527,5,5,0,0,1-1.5.19,3.886,3.886,0,0,1-2.431-.587A1.842,1.842,0,0,1,167.654.66Q167.654.571,167.661.444Zm1.593-3.955a2.431,2.431,0,0,0,.416,1.571,1.285,1.285,0,0,0,1.025.5,1.417,1.417,0,0,0,1.1-.511,2.227,2.227,0,0,0,.451-1.514,2.361,2.361,0,0,0-.432-1.555,1.372,1.372,0,0,0-1.092-.508,1.317,1.317,0,0,0-1.057.5A2.337,2.337,0,0,0,169.254-3.51ZM177.1-4.685l-1.619-.292a2.521,2.521,0,0,1,.939-1.447,3.438,3.438,0,0,1,1.98-.47,4.268,4.268,0,0,1,1.777.282,1.773,1.773,0,0,1,.822.717,3.678,3.678,0,0,1,.238,1.6l-.019,2.082A7.228,7.228,0,0,0,181.3-.9a3.826,3.826,0,0,0,.321.9h-1.765q-.07-.178-.171-.527-.044-.159-.063-.209a3.216,3.216,0,0,1-.978.667,2.8,2.8,0,0,1-1.111.222A2.3,2.3,0,0,1,175.9-.413a1.878,1.878,0,0,1-.6-1.428,1.917,1.917,0,0,1,.273-1.019,1.783,1.783,0,0,1,.765-.686,5.978,5.978,0,0,1,1.419-.416,9.718,9.718,0,0,0,1.733-.438v-.178a.924.924,0,0,0-.254-.733,1.521,1.521,0,0,0-.958-.219,1.276,1.276,0,0,0-.743.187A1.3,1.3,0,0,0,177.1-4.685Zm2.387,1.447a11.149,11.149,0,0,1-1.085.273,3.27,3.27,0,0,0-.971.311.744.744,0,0,0-.349.628.875.875,0,0,0,.279.647.975.975,0,0,0,.711.273,1.545,1.545,0,0,0,.92-.317,1.117,1.117,0,0,0,.425-.59,3.522,3.522,0,0,0,.07-.87ZM184.7,0H182.92V-6.741h1.657v.958a2.881,2.881,0,0,1,.765-.9,1.407,1.407,0,0,1,.771-.216,2.264,2.264,0,0,1,1.174.336L186.735-5a1.565,1.565,0,0,0-.838-.292.99.99,0,0,0-.635.206,1.41,1.41,0,0,0-.409.746,10.6,10.6,0,0,0-.149,2.26Zm6.119-6.741h1.9l1.612,4.786,1.574-4.786h1.847l-2.38,6.487L194.949.92a4.787,4.787,0,0,1-.448.9,1.953,1.953,0,0,1-.489.5,2.137,2.137,0,0,1-.679.3,3.527,3.527,0,0,1-.911.108,4.726,4.726,0,0,1-1.009-.108l-.159-1.4a3.946,3.946,0,0,0,.755.083,1.119,1.119,0,0,0,.92-.365,2.533,2.533,0,0,0,.457-.93ZM208.692,0h-1.657V-.99a2.677,2.677,0,0,1-.974.86,2.5,2.5,0,0,1-1.133.282,2.568,2.568,0,0,1-1.99-.936,3.809,3.809,0,0,1-.828-2.612A3.764,3.764,0,0,1,202.916-6a2.628,2.628,0,0,1,2.038-.892,2.524,2.524,0,0,1,1.955.939V-9.306h1.784Zm-4.761-3.517a3.087,3.087,0,0,0,.3,1.562,1.348,1.348,0,0,0,1.206.7,1.313,1.313,0,0,0,1.047-.524,2.417,2.417,0,0,0,.432-1.565,2.645,2.645,0,0,0-.419-1.673,1.326,1.326,0,0,0-1.073-.511,1.34,1.34,0,0,0-1.063.5A2.28,2.28,0,0,0,203.931-3.517Zm10.423,1.371,1.777.3a2.915,2.915,0,0,1-1.082,1.489,3.179,3.179,0,0,1-1.85.511A3.016,3.016,0,0,1,210.6-1a3.86,3.86,0,0,1-.667-2.323,3.722,3.722,0,0,1,.876-2.625,2.885,2.885,0,0,1,2.215-.949A2.992,2.992,0,0,1,215.4-5.9a4.4,4.4,0,0,1,.832,3.044h-4.469a1.8,1.8,0,0,0,.432,1.235,1.35,1.35,0,0,0,1.028.441,1.092,1.092,0,0,0,.7-.229A1.411,1.411,0,0,0,214.354-2.146Zm.1-1.8a1.717,1.717,0,0,0-.4-1.177,1.227,1.227,0,0,0-.927-.4,1.239,1.239,0,0,0-.965.425,1.646,1.646,0,0,0-.375,1.155Z" transform="translate(1260.31 2464.778)" fill="#20143b"/>
    <path id="Trazado_180" data-name="Trazado 180" d="M.521-3.466a3.647,3.647,0,0,1,.438-1.72A3.006,3.006,0,0,1,2.2-6.456a3.683,3.683,0,0,1,1.793-.438A3.366,3.366,0,0,1,6.5-5.9a3.432,3.432,0,0,1,.978,2.51A3.473,3.473,0,0,1,6.49-.854,3.336,3.336,0,0,1,4.005.152,3.915,3.915,0,0,1,2.238-.267,2.874,2.874,0,0,1,.958-1.495,4.092,4.092,0,0,1,.521-3.466Zm1.828.1a2.233,2.233,0,0,0,.476,1.536A1.513,1.513,0,0,0,4-1.3,1.5,1.5,0,0,0,5.17-1.834a2.264,2.264,0,0,0,.473-1.549A2.223,2.223,0,0,0,5.17-4.907,1.5,1.5,0,0,0,4-5.44a1.513,1.513,0,0,0-1.174.533A2.233,2.233,0,0,0,2.349-3.371Zm9.617-3.371v1.422H10.747V-2.6a6.757,6.757,0,0,0,.035.962.392.392,0,0,0,.159.225.5.5,0,0,0,.3.089,2.307,2.307,0,0,0,.717-.171l.152,1.384A3.546,3.546,0,0,1,10.7.152a2.235,2.235,0,0,1-.87-.162,1.269,1.269,0,0,1-.568-.419,1.654,1.654,0,0,1-.251-.7A8.646,8.646,0,0,1,8.957-2.38V-5.319H8.138V-6.741h.819V-8.081l1.79-1.041v2.38ZM14.911,0H13.127V-6.741h1.657v.958a2.881,2.881,0,0,1,.765-.9,1.407,1.407,0,0,1,.771-.216,2.264,2.264,0,0,1,1.174.336L16.942-5a1.565,1.565,0,0,0-.838-.292.99.99,0,0,0-.635.206,1.41,1.41,0,0,0-.409.746,10.6,10.6,0,0,0-.149,2.26ZM17.85-3.466a3.647,3.647,0,0,1,.438-1.72,3.006,3.006,0,0,1,1.241-1.27,3.683,3.683,0,0,1,1.793-.438,3.366,3.366,0,0,1,2.507.993,3.432,3.432,0,0,1,.978,2.51A3.473,3.473,0,0,1,23.82-.854,3.336,3.336,0,0,1,21.334.152a3.915,3.915,0,0,1-1.768-.419,2.874,2.874,0,0,1-1.279-1.228A4.092,4.092,0,0,1,17.85-3.466Zm1.828.1a2.233,2.233,0,0,0,.476,1.536,1.513,1.513,0,0,0,1.174.533A1.5,1.5,0,0,0,22.5-1.834a2.264,2.264,0,0,0,.473-1.549A2.223,2.223,0,0,0,22.5-4.907a1.5,1.5,0,0,0-1.171-.533,1.513,1.513,0,0,0-1.174.533A2.233,2.233,0,0,0,19.678-3.371Zm5.9,1.447,1.79-.273a1.312,1.312,0,0,0,.463.79,1.566,1.566,0,0,0,.978.27,1.765,1.765,0,0,0,1.041-.254.567.567,0,0,0,.235-.476.468.468,0,0,0-.127-.336,1.421,1.421,0,0,0-.6-.235,9.622,9.622,0,0,1-2.736-.87,1.737,1.737,0,0,1-.8-1.517A1.87,1.87,0,0,1,26.514-6.3a3.231,3.231,0,0,1,2.146-.6,3.743,3.743,0,0,1,2.057.451,2.3,2.3,0,0,1,.927,1.333L29.961-4.8a1.04,1.04,0,0,0-.409-.6,1.5,1.5,0,0,0-.86-.209,1.938,1.938,0,0,0-1.009.2.423.423,0,0,0-.2.362.394.394,0,0,0,.178.324,6.692,6.692,0,0,0,1.666.5,4.96,4.96,0,0,1,1.99.793,1.649,1.649,0,0,1,.559,1.327A2.036,2.036,0,0,1,31.1-.514a3.428,3.428,0,0,1-2.292.667,3.76,3.76,0,0,1-2.18-.559A2.574,2.574,0,0,1,25.575-1.923Zm15.374-.222,1.777.3A2.915,2.915,0,0,1,41.644-.359a3.179,3.179,0,0,1-1.85.511A3.016,3.016,0,0,1,37.191-1a3.86,3.86,0,0,1-.667-2.323A3.722,3.722,0,0,1,37.4-5.945a2.885,2.885,0,0,1,2.215-.949A2.992,2.992,0,0,1,41.99-5.9a4.4,4.4,0,0,1,.832,3.044H38.353a1.8,1.8,0,0,0,.432,1.235,1.35,1.35,0,0,0,1.028.441,1.092,1.092,0,0,0,.7-.229A1.411,1.411,0,0,0,40.949-2.146Zm.1-1.8a1.717,1.717,0,0,0-.4-1.177,1.227,1.227,0,0,0-.927-.4,1.239,1.239,0,0,0-.965.425,1.646,1.646,0,0,0-.375,1.155ZM50.458,0H48.8V-.99a2.677,2.677,0,0,1-.974.86,2.5,2.5,0,0,1-1.133.282A2.568,2.568,0,0,1,44.7-.784,3.809,3.809,0,0,1,43.875-3.4,3.764,3.764,0,0,1,44.681-6a2.628,2.628,0,0,1,2.038-.892,2.524,2.524,0,0,1,1.955.939V-9.306h1.784ZM45.7-3.517A3.087,3.087,0,0,0,46-1.955a1.348,1.348,0,0,0,1.206.7,1.313,1.313,0,0,0,1.047-.524,2.417,2.417,0,0,0,.432-1.565,2.645,2.645,0,0,0-.419-1.673,1.326,1.326,0,0,0-1.073-.511,1.34,1.34,0,0,0-1.063.5A2.28,2.28,0,0,0,45.7-3.517Zm6.519-4.139v-1.65H54v1.65Zm0,7.655V-6.741H54V0Zm2.831-6.741h.99v-.508a3.373,3.373,0,0,1,.181-1.27,1.43,1.43,0,0,1,.667-.682,2.557,2.557,0,0,1,1.228-.263,4.965,4.965,0,0,1,1.492.229l-.241,1.244a3.523,3.523,0,0,0-.819-.1.73.73,0,0,0-.555.181,1.048,1.048,0,0,0-.168.7v.476h1.333v1.4H57.821V0H56.037V-5.338h-.99Zm5.11-.914v-1.65H61.94v1.65Zm0,7.655V-6.741H61.94V0Zm9.49-4.748-1.758.317a1.276,1.276,0,0,0-.4-.793,1.217,1.217,0,0,0-.816-.267,1.333,1.333,0,0,0-1.063.46,2.358,2.358,0,0,0-.4,1.539,2.728,2.728,0,0,0,.4,1.695,1.323,1.323,0,0,0,1.082.5,1.2,1.2,0,0,0,.832-.289,1.737,1.737,0,0,0,.457-.993l1.752.3A3.109,3.109,0,0,1,68.688-.463a3.242,3.242,0,0,1-2.076.616,3.086,3.086,0,0,1-2.358-.933,3.618,3.618,0,0,1-.879-2.583,3.626,3.626,0,0,1,.882-2.6,3.134,3.134,0,0,1,2.387-.93,3.256,3.256,0,0,1,1.958.53A2.936,2.936,0,0,1,69.646-4.748ZM71-7.655v-1.65h1.784v1.65ZM71,0V-6.741h1.784V0Zm3.2-3.466a3.647,3.647,0,0,1,.438-1.72,3.006,3.006,0,0,1,1.241-1.27,3.683,3.683,0,0,1,1.793-.438,3.366,3.366,0,0,1,2.507.993,3.432,3.432,0,0,1,.978,2.51,3.473,3.473,0,0,1-.987,2.536A3.336,3.336,0,0,1,77.683.152a3.915,3.915,0,0,1-1.768-.419,2.874,2.874,0,0,1-1.279-1.228A4.092,4.092,0,0,1,74.2-3.466Zm1.828.1A2.233,2.233,0,0,0,76.5-1.834a1.513,1.513,0,0,0,1.174.533,1.5,1.5,0,0,0,1.171-.533,2.264,2.264,0,0,0,.473-1.549,2.223,2.223,0,0,0-.473-1.523,1.5,1.5,0,0,0-1.171-.533,1.513,1.513,0,0,0-1.174.533A2.233,2.233,0,0,0,76.026-3.371Z" transform="translate(1260.31 2480.519)" fill="#20143b"/>
    <path id="Trazado_181" data-name="Trazado 181" d="M.3-1.923,2.095-2.2a1.312,1.312,0,0,0,.463.79,1.566,1.566,0,0,0,.978.27A1.765,1.765,0,0,0,4.577-1.39a.567.567,0,0,0,.235-.476A.468.468,0,0,0,4.685-2.2a1.421,1.421,0,0,0-.6-.235,9.622,9.622,0,0,1-2.736-.87,1.737,1.737,0,0,1-.8-1.517A1.87,1.87,0,0,1,1.244-6.3a3.231,3.231,0,0,1,2.146-.6,3.743,3.743,0,0,1,2.057.451A2.3,2.3,0,0,1,6.373-5.11L4.691-4.8a1.04,1.04,0,0,0-.409-.6,1.5,1.5,0,0,0-.86-.209,1.938,1.938,0,0,0-1.009.2.423.423,0,0,0-.2.362.394.394,0,0,0,.178.324,6.692,6.692,0,0,0,1.666.5,4.96,4.96,0,0,1,1.99.793A1.649,1.649,0,0,1,6.6-2.107,2.036,2.036,0,0,1,5.827-.514,3.428,3.428,0,0,1,3.536.152a3.76,3.76,0,0,1-2.18-.559A2.574,2.574,0,0,1,.3-1.923Z" transform="translate(1342.717 2480.519)" fill="#20143b"/>
    <path id="Trazado_172" data-name="Trazado 172" d="M0,0H-265.055" transform="translate(1514.052 2493.594)" fill="none" stroke="#20143b" stroke-width="1" stroke-dasharray="0.995 1.995"/>
    <path id="Trazado_173" data-name="Trazado 173" d="M0,0V-60.6" transform="translate(1247.5 2491.128)" fill="none" stroke="#20143b" stroke-width="1" stroke-dasharray="0.966 1.966"/>
    <path id="Trazado_174" data-name="Trazado 174" d="M0,0H265.055" transform="translate(1249.995 2429.047)" fill="none" stroke="#20143b" stroke-width="1" stroke-dasharray="0.995 1.995"/>
    <path id="Trazado_175" data-name="Trazado 175" d="M0,0V60.6" transform="translate(1516.547 2431.513)" fill="none" stroke="#20143b" stroke-width="1" stroke-dasharray="0.966 1.966"/>
    <path id="Trazado_176" data-name="Trazado 176" d="M0,0H-.5V-.5m0-63.547v-.5H0m268.047,0h.5v.5m0,63.547V0h-.5" transform="translate(1248 2493.594)" fill="none" stroke="#20143b" stroke-width="1"/>
    <path id="Trazado_177" data-name="Trazado 177" d="M0,0H270.047V-65.547H0Z" transform="translate(1247 2494.094)" fill="none"/>
  </g>
</svg>
