<svg xmlns="http://www.w3.org/2000/svg" width="288.209" height="69.955" viewBox="0 0 288.209 69.955">
  <g id="Grupo_23" data-name="Grupo 23" transform="translate(-1282 -2427.955)">
    <path id="Trazado_178" data-name="Trazado 178" d="M1.019,0V-10.021H4.266a11.775,11.775,0,0,1,2.406.15,2.628,2.628,0,0,1,1.442.981A3.111,3.111,0,0,1,8.7-6.938,3.27,3.27,0,0,1,8.36-5.387a2.748,2.748,0,0,1-.851.988,2.933,2.933,0,0,1-1.049.475,11.55,11.55,0,0,1-2.1.144H3.042V0ZM3.042-8.326v2.844H4.149a5.232,5.232,0,0,0,1.6-.157,1.329,1.329,0,0,0,.632-.492,1.347,1.347,0,0,0,.229-.779,1.3,1.3,0,0,0-.321-.9,1.4,1.4,0,0,0-.813-.444A9.726,9.726,0,0,0,4.02-8.326Zm11.5,6.016,1.914.321A3.14,3.14,0,0,1,15.3-.386,3.424,3.424,0,0,1,13.3.164a3.248,3.248,0,0,1-2.8-1.237,4.157,4.157,0,0,1-.718-2.5A4.009,4.009,0,0,1,10.726-6.4a3.107,3.107,0,0,1,2.386-1.022,3.223,3.223,0,0,1,2.557,1.07,4.734,4.734,0,0,1,.9,3.278H11.751a1.943,1.943,0,0,0,.465,1.33,1.454,1.454,0,0,0,1.107.475,1.176,1.176,0,0,0,.759-.246A1.52,1.52,0,0,0,14.547-2.311Zm.109-1.941a1.849,1.849,0,0,0-.431-1.268,1.322,1.322,0,0,0-1-.434,1.334,1.334,0,0,0-1.039.458,1.772,1.772,0,0,0-.4,1.244ZM19.968,0H18.047V-7.26h1.784v1.032a3.1,3.1,0,0,1,.824-.964,1.515,1.515,0,0,1,.831-.232,2.438,2.438,0,0,1,1.265.362l-.595,1.675a1.686,1.686,0,0,0-.9-.314,1.066,1.066,0,0,0-.684.222,1.519,1.519,0,0,0-.441.8,11.411,11.411,0,0,0-.161,2.434ZM22.9-2.071l1.928-.294a1.413,1.413,0,0,0,.5.851,1.686,1.686,0,0,0,1.053.291A1.9,1.9,0,0,0,27.5-1.5a.61.61,0,0,0,.253-.513.5.5,0,0,0-.137-.362,1.531,1.531,0,0,0-.643-.253,10.363,10.363,0,0,1-2.946-.937A1.87,1.87,0,0,1,23.167-5.2a2.014,2.014,0,0,1,.745-1.586,3.479,3.479,0,0,1,2.311-.643,4.031,4.031,0,0,1,2.215.485,2.481,2.481,0,0,1,1,1.436l-1.812.335a1.12,1.12,0,0,0-.441-.649,1.612,1.612,0,0,0-.926-.226,2.087,2.087,0,0,0-1.087.212.455.455,0,0,0-.219.39.425.425,0,0,0,.191.349,7.207,7.207,0,0,0,1.794.54A5.342,5.342,0,0,1,29.08-3.7a1.776,1.776,0,0,1,.6,1.429,2.193,2.193,0,0,1-.834,1.716A3.692,3.692,0,0,1,26.38.164a4.049,4.049,0,0,1-2.348-.6A2.772,2.772,0,0,1,22.9-2.071Zm8.019-1.661a3.927,3.927,0,0,1,.472-1.853,3.238,3.238,0,0,1,1.336-1.367,3.966,3.966,0,0,1,1.931-.472,3.625,3.625,0,0,1,2.7,1.07,3.7,3.7,0,0,1,1.053,2.7A3.74,3.74,0,0,1,37.348-.919,3.593,3.593,0,0,1,34.672.164a4.216,4.216,0,0,1-1.9-.451A3.1,3.1,0,0,1,31.391-1.61,4.407,4.407,0,0,1,30.919-3.732Zm1.969.1A2.4,2.4,0,0,0,33.4-1.976a1.629,1.629,0,0,0,1.265.574,1.619,1.619,0,0,0,1.261-.574,2.438,2.438,0,0,0,.509-1.668,2.394,2.394,0,0,0-.509-1.641,1.619,1.619,0,0,0-1.261-.574,1.629,1.629,0,0,0-1.265.574A2.4,2.4,0,0,0,32.888-3.63ZM46.519,0H44.6V-3.705a5.726,5.726,0,0,0-.123-1.521,1.067,1.067,0,0,0-.4-.537,1.143,1.143,0,0,0-.667-.191,1.54,1.54,0,0,0-.9.273,1.378,1.378,0,0,0-.543.725,6.263,6.263,0,0,0-.147,1.668V0H39.9V-7.26h1.784v1.066a2.907,2.907,0,0,1,2.393-1.23,2.882,2.882,0,0,1,1.162.229,1.947,1.947,0,0,1,.8.584,2.117,2.117,0,0,1,.376.807,6,6,0,0,1,.106,1.292ZM49.9-5.045l-1.743-.314a2.715,2.715,0,0,1,1.012-1.559A3.7,3.7,0,0,1,51.3-7.424a4.6,4.6,0,0,1,1.914.3,1.909,1.909,0,0,1,.885.772,3.961,3.961,0,0,1,.256,1.719l-.021,2.242a7.784,7.784,0,0,0,.092,1.412A4.12,4.12,0,0,0,54.776,0h-1.9q-.075-.191-.185-.567-.048-.171-.068-.226a3.463,3.463,0,0,1-1.053.718,3.015,3.015,0,0,1-1.2.239,2.474,2.474,0,0,1-1.767-.608,2.022,2.022,0,0,1-.646-1.538,2.065,2.065,0,0,1,.294-1.1,1.921,1.921,0,0,1,.824-.738,6.438,6.438,0,0,1,1.528-.448,10.466,10.466,0,0,0,1.866-.472v-.191a1,1,0,0,0-.273-.79,1.639,1.639,0,0,0-1.032-.236,1.375,1.375,0,0,0-.8.2A1.4,1.4,0,0,0,49.9-5.045Zm2.57,1.559a12.007,12.007,0,0,1-1.169.294,3.521,3.521,0,0,0-1.046.335.8.8,0,0,0-.376.677.942.942,0,0,0,.3.7,1.05,1.05,0,0,0,.766.294,1.664,1.664,0,0,0,.991-.342,1.2,1.2,0,0,0,.458-.636,3.793,3.793,0,0,0,.075-.937ZM64.887,2.762V-.889a2.724,2.724,0,0,1-.937.769,2.642,2.642,0,0,1-1.21.284A2.569,2.569,0,0,1,60.7-.766a4.341,4.341,0,0,1-.943-2.946,3.931,3.931,0,0,1,.885-2.731,2.841,2.841,0,0,1,2.2-.981,2.455,2.455,0,0,1,1.254.308,2.871,2.871,0,0,1,.94.93V-7.26h1.771V2.762Zm.062-6.48a2.543,2.543,0,0,0-.455-1.658,1.424,1.424,0,0,0-1.138-.543,1.466,1.466,0,0,0-1.166.554,2.7,2.7,0,0,0-.468,1.757,2.651,2.651,0,0,0,.451,1.726,1.408,1.408,0,0,0,1.114.53,1.483,1.483,0,0,0,1.162-.595A2.7,2.7,0,0,0,64.948-3.719ZM73.473,0V-1.087a2.8,2.8,0,0,1-1.042.916,2.922,2.922,0,0,1-1.364.335,2.666,2.666,0,0,1-1.312-.321,1.9,1.9,0,0,1-.841-.9,4.027,4.027,0,0,1-.26-1.606V-7.26h1.921v3.336a9.251,9.251,0,0,0,.106,1.876,1.023,1.023,0,0,0,.386.547,1.187,1.187,0,0,0,.711.2,1.511,1.511,0,0,0,.882-.27,1.374,1.374,0,0,0,.533-.67A7.776,7.776,0,0,0,73.336-4.2V-7.26h1.921V0ZM81.45-2.311l1.914.321A3.14,3.14,0,0,1,82.2-.386a3.424,3.424,0,0,1-1.993.55,3.248,3.248,0,0,1-2.8-1.237,4.157,4.157,0,0,1-.718-2.5A4.009,4.009,0,0,1,77.629-6.4a3.107,3.107,0,0,1,2.386-1.022,3.223,3.223,0,0,1,2.557,1.07,4.734,4.734,0,0,1,.9,3.278H78.654a1.943,1.943,0,0,0,.465,1.33,1.454,1.454,0,0,0,1.107.475,1.176,1.176,0,0,0,.759-.246A1.52,1.52,0,0,0,81.45-2.311Zm.109-1.941a1.849,1.849,0,0,0-.431-1.268,1.322,1.322,0,0,0-1-.434,1.334,1.334,0,0,0-1.039.458,1.772,1.772,0,0,0-.4,1.244ZM88.867-7.26h1.791v1.066a2.68,2.68,0,0,1,.943-.889,2.6,2.6,0,0,1,1.319-.342,2.768,2.768,0,0,1,2.146.991,4.012,4.012,0,0,1,.882,2.762,4.134,4.134,0,0,1-.889,2.827A2.769,2.769,0,0,1,92.907.164a2.447,2.447,0,0,1-1.09-.239A3.675,3.675,0,0,1,90.788-.9V2.762H88.867Zm1.9,3.507a2.8,2.8,0,0,0,.485,1.808,1.485,1.485,0,0,0,1.183.584A1.388,1.388,0,0,0,93.55-1.9a2.765,2.765,0,0,0,.444-1.76,2.624,2.624,0,0,0-.458-1.7A1.417,1.417,0,0,0,92.4-5.906a1.474,1.474,0,0,0-1.169.543A2.419,2.419,0,0,0,90.768-3.753ZM99.313,0H97.392V-7.26h1.784v1.032A3.1,3.1,0,0,1,100-7.191a1.515,1.515,0,0,1,.831-.232,2.438,2.438,0,0,1,1.265.362L101.5-5.387a1.686,1.686,0,0,0-.9-.314,1.066,1.066,0,0,0-.684.222,1.519,1.519,0,0,0-.441.8,11.411,11.411,0,0,0-.161,2.434Zm7.813-2.311,1.914.321a3.14,3.14,0,0,1-1.166,1.6,3.424,3.424,0,0,1-1.993.55,3.248,3.248,0,0,1-2.8-1.237,4.157,4.157,0,0,1-.718-2.5A4.009,4.009,0,0,1,103.3-6.4a3.107,3.107,0,0,1,2.386-1.022,3.223,3.223,0,0,1,2.557,1.07,4.734,4.734,0,0,1,.9,3.278H104.33a1.943,1.943,0,0,0,.465,1.33,1.454,1.454,0,0,0,1.107.475,1.176,1.176,0,0,0,.759-.246A1.52,1.52,0,0,0,107.126-2.311Zm.109-1.941A1.849,1.849,0,0,0,106.8-5.52a1.322,1.322,0,0,0-1-.434,1.334,1.334,0,0,0-1.039.458,1.772,1.772,0,0,0-.4,1.244Zm2.8,2.181,1.928-.294a1.413,1.413,0,0,0,.5.851,1.686,1.686,0,0,0,1.053.291,1.9,1.9,0,0,0,1.121-.273.61.61,0,0,0,.253-.513.5.5,0,0,0-.137-.362,1.531,1.531,0,0,0-.643-.253,10.363,10.363,0,0,1-2.946-.937A1.87,1.87,0,0,1,110.3-5.2a2.014,2.014,0,0,1,.745-1.586,3.479,3.479,0,0,1,2.311-.643,4.031,4.031,0,0,1,2.215.485,2.481,2.481,0,0,1,1,1.436l-1.812.335a1.12,1.12,0,0,0-.441-.649,1.612,1.612,0,0,0-.926-.226,2.087,2.087,0,0,0-1.087.212.455.455,0,0,0-.219.39.425.425,0,0,0,.191.349,7.207,7.207,0,0,0,1.794.54,5.342,5.342,0,0,1,2.143.854,1.776,1.776,0,0,1,.6,1.429,2.193,2.193,0,0,1-.834,1.716,3.692,3.692,0,0,1-2.468.718,4.049,4.049,0,0,1-2.348-.6A2.772,2.772,0,0,1,110.031-2.071ZM122.7-2.311l1.914.321a3.14,3.14,0,0,1-1.166,1.6,3.424,3.424,0,0,1-1.993.55,3.248,3.248,0,0,1-2.8-1.237,4.157,4.157,0,0,1-.718-2.5,4.009,4.009,0,0,1,.943-2.827,3.107,3.107,0,0,1,2.386-1.022,3.223,3.223,0,0,1,2.557,1.07,4.734,4.734,0,0,1,.9,3.278H119.9a1.943,1.943,0,0,0,.465,1.33,1.454,1.454,0,0,0,1.107.475,1.176,1.176,0,0,0,.759-.246A1.52,1.52,0,0,0,122.7-2.311Zm.109-1.941a1.849,1.849,0,0,0-.431-1.268,1.322,1.322,0,0,0-1-.434,1.334,1.334,0,0,0-1.039.458,1.772,1.772,0,0,0-.4,1.244ZM132.884,0h-1.921V-3.705a5.726,5.726,0,0,0-.123-1.521,1.067,1.067,0,0,0-.4-.537,1.143,1.143,0,0,0-.667-.191,1.54,1.54,0,0,0-.9.273,1.378,1.378,0,0,0-.543.725,6.264,6.264,0,0,0-.147,1.668V0h-1.921V-7.26h1.784v1.066a2.907,2.907,0,0,1,2.393-1.23,2.882,2.882,0,0,1,1.162.229,1.947,1.947,0,0,1,.8.584,2.117,2.117,0,0,1,.376.807,6,6,0,0,1,.106,1.292Zm5.277-7.26v1.531h-1.312V-2.8a7.276,7.276,0,0,0,.038,1.036.422.422,0,0,0,.171.243.542.542,0,0,0,.325.1,2.485,2.485,0,0,0,.772-.185l.164,1.49A3.818,3.818,0,0,1,136.8.164a2.407,2.407,0,0,1-.937-.174,1.367,1.367,0,0,1-.612-.451,1.781,1.781,0,0,1-.27-.749,9.311,9.311,0,0,1-.062-1.354V-5.729h-.882V-7.26h.882V-8.7l1.928-1.121V-7.26Zm2.769,2.215-1.743-.314A2.715,2.715,0,0,1,140.2-6.918a3.7,3.7,0,0,1,2.133-.506,4.6,4.6,0,0,1,1.914.3,1.909,1.909,0,0,1,.885.772,3.961,3.961,0,0,1,.256,1.719l-.021,2.242a7.784,7.784,0,0,0,.092,1.412A4.12,4.12,0,0,0,145.8,0h-1.9q-.075-.191-.185-.567-.048-.171-.068-.226a3.463,3.463,0,0,1-1.053.718,3.015,3.015,0,0,1-1.2.239,2.474,2.474,0,0,1-1.767-.608,2.022,2.022,0,0,1-.646-1.538,2.065,2.065,0,0,1,.294-1.1,1.921,1.921,0,0,1,.824-.738,6.438,6.438,0,0,1,1.528-.448,10.466,10.466,0,0,0,1.866-.472v-.191a1,1,0,0,0-.273-.79,1.639,1.639,0,0,0-1.032-.236,1.375,1.375,0,0,0-.8.2A1.4,1.4,0,0,0,140.93-5.045Zm2.57,1.559a12.007,12.007,0,0,1-1.169.294,3.521,3.521,0,0,0-1.046.335.8.8,0,0,0-.376.677.942.942,0,0,0,.3.7,1.05,1.05,0,0,0,.766.294,1.664,1.664,0,0,0,.991-.342,1.2,1.2,0,0,0,.458-.636A3.793,3.793,0,0,0,143.5-3.1ZM157.828,0h-1.784V-1.066a2.883,2.883,0,0,1-1.049.926,2.692,2.692,0,0,1-1.22.3,2.765,2.765,0,0,1-2.143-1.008,4.1,4.1,0,0,1-.892-2.813,4.053,4.053,0,0,1,.868-2.806,2.83,2.83,0,0,1,2.194-.96,2.718,2.718,0,0,1,2.105,1.012v-3.609h1.921ZM152.7-3.787a3.324,3.324,0,0,0,.321,1.682,1.452,1.452,0,0,0,1.3.752,1.414,1.414,0,0,0,1.128-.564,2.6,2.6,0,0,0,.465-1.685,2.849,2.849,0,0,0-.451-1.8,1.428,1.428,0,0,0-1.155-.55,1.443,1.443,0,0,0-1.145.543A2.456,2.456,0,0,0,152.7-3.787Zm11.225,1.477,1.914.321a3.14,3.14,0,0,1-1.166,1.6,3.424,3.424,0,0,1-1.993.55,3.248,3.248,0,0,1-2.8-1.237,4.157,4.157,0,0,1-.718-2.5A4.009,4.009,0,0,1,160.1-6.4a3.107,3.107,0,0,1,2.386-1.022,3.223,3.223,0,0,1,2.557,1.07,4.734,4.734,0,0,1,.9,3.278H161.13a1.943,1.943,0,0,0,.465,1.33,1.454,1.454,0,0,0,1.107.475,1.176,1.176,0,0,0,.759-.246A1.52,1.52,0,0,0,163.926-2.311Zm.109-1.941A1.849,1.849,0,0,0,163.6-5.52a1.322,1.322,0,0,0-1-.434,1.334,1.334,0,0,0-1.039.458,1.772,1.772,0,0,0-.4,1.244Zm2.632-3.008h1.066v-.547a3.633,3.633,0,0,1,.195-1.367,1.54,1.54,0,0,1,.718-.735,2.754,2.754,0,0,1,1.323-.284,5.347,5.347,0,0,1,1.606.246l-.26,1.34a3.794,3.794,0,0,0-.882-.109.786.786,0,0,0-.6.195,1.129,1.129,0,0,0-.181.749v.513h1.436v1.511h-1.436V0h-1.921V-5.749h-1.066Zm5.5-.984v-1.777h1.921v1.777Zm0,8.244V-7.26h1.921V0Zm10.22-5.113-1.894.342a1.374,1.374,0,0,0-.434-.854,1.311,1.311,0,0,0-.878-.287,1.435,1.435,0,0,0-1.145.5,2.54,2.54,0,0,0-.427,1.658,2.938,2.938,0,0,0,.434,1.825,1.425,1.425,0,0,0,1.166.533,1.3,1.3,0,0,0,.9-.311,1.871,1.871,0,0,0,.492-1.07l1.887.321A3.348,3.348,0,0,1,181.357-.5a3.491,3.491,0,0,1-2.235.663,3.323,3.323,0,0,1-2.54-1,3.9,3.9,0,0,1-.947-2.782,3.9,3.9,0,0,1,.95-2.8,3.375,3.375,0,0,1,2.57-1,3.507,3.507,0,0,1,2.109.571A3.162,3.162,0,0,1,182.39-5.113Zm1.456-3.131v-1.777h1.921v1.777Zm0,8.244V-7.26h1.921V0Zm8.094-2.311,1.914.321a3.14,3.14,0,0,1-1.166,1.6,3.424,3.424,0,0,1-1.993.55,3.248,3.248,0,0,1-2.8-1.237,4.157,4.157,0,0,1-.718-2.5,4.009,4.009,0,0,1,.943-2.827A3.107,3.107,0,0,1,190.5-7.424a3.223,3.223,0,0,1,2.557,1.07,4.734,4.734,0,0,1,.9,3.278h-4.812a1.943,1.943,0,0,0,.465,1.33,1.454,1.454,0,0,0,1.107.475,1.176,1.176,0,0,0,.759-.246A1.52,1.52,0,0,0,191.939-2.311Zm.109-1.941a1.849,1.849,0,0,0-.431-1.268,1.322,1.322,0,0,0-1-.434,1.334,1.334,0,0,0-1.039.458,1.772,1.772,0,0,0-.4,1.244ZM202.125,0H200.2V-3.705a5.726,5.726,0,0,0-.123-1.521,1.067,1.067,0,0,0-.4-.537,1.143,1.143,0,0,0-.667-.191,1.54,1.54,0,0,0-.9.273,1.378,1.378,0,0,0-.543.725,6.264,6.264,0,0,0-.147,1.668V0h-1.921V-7.26h1.784v1.066a2.907,2.907,0,0,1,2.393-1.23,2.882,2.882,0,0,1,1.162.229,1.947,1.947,0,0,1,.8.584,2.117,2.117,0,0,1,.376.807,6,6,0,0,1,.106,1.292ZM210.4-5.113l-1.894.342a1.374,1.374,0,0,0-.434-.854,1.311,1.311,0,0,0-.878-.287,1.435,1.435,0,0,0-1.145.5,2.54,2.54,0,0,0-.427,1.658,2.938,2.938,0,0,0,.434,1.825,1.425,1.425,0,0,0,1.166.533,1.3,1.3,0,0,0,.9-.311,1.871,1.871,0,0,0,.492-1.07l1.887.321A3.348,3.348,0,0,1,209.371-.5a3.491,3.491,0,0,1-2.235.663,3.323,3.323,0,0,1-2.54-1,3.9,3.9,0,0,1-.947-2.782,3.9,3.9,0,0,1,.95-2.8,3.375,3.375,0,0,1,2.57-1,3.507,3.507,0,0,1,2.109.571A3.162,3.162,0,0,1,210.4-5.113Zm1.456-3.131v-1.777h1.921v1.777Zm0,8.244V-7.26h1.921V0Zm5.325-5.045-1.743-.314a2.715,2.715,0,0,1,1.012-1.559,3.7,3.7,0,0,1,2.133-.506,4.6,4.6,0,0,1,1.914.3,1.909,1.909,0,0,1,.885.772,3.961,3.961,0,0,1,.256,1.719l-.021,2.242a7.784,7.784,0,0,0,.092,1.412,4.12,4.12,0,0,0,.345.974h-1.9q-.075-.191-.185-.567-.048-.171-.068-.226a3.463,3.463,0,0,1-1.053.718,3.015,3.015,0,0,1-1.2.239,2.474,2.474,0,0,1-1.767-.608,2.022,2.022,0,0,1-.646-1.538,2.065,2.065,0,0,1,.294-1.1,1.921,1.921,0,0,1,.824-.738,6.438,6.438,0,0,1,1.528-.448,10.466,10.466,0,0,0,1.866-.472v-.191a1,1,0,0,0-.273-.79,1.639,1.639,0,0,0-1.032-.236,1.375,1.375,0,0,0-.8.2A1.4,1.4,0,0,0,217.185-5.045Zm2.57,1.559a12.007,12.007,0,0,1-1.169.294,3.521,3.521,0,0,0-1.046.335.8.8,0,0,0-.376.677.942.942,0,0,0,.3.7,1.05,1.05,0,0,0,.766.294,1.664,1.664,0,0,0,.991-.342,1.2,1.2,0,0,0,.458-.636,3.793,3.793,0,0,0,.075-.937Z" transform="translate(1316.508 2449.822)" fill="#20143b"/>
    <path id="Trazado_179" data-name="Trazado 179" d="M7.335-5.113l-1.894.342a1.374,1.374,0,0,0-.434-.854,1.311,1.311,0,0,0-.878-.287,1.435,1.435,0,0,0-1.145.5A2.54,2.54,0,0,0,2.557-3.76a2.938,2.938,0,0,0,.434,1.825A1.425,1.425,0,0,0,4.156-1.4a1.3,1.3,0,0,0,.9-.311,1.871,1.871,0,0,0,.492-1.07l1.887.321A3.348,3.348,0,0,1,6.3-.5,3.491,3.491,0,0,1,4.067.164a3.323,3.323,0,0,1-2.54-1A3.9,3.9,0,0,1,.581-3.623a3.9,3.9,0,0,1,.95-2.8,3.375,3.375,0,0,1,2.57-1,3.507,3.507,0,0,1,2.109.571A3.162,3.162,0,0,1,7.335-5.113ZM8.347-3.732a3.927,3.927,0,0,1,.472-1.853,3.238,3.238,0,0,1,1.336-1.367,3.966,3.966,0,0,1,1.931-.472,3.625,3.625,0,0,1,2.7,1.07,3.7,3.7,0,0,1,1.053,2.7A3.74,3.74,0,0,1,14.776-.919,3.593,3.593,0,0,1,12.1.164a4.216,4.216,0,0,1-1.9-.451A3.1,3.1,0,0,1,8.818-1.61,4.407,4.407,0,0,1,8.347-3.732Zm1.969.1a2.4,2.4,0,0,0,.513,1.654,1.629,1.629,0,0,0,1.265.574,1.619,1.619,0,0,0,1.261-.574,2.438,2.438,0,0,0,.509-1.668,2.394,2.394,0,0,0-.509-1.641,1.619,1.619,0,0,0-1.261-.574,1.629,1.629,0,0,0-1.265.574A2.4,2.4,0,0,0,10.315-3.63ZM17.2-7.26H18.97v.991a2.849,2.849,0,0,1,2.263-1.155,2.437,2.437,0,0,1,1.21.287,2.206,2.206,0,0,1,.841.868,3.354,3.354,0,0,1,1.032-.868A2.533,2.533,0,0,1,25.5-7.424a2.634,2.634,0,0,1,1.354.325,1.989,1.989,0,0,1,.827.954,4.137,4.137,0,0,1,.2,1.5V0H25.956V-4.149a3.087,3.087,0,0,0-.2-1.395.91.91,0,0,0-.82-.41,1.309,1.309,0,0,0-.759.246,1.365,1.365,0,0,0-.513.721,5.189,5.189,0,0,0-.157,1.5V0H21.588V-3.979a5.519,5.519,0,0,0-.1-1.367.872.872,0,0,0-.318-.458,1,1,0,0,0-.584-.15,1.4,1.4,0,0,0-.8.239,1.312,1.312,0,0,0-.509.69,5.132,5.132,0,0,0-.154,1.5V0H17.2Zm12.537,0h1.791v1.066a2.68,2.68,0,0,1,.943-.889,2.6,2.6,0,0,1,1.319-.342,2.768,2.768,0,0,1,2.146.991,4.012,4.012,0,0,1,.882,2.762A4.134,4.134,0,0,1,35.93-.844,2.769,2.769,0,0,1,33.776.164a2.447,2.447,0,0,1-1.09-.239A3.675,3.675,0,0,1,31.657-.9V2.762H29.736Zm1.9,3.507a2.8,2.8,0,0,0,.485,1.808A1.485,1.485,0,0,0,33.3-1.36,1.388,1.388,0,0,0,34.419-1.9a2.765,2.765,0,0,0,.444-1.76,2.624,2.624,0,0,0-.458-1.7,1.417,1.417,0,0,0-1.135-.554,1.474,1.474,0,0,0-1.169.543A2.419,2.419,0,0,0,31.637-3.753ZM38.343,0V-10.021h1.921V0Zm8.094-2.311,1.914.321a3.14,3.14,0,0,1-1.166,1.6,3.424,3.424,0,0,1-1.993.55,3.248,3.248,0,0,1-2.8-1.237,4.157,4.157,0,0,1-.718-2.5A4.009,4.009,0,0,1,42.615-6.4,3.107,3.107,0,0,1,45-7.424a3.223,3.223,0,0,1,2.557,1.07,4.734,4.734,0,0,1,.9,3.278H43.641a1.943,1.943,0,0,0,.465,1.33,1.454,1.454,0,0,0,1.107.475,1.176,1.176,0,0,0,.759-.246A1.52,1.52,0,0,0,46.437-2.311Zm.109-1.941a1.849,1.849,0,0,0-.431-1.268,1.322,1.322,0,0,0-1-.434,1.334,1.334,0,0,0-1.039.458,1.772,1.772,0,0,0-.4,1.244Zm6.8-3.008v1.531H52.035V-2.8a7.277,7.277,0,0,0,.038,1.036.422.422,0,0,0,.171.243.542.542,0,0,0,.325.1,2.485,2.485,0,0,0,.772-.185L53.5-.123a3.818,3.818,0,0,1-1.518.287,2.407,2.407,0,0,1-.937-.174,1.367,1.367,0,0,1-.612-.451,1.781,1.781,0,0,1-.27-.749,9.311,9.311,0,0,1-.062-1.354V-5.729h-.882V-7.26h.882V-8.7l1.928-1.121V-7.26Zm2.769,2.215-1.743-.314a2.715,2.715,0,0,1,1.012-1.559,3.7,3.7,0,0,1,2.133-.506,4.6,4.6,0,0,1,1.914.3,1.909,1.909,0,0,1,.885.772,3.961,3.961,0,0,1,.256,1.719l-.021,2.242a7.784,7.784,0,0,0,.092,1.412A4.12,4.12,0,0,0,60.99,0h-1.9q-.075-.191-.185-.567-.048-.171-.068-.226a3.463,3.463,0,0,1-1.053.718,3.015,3.015,0,0,1-1.2.239,2.474,2.474,0,0,1-1.767-.608,2.022,2.022,0,0,1-.646-1.538,2.065,2.065,0,0,1,.294-1.1,1.921,1.921,0,0,1,.824-.738,6.438,6.438,0,0,1,1.528-.448,10.466,10.466,0,0,0,1.866-.472v-.191a1,1,0,0,0-.273-.79,1.639,1.639,0,0,0-1.032-.236,1.375,1.375,0,0,0-.8.2A1.4,1.4,0,0,0,56.116-5.045Zm2.57,1.559a12.007,12.007,0,0,1-1.169.294,3.521,3.521,0,0,0-1.046.335.8.8,0,0,0-.376.677.942.942,0,0,0,.3.7,1.05,1.05,0,0,0,.766.294,1.664,1.664,0,0,0,.991-.342,1.2,1.2,0,0,0,.458-.636,3.793,3.793,0,0,0,.075-.937ZM66.3-7.26h1.791v1.066a2.68,2.68,0,0,1,.943-.889,2.6,2.6,0,0,1,1.319-.342,2.768,2.768,0,0,1,2.146.991,4.012,4.012,0,0,1,.882,2.762A4.134,4.134,0,0,1,72.5-.844,2.769,2.769,0,0,1,70.342.164a2.447,2.447,0,0,1-1.09-.239A3.675,3.675,0,0,1,68.223-.9V2.762H66.3Zm1.9,3.507a2.8,2.8,0,0,0,.485,1.808,1.485,1.485,0,0,0,1.183.584A1.388,1.388,0,0,0,70.984-1.9a2.765,2.765,0,0,0,.444-1.76,2.624,2.624,0,0,0-.458-1.7,1.417,1.417,0,0,0-1.135-.554,1.474,1.474,0,0,0-1.169.543A2.419,2.419,0,0,0,68.2-3.753Zm6.262.021a3.927,3.927,0,0,1,.472-1.853,3.238,3.238,0,0,1,1.336-1.367A3.966,3.966,0,0,1,78.2-7.424a3.625,3.625,0,0,1,2.7,1.07,3.7,3.7,0,0,1,1.053,2.7A3.74,3.74,0,0,1,80.893-.919,3.593,3.593,0,0,1,78.217.164a4.216,4.216,0,0,1-1.9-.451A3.1,3.1,0,0,1,74.936-1.61,4.407,4.407,0,0,1,74.464-3.732Zm1.969.1a2.4,2.4,0,0,0,.513,1.654A1.629,1.629,0,0,0,78.21-1.4a1.619,1.619,0,0,0,1.261-.574,2.438,2.438,0,0,0,.509-1.668,2.394,2.394,0,0,0-.509-1.641,1.619,1.619,0,0,0-1.261-.574,1.629,1.629,0,0,0-1.265.574A2.4,2.4,0,0,0,76.433-3.63ZM85.3,0H83.378V-7.26h1.784v1.032a3.1,3.1,0,0,1,.824-.964,1.515,1.515,0,0,1,.831-.232,2.438,2.438,0,0,1,1.265.362l-.595,1.675a1.686,1.686,0,0,0-.9-.314,1.066,1.066,0,0,0-.684.222,1.519,1.519,0,0,0-.441.8A11.411,11.411,0,0,0,85.3-2.242Zm8.935-5.045L92.49-5.359A2.715,2.715,0,0,1,93.5-6.918a3.7,3.7,0,0,1,2.133-.506,4.6,4.6,0,0,1,1.914.3,1.909,1.909,0,0,1,.885.772,3.961,3.961,0,0,1,.256,1.719L98.67-2.386a7.784,7.784,0,0,0,.092,1.412A4.12,4.12,0,0,0,99.107,0h-1.9q-.075-.191-.185-.567-.048-.171-.068-.226A3.463,3.463,0,0,1,95.9-.075a3.015,3.015,0,0,1-1.2.239,2.474,2.474,0,0,1-1.767-.608,2.022,2.022,0,0,1-.646-1.538,2.065,2.065,0,0,1,.294-1.1,1.921,1.921,0,0,1,.824-.738,6.438,6.438,0,0,1,1.528-.448A10.466,10.466,0,0,0,96.8-4.737v-.191a1,1,0,0,0-.273-.79A1.639,1.639,0,0,0,95.5-5.954a1.375,1.375,0,0,0-.8.2A1.4,1.4,0,0,0,94.233-5.045ZM96.8-3.486a12.007,12.007,0,0,1-1.169.294,3.521,3.521,0,0,0-1.046.335.8.8,0,0,0-.376.677.942.942,0,0,0,.3.7,1.05,1.05,0,0,0,.766.294,1.664,1.664,0,0,0,.991-.342,1.2,1.2,0,0,0,.458-.636A3.793,3.793,0,0,0,96.8-3.1ZM105.362,0V-1.087a2.8,2.8,0,0,1-1.042.916,2.922,2.922,0,0,1-1.364.335,2.666,2.666,0,0,1-1.312-.321,1.9,1.9,0,0,1-.841-.9,4.027,4.027,0,0,1-.26-1.606V-7.26h1.921v3.336a9.251,9.251,0,0,0,.106,1.876,1.023,1.023,0,0,0,.386.547,1.187,1.187,0,0,0,.711.2,1.511,1.511,0,0,0,.882-.27,1.374,1.374,0,0,0,.533-.67,7.776,7.776,0,0,0,.144-1.958V-7.26h1.921V0Zm3.1-2.071,1.928-.294a1.413,1.413,0,0,0,.5.851,1.686,1.686,0,0,0,1.053.291A1.9,1.9,0,0,0,113.06-1.5a.61.61,0,0,0,.253-.513.5.5,0,0,0-.137-.362,1.531,1.531,0,0,0-.643-.253,10.363,10.363,0,0,1-2.946-.937,1.87,1.87,0,0,1-.861-1.634,2.014,2.014,0,0,1,.745-1.586,3.479,3.479,0,0,1,2.311-.643A4.031,4.031,0,0,1,114-6.938a2.481,2.481,0,0,1,1,1.436l-1.812.335a1.12,1.12,0,0,0-.441-.649,1.612,1.612,0,0,0-.926-.226,2.087,2.087,0,0,0-1.087.212.455.455,0,0,0-.219.39.425.425,0,0,0,.191.349,7.207,7.207,0,0,0,1.794.54,5.342,5.342,0,0,1,2.143.854,1.776,1.776,0,0,1,.6,1.429,2.193,2.193,0,0,1-.834,1.716,3.692,3.692,0,0,1-2.468.718,4.049,4.049,0,0,1-2.348-.6A2.772,2.772,0,0,1,108.459-2.071Zm12.667-.239,1.914.321a3.14,3.14,0,0,1-1.166,1.6,3.424,3.424,0,0,1-1.993.55,3.248,3.248,0,0,1-2.8-1.237,4.157,4.157,0,0,1-.718-2.5A4.009,4.009,0,0,1,117.3-6.4a3.107,3.107,0,0,1,2.386-1.022,3.223,3.223,0,0,1,2.557,1.07,4.734,4.734,0,0,1,.9,3.278H118.33a1.943,1.943,0,0,0,.465,1.33,1.454,1.454,0,0,0,1.107.475,1.176,1.176,0,0,0,.759-.246A1.52,1.52,0,0,0,121.126-2.311Zm.109-1.941A1.849,1.849,0,0,0,120.8-5.52a1.322,1.322,0,0,0-1-.434,1.334,1.334,0,0,0-1.039.458,1.772,1.772,0,0,0-.4,1.244ZM131.312,0h-1.921V-3.705a5.726,5.726,0,0,0-.123-1.521,1.067,1.067,0,0,0-.4-.537,1.143,1.143,0,0,0-.667-.191,1.54,1.54,0,0,0-.9.273,1.378,1.378,0,0,0-.543.725,6.263,6.263,0,0,0-.147,1.668V0h-1.921V-7.26h1.784v1.066a2.907,2.907,0,0,1,2.393-1.23,2.882,2.882,0,0,1,1.162.229,1.947,1.947,0,0,1,.8.584,2.117,2.117,0,0,1,.376.807,6,6,0,0,1,.106,1.292Zm8.278-5.113-1.894.342a1.374,1.374,0,0,0-.434-.854,1.311,1.311,0,0,0-.878-.287,1.435,1.435,0,0,0-1.145.5,2.54,2.54,0,0,0-.427,1.658,2.938,2.938,0,0,0,.434,1.825,1.425,1.425,0,0,0,1.166.533,1.3,1.3,0,0,0,.9-.311,1.871,1.871,0,0,0,.492-1.07l1.887.321A3.348,3.348,0,0,1,138.558-.5a3.491,3.491,0,0,1-2.235.663,3.323,3.323,0,0,1-2.54-1,3.9,3.9,0,0,1-.947-2.782,3.9,3.9,0,0,1,.95-2.8,3.375,3.375,0,0,1,2.57-1,3.507,3.507,0,0,1,2.109.571A3.162,3.162,0,0,1,139.59-5.113Zm1.456-3.131v-1.777h1.921v1.777Zm0,8.244V-7.26h1.921V0Zm5.325-5.045-1.743-.314a2.715,2.715,0,0,1,1.012-1.559,3.7,3.7,0,0,1,2.133-.506,4.6,4.6,0,0,1,1.914.3,1.909,1.909,0,0,1,.885.772,3.961,3.961,0,0,1,.256,1.719l-.021,2.242A7.784,7.784,0,0,0,150.9-.974a4.12,4.12,0,0,0,.345.974h-1.9q-.075-.191-.185-.567-.048-.171-.068-.226a3.463,3.463,0,0,1-1.053.718,3.015,3.015,0,0,1-1.2.239,2.474,2.474,0,0,1-1.767-.608,2.022,2.022,0,0,1-.646-1.538,2.065,2.065,0,0,1,.294-1.1,1.921,1.921,0,0,1,.824-.738,6.438,6.438,0,0,1,1.528-.448,10.466,10.466,0,0,0,1.866-.472v-.191a1,1,0,0,0-.273-.79,1.639,1.639,0,0,0-1.032-.236,1.375,1.375,0,0,0-.8.2A1.4,1.4,0,0,0,146.371-5.045Zm2.57,1.559a12.007,12.007,0,0,1-1.169.294,3.521,3.521,0,0,0-1.046.335.8.8,0,0,0-.376.677.942.942,0,0,0,.3.7,1.05,1.05,0,0,0,.766.294,1.664,1.664,0,0,0,.991-.342,1.2,1.2,0,0,0,.458-.636,3.793,3.793,0,0,0,.075-.937Zm11-3.773v1.531h-1.312V-2.8a7.276,7.276,0,0,0,.038,1.036.422.422,0,0,0,.171.243.542.542,0,0,0,.325.1,2.485,2.485,0,0,0,.772-.185l.164,1.49a3.818,3.818,0,0,1-1.518.287,2.407,2.407,0,0,1-.937-.174,1.367,1.367,0,0,1-.612-.451,1.781,1.781,0,0,1-.27-.749,9.311,9.311,0,0,1-.062-1.354V-5.729h-.882V-7.26h.882V-8.7l1.928-1.121V-7.26Zm.889,3.527a3.927,3.927,0,0,1,.472-1.853,3.238,3.238,0,0,1,1.336-1.367,3.966,3.966,0,0,1,1.931-.472,3.625,3.625,0,0,1,2.7,1.07,3.7,3.7,0,0,1,1.053,2.7,3.74,3.74,0,0,1-1.063,2.731A3.593,3.593,0,0,1,164.582.164a4.216,4.216,0,0,1-1.9-.451A3.1,3.1,0,0,1,161.3-1.61,4.407,4.407,0,0,1,160.829-3.732Zm1.969.1a2.4,2.4,0,0,0,.513,1.654,1.629,1.629,0,0,0,1.265.574,1.619,1.619,0,0,0,1.261-.574,2.438,2.438,0,0,0,.509-1.668,2.394,2.394,0,0,0-.509-1.641,1.619,1.619,0,0,0-1.261-.574,1.629,1.629,0,0,0-1.265.574A2.4,2.4,0,0,0,162.8-3.63Zm10.356-3.63v1.531h-1.312V-2.8a7.276,7.276,0,0,0,.038,1.036.422.422,0,0,0,.171.243.542.542,0,0,0,.325.1,2.485,2.485,0,0,0,.772-.185l.164,1.49a3.818,3.818,0,0,1-1.518.287,2.407,2.407,0,0,1-.937-.174,1.367,1.367,0,0,1-.612-.451,1.781,1.781,0,0,1-.27-.749,9.311,9.311,0,0,1-.062-1.354V-5.729h-.882V-7.26h.882V-8.7l1.928-1.121V-7.26Zm2.769,2.215-1.743-.314a2.715,2.715,0,0,1,1.012-1.559,3.7,3.7,0,0,1,2.133-.506,4.6,4.6,0,0,1,1.914.3,1.909,1.909,0,0,1,.885.772,3.961,3.961,0,0,1,.256,1.719l-.021,2.242a7.784,7.784,0,0,0,.092,1.412A4.12,4.12,0,0,0,180.8,0h-1.9q-.075-.191-.185-.567-.048-.171-.068-.226a3.463,3.463,0,0,1-1.053.718,3.015,3.015,0,0,1-1.2.239,2.474,2.474,0,0,1-1.767-.608,2.022,2.022,0,0,1-.646-1.538,2.065,2.065,0,0,1,.294-1.1,1.921,1.921,0,0,1,.824-.738,6.438,6.438,0,0,1,1.528-.448,10.466,10.466,0,0,0,1.866-.472v-.191a1,1,0,0,0-.273-.79,1.639,1.639,0,0,0-1.032-.236,1.375,1.375,0,0,0-.8.2A1.4,1.4,0,0,0,175.923-5.045Zm2.57,1.559a12.007,12.007,0,0,1-1.169.294,3.521,3.521,0,0,0-1.046.335.8.8,0,0,0-.376.677.942.942,0,0,0,.3.7,1.05,1.05,0,0,0,.766.294,1.664,1.664,0,0,0,.991-.342,1.2,1.2,0,0,0,.458-.636,3.793,3.793,0,0,0,.075-.937ZM182.273,0V-10.021h1.921V0Zm14.438,0h-1.784V-1.066a2.883,2.883,0,0,1-1.049.926,2.692,2.692,0,0,1-1.22.3,2.765,2.765,0,0,1-2.143-1.008,4.1,4.1,0,0,1-.892-2.813,4.053,4.053,0,0,1,.868-2.806,2.83,2.83,0,0,1,2.194-.96,2.718,2.718,0,0,1,2.105,1.012v-3.609h1.921Zm-5.127-3.787a3.324,3.324,0,0,0,.321,1.682,1.452,1.452,0,0,0,1.3.752,1.414,1.414,0,0,0,1.128-.564A2.6,2.6,0,0,0,194.8-3.6a2.849,2.849,0,0,0-.451-1.8,1.428,1.428,0,0,0-1.155-.55,1.443,1.443,0,0,0-1.145.543A2.456,2.456,0,0,0,191.584-3.787Zm11.225,1.477,1.914.321a3.14,3.14,0,0,1-1.166,1.6,3.424,3.424,0,0,1-1.993.55,3.248,3.248,0,0,1-2.8-1.237,4.157,4.157,0,0,1-.718-2.5,4.009,4.009,0,0,1,.943-2.827,3.107,3.107,0,0,1,2.386-1.022,3.223,3.223,0,0,1,2.557,1.07,4.734,4.734,0,0,1,.9,3.278h-4.812a1.943,1.943,0,0,0,.465,1.33,1.454,1.454,0,0,0,1.107.475,1.176,1.176,0,0,0,.759-.246A1.52,1.52,0,0,0,202.809-2.311Zm.109-1.941a1.849,1.849,0,0,0-.431-1.268,1.322,1.322,0,0,0-1-.434,1.334,1.334,0,0,0-1.039.458,1.772,1.772,0,0,0-.4,1.244ZM210.28,0V-10.021H212.2V0Zm5.325-5.045-1.743-.314a2.715,2.715,0,0,1,1.012-1.559,3.7,3.7,0,0,1,2.133-.506,4.6,4.6,0,0,1,1.914.3,1.909,1.909,0,0,1,.885.772,3.961,3.961,0,0,1,.256,1.719l-.021,2.242a7.784,7.784,0,0,0,.092,1.412,4.12,4.12,0,0,0,.345.974h-1.9q-.075-.191-.185-.567-.048-.171-.068-.226a3.463,3.463,0,0,1-1.053.718,3.015,3.015,0,0,1-1.2.239,2.474,2.474,0,0,1-1.767-.608,2.022,2.022,0,0,1-.646-1.538,2.065,2.065,0,0,1,.294-1.1,1.921,1.921,0,0,1,.824-.738,6.438,6.438,0,0,1,1.528-.448,10.466,10.466,0,0,0,1.866-.472v-.191a1,1,0,0,0-.273-.79,1.639,1.639,0,0,0-1.032-.236,1.375,1.375,0,0,0-.8.2A1.4,1.4,0,0,0,215.605-5.045Zm2.57,1.559a12.007,12.007,0,0,1-1.169.294,3.521,3.521,0,0,0-1.046.335.8.8,0,0,0-.376.677.942.942,0,0,0,.3.7,1.05,1.05,0,0,0,.766.294,1.664,1.664,0,0,0,.991-.342,1.2,1.2,0,0,0,.458-.636,3.793,3.793,0,0,0,.075-.937Zm3.1,1.415,1.928-.294a1.412,1.412,0,0,0,.5.851,1.686,1.686,0,0,0,1.053.291A1.9,1.9,0,0,0,225.88-1.5a.61.61,0,0,0,.253-.513A.5.5,0,0,0,226-2.372a1.531,1.531,0,0,0-.643-.253,10.363,10.363,0,0,1-2.946-.937,1.87,1.87,0,0,1-.861-1.634,2.013,2.013,0,0,1,.745-1.586,3.479,3.479,0,0,1,2.311-.643,4.031,4.031,0,0,1,2.215.485,2.481,2.481,0,0,1,1,1.436L226-5.168a1.12,1.12,0,0,0-.441-.649,1.612,1.612,0,0,0-.926-.226,2.087,2.087,0,0,0-1.087.212.455.455,0,0,0-.219.39.425.425,0,0,0,.191.349,7.207,7.207,0,0,0,1.794.54,5.342,5.342,0,0,1,2.143.854,1.776,1.776,0,0,1,.6,1.429,2.193,2.193,0,0,1-.834,1.716,3.692,3.692,0,0,1-2.468.718,4.049,4.049,0,0,1-2.348-.6A2.772,2.772,0,0,1,221.279-2.071Z" transform="translate(1313.4 2466.622)" fill="#20143b"/>
    <path id="Trazado_180" data-name="Trazado 180" d="M5.209-2.311l1.914.321a3.14,3.14,0,0,1-1.166,1.6,3.424,3.424,0,0,1-1.993.55,3.248,3.248,0,0,1-2.8-1.237,4.157,4.157,0,0,1-.718-2.5A4.009,4.009,0,0,1,1.388-6.4,3.107,3.107,0,0,1,3.773-7.424,3.223,3.223,0,0,1,6.33-6.354a4.734,4.734,0,0,1,.9,3.278H2.413a1.943,1.943,0,0,0,.465,1.33,1.454,1.454,0,0,0,1.107.475,1.176,1.176,0,0,0,.759-.246A1.52,1.52,0,0,0,5.209-2.311Zm.109-1.941A1.849,1.849,0,0,0,4.888-5.52a1.322,1.322,0,0,0-1-.434A1.334,1.334,0,0,0,2.851-5.5a1.772,1.772,0,0,0-.4,1.244Zm2.8,2.181,1.928-.294a1.413,1.413,0,0,0,.5.851,1.686,1.686,0,0,0,1.053.291A1.9,1.9,0,0,0,12.715-1.5a.61.61,0,0,0,.253-.513.5.5,0,0,0-.137-.362,1.531,1.531,0,0,0-.643-.253,10.363,10.363,0,0,1-2.946-.937A1.87,1.87,0,0,1,8.381-5.2a2.014,2.014,0,0,1,.745-1.586,3.479,3.479,0,0,1,2.311-.643,4.031,4.031,0,0,1,2.215.485,2.481,2.481,0,0,1,1,1.436l-1.812.335a1.12,1.12,0,0,0-.441-.649,1.612,1.612,0,0,0-.926-.226,2.087,2.087,0,0,0-1.087.212.455.455,0,0,0-.219.39.425.425,0,0,0,.191.349,7.207,7.207,0,0,0,1.794.54,5.342,5.342,0,0,1,2.143.854,1.776,1.776,0,0,1,.6,1.429,2.193,2.193,0,0,1-.834,1.716,3.692,3.692,0,0,1-2.468.718,4.049,4.049,0,0,1-2.348-.6A2.772,2.772,0,0,1,8.114-2.071ZM19.906-7.26v1.531H18.594V-2.8a7.277,7.277,0,0,0,.038,1.036.422.422,0,0,0,.171.243.542.542,0,0,0,.325.1,2.485,2.485,0,0,0,.772-.185l.164,1.49a3.818,3.818,0,0,1-1.518.287,2.407,2.407,0,0,1-.937-.174A1.367,1.367,0,0,1,17-.461a1.781,1.781,0,0,1-.27-.749,9.311,9.311,0,0,1-.062-1.354V-5.729h-.882V-7.26h.882V-8.7l1.928-1.121V-7.26ZM23.078,0H21.157V-7.26h1.784v1.032a3.1,3.1,0,0,1,.824-.964,1.515,1.515,0,0,1,.831-.232,2.438,2.438,0,0,1,1.265.362l-.595,1.675a1.686,1.686,0,0,0-.9-.314,1.066,1.066,0,0,0-.684.222,1.519,1.519,0,0,0-.441.8,11.411,11.411,0,0,0-.161,2.434Zm8.388,0V-1.087a2.8,2.8,0,0,1-1.042.916A2.922,2.922,0,0,1,29.06.164a2.666,2.666,0,0,1-1.312-.321,1.9,1.9,0,0,1-.841-.9,4.027,4.027,0,0,1-.26-1.606V-7.26h1.921v3.336a9.251,9.251,0,0,0,.106,1.876,1.023,1.023,0,0,0,.386.547,1.187,1.187,0,0,0,.711.2,1.511,1.511,0,0,0,.882-.27,1.374,1.374,0,0,0,.533-.67A7.776,7.776,0,0,0,31.329-4.2V-7.26H33.25V0Zm10.1-5.113-1.894.342a1.374,1.374,0,0,0-.434-.854,1.311,1.311,0,0,0-.878-.287,1.435,1.435,0,0,0-1.145.5,2.54,2.54,0,0,0-.427,1.658,2.938,2.938,0,0,0,.434,1.825,1.425,1.425,0,0,0,1.166.533,1.3,1.3,0,0,0,.9-.311,1.871,1.871,0,0,0,.492-1.07l1.887.321A3.348,3.348,0,0,1,40.537-.5,3.491,3.491,0,0,1,38.3.164a3.323,3.323,0,0,1-2.54-1,3.9,3.9,0,0,1-.947-2.782,3.9,3.9,0,0,1,.95-2.8,3.375,3.375,0,0,1,2.57-1,3.507,3.507,0,0,1,2.109.571A3.162,3.162,0,0,1,41.569-5.113ZM46.354-7.26v1.531H45.042V-2.8a7.277,7.277,0,0,0,.038,1.036.422.422,0,0,0,.171.243.542.542,0,0,0,.325.1,2.485,2.485,0,0,0,.772-.185l.164,1.49a3.818,3.818,0,0,1-1.518.287,2.407,2.407,0,0,1-.937-.174,1.367,1.367,0,0,1-.612-.451,1.781,1.781,0,0,1-.27-.749,9.311,9.311,0,0,1-.062-1.354V-5.729h-.882V-7.26h.882V-8.7l1.928-1.121V-7.26ZM52.466,0V-1.087a2.8,2.8,0,0,1-1.042.916A2.922,2.922,0,0,1,50.06.164a2.666,2.666,0,0,1-1.312-.321,1.9,1.9,0,0,1-.841-.9,4.027,4.027,0,0,1-.26-1.606V-7.26h1.921v3.336a9.251,9.251,0,0,0,.106,1.876,1.023,1.023,0,0,0,.386.547,1.187,1.187,0,0,0,.711.2,1.511,1.511,0,0,0,.882-.27,1.374,1.374,0,0,0,.533-.67A7.776,7.776,0,0,0,52.329-4.2V-7.26H54.25V0Zm5.612,0H56.157V-7.26h1.784v1.032a3.1,3.1,0,0,1,.824-.964,1.515,1.515,0,0,1,.831-.232,2.438,2.438,0,0,1,1.265.362l-.595,1.675a1.686,1.686,0,0,0-.9-.314,1.066,1.066,0,0,0-.684.222,1.519,1.519,0,0,0-.441.8,11.411,11.411,0,0,0-.161,2.434Zm5.045-5.045L61.38-5.359a2.715,2.715,0,0,1,1.012-1.559,3.7,3.7,0,0,1,2.133-.506,4.6,4.6,0,0,1,1.914.3,1.909,1.909,0,0,1,.885.772,3.961,3.961,0,0,1,.256,1.719L67.56-2.386a7.784,7.784,0,0,0,.092,1.412A4.12,4.12,0,0,0,68,0H66.1q-.075-.191-.185-.567-.048-.171-.068-.226a3.463,3.463,0,0,1-1.053.718,3.015,3.015,0,0,1-1.2.239,2.474,2.474,0,0,1-1.767-.608,2.022,2.022,0,0,1-.646-1.538,2.065,2.065,0,0,1,.294-1.1,1.921,1.921,0,0,1,.824-.738,6.438,6.438,0,0,1,1.528-.448,10.466,10.466,0,0,0,1.866-.472v-.191a1,1,0,0,0-.273-.79,1.639,1.639,0,0,0-1.032-.236,1.375,1.375,0,0,0-.8.2A1.4,1.4,0,0,0,63.123-5.045Zm2.57,1.559a12.007,12.007,0,0,1-1.169.294,3.521,3.521,0,0,0-1.046.335.8.8,0,0,0-.376.677.942.942,0,0,0,.3.7,1.05,1.05,0,0,0,.766.294,1.664,1.664,0,0,0,.991-.342,1.2,1.2,0,0,0,.458-.636,3.793,3.793,0,0,0,.075-.937Zm3.1,1.415,1.928-.294a1.413,1.413,0,0,0,.5.851,1.686,1.686,0,0,0,1.053.291A1.9,1.9,0,0,0,73.4-1.5a.61.61,0,0,0,.253-.513.5.5,0,0,0-.137-.362,1.531,1.531,0,0,0-.643-.253,10.363,10.363,0,0,1-2.946-.937A1.87,1.87,0,0,1,69.063-5.2a2.014,2.014,0,0,1,.745-1.586,3.479,3.479,0,0,1,2.311-.643,4.031,4.031,0,0,1,2.215.485,2.481,2.481,0,0,1,1,1.436l-1.812.335a1.12,1.12,0,0,0-.441-.649,1.612,1.612,0,0,0-.926-.226,2.087,2.087,0,0,0-1.087.212.455.455,0,0,0-.219.39.425.425,0,0,0,.191.349,7.207,7.207,0,0,0,1.794.54,5.342,5.342,0,0,1,2.143.854,1.776,1.776,0,0,1,.6,1.429,2.193,2.193,0,0,1-.834,1.716,3.692,3.692,0,0,1-2.468.718,4.049,4.049,0,0,1-2.348-.6A2.772,2.772,0,0,1,68.8-2.071ZM87.808,0H86.023V-1.066a2.883,2.883,0,0,1-1.049.926,2.692,2.692,0,0,1-1.22.3A2.765,2.765,0,0,1,81.611-.844a4.1,4.1,0,0,1-.892-2.813,4.053,4.053,0,0,1,.868-2.806,2.83,2.83,0,0,1,2.194-.96,2.718,2.718,0,0,1,2.105,1.012v-3.609h1.921ZM82.681-3.787A3.324,3.324,0,0,0,83-2.105a1.452,1.452,0,0,0,1.3.752,1.414,1.414,0,0,0,1.128-.564A2.6,2.6,0,0,0,85.894-3.6a2.849,2.849,0,0,0-.451-1.8,1.428,1.428,0,0,0-1.155-.55,1.443,1.443,0,0,0-1.145.543A2.456,2.456,0,0,0,82.681-3.787ZM93.905-2.311l1.914.321a3.14,3.14,0,0,1-1.166,1.6,3.424,3.424,0,0,1-1.993.55,3.248,3.248,0,0,1-2.8-1.237,4.157,4.157,0,0,1-.718-2.5A4.009,4.009,0,0,1,90.084-6.4,3.107,3.107,0,0,1,92.47-7.424a3.223,3.223,0,0,1,2.557,1.07,4.734,4.734,0,0,1,.9,3.278H91.109a1.943,1.943,0,0,0,.465,1.33,1.454,1.454,0,0,0,1.107.475,1.176,1.176,0,0,0,.759-.246A1.52,1.52,0,0,0,93.905-2.311Zm.109-1.941a1.849,1.849,0,0,0-.431-1.268,1.322,1.322,0,0,0-1-.434,1.334,1.334,0,0,0-1.039.458,1.772,1.772,0,0,0-.4,1.244ZM101.377,0V-10.021H103.3V0ZM106.7-5.045l-1.743-.314a2.715,2.715,0,0,1,1.012-1.559,3.7,3.7,0,0,1,2.133-.506,4.6,4.6,0,0,1,1.914.3,1.909,1.909,0,0,1,.885.772,3.961,3.961,0,0,1,.256,1.719l-.021,2.242a7.784,7.784,0,0,0,.092,1.412,4.12,4.12,0,0,0,.345.974h-1.9q-.075-.191-.185-.567-.048-.171-.068-.226a3.463,3.463,0,0,1-1.053.718,3.015,3.015,0,0,1-1.2.239,2.474,2.474,0,0,1-1.767-.608,2.022,2.022,0,0,1-.646-1.538,2.065,2.065,0,0,1,.294-1.1,1.921,1.921,0,0,1,.824-.738,6.438,6.438,0,0,1,1.528-.448,10.466,10.466,0,0,0,1.866-.472v-.191a1,1,0,0,0-.273-.79,1.639,1.639,0,0,0-1.032-.236,1.375,1.375,0,0,0-.8.2A1.4,1.4,0,0,0,106.7-5.045Zm2.57,1.559a12.007,12.007,0,0,1-1.169.294,3.521,3.521,0,0,0-1.046.335.8.8,0,0,0-.376.677.942.942,0,0,0,.3.7,1.05,1.05,0,0,0,.766.294,1.664,1.664,0,0,0,.991-.342,1.2,1.2,0,0,0,.458-.636,3.793,3.793,0,0,0,.075-.937Zm7.615-3.773h1.791v1.066a2.68,2.68,0,0,1,.943-.889,2.6,2.6,0,0,1,1.319-.342,2.768,2.768,0,0,1,2.146.991,4.012,4.012,0,0,1,.882,2.762,4.134,4.134,0,0,1-.889,2.827A2.769,2.769,0,0,1,120.928.164a2.447,2.447,0,0,1-1.09-.239,3.675,3.675,0,0,1-1.029-.82V2.762h-1.921Zm1.9,3.507a2.8,2.8,0,0,0,.485,1.808,1.485,1.485,0,0,0,1.183.584A1.388,1.388,0,0,0,121.57-1.9a2.765,2.765,0,0,0,.444-1.76,2.624,2.624,0,0,0-.458-1.7,1.417,1.417,0,0,0-1.135-.554,1.474,1.474,0,0,0-1.169.543A2.419,2.419,0,0,0,118.788-3.753Zm6.706-4.491v-1.777h1.921v1.777Zm0,8.244V-7.26h1.921V0Zm8.094-2.311,1.914.321a3.14,3.14,0,0,1-1.166,1.6,3.424,3.424,0,0,1-1.993.55,3.248,3.248,0,0,1-2.8-1.237,4.157,4.157,0,0,1-.718-2.5,4.009,4.009,0,0,1,.943-2.827,3.107,3.107,0,0,1,2.386-1.022,3.223,3.223,0,0,1,2.557,1.07,4.734,4.734,0,0,1,.9,3.278h-4.812a1.943,1.943,0,0,0,.465,1.33,1.454,1.454,0,0,0,1.107.475,1.176,1.176,0,0,0,.759-.246A1.52,1.52,0,0,0,133.588-2.311Zm.109-1.941a1.849,1.849,0,0,0-.431-1.268,1.322,1.322,0,0,0-1-.434,1.334,1.334,0,0,0-1.039.458,1.772,1.772,0,0,0-.4,1.244ZM139.009,0h-1.921V-7.26h1.784v1.032a3.1,3.1,0,0,1,.824-.964,1.515,1.515,0,0,1,.831-.232,2.438,2.438,0,0,1,1.265.362L141.2-5.387a1.686,1.686,0,0,0-.9-.314,1.066,1.066,0,0,0-.684.222,1.519,1.519,0,0,0-.441.8,11.41,11.41,0,0,0-.161,2.434Zm10.213,0H147.3V-3.705a5.726,5.726,0,0,0-.123-1.521,1.067,1.067,0,0,0-.4-.537,1.143,1.143,0,0,0-.667-.191,1.54,1.54,0,0,0-.9.273,1.378,1.378,0,0,0-.543.725,6.264,6.264,0,0,0-.147,1.668V0H142.6V-7.26h1.784v1.066a2.907,2.907,0,0,1,2.393-1.23,2.882,2.882,0,0,1,1.162.229,1.947,1.947,0,0,1,.8.584,2.117,2.117,0,0,1,.376.807,6,6,0,0,1,.106,1.292Zm3.384-5.045-1.743-.314a2.715,2.715,0,0,1,1.012-1.559,3.7,3.7,0,0,1,2.133-.506,4.6,4.6,0,0,1,1.914.3,1.909,1.909,0,0,1,.885.772,3.961,3.961,0,0,1,.256,1.719l-.021,2.242a7.784,7.784,0,0,0,.092,1.412,4.12,4.12,0,0,0,.345.974h-1.9q-.075-.191-.185-.567-.048-.171-.068-.226a3.463,3.463,0,0,1-1.053.718,3.015,3.015,0,0,1-1.2.239,2.474,2.474,0,0,1-1.767-.608,2.022,2.022,0,0,1-.646-1.538,2.065,2.065,0,0,1,.294-1.1,1.921,1.921,0,0,1,.824-.738,6.438,6.438,0,0,1,1.528-.448,10.466,10.466,0,0,0,1.866-.472v-.191a1,1,0,0,0-.273-.79,1.639,1.639,0,0,0-1.032-.236,1.375,1.375,0,0,0-.8.2A1.4,1.4,0,0,0,152.605-5.045Zm2.57,1.559a12.007,12.007,0,0,1-1.169.294,3.521,3.521,0,0,0-1.046.335.8.8,0,0,0-.376.677.942.942,0,0,0,.3.7,1.05,1.05,0,0,0,.766.294,1.664,1.664,0,0,0,.991-.342,1.2,1.2,0,0,0,.458-.636,3.793,3.793,0,0,0,.075-.937ZM169.5,0H167.72V-1.066a2.883,2.883,0,0,1-1.049.926,2.692,2.692,0,0,1-1.22.3,2.765,2.765,0,0,1-2.143-1.008,4.1,4.1,0,0,1-.892-2.813,4.053,4.053,0,0,1,.868-2.806,2.83,2.83,0,0,1,2.194-.96,2.718,2.718,0,0,1,2.105,1.012v-3.609H169.5Zm-5.127-3.787a3.324,3.324,0,0,0,.321,1.682,1.452,1.452,0,0,0,1.3.752,1.414,1.414,0,0,0,1.128-.564A2.6,2.6,0,0,0,167.59-3.6a2.849,2.849,0,0,0-.451-1.8,1.428,1.428,0,0,0-1.155-.55,1.443,1.443,0,0,0-1.145.543A2.456,2.456,0,0,0,164.377-3.787ZM175.6-2.311l1.914.321a3.14,3.14,0,0,1-1.166,1.6,3.424,3.424,0,0,1-1.993.55,3.248,3.248,0,0,1-2.8-1.237,4.157,4.157,0,0,1-.718-2.5A4.009,4.009,0,0,1,171.78-6.4a3.107,3.107,0,0,1,2.386-1.022,3.223,3.223,0,0,1,2.557,1.07,4.734,4.734,0,0,1,.9,3.278h-4.812a1.943,1.943,0,0,0,.465,1.33,1.454,1.454,0,0,0,1.107.475,1.176,1.176,0,0,0,.759-.246A1.52,1.52,0,0,0,175.6-2.311Zm.109-1.941a1.849,1.849,0,0,0-.431-1.268,1.322,1.322,0,0,0-1-.434,1.334,1.334,0,0,0-1.039.458,1.772,1.772,0,0,0-.4,1.244ZM181.022,0H179.1V-7.26h1.784v1.032a3.1,3.1,0,0,1,.824-.964,1.515,1.515,0,0,1,.831-.232,2.438,2.438,0,0,1,1.265.362l-.595,1.675a1.686,1.686,0,0,0-.9-.314,1.066,1.066,0,0,0-.684.222,1.519,1.519,0,0,0-.441.8,11.41,11.41,0,0,0-.161,2.434Zm7.813-2.311,1.914.321a3.14,3.14,0,0,1-1.166,1.6,3.424,3.424,0,0,1-1.993.55,3.248,3.248,0,0,1-2.8-1.237,4.157,4.157,0,0,1-.718-2.5,4.009,4.009,0,0,1,.943-2.827A3.107,3.107,0,0,1,187.4-7.424a3.223,3.223,0,0,1,2.557,1.07,4.734,4.734,0,0,1,.9,3.278H186.04a1.943,1.943,0,0,0,.465,1.33,1.454,1.454,0,0,0,1.107.475,1.176,1.176,0,0,0,.759-.246A1.52,1.52,0,0,0,188.836-2.311Zm.109-1.941a1.849,1.849,0,0,0-.431-1.268,1.322,1.322,0,0,0-1-.434,1.334,1.334,0,0,0-1.039.458,1.772,1.772,0,0,0-.4,1.244Zm9.8-.861-1.894.342a1.374,1.374,0,0,0-.434-.854,1.311,1.311,0,0,0-.878-.287,1.435,1.435,0,0,0-1.145.5,2.54,2.54,0,0,0-.427,1.658,2.938,2.938,0,0,0,.434,1.825,1.425,1.425,0,0,0,1.166.533,1.3,1.3,0,0,0,.9-.311,1.871,1.871,0,0,0,.492-1.07l1.887.321A3.348,3.348,0,0,1,197.716-.5a3.491,3.491,0,0,1-2.235.663,3.323,3.323,0,0,1-2.54-1,3.9,3.9,0,0,1-.947-2.782,3.9,3.9,0,0,1,.95-2.8,3.375,3.375,0,0,1,2.57-1,3.507,3.507,0,0,1,2.109.571A3.162,3.162,0,0,1,198.748-5.113Zm3.37-4.908v3.685a2.833,2.833,0,0,1,2.222-1.087,2.822,2.822,0,0,1,1.2.246,1.955,1.955,0,0,1,.8.629,2.28,2.28,0,0,1,.369.848,7.577,7.577,0,0,1,.1,1.442V0h-1.921V-3.835a5.678,5.678,0,0,0-.109-1.449.951.951,0,0,0-.386-.489,1.242,1.242,0,0,0-.694-.181,1.592,1.592,0,0,0-.854.232,1.341,1.341,0,0,0-.55.7,4.185,4.185,0,0,0-.174,1.384V0H200.2V-10.021Zm8.073,4.977-1.743-.314a2.715,2.715,0,0,1,1.012-1.559,3.7,3.7,0,0,1,2.133-.506,4.6,4.6,0,0,1,1.914.3,1.909,1.909,0,0,1,.885.772,3.961,3.961,0,0,1,.256,1.719l-.021,2.242a7.784,7.784,0,0,0,.092,1.412,4.12,4.12,0,0,0,.345.974h-1.9q-.075-.191-.185-.567-.048-.171-.068-.226a3.463,3.463,0,0,1-1.053.718,3.015,3.015,0,0,1-1.2.239A2.474,2.474,0,0,1,208.9-.444a2.022,2.022,0,0,1-.646-1.538,2.065,2.065,0,0,1,.294-1.1,1.921,1.921,0,0,1,.824-.738,6.438,6.438,0,0,1,1.528-.448,10.466,10.466,0,0,0,1.866-.472v-.191a1,1,0,0,0-.273-.79,1.639,1.639,0,0,0-1.032-.236,1.375,1.375,0,0,0-.8.2A1.4,1.4,0,0,0,210.191-5.045Zm2.57,1.559a12.007,12.007,0,0,1-1.169.294,3.521,3.521,0,0,0-1.046.335.8.8,0,0,0-.376.677.942.942,0,0,0,.3.7,1.05,1.05,0,0,0,.766.294,1.664,1.664,0,0,0,.991-.342,1.2,1.2,0,0,0,.458-.636,3.793,3.793,0,0,0,.075-.937Z" transform="translate(1319.994 2483.422)" fill="#20143b"/>
    <path id="Trazado_172" data-name="Trazado 172" d="M0,0H-283.215" transform="translate(1567.213 2497.41)" fill="none" stroke="#20143b" stroke-width="1" stroke-dasharray="0.996 1.996"/>
    <path id="Trazado_173" data-name="Trazado 173" d="M0,0V-64.957" transform="translate(1282.5 2494.911)" fill="none" stroke="#20143b" stroke-width="1" stroke-dasharray="0.999 1.999"/>
    <path id="Trazado_174" data-name="Trazado 174" d="M0,0H283.215" transform="translate(1284.996 2428.455)" fill="none" stroke="#20143b" stroke-width="1" stroke-dasharray="0.996 1.996"/>
    <path id="Trazado_175" data-name="Trazado 175" d="M0,0V64.957" transform="translate(1569.709 2430.954)" fill="none" stroke="#20143b" stroke-width="1" stroke-dasharray="0.999 1.999"/>
    <path id="Trazado_176" data-name="Trazado 176" d="M0,0H-.5V-.5m0-67.955v-.5H0m286.209,0h.5v.5m0,67.955V0h-.5" transform="translate(1283 2497.41)" fill="none" stroke="#20143b" stroke-width="1"/>
    <path id="Trazado_177" data-name="Trazado 177" d="M0,0H288.209V-69.955H0Z" transform="translate(1282 2497.91)" fill="none"/>
  </g>
</svg>
